<svg width="165" height="142" viewBox="0 0 165 142" fill="none" xmlns="http://www.w3.org/2000/svg">
<path d="M44.3633 107.88C43.9533 109.759 42.8224 111.212 40.5044 111.212C38.1863 111.212 36.7181 109.561 36.7181 106.56C36.7181 103.71 38.269 102.121 40.6862 102.121C43.0307 102.121 44.1715 103.551 44.3766 105.493L42.2173 105.823C42.0718 104.502 41.4633 104.007 40.6135 104.007C39.6909 104.007 39.1221 104.842 39.1221 106.553C39.1221 108.478 39.6545 109.281 40.6399 109.281C41.4997 109.281 42.0486 108.6 42.2933 107.484L44.3633 107.88ZM50.6759 111.067L49.4127 107.89H48.2984V111.067H45.9076V102.267H49.2937C51.6845 102.267 52.8848 103.165 52.8848 104.935C52.8848 106.074 52.4252 106.801 51.5621 107.263L53.2849 111.067H50.6759ZM49.2705 106.038C49.7566 106.038 50.4841 105.929 50.4841 105.116C50.4841 104.304 49.8525 104.218 49.3797 104.218H48.3116V106.038H49.2705ZM54.7796 111.067V102.267H60.9731V104.218H57.1604V105.625H59.8521V107.517H57.1571V109.115H61.0293V111.067H54.7796ZM62.7158 111.067V102.267H65.6919C68.496 102.267 70.0501 103.66 70.0501 106.51C70.0501 109.442 68.4133 111.067 65.596 111.067H62.7158ZM65.6919 109.02C67.041 109.02 67.6461 108.075 67.6461 106.583C67.6461 105.09 67.041 104.314 65.7778 104.314H65.1165V109.02H65.6919ZM71.7994 102.267H74.1902V111.067H71.7994V102.267ZM77.94 111.067V104.218H75.7245V102.267H82.5331V104.218H80.3209V111.067H77.94ZM92.7741 102.267H95.1649V107.359C95.1649 109.819 94.0373 111.212 91.3291 111.212C88.6208 111.212 87.6751 109.819 87.6751 107.359V102.267H90.0791V107.735C90.0791 108.68 90.5057 109.201 91.3787 109.201C92.2516 109.201 92.7741 108.68 92.7741 107.735V102.267ZM102.413 111.067L99.4769 105.929H99.4504V111.067H97.2184V102.267H99.8638L102.509 107.104H102.532V102.267H104.754V111.067H102.413ZM106.904 102.267H109.308V111.067H106.904V102.267ZM111.044 106.662C111.044 104.71 111.907 102.115 115.012 102.115C118.117 102.115 118.98 104.71 118.98 106.662C118.98 109.304 117.657 111.206 115.012 111.206C112.367 111.206 111.044 109.317 111.044 106.662ZM116.579 106.662C116.579 104.965 116.12 104.02 115.002 104.02C113.884 104.02 113.438 104.978 113.438 106.662C113.438 108.346 113.861 109.281 115.002 109.281C116.143 109.281 116.579 108.346 116.579 106.662ZM125.914 111.06L122.978 105.922H122.955V111.06H120.733V102.267H123.414L126.037 107.104H126.06V102.267H128.282V111.067L125.914 111.06Z" fill="#003C71"/>
<path d="M14.6487 95.7055V72.6064H21.54C26.9002 72.6064 29.6151 74.9179 29.6151 79.9538C29.6151 84.8411 26.682 87.4235 21.6789 87.4235H20.0255V95.7055H14.6487ZM21.8244 82.9093C23.0082 82.9093 24.0697 82.163 24.0697 79.9538C24.0697 78.022 23.1008 77.2757 21.7913 77.2757H20.0123V82.9093H21.8244ZM41.7111 95.7055L39.2179 87.0503H37.3165V95.7055H31.9529V72.6064H39.0195C44.0689 72.6064 46.6878 74.5052 46.6878 79.3C46.6878 82.3513 45.7189 84.1245 43.9432 85.3398L47.4351 95.7055H41.7111ZM38.6557 82.7244C40.0611 82.7244 41.2118 82.163 41.2118 79.8614C41.2118 77.0281 39.7172 77.1205 38.7814 77.1205H37.3165V82.7343L38.6557 82.7244ZM48.695 84.1873C48.695 77.0908 50.5666 72.3257 56.8924 72.3257C63.2182 72.3257 65.0601 77.0908 65.0601 84.1873C65.0601 91.5645 62.785 95.9862 56.8924 95.9862C50.9998 95.9862 48.695 91.5645 48.695 84.1873ZM59.5444 84.1873C59.5444 78.7716 58.8566 76.7771 56.899 76.7771C54.9414 76.7771 54.2206 78.7584 54.2206 84.1873C54.2206 89.8836 55.0307 91.5975 56.899 91.5975C58.7673 91.5975 59.5444 89.8836 59.5444 84.1873ZM76.5642 79.1448C76.1906 77.7446 75.4433 76.5922 74.071 76.5922C72.9797 76.5922 72.4507 77.2757 72.4507 78.1475C72.4507 81.8526 81.5508 81.78 81.5508 89.3553C81.5508 93.4963 78.621 95.9862 74.1007 95.9862C69.6763 95.9862 67.4872 94.0246 66.7432 89.7284L71.7033 88.7939C71.9546 90.6002 72.6722 91.69 74.2925 91.69C75.4763 91.69 76.3195 91.0658 76.3195 89.8539C76.3195 85.9309 67.183 86.1785 67.183 78.4909C67.183 74.8585 69.7722 72.3257 74.0114 72.3257C78.3763 72.3257 80.2943 74.5382 81.1805 78.1772L76.5642 79.1448ZM83.9218 95.7055V72.6064H90.8097C96.203 72.6064 98.8848 74.9179 98.8848 79.9538C98.8848 84.8411 95.955 87.4235 90.9486 87.4235H89.3283V95.7055H83.9218ZM91.0908 82.9093C92.3077 82.9093 93.3658 82.163 93.3658 79.9538C93.3658 78.022 92.4003 77.2757 91.0511 77.2757H89.3051V82.9093H91.0908ZM101.223 95.7055V72.6064H114.119V77.2724H106.58V81.5653H112.224V86.1092H106.58V91.0295H114.413V95.6989L101.223 95.7055ZM144.802 95.7055L143.929 90.7257H139.564L138.754 95.7055H133.262L138.222 72.6064H145.235L150.348 95.7055H144.802ZM140.282 86.1488H143.152L141.747 77.8668H141.654L140.282 86.1488ZM126.939 95.7055L124.446 87.0503H122.545V95.7055H117.181V72.6064H124.257C129.307 72.6064 131.926 74.5052 131.926 79.3C131.926 82.3513 130.96 84.1245 129.181 85.3398L132.673 95.7055H126.939ZM123.887 82.7244C125.289 82.7244 126.443 82.163 126.443 79.8614C126.443 77.0281 124.945 77.1205 124.009 77.1205H122.545V82.7343L123.887 82.7244Z" fill="#003C71"/>
<path d="M72.5797 35.5482L93.4121 14.7441L96.3254 17.6534L75.4929 38.4575L72.5797 35.5482ZM69.6664 38.4575L58.7542 49.3548L61.6674 52.2641L72.5797 41.3667L69.6664 38.4575ZM89.4804 38.4575L68.6479 59.2615L71.5645 62.1708L92.397 41.3667L89.4804 38.4575ZM95.3102 38.4575L106.222 27.5601L103.309 24.6508L92.397 35.5482L95.3102 38.4575Z" fill="#003C71"/>
<path d="M79.5734 28.5645L68.6612 17.6671L71.5744 14.7578L82.4867 25.6552L79.5734 28.5645ZM85.4032 28.5645L82.4867 31.4737L103.319 52.2778L106.232 49.3685L85.4032 28.5645ZM82.4867 45.4422L61.6707 24.6381L58.7542 27.5474L79.5866 48.3514L82.4867 45.4422ZM85.4032 48.3514L82.4867 51.2607L93.3989 62.1581L96.3122 59.2488L85.4032 48.3514Z" fill="#F15C6C"/>
</svg>
