<svg width="359" height="320" viewBox="0 0 359 320" fill="none" xmlns="http://www.w3.org/2000/svg">
<path d="M0.935547 160C0.935547 202.435 17.7926 243.131 47.7985 273.137C77.8043 303.143 118.501 320 160.936 320C203.37 320 244.067 303.143 274.073 273.137C304.078 243.131 320.936 202.435 320.936 160C320.936 117.565 304.078 76.8687 274.073 46.8629C244.067 16.8571 203.37 0 160.936 0C118.501 0 77.8043 16.8571 47.7985 46.8629C17.7926 76.8687 0.935547 117.565 0.935547 160Z" fill="#EFF2FE"/>
<path d="M204.936 282.6C204.936 279.288 185.236 276.6 160.936 276.6C136.636 276.6 116.936 279.288 116.936 282.6C116.936 285.912 136.636 288.6 160.936 288.6C185.236 288.6 204.936 285.912 204.936 282.6Z" fill="#EFF2FE"/>
<path d="M207.232 157.38L164.7 72.3159C164.35 71.6168 163.813 71.0288 163.148 70.6179C162.484 70.2069 161.717 69.9893 160.936 69.9893C160.154 69.9893 159.388 70.2069 158.723 70.6179C158.059 71.0288 157.521 71.6168 157.172 72.3159L114.64 157.38L60.7119 110.64C60.0493 110.064 59.223 109.709 58.3489 109.626C57.4747 109.543 56.5964 109.735 55.837 110.176C55.0776 110.617 54.4752 111.284 54.1142 112.085C53.7532 112.885 53.6517 113.779 53.8239 114.64L76.7599 233.156C76.7599 233.156 76.7599 254.2 160.936 254.2C245.112 254.2 245.108 233.156 245.108 233.156L268.048 114.64C268.22 113.779 268.118 112.885 267.757 112.085C267.396 111.284 266.794 110.617 266.035 110.176C265.275 109.735 264.397 109.543 263.523 109.626C262.649 109.709 261.822 110.064 261.16 110.64L207.232 157.38Z" fill="white"/>
<path d="M73.1514 214.484L76.7514 233.136C76.7514 233.136 76.7514 254.18 160.927 254.18C245.103 254.18 245.099 233.136 245.099 233.136L248.699 214.484C240.619 220.656 218.963 228.928 160.915 228.928C102.867 228.928 81.2274 220.656 73.1514 214.484Z" fill="#EFF2FE"/>
<path d="M73.1514 214.484C81.2274 220.656 102.883 228.928 160.935 228.928C218.987 228.928 240.639 220.656 248.719 214.484" stroke="#5063F4" stroke-width="4" stroke-linejoin="round"/>
<path d="M207.232 157.38L164.7 72.3159C164.35 71.6168 163.813 71.0288 163.148 70.6179C162.484 70.2069 161.717 69.9893 160.936 69.9893C160.154 69.9893 159.388 70.2069 158.723 70.6179C158.059 71.0288 157.521 71.6168 157.172 72.3159L114.64 157.38L60.7119 110.64C60.0493 110.064 59.223 109.709 58.3489 109.626C57.4747 109.543 56.5964 109.735 55.837 110.176C55.0776 110.617 54.4752 111.284 54.1142 112.085C53.7532 112.885 53.6517 113.779 53.8239 114.64L76.7599 233.156C76.7599 233.156 76.7599 254.2 160.936 254.2C245.112 254.2 245.108 233.156 245.108 233.156L268.048 114.64C268.22 113.779 268.118 112.885 267.757 112.085C267.396 111.284 266.794 110.617 266.035 110.176C265.275 109.735 264.397 109.543 263.523 109.626C262.649 109.709 261.822 110.064 261.16 110.64L207.232 157.38Z" stroke="#5063F4" stroke-width="4" stroke-linejoin="round"/>
<path d="M240.448 55.4721C240.989 53.1414 242.173 51.0091 243.865 49.3172C245.557 47.6252 247.689 46.4414 250.02 45.9001L269.22 41.4681C269.57 41.3843 269.881 41.1853 270.103 40.903C270.326 40.6207 270.447 40.2716 270.447 39.9121C270.447 39.5525 270.326 39.2035 270.103 38.9212C269.881 38.6389 269.57 38.4398 269.22 38.3561L250.02 33.9281C247.688 33.3893 245.554 32.2063 243.862 30.514C242.17 28.8217 240.987 26.688 240.448 24.3561L236.016 5.15606C235.932 4.80641 235.733 4.49515 235.451 4.27248C235.169 4.04981 234.819 3.92871 234.46 3.92871C234.1 3.92871 233.751 4.04981 233.469 4.27248C233.187 4.49515 232.988 4.80641 232.904 5.15606L228.476 24.3561C227.935 26.6868 226.751 28.819 225.059 30.511C223.367 32.2029 221.235 33.3867 218.904 33.9281L199.704 38.3561C199.354 38.4398 199.043 38.6389 198.82 38.9212C198.598 39.2035 198.477 39.5525 198.477 39.9121C198.477 40.2716 198.598 40.6207 198.82 40.903C199.043 41.1853 199.354 41.3843 199.704 41.4681L218.904 45.9001C221.235 46.4391 223.368 47.6222 225.06 49.3145C226.752 51.0069 227.934 53.1405 228.472 55.4721L232.904 74.6721C232.988 75.0217 233.187 75.333 233.469 75.5556C233.751 75.7783 234.1 75.8994 234.46 75.8994C234.819 75.8994 235.169 75.7783 235.451 75.5556C235.733 75.333 235.932 75.0217 236.016 74.6721L240.448 55.4721Z" fill="white" stroke="#5063F4" stroke-width="4" stroke-linecap="round" stroke-linejoin="round"/>
<path d="M336.804 167.329C337.151 165.836 337.91 164.471 338.994 163.388C340.078 162.305 341.443 161.547 342.936 161.201L355.276 158.353C355.501 158.299 355.701 158.171 355.844 157.99C355.988 157.808 356.066 157.584 356.066 157.353C356.066 157.121 355.988 156.897 355.844 156.715C355.701 156.534 355.501 156.406 355.276 156.353L342.936 153.489C341.438 153.142 340.067 152.382 338.98 151.295C337.892 150.209 337.131 148.838 336.784 147.341L333.94 135.005C333.886 134.78 333.759 134.579 333.577 134.436C333.396 134.293 333.171 134.215 332.94 134.215C332.709 134.215 332.484 134.293 332.303 134.436C332.121 134.579 331.994 134.78 331.94 135.005L329.096 147.341C328.749 148.839 327.988 150.209 326.901 151.296C325.813 152.383 324.442 153.143 322.944 153.489L310.612 156.333C310.387 156.386 310.187 156.514 310.043 156.695C309.9 156.877 309.822 157.101 309.822 157.333C309.822 157.564 309.9 157.788 310.043 157.97C310.187 158.151 310.387 158.279 310.612 158.333L322.944 161.181C324.442 161.526 325.813 162.286 326.9 163.373C327.987 164.46 328.747 165.83 329.092 167.329L331.94 179.669C331.994 179.893 332.121 180.094 332.303 180.237C332.484 180.38 332.709 180.458 332.94 180.458C333.171 180.458 333.396 180.38 333.577 180.237C333.759 180.094 333.886 179.893 333.94 179.669L336.804 167.329Z" fill="white" stroke="#5063F4" stroke-width="4" stroke-linecap="round" stroke-linejoin="round"/>
<path d="M89.9431 73.92C90.37 72.0681 91.309 70.3736 92.6528 69.0297C93.9966 67.6859 95.6912 66.7469 97.5431 66.32L112.783 62.804C113.061 62.7383 113.309 62.5807 113.486 62.3568C113.663 62.1328 113.759 61.8556 113.759 61.57C113.759 61.2844 113.663 61.0072 113.486 60.7832C113.309 60.5593 113.061 60.4017 112.783 60.336L97.5431 56.82C95.6908 56.394 93.9958 55.4553 92.6518 54.1113C91.3078 52.7673 90.3691 51.0723 89.9431 49.22L86.4271 34C86.3648 33.7192 86.2086 33.468 85.9842 33.2879C85.7598 33.1079 85.4808 33.0098 85.1931 33.0098C84.9054 33.0098 84.6264 33.1079 84.402 33.2879C84.1776 33.468 84.0214 33.7192 83.9591 34L80.4431 49.228C80.0166 51.0801 79.0778 52.7749 77.7339 54.1188C76.39 55.4627 74.6952 56.4015 72.8431 56.828L57.6111 60.34C57.3332 60.4057 57.0856 60.5633 56.9084 60.7873C56.7312 61.0112 56.6348 61.2884 56.6348 61.574C56.6348 61.8596 56.7312 62.1368 56.9084 62.3608C57.0856 62.5847 57.3332 62.7423 57.6111 62.808L72.8431 66.324C74.695 66.7509 76.3896 67.6899 77.7334 69.0337C79.0772 70.3776 80.0162 72.0721 80.4431 73.924L83.9591 89.164C84.0248 89.4419 84.1824 89.6895 84.4063 89.8667C84.6303 90.0439 84.9075 90.1404 85.1931 90.1404C85.4787 90.1404 85.7559 90.0439 85.9799 89.8667C86.2038 89.6895 86.3614 89.4419 86.4271 89.164L89.9431 73.92Z" fill="white" stroke="#5063F4" stroke-width="4" stroke-linecap="round" stroke-linejoin="round"/>
</svg>
