<svg width="19" height="19" viewBox="0 0 19 19" fill="none" xmlns="http://www.w3.org/2000/svg">
<g id="Rating">
<path id="Vector" opacity="0.2" fill-rule="evenodd" clip-rule="evenodd" d="M10.5144 1.61623C10.451 1.47891 10.3497 1.36261 10.2223 1.28109C10.0949 1.19957 9.9468 1.15625 9.79556 1.15625C9.64432 1.15625 9.49624 1.19957 9.36885 1.28109C9.24146 1.36261 9.14009 1.47891 9.07673 1.61623L6.80464 6.5404L1.42052 7.17927C1.2703 7.19701 1.1283 7.25741 1.01134 7.35333C0.89438 7.44925 0.807345 7.57666 0.760537 7.7205C0.71373 7.86434 0.709109 8.01857 0.747223 8.16496C0.785337 8.31134 0.864589 8.44374 0.9756 8.54648L4.95768 12.2277L3.90081 17.5477C3.87145 17.696 3.88517 17.8496 3.94035 17.9904C3.99552 18.1311 4.08984 18.2531 4.21216 18.342C4.33448 18.4308 4.47967 18.4828 4.63059 18.4917C4.7815 18.5007 4.93182 18.4662 5.06377 18.3924L9.79556 15.7435L14.5273 18.3924C14.6594 18.4665 14.8099 18.5012 14.961 18.4924C15.1122 18.4835 15.2576 18.4315 15.3801 18.3425C15.5026 18.2535 15.597 18.1313 15.6521 17.9903C15.7072 17.8493 15.7208 17.6954 15.6911 17.5469L14.6342 12.2285L18.6155 8.54648C18.7265 8.44374 18.8058 8.31134 18.8439 8.16496C18.882 8.01857 18.8774 7.86434 18.8306 7.7205C18.7838 7.57666 18.6967 7.44925 18.5798 7.35333C18.4628 7.25741 18.3208 7.19701 18.1706 7.17927L12.7857 6.53961L10.5144 1.61623Z" fill="#5063F4"/>
</g>
</svg>
