<svg width="1148" height="68" viewBox="0 0 1148 68" fill="none" xmlns="http://www.w3.org/2000/svg">
<path fill-rule="evenodd" clip-rule="evenodd" d="M368.954 67.3686C387.558 67.3686 402.639 52.2875 402.639 33.6843C402.639 22.2432 396.934 12.1344 388.215 6.04649L375.062 35.7822L364.756 67.1094C364.756 67.1094 364.756 67.1094 364.756 67.1094C366.132 67.2806 367.533 67.3686 368.954 67.3686ZM357.372 65.3245C355.625 64.6849 353.946 63.9046 352.348 62.9975L361.503 35.1704L341.246 14.5249C343.748 10.9139 346.937 7.81555 350.625 5.41925L366.874 21.9804L376.246 0.791461C373.898 0.273199 371.458 0 368.954 0C350.351 0 335.27 15.081 335.27 33.6843C335.27 48.2181 344.475 60.602 357.372 65.3245Z" fill="#44E0AA"/>
<path fill-rule="evenodd" clip-rule="evenodd" d="M388.214 6.04688L375.061 35.7823L364.755 67.1099C366.131 67.2811 367.532 67.3691 368.953 67.3691C387.557 67.3691 402.638 52.288 402.638 33.6848C402.638 22.2437 396.934 12.1348 388.214 6.04688Z" fill="#5063F4"/>
<path fill-rule="evenodd" clip-rule="evenodd" d="M376.246 0.791461L366.873 21.9804L350.624 5.41925C349.623 6.06963 348.659 6.77177 347.735 7.52186C353.527 2.81862 360.911 0 368.953 0C371.457 0 373.897 0.273199 376.246 0.791461Z" fill="#252525"/>
<path d="M430.639 13.7529L443.695 35.448L447.934 28.7466L438.925 13.7529H430.639Z" fill="#44E0AA"/>
<path d="M451.498 47.5007V35.5444L464.602 13.7529H456.942L447.933 28.7466L443.693 35.448V47.5007H451.498Z" fill="#5063F4"/>
<path d="M511.142 11.7744V47.5471H519.717V11.7744H511.142Z" fill="#252525"/>
<path d="M493.34 21.417C485.198 21.417 479.754 26.7684 479.754 34.8679C479.754 42.8227 485.005 48.0776 493.532 48.0776C498.35 48.0776 502.252 46.4385 504.902 43.4495L500.422 38.9659C498.687 40.7014 496.519 41.6174 494.303 41.6174C491.364 41.6174 489.196 39.9782 488.377 37.0374H506.492C507.07 27.5398 502.445 21.417 493.34 21.417ZM488.185 32.4572C488.763 29.4682 490.594 27.4434 493.388 27.4434C496.278 27.4434 498.206 29.4682 498.206 32.4572H488.185Z" fill="#252525"/>
<path d="M471.06 10.1689C468.796 10.1689 467.158 11.8081 467.158 14.1223C467.158 16.3882 468.796 18.0273 471.06 18.0273C473.324 18.0273 474.962 16.3882 474.962 14.1223C474.962 11.8081 473.324 10.1689 471.06 10.1689ZM466.772 21.4503V47.5326H475.3V21.4503H466.772Z" fill="#252525"/>
<path d="M544.251 11.7744V24.8878C542.42 22.5255 539.722 21.1756 536.35 21.1756C529.171 21.1756 524.402 26.4306 524.402 34.3853C524.402 42.4849 529.219 47.8844 536.542 47.8844C539.818 47.8844 542.468 46.5827 544.251 44.1722V47.5471H552.826V11.7744H544.251ZM538.662 41.135C535.29 41.135 533.025 38.4833 533.025 34.6265C533.025 30.7695 535.29 28.118 538.662 28.118C541.986 28.118 544.251 30.7213 544.251 34.6265C544.251 38.4833 541.986 41.135 538.662 41.135Z" fill="#252525"/>
<path d="M575.17 34.0817V27.043H583.985H600.077V34.0335L583.985 34.0817H575.17Z" fill="#44E0AA"/>
<path fill-rule="evenodd" clip-rule="evenodd" d="M575.17 13.7861V47.5821H602.293V40.5433H583.985V34.1794V34.0749H584.003V27.0442H583.985V20.8249H601.812V13.7861H575.17Z" fill="#5063F4"/>
<path d="M605.054 21.417L613.34 34.1447L604.476 47.4992H613.918L619.074 39.5443L623.699 47.4992H633.576L624.758 34.1447L633.576 21.417H623.602L619.074 28.7451L614.883 21.417H605.054Z" fill="#252525"/>
<path d="M652.515 31.2039L658.728 27.588C656.465 23.6829 652.322 21.417 647.07 21.417C638.976 21.417 633.58 26.7684 633.58 34.8679C633.58 42.8227 638.929 48.0776 646.975 48.0776C652.515 48.0776 656.753 45.8117 658.825 41.8103L652.515 38.1943C651.454 40.2192 649.672 41.1354 647.407 41.1354C644.325 41.1354 642.204 38.6283 642.204 34.8197C642.204 31.0591 644.325 28.504 647.407 28.504C649.623 28.504 651.359 29.5164 652.515 31.2039Z" fill="#252525"/>
<path d="M680.211 21.1273C676.405 21.1273 673.418 22.7183 671.587 25.7074V11.7744H663.01V47.5471H671.587V34.6747C671.587 31.2517 673.513 28.8411 676.693 28.7929C679.44 28.7929 681.125 30.6249 681.125 33.5658V47.5471H689.701V31.1071C689.701 24.9842 685.943 21.1273 680.211 21.1273Z" fill="#252525"/>
<path d="M707.259 21.0977C702.972 21.0977 699.213 22.1101 695.119 23.9421L697.479 29.7274C700.275 28.3775 703.116 27.6544 705.284 27.6544C708.561 27.6544 710.246 29.1007 710.246 31.5594V31.8488H703.453C696.997 31.9451 693.481 34.7896 693.481 39.7553C693.481 44.5283 696.806 47.9029 702.394 47.9029C705.911 47.9029 708.561 46.746 710.246 44.5765V47.5173H718.677V30.547C718.63 24.5688 714.439 21.0977 707.259 21.0977ZM705.043 42.0694C702.828 42.0694 701.527 40.9125 701.527 39.1286C701.527 37.2965 702.731 36.4287 705.14 36.4287H710.246V38.6946C709.717 40.6713 707.596 42.0694 705.043 42.0694Z" fill="#252525"/>
<path d="M741.595 21.0176C737.789 21.0176 734.802 22.6085 732.971 25.5976V21.355H724.396V47.4372H732.971V33.6489C733.308 30.708 735.186 28.7313 738.077 28.6831C740.776 28.6831 742.51 30.5152 742.51 33.4561V47.4372H751.038V30.9972C751.038 24.8745 747.279 21.0176 741.595 21.0176Z" fill="#252525"/>
<path d="M773.254 21.4279V24.6099C771.52 22.3922 768.918 21.1387 765.643 21.1387C759.187 21.1387 754.706 26.0562 754.706 33.4806C754.706 41.0498 759.331 46.0638 765.836 46.0638C769.062 46.0638 771.568 44.8584 773.254 42.6408V45.437C773.254 48.4743 770.893 50.451 766.992 50.451C764.196 50.451 761.306 49.535 758.946 47.8959L755.959 53.8258C758.897 55.7543 763.04 57.2006 767.618 57.2006C776.048 57.2006 781.782 52.5722 781.782 45.196V21.4279H773.254ZM768.002 39.7963C764.824 39.7963 762.703 37.2894 762.703 33.7218C762.703 30.106 764.824 27.599 768.002 27.599C771.133 27.599 773.254 30.0576 773.254 33.7218C773.254 37.2894 771.133 39.7963 768.002 39.7963Z" fill="#252525"/>
<path d="M799.53 21.1787C791.387 21.1787 785.943 26.5301 785.943 34.6296C785.943 42.5844 791.196 47.8394 799.723 47.8394C804.539 47.8394 808.442 46.2002 811.092 43.2112L806.611 38.7274C804.876 40.4631 802.708 41.3791 800.492 41.3791C797.555 41.3791 795.386 39.74 794.567 36.7991H812.682C813.26 27.3015 808.635 21.1787 799.53 21.1787ZM794.374 32.219C794.952 29.2299 796.783 27.2051 799.577 27.2051C802.467 27.2051 804.395 29.2299 804.395 32.219H794.374Z" fill="#252525"/>
</svg>
