<svg width="30" height="31" viewBox="0 0 30 31" fill="none" xmlns="http://www.w3.org/2000/svg">
<g id="ic:twotone-info">
<path id="Vector" opacity="0.3" d="M15 5.37305C9.4875 5.37305 5 9.86055 5 15.373C5 20.8855 9.4875 25.373 15 25.373C20.5125 25.373 25 20.8855 25 15.373C25 9.86055 20.5125 5.37305 15 5.37305ZM16.25 21.623H13.75V14.123H16.25V21.623ZM16.25 11.623H13.75V9.12305H16.25V11.623Z" fill="#F4B63C"/>
<path id="Vector_2" d="M13.75 9.12305H16.25V11.623H13.75V9.12305ZM13.75 14.123H16.25V21.623H13.75V14.123ZM15 2.87305C8.1 2.87305 2.5 8.47305 2.5 15.373C2.5 22.273 8.1 27.873 15 27.873C21.9 27.873 27.5 22.273 27.5 15.373C27.5 8.47305 21.9 2.87305 15 2.87305ZM15 25.373C9.4875 25.373 5 20.8855 5 15.373C5 9.86055 9.4875 5.37305 15 5.37305C20.5125 5.37305 25 9.86055 25 15.373C25 20.8855 20.5125 25.373 15 25.373Z" fill="#F4B63C"/>
</g>
</svg>
