<svg width="450" height="301" viewBox="0 0 450 301" fill="none" xmlns="http://www.w3.org/2000/svg">
<path d="M393 230.13C391.569 230.136 390.168 229.717 388.975 228.926C387.782 228.135 386.851 227.008 386.299 225.688C385.747 224.367 385.6 222.912 385.876 221.508C386.151 220.103 386.837 218.812 387.847 217.798C388.857 216.784 390.145 216.092 391.549 215.811C392.952 215.53 394.407 215.671 395.73 216.217C397.053 216.764 398.184 217.69 398.98 218.88C399.775 220.07 400.2 221.469 400.2 222.9C400.199 224.812 399.441 226.645 398.091 228C396.742 229.355 394.912 230.12 393 230.13ZM393 219.546C392.337 219.545 391.688 219.74 391.135 220.108C390.583 220.476 390.152 220.999 389.897 221.612C389.642 222.225 389.575 222.899 389.704 223.551C389.833 224.202 390.152 224.8 390.62 225.269C391.089 225.739 391.687 226.059 392.338 226.189C392.988 226.319 393.663 226.253 394.276 225.999C394.89 225.745 395.414 225.316 395.783 224.764C396.151 224.212 396.348 223.563 396.348 222.9C396.347 222.012 395.994 221.161 395.366 220.532C394.739 219.904 393.888 219.549 393 219.546Z" fill="#EBEBEB"/>
<path d="M393 264.516C391.569 264.522 390.168 264.103 388.975 263.312C387.782 262.521 386.851 261.394 386.299 260.073C385.747 258.753 385.6 257.298 385.876 255.894C386.151 254.489 386.837 253.198 387.847 252.184C388.857 251.17 390.145 250.478 391.549 250.197C392.952 249.915 394.407 250.057 395.73 250.603C397.053 251.149 398.184 252.076 398.98 253.266C399.775 254.455 400.2 255.854 400.2 257.286C400.199 259.197 399.441 261.031 398.091 262.386C396.742 263.74 394.912 264.506 393 264.516ZM393 253.938C392.338 253.938 391.691 254.134 391.14 254.502C390.59 254.87 390.16 255.393 389.907 256.004C389.654 256.616 389.587 257.289 389.717 257.939C389.846 258.588 390.165 259.185 390.633 259.653C391.101 260.121 391.698 260.44 392.347 260.569C392.997 260.698 393.67 260.632 394.281 260.379C394.893 260.125 395.416 259.696 395.784 259.146C396.152 258.595 396.348 257.948 396.348 257.286C396.347 256.398 395.993 255.547 395.366 254.92C394.738 254.292 393.888 253.939 393 253.938Z" fill="#EBEBEB"/>
<path d="M422.309 264.516C420.878 264.522 419.477 264.103 418.284 263.312C417.091 262.521 416.16 261.394 415.608 260.073C415.056 258.753 414.909 257.298 415.184 255.894C415.46 254.489 416.146 253.198 417.156 252.184C418.166 251.17 419.454 250.478 420.857 250.197C422.261 249.915 423.716 250.057 425.039 250.603C426.362 251.149 427.492 252.076 428.288 253.266C429.084 254.455 429.509 255.854 429.509 257.286C429.506 259.197 428.747 261.03 427.398 262.384C426.05 263.738 424.22 264.505 422.309 264.516ZM422.309 253.938C421.647 253.939 421 254.136 420.45 254.505C419.901 254.873 419.472 255.397 419.22 256.009C418.967 256.62 418.902 257.293 419.032 257.942C419.162 258.591 419.481 259.187 419.95 259.655C420.418 260.123 421.015 260.441 421.664 260.57C422.313 260.698 422.986 260.632 423.597 260.378C424.209 260.125 424.731 259.695 425.099 259.145C425.467 258.595 425.663 257.948 425.663 257.286C425.663 256.845 425.576 256.41 425.407 256.003C425.239 255.596 424.992 255.227 424.68 254.916C424.369 254.605 423.999 254.359 423.592 254.191C423.185 254.023 422.749 253.937 422.309 253.938Z" fill="#EBEBEB"/>
<path d="M394.757 228.282H390.875V252.576H394.757V228.282Z" fill="#EBEBEB"/>
<path d="M424.937 253.5H421.061V233.286C421.058 231.04 420.164 228.887 418.576 227.299C416.988 225.71 414.835 224.817 412.589 224.814H407.537V220.932H412.589C415.864 220.936 419.002 222.24 421.317 224.556C423.632 226.872 424.934 230.011 424.937 233.286V253.5Z" fill="#EBEBEB"/>
<path d="M410.298 215.766V229.572L402.768 222.9L410.298 215.766Z" fill="#EBEBEB"/>
<path d="M53.4712 70.7041H23.5312V120.384H53.4712V70.7041Z" fill="#F5F5F5"/>
<path d="M86.9751 70.7041H54.623V120.384H86.9751V70.7041Z" fill="#F5F5F5"/>
<path d="M86.9751 123.857H54.623V171.857H86.9751V123.857Z" fill="#F5F5F5"/>
<path d="M91.1152 69.8458H125.183V25.7759H126.335V69.8458H154.061V24.7979H91.1152V69.8458Z" fill="#F5F5F5"/>
<path d="M154.062 70.7041H126.336V120.384H154.062V70.7041Z" fill="#F5F5F5"/>
<path d="M154.062 123.857H126.336V171.857H154.062V123.857Z" fill="#F5F5F5"/>
<path d="M53.4712 123.857H23.5312V171.857H53.4712V123.857Z" fill="#F5F5F5"/>
<path d="M125.183 123.857H91.1152V171.857H125.183V123.857Z" fill="#F5F5F5"/>
<path d="M53.4712 172.716H23.5312V215.97H53.4712V172.716Z" fill="#F5F5F5"/>
<path d="M154.062 172.716H126.336V215.97H154.062V172.716Z" fill="#F5F5F5"/>
<path d="M53.4712 69.8458V25.7759H54.6232V69.8458H86.9692V24.7979H23.5312V69.8458H53.4712Z" fill="#F5F5F5"/>
<path d="M125.183 172.716H91.1152V215.97H125.183V172.716Z" fill="#F5F5F5"/>
<path d="M86.9751 172.716H54.623V215.97H86.9751V172.716Z" fill="#F5F5F5"/>
<path d="M125.183 70.7041H91.1152V120.384H125.183V70.7041Z" fill="#F5F5F5"/>
<path d="M282.071 68.6699H253.457V116.148H282.071V68.6699Z" fill="#F5F5F5"/>
<path d="M314.082 68.6699H283.17V116.148H314.082V68.6699Z" fill="#F5F5F5"/>
<path d="M314.082 119.46H283.17V165.33H314.082V119.46Z" fill="#F5F5F5"/>
<path d="M318.041 67.8479H350.597V25.7279H351.701V67.8479H378.197V24.7979H318.041V67.8479Z" fill="#F5F5F5"/>
<path d="M378.197 68.6699H351.701V116.148H378.197V68.6699Z" fill="#F5F5F5"/>
<path d="M378.197 119.46H351.701V165.33H378.197V119.46Z" fill="#F5F5F5"/>
<path d="M282.071 119.46H253.457V165.33H282.071V119.46Z" fill="#F5F5F5"/>
<path d="M350.597 119.46H318.041V165.33H350.597V119.46Z" fill="#F5F5F5"/>
<path d="M282.065 67.8479V25.7279H283.163V67.8479H314.081V24.7979H253.457V67.8479H282.065Z" fill="#F5F5F5"/>
<path d="M350.597 68.6699H318.041V116.148H350.597V68.6699Z" fill="#F5F5F5"/>
<path d="M228.041 95.0455L219.91 91.3675C215.513 93.6703 210.418 94.2588 205.612 93.0188C200.805 91.7789 196.63 88.7989 193.896 84.6564C191.162 80.5138 190.062 75.5036 190.811 70.5968C191.561 65.69 194.104 61.236 197.95 58.0978C201.796 54.9597 206.67 53.361 211.627 53.6115C216.584 53.862 221.272 55.9438 224.782 59.4536C228.292 62.9634 230.374 67.6512 230.625 72.6085C230.875 77.5658 229.277 82.4396 226.138 86.2855L228.041 95.0455ZM219.887 90.6175L227.087 93.8815L225.401 86.1235L225.502 85.9975C228.471 82.4312 230.059 77.9163 229.976 73.2767C229.892 68.6371 228.143 64.1822 225.048 60.7251C221.952 57.2681 217.717 55.0393 213.115 54.4457C208.512 53.852 203.85 54.9331 199.979 57.4915C196.107 60.0499 193.285 63.9152 192.027 68.3817C190.769 72.8482 191.159 77.6183 193.126 81.8212C195.092 86.0241 198.505 89.3797 202.74 91.2754C206.976 93.1711 211.752 93.4807 216.196 92.1475C217.419 91.7801 218.603 91.2938 219.731 90.6955L219.887 90.6175Z" fill="#E0E0E0"/>
<path d="M212.318 81.1525C214.738 71.7053 209.042 62.0848 199.595 59.6645C190.148 57.2442 180.527 62.9405 178.107 72.3876C175.687 81.8348 181.383 91.4552 190.83 93.8756C200.277 96.2959 209.898 90.5996 212.318 81.1525Z" fill="#E0E0E0"/>
<path d="M182.339 86.5381L180.533 95.8681L188.879 91.8481L182.339 86.5381Z" fill="#E0E0E0"/>
<path d="M187.878 79.1397C189.19 79.1397 190.254 78.0759 190.254 76.7637C190.254 75.4515 189.19 74.3877 187.878 74.3877C186.566 74.3877 185.502 75.4515 185.502 76.7637C185.502 78.0759 186.566 79.1397 187.878 79.1397Z" fill="white"/>
<path d="M196.8 76.7643C196.8 77.2389 196.659 77.7029 196.396 78.0976C196.132 78.4923 195.757 78.7999 195.318 78.9816C194.88 79.1632 194.397 79.2108 193.932 79.1181C193.466 79.0255 193.039 78.797 192.703 78.4613C192.367 78.1257 192.139 77.698 192.046 77.2325C191.954 76.7669 192.001 76.2844 192.183 75.8458C192.364 75.4073 192.672 75.0324 193.067 74.7687C193.461 74.505 193.925 74.3643 194.4 74.3643C195.037 74.3643 195.647 74.6171 196.097 75.0672C196.547 75.5173 196.8 76.1277 196.8 76.7643Z" fill="white"/>
<path d="M200.927 79.1397C202.239 79.1397 203.303 78.0759 203.303 76.7637C203.303 75.4515 202.239 74.3877 200.927 74.3877C199.615 74.3877 198.551 75.4515 198.551 76.7637C198.551 78.0759 199.615 79.1397 200.927 79.1397Z" fill="white"/>
<path d="M186.378 276.084C186.378 276.174 148.44 276.24 101.646 276.24C54.8522 276.24 16.9082 276.174 16.9082 276.084C16.9082 275.994 54.8402 275.928 101.646 275.928C148.452 275.928 186.378 276 186.378 276.084Z" fill="#263238"/>
<path d="M433.093 183.486C433.093 183.57 404.485 183.642 369.199 183.642C333.913 183.642 305.299 183.57 305.299 183.486C305.299 183.402 333.901 183.33 369.199 183.33C404.497 183.33 433.093 183.366 433.093 183.486Z" fill="#263238"/>
<path d="M340.926 74.6341L335.118 70.8061C334.68 65.2816 332.191 60.1206 328.142 56.3375C324.092 52.5544 318.774 50.4228 313.232 50.3617C307.691 50.3006 302.327 52.3143 298.194 56.0071C294.062 59.6999 291.46 64.8047 290.901 70.3182C290.341 75.8318 291.864 81.3553 295.17 85.8032C298.475 90.251 303.325 93.3016 308.766 94.3554C314.207 95.4091 319.845 94.3897 324.572 91.4977C329.3 88.6056 332.775 84.05 334.314 78.7261L340.926 74.6341Z" fill="white"/>
<path d="M340.925 74.6341L340.481 74.8981L339.197 75.6781L334.277 78.6781L334.379 78.7381C334.38 78.7289 334.379 78.7197 334.376 78.711C334.373 78.7023 334.368 78.6943 334.362 78.6875C334.356 78.6807 334.348 78.6753 334.34 78.6716C334.331 78.668 334.322 78.6661 334.313 78.6661C334.298 78.6655 334.284 78.67 334.272 78.6787C334.26 78.6874 334.251 78.6999 334.247 78.7141C333.205 82.264 331.293 85.4977 328.685 88.1221C327.882 88.9336 327.015 89.6799 326.093 90.3541C325.098 91.061 324.051 91.6927 322.961 92.2441C318.653 94.418 313.751 95.1175 309.006 94.2351C304.262 93.3527 299.939 90.9372 296.701 87.3596C293.463 83.7821 291.489 79.2403 291.082 74.432C290.675 69.6237 291.858 64.8149 294.449 60.7441C296.304 57.8638 298.791 55.4444 301.721 53.6701C304.485 52.0141 307.581 50.9897 310.787 50.6701C316.49 50.1023 322.192 51.762 326.699 55.3021L327.431 55.9021C327.676 56.0849 327.906 56.2855 328.121 56.5021C328.559 56.9341 328.985 57.3661 329.405 57.7861C330.157 58.6554 330.858 59.5669 331.505 60.5161C333.524 63.5912 334.743 67.1222 335.051 70.7881C335.05 70.7983 335.053 70.8084 335.058 70.817C335.064 70.8256 335.072 70.8323 335.081 70.8361L339.407 73.6381L340.529 74.3641L340.925 74.6101C340.925 74.6101 340.811 74.5261 340.565 74.3641L339.473 73.6261L335.153 70.7281V70.7761C334.881 67.0894 333.687 63.5302 331.679 60.4261C331.026 59.4661 330.321 58.5427 329.567 57.6601L328.277 56.3581C328.067 56.1319 327.84 55.9213 327.599 55.7281L326.861 55.1281C324.717 53.4242 322.276 52.1324 319.661 51.3181C316.784 50.4141 313.753 50.0998 310.751 50.3941C307.503 50.7003 304.363 51.7251 301.559 53.3941C298.586 55.1843 296.063 57.6332 294.185 60.5521C292.218 63.6171 291.039 67.1211 290.753 70.7521C290.701 71.2001 290.679 71.6511 290.687 72.1021V73.4461L290.801 74.7841C290.827 75.2274 290.883 75.6685 290.969 76.1041C291.053 76.5421 291.131 76.9741 291.209 77.4061C291.287 77.8381 291.437 78.2581 291.551 78.6841C291.665 79.1101 291.779 79.5301 291.929 79.9441L292.415 81.1441C293.71 84.2917 295.721 87.0939 298.289 89.3281C301.636 92.2655 305.788 94.1309 310.207 94.6828C314.626 95.2348 319.108 94.4479 323.075 92.4241C324.174 91.8619 325.229 91.2181 326.231 90.4981C327.16 89.8154 328.033 89.0589 328.841 88.2361C331.46 85.5784 333.367 82.3036 334.385 78.7141H334.247C334.247 78.7322 334.254 78.7497 334.266 78.763C334.278 78.7764 334.295 78.7846 334.313 78.7861H334.355L339.275 75.6841L340.523 74.8921L340.925 74.6341Z" fill="#263238"/>
<path d="M308.632 68.9466C308.108 68.9466 307.595 68.7909 307.158 68.4992C306.722 68.2075 306.382 67.793 306.182 67.3081C305.981 66.8231 305.929 66.2896 306.032 65.775C306.135 65.2604 306.388 64.7879 306.759 64.4172C307.131 64.0466 307.604 63.7945 308.119 63.6928C308.634 63.5912 309.167 63.6445 309.651 63.8462C310.136 64.0478 310.55 64.3887 310.84 64.8256C311.131 65.2625 311.286 65.7758 311.284 66.3006C311.283 67.0029 311.003 67.6759 310.506 68.172C310.008 68.668 309.335 68.9466 308.632 68.9466ZM308.632 65.0706C308.397 65.0765 308.167 65.1518 307.974 65.2872C307.781 65.4226 307.632 65.612 307.545 65.8318C307.459 66.0515 307.44 66.2918 307.489 66.5225C307.539 66.7533 307.656 66.9643 307.824 67.1291C307.993 67.294 308.207 67.4053 308.439 67.4492C308.671 67.4932 308.911 67.4677 309.128 67.3761C309.346 67.2844 309.532 67.1307 309.662 66.934C309.793 66.7374 309.862 66.5066 309.862 66.2706C309.863 66.1104 309.831 65.9519 309.768 65.8043C309.706 65.6567 309.615 65.5231 309.5 65.4113C309.386 65.2994 309.25 65.2117 309.101 65.1532C308.952 65.0947 308.793 65.0666 308.632 65.0706Z" fill="#263238"/>
<path d="M308.632 81.5462C308.108 81.5462 307.595 81.3907 307.159 81.0992C306.723 80.8078 306.383 80.3937 306.182 79.9091C305.982 79.4245 305.929 78.8912 306.031 78.3768C306.134 77.8624 306.386 77.3898 306.757 77.0189C307.128 76.6481 307.601 76.3955 308.115 76.2931C308.63 76.1908 309.163 76.2433 309.647 76.4441C310.132 76.6448 310.546 76.9847 310.838 77.4208C311.129 77.8569 311.284 78.3697 311.284 78.8942C311.284 79.5975 311.005 80.2721 310.508 80.7694C310.01 81.2668 309.336 81.5462 308.632 81.5462ZM308.632 77.6702C308.397 77.6761 308.167 77.7515 307.974 77.8868C307.781 78.0222 307.632 78.2116 307.545 78.4314C307.459 78.6511 307.44 78.8914 307.489 79.1221C307.539 79.3529 307.656 79.5639 307.824 79.7288C307.993 79.8936 308.207 80.0049 308.439 80.0489C308.671 80.0928 308.911 80.0673 309.128 79.9757C309.346 79.884 309.532 79.7303 309.662 79.5337C309.793 79.337 309.862 79.1062 309.862 78.8702C309.863 78.71 309.831 78.5515 309.768 78.4039C309.706 78.2563 309.615 78.1227 309.5 78.0109C309.386 77.899 309.25 77.8113 309.101 77.7528C308.952 77.6943 308.793 77.6662 308.632 77.6702Z" fill="#263238"/>
<path d="M319.367 81.5462C318.842 81.5474 318.329 81.3928 317.892 81.1022C317.455 80.8115 317.114 80.3977 316.913 79.9132C316.711 79.4287 316.658 78.8953 316.759 78.3805C316.861 77.8657 317.113 77.3926 317.484 77.0211C317.854 76.6496 318.327 76.3964 318.841 76.2936C319.356 76.1908 319.89 76.2429 320.374 76.4435C320.859 76.644 321.274 76.9839 321.566 77.4202C321.857 77.8564 322.013 78.3694 322.013 78.8942C322.013 79.5965 321.734 80.2701 321.238 80.7673C320.742 81.2645 320.069 81.5446 319.367 81.5462ZM319.367 77.6702C319.13 77.6702 318.898 77.7406 318.7 77.8724C318.503 78.0043 318.349 78.1917 318.258 78.411C318.168 78.6302 318.144 78.8715 318.19 79.1043C318.236 79.3371 318.351 79.5509 318.518 79.7187C318.686 79.8865 318.9 80.0008 319.133 80.0471C319.366 80.0934 319.607 80.0697 319.826 79.9788C320.045 79.888 320.233 79.7342 320.365 79.5369C320.497 79.3395 320.567 79.1075 320.567 78.8702C320.559 78.5543 320.431 78.2535 320.207 78.0301C319.984 77.8067 319.683 77.6778 319.367 77.6702Z" fill="#263238"/>
<path d="M309.27 68.2686H307.848V77.1726H309.27V68.2686Z" fill="#263238"/>
<path d="M320.327 77.5079H318.905V70.0859C318.903 69.2637 318.576 68.4756 317.995 67.8942C317.413 67.3128 316.625 66.9855 315.803 66.9839H313.955V65.5859H315.803C317.002 65.5875 318.152 66.0647 319 66.9127C319.848 67.7608 320.325 68.9106 320.327 70.1099V77.5079Z" fill="#263238"/>
<path d="M314.963 63.6846V68.7426L312.209 66.3006L314.963 63.6846Z" fill="#263238"/>
<path d="M108 174.228L113.274 170.532C113.537 165.414 115.706 160.579 119.353 156.978C123 153.377 127.861 151.27 132.983 151.071C138.104 150.872 143.115 152.596 147.03 155.904C150.945 159.212 153.481 163.864 154.14 168.946C154.8 174.029 153.534 179.174 150.593 183.371C147.651 187.569 143.246 190.514 138.244 191.628C133.241 192.743 128.003 191.946 123.558 189.395C119.113 186.843 115.783 182.722 114.222 177.84L108 174.228Z" fill="white"/>
<path d="M108 174.228L108.42 174.456L109.62 175.146L114.252 177.792L114.156 177.852C114.155 177.844 114.156 177.836 114.159 177.828C114.161 177.82 114.166 177.812 114.171 177.806C114.177 177.8 114.184 177.795 114.192 177.792C114.199 177.788 114.208 177.786 114.216 177.786C114.23 177.786 114.243 177.79 114.255 177.798C114.267 177.805 114.276 177.816 114.282 177.828C115.339 181.087 117.196 184.028 119.682 186.384C120.447 187.116 121.269 187.784 122.142 188.382C123.082 189.006 124.064 189.563 125.082 190.05C128.359 191.595 131.989 192.238 135.597 191.913C139.205 191.588 142.662 190.306 145.61 188.2C148.557 186.094 150.89 183.24 152.368 179.932C153.845 176.624 154.413 172.981 154.014 169.38C153.655 166.072 152.482 162.903 150.6 160.158C148.812 157.544 146.45 155.373 143.694 153.81C141.097 152.349 138.207 151.484 135.234 151.278C132.485 151.083 129.724 151.442 127.116 152.334C124.752 153.14 122.557 154.374 120.642 155.976L119.982 156.576C119.756 156.759 119.546 156.96 119.352 157.176L118.2 158.376C117.531 159.202 116.908 160.063 116.334 160.956C114.551 163.857 113.52 167.157 113.334 170.556C113.339 170.572 113.339 170.589 113.334 170.604L109.38 173.286L108.36 173.988L108 174.228L108.324 173.988L109.32 173.286L113.238 170.496V170.544C113.397 167.116 114.419 163.783 116.208 160.854C116.782 159.95 117.407 159.078 118.08 158.244L119.244 157.008C119.428 156.793 119.629 156.592 119.844 156.408L120.51 155.808C124.619 152.355 129.91 150.634 135.264 151.008C138.278 151.215 141.209 152.088 143.844 153.564C146.64 155.143 149.037 157.342 150.852 159.99C152.749 162.774 153.93 165.983 154.29 169.332C154.352 169.746 154.384 170.163 154.386 170.58L154.434 171.822L154.362 173.058C154.352 173.471 154.312 173.882 154.242 174.288C154.176 174.69 154.116 175.098 154.05 175.488C153.98 175.893 153.888 176.294 153.774 176.688C153.666 177.078 153.582 177.48 153.456 177.888L153.042 179.022C151.921 181.965 150.135 184.608 147.822 186.744C145.725 188.681 143.251 190.163 140.554 191.098C137.857 192.032 134.995 192.399 132.15 192.174C129.663 191.978 127.233 191.327 124.98 190.254C123.938 189.766 122.935 189.198 121.98 188.556C121.106 187.947 120.279 187.271 119.508 186.534C117.007 184.15 115.149 181.172 114.108 177.876H114.234C114.235 177.885 114.234 177.893 114.231 177.901C114.229 177.909 114.224 177.917 114.219 177.923C114.213 177.929 114.206 177.934 114.198 177.937C114.191 177.941 114.182 177.943 114.174 177.942H114.138L109.506 175.2L108.306 174.498L108 174.228Z" fill="#263238"/>
<path d="M126.516 171.9L128.634 169.782L132.72 173.412L140.736 165.696L142.704 167.814L132.42 177.498L126.516 171.9Z" fill="#263238"/>
<path d="M378.798 247.452H139.158V248.052H378.798V247.452Z" fill="#263238"/>
<path d="M261.384 123.324H202.074V123.924H261.384V123.324Z" fill="#263238"/>
<path d="M406.236 247.452H392.238V248.052H406.236V247.452Z" fill="#263238"/>
<path d="M388.326 247.452H381V248.052H388.326V247.452Z" fill="#263238"/>
<path d="M188.85 133.338H188.25V231.864H188.85V133.338Z" fill="#263238"/>
<path d="M343.65 225.636H343.05V218.436H343.65V225.636ZM342.87 211.284C342.545 208.939 341.778 206.677 340.608 204.618L341.13 204.318C342.338 206.446 343.13 208.783 343.464 211.206L342.87 211.284ZM336.06 199.242C334.222 197.746 332.117 196.612 329.856 195.9L330.036 195.33C332.37 196.062 334.542 197.23 336.438 198.774L336.06 199.242ZM322.86 195.042H315.66V194.442H322.86V195.042ZM308.46 195.042H301.26V194.442H308.46V195.042ZM294.06 195.042C291.617 194.986 289.207 194.467 286.956 193.512L287.19 192.96C289.373 193.884 291.71 194.387 294.078 194.442L294.06 195.042ZM280.884 189.486C279.135 187.777 277.726 185.751 276.732 183.516L277.278 183.276C278.245 185.438 279.611 187.399 281.304 189.054L280.884 189.486ZM275.064 176.442C275.064 176.16 275.064 175.872 275.064 175.584V169.2H275.664V175.554C275.664 175.836 275.664 176.112 275.664 176.388L275.064 176.442ZM275.664 162.042H275.064V154.842H275.664V162.042ZM275.664 147.642H275.064V140.442H275.664V147.642Z" fill="#263238"/>
<path d="M213.156 106.885H153.264C145.029 106.885 138.354 113.559 138.354 121.792C138.354 130.025 145.029 136.699 153.264 136.699H213.156C221.39 136.699 228.066 130.025 228.066 121.792C228.066 113.559 221.39 106.885 213.156 106.885Z" fill="#5063F4"/>
<path d="M146.347 117.93H147.931L151.671 122.88V117.93H153.321V125.63H151.737L148.008 120.691V125.63H146.347V117.93ZM157.524 119.657C159.603 119.657 160.571 121.032 160.428 123.188H156.182C156.38 123.936 156.952 124.376 157.711 124.376C158.272 124.376 158.8 124.156 159.207 123.749L160.098 124.651C159.504 125.311 158.635 125.696 157.568 125.696C155.676 125.696 154.477 124.486 154.477 122.693C154.477 120.867 155.72 119.657 157.524 119.657ZM156.149 122.187H158.844C158.822 121.406 158.316 120.9 157.535 120.9C156.787 120.9 156.281 121.406 156.149 122.187ZM160.506 119.723L162.233 119.712L163.553 123.947L164.829 119.712H166.49L167.788 123.947L169.086 119.712H170.758L168.602 125.63H166.908L165.632 121.725L164.367 125.63H162.673L160.506 119.723ZM181.534 125.63H179.565L178.344 123.43H178.179H176.573V125.63H174.835V117.93H178.179C180.192 117.93 181.336 118.898 181.336 120.603C181.336 121.791 180.83 122.649 179.895 123.089L181.534 125.63ZM176.573 119.371V121.978H178.179C179.136 121.978 179.686 121.538 179.686 120.658C179.686 119.8 179.136 119.371 178.179 119.371H176.573ZM185.303 119.657C187.382 119.657 188.35 121.032 188.207 123.188H183.961C184.159 123.936 184.731 124.376 185.49 124.376C186.051 124.376 186.579 124.156 186.986 123.749L187.877 124.651C187.283 125.311 186.414 125.696 185.347 125.696C183.455 125.696 182.256 124.486 182.256 122.693C182.256 120.867 183.499 119.657 185.303 119.657ZM183.928 122.187H186.623C186.601 121.406 186.095 120.9 185.314 120.9C184.566 120.9 184.06 121.406 183.928 122.187ZM193.484 119.712H195.167V127.764H193.484V124.761C193.066 125.366 192.428 125.696 191.614 125.696C189.931 125.696 188.82 124.475 188.82 122.649C188.82 120.845 189.92 119.646 191.57 119.646C192.406 119.646 193.055 119.976 193.484 120.581V119.712ZM192.01 124.332C192.879 124.332 193.484 123.661 193.484 122.693C193.484 121.725 192.879 121.054 192.01 121.054C191.13 121.054 190.525 121.736 190.514 122.693C190.525 123.661 191.119 124.332 192.01 124.332ZM200.794 119.712H202.477V125.63H200.794V124.585C200.387 125.333 199.705 125.696 198.814 125.696C197.505 125.696 196.68 124.827 196.68 123.43V119.712H198.374V122.946C198.374 123.694 198.803 124.145 199.485 124.145C200.299 124.134 200.794 123.496 200.794 122.638V119.712ZM206.659 119.657C208.738 119.657 209.706 121.032 209.563 123.188H205.317C205.515 123.936 206.087 124.376 206.846 124.376C207.407 124.376 207.935 124.156 208.342 123.749L209.233 124.651C208.639 125.311 207.77 125.696 206.703 125.696C204.811 125.696 203.612 124.486 203.612 122.693C203.612 120.867 204.855 119.657 206.659 119.657ZM205.284 122.187H207.979C207.957 121.406 207.451 120.9 206.67 120.9C205.922 120.9 205.416 121.406 205.284 122.187ZM214.41 121.45C213.761 121.087 213.101 120.878 212.606 120.878C212.21 120.878 211.924 121.01 211.924 121.318C211.924 122.209 215.048 121.758 215.037 123.848C215.037 125.058 213.97 125.696 212.628 125.696C211.671 125.696 210.736 125.41 210.065 124.871L210.615 123.727C211.231 124.2 212.023 124.464 212.672 124.464C213.101 124.464 213.42 124.321 213.42 124.002C213.42 123.056 210.351 123.562 210.351 121.483C210.351 120.262 211.396 119.635 212.683 119.635C213.497 119.635 214.333 119.877 214.993 120.295L214.41 121.45ZM219.481 124.057L219.833 125.3C219.393 125.553 218.843 125.707 218.293 125.707C217.237 125.707 216.434 125.102 216.434 123.881V121.142H215.609V119.976H216.434V118.348H218.117V119.976H219.723V121.153H218.117V123.595C218.117 124.09 218.326 124.288 218.689 124.277C218.909 124.277 219.173 124.2 219.481 124.057Z" fill="white"/>
<path d="M284.088 263.058H257.862C257.004 263.07 256.176 262.74 255.561 262.141C254.945 261.543 254.593 260.725 254.58 259.866V224.562C254.593 223.704 254.945 222.886 255.561 222.287C256.176 221.689 257.004 221.359 257.862 221.37H274.494L287.4 234.276V259.866C287.394 260.294 287.303 260.716 287.133 261.108C286.963 261.501 286.717 261.855 286.409 262.152C286.101 262.449 285.737 262.682 285.339 262.837C284.941 262.993 284.516 263.068 284.088 263.058Z" fill="#455A64"/>
<g opacity="0.2">
<path d="M274.494 221.371V231.307C274.498 231.703 274.58 232.094 274.736 232.458C274.892 232.823 275.119 233.152 275.402 233.428C275.686 233.704 276.022 233.922 276.39 234.067C276.759 234.213 277.152 234.284 277.548 234.277H287.4L274.494 221.371Z" fill="white"/>
</g>
<g opacity="0.2">
<path d="M274.632 232.177C274.632 232.177 274.5 234.577 277.32 235.381L277.644 235.453C278.928 235.675 287.37 237.133 287.37 236.947V234.277H277.548C277.548 234.277 275.094 234.193 274.632 232.177Z" fill="black"/>
</g>
<g opacity="0.3">
<path d="M254.58 249.919H287.4V260.671C287.4 261.307 287.148 261.918 286.697 262.368C286.247 262.818 285.637 263.071 285 263.071H256.968C256.332 263.071 255.721 262.818 255.271 262.368C254.821 261.918 254.568 261.307 254.568 260.671V249.919H254.58Z" fill="black"/>
</g>
<path d="M208.248 263.058H182.022C181.164 263.07 180.336 262.74 179.721 262.141C179.106 261.543 178.753 260.725 178.74 259.866V224.562C178.753 223.704 179.106 222.886 179.721 222.287C180.336 221.689 181.164 221.359 182.022 221.37H198.654L211.53 234.276V259.866C211.518 260.725 211.165 261.543 210.55 262.141C209.934 262.74 209.107 263.07 208.248 263.058Z" fill="#455A64"/>
<g opacity="0.2">
<path d="M198.654 221.371V231.307C198.658 231.703 198.74 232.093 198.896 232.457C199.051 232.821 199.277 233.15 199.561 233.426C199.844 233.702 200.179 233.919 200.546 234.065C200.914 234.212 201.307 234.283 201.702 234.277H211.53L198.654 221.371Z" fill="white"/>
</g>
<g opacity="0.2">
<path d="M198.786 232.177C198.786 232.177 198.66 234.577 201.48 235.381C201.582 235.411 201.696 235.429 201.804 235.453C203.082 235.675 211.53 237.133 211.53 236.947V234.277H201.702C201.702 234.277 199.254 234.193 198.786 232.177Z" fill="black"/>
</g>
<g opacity="0.3">
<path d="M178.741 249.919H211.531V260.671C211.531 261.307 211.278 261.918 210.828 262.368C210.377 262.818 209.767 263.071 209.131 263.071H181.129C180.492 263.071 179.882 262.818 179.431 262.368C178.981 261.918 178.729 261.307 178.729 260.671V249.919H178.741Z" fill="black"/>
</g>
<path d="M287.004 150.943H261.804C260.98 150.954 260.184 150.637 259.592 150.062C259.001 149.488 258.661 148.701 258.648 147.877V113.929C258.661 113.104 259.001 112.318 259.592 111.743C260.184 111.168 260.98 110.851 261.804 110.863L280.206 111.181L290.178 123.271V147.871C290.173 148.281 290.086 148.686 289.924 149.063C289.761 149.44 289.525 149.781 289.23 150.067C288.935 150.352 288.587 150.577 288.205 150.727C287.823 150.877 287.415 150.951 287.004 150.943Z" fill="#455A64"/>
<g opacity="0.3">
<path d="M258.63 138.312H290.16V148.56C290.16 149.197 289.907 149.807 289.457 150.258C289.007 150.708 288.396 150.96 287.76 150.96H261C260.363 150.96 259.753 150.708 259.303 150.258C258.852 149.807 258.6 149.197 258.6 148.56V138.312H258.63Z" fill="black"/>
</g>
<path d="M287.718 125.623C292.858 125.623 297.024 121.456 297.024 116.317C297.024 111.177 292.858 107.011 287.718 107.011C282.579 107.011 278.412 111.177 278.412 116.317C278.412 121.456 282.579 125.623 287.718 125.623Z" fill="white"/>
<path d="M297.001 116.317C296.938 115.557 296.82 114.803 296.647 114.061C296.427 113.195 296.077 112.368 295.609 111.607C294.51 109.774 292.805 108.382 290.79 107.672C288.775 106.961 286.575 106.975 284.569 107.713C282.869 108.334 281.39 109.444 280.321 110.905C279.169 112.469 278.547 114.362 278.547 116.305C278.547 118.248 279.169 120.14 280.321 121.705C281.39 123.165 282.869 124.276 284.569 124.897C286.575 125.625 288.772 125.634 290.785 124.924C292.798 124.214 294.503 122.828 295.609 121.003C296.077 120.242 296.427 119.414 296.647 118.549C296.82 117.806 296.938 117.052 297.001 116.293C297.008 116.342 297.008 116.393 297.001 116.443C297.001 116.563 297.001 116.707 297.001 116.887C297.001 117.128 296.981 117.369 296.941 117.607C296.908 117.935 296.85 118.26 296.767 118.579C296.565 119.464 296.224 120.313 295.759 121.093C294.65 122.984 292.915 124.427 290.853 125.173C288.792 125.918 286.534 125.918 284.473 125.173C283.613 124.868 282.804 124.435 282.073 123.889C281.301 123.333 280.624 122.656 280.069 121.885C278.869 120.267 278.221 118.307 278.221 116.293C278.221 114.279 278.869 112.318 280.069 110.701C280.353 110.313 280.663 109.946 280.999 109.603C281.336 109.277 281.695 108.974 282.073 108.697C282.802 108.148 283.612 107.715 284.473 107.413C286.062 106.842 287.776 106.708 289.435 107.023C290.756 107.273 292.007 107.803 293.106 108.579C294.204 109.354 295.123 110.356 295.801 111.517C296.266 112.297 296.607 113.145 296.809 114.031C296.893 114.35 296.951 114.675 296.983 115.003C297.023 115.241 297.043 115.481 297.043 115.723C297.043 115.903 297.043 116.047 297.043 116.167C297.035 116.218 297.021 116.269 297.001 116.317Z" fill="#263238"/>
<path d="M283.129 117.121L284.389 115.855L286.825 118.021L291.601 113.425L292.771 114.685L286.639 120.451L283.129 117.121Z" fill="#5063F4"/>
<path d="M359.934 263.058H333.708C332.849 263.07 332.022 262.74 331.406 262.141C330.791 261.543 330.438 260.725 330.426 259.866V224.562C330.438 223.704 330.791 222.886 331.406 222.287C332.022 221.689 332.849 221.359 333.708 221.37H350.34L363.216 234.276V259.866C363.203 260.725 362.85 261.543 362.235 262.141C361.62 262.74 360.792 263.07 359.934 263.058Z" fill="#455A64"/>
<g opacity="0.2">
<path d="M350.34 221.371V231.307C350.344 231.703 350.426 232.093 350.581 232.457C350.737 232.821 350.963 233.15 351.246 233.426C351.529 233.702 351.864 233.919 352.232 234.065C352.6 234.212 352.992 234.283 353.388 234.277H363.216L350.34 221.371Z" fill="white"/>
</g>
<g opacity="0.2">
<path d="M350.474 232.177C350.474 232.177 350.347 234.577 353.167 235.381C353.269 235.411 353.378 235.429 353.492 235.453C354.77 235.675 363.217 237.133 363.217 236.947V234.277H353.402C353.402 234.277 350.942 234.193 350.474 232.177Z" fill="black"/>
</g>
<g opacity="0.3">
<path d="M330.426 249.919H363.216V260.671C363.216 261.307 362.963 261.918 362.513 262.368C362.063 262.818 361.453 263.071 360.816 263.071H332.814C332.178 263.071 331.567 262.818 331.117 262.368C330.667 261.918 330.414 261.307 330.414 260.671V249.919H330.426Z" fill="black"/>
</g>
<path d="M369.269 32.4846C367.964 32.3009 366.633 32.463 365.409 32.9547C364.186 33.4464 363.113 34.2505 362.297 35.2866C361.381 35.0846 360.427 35.1515 359.548 35.4792C358.67 35.807 357.904 36.3816 357.345 37.134C356.785 37.8865 356.455 38.7846 356.393 39.7203C356.332 40.6561 356.542 41.5896 356.999 42.4086C356.33 42.8852 355.778 43.5084 355.385 44.2306C354.993 44.9528 354.771 45.755 354.735 46.5762C354.7 47.3973 354.853 48.2157 355.182 48.9689C355.51 49.7221 356.007 50.3903 356.633 50.9226L375.107 37.2306C374.635 35.9974 373.847 34.9099 372.823 34.077C371.798 33.244 370.573 32.6949 369.269 32.4846Z" fill="#263238"/>
<path d="M356.494 51.7983C357.108 47.1 359.47 42.8054 363.108 39.7699C366.746 36.7344 371.394 35.1807 376.126 35.4183L377.098 35.4663C387.58 36.6003 392.476 46.1403 391.048 56.5863L387.784 91.5243L387.61 93.2223L363.106 96.8823L363.586 87.9543C363.586 87.9543 353.554 85.8843 353.932 75.7683C354.112 70.8843 355.306 60.8583 356.494 51.7983Z" fill="#AE7461"/>
<path d="M363.504 87.9367C368.197 88.1718 372.86 87.0557 376.938 84.7207C376.938 84.7207 373.464 91.8367 363.426 90.4267L363.504 87.9367Z" fill="#6F4439"/>
<path d="M359.188 61.1347C359.165 61.5106 359.289 61.8808 359.535 62.1666C359.78 62.4523 360.127 62.631 360.502 62.6647C360.683 62.6882 360.867 62.6759 361.043 62.6283C361.219 62.5807 361.384 62.4988 361.528 62.3873C361.673 62.2758 361.794 62.1369 361.884 61.9786C361.975 61.8203 362.033 61.6456 362.056 61.4647C362.076 61.2744 362.058 61.082 362.002 60.8989C361.946 60.7158 361.854 60.5457 361.732 60.3987C361.61 60.2516 361.459 60.1306 361.289 60.0426C361.119 59.9547 360.933 59.9017 360.742 59.8867C360.558 59.8625 360.37 59.8759 360.191 59.9262C360.011 59.9764 359.844 60.0624 359.699 60.179C359.554 60.2956 359.434 60.4404 359.346 60.6046C359.258 60.7689 359.205 60.9492 359.188 61.1347Z" fill="#263238"/>
<path d="M358.42 56.8502C358.588 57.0482 359.722 56.2922 361.276 56.3762C362.83 56.4602 363.928 57.2882 364.108 57.1082C364.192 57.0302 364.03 56.6822 363.55 56.2922C362.901 55.7931 362.113 55.508 361.294 55.4762C360.488 55.4292 359.688 55.6393 359.008 56.0762C358.516 56.4302 358.336 56.7662 358.42 56.8502Z" fill="#263238"/>
<path d="M373.643 62.2868C373.62 62.6621 373.745 63.0316 373.99 63.3164C374.236 63.6012 374.583 63.7786 374.957 63.8108C375.138 63.8344 375.322 63.822 375.498 63.7744C375.674 63.7268 375.839 63.6449 375.984 63.5334C376.128 63.4219 376.249 63.2831 376.339 63.1247C376.43 62.9664 376.488 62.7918 376.511 62.6108C376.533 62.2343 376.408 61.8641 376.161 61.5785C375.915 61.293 375.567 61.1145 375.191 61.0808C375.01 61.0573 374.827 61.07 374.651 61.118C374.474 61.1661 374.31 61.2485 374.166 61.3607C374.022 61.4729 373.901 61.6125 373.812 61.7714C373.722 61.9304 373.665 62.1056 373.643 62.2868Z" fill="#263238"/>
<path d="M373.672 57.9001C373.84 58.0981 374.974 57.3421 376.528 57.4261C378.082 57.5101 379.18 58.3381 379.36 58.1581C379.444 58.0741 379.282 57.7261 378.802 57.3421C378.152 56.8444 377.365 56.5575 376.546 56.5201C375.74 56.4732 374.94 56.6833 374.26 57.1201C373.798 57.4861 373.588 57.8101 373.672 57.9001Z" fill="#263238"/>
<path d="M367.462 69.1389C367.462 69.0489 366.52 68.8329 364.966 68.5389C364.57 68.4789 364.198 68.3829 364.144 68.1069C364.133 67.6951 364.246 67.2894 364.468 66.9429L365.788 63.9849C367.63 59.7849 368.986 56.2869 368.818 56.1849C368.65 56.0829 367.018 59.4729 365.17 63.6909L363.898 66.6909C363.606 67.1682 363.5 67.7361 363.598 68.2869C363.648 68.4247 363.728 68.5498 363.832 68.6535C363.935 68.7572 364.061 68.8368 364.198 68.8869C364.414 68.9592 364.638 69.0016 364.864 69.0129C366.478 69.1689 367.45 69.2229 367.462 69.1389Z" fill="#263238"/>
<path d="M372 70.4405C371.748 70.4405 371.658 72.0965 370.158 73.2245C368.658 74.3525 366.87 74.0705 366.846 74.3045C366.846 74.4125 367.23 74.6525 367.986 74.7125C368.972 74.7758 369.95 74.4889 370.746 73.9025C371.51 73.3378 372.026 72.4992 372.186 71.5625C372.264 70.8605 372.096 70.4345 372 70.4405Z" fill="#263238"/>
<path d="M373.572 51.792C373.704 52.224 375.27 52.098 377.076 52.392C378.882 52.686 380.34 53.274 380.598 52.908C380.718 52.728 380.478 52.308 379.908 51.882C379.142 51.3345 378.258 50.9748 377.328 50.832C376.402 50.6725 375.451 50.7383 374.556 51.024C373.872 51.276 373.518 51.588 373.572 51.792Z" fill="#263238"/>
<path d="M359.213 52.3859C359.471 52.7519 360.557 52.4399 361.847 52.4879C363.137 52.5359 364.211 52.8419 364.481 52.4879C364.601 52.3139 364.445 51.9539 363.983 51.5999C363.374 51.1456 362.637 50.8957 361.877 50.8859C361.12 50.8601 360.374 51.0697 359.741 51.4859C359.273 51.8519 359.105 52.2059 359.213 52.3859Z" fill="#263238"/>
<path d="M357.695 47.2142C357.695 47.2142 360.695 41.0162 363.803 39.6902C367.583 38.0882 368.975 42.2222 372.545 41.4122C376.115 40.6022 379.745 39.0602 383.189 41.9642C386.981 45.1382 385.031 47.1362 385.049 51.6302C385.133 69.8582 388.199 75.1682 389.567 66.6302C389.717 65.7002 392.357 65.0822 392.939 61.1402C393.695 56.0222 394.205 49.7942 393.239 46.0862C392.423 42.9662 390.779 40.7522 387.749 38.2562C382.949 34.3142 376.163 33.8942 371.507 34.1342C366.851 34.3742 357.671 39.2702 357.695 47.2142Z" fill="#263238"/>
<path d="M388.938 66.3428C388.969 65.9729 389.074 65.6131 389.248 65.2851C389.422 64.9571 389.661 64.6678 389.949 64.4345C390.238 64.2013 390.571 64.0289 390.928 63.9279C391.286 63.8269 391.66 63.7993 392.028 63.8468C393.906 64.1228 395.952 65.2928 395.628 69.1808C395.064 76.0808 388.254 74.0948 388.26 73.8908C388.266 73.6868 388.674 69.2288 388.938 66.3428Z" fill="#AE7461"/>
<path d="M390 71.4189C390.036 71.4189 390.114 71.5149 390.312 71.6229C390.586 71.7695 390.906 71.8039 391.206 71.7189C391.956 71.5089 392.664 70.4049 392.802 69.1629C392.864 68.5714 392.797 67.9734 392.604 67.4109C392.557 67.1902 392.457 66.9842 392.313 66.8107C392.168 66.6372 391.984 66.5013 391.776 66.4149C391.64 66.3641 391.491 66.364 391.355 66.4147C391.219 66.4655 391.107 66.5635 391.038 66.6909C390.93 66.8769 390.966 67.0149 390.93 67.0269C390.894 67.0389 390.786 66.8949 390.87 66.6189C390.919 66.4488 391.028 66.302 391.176 66.2049C391.377 66.0778 391.621 66.0347 391.854 66.0849C392.136 66.1659 392.391 66.3193 392.596 66.5298C392.8 66.7403 392.945 67.0006 393.018 67.2849C393.266 67.9049 393.357 68.5771 393.282 69.2409C393.12 70.6329 392.304 71.8749 391.284 72.0789C391.094 72.1187 390.898 72.1152 390.71 72.0684C390.522 72.0216 390.347 71.9329 390.198 71.8089C390 71.5869 389.952 71.4309 390 71.4189Z" fill="#6F4439"/>
<path d="M391.542 54.6664C390.591 55.361 389.481 55.8065 388.314 55.9624C387.114 56.0224 385.842 55.2844 385.704 54.1204C385.638 53.5984 385.794 53.0044 385.476 52.5844C385.158 52.1644 384.33 52.2004 383.676 52.2364C382.578 52.2677 381.502 51.9214 380.629 51.2553C379.755 50.5892 379.136 49.6436 378.876 48.5764C378.276 49.3804 376.998 49.2784 376.188 48.6964C375.378 48.1144 374.886 47.2084 374.268 46.4284C373.65 45.6484 372.762 44.9284 371.772 45.0184C371.22 45.0724 370.686 45.3724 370.134 45.2944C369.162 45.1624 368.742 43.9924 368.64 43.0144C368.538 42.0364 368.478 40.8964 367.68 40.3264C366.882 39.7564 365.928 40.0324 365.016 40.1224C364.104 40.2124 362.958 39.9424 362.772 39.0484C362.746 38.8098 362.769 38.5686 362.838 38.3388C362.907 38.109 363.021 37.8954 363.174 37.7104C363.826 36.831 364.758 36.1995 365.817 35.9193C366.876 35.6391 367.998 35.7269 369 36.1684C369.447 34.9576 370.234 33.9014 371.266 33.1266C372.299 32.3519 373.532 31.8914 374.82 31.8004C377.382 31.6564 379.77 30.9244 380.886 33.2404C382.53 31.8904 385.044 33.6604 387.096 34.2364C388.12 34.5342 389.06 35.0699 389.837 35.7998C390.615 36.5297 391.21 37.4331 391.572 38.4364C392.499 38.2325 393.466 38.3081 394.35 38.6535C395.234 38.9989 395.996 39.5987 396.539 40.377C397.082 41.1553 397.382 42.0772 397.402 43.0261C397.421 43.9751 397.159 44.9085 396.648 45.7084C397.95 46.5364 399.048 47.9284 398.982 49.4704C398.916 51.0124 397.356 52.4704 395.886 51.9964C396.124 52.6138 396.124 53.2975 395.887 53.9151C395.649 54.5327 395.191 55.0402 394.601 55.3391C394.011 55.6379 393.33 55.707 392.692 55.5328C392.054 55.3587 391.503 54.9537 391.146 54.3964" fill="#263238"/>
<path d="M410.063 151.686L430.463 147.282C430.463 147.282 427.667 131.934 424.187 116.37C421.409 103.956 407.693 100.512 407.693 100.512L391.799 93.4863L389.657 85.2363C380.921 89.5563 372.443 93.7143 367.331 95.7963L362.651 90.6243L360.665 96.8343L358.991 97.0083C358.991 97.0083 352.073 99.1083 351.377 99.1623C345.047 99.6663 336.791 106.752 333.701 114.162C332.423 117.228 327.473 135.564 323.849 154.548C321.221 168.282 319.703 181.614 319.049 183.42L339.449 183.462L344.153 154.548L345.533 183.624L414.971 183.408L410.033 154.188L410.063 151.686Z" fill="#5063F4"/>
<path d="M341.112 120.385C341.052 120.385 341.628 128.041 342.402 137.473C343.176 146.905 343.854 154.549 343.92 154.543C343.986 154.537 343.404 146.887 342.63 137.455C341.856 128.023 341.178 120.379 341.112 120.385Z" fill="#263238"/>
<path d="M391.799 93.7442L371.153 104.112L367.307 95.7122C367.307 95.7122 374.219 92.7122 380.507 89.3882C386.921 85.9682 389.417 85.2422 389.417 85.2422" fill="#E0E0E0"/>
<path d="M362.429 90.6309L367.109 95.7969L362.891 103.321L360.443 96.8409" fill="#E0E0E0"/>
<path d="M412.132 103.387C412.168 103.429 411.484 103.987 410.518 104.953C407.998 107.557 406.252 110.81 405.472 114.349C405.178 115.699 405.106 116.557 405.052 116.557C405.024 116.358 405.024 116.156 405.052 115.957C405.082 115.405 405.148 114.856 405.25 114.313C405.911 110.684 407.7 107.356 410.362 104.803C410.758 104.417 411.179 104.058 411.622 103.729C411.773 103.588 411.945 103.473 412.132 103.387Z" fill="#263238"/>
<path d="M367.331 95.7119C367.373 95.7119 366.875 96.5039 366.131 97.7639C365.387 99.0239 364.38 100.8 363.426 102.828C363.348 102.996 363.276 103.164 363.204 103.314L363.054 103.638L362.904 103.32C362.124 101.689 361.454 100.007 360.899 98.2859C360.695 97.6319 360.546 97.0859 360.456 96.7259C360.389 96.5329 360.354 96.3302 360.354 96.1259C360.396 96.1259 360.653 96.9119 361.115 98.2019C361.577 99.4919 362.273 101.25 363.185 103.164H362.892L363.114 102.672C363.932 100.927 364.871 99.2413 365.921 97.6259C366.323 97.0259 366.672 96.5159 366.918 96.1859C367.034 96.01 367.173 95.8506 367.331 95.7119Z" fill="#263238"/>
<path d="M390 94.6865C389.901 94.7181 389.804 94.7583 389.712 94.8065L388.914 95.1845L386.004 96.6065L376.404 101.377L371.136 104.029L371.28 104.083L368.472 98.0465C368.13 97.3265 367.872 96.7505 367.65 96.3305L367.428 95.8745C367.404 95.8209 367.374 95.7705 367.338 95.7245C367.349 95.7834 367.369 95.8401 367.398 95.8925L367.59 96.3545L368.358 98.1005C369.036 99.6065 369.984 101.701 371.088 104.167L371.136 104.263L371.232 104.215L376.506 101.581L386.052 96.7505L388.932 95.2625L389.712 94.8485C389.814 94.807 389.911 94.7526 390 94.6865Z" fill="#263238"/>
<path d="M428.232 136.746C428.232 136.746 432.468 157.212 432.81 161.946C433.488 171.216 429.042 176.772 424.848 179.406C420.492 182.136 395.91 183.426 395.91 183.426L394.422 168.726L410.4 159.048L408.234 142.296L428.232 136.746Z" fill="#5063F4"/>
<path d="M410.31 158.484C410.306 158.372 410.296 158.259 410.28 158.148C410.244 157.908 410.202 157.59 410.142 157.188C410.016 156.33 409.836 155.13 409.614 153.66C409.14 150.66 408.498 146.556 407.784 142.026C406.38 133.164 405.384 126.78 405.18 125.58C405.169 125.692 405.169 125.804 405.18 125.916C405.18 126.144 405.234 126.468 405.282 126.882C405.384 127.722 405.552 128.928 405.768 130.422C406.2 133.422 406.83 137.52 407.568 142.062C408.306 146.604 408.96 150.714 409.464 153.684C409.71 155.148 409.92 156.348 410.064 157.2C410.136 157.596 410.196 157.914 410.238 158.154C410.251 158.266 410.275 158.377 410.31 158.484Z" fill="#263238"/>
<path d="M426.166 178.555C426.121 178.582 426.079 178.614 426.04 178.651C425.932 178.755 425.811 178.846 425.68 178.921C425.182 179.23 424.648 179.477 424.09 179.659C422.026 180.335 419.909 180.836 417.76 181.159C410.522 182.294 403.224 183.007 395.902 183.295L396.022 183.391C395.872 181.945 395.722 180.391 395.56 178.867C395.2 175.303 394.852 171.865 394.528 168.697L394.474 168.799L409.96 159.445L414.43 156.721L415.63 155.983L415.93 155.791L416.032 155.719C416.032 155.719 415.996 155.719 415.924 155.773L415.606 155.953L414.406 156.655L409.9 159.331L394.378 168.613L394.318 168.649V168.715C394.636 171.889 394.984 175.315 395.344 178.915C395.5 180.463 395.656 181.993 395.806 183.439V183.547H395.908C403.236 183.256 410.54 182.518 417.778 181.339C419.932 180.998 422.052 180.472 424.114 179.767C424.673 179.575 425.205 179.312 425.698 178.987C425.827 178.904 425.945 178.807 426.052 178.699C426.095 178.655 426.133 178.606 426.166 178.555Z" fill="#263238"/>
<g opacity="0.3">
<path d="M421.198 152.982C421.048 152.795 420.835 152.669 420.598 152.628C419.398 152.358 418.198 152.79 417.106 153.294C413.802 154.875 410.908 157.2 408.652 160.086L408.928 159.93C412.672 157.716 415.984 155.472 419.998 154.404C420.36 154.337 420.703 154.189 421 153.972C421.143 153.856 421.241 153.693 421.278 153.513C421.314 153.332 421.286 153.144 421.198 152.982Z" fill="black"/>
</g>
<path d="M394.643 169.62L392.573 169.812C392.573 169.812 392.303 166.812 391.835 165.648C391.367 164.484 390.491 160.884 390.491 160.884C390.491 160.884 381.233 156.99 381.029 156.99C380.825 156.99 371.771 159.486 371.771 159.486C371.771 159.486 371.975 161.964 375.059 162.102C376.905 162.184 378.755 162.027 380.561 161.634L383.447 162.708L377.675 163.074L367.547 169.146C367.547 169.146 367.613 170.946 371.573 170.016C375.533 169.086 377.573 167.4 377.573 167.4L385.019 168.486L377.141 168.858L371.237 171.81C371.237 171.81 371.285 174.258 373.703 173.652C376.121 173.046 377.741 172.686 377.741 172.686L384.785 173.52L378.815 173.85C378.815 173.85 374.789 173.958 374.993 175.05C375.197 176.142 378.149 177.06 378.149 177.06L382.349 177.804C382.349 177.804 382.505 179.682 383.243 180.282C383.981 180.882 385.121 181.728 385.793 181.74C386.465 181.752 395.921 182.256 395.921 182.256L394.643 169.62Z" fill="#AE7461"/>
<path d="M389.482 178.788C389.611 178.724 389.732 178.645 389.842 178.554C390.147 178.315 390.426 178.045 390.676 177.75C391.511 176.758 392.038 175.545 392.194 174.258C392.279 173.551 392.247 172.836 392.098 172.14C391.96 171.504 391.738 170.94 391.672 170.49C391.607 170.118 391.638 169.736 391.762 169.38C391.816 169.251 391.876 169.125 391.942 169.002C391.829 169.094 391.742 169.214 391.69 169.35C391.53 169.713 391.475 170.115 391.534 170.508C391.582 171.006 391.792 171.558 391.918 172.182C392.051 172.858 392.078 173.55 391.996 174.234C391.842 175.485 391.348 176.67 390.568 177.66C390.231 178.059 389.869 178.436 389.482 178.788Z" fill="#6F4439"/>
<path d="M388.344 178.087C387.321 177.951 386.291 177.88 385.26 177.877C384.233 177.812 383.203 177.812 382.176 177.877C383.196 178.013 384.224 178.083 385.254 178.087C386.283 178.151 387.315 178.151 388.344 178.087Z" fill="#6F4439"/>
<path d="M387.887 173.629C387.346 173.538 386.796 173.514 386.249 173.557C385.702 173.531 385.154 173.571 384.617 173.677C385.156 173.772 385.704 173.798 386.249 173.755C386.798 173.78 387.348 173.737 387.887 173.629Z" fill="#6F4439"/>
<path d="M388.2 163.278C388.2 163.218 387.174 163.392 385.92 163.278C384.666 163.164 383.7 162.792 383.682 162.852C384.369 163.213 385.127 163.418 385.902 163.452C386.671 163.56 387.455 163.501 388.2 163.278Z" fill="#6F4439"/>
<path d="M301.199 139.878L310.067 183.414H387.047C387.455 183.414 387.846 183.252 388.135 182.964C388.424 182.676 388.588 182.286 388.589 181.878C388.589 181.469 388.427 181.077 388.138 180.788C387.848 180.498 387.456 180.336 387.047 180.336H371.555L363.329 139.848C363.253 139.471 363.051 139.132 362.755 138.888C362.458 138.643 362.087 138.507 361.703 138.504L302.873 137.886C302.624 137.882 302.378 137.934 302.151 138.038C301.925 138.142 301.724 138.294 301.564 138.485C301.404 138.676 301.288 138.899 301.225 139.14C301.162 139.381 301.153 139.633 301.199 139.878Z" fill="#E0E0E0"/>
<path d="M301.198 139.878C301.196 139.834 301.196 139.79 301.198 139.746C301.179 139.615 301.179 139.481 301.198 139.35C301.227 139.09 301.316 138.839 301.457 138.618C301.599 138.398 301.789 138.213 302.014 138.078C302.172 137.985 302.345 137.918 302.524 137.88C302.722 137.842 302.923 137.828 303.124 137.838H304.51L307.972 137.868L330.214 138.078L345.718 138.234L354.406 138.324L358.966 138.372H361.294C361.492 138.372 361.678 138.372 361.894 138.372C362.103 138.396 362.306 138.455 362.494 138.546C362.872 138.734 363.171 139.048 363.34 139.434C363.414 139.628 363.468 139.829 363.502 140.034L363.622 140.634C363.7 141.024 363.778 141.414 363.862 141.834C364.018 142.62 364.18 143.412 364.342 144.234C364.666 145.834 364.994 147.448 365.326 149.076C365.994 152.344 366.674 155.686 367.366 159.102C368.758 165.924 370.198 173.028 371.686 180.342L371.584 180.258H386.818C387.019 180.247 387.221 180.259 387.418 180.294C387.828 180.381 388.189 180.621 388.426 180.966C388.561 181.156 388.654 181.373 388.699 181.602C388.744 181.831 388.739 182.066 388.686 182.293C388.633 182.52 388.532 182.733 388.39 182.918C388.248 183.103 388.068 183.256 387.862 183.366C387.638 183.484 387.39 183.549 387.136 183.558H346.198H310.06H309.994V183.492C307.288 170.106 305.08 159.222 303.55 151.692L301.798 142.92C301.6 141.93 301.45 141.168 301.348 140.652C301.246 140.136 301.204 139.878 301.204 139.878C301.204 139.878 301.264 140.136 301.372 140.646C301.48 141.156 301.636 141.918 301.846 142.914C302.254 144.906 302.86 147.834 303.646 151.602C305.194 159.144 307.42 170.022 310.162 183.402L310.084 183.336H346.222H387.106C387.327 183.327 387.542 183.267 387.736 183.162C387.911 183.064 388.064 182.93 388.183 182.769C388.303 182.608 388.387 182.423 388.431 182.227C388.475 182.032 388.476 181.829 388.436 181.632C388.396 181.435 388.315 181.249 388.198 181.086C387.992 180.783 387.679 180.569 387.322 180.486C387.138 180.458 386.951 180.448 386.764 180.456H371.464V180.372C369.976 173.058 368.536 165.972 367.15 159.132L365.122 149.106C364.794 147.466 364.466 145.85 364.138 144.258C363.976 143.46 363.814 142.668 363.658 141.858C363.58 141.468 363.496 141.072 363.418 140.658L363.298 140.058C363.272 139.869 363.222 139.683 363.148 139.506C363.001 139.161 362.735 138.881 362.398 138.714C362.231 138.63 362.05 138.577 361.864 138.558C361.684 138.558 361.48 138.558 361.264 138.558L358.936 138.528L354.382 138.474L345.694 138.378L330.19 138.192L307.948 137.922L304.48 137.874H303.1C302.9 137.864 302.699 137.876 302.5 137.91C302.159 137.981 301.849 138.158 301.614 138.416C301.379 138.673 301.232 138.998 301.192 139.344C301.168 139.522 301.17 139.701 301.198 139.878Z" fill="#263238"/>
<path d="M336.678 159.805C336.678 160.308 336.529 160.8 336.249 161.218C335.97 161.636 335.572 161.963 335.107 162.155C334.643 162.348 334.131 162.398 333.638 162.3C333.144 162.202 332.691 161.959 332.335 161.604C331.979 161.248 331.737 160.795 331.639 160.301C331.541 159.808 331.591 159.296 331.784 158.831C331.976 158.366 332.302 157.969 332.72 157.689C333.139 157.41 333.631 157.261 334.134 157.261C334.468 157.26 334.799 157.325 335.108 157.453C335.417 157.58 335.698 157.768 335.934 158.004C336.171 158.24 336.358 158.521 336.486 158.83C336.613 159.139 336.679 159.47 336.678 159.805Z" fill="white"/>
<path d="M301.283 140.232H301.547H305.315L316.325 140.286L352.631 140.544L357.881 140.586H359.171C359.392 140.58 359.613 140.594 359.831 140.628C360.044 140.677 360.247 140.762 360.431 140.88C360.816 141.123 361.095 141.503 361.211 141.942C361.307 142.368 361.379 142.77 361.469 143.184C362.117 146.46 362.747 149.628 363.341 152.64C364.541 158.64 365.609 164.094 366.509 168.654C367.409 173.214 368.123 176.898 368.621 179.454L369.221 182.394C369.281 182.724 369.329 182.994 369.359 183.156C369.389 183.318 369.401 183.42 369.401 183.42C369.401 183.42 369.401 183.33 369.341 183.162C369.281 182.994 369.245 182.73 369.179 182.4C369.035 181.722 368.831 180.738 368.579 179.472C368.063 176.916 367.319 173.232 366.395 168.672C365.471 164.112 364.397 158.688 363.185 152.664C362.585 149.664 361.985 146.49 361.295 143.214C361.217 142.806 361.139 142.38 361.049 142.014C360.945 141.625 360.696 141.291 360.353 141.078C360.186 140.969 359.998 140.894 359.801 140.856C359.603 140.821 359.402 140.809 359.201 140.82H357.911L352.661 140.778L316.349 140.46L305.345 140.34L302.345 140.298H301.571L301.283 140.232Z" fill="#263238"/>
<path d="M56.2864 163.506C56.1951 167.647 56.9819 171.761 58.5953 175.576C60.2086 179.391 62.6117 182.821 65.6464 185.64C67.0384 181.604 68.4384 177.566 69.8464 173.526" fill="#263238"/>
<path d="M87.8158 139.404C84.2158 137.442 79.8898 137.16 75.8758 137.964C71.8618 138.768 68.1238 140.58 64.5838 142.632C62.5978 143.778 60.6178 145.032 59.1838 146.832C56.5738 150.108 53.9998 155.496 53.7478 159.678C53.5438 163.062 54.8398 171.528 56.2678 174.594C57.5818 177.414 63.7198 179.562 66.7498 180.258L94.5538 147.924C94.0507 146.129 93.1961 144.451 92.0394 142.988C90.8827 141.526 89.4471 140.307 87.8158 139.404Z" fill="#263238"/>
<path d="M92.6113 143.766L85.9453 142.566C89.5873 151.242 90.5773 171.084 92.6593 180.264C95.1193 176.7 100.825 165.864 100.519 161.52C100.213 157.176 100.531 143.028 92.6113 143.766Z" fill="#263238"/>
<path d="M61.009 158.208C61.1311 155.772 62.0316 153.439 63.5782 151.552C65.1248 149.665 67.2358 148.324 69.601 147.726L84.949 143.808C91.579 143.094 96.0131 151.254 96.445 157.908C96.925 165.306 97.2251 173.112 96.361 178.632C94.6211 189.738 86.119 191.166 86.119 191.166C86.119 191.166 86.119 196.446 86.119 199.692L80.983 220.95L64.429 198.09L61.003 158.34C60.967 158.154 60.991 158.46 61.009 158.208Z" fill="#FFBE9D"/>
<path d="M93.0843 166.296C93.0893 166.667 92.949 167.025 92.6934 167.294C92.4378 167.563 92.0871 167.722 91.7163 167.736C91.5354 167.75 91.3535 167.729 91.1811 167.672C91.0087 167.616 90.8493 167.525 90.7124 167.406C90.5754 167.287 90.4637 167.142 90.3836 166.979C90.3036 166.816 90.2569 166.639 90.2463 166.458C90.2398 166.086 90.3796 165.727 90.6355 165.458C90.8914 165.188 91.243 165.03 91.6143 165.018C91.7953 165.002 91.9776 165.023 92.1504 165.079C92.3232 165.136 92.4828 165.226 92.62 165.345C92.7571 165.465 92.8688 165.61 92.9486 165.773C93.0284 165.937 93.0745 166.114 93.0843 166.296Z" fill="#263238"/>
<path d="M94.7527 162.258C94.5787 162.444 93.4987 161.658 91.9687 161.658C90.4387 161.658 89.3107 162.432 89.1487 162.258C89.0647 162.174 89.2447 161.838 89.7487 161.484C90.4088 161.02 91.1978 160.775 92.0047 160.782C92.801 160.778 93.5783 161.025 94.2247 161.49C94.6807 161.838 94.8427 162.174 94.7527 162.258Z" fill="#263238"/>
<path d="M79.7347 166.296C79.7397 166.667 79.5994 167.026 79.3438 167.295C79.0882 167.564 78.7375 167.722 78.3667 167.736C78.1857 167.752 78.0034 167.731 77.8306 167.674C77.6579 167.618 77.4982 167.528 77.3611 167.408C77.2239 167.289 77.1122 167.144 77.0324 166.98C76.9526 166.817 76.9065 166.64 76.8967 166.458C76.8902 166.087 77.03 165.727 77.2859 165.458C77.5418 165.189 77.8933 165.031 78.2647 165.018C78.4456 165.003 78.6275 165.025 78.7999 165.082C78.9723 165.138 79.1317 165.229 79.2686 165.348C79.4056 165.467 79.5173 165.612 79.5974 165.775C79.6774 165.938 79.7241 166.115 79.7347 166.296Z" fill="#263238"/>
<path d="M80.2079 162.258C80.0279 162.444 78.9479 161.658 77.4179 161.658C75.8879 161.658 74.7659 162.432 74.5979 162.258C74.5199 162.174 74.6939 161.838 75.1979 161.484C75.8576 161.02 76.6469 160.774 77.4539 160.782C78.2502 160.778 79.0275 161.025 79.6739 161.49C80.1299 161.838 80.2919 162.174 80.2079 162.258Z" fill="#263238"/>
<path d="M84.9961 174.288C84.9961 174.204 85.9381 174.036 87.4801 173.832C87.8761 173.79 88.2421 173.712 88.3081 173.448C88.3399 173.044 88.2478 172.64 88.0441 172.29C87.6761 171.342 87.2881 170.342 86.8801 169.29C85.2661 165.054 84.0961 161.568 84.2641 161.49C84.4321 161.412 85.8841 164.814 87.5041 169.05C87.8881 170.094 88.2661 171.09 88.6141 172.05C88.8624 172.519 88.9368 173.061 88.8241 173.58C88.7709 173.723 88.6852 173.851 88.5738 173.955C88.4624 174.059 88.3283 174.136 88.1821 174.18C87.9651 174.24 87.7413 174.272 87.5161 174.276C85.9621 174.366 85.0021 174.378 84.9961 174.288Z" fill="#263238"/>
<path d="M71.4004 187.218C71.4004 187.218 75.0004 194.844 86.1184 193.776V191.166C80.9416 191.237 75.8467 189.87 71.4004 187.218Z" fill="#EB996E"/>
<path d="M79.7287 156.726C79.5787 157.14 78.0487 156.948 76.2487 157.17C74.4487 157.392 73.0027 157.878 72.7627 157.506C72.6547 157.332 72.9067 156.936 73.4947 156.534C74.2684 156.026 75.1536 155.713 76.0747 155.622C76.9946 155.509 77.9282 155.616 78.7987 155.934C79.4587 156.198 79.8007 156.528 79.7287 156.726Z" fill="#263238"/>
<path d="M94.2546 157.572C93.9846 157.92 92.9286 157.572 91.6626 157.572C90.3966 157.572 89.3166 157.812 89.0706 157.446C88.9626 157.272 89.1306 156.924 89.5986 156.594C90.2306 156.192 90.9684 155.989 91.717 156.01C92.4655 156.032 93.1905 156.277 93.7986 156.714C94.2006 157.044 94.3746 157.404 94.2546 157.572Z" fill="#263238"/>
<path d="M93.4035 147.774C92.7254 146.106 90.8955 145.098 89.0955 145.008C87.2801 145.008 85.5024 145.526 83.9714 146.502C77.3715 150.324 73.9695 159.552 67.4355 163.506C65.8275 164.478 63.7394 163.584 62.3714 164.874C61.0035 166.164 60.1215 168.222 60.8775 169.938C59.9383 168.771 59.1743 167.473 58.6095 166.086C58.3295 165.394 58.2013 164.649 58.2333 163.903C58.2654 163.157 58.4571 162.426 58.7955 161.76C59.3595 160.782 60.3555 160.032 60.6315 158.94C60.8715 157.974 60.4875 156.966 60.5295 155.97C60.6418 154.959 60.9913 153.989 61.5495 153.138C64.1055 148.614 67.6275 144.522 72.1575 141.978C75.1164 140.269 78.4849 139.398 81.9015 139.458C85.3296 139.538 88.6157 140.843 91.1655 143.136C92.6295 144.498 94.1655 145.908 93.4035 147.756" fill="#263238"/>
<path d="M62.532 166.248C62.412 165.93 56.622 163.848 56.532 169.998C56.454 175.998 62.49 174.798 62.532 174.624C62.574 174.45 62.532 166.248 62.532 166.248Z" fill="#FFBE9D"/>
<path d="M60.6962 172.344C60.6962 172.344 60.5882 172.416 60.4142 172.494C60.1641 172.596 59.8843 172.596 59.6342 172.494C59.0342 172.26 58.4822 171.252 58.4342 170.172C58.4228 169.66 58.5274 169.151 58.7402 168.684C58.7999 168.493 58.9063 168.32 59.0499 168.181C59.1934 168.042 59.3696 167.94 59.5622 167.886C59.6808 167.86 59.8048 167.875 59.9139 167.928C60.023 167.981 60.1106 168.071 60.1622 168.18C60.2402 168.348 60.1982 168.468 60.2282 168.474C60.2582 168.48 60.3602 168.378 60.3122 168.132C60.2819 167.984 60.2014 167.851 60.0842 167.754C60.0004 167.689 59.9038 167.641 59.8005 167.614C59.6973 167.587 59.5896 167.582 59.4842 167.598C59.2382 167.643 59.0078 167.75 58.8154 167.91C58.6231 168.07 58.4752 168.277 58.3862 168.51C58.129 169.026 57.9994 169.596 58.0082 170.172C58.0382 171.372 58.6442 172.512 59.5082 172.77C59.6682 172.819 59.8372 172.831 60.0025 172.805C60.1678 172.779 60.325 172.716 60.4622 172.62C60.6842 172.488 60.7142 172.356 60.6962 172.344Z" fill="#EB996E"/>
<path d="M60.1504 163.176C60.2793 163.124 60.4021 163.057 60.5164 162.978C60.7444 162.828 61.1164 162.636 61.5184 162.336C62.6951 161.475 63.7771 160.491 64.7464 159.402C66.1563 157.768 67.4724 156.055 68.6884 154.272C70.1615 152.091 71.8132 150.036 73.6264 148.128C74.5916 147.177 75.658 146.334 76.8064 145.614C77.885 144.957 79.0395 144.433 80.2444 144.054C82.2888 143.4 84.4388 143.139 86.5804 143.286C88.0253 143.373 89.452 143.654 90.8224 144.12C91.3144 144.27 91.6744 144.432 91.9324 144.528C92.0559 144.591 92.187 144.637 92.3224 144.666C92.2024 144.596 92.0782 144.534 91.9504 144.48C91.5954 144.306 91.2308 144.151 90.8584 144.018C89.4863 143.513 88.0504 143.202 86.5924 143.094C84.4253 142.924 82.2456 143.172 80.1724 143.826C78.9446 144.205 77.7678 144.733 76.6684 145.398C75.4995 146.126 74.4149 146.981 73.4344 147.948C71.6072 149.864 69.9509 151.936 68.4844 154.14C67.2812 155.922 65.9833 157.639 64.5964 159.282C63.6502 160.384 62.5971 161.389 61.4524 162.282C61.0444 162.594 60.7024 162.798 60.4864 162.96C60.2704 163.122 60.1504 163.17 60.1504 163.176Z" fill="#455A64"/>
<path d="M60.0011 173.4C59.7009 173.344 59.3906 173.404 59.1333 173.569C58.8761 173.734 58.6912 173.99 58.6165 174.286C58.5418 174.583 58.5829 174.896 58.7313 175.163C58.8797 175.43 59.1243 175.63 59.4152 175.723C59.7062 175.816 60.0216 175.794 60.2972 175.663C60.5728 175.531 60.7879 175.299 60.8985 175.015C61.0092 174.73 61.0072 174.414 60.8928 174.131C60.7785 173.847 60.5604 173.618 60.2831 173.49" fill="white"/>
<path d="M60.2939 173.49C60.5519 173.697 60.7404 173.977 60.8339 174.294C60.8751 174.457 60.8754 174.628 60.8345 174.792C60.7937 174.955 60.7131 175.106 60.5999 175.23C60.4647 175.387 60.2863 175.501 60.0869 175.556C59.8875 175.612 59.676 175.607 59.4792 175.543C59.2823 175.479 59.1088 175.358 58.9805 175.196C58.8522 175.033 58.7747 174.837 58.7579 174.63C58.7378 174.463 58.7596 174.293 58.8214 174.136C58.8832 173.979 58.983 173.839 59.1119 173.73C59.3705 173.528 59.6842 173.409 60.0119 173.388C60.0119 173.388 59.9219 173.328 59.7359 173.322C59.4645 173.324 59.2012 173.415 58.9859 173.58C58.8206 173.704 58.6901 173.869 58.607 174.058C58.524 174.247 58.4912 174.455 58.5119 174.66C58.5265 174.919 58.6191 175.166 58.7776 175.371C58.936 175.575 59.1527 175.727 59.3991 175.805C59.6456 175.884 59.91 175.886 60.1576 175.811C60.4053 175.736 60.6243 175.588 60.7859 175.386C60.8954 175.256 60.9768 175.104 61.0248 174.941C61.0729 174.777 61.0867 174.605 61.0653 174.436C61.0439 174.267 60.9877 174.105 60.9004 173.958C60.8131 173.812 60.6965 173.685 60.5579 173.586C60.4019 173.49 60.2999 173.472 60.2939 173.49Z" fill="#263238"/>
<path d="M61.6557 164.886C61.5597 166.518 61.4877 168.246 62.2557 169.686C63.0237 171.126 64.9077 172.128 66.3297 171.312C67.4877 170.652 67.8357 169.17 68.0337 167.85C68.5977 164.04 68.8557 160.194 69.4557 156.39L61.6557 164.886Z" fill="#263238"/>
<path d="M91.932 144.93C91.932 144.966 91.404 144.828 90.444 144.798C89.091 144.776 87.7471 145.023 86.49 145.524C85.6201 145.856 84.7892 146.283 84.012 146.796C83.1217 147.396 82.2681 148.049 81.456 148.752C79.5766 150.346 77.8947 152.159 76.446 154.152C75.69 155.22 75.018 156.318 74.286 157.332C73.5964 158.323 72.7907 159.227 71.886 160.026C70.337 161.342 68.6418 162.475 66.834 163.404C65.304 164.214 64.026 164.784 63.144 165.204L62.118 165.636C62.0018 165.695 61.8789 165.739 61.752 165.768C61.8573 165.69 61.9722 165.625 62.094 165.576L63.09 165.084C63.954 164.658 65.214 164.058 66.69 163.23C68.4624 162.277 70.1261 161.134 71.652 159.822C72.5301 159.031 73.3133 158.141 73.986 157.17C74.7 156.168 75.372 155.07 76.14 153.99C77.5999 151.974 79.305 150.148 81.216 148.554C82.0452 147.849 82.9168 147.196 83.826 146.598C84.6254 146.086 85.4784 145.664 86.37 145.338C87.659 144.847 89.0364 144.63 90.414 144.702C90.7871 144.728 91.158 144.78 91.524 144.858C91.6625 144.864 91.7997 144.888 91.932 144.93Z" fill="#455A64"/>
<path d="M61.489 161.178C61.3281 161.317 61.1508 161.436 60.961 161.532L59.449 162.42L58.939 162.714C58.739 162.832 58.516 162.906 58.285 162.93C58.1439 162.947 58.0014 162.913 57.883 162.834C57.8172 162.79 57.7623 162.732 57.7228 162.663C57.6833 162.594 57.6601 162.517 57.655 162.438C57.6705 162.164 57.7688 161.9 57.937 161.682L59.695 158.886L59.935 159.102C58.7612 159.961 57.3252 160.386 55.873 160.302C55.6872 160.299 55.503 160.266 55.327 160.206C55.2257 160.176 55.1321 160.125 55.0523 160.056C54.9726 159.986 54.9088 159.9 54.865 159.804C54.8316 159.704 54.8234 159.596 54.8412 159.492C54.859 159.387 54.9022 159.288 54.967 159.204C55.0686 159.069 55.1832 158.945 55.309 158.832C56.0968 158.069 56.7807 157.206 57.343 156.264C57.8394 155.37 58.2724 154.441 58.639 153.486C58.6124 153.762 58.5478 154.032 58.447 154.29C58.2186 155.009 57.917 155.703 57.547 156.36C57.0017 157.341 56.3211 158.24 55.525 159.03C55.303 159.24 55.081 159.486 55.165 159.672C55.249 159.858 55.579 159.954 55.891 159.954C56.5742 159.99 57.2584 159.907 57.913 159.708C58.5598 159.513 59.1684 159.208 59.713 158.808L60.427 158.286L59.953 159.03C59.311 160.026 58.705 160.962 58.153 161.82C58.0132 161.993 57.9239 162.2 57.895 162.42C57.8993 162.461 57.9119 162.5 57.9321 162.535C57.9523 162.571 57.9796 162.602 58.0123 162.626C58.045 162.65 58.0824 162.667 58.1221 162.676C58.1619 162.685 58.203 162.686 58.243 162.678C58.6257 162.599 58.9901 162.448 59.317 162.234L60.877 161.43C61.0698 161.321 61.2754 161.237 61.489 161.178Z" fill="#455A64"/>
<path d="M79.1998 177.114C79.3103 176.659 79.5778 176.257 79.9553 175.979C80.3328 175.701 80.7961 175.566 81.2638 175.596C81.6051 175.638 81.9306 175.765 82.2112 175.964C82.4918 176.163 82.7188 176.428 82.8718 176.736C83.0198 177.047 83.1041 177.385 83.1195 177.729C83.135 178.073 83.0813 178.417 82.9618 178.74L82.9318 178.878C82.6131 179.222 82.1959 179.459 81.7373 179.557C81.2786 179.655 80.801 179.608 80.3698 179.424C79.9467 179.223 79.6024 178.887 79.3906 178.469C79.1789 178.051 79.1118 177.574 79.1998 177.114Z" fill="#EB996E"/>
<path d="M83.9998 178.914C83.9998 178.68 82.4518 178.752 81.2878 177.486C80.1238 176.22 80.2078 174.552 79.9918 174.552C79.8958 174.552 79.7098 174.936 79.7278 175.632C79.7566 176.541 80.1075 177.411 80.7178 178.086C81.3039 178.731 82.1165 179.124 82.9858 179.184C83.6518 179.208 83.9998 179.016 83.9998 178.914Z" fill="#263238"/>
<path d="M53.9412 196.44L64.6092 194.892L85.9452 198.048L91.9332 200.166L90.8712 213.264L70.3572 217.038L56.5152 212.94L51.2832 205.236L53.9412 196.44Z" fill="#FFBE9D"/>
<path d="M47.2213 197.694L56.1493 195.588C56.1493 195.588 62.4553 215.1 78.0313 214.26C90.7273 213.576 90.8713 199.404 90.8713 199.404L100.021 202.332C100.021 202.332 103.519 225.798 99.6493 242.424C98.7433 246.306 97.5313 251.544 97.5313 251.544L98.7673 275.832L31.1113 275.94L47.2213 197.694Z" fill="#5063F4"/>
<g opacity="0.3">
<path d="M73.7404 271.122C70.4524 271.038 67.4104 271.314 64.1404 271.236C60.1924 271.14 56.2144 271.044 52.3144 271.686C49.3864 272.166 46.5424 273.06 43.6204 273.522C39.6304 274.122 35.3704 273.924 31.8184 272.004L32.4004 268.686L45.8824 265.44L73.7404 271.122Z" fill="black"/>
</g>
<path d="M107.659 207.804C104.563 203.802 99.421 202.14 99.421 202.14L95.959 232.278L102.517 276.156L123.985 276.054C123.985 276.054 112.141 213.594 107.659 207.804Z" fill="#5063F4"/>
<path d="M48.2646 197.472C48.2646 197.472 33.8106 198.63 28.6266 222.306C26.2806 233.016 23.3166 245.568 22.4646 254.004C21.8406 260.118 25.2006 269.7 31.2666 270.486L38.9346 271.518C40.4383 271.735 41.9691 271.678 43.4526 271.35C48.3006 270.24 48.7925 266.916 49.6446 263.382L51.8826 256.32C53.0826 249.6 46.8485 248.346 43.3865 248.418L45.9666 217.746L48.2646 197.472Z" fill="#5063F4"/>
<path d="M101.209 218.886C101.24 218.994 101.262 219.104 101.275 219.216L101.419 220.17C101.449 220.38 101.485 220.608 101.521 220.86C101.557 221.112 101.575 221.388 101.605 221.688C101.665 222.288 101.737 222.954 101.767 223.704C101.871 225.456 101.883 227.212 101.803 228.966C101.697 231.115 101.483 233.258 101.161 235.386C100.831 237.648 100.411 239.79 99.9911 241.728C99.5711 243.666 99.1451 245.394 98.7911 246.852C98.4371 248.31 98.1191 249.474 97.8971 250.284L97.6391 251.214C97.6144 251.322 97.5803 251.429 97.5371 251.532C97.5437 251.42 97.5638 251.309 97.5971 251.202L97.8131 250.26C98.0111 249.42 98.2931 248.25 98.6351 246.81C98.9771 245.37 99.3851 243.618 99.7871 241.68C100.189 239.742 100.609 237.612 100.939 235.35C101.269 233.088 101.503 230.934 101.593 228.96C101.683 226.986 101.695 225.204 101.593 223.71C101.593 222.96 101.509 222.288 101.461 221.694C101.461 221.4 101.419 221.124 101.401 220.872C101.383 220.62 101.341 220.392 101.317 220.182C101.275 219.78 101.245 219.462 101.215 219.222C101.205 219.11 101.203 218.998 101.209 218.886Z" fill="#263238"/>
<path d="M32.0527 256.716C32.0636 256.511 32.1019 256.31 32.1667 256.116C32.3075 255.583 32.4942 255.063 32.7247 254.562C33.4812 252.885 34.6613 251.433 36.1489 250.351C37.6365 249.268 39.3803 248.592 41.2087 248.388C41.7562 248.323 42.3082 248.305 42.8587 248.334C43.0608 248.335 43.2622 248.359 43.4587 248.406C42.7127 248.415 41.9677 248.463 41.2267 248.55C39.4407 248.796 37.7432 249.48 36.2851 250.54C34.827 251.6 33.6535 253.005 32.8687 254.628C32.5575 255.308 32.2851 256.005 32.0527 256.716Z" fill="#263238"/>
<path d="M35.4004 244.92C35.4004 244.92 35.5264 244.89 35.7544 244.884C36.0709 244.881 36.3874 244.895 36.7024 244.926C38.8144 245.151 40.8156 245.985 42.4624 247.326C42.7127 247.524 42.9492 247.739 43.1704 247.968C43.3264 248.13 43.4044 248.22 43.3924 248.232C43.3804 248.244 43.0024 247.926 42.3604 247.452C40.6861 246.225 38.7379 245.424 36.6844 245.118C35.8864 244.974 35.4004 244.956 35.4004 244.92Z" fill="#263238"/>
<path d="M50.3524 214.26C50.3178 214.05 50.3058 213.837 50.3164 213.624C50.3164 213.216 50.3164 212.628 50.2384 211.908C50.1057 210.021 49.7841 208.151 49.2784 206.328C48.7638 204.508 48.0662 202.745 47.1964 201.066C46.8604 200.424 46.5964 199.908 46.3684 199.56C46.2539 199.382 46.1536 199.196 46.0684 199.002C46.2112 199.159 46.3379 199.33 46.4464 199.512C46.6744 199.848 46.9864 200.352 47.3404 200.988C48.2598 202.66 48.9845 204.431 49.5004 206.268C50.0101 208.104 50.312 209.992 50.4004 211.896C50.4004 212.628 50.4004 213.216 50.4004 213.624C50.4066 213.837 50.3906 214.05 50.3524 214.26Z" fill="#263238"/>
<path d="M78.0296 235.752C78.0296 235.752 78.0296 235.842 77.9636 236.004C77.8958 236.24 77.8157 236.472 77.7236 236.7C77.4019 237.548 77.0001 238.364 76.5236 239.136C75.3155 241.135 73.6704 242.835 71.7116 244.108C69.7529 245.381 67.5313 246.194 65.2136 246.486C63.8751 246.658 62.5201 246.658 61.1816 246.486C60.2807 246.37 59.3928 246.169 58.5296 245.886C58.2934 245.814 58.0611 245.73 57.8336 245.634C57.7518 245.609 57.6733 245.575 57.5996 245.532C57.5996 245.532 57.9416 245.628 58.5536 245.802C59.4204 246.042 60.3054 246.21 61.1996 246.306C64.1614 246.653 67.1608 246.152 69.8491 244.862C72.5374 243.571 74.8041 241.544 76.3856 239.016C76.8684 238.251 77.2897 237.448 77.6456 236.616C77.8916 236.082 77.9996 235.746 78.0296 235.752Z" fill="#263238"/>
<path d="M47.574 269.064C47.574 269.064 47.322 269.37 46.782 269.814C45.9952 270.41 45.0947 270.839 44.136 271.074C42.7148 271.428 41.2471 271.557 39.786 271.458C38.136 271.338 36.312 271.146 34.422 270.858C32.6413 270.628 30.8871 270.226 29.184 269.658C28.4739 269.346 27.8241 268.911 27.264 268.374C26.7646 267.91 26.3124 267.397 25.914 266.844C25.3367 266.042 24.8421 265.184 24.438 264.282C24.3 263.958 24.192 263.682 24.132 263.538C24.0928 263.452 24.0487 263.368 24 263.286C24.0062 263.381 24.0285 263.475 24.066 263.562C24.12 263.742 24.216 264 24.342 264.33C24.7267 265.253 25.2158 266.129 25.8 266.94C26.1973 267.507 26.6495 268.034 27.15 268.512C27.722 269.071 28.3882 269.524 29.118 269.85C30.8267 270.443 32.5921 270.857 34.386 271.086C36.288 271.368 38.106 271.554 39.786 271.686C41.27 271.781 42.7597 271.633 44.196 271.248C45.1658 270.99 46.0684 270.525 46.842 269.886C47.0487 269.705 47.2375 269.504 47.406 269.286C47.4692 269.218 47.5255 269.144 47.574 269.064Z" fill="#263238"/>
<path d="M49.9569 221.808C49.8969 221.808 48.3729 227.706 46.5549 235.008C44.7369 242.31 43.3149 248.286 43.3749 248.286C43.4349 248.286 44.9649 242.388 46.7829 235.086C48.6009 227.784 50.0229 221.82 49.9569 221.808Z" fill="#263238"/>
<path d="M51.7988 255.192C51.8459 255.034 51.8702 254.87 51.8708 254.706C51.9201 254.259 51.9322 253.81 51.9068 253.362C51.8582 252.685 51.6327 252.033 51.2528 251.472C51.0412 251.134 50.7937 250.82 50.5148 250.536C50.2042 250.242 49.8598 249.986 49.4888 249.774C48.1784 249.081 46.7571 248.622 45.2888 248.418C44.8479 248.349 44.403 248.309 43.9568 248.298C43.794 248.271 43.6277 248.271 43.4648 248.298C43.4648 248.334 44.1608 248.364 45.2648 248.556C46.7003 248.808 48.0885 249.28 49.3808 249.954C49.7329 250.158 50.0593 250.404 50.3528 250.686C50.6218 250.959 50.8648 251.256 51.0788 251.574C51.4468 252.109 51.6738 252.728 51.7388 253.374C51.7796 253.814 51.7936 254.257 51.7808 254.7C51.7672 254.864 51.7732 255.029 51.7988 255.192Z" fill="#263238"/>
<g opacity="0.3">
<path d="M100.542 238.776C104.232 232.53 104.31 224.418 101.094 217.92C102.124 224.847 101.9 231.904 100.434 238.752" fill="black"/>
</g>
<path d="M94.663 266.808C93.499 264.612 84.433 258.828 84.433 258.828L86.887 258.258L89.599 259.404C89.8032 260.323 90.1999 261.188 90.763 261.942C91.759 263.364 93.451 261.894 93.451 261.894L92.305 256.404L86.947 253.176C86.947 253.176 81.901 253.95 81.085 254.34L78.937 256.308C77.989 257.046 75.265 259.962 74.521 260.052C73.777 260.142 50.401 254.886 50.401 254.886C47.191 257.424 45.505 262.476 45.001 266.118C45.001 266.118 44.401 267.918 45.049 268.878L73.777 271.134L79.867 272.814C81.4977 273.489 83.169 274.062 84.871 274.53C86.893 274.956 88.261 274.302 88.315 273.186C88.369 272.07 86.797 271.944 86.797 271.944C85.454 271.458 84.1451 270.883 82.879 270.222C81.9582 269.601 81.2008 268.768 80.671 267.792L82.843 268.056C82.843 268.056 87.457 271.254 89.191 272.196C90.925 273.138 91.267 271.41 91.411 270.888C91.555 270.366 86.227 265.152 86.227 265.152C86.227 265.152 91.285 268.272 92.197 269.064C93.109 269.856 94.459 270.084 94.747 269.556C95.035 269.028 95.821 269.004 94.663 266.808Z" fill="#FFBE9D"/>
<path d="M69.6899 267.312C69.6711 267.195 69.6711 267.075 69.6899 266.958C69.6733 266.82 69.6733 266.681 69.6899 266.544C69.7096 266.357 69.7437 266.173 69.7919 265.992C70.0797 264.956 70.5804 263.991 71.2619 263.16C71.9223 262.323 72.6639 261.553 73.4759 260.862C73.7944 260.556 74.1444 260.284 74.5199 260.052C74.2241 260.376 73.9096 260.682 73.5779 260.97C72.8029 261.687 72.0847 262.463 71.4299 263.292C70.7677 264.106 70.2612 265.036 69.9359 266.034C69.7139 266.808 69.7319 267.318 69.6899 267.312Z" fill="#EB996E"/>
<path d="M84.2233 258.654C83.7052 258.766 83.1655 258.718 82.6753 258.516C82.1637 258.383 81.7052 258.096 81.3613 257.694C81.3973 257.64 81.9613 258.054 82.7413 258.294C83.5213 258.534 84.2233 258.588 84.2233 258.654Z" fill="#EB996E"/>
<path d="M85.7294 264.666C84.9376 264.452 84.165 264.173 83.4194 263.832C82.6493 263.552 81.9046 263.207 81.1934 262.8C81.9861 263.01 82.759 263.289 83.5034 263.634C84.274 263.912 85.0188 264.258 85.7294 264.666Z" fill="#EB996E"/>
<path d="M80.8678 267.732C80.4527 267.643 80.0498 267.504 79.6678 267.318C79.2638 267.198 78.8751 267.031 78.5098 266.82C78.936 266.83 79.3553 266.93 79.7398 267.114C80.1549 267.239 80.5392 267.45 80.8678 267.732Z" fill="#EB996E"/>
<path d="M84.9848 265.086C84.9848 265.146 84.4808 265.344 84.0908 265.872C83.8736 266.204 83.7002 266.563 83.5748 266.94C83.5748 266.94 83.5208 266.796 83.5748 266.568C83.6277 266.267 83.7511 265.984 83.9348 265.74C84.1221 265.499 84.3623 265.304 84.6368 265.17C84.8288 265.05 84.9728 265.038 84.9848 265.086Z" fill="#EB996E"/>
<path d="M87.114 261.708C87.114 261.768 86.742 261.978 86.484 262.44C86.3513 262.733 86.241 263.036 86.154 263.346C86.0912 263.178 86.0714 262.997 86.0965 262.82C86.1217 262.643 86.191 262.475 86.298 262.332C86.604 261.804 87.102 261.654 87.114 261.708Z" fill="#EB996E"/>
<path d="M86.4011 255.72C86.4011 255.72 86.2991 255.63 86.2331 255.432C86.1619 255.17 86.1619 254.895 86.2331 254.634C86.2949 254.369 86.4276 254.126 86.6171 253.932C86.7611 253.782 86.8811 253.734 86.8931 253.752C86.6779 254.027 86.5243 254.345 86.4425 254.684C86.3608 255.024 86.3528 255.377 86.4191 255.72H86.4011Z" fill="#EB996E"/>
<path d="M44.7551 269.688C44.7906 269.47 44.8047 269.249 44.7972 269.028C44.7972 268.818 44.7972 268.554 44.7972 268.254C44.7972 267.954 44.7971 267.612 44.8691 267.234C45.0503 265.271 45.4818 263.339 46.1531 261.486C46.5256 260.468 46.9811 259.483 47.5152 258.54C47.7792 258.114 48.0071 257.7 48.2711 257.34L48.6431 256.818L49.0092 256.35C49.9632 255.18 50.6952 254.55 50.6652 254.55C50.4802 254.671 50.3074 254.809 50.1492 254.964C49.9378 255.129 49.7374 255.307 49.5492 255.498C49.3392 255.72 49.0931 255.96 48.8531 256.26L48.4691 256.722C48.3431 256.884 48.2171 257.064 48.0851 257.244C47.8091 257.598 47.5692 258.018 47.2992 258.444C46.7502 259.402 46.2845 260.406 45.9072 261.444C45.2338 263.317 44.8297 265.277 44.7072 267.264C44.6712 267.648 44.7072 267.99 44.6652 268.296C44.6232 268.602 44.6652 268.854 44.6652 269.07C44.6808 269.278 44.7109 269.484 44.7551 269.688Z" fill="#263238"/>
<g opacity="0.3">
<path d="M34.896 249.156C37.5936 248.048 40.5628 247.778 43.416 248.382C40.9659 248.271 38.5422 248.927 36.4833 250.26C34.4244 251.593 32.8333 253.535 31.932 255.816C31.722 256.368 31.332 257.016 30.732 256.932C30.132 256.848 30 256.17 30 255.618C30 252.75 32.25 250.266 34.896 249.156Z" fill="black"/>
</g>
<path d="M101.4 216.864C101.534 216.844 101.664 216.802 101.784 216.738C102.024 216.642 102.384 216.486 102.786 216.282C103.867 215.735 104.901 215.099 105.876 214.38C106.852 213.658 107.765 212.855 108.606 211.98C108.924 211.638 109.206 211.38 109.338 211.158C109.432 211.06 109.511 210.949 109.572 210.828C109.193 211.153 108.83 211.498 108.486 211.86C107.622 212.697 106.704 213.477 105.738 214.194C104.782 214.905 103.78 215.553 102.738 216.132C101.88 216.582 101.364 216.834 101.4 216.864Z" fill="white"/>
<path d="M50.1426 218.538L50.2566 218.616L50.5986 218.82C50.8926 219 51.3426 219.246 51.9306 219.558C53.5978 220.41 55.3267 221.136 57.1026 221.73C59.7407 222.609 62.4483 223.263 65.1966 223.686C68.5587 224.187 71.9499 224.467 75.3486 224.526C78.9486 224.616 82.4106 224.526 85.5486 224.472C88.3243 224.443 91.0955 224.242 93.8466 223.872C95.7024 223.609 97.5315 223.184 99.3126 222.6C99.9426 222.39 100.423 222.21 100.741 222.072L101.113 221.922L101.233 221.862C101.187 221.866 101.142 221.878 101.101 221.898L100.729 222.03C100.399 222.156 99.9126 222.318 99.2826 222.516C97.4979 223.062 95.6719 223.464 93.8226 223.716C91.0764 224.075 88.3118 224.276 85.5426 224.316C82.4166 224.376 78.9726 224.436 75.3426 224.352C71.9527 224.29 68.5701 224.016 65.2146 223.53C62.4777 223.12 59.7787 222.488 57.1446 221.64C55.3725 221.043 53.6443 220.324 51.9726 219.486C51.3726 219.192 50.9226 218.958 50.6166 218.79L50.2686 218.604C50.1906 218.556 50.1486 218.532 50.1426 218.538Z" fill="white"/>
<path d="M101.227 234.342C101.414 234.319 101.598 234.278 101.779 234.222L103.255 233.82C104.497 233.466 106.213 232.968 108.103 232.404C109.993 231.84 111.703 231.312 112.933 230.922L114.385 230.448C114.568 230.4 114.745 230.332 114.913 230.244C114.725 230.267 114.54 230.307 114.361 230.364L112.885 230.766C111.637 231.12 109.927 231.618 108.037 232.182C106.147 232.746 104.437 233.274 103.207 233.664L101.749 234.138C101.566 234.183 101.391 234.252 101.227 234.342Z" fill="white"/>
<path d="M99.9356 258.888C99.9356 258.948 104.382 257.688 109.83 256.044C115.278 254.4 119.682 253.044 119.664 252.984C119.646 252.924 115.212 254.184 109.764 255.828C104.316 257.472 99.9116 258.828 99.9356 258.888Z" fill="white"/>
<path d="M35.7852 205.812C35.9328 205.958 36.0958 206.086 36.2712 206.197C36.5952 206.437 37.0752 206.767 37.6752 207.157C39.2425 208.161 40.8673 209.072 42.5412 209.887C44.2141 210.711 45.9353 211.435 47.6952 212.052C48.3732 212.292 48.9252 212.467 49.3092 212.575C49.5044 212.643 49.7051 212.696 49.9092 212.73C49.7179 212.63 49.5169 212.55 49.3092 212.491L47.7252 211.891C46.3872 211.381 44.5692 210.625 42.6132 209.665C40.6572 208.705 38.9472 207.727 37.7292 206.983L36.2952 206.089C36.1318 205.985 35.9614 205.892 35.7852 205.812Z" fill="white"/>
<path d="M26.9414 231.03C27.1711 231.165 27.412 231.279 27.6614 231.372C28.1294 231.582 28.8194 231.858 29.6834 232.176C34.1846 233.819 38.9121 234.758 43.6994 234.96C44.6174 235.002 45.3614 235.008 45.8714 234.996C46.1381 235.004 46.405 234.99 46.6694 234.954C46.405 234.918 46.1382 234.902 45.8714 234.906C45.3614 234.906 44.6234 234.858 43.7114 234.798C38.9498 234.504 34.2494 233.57 29.7374 232.02C28.8734 231.726 28.1714 231.474 27.6974 231.288C27.4517 231.185 27.1991 231.099 26.9414 231.03Z" fill="white"/>
<path d="M39.7206 271.368C39.7326 271.287 39.7326 271.204 39.7206 271.122C39.7206 270.936 39.6546 270.708 39.6066 270.426C39.5586 270.144 39.4926 269.748 39.4506 269.316C39.4086 268.884 39.3306 268.393 39.3126 267.847C39.3126 267.571 39.2946 267.283 39.2586 266.983C39.2586 266.689 39.2586 266.382 39.2586 266.052C39.2586 265.41 39.2886 264.72 39.3186 263.994C39.53 260.859 40.2641 257.78 41.4906 254.886C41.7906 254.226 42.0906 253.59 42.3786 253.026C42.5286 252.744 42.6606 252.462 42.8166 252.204L43.2546 251.461C43.5186 250.987 43.8126 250.584 44.0526 250.218C44.2926 249.852 44.5086 249.547 44.6946 249.301L45.1086 248.73C45.1631 248.666 45.2095 248.596 45.2466 248.521C45.1821 248.574 45.1238 248.634 45.0726 248.701L44.6226 249.247C44.4246 249.487 44.1906 249.78 43.9446 250.14C43.6986 250.5 43.3926 250.902 43.1106 251.376L42.6606 252.115C42.5046 252.373 42.3666 252.654 42.2106 252.936C41.8866 253.5 41.6106 254.136 41.2986 254.802C40.6697 256.256 40.162 257.759 39.7806 259.297C39.4196 260.839 39.1848 262.408 39.0786 263.989C39.0786 264.721 39.0066 265.41 39.0366 266.058C39.0366 266.382 39.0366 266.701 39.0366 267.001C39.0366 267.301 39.0786 267.601 39.1026 267.865C39.1026 268.417 39.2166 268.908 39.2766 269.34C39.3222 269.712 39.3883 270.08 39.4746 270.444C39.5346 270.726 39.5826 270.954 39.6246 271.14C39.6468 271.22 39.6791 271.297 39.7206 271.368Z" fill="white"/>
<path d="M22.5732 257.767C22.6032 257.767 22.6092 257.407 22.7112 256.765C22.8645 255.862 23.158 254.99 23.5812 254.179C24.2151 252.979 25.0654 251.907 26.0892 251.017C27.3425 249.925 28.7895 249.078 30.3552 248.521C31.935 248.002 33.5829 247.721 35.2452 247.687C36.605 247.648 37.9659 247.698 39.3192 247.837C40.4772 247.951 41.4132 248.065 42.0612 248.137L42.8112 248.221H43.0692C42.989 248.187 42.9039 248.167 42.8172 248.161L42.0732 248.035C41.4312 247.933 40.4952 247.795 39.3372 247.663C37.9755 247.501 36.6043 247.433 35.2332 247.459C33.5487 247.481 31.8775 247.76 30.2772 248.287C28.6836 248.851 27.2145 249.719 25.9512 250.843C24.9117 251.752 24.058 252.855 23.4372 254.089C23.0182 254.918 22.7423 255.813 22.6212 256.735C22.5889 256.983 22.5729 257.234 22.5732 257.485C22.5641 257.578 22.5641 257.673 22.5732 257.767Z" fill="white"/>
<path d="M70.3262 244.92L70.5782 244.962L71.2982 245.034L73.9622 245.256C76.2122 245.43 79.3202 245.646 82.7582 245.82C86.1962 245.994 89.3102 246.114 91.5722 246.138C92.7002 246.138 93.6122 246.138 94.2422 246.138H94.9682C95.0516 246.152 95.1368 246.152 95.2202 246.138H94.9682H94.2422L91.5722 246.072C89.3222 246.006 86.2082 245.874 82.7702 245.694L73.9742 245.196L71.3042 245.046L70.5782 245.016C70.5007 244.969 70.4153 244.936 70.3262 244.92Z" fill="white"/>
<g opacity="0.3">
<path d="M67.7456 245.838C64.9496 246.66 61.0736 246.864 58.3496 245.838C60.4796 248.838 64.5956 249.96 68.1656 248.976C71.7356 247.992 75.0296 244.416 75.3056 240.72C73.3657 243.156 70.7281 244.942 67.7456 245.838Z" fill="black"/>
</g>
<path d="M45.0723 242.916L45.2943 242.976L45.9423 243.114C46.5003 243.228 47.3163 243.384 48.3423 243.558C50.3643 243.912 53.1423 244.35 56.2683 244.728C59.3943 245.106 62.1963 245.358 64.2423 245.502C65.2683 245.574 66.0963 245.622 66.6423 245.646H67.3023C67.3798 245.658 67.4587 245.658 67.5363 245.646L67.3083 245.61L66.6483 245.544L64.2483 245.328C62.2083 245.142 59.3943 244.866 56.2923 244.488C53.1903 244.11 50.3883 243.696 48.3663 243.384L45.9663 243.012L45.3123 242.916C45.1503 242.886 45.0723 242.886 45.0723 242.916Z" fill="white"/>
<g opacity="0.3">
<path d="M49.7234 223.152C50.4254 231.186 48.2354 239.16 46.0694 246.93C45.9709 247.415 45.766 247.872 45.4694 248.268C45.3175 248.463 45.1073 248.603 44.8697 248.669C44.6321 248.735 44.3796 248.723 44.1494 248.634C43.4714 248.292 43.5494 247.308 43.7534 246.576L49.7534 223.482" fill="black"/>
</g>
<path d="M162.103 231.156L153.001 275.94H73.8007C73.3821 275.94 72.9808 275.774 72.6848 275.478C72.3889 275.182 72.2227 274.781 72.2227 274.362C72.2227 273.943 72.3887 273.541 72.6845 273.244C72.9802 272.947 73.3816 272.78 73.8007 272.778H89.7427L98.1967 231.132C98.2751 230.743 98.4849 230.393 98.7908 230.141C99.0967 229.889 99.4801 229.749 99.8767 229.746L160.393 229.086C160.65 229.083 160.905 229.137 161.139 229.245C161.373 229.353 161.58 229.513 161.744 229.711C161.908 229.91 162.025 230.143 162.087 230.393C162.15 230.643 162.155 230.904 162.103 231.156Z" fill="#E0E0E0"/>
<path d="M162.102 231.156C162.102 231.156 162.102 231.114 162.132 231.024C162.177 230.688 162.122 230.346 161.974 230.041C161.825 229.736 161.59 229.481 161.298 229.308C161.145 229.209 160.977 229.134 160.8 229.086C160.602 229.054 160.401 229.042 160.2 229.05H158.778H155.214L132.33 229.266L116.382 229.428L107.442 229.518L102.756 229.566H100.356C100.152 229.566 99.9603 229.566 99.7563 229.566C99.5473 229.587 99.3438 229.646 99.1563 229.74C98.7658 229.93 98.4569 230.253 98.2863 230.652C98.2093 230.846 98.153 231.047 98.1183 231.252L97.9983 231.852C97.9143 232.254 97.8363 232.656 97.7523 233.052C97.5843 233.862 97.4223 234.672 97.2543 235.494C96.9183 237.138 96.5823 238.794 96.2403 240.474C95.5563 243.842 94.8583 247.28 94.1463 250.788L89.7003 272.64L89.8083 272.55H74.0643C73.8636 272.54 73.6623 272.552 73.4643 272.586C73.0543 272.664 72.6878 272.892 72.4358 273.224C72.1838 273.557 72.0641 273.971 72.1 274.387C72.1358 274.803 72.3246 275.191 72.6298 275.475C72.935 275.76 73.335 275.922 73.7523 275.928H115.8H153H153.066V275.862C155.85 262.098 158.118 250.902 159.666 243.138C160.446 239.262 161.058 236.244 161.466 234.192C161.67 233.172 161.826 232.392 161.928 231.858C162.03 231.324 162.078 231.06 162.078 231.06L161.904 231.852C161.796 232.386 161.634 233.166 161.418 234.186C160.998 236.232 160.374 239.25 159.576 243.12L152.874 275.832L153 275.886H115.8H73.7403C73.5147 275.873 73.2942 275.814 73.0923 275.712C72.9108 275.613 72.7521 275.476 72.6268 275.312C72.5014 275.147 72.412 274.958 72.3645 274.757C72.317 274.555 72.3123 274.346 72.3509 274.143C72.3894 273.939 72.4703 273.746 72.5883 273.576C72.8003 273.268 73.1225 273.053 73.4883 272.976C73.6864 272.942 73.8878 272.932 74.0883 272.946H89.8563V272.862L94.2843 251.01C94.9963 247.498 95.6943 244.06 96.3783 240.696C96.7183 239.016 97.0543 237.356 97.3863 235.716C97.5543 234.894 97.7163 234.078 97.8843 233.268C97.9623 232.866 98.0463 232.458 98.1243 232.068L98.2503 231.468C98.2774 231.263 98.3278 231.062 98.4003 230.868C98.5571 230.514 98.833 230.225 99.1803 230.052C99.3503 229.964 99.5356 229.909 99.7263 229.89C99.9123 229.89 100.122 229.89 100.326 229.89L102.726 229.86L107.412 229.806L116.346 229.704L132.3 229.518L155.178 229.236L158.742 229.188H160.164C160.365 229.18 160.566 229.192 160.764 229.224C161.114 229.3 161.431 229.481 161.673 229.745C161.915 230.008 162.069 230.34 162.114 230.694C162.128 230.848 162.124 231.003 162.102 231.156Z" fill="#263238"/>
<path d="M125.617 251.652C125.617 252.17 125.771 252.675 126.058 253.106C126.346 253.536 126.754 253.871 127.232 254.069C127.71 254.267 128.236 254.319 128.744 254.218C129.251 254.117 129.717 253.868 130.083 253.502C130.449 253.136 130.698 252.67 130.799 252.162C130.9 251.655 130.848 251.129 130.65 250.651C130.452 250.173 130.117 249.764 129.687 249.477C129.256 249.19 128.751 249.036 128.233 249.036C127.539 249.036 126.874 249.312 126.383 249.802C125.893 250.293 125.617 250.958 125.617 251.652Z" fill="white"/>
<path d="M162.031 231.522H161.761H157.879L146.557 231.576L109.207 231.84L103.807 231.882H102.475C102.249 231.876 102.022 231.89 101.797 231.924C101.57 231.974 101.353 232.061 101.155 232.182C100.763 232.435 100.478 232.824 100.357 233.274C100.255 233.712 100.183 234.126 100.093 234.552C99.4273 237.924 98.7793 241.182 98.1673 244.278C96.9373 250.476 95.8333 256.062 94.9093 260.754L92.7313 271.866C92.4793 273.168 92.2873 274.188 92.1313 274.866C92.0713 275.206 92.0233 275.47 91.9873 275.658C91.9573 275.832 91.9453 275.922 91.9453 275.922C91.9453 275.922 91.9453 275.838 92.0113 275.658C92.0773 275.478 92.1013 275.214 92.1733 274.878L92.7733 271.878C93.3073 269.25 94.0693 265.464 95.0173 260.784C95.9653 256.104 97.0753 250.512 98.3173 244.32C98.9173 241.218 99.5893 237.966 100.261 234.594C100.351 234.174 100.429 233.742 100.519 233.334C100.629 232.935 100.883 232.59 101.233 232.368C101.416 232.252 101.62 232.172 101.833 232.134C102.044 232.104 102.257 232.092 102.469 232.098H103.801L109.201 232.056L146.551 231.726L157.873 231.6L160.951 231.558H161.755L162.031 231.522Z" fill="#263238"/>
<path d="M31.8301 272.982H31.9381L32.2441 273.012L33.4441 273.108C34.4761 273.192 35.9641 273.294 37.8121 273.402C41.4961 273.618 46.6021 273.84 52.2121 273.936C57.8221 274.032 62.9641 273.978 66.6541 273.882C68.5021 273.834 69.9961 273.786 71.0281 273.738L72.2281 273.678H72.5401H72.6421H72.2281H71.0281L66.6541 273.75C62.9581 273.804 57.8521 273.828 52.2181 273.75C46.5841 273.672 41.4841 273.456 37.8181 273.282L33.4501 273.06L32.2501 273.006H31.8301V272.982Z" fill="white"/>
</svg>
