<svg xmlns="http://www.w3.org/2000/svg" width="1411.813" height="769.31" viewBox="0 0 1411.813 769.31">
  <g id="Group_400" data-name="Group 400" transform="translate(-862.363 -260.106)">
    <g id="Group_232" data-name="Group 232" transform="translate(-3354.637 -5929.534)" opacity="0.1">
      <path id="Path_49" data-name="Path 49" d="M470.227,546.421c-85.359-29.494-182.956-54.459-262.706-12.076-10.107,5.372-20.067,12.135-25.513,22.2-14.384,26.475,8.48,60.808-2.664,88.792s-53.083,42.073-49.65,71.966c.9,7.814,5.135,14.887,10.122,20.984,31.24,38.166,88.511,42.028,136.917,32.557s95.747-29.109,145.027-26.638c47.356,2.442,90.923,25.158,134.313,44.278,73.15,32.32,158.583,55.51,231.673,23.027,33.489-14.887,61.178-40.237,93.232-57.937A229.468,229.468,0,0,1,1022.6,727.586c32.557,4.588,63.634,16.131,95.5,24.092,72.366,18.069,147.9,17.477,222.468,16.767,13.881-.133,27.984-.3,41.288-4.262,19.7-5.919,35.946-19.549,51.588-32.883,20.555-17.507,42.206-36.745,48.836-62.924,7.828-31.077-8.376-64.108-32.409-85.226s-54.755-32.661-84.737-43.789c-7.4-2.723-15.3-5.49-22.879-3.433-4.972,1.361-9.16,4.676-12.875,8.243-21.281,20.481-39.261,55.125-68.281,49.561-10.359-1.983-18.839-9.19-27.037-15.849-43.774-35.517-102.658-62.939-155.49-43.316-38.639,14.355-65.913,51.218-105.07,64.226-27.851,9.264-58.115,5.253-87.416,7.059-42.62,2.6-84.1,17.67-126.78,16.752-108.829-2.338-199.5-106.4-307.886-96.487-8.494.77-17.758,2.723-22.968,9.442" transform="translate(4097.112 6087.786)" opacity="0.5"/>
      <path id="Path_50" data-name="Path 50" d="M274.938,470.795S184.5,525.387,351.27,609.473c0,0,36.745-68.222-3.877-123.85a54.755,54.755,0,0,0-71.034-15.568Z" transform="translate(4155.158 6064.424)"/>
      <path id="Path_51" data-name="Path 51" d="M267.73,467.52S345.157,526.715,343,607.294" transform="translate(4163.447 6066.559)" fill="none" stroke="#535461" stroke-miterlimit="10" stroke-width="1"/>
      <path id="Path_52" data-name="Path 52" d="M1120.526,468.5c18.321,66.994-59.831,257.852-59.831,257.852S896.252,601.854,877.916,534.86a125.789,125.789,0,1,1,242.595-66.372Z" transform="translate(4453.73 6021.239)"/>
      <path id="Path_53" data-name="Path 53" d="M1120.526,468.5c18.321,66.994-59.831,257.852-59.831,257.852S896.252,601.854,877.916,534.86a125.789,125.789,0,1,1,242.595-66.372Z" transform="translate(4453.73 6021.239)" opacity="0.1"/>
      <path id="Path_54" data-name="Path 54" d="M936.21,378.27s102.362,154.528,94.711,345.963" transform="translate(4484.229 6023.73)" fill="none" stroke="#535461" stroke-miterlimit="10" stroke-width="1"/>
      <path id="Path_55" data-name="Path 55" d="M1084.421,522.322s-92.817-50.493-81.067,135.9c0,0,77.427-2.767,104.908-65.928a54.755,54.755,0,0,0-22.479-69.184Z" transform="translate(4515.954 6089.865)"/>
      <path id="Path_56" data-name="Path 56" d="M1085.611,520.52s-11.987,96.754-82.592,135.571" transform="translate(4516.288 6091.993)" fill="none" stroke="#535461" stroke-miterlimit="10" stroke-width="1"/>
      <path id="Path_57" data-name="Path 57" d="M147.505,508.784s-90.479,54.578,76.3,138.619c0,0,36.745-68.222-3.877-123.85A54.755,54.755,0,0,0,148.9,507.985Z" transform="translate(4093.997 6082.625)"/>
      <path id="Path_58" data-name="Path 58" d="M140.26,505.49s77.427,59.195,75.266,139.773" transform="translate(4102.278 6084.779)" fill="none" stroke="#535461" stroke-miterlimit="10" stroke-width="1"/>
      <rect id="Rectangle_50" data-name="Rectangle 50" width="781.548" height="485.382" rx="23.26" transform="translate(4488.048 6189.64)"/>
      <rect id="Rectangle_51" data-name="Rectangle 51" width="746.993" height="396.53" transform="translate(4504.503 6260.392)"/>
      <circle id="Ellipse_66" data-name="Ellipse 66" cx="6.585" cy="6.585" r="6.585" transform="translate(4871.423 6219.252)"/>
      <path id="Path_60" data-name="Path 60" d="M844.259,551.08,818.6,577.407H637.67L614.48,551.08H246.008a8.228,8.228,0,0,0-8.228,8.228v6.63A46.024,46.024,0,0,0,283.8,611.962h888.6a46.024,46.024,0,0,0,46.024-46.024v-6.63a8.228,8.228,0,0,0-8.228-8.228Z" transform="translate(4149.075 6106.657)"/>
      <path id="Path_61" data-name="Path 61" d="M258.77,124.19V461.481H816.532" transform="translate(4341.17 6160.887)" fill="none" stroke="#535461" stroke-miterlimit="10" stroke-width="2"/>
      <rect id="Rectangle_52" data-name="Rectangle 52" width="57.582" height="88.851" transform="translate(4649.294 6520.361)" opacity="0.5"/>
      <rect id="Rectangle_53" data-name="Rectangle 53" width="57.582" height="167.832" transform="translate(4748.016 6441.38)" opacity="0.7"/>
      <rect id="Rectangle_54" data-name="Rectangle 54" width="57.582" height="120.106" transform="translate(4846.738 6489.091)" opacity="0.5"/>
      <rect id="Rectangle_55" data-name="Rectangle 55" width="57.582" height="194.159" transform="translate(4945.46 6415.053)" opacity="0.8"/>
      <rect id="Rectangle_56" data-name="Rectangle 56" width="57.582" height="263.254" transform="translate(5044.182 6345.943)"/>
      <path id="Path_62" data-name="Path 62" d="M311.02,295.043l100.365-90.494L510.107,290.1l97.079-103.65,98.722-41.14" transform="translate(4366.244 6171.021)" fill="none" stroke="#535461" stroke-miterlimit="10" stroke-width="2"/>
      <circle id="Ellipse_67" data-name="Ellipse 67" cx="11.513" cy="11.513" r="11.513" transform="translate(4665.75 6454.551)"/>
      <circle id="Ellipse_68" data-name="Ellipse 68" cx="11.513" cy="11.513" r="11.513" transform="translate(4863.194 6447.965)"/>
      <circle id="Ellipse_69" data-name="Ellipse 69" cx="11.513" cy="11.513" r="11.513" transform="translate(4963.559 6345.958)"/>
      <circle id="Ellipse_70" data-name="Ellipse 70" cx="11.513" cy="11.513" r="11.513" transform="translate(4766.115 6362.399)"/>
      <circle id="Ellipse_71" data-name="Ellipse 71" cx="11.513" cy="11.513" r="11.513" transform="translate(5060.639 6304.817)"/>
      <path id="Path_89" data-name="Path 89" d="M212.82,316.76s-38.8,80.268-13.319,175.261S216.89,700.682,191.481,728.8" transform="translate(4126.545 5994.215)" fill="none" stroke="#535461" stroke-miterlimit="10" stroke-width="2"/>
      <circle id="Ellipse_73" data-name="Ellipse 73" cx="10.699" cy="10.699" r="10.699" transform="translate(4328.666 6300.29)"/>
      <path id="Path_90" data-name="Path 90" d="M194.79,354.049s40.223,7.251,50.922-7.4" transform="translate(4128.445 6008.558)" fill="none" stroke="#535461" stroke-miterlimit="10" stroke-width="2"/>
      <path id="Path_91" data-name="Path 91" d="M199.641,381.287s-24.2-26.771-22.864-42.827" transform="translate(4119.776 6004.627)" fill="none" stroke="#535461" stroke-miterlimit="10" stroke-width="2"/>
      <path id="Path_92" data-name="Path 92" d="M190.82,412.537s22.006,5.8,42.087-37" transform="translate(4126.54 6022.421)" fill="none" stroke="#535461" stroke-miterlimit="10" stroke-width="2"/>
      <path id="Path_93" data-name="Path 93" d="M210.564,443.436S155.809,408.2,162.483,385.47" transform="translate(4112.671 6027.186)" fill="none" stroke="#535461" stroke-miterlimit="10" stroke-width="2"/>
      <path id="Path_94" data-name="Path 94" d="M200.57,473.786s38.358-34.037,34.348-67.526" transform="translate(4131.219 6037.163)" fill="none" stroke="#535461" stroke-miterlimit="10" stroke-width="2"/>
      <path id="Path_95" data-name="Path 95" d="M218.756,479.273S169.921,465.629,171.4,444.23" transform="translate(4117.206 6055.383)" fill="none" stroke="#535461" stroke-miterlimit="10" stroke-width="2"/>
      <path id="Path_96" data-name="Path 96" d="M205.69,501.876s30.766-28.5,34.777-45.876" transform="translate(4133.676 6061.031)" fill="none" stroke="#535461" stroke-miterlimit="10" stroke-width="2"/>
      <path id="Path_97" data-name="Path 97" d="M217.812,537.769S186.247,500.92,184.9,482.2" transform="translate(4123.7 6073.604)" fill="none" stroke="#535461" stroke-miterlimit="10" stroke-width="2"/>
      <path id="Path_98" data-name="Path 98" d="M207.14,559.156s35.324-39.246,37.988-57.966" transform="translate(4134.371 6082.716)" fill="none" stroke="#535461" stroke-miterlimit="10" stroke-width="2"/>
      <circle id="Ellipse_74" data-name="Ellipse 74" cx="10.699" cy="10.699" r="10.699" transform="translate(4285.854 6335.066)"/>
      <circle id="Ellipse_75" data-name="Ellipse 75" cx="10.699" cy="10.699" r="10.699" transform="translate(4273.822 6488.914)"/>
      <circle id="Ellipse_76" data-name="Ellipse 76" cx="10.699" cy="10.699" r="10.699" transform="translate(4264.454 6401.957)"/>
      <circle id="Ellipse_77" data-name="Ellipse 77" cx="10.699" cy="10.699" r="10.699" transform="translate(4363.458 6344.434)"/>
      <circle id="Ellipse_78" data-name="Ellipse 78" cx="10.699" cy="10.699" r="10.699" transform="translate(4363.458 6508.98)"/>
      <circle id="Ellipse_79" data-name="Ellipse 79" cx="10.699" cy="10.699" r="10.699" transform="translate(4346.07 6387.247)"/>
      <circle id="Ellipse_80" data-name="Ellipse 80" cx="10.699" cy="10.699" r="10.699" transform="translate(4367.469 6579.896)"/>
      <circle id="Ellipse_81" data-name="Ellipse 81" cx="10.699" cy="10.699" r="10.699" transform="translate(4295.221 6551.793)"/>
      <circle id="Ellipse_82" data-name="Ellipse 82" cx="10.699" cy="10.699" r="10.699" transform="translate(4356.769 6432.723)"/>
    </g>
    <path id="Path_49-2" data-name="Path 49" d="M470.227,546.421c-85.359-29.494-182.956-54.459-262.706-12.076-10.107,5.372-20.067,12.135-25.513,22.2-14.384,26.475,8.48,60.808-2.664,88.792s-53.083,42.073-49.65,71.966c.9,7.814,5.135,14.887,10.122,20.984,31.24,38.166,88.511,42.028,136.917,32.557s95.747-29.109,145.027-26.638c47.356,2.442,90.923,25.158,134.313,44.278,73.15,32.32,158.583,55.51,231.673,23.027,33.489-14.887,61.178-40.237,93.232-57.937A229.468,229.468,0,0,1,1022.6,727.586c32.557,4.588,63.634,16.131,95.5,24.092,72.366,18.069,147.9,17.477,222.468,16.767,13.881-.133,27.984-.3,41.288-4.262,19.7-5.919,35.946-19.549,51.588-32.883,20.555-17.507,42.206-36.745,48.836-62.924,7.828-31.077-8.376-64.108-32.409-85.226s-54.755-32.661-84.737-43.789c-7.4-2.723-15.3-5.49-22.879-3.433-4.972,1.361-9.16,4.676-12.875,8.243-21.281,20.481-39.261,55.125-68.281,49.561-10.359-1.983-18.839-9.19-27.037-15.849-43.774-35.517-102.658-62.939-155.49-43.316-38.639,14.355-65.913,51.218-105.07,64.226-27.851,9.264-58.115,5.253-87.416,7.059-42.62,2.6-84.1,17.67-126.78,16.752-108.829-2.338-199.5-106.4-307.886-96.487-8.494.77-17.758,2.723-22.968,9.442" transform="translate(789.474 202.252)" fill="#43e0aa" opacity="0.5"/>
    <path id="Path_50-2" data-name="Path 50" d="M274.938,470.795S184.5,525.387,351.27,609.473c0,0,36.745-68.222-3.877-123.85a54.755,54.755,0,0,0-71.034-15.568Z" transform="translate(847.521 178.89)" fill="#43e0aa"/>
    <path id="Path_51-2" data-name="Path 51" d="M267.73,467.52S345.157,526.715,343,607.294" transform="translate(855.809 181.025)" fill="none" stroke="#535461" stroke-miterlimit="10" stroke-width="1"/>
    <path id="Path_57-2" data-name="Path 57" d="M147.505,508.784s-90.479,54.578,76.3,138.619c0,0,36.745-68.222-3.877-123.85A54.755,54.755,0,0,0,148.9,507.985Z" transform="translate(786.36 197.091)" fill="#43e0aa"/>
    <path id="Path_58-2" data-name="Path 58" d="M140.26,505.49s77.427,59.195,75.266,139.773" transform="translate(794.64 199.245)" fill="none" stroke="#535461" stroke-miterlimit="10" stroke-width="1"/>
    <g id="Group_238" data-name="Group 238">
      <rect id="Rectangle_50-2" data-name="Rectangle 50" width="781.548" height="485.382" rx="23.26" transform="translate(1180.41 304.106)" fill="#2d498e"/>
      <path id="Path_60-2" data-name="Path 60" d="M844.259,551.08,818.6,577.407H637.67L614.48,551.08H246.008a8.228,8.228,0,0,0-8.228,8.228v6.63A46.024,46.024,0,0,0,283.8,611.962h888.6a46.024,46.024,0,0,0,46.024-46.024v-6.63a8.228,8.228,0,0,0-8.228-8.228Z" transform="translate(841.437 221.123)" fill="#2d498e"/>
    </g>
    <rect id="Rectangle_51-2" data-name="Rectangle 51" width="746.993" height="396.53" transform="translate(1196.866 374.858)" fill="#fff"/>
    <circle id="Ellipse_66-2" data-name="Ellipse 66" cx="6.585" cy="6.585" r="6.585" transform="translate(1563.785 333.718)" fill="#fff"/>
    <path id="Path_61-2" data-name="Path 61" d="M258.77,124.19V461.481H816.532" transform="translate(1033.533 275.353)" fill="none" stroke="#535461" stroke-miterlimit="10" stroke-width="2"/>
    <rect id="Rectangle_52-2" data-name="Rectangle 52" width="57.582" height="88.851" transform="translate(1341.657 634.827)" fill="#43e0aa" opacity="0.5"/>
    <rect id="Rectangle_53-2" data-name="Rectangle 53" width="57.582" height="167.832" transform="translate(1440.379 555.846)" fill="#43e0aa" opacity="0.7"/>
    <rect id="Rectangle_54-2" data-name="Rectangle 54" width="57.582" height="120.106" transform="translate(1539.101 603.557)" fill="#43e0aa" opacity="0.5"/>
    <rect id="Rectangle_55-2" data-name="Rectangle 55" width="57.582" height="194.159" transform="translate(1637.823 529.519)" fill="#43e0aa" opacity="0.8"/>
    <rect id="Rectangle_56-2" data-name="Rectangle 56" width="57.582" height="263.254" transform="translate(1736.545 460.409)" fill="#43e0aa"/>
    <path id="Path_62-2" data-name="Path 62" d="M311.02,295.043l100.365-90.494L510.107,290.1l97.079-103.65,98.722-41.14" transform="translate(1058.607 285.487)" fill="none" stroke="#535461" stroke-miterlimit="10" stroke-width="2"/>
    <circle id="Ellipse_67-2" data-name="Ellipse 67" cx="11.513" cy="11.513" r="11.513" transform="translate(1358.113 569.017)" fill="#43e0aa"/>
    <circle id="Ellipse_68-2" data-name="Ellipse 68" cx="11.513" cy="11.513" r="11.513" transform="translate(1555.557 562.431)" fill="#43e0aa"/>
    <circle id="Ellipse_69-2" data-name="Ellipse 69" cx="11.513" cy="11.513" r="11.513" transform="translate(1655.922 460.424)" fill="#43e0aa"/>
    <circle id="Ellipse_70-2" data-name="Ellipse 70" cx="11.513" cy="11.513" r="11.513" transform="translate(1458.478 476.865)" fill="#43e0aa"/>
    <circle id="Ellipse_71-2" data-name="Ellipse 71" cx="11.513" cy="11.513" r="11.513" transform="translate(1753.001 419.283)" fill="#43e0aa"/>
    <path id="Path_89-2" data-name="Path 89" d="M212.82,316.76s-38.8,80.268-13.319,175.261S216.89,700.682,191.481,728.8" transform="translate(818.907 108.681)" fill="none" stroke="#535461" stroke-miterlimit="10" stroke-width="2"/>
    <circle id="Ellipse_73-2" data-name="Ellipse 73" cx="10.699" cy="10.699" r="10.699" transform="translate(1021.029 414.755)" fill="#43e0aa"/>
    <path id="Path_90-2" data-name="Path 90" d="M194.79,354.049s40.223,7.251,50.922-7.4" transform="translate(820.808 123.023)" fill="none" stroke="#535461" stroke-miterlimit="10" stroke-width="2"/>
    <path id="Path_91-2" data-name="Path 91" d="M199.641,381.287s-24.2-26.771-22.864-42.827" transform="translate(812.138 119.093)" fill="none" stroke="#535461" stroke-miterlimit="10" stroke-width="2"/>
    <path id="Path_92-2" data-name="Path 92" d="M190.82,412.537s22.006,5.8,42.087-37" transform="translate(818.903 136.887)" fill="none" stroke="#535461" stroke-miterlimit="10" stroke-width="2"/>
    <path id="Path_93-2" data-name="Path 93" d="M210.564,443.436S155.809,408.2,162.483,385.47" transform="translate(805.034 141.652)" fill="none" stroke="#535461" stroke-miterlimit="10" stroke-width="2"/>
    <path id="Path_94-2" data-name="Path 94" d="M200.57,473.786s38.358-34.037,34.348-67.526" transform="translate(823.581 151.628)" fill="none" stroke="#535461" stroke-miterlimit="10" stroke-width="2"/>
    <path id="Path_95-2" data-name="Path 95" d="M218.756,479.273S169.921,465.629,171.4,444.23" transform="translate(809.568 169.849)" fill="none" stroke="#535461" stroke-miterlimit="10" stroke-width="2"/>
    <path id="Path_96-2" data-name="Path 96" d="M205.69,501.876s30.766-28.5,34.777-45.876" transform="translate(826.038 175.497)" fill="none" stroke="#535461" stroke-miterlimit="10" stroke-width="2"/>
    <path id="Path_97-2" data-name="Path 97" d="M217.812,537.769S186.247,500.92,184.9,482.2" transform="translate(816.062 188.069)" fill="none" stroke="#535461" stroke-miterlimit="10" stroke-width="2"/>
    <path id="Path_98-2" data-name="Path 98" d="M207.14,559.156s35.324-39.246,37.988-57.966" transform="translate(826.734 197.182)" fill="none" stroke="#535461" stroke-miterlimit="10" stroke-width="2"/>
    <circle id="Ellipse_74-2" data-name="Ellipse 74" cx="10.699" cy="10.699" r="10.699" transform="translate(978.216 449.532)" fill="#43e0aa"/>
    <circle id="Ellipse_75-2" data-name="Ellipse 75" cx="10.699" cy="10.699" r="10.699" transform="translate(966.185 603.379)" fill="#43e0aa"/>
    <circle id="Ellipse_76-2" data-name="Ellipse 76" cx="10.699" cy="10.699" r="10.699" transform="translate(956.817 516.422)" fill="#43e0aa"/>
    <circle id="Ellipse_77-2" data-name="Ellipse 77" cx="10.699" cy="10.699" r="10.699" transform="translate(1055.821 458.899)" fill="#43e0aa"/>
    <circle id="Ellipse_78-2" data-name="Ellipse 78" cx="10.699" cy="10.699" r="10.699" transform="translate(1055.821 623.446)" fill="#43e0aa"/>
    <circle id="Ellipse_79-2" data-name="Ellipse 79" cx="10.699" cy="10.699" r="10.699" transform="translate(1038.432 501.712)" fill="#43e0aa"/>
    <circle id="Ellipse_80-2" data-name="Ellipse 80" cx="10.699" cy="10.699" r="10.699" transform="translate(1059.831 694.362)" fill="#43e0aa"/>
    <circle id="Ellipse_81-2" data-name="Ellipse 81" cx="10.699" cy="10.699" r="10.699" transform="translate(987.583 666.259)" fill="#43e0aa"/>
    <circle id="Ellipse_82-2" data-name="Ellipse 82" cx="10.699" cy="10.699" r="10.699" transform="translate(1049.132 547.188)" fill="#43e0aa"/>
  </g>
</svg>
