<svg width="32" height="33" viewBox="0 0 32 33" fill="none" xmlns="http://www.w3.org/2000/svg">
<rect x="1" y="1.5" width="30" height="30" rx="15" fill="#EFF2FE"/>
<rect x="1" y="1.5" width="30" height="30" rx="15" stroke="#5063F4" stroke-width="1.35"/>
<path d="M18.6003 15.5004C18.844 15.805 18.8883 16.2234 18.7139 16.5723L18 18L17.461 19L15.5 15.9111L16 15L17 13.5L18.6003 15.5004Z" fill="#5063F4"/>
<path d="M14.1405 24V18.6857L8.5 9H11.7972L15.6751 15.6643L17.5 18.6429V24H14.1405Z" fill="#5063F4"/>
<path d="M20.5 9C20.687 9 20.8702 9.06122 21.0289 9.1767C21.1876 9.29217 21.3153 9.45728 21.3976 9.65325L21.4456 9.78974L21.7954 10.9866L22.822 11.3949C23.0094 11.4692 23.1737 11.6067 23.294 11.7901C23.4143 11.9735 23.4853 12.1944 23.498 12.4249C23.5106 12.6555 23.4643 12.8851 23.365 13.0849C23.2656 13.2847 23.1177 13.4456 22.9399 13.5471L22.822 13.6031L21.7964 14.0114L21.4466 15.2094C21.3828 15.4281 21.2648 15.6197 21.1077 15.76C20.9505 15.9003 20.7611 15.983 20.5636 15.9977C20.3661 16.0123 20.1693 15.9581 19.9982 15.8421C19.8271 15.7261 19.6893 15.5534 19.6024 15.3459L19.5544 15.2094L19.2046 14.0126L18.178 13.6043C17.9906 13.53 17.8263 13.3924 17.706 13.209C17.5857 13.0257 17.5147 12.8047 17.502 12.5742C17.4894 12.3437 17.5357 12.114 17.635 11.9142C17.7344 11.7145 17.8823 11.5536 18.0601 11.452L18.178 11.396L19.2036 10.9878L19.5534 9.78974C19.6208 9.55926 19.7483 9.35918 19.9181 9.21756C20.0878 9.07593 20.2913 8.99985 20.5 9Z" fill="#44E0AA"/>
</svg>
