<svg width="62" height="62" viewBox="0 0 62 62" fill="none" xmlns="http://www.w3.org/2000/svg">
<rect x="1" y="1" width="60" height="60" rx="30" fill="#EFF2FE"/>
<rect x="1" y="1" width="60" height="60" rx="30" stroke="#5063F4" stroke-width="1.35"/>
<path d="M36.6003 29.5004C36.844 29.805 36.8883 30.2234 36.7139 30.5723L35 34L33.922 36L29.9999 29.8222L31 28L33 25L36.6003 29.5004Z" fill="#5063F4"/>
<path d="M27.2811 46V35.3714L16 16H22.5944L30.3502 29.3285L34 35.2857V46H27.2811Z" fill="#5063F4"/>
<path d="M40 16C40.374 16 40.7405 16.1224 41.0578 16.3534C41.3752 16.5843 41.6307 16.9146 41.7952 17.3065L41.8912 17.5795L42.5909 19.9732L44.644 20.7898C45.0188 20.9384 45.3473 21.2135 45.588 21.5802C45.8287 21.947 45.9707 22.3889 45.9959 22.8499C46.0212 23.3109 45.9286 23.7703 45.7299 24.1698C45.5312 24.5694 45.2354 24.8911 44.8799 25.0942L44.644 25.2062L42.5929 26.0228L41.8932 28.4188C41.7656 28.8561 41.5297 29.2394 41.2153 29.52C40.9009 29.8007 40.5222 29.9661 40.1272 29.9953C39.7322 30.0246 39.3386 29.9163 38.9964 29.6842C38.6542 29.4522 38.3787 29.1068 38.2048 28.6918L38.1088 28.4188L37.4091 26.0251L35.356 25.2086C34.9812 25.0599 34.6527 24.7848 34.412 24.4181C34.1713 24.0513 34.0293 23.6094 34.0041 23.1484C33.9788 22.6874 34.0714 22.228 34.2701 21.8285C34.4688 21.4289 34.7646 21.1072 35.1201 20.9041L35.356 20.7921L37.4071 19.9755L38.1068 17.5795C38.2416 17.1185 38.4967 16.7184 38.8362 16.4351C39.1757 16.1519 39.5827 15.9997 40 16Z" fill="#44E0AA"/>
</svg>
