<svg width="47" height="48" viewBox="0 0 47 48" fill="none" xmlns="http://www.w3.org/2000/svg">
<g filter="url(#filter0_d_16638_44050)">
<rect x="6" y="4.5" width="35" height="35" rx="17.5" fill="#5661F6" shape-rendering="crispEdges"/>
<path d="M30.9898 20.9061L17.8648 13.4147C17.6436 13.2906 17.3898 13.2367 17.1373 13.2603C16.8847 13.2838 16.6452 13.3837 16.4508 13.5465C16.2563 13.7094 16.1159 13.9276 16.0484 14.1721C15.9809 14.4166 15.9893 14.6759 16.0726 14.9155L18.4945 21.9834C18.4942 21.986 18.4942 21.9887 18.4945 21.9913C18.4941 21.9938 18.4941 21.9965 18.4945 21.9991L16.0726 29.0827C16.0059 29.2711 15.9854 29.4729 16.0127 29.6709C16.0401 29.869 16.1146 30.0576 16.2299 30.2209C16.3452 30.3842 16.4981 30.5175 16.6756 30.6095C16.8531 30.7016 17.0501 30.7497 17.25 30.7499C17.4669 30.7493 17.68 30.6928 17.8687 30.5858L30.9867 23.0819C31.1802 22.9735 31.3414 22.8156 31.4537 22.6243C31.566 22.4331 31.6254 22.2154 31.6258 21.9936C31.6262 21.7718 31.5676 21.5539 31.456 21.3622C31.3443 21.1706 31.1837 21.0121 30.9906 20.903L30.9898 20.9061ZM17.25 29.4999V29.4928L19.6047 22.6249H24.125C24.2908 22.6249 24.4497 22.559 24.5669 22.4418C24.6841 22.3246 24.75 22.1656 24.75 21.9999C24.75 21.8341 24.6841 21.6751 24.5669 21.5579C24.4497 21.4407 24.2908 21.3749 24.125 21.3749H19.6109L17.2547 14.5092L17.25 14.4999L30.375 21.9866L17.25 29.4999Z" fill="white"/>
</g>
<defs>
<filter id="filter0_d_16638_44050" x="0" y="0.5" width="47" height="47" filterUnits="userSpaceOnUse" color-interpolation-filters="sRGB">
<feFlood flood-opacity="0" result="BackgroundImageFix"/>
<feColorMatrix in="SourceAlpha" type="matrix" values="0 0 0 0 0 0 0 0 0 0 0 0 0 0 0 0 0 0 127 0" result="hardAlpha"/>
<feOffset dy="2"/>
<feGaussianBlur stdDeviation="3"/>
<feComposite in2="hardAlpha" operator="out"/>
<feColorMatrix type="matrix" values="0 0 0 0 0 0 0 0 0 0 0 0 0 0 0 0 0 0 0.1 0"/>
<feBlend mode="normal" in2="BackgroundImageFix" result="effect1_dropShadow_16638_44050"/>
<feBlend mode="normal" in="SourceGraphic" in2="effect1_dropShadow_16638_44050" result="shape"/>
</filter>
</defs>
</svg>
