<svg width="249" height="174" viewBox="0 0 249 174" fill="none" xmlns="http://www.w3.org/2000/svg">
<path d="M240.568 15.3965H24.6128C20.8393 15.3965 17.7803 18.4555 17.7803 22.229V165.481C17.7803 169.255 20.8393 172.314 24.6128 172.314H240.568C244.341 172.314 247.4 169.255 247.4 165.481V22.229C247.4 18.4555 244.341 15.3965 240.568 15.3965Z" fill="#F4F5F6"/>
<path d="M240.592 173.523H24.6127C22.4799 173.523 20.4344 172.676 18.9263 171.168C17.4182 169.66 16.5709 167.614 16.5709 165.482V22.2293C16.5709 20.0965 17.4182 18.051 18.9263 16.5429C20.4344 15.0348 22.4799 14.1875 24.6127 14.1875H240.592C242.724 14.1875 244.77 15.0348 246.278 16.5429C247.786 18.051 248.633 20.0965 248.633 22.2293V165.482C248.633 167.614 247.786 169.66 246.278 171.168C244.77 172.676 242.724 173.523 240.592 173.523ZM24.6127 16.6061C23.1213 16.6061 21.691 17.1985 20.6365 18.2531C19.5819 19.3076 18.9895 20.7379 18.9895 22.2293V165.482C18.9895 166.973 19.5819 168.403 20.6365 169.458C21.691 170.512 23.1213 171.105 24.6127 171.105H240.592C242.083 171.105 243.513 170.512 244.568 169.458C245.622 168.403 246.215 166.973 246.215 165.482V22.2293C246.215 20.7379 245.622 19.3076 244.568 18.2531C243.513 17.1985 242.083 16.6061 240.592 16.6061H24.6127Z" fill="#9CA1AA"/>
<path d="M224.387 1.68359H8.43245C4.65897 1.68359 1.59998 4.7426 1.59998 8.51608V151.768C1.59998 155.542 4.65897 158.601 8.43245 158.601H224.387C228.161 158.601 231.22 155.542 231.22 151.768V8.51608C231.22 4.7426 228.161 1.68359 224.387 1.68359Z" fill="#FDFDFD"/>
<path d="M153.064 115H84.9804C83.3444 115.015 81.7359 114.575 80.3316 113.728C78.9274 112.881 77.7818 111.66 77.0209 110.199C76.26 108.738 75.9131 107.093 76.0185 105.446C76.1238 103.799 76.6774 102.213 77.6182 100.863L111.627 50.9361C112.442 49.7236 113.539 48.731 114.823 48.0448C116.106 47.3587 117.536 47 118.989 47C120.441 47 121.872 47.3587 123.155 48.0448C124.438 48.731 125.536 49.7236 126.351 50.9361L160.382 100.773C161.323 102.124 161.876 103.709 161.982 105.357C162.087 107.004 161.74 108.648 160.979 110.109C160.218 111.57 159.073 112.792 157.668 113.638C156.264 114.485 154.656 114.925 153.02 114.91L153.064 115ZM119.033 51.5195C118.305 51.5184 117.587 51.6979 116.943 52.0422C116.299 52.3865 115.749 52.8851 115.341 53.4942L81.3104 103.421C80.8319 104.099 80.5496 104.897 80.4948 105.727C80.4401 106.557 80.6152 107.386 81.0005 108.122C81.3858 108.857 81.9662 109.47 82.6768 109.892C83.3875 110.314 84.2004 110.529 85.0249 110.512H153.064C153.887 110.525 154.697 110.307 155.404 109.883C156.111 109.46 156.688 108.846 157.071 108.112C157.454 107.377 157.627 106.549 157.571 105.721C157.516 104.893 157.234 104.097 156.756 103.421L122.703 53.4942C122.293 52.882 121.74 52.3814 121.092 52.0369C120.444 51.6925 119.721 51.5147 118.989 51.5195H119.033Z" fill="#5063F4"/>
<path d="M114 96.6155C113.997 96.0336 114.113 95.457 114.34 94.9188C114.555 94.3901 114.879 93.9098 115.292 93.508C115.705 93.1062 116.199 92.7913 116.743 92.583C117.572 92.2407 118.487 92.146 119.371 92.3108C120.255 92.4756 121.069 92.8925 121.708 93.5085C122.122 93.9097 122.447 94.3899 122.66 94.9188C123.113 96.0147 123.113 97.2383 122.66 98.3342C122.447 98.8631 122.122 99.3433 121.708 99.7445C121.29 100.141 120.798 100.455 120.257 100.67C119.13 101.11 117.871 101.11 116.743 100.67C116.199 100.462 115.705 100.147 115.292 99.745C114.879 99.3431 114.555 98.8629 114.34 98.3342C114.11 97.7892 113.994 97.2047 114 96.6155ZM122.162 89.5862H114.839V67H122.162V89.5862Z" fill="#5063F4"/>
<path d="M224.387 159.811H8.40823C6.27542 159.811 4.22996 158.963 2.72183 157.455C1.21371 155.947 0.366455 153.902 0.366455 151.769V8.51638C0.366455 6.38357 1.21371 4.33812 2.72183 2.83C4.22996 1.32187 6.27542 0.474609 8.40823 0.474609H224.387C226.52 0.474609 228.565 1.32187 230.074 2.83C231.582 4.33812 232.429 6.38357 232.429 8.51638V151.769C232.429 153.902 231.582 155.947 230.074 157.455C228.565 158.963 226.52 159.811 224.387 159.811ZM8.40823 2.89319C6.91686 2.89319 5.48658 3.48563 4.43203 4.54018C3.37747 5.59474 2.78503 7.02502 2.78503 8.51638V151.769C2.78503 153.26 3.37747 154.69 4.43203 155.745C5.48658 156.799 6.91686 157.392 8.40823 157.392H224.387C225.879 157.392 227.309 156.799 228.363 155.745C229.418 154.69 230.01 153.26 230.01 151.769V8.51638C230.01 7.02502 229.418 5.59474 228.363 4.54018C227.309 3.48563 225.879 2.89319 224.387 2.89319H8.40823Z" fill="#5063F4"/>
<path d="M66.904 126.372H82.388V130.46H72.028V134.128H81.38V138.188L72.028 138.216V141.912H82.668V146H66.904V126.372ZM103.383 146H97.5865L94.7305 140.568H94.6185H90.9225V146H85.7985V126.372H94.6185C99.8265 126.372 102.795 128.892 102.795 133.26C102.795 136.228 101.563 138.412 99.2945 139.588L103.383 146ZM90.9225 130.46V136.48H94.6465C96.7185 136.48 97.9225 135.416 97.9225 133.428C97.9225 131.496 96.7185 130.46 94.6465 130.46H90.9225ZM123.644 146H117.848L114.992 140.568H114.88H111.184V146H106.06V126.372H114.88C120.088 126.372 123.056 128.892 123.056 133.26C123.056 136.228 121.824 138.412 119.556 139.588L123.644 146ZM111.184 130.46V136.48H114.908C116.98 136.48 118.184 135.416 118.184 133.428C118.184 131.496 116.98 130.46 114.908 130.46H111.184ZM135.674 126.232C141.75 126.232 146.286 130.488 146.286 136.172C146.286 141.912 141.75 146.224 135.674 146.224C129.598 146.224 125.062 141.912 125.062 136.172C125.062 130.46 129.598 126.232 135.674 126.232ZM135.73 130.6C132.79 130.6 130.326 133.008 130.326 136.2C130.326 139.392 132.818 141.856 135.73 141.856C138.67 141.856 141.022 139.392 141.022 136.2C141.022 133.008 138.67 130.6 135.73 130.6ZM166.41 146H160.614L157.758 140.568H157.646H153.95V146H148.826V126.372H157.646C162.854 126.372 165.822 128.892 165.822 133.26C165.822 136.228 164.59 138.412 162.322 139.588L166.41 146ZM153.95 130.46V136.48H157.674C159.746 136.48 160.95 135.416 160.95 133.428C160.95 131.496 159.746 130.46 157.674 130.46H153.95Z" fill="#9CA1AA"/>
<path d="M8.40827 1.68359H224.387C225.285 1.68359 226.173 1.86033 227.002 2.20369C227.831 2.54705 228.584 3.05033 229.219 3.68478C229.853 4.31924 230.356 5.07244 230.7 5.9014C231.043 6.73035 231.22 7.61882 231.22 8.51608V22.302H1.59998V8.51608C1.59996 6.70817 2.31649 4.97396 3.5926 3.69331C4.86871 2.41267 6.60038 1.68999 8.40827 1.68359Z" fill="#EFF2FE"/>
<path d="M231.22 23.4995H1.59991C1.27919 23.4995 0.971602 23.3721 0.744817 23.1453C0.518031 22.9185 0.390625 22.6109 0.390625 22.2902V8.51638C0.390615 6.38775 1.23454 4.34596 2.73744 2.83853C4.24034 1.3311 6.27959 0.481011 8.40821 0.474609H224.387C226.52 0.474609 228.565 1.32187 230.074 2.83C231.582 4.33812 232.429 6.38357 232.429 8.51638V22.2902C232.429 22.6109 232.302 22.9185 232.075 23.1453C231.848 23.3721 231.54 23.4995 231.22 23.4995ZM2.8092 21.0809H230.01V8.51638C230.01 7.02502 229.418 5.59474 228.363 4.54018C227.309 3.48563 225.879 2.89319 224.387 2.89319H8.40821C6.91684 2.89319 5.48656 3.48563 4.43201 4.54018C3.37745 5.59474 2.78501 7.02502 2.78501 8.51638L2.8092 21.0809Z" fill="#5063F4"/>
<path d="M15.5188 15.3966C17.4022 15.3966 18.929 13.8698 18.929 11.9864C18.929 10.103 17.4022 8.57617 15.5188 8.57617C13.6354 8.57617 12.1086 10.103 12.1086 11.9864C12.1086 13.8698 13.6354 15.3966 15.5188 15.3966Z" fill="#FF2E2E"/>
<path d="M15.5188 16.6062C14.6036 16.6061 13.709 16.3343 12.9486 15.825C12.1881 15.3158 11.5961 14.5922 11.2475 13.746C10.899 12.8998 10.8097 11.9691 10.9909 11.072C11.1721 10.175 11.6157 9.35193 12.2653 8.70735C12.915 8.06277 13.7415 7.6257 14.64 7.45157C15.5385 7.27745 16.4684 7.37412 17.3118 7.72933C18.1553 8.08453 18.8742 8.68227 19.3774 9.4467C19.8806 10.2111 20.1454 11.1078 20.1382 12.023C20.1255 13.2408 19.6336 14.4047 18.769 15.2625C17.9044 16.1203 16.7367 16.603 15.5188 16.6062ZM15.5188 9.78577C15.085 9.78583 14.661 9.91404 14.2999 10.1543C13.9387 10.3946 13.6567 10.7362 13.4891 11.1363C13.3215 11.5363 13.2758 11.977 13.3579 12.4029C13.4399 12.8288 13.6459 13.221 13.9501 13.5302C14.2543 13.8394 14.6431 14.0518 15.0676 14.1408C15.4921 14.2297 15.9334 14.1913 16.3362 14.0303C16.7389 13.8692 17.0851 13.5928 17.3312 13.2357C17.5774 12.8785 17.7125 12.4566 17.7197 12.023C17.7229 11.7313 17.6684 11.4419 17.5593 11.1714C17.4503 10.9009 17.2889 10.6547 17.0844 10.4467C16.8798 10.2388 16.6362 10.0734 16.3675 9.95999C16.0989 9.84655 15.8104 9.78734 15.5188 9.78577Z" fill="#5063F4"/>
<path d="M28.4341 15.3966C30.3175 15.3966 31.8443 13.8698 31.8443 11.9864C31.8443 10.103 30.3175 8.57617 28.4341 8.57617C26.5507 8.57617 25.0239 10.103 25.0239 11.9864C25.0239 13.8698 26.5507 15.3966 28.4341 15.3966Z" fill="#F4B63C"/>
<path d="M28.434 16.6062C27.5189 16.6061 26.6243 16.3343 25.8639 15.825C25.1034 15.3158 24.5114 14.5922 24.1628 13.746C23.8143 12.8998 23.7249 11.9691 23.9062 11.072C24.0874 10.175 24.5309 9.35193 25.1806 8.70735C25.8303 8.06277 26.6568 7.6257 27.5553 7.45157C28.4537 7.27745 29.3837 7.37412 30.2271 7.72933C31.0706 8.08453 31.7895 8.68227 32.2927 9.4467C32.7959 10.2111 33.0607 11.1078 33.0535 12.023C33.0439 13.2418 32.553 14.4075 31.6877 15.266C30.8225 16.1245 29.6529 16.6062 28.434 16.6062ZM28.434 9.78577C28.0003 9.78583 27.5762 9.91404 27.2151 10.1543C26.854 10.3946 26.572 10.7362 26.4044 11.1363C26.2368 11.5363 26.1911 11.977 26.2731 12.4029C26.3552 12.8288 26.5612 13.221 26.8654 13.5302C27.1696 13.8394 27.5583 14.0518 27.9829 14.1408C28.4074 14.2297 28.8487 14.1913 29.2515 14.0303C29.6542 13.8692 30.0004 13.5928 30.2465 13.2357C30.4927 12.8785 30.6278 12.4566 30.6349 12.023C30.6398 11.7309 30.5864 11.4408 30.4779 11.1696C30.3695 10.8983 30.2081 10.6514 30.0033 10.4432C29.7984 10.2349 29.5542 10.0696 29.2848 9.9567C29.0153 9.84383 28.7261 9.78573 28.434 9.78577Z" fill="#5063F4"/>
<path d="M41.3613 15.3966C43.2447 15.3966 44.7715 13.8698 44.7715 11.9864C44.7715 10.103 43.2447 8.57617 41.3613 8.57617C39.4779 8.57617 37.951 10.103 37.951 11.9864C37.951 13.8698 39.4779 15.3966 41.3613 15.3966Z" fill="#2A9928"/>
<path d="M41.3613 16.6062C40.4461 16.6061 39.5515 16.3343 38.7911 15.825C38.0307 15.3158 37.4386 14.5922 37.0901 13.746C36.7415 12.8998 36.6522 11.9691 36.8334 11.072C37.0146 10.175 37.4582 9.35193 38.1079 8.70735C38.7576 8.06277 39.584 7.6257 40.4825 7.45157C41.381 7.27745 42.3109 7.37412 43.1544 7.72933C43.9978 8.08453 44.7167 8.68227 45.2199 9.4467C45.7231 10.2111 45.988 11.1078 45.9808 12.023C45.9712 13.2418 45.4803 14.4075 44.615 15.266C43.7497 16.1245 42.5802 16.6062 41.3613 16.6062ZM41.3613 9.78577C40.9275 9.78583 40.5035 9.91404 40.1424 10.1543C39.7813 10.3946 39.4992 10.7362 39.3316 11.1363C39.164 11.5363 39.1184 11.977 39.2004 12.4029C39.2824 12.8288 39.4885 13.221 39.7926 13.5302C40.0968 13.8394 40.4856 14.0518 40.9101 14.1408C41.3346 14.2297 41.776 14.1913 42.1787 14.0303C42.5814 13.8692 42.9276 13.5928 43.1738 13.2357C43.4199 12.8785 43.555 12.4566 43.5622 12.023C43.5654 11.7313 43.5109 11.4419 43.4019 11.1714C43.2928 10.9009 43.1314 10.6547 42.9269 10.4467C42.7224 10.2388 42.4788 10.0734 42.2101 9.95999C41.9414 9.84655 41.6529 9.78734 41.3613 9.78577Z" fill="#5063F4"/>
<path d="M53.1519 43.2233H15.5189C15.1981 43.2233 14.8905 43.0959 14.6638 42.8691C14.437 42.6423 14.3096 42.3347 14.3096 42.014C14.3096 41.6933 14.437 41.3857 14.6638 41.1589C14.8905 40.9321 15.1981 40.8047 15.5189 40.8047H53.1519C53.4726 40.8047 53.7802 40.9321 54.007 41.1589C54.2338 41.3857 54.3612 41.6933 54.3612 42.014C54.3612 42.3347 54.2338 42.6423 54.007 42.8691C53.7802 43.0959 53.4726 43.2233 53.1519 43.2233Z" fill="#9CA1AA"/>
<path d="M53.1519 59.4635H15.5189C15.1981 59.4635 14.8905 59.3361 14.6638 59.1093C14.437 58.8825 14.3096 58.5749 14.3096 58.2542C14.3096 57.9335 14.437 57.6259 14.6638 57.3991C14.8905 57.1723 15.1981 57.0449 15.5189 57.0449H53.1519C53.4726 57.0449 53.7802 57.1723 54.007 57.3991C54.2338 57.6259 54.3612 57.9335 54.3612 58.2542C54.3612 58.5749 54.2338 58.8825 54.007 59.1093C53.7802 59.3361 53.4726 59.4635 53.1519 59.4635Z" fill="#9CA1AA"/>
<path d="M53.1519 75.692H15.5189C15.1981 75.692 14.8905 75.5646 14.6638 75.3378C14.437 75.111 14.3096 74.8034 14.3096 74.4827C14.3096 74.162 14.437 73.8544 14.6638 73.6276C14.8905 73.4008 15.1981 73.2734 15.5189 73.2734H53.1519C53.4726 73.2734 53.7802 73.4008 54.007 73.6276C54.2338 73.8544 54.3612 74.162 54.3612 74.4827C54.3612 74.8034 54.2338 75.111 54.007 75.3378C53.7802 75.5646 53.4726 75.692 53.1519 75.692Z" fill="#9CA1AA"/>
<path d="M53.1519 91.9205H15.5189C15.1981 91.9205 14.8905 91.7931 14.6638 91.5663C14.437 91.3395 14.3096 91.032 14.3096 90.7112C14.3096 90.3905 14.437 90.0829 14.6638 89.8561C14.8905 89.6294 15.1981 89.502 15.5189 89.502H53.1519C53.4726 89.502 53.7802 89.6294 54.007 89.8561C54.2338 90.0829 54.3612 90.3905 54.3612 90.7112C54.3612 91.032 54.2338 91.3395 54.007 91.5663C53.7802 91.7931 53.4726 91.9205 53.1519 91.9205Z" fill="#9CA1AA"/>
<path d="M53.1519 108.149H15.5189C15.1981 108.149 14.8905 108.022 14.6638 107.795C14.437 107.568 14.3096 107.26 14.3096 106.94C14.3096 106.619 14.437 106.311 14.6638 106.085C14.8905 105.858 15.1981 105.73 15.5189 105.73H53.1519C53.4726 105.73 53.7802 105.858 54.007 106.085C54.2338 106.311 54.3612 106.619 54.3612 106.94C54.3612 107.26 54.2338 107.568 54.007 107.795C53.7802 108.022 53.4726 108.149 53.1519 108.149Z" fill="#9CA1AA"/>
<path d="M53.1519 124.38H15.5189C15.1981 124.38 14.8905 124.252 14.6638 124.025C14.437 123.799 14.3096 123.491 14.3096 123.17C14.3096 122.85 14.437 122.542 14.6638 122.315C14.8905 122.088 15.1981 121.961 15.5189 121.961H53.1519C53.4726 121.961 53.7802 122.088 54.007 122.315C54.2338 122.542 54.3612 122.85 54.3612 123.17C54.3612 123.491 54.2338 123.799 54.007 124.025C53.7802 124.252 53.4726 124.38 53.1519 124.38Z" fill="#9CA1AA"/>
<path d="M38.3502 140.608H15.5189C15.1981 140.608 14.8905 140.481 14.6638 140.254C14.437 140.027 14.3096 139.719 14.3096 139.399C14.3096 139.078 14.437 138.77 14.6638 138.544C14.8905 138.317 15.1981 138.189 15.5189 138.189H38.3502C38.6709 138.189 38.9785 138.317 39.2053 138.544C39.4321 138.77 39.5595 139.078 39.5595 139.399C39.5595 139.719 39.4321 140.027 39.2053 140.254C38.9785 140.481 38.6709 140.608 38.3502 140.608Z" fill="#9CA1AA"/>
<path d="M216.237 41.0475H183.211C182.89 41.0475 182.583 40.9201 182.356 40.6933C182.129 40.4665 182.002 40.1589 182.002 39.8382C182.002 39.5175 182.129 39.2099 182.356 38.9831C182.583 38.7563 182.89 38.6289 183.211 38.6289H216.237C216.557 38.6289 216.865 38.7563 217.092 38.9831C217.319 39.2099 217.446 39.5175 217.446 39.8382C217.446 40.1589 217.319 40.4665 217.092 40.6933C216.865 40.9201 216.557 41.0475 216.237 41.0475Z" fill="#9CA1AA"/>
<path d="M216.237 55.7155H183.211C182.89 55.7155 182.583 55.588 182.356 55.3613C182.129 55.1345 182.002 54.8269 182.002 54.5062C182.002 54.1854 182.129 53.8779 182.356 53.6511C182.583 53.4243 182.89 53.2969 183.211 53.2969H216.237C216.557 53.2969 216.865 53.4243 217.092 53.6511C217.319 53.8779 217.446 54.1854 217.446 54.5062C217.446 54.8269 217.319 55.1345 217.092 55.3613C216.865 55.588 216.557 55.7155 216.237 55.7155Z" fill="#9CA1AA"/>
<path d="M216.237 70.358H194.796C194.475 70.358 194.168 70.2306 193.941 70.0038C193.714 69.7771 193.587 69.4695 193.587 69.1487C193.587 68.828 193.714 68.5204 193.941 68.2936C194.168 68.0669 194.475 67.9395 194.796 67.9395H216.237C216.557 67.9395 216.865 68.0669 217.092 68.2936C217.319 68.5204 217.446 68.828 217.446 69.1487C217.446 69.4695 217.319 69.7771 217.092 70.0038C216.865 70.2306 216.557 70.358 216.237 70.358Z" fill="#9CA1AA"/>
</svg>
