<svg width="30" height="31" viewBox="0 0 30 31" fill="none" xmlns="http://www.w3.org/2000/svg">
<g id="COCO/Duotone/Setting - 3">
<path id="Vector" fill-rule="evenodd" clip-rule="evenodd" d="M14.0817 7.3468L13.5004 7.35097L7.34521 11.5562L7.34938 12.4187L13.5035 16.5468L14.0765 16.551L20.4223 12.4228L20.4254 11.552L14.0817 7.3468ZM8.56813 11.9822L13.7983 8.4093L19.19 11.9822L13.7983 15.4906L8.56813 11.9822ZM13.5046 19.151L7.42334 15.0728H9.29313L13.7983 18.0937L18.4431 15.0728H20.3525L19.5192 15.6145C18.5723 15.518 17.6209 15.7484 16.8232 16.2675C16.0254 16.7865 15.4292 17.5629 15.1338 18.4676L14.0785 19.1551L13.5046 19.151ZM14.9348 19.9593L13.7994 20.6989L9.29209 17.677H7.42334L13.5046 21.7551L14.0775 21.7593L15.14 21.0687C15.0215 20.7099 14.9524 20.3367 14.9348 19.9593ZM17.3608 17.1624C17.7016 16.9226 18.0869 16.7533 18.4941 16.6646C18.9013 16.5759 19.3221 16.5695 19.7318 16.6458C20.1414 16.7221 20.5317 16.8796 20.8796 17.109C21.2275 17.3384 21.526 17.635 21.7576 17.9815C21.9892 18.328 22.1491 18.7172 22.228 19.1264C22.3068 19.5356 22.3031 19.9565 22.2169 20.3642C22.1307 20.7719 21.9639 21.1583 21.7261 21.5005C21.4884 21.8428 21.1847 22.1341 20.8327 22.3572C20.1438 22.794 19.3113 22.9441 18.5132 22.7754C17.7151 22.6067 17.0146 22.1326 16.5613 21.4544C16.108 20.7762 15.9379 19.9476 16.0873 19.1456C16.2367 18.3437 16.6937 17.6319 17.3608 17.1624ZM19.1296 21.1385L20.9942 18.652L20.1608 18.027L18.6192 20.0833L17.7067 19.3541L17.0567 20.1666L18.3879 21.2322L19.1296 21.1385Z" fill="#F8FAFF"/>
<path id="Vector_2" d="M4.1911 12.1291C3.60297 14.6364 3.60297 17.2457 4.1911 19.753C5.00547 23.2248 7.71626 25.9356 11.188 26.7499C13.6953 27.3381 16.3047 27.3381 18.812 26.7499C22.2837 25.9356 24.9945 23.2248 25.8089 19.753C26.397 17.2457 26.397 14.6364 25.8089 12.1291C24.9945 8.6573 22.2837 5.94651 18.812 5.13214C16.3047 4.54401 13.6953 4.54401 11.188 5.13214C7.71626 5.9465 5.00547 8.6573 4.1911 12.1291Z" fill="#F8FAFF" fill-opacity="0.15" stroke="#F8FAFF" stroke-width="1.35"/>
</g>
</svg>
