<svg width="12" height="13" viewBox="0 0 12 13" fill="none" xmlns="http://www.w3.org/2000/svg">
<g id="lets-icons:check-fill">
<path id="Vector" fill-rule="evenodd" clip-rule="evenodd" d="M6 11C6.59095 11 7.17611 10.8836 7.72208 10.6575C8.26804 10.4313 8.76412 10.0998 9.18198 9.68198C9.59984 9.26412 9.93131 8.76804 10.1575 8.22208C10.3836 7.67611 10.5 7.09095 10.5 6.5C10.5 5.90905 10.3836 5.32389 10.1575 4.77792C9.93131 4.23196 9.59984 3.73588 9.18198 3.31802C8.76412 2.90016 8.26804 2.56869 7.72208 2.34254C7.17611 2.1164 6.59095 2 6 2C4.80653 2 3.66193 2.47411 2.81802 3.31802C1.97411 4.16193 1.5 5.30653 1.5 6.5C1.5 7.69347 1.97411 8.83807 2.81802 9.68198C3.66193 10.5259 4.80653 11 6 11ZM5.884 8.32L8.384 5.32L7.616 4.68L5.466 7.2595L4.3535 6.1465L3.6465 6.8535L5.1465 8.3535L5.5335 8.7405L5.884 8.32Z" fill="#44E0AA"/>
</g>
</svg>
