<svg width="40" height="40" viewBox="0 0 40 40" fill="none" xmlns="http://www.w3.org/2000/svg">
<g id="COCO/Duotone/Setting - 5">
<path id="Vector" d="M5.58807 14.9174C6.6739 10.2883 10.2883 6.67395 14.9173 5.58813C18.2604 4.80396 21.7395 4.80396 25.0826 5.58813C29.7116 6.67395 33.326 10.2883 34.4118 14.9174C35.196 18.2604 35.196 21.7396 34.4118 25.0826C33.326 29.7117 29.7116 33.326 25.0825 34.4119C21.7395 35.196 18.2604 35.196 14.9173 34.4119C10.2883 33.326 6.6739 29.7117 5.58807 25.0826C4.8039 21.7396 4.8039 18.2604 5.58807 14.9174Z" fill="#EFF2FE" stroke="#5063F4" stroke-width="1.35" stroke-linecap="round"/>
<path id="Vector_2" fill-rule="evenodd" clip-rule="evenodd" d="M20.125 15.1562C20.4399 15.1562 20.742 15.0311 20.9647 14.8084C21.1874 14.5857 21.3125 14.2837 21.3125 13.9688C21.3125 13.6538 21.1874 13.3518 20.9647 13.1291C20.742 12.9064 20.4399 12.7812 20.125 12.7812C19.8101 12.7812 19.508 12.9064 19.2853 13.1291C19.0626 13.3518 18.9375 13.6538 18.9375 13.9688C18.9375 14.2837 19.0626 14.5857 19.2853 14.8084C19.508 15.0311 19.8101 15.1562 20.125 15.1562ZM20.125 11C20.8094 10.9999 21.4728 11.2362 22.003 11.669C22.5331 12.1018 22.8975 12.7044 23.0344 13.375H26.0625C26.3774 13.375 26.6795 13.5001 26.9022 13.7228C27.1249 13.9455 27.25 14.2476 27.25 14.5625V28.8125C27.25 29.1274 27.1249 29.4295 26.9022 29.6522C26.6795 29.8749 26.3774 30 26.0625 30H14.1875C13.8726 30 13.5705 29.8749 13.3478 29.6522C13.1251 29.4295 13 29.1274 13 28.8125V14.5625C13 14.2476 13.1251 13.9455 13.3478 13.7228C13.5705 13.5001 13.8726 13.375 14.1875 13.375H17.2156C17.3525 12.7044 17.7169 12.1018 18.247 11.669C18.7772 11.2362 19.4406 10.9999 20.125 11ZM18.9375 16.9375H23.0938V15.1562H25.4688V28.2188H14.7812V15.1562H17.1562V16.9375H18.9375ZM23.1294 20.8325C23.2169 20.751 23.2871 20.6526 23.3357 20.5434C23.3844 20.4341 23.4106 20.3162 23.4127 20.1966C23.4148 20.077 23.3928 19.9583 23.348 19.8474C23.3032 19.7365 23.2366 19.6357 23.152 19.5511C23.0674 19.4666 22.9667 19.3999 22.8558 19.3551C22.7449 19.3103 22.6261 19.2883 22.5065 19.2904C22.3869 19.2925 22.269 19.3187 22.1597 19.3674C22.0505 19.4161 21.9522 19.4862 21.8706 19.5737L19.5312 21.9131L18.9731 21.355C18.8043 21.1977 18.581 21.112 18.3503 21.1161C18.1195 21.1202 17.8994 21.2136 17.7362 21.3768C17.573 21.54 17.4796 21.7601 17.4755 21.9909C17.4714 22.2216 17.5571 22.4449 17.7144 22.6137L18.9019 23.8012C19.0689 23.968 19.2952 24.0617 19.5312 24.0617C19.7673 24.0617 19.9936 23.968 20.1606 23.8012L23.1294 20.8325Z" fill="#5063F4"/>
</g>
</svg>
