<svg width="40" height="40" viewBox="0 0 40 40" fill="none" xmlns="http://www.w3.org/2000/svg">
<path d="M5.58813 14.9174C6.67396 10.2883 10.2883 6.67395 14.9174 5.58813C18.2604 4.80396 21.7396 4.80396 25.0826 5.58813C29.7117 6.67395 33.3261 10.2884 34.4119 14.9174C35.196 18.2604 35.196 21.7396 34.4119 25.0826C33.3261 29.7117 29.7117 33.3261 25.0826 34.4119C21.7396 35.1961 18.2604 35.1961 14.9174 34.4119C10.2884 33.3261 6.67396 29.7117 5.58813 25.0826C4.80396 21.7396 4.80396 18.2604 5.58813 14.9174Z" fill="#EFF2FE" stroke="#5063F4" stroke-width="1.35"/>
<path d="M19.9586 19.2083C21.7996 19.2083 23.292 17.7159 23.292 15.875C23.292 14.034 21.7996 12.5416 19.9586 12.5416C18.1177 12.5416 16.6253 14.034 16.6253 15.875C16.6253 17.7159 18.1177 19.2083 19.9586 19.2083Z" fill="#5063F4"/>
<path d="M26.6253 25.4584C26.6253 27.5292 26.6253 29.2084 19.9586 29.2084C13.2919 29.2084 13.2919 27.5292 13.2919 25.4584C13.2919 23.3875 16.2769 21.7084 19.9586 21.7084C23.6403 21.7084 26.6253 23.3875 26.6253 25.4584Z" fill="#5063F4"/>
</svg>
