<svg width="30" height="31" viewBox="0 0 30 31" fill="none" xmlns="http://www.w3.org/2000/svg">
<g id="COCO/Duotone/Menu">
<path id="Vector" d="M21.7882 10.0736C21.6091 9.95773 21.4043 9.88764 21.1918 9.86948C20.9793 9.85131 20.7656 9.88563 20.5695 9.96941L14.1424 12.5007C13.9902 12.5626 13.8275 12.5944 13.6632 12.5944H9.54862C9.20329 12.5944 8.8721 12.7316 8.62791 12.9758C8.38372 13.22 8.24654 13.5512 8.24654 13.8965V14.0007H6.94446V17.1257H8.24654V17.2611C8.2547 17.601 8.39548 17.9242 8.63879 18.1617C8.8821 18.3991 9.20864 18.532 9.54862 18.5319L11.1111 21.8444C11.2169 22.0675 11.3835 22.2562 11.5917 22.3888C11.7999 22.5215 12.0413 22.5928 12.2882 22.5944H12.9445C13.288 22.5917 13.6165 22.4533 13.8584 22.2094C14.1004 21.9655 14.2361 21.6359 14.2361 21.2923V18.6569L20.5695 21.1882C20.7252 21.2502 20.8914 21.282 21.059 21.2819C21.3192 21.2777 21.5725 21.1981 21.7882 21.0527C21.9595 20.9371 22.1009 20.7823 22.2005 20.6011C22.3001 20.42 22.3552 20.2177 22.3611 20.0111V11.1465C22.3602 10.9345 22.3075 10.726 22.2076 10.539C22.1078 10.3521 21.9638 10.1923 21.7882 10.0736ZM12.934 13.8965V17.2611H9.54862V13.8965H12.934ZM12.934 21.2923H12.2778L10.9965 18.5319H12.934V21.2923ZM14.6215 17.4173C14.4979 17.3541 14.3689 17.3018 14.2361 17.2611V13.8236C14.3676 13.7964 14.4966 13.7581 14.6215 13.709L21.059 11.1465V19.9798L14.6215 17.4173ZM22.3924 14.2611V16.8652C22.7377 16.8652 23.0689 16.7281 23.3131 16.4839C23.5573 16.2397 23.6945 15.9085 23.6945 15.5632C23.6945 15.2178 23.5573 14.8866 23.3131 14.6425C23.0689 14.3983 22.7377 14.2611 22.3924 14.2611Z" fill="#F8FAFF"/>
<path id="Vector_2" d="M4.19097 12.1294C5.00534 8.65766 7.71614 5.94687 11.1879 5.1325C13.6952 4.54437 16.3046 4.54437 18.8118 5.1325C22.2836 5.94687 24.9944 8.65767 25.8088 12.1295C26.3969 14.6367 26.3969 17.2461 25.8088 19.7534C24.9944 23.2251 22.2836 25.9359 18.8118 26.7503C16.3046 27.3384 13.6952 27.3384 11.1879 26.7503C7.71614 25.9359 5.00535 23.2252 4.19097 19.7534C3.60285 17.2461 3.60285 14.6367 4.19097 12.1294Z" fill="#F8FAFF" fill-opacity="0.15" stroke="#F8FAFF" stroke-width="1.35" stroke-linecap="round"/>
</g>
</svg>
