<svg width="40" height="40" viewBox="0 0 40 40" fill="none" xmlns="http://www.w3.org/2000/svg">
<path d="M5.58813 14.9174C6.67396 10.2883 10.2883 6.67395 14.9174 5.58813C18.2604 4.80396 21.7396 4.80396 25.0826 5.58813C29.7117 6.67395 33.3261 10.2884 34.4119 14.9174C35.196 18.2604 35.196 21.7396 34.4119 25.0826C33.3261 29.7117 29.7117 33.3261 25.0826 34.4119C21.7396 35.1961 18.2604 35.1961 14.9174 34.4119C10.2884 33.3261 6.67396 29.7117 5.58813 25.0826C4.80396 21.7396 4.80396 18.2604 5.58813 14.9174Z" fill="#EFF2FE" stroke="#5063F4" stroke-width="1.35"/>
<path d="M25.792 12.5415C26.234 12.5415 26.6579 12.7171 26.9705 13.0297C27.283 13.3422 27.4586 13.7661 27.4586 14.2082V24.2082C27.4586 24.6502 27.283 25.0741 26.9705 25.3867C26.6579 25.6992 26.234 25.8748 25.792 25.8748H24.1253V27.5415C24.1253 27.9835 23.9497 28.4075 23.6371 28.72C23.3246 29.0326 22.9006 29.2082 22.4586 29.2082H14.1253C13.6833 29.2082 13.2593 29.0326 12.9468 28.72C12.6342 28.4075 12.4586 27.9835 12.4586 27.5415V17.5415C12.4586 17.0995 12.6342 16.6756 12.9468 16.363C13.2593 16.0504 13.6833 15.8748 14.1253 15.8748H15.792V14.2082C15.792 13.7661 15.9675 13.3422 16.2801 13.0297C16.5927 12.7171 17.0166 12.5415 17.4586 12.5415H25.792ZM22.4586 17.5415H14.1253V27.5415H22.4586V17.5415ZM18.292 23.3748C18.513 23.3748 18.7249 23.4626 18.8812 23.6189C19.0375 23.7752 19.1253 23.9872 19.1253 24.2082C19.1253 24.4292 19.0375 24.6411 18.8812 24.7974C18.7249 24.9537 18.513 25.0415 18.292 25.0415H16.6253C16.4043 25.0415 16.1923 24.9537 16.036 24.7974C15.8797 24.6411 15.792 24.4292 15.792 24.2082C15.792 23.9872 15.8797 23.7752 16.036 23.6189C16.1923 23.4626 16.4043 23.3748 16.6253 23.3748H18.292ZM25.792 14.2082H17.4586V15.8748H22.4586C22.9006 15.8748 23.3246 16.0504 23.6371 16.363C23.9497 16.6756 24.1253 17.0995 24.1253 17.5415V24.2082H25.792V14.2082ZM19.9586 20.0415C20.171 20.0417 20.3753 20.1231 20.5298 20.2689C20.6842 20.4147 20.7771 20.614 20.7896 20.826C20.802 21.038 20.7331 21.2468 20.5967 21.4097C20.4604 21.5726 20.267 21.6773 20.0561 21.7023L19.9586 21.7082H16.6253C16.4129 21.7079 16.2086 21.6266 16.0541 21.4808C15.8997 21.335 15.8068 21.1357 15.7943 20.9237C15.7819 20.7116 15.8508 20.5029 15.9872 20.34C16.1235 20.1771 16.3169 20.0724 16.5278 20.0473L16.6253 20.0415H19.9586Z" fill="#5063F4"/>
</svg>
