<svg width="32" height="32" viewBox="0 0 32 32" fill="none" xmlns="http://www.w3.org/2000/svg">
<path d="M1.58813 10.9174C2.67396 6.28834 6.28835 2.67395 10.9174 1.58813C14.2604 0.803958 17.7396 0.803957 21.0826 1.58813C25.7117 2.67395 29.326 6.28835 30.4119 10.9174C31.196 14.2604 31.196 17.7396 30.4119 21.0826C29.326 25.7117 25.7117 29.326 21.0826 30.4119C17.7396 31.196 14.2604 31.196 10.9174 30.4119C6.28835 29.326 2.67396 25.7117 1.58813 21.0826C0.803957 17.7396 0.803957 14.2604 1.58813 10.9174Z" fill="#EFF2FE" stroke="#5063F4" stroke-width="1.35" stroke-linecap="round"/>
<path d="M10.1745 11.7585H22.8412V13.3418H10.1745V11.7585ZM11.7578 8.5918H21.2578V10.1751H11.7578V8.5918ZM22.8333 14.9172H10.1666C9.74666 14.9172 9.34393 15.084 9.047 15.381C8.75007 15.6779 8.58325 16.0806 8.58325 16.5005V22.8339C8.58325 23.2538 8.75007 23.6565 9.047 23.9535C9.34393 24.2504 9.74666 24.4172 10.1666 24.4172H22.8333C23.2532 24.4172 23.6559 24.2504 23.9528 23.9535C24.2498 23.6565 24.4166 23.2538 24.4166 22.8339V16.5005C24.4166 16.0806 24.2498 15.6779 23.9528 15.381C23.6559 15.084 23.2532 14.9172 22.8333 14.9172ZM15.1541 22.8339L12.5416 20.2689L13.6499 19.1605L15.1541 20.6647L19.3499 16.4689L20.4583 17.5772L15.1541 22.8339Z" fill="#5063F4"/>
</svg>
