<svg width="25" height="26" viewBox="0 0 25 26" fill="none" xmlns="http://www.w3.org/2000/svg">
<g id="COCO/Duotone/Setting - 5" clip-path="url(#clip0_11779_46693)">
<path id="Vector" d="M1.4411 9.10601C2.25547 5.63423 4.96626 2.92343 8.43804 2.10906C10.9453 1.52094 13.5547 1.52094 16.062 2.10906C19.5337 2.92343 22.2445 5.63423 23.0589 9.10601C23.647 11.6133 23.647 14.2226 23.0589 16.7299C22.2445 20.2017 19.5337 22.9125 16.062 23.7269C13.5547 24.315 10.9453 24.315 8.43804 23.7269C4.96626 22.9125 2.25547 20.2017 1.4411 16.7299C0.852968 14.2227 0.852968 11.6133 1.4411 9.10601Z" fill="#FDFDFD" stroke="#5063F4" stroke-width="1.35" stroke-linecap="round"/>
<path id="Vector_2" d="M17.4947 11.0072L16.7242 12.1662C17.0958 12.9074 17.2777 13.7292 17.2536 14.558C17.2296 15.3867 17.0003 16.1966 16.5863 16.915H7.90323C7.36518 15.9816 7.14223 14.8997 7.26743 13.8296C7.39264 12.7595 7.85932 11.7583 8.5983 10.9743C9.33729 10.1903 10.3092 9.66532 11.37 9.47716C12.4309 9.28899 13.5241 9.44767 14.4876 9.92967L15.6466 9.15909C14.4666 8.40243 13.0669 8.06337 11.6715 8.19614C10.276 8.32891 8.9654 8.92585 7.94927 9.89146C6.93314 10.8571 6.27021 12.1356 6.06651 13.5224C5.86281 14.9093 6.13012 16.3245 6.82567 17.5415C6.935 17.7308 7.09199 17.8883 7.28102 17.9982C7.47006 18.1081 7.68457 18.1666 7.90323 18.168H16.5801C16.8008 18.1688 17.0179 18.1114 17.2094 18.0013C17.4008 17.8913 17.5598 17.7327 17.6701 17.5415C18.2474 16.5416 18.5371 15.4016 18.5072 14.2474C18.4774 13.0932 18.1291 11.9697 17.501 11.001L17.4947 11.0072ZM11.3614 15.2924C11.4778 15.4089 11.616 15.5013 11.7681 15.5644C11.9202 15.6274 12.0833 15.6599 12.2479 15.6599C12.4126 15.6599 12.5756 15.6274 12.7277 15.5644C12.8798 15.5013 13.018 15.4089 13.1344 15.2924L16.6803 9.97352L11.3614 13.5194C11.2449 13.6358 11.1525 13.774 11.0895 13.9261C11.0264 14.0782 10.994 14.2413 10.994 14.4059C10.994 14.5706 11.0264 14.7336 11.0895 14.8857C11.1525 15.0378 11.2449 15.176 11.3614 15.2924Z" fill="#5063F4"/>
</g>
<defs>
<clipPath id="clip0_11779_46693">
<rect width="25" height="25" fill="white" transform="translate(0 0.667969)"/>
</clipPath>
</defs>
</svg>
