<svg width="30" height="31" viewBox="0 0 30 31" fill="none" xmlns="http://www.w3.org/2000/svg">
<g id="COCO/Duotone/Chart">
<path id="Vector" d="M19.4445 14.5524H16.6667V11.7746C16.6667 11.4063 16.5203 11.053 16.2599 10.7925C15.9994 10.5321 15.6461 10.3857 15.2778 10.3857C14.9094 10.3857 14.5562 10.5321 14.2957 10.7925C14.0352 11.053 13.8889 11.4063 13.8889 11.7746L13.9382 14.5524H11.1111C10.7428 14.5524 10.3895 14.6987 10.129 14.9592C9.86856 15.2197 9.72223 15.5729 9.72223 15.9413C9.72223 16.3097 9.86856 16.6629 10.129 16.9234C10.3895 17.1839 10.7428 17.3302 11.1111 17.3302L13.9382 17.2809L13.8889 20.108C13.8889 20.4763 14.0352 20.8296 14.2957 21.0901C14.5562 21.3505 14.9094 21.4969 15.2778 21.4969C15.6461 21.4969 15.9994 21.3505 16.2599 21.0901C16.5203 20.8296 16.6667 20.4763 16.6667 20.108V17.2809L19.4445 17.3302C19.8128 17.3302 20.1661 17.1839 20.4265 16.9234C20.687 16.6629 20.8333 16.3097 20.8333 15.9413C20.8333 15.5729 20.687 15.2197 20.4265 14.9592C20.1661 14.6987 19.8128 14.5524 19.4445 14.5524Z" fill="#F8FAFF"/>
<path id="Vector_2" d="M4.1911 11.8511C5.00547 8.37934 7.71626 5.66855 11.188 4.85418C13.6953 4.26605 16.3047 4.26605 18.812 4.85418C22.2837 5.66855 24.9945 8.37935 25.8089 11.8511C26.397 14.3584 26.397 16.9678 25.8089 19.475C24.9945 22.9468 22.2837 25.6576 18.812 26.472C16.3047 27.0601 13.6953 27.0601 11.188 26.472C7.71626 25.6576 5.00547 22.9468 4.1911 19.4751C3.60297 16.9678 3.60297 14.3584 4.1911 11.8511Z" fill="#F8FAFF" fill-opacity="0.15" stroke="#F8FAFF" stroke-width="1.35" stroke-linecap="round"/>
</g>
</svg>
