<svg width="30" height="31" viewBox="0 0 30 31" fill="none" xmlns="http://www.w3.org/2000/svg">
<g id="COCO/Duotone/Menu">
<path id="Vector" d="M21.7882 10.0731C21.6091 9.95724 21.4043 9.88715 21.1918 9.86899C20.9793 9.85082 20.7656 9.88514 20.5694 9.96893L14.1424 12.5002C13.9902 12.5621 13.8275 12.5939 13.6632 12.5939H9.54861C9.20328 12.5939 8.87209 12.7311 8.6279 12.9753C8.38371 13.2195 8.24653 13.5507 8.24653 13.896V14.0002H6.94444V17.1252H8.24653V17.2606C8.25469 17.6005 8.39546 17.9237 8.63877 18.1612C8.88208 18.3986 9.20862 18.5315 9.54861 18.5314L11.1111 21.8439C11.2169 22.067 11.3835 22.2557 11.5917 22.3884C11.7999 22.521 12.0413 22.5923 12.2882 22.5939H12.9444C13.288 22.5912 13.6165 22.4528 13.8584 22.2089C14.1004 21.965 14.2361 21.6354 14.2361 21.2918V18.6564L20.5694 21.1877C20.7252 21.2497 20.8914 21.2815 21.059 21.2814C21.3191 21.2772 21.5724 21.1976 21.7882 21.0523C21.9595 20.9366 22.1008 20.7818 22.2005 20.6006C22.3001 20.4195 22.3552 20.2172 22.3611 20.0106V11.146C22.3602 10.934 22.3075 10.7255 22.2076 10.5385C22.1078 10.3516 21.9638 10.1918 21.7882 10.0731ZM12.934 13.896V17.2606H9.54861V13.896H12.934ZM12.934 21.2918H12.2778L10.9965 18.5314H12.934V21.2918ZM14.6215 17.4168C14.4978 17.3536 14.3689 17.3014 14.2361 17.2606V13.8231C14.3676 13.796 14.4966 13.7576 14.6215 13.7085L21.059 11.146V19.9793L14.6215 17.4168ZM22.3924 14.2606V16.8648C22.7377 16.8648 23.0689 16.7276 23.3131 16.4834C23.5573 16.2392 23.6944 15.908 23.6944 15.5627C23.6944 15.2173 23.5573 14.8862 23.3131 14.642C23.0689 14.3978 22.7377 14.2606 22.3924 14.2606Z" fill="#F8FAFF"/>
<path id="Vector_2" d="M4.19104 12.1285C5.00541 8.65669 7.7162 5.94589 11.188 5.13153C13.6953 4.5434 16.3046 4.5434 18.8119 5.13153C22.2837 5.94589 24.9945 8.65669 25.8088 12.1285C26.397 14.6358 26.397 17.2451 25.8088 19.7524C24.9945 23.2242 22.2837 25.935 18.8119 26.7493C16.3046 27.3375 13.6953 27.3375 11.188 26.7493C7.7162 25.935 5.00541 23.2242 4.19104 19.7524C3.60291 17.2451 3.60291 14.6357 4.19104 12.1285Z" fill="#F8FAFF" fill-opacity="0.15" stroke="#F8FAFF" stroke-width="1.35" stroke-linecap="round"/>
</g>
</svg>
