<svg width="30" height="31" viewBox="0 0 30 31" fill="none" xmlns="http://www.w3.org/2000/svg">
<g id="COCO/Duotone/Note">
<g id="Vector">
<path d="M4.1911 11.8511C5.00547 8.37934 7.71626 5.66855 11.188 4.85418C13.6953 4.26605 16.3047 4.26605 18.812 4.85418C22.2837 5.66855 24.9945 8.37935 25.8089 11.8511C26.397 14.3584 26.397 16.9678 25.8089 19.475C24.9945 22.9468 22.2837 25.6576 18.812 26.472C16.3047 27.0601 13.6953 27.0601 11.188 26.472C7.71626 25.6576 5.00547 22.9468 4.1911 19.4751C3.60297 16.9678 3.60297 14.3584 4.1911 11.8511Z" fill="#F8FAFF" fill-opacity="0.15"/>
<path d="M4.1911 19.4751L4.84826 19.3209L4.1911 19.4751ZM4.1911 11.8511L4.84826 12.0053L4.1911 11.8511ZM25.8089 11.8511L26.4661 11.697L25.8089 11.8511ZM25.8089 19.475L25.1517 19.3209L25.8089 19.475ZM18.812 26.472L18.6578 25.8148L18.812 26.472ZM11.188 26.472L11.0339 27.1292L11.188 26.472ZM11.188 4.85418L11.3422 5.51134L11.188 4.85418ZM18.812 4.85418L18.6578 5.51134L18.812 4.85418ZM4.84826 19.3209C4.28391 16.915 4.28391 14.4112 4.84826 12.0053L3.53393 11.697C2.92202 14.3056 2.92202 17.0205 3.53393 19.6292L4.84826 19.3209ZM25.1517 12.0053C25.7161 14.4112 25.7161 16.915 25.1517 19.3209L26.4661 19.6292C27.078 17.0205 27.078 14.3056 26.4661 11.697L25.1517 12.0053ZM18.6578 25.8148C16.2519 26.3792 13.7481 26.3792 11.3422 25.8148L11.0339 27.1292C13.6426 27.7411 16.3574 27.7411 18.9661 27.1292L18.6578 25.8148ZM11.3422 5.51134C13.7481 4.947 16.2519 4.947 18.6578 5.51134L18.9661 4.19702C16.3574 3.58511 13.6426 3.58511 11.0339 4.19702L11.3422 5.51134ZM11.3422 25.8148C8.12 25.059 5.60408 22.5431 4.84826 19.3209L3.53393 19.6292C4.40685 23.3506 7.31253 26.2562 11.0339 27.1292L11.3422 25.8148ZM18.9661 27.1292C22.6875 26.2562 25.5932 23.3506 26.4661 19.6292L25.1517 19.3209C24.3959 22.5431 21.88 25.059 18.6578 25.8148L18.9661 27.1292ZM18.6578 5.51134C21.88 6.26717 24.3959 8.78308 25.1517 12.0053L26.4661 11.697C25.5932 7.97561 22.6875 5.06993 18.9661 4.19702L18.6578 5.51134ZM11.0339 4.19702C7.31252 5.06993 4.40685 7.97561 3.53393 11.697L4.84826 12.0053C5.60408 8.78308 8.12 6.26717 11.3422 5.51134L11.0339 4.19702Z" fill="#F8FAFF"/>
</g>
<path id="Vector_2" d="M11.6 16.8H13.1925L17.0275 12.9975C17.0925 12.9325 17.125 12.8513 17.125 12.7538C17.125 12.6563 17.0925 12.575 17.0275 12.51L15.89 11.3725C15.825 11.3075 15.7437 11.275 15.6462 11.275C15.5487 11.275 15.4675 11.3075 15.4025 11.3725L11.6 15.2075V16.8ZM14.525 16.8H19.4V15.5H15.825L14.525 16.8ZM9 22V10.3C9 9.9425 9.1274 9.63635 9.3822 9.38155C9.637 9.12675 9.94293 8.99957 10.3 9H20.7C21.0575 9 21.3636 9.1274 21.6184 9.3822C21.8732 9.637 22.0004 9.94293 22 10.3V18.1C22 18.4575 21.8726 18.7636 21.6178 19.0184C21.363 19.2732 21.0571 19.4004 20.7 19.4H11.6L9 22ZM11.0475 18.1H20.7V10.3H10.3V18.8313L11.0475 18.1Z" fill="white"/>
</g>
</svg>
