<svg width="30" height="31" viewBox="0 0 30 31" fill="none" xmlns="http://www.w3.org/2000/svg">
<path fill-rule="evenodd" clip-rule="evenodd" d="M14.0816 7.34668L13.5003 7.35085L7.34514 11.5561L7.34931 12.4186L13.5035 16.5467L14.0764 16.5508L20.4222 12.4227L20.4253 11.5519L14.0816 7.34668ZM8.56806 11.9821L13.7983 8.40918L19.1899 11.9821L13.7983 15.4904L8.56806 11.9821ZM13.5045 19.1508L7.42326 15.0727H9.29306L13.7983 18.0936L18.4431 15.0727H20.3524L19.5191 15.6144C18.5722 15.5179 17.6209 15.7483 16.8231 16.2673C16.0253 16.7864 15.4291 17.5628 15.1337 18.4675L14.0785 19.155L13.5045 19.1508ZM14.9347 19.9592L13.7993 20.6988L9.29201 17.6769H7.42326L13.5045 21.755L14.0774 21.7592L15.1399 21.0686C15.0214 20.7098 14.9524 20.3366 14.9347 19.9592ZM17.3608 17.1623C17.7015 16.9225 18.0869 16.7532 18.494 16.6645C18.9012 16.5757 19.322 16.5694 19.7317 16.6457C20.1414 16.722 20.5316 16.8795 20.8795 17.1089C21.2274 17.3383 21.526 17.6349 21.7575 17.9814C21.9891 18.3278 22.149 18.7171 22.2279 19.1263C22.3068 19.5355 22.303 19.9563 22.2168 20.3641C22.1306 20.7718 21.9638 21.1581 21.7261 21.5004C21.4884 21.8427 21.1846 22.134 20.8326 22.3571C20.1437 22.7939 19.3112 22.944 18.5131 22.7753C17.715 22.6066 17.0145 22.1325 16.5612 21.4543C16.1079 20.776 15.9378 19.9475 16.0872 19.1455C16.2366 18.3436 16.6937 17.6318 17.3608 17.1623ZM19.1295 21.1383L20.9941 18.6519L20.1608 18.0269L18.6191 20.0831L17.7066 19.354L17.0566 20.1665L18.3878 21.2321L19.1295 21.1383Z" fill="#F8FAFF"/>
<path d="M4.19104 12.1285C3.60291 14.6357 3.60291 17.2451 4.19104 19.7524C5.00541 23.2242 7.7162 25.935 11.188 26.7493C13.6953 27.3375 16.3046 27.3375 18.8119 26.7493C22.2837 25.935 24.9945 23.2242 25.8088 19.7524C26.397 17.2451 26.397 14.6358 25.8088 12.1285C24.9945 8.65669 22.2837 5.94589 18.8119 5.13153C16.3046 4.5434 13.6953 4.5434 11.188 5.13153C7.7162 5.94589 5.00541 8.65669 4.19104 12.1285Z" fill="#F8FAFF" fill-opacity="0.15" stroke="#F8FAFF" stroke-width="1.35"/>
</svg>
