<svg width="30" height="31" viewBox="0 0 30 31" fill="none" xmlns="http://www.w3.org/2000/svg">
<path d="M18.5185 16.52H19.4734V18.3152L21.0266 19.2127L20.5492 20.0403L18.5185 18.869V16.52ZM19.1551 15.2469C18.3109 15.2469 17.5014 15.5822 16.9045 16.1791C16.3076 16.776 15.9722 17.5856 15.9722 18.4298C15.9722 19.2739 16.3076 20.0835 16.9045 20.6804C17.5014 21.2773 18.3109 21.6126 19.1551 21.6126C19.9992 21.6126 20.8088 21.2773 21.4057 20.6804C22.0026 20.0835 22.338 19.2739 22.338 18.4298C22.338 17.5856 22.0026 16.776 21.4057 16.1791C20.8088 15.5822 19.9992 15.2469 19.1551 15.2469ZM19.1551 13.9737C20.3369 13.9737 21.4703 14.4432 22.306 15.2789C23.1416 16.1145 23.6111 17.248 23.6111 18.4298C23.6111 19.6116 23.1416 20.745 22.306 21.5806C21.4703 22.4163 20.3369 22.8858 19.1551 22.8858C17.3791 22.8858 15.8449 21.8418 15.1256 20.3395H8.96991V18.4298C8.96991 16.7365 12.3628 15.8835 14.0625 15.8835C14.4444 15.8835 14.9155 15.928 15.412 16.0108C15.8158 15.3853 16.37 14.8711 17.0239 14.5152C17.6779 14.1593 18.4106 13.9731 19.1551 13.9737ZM14.6991 18.4298C14.6991 17.9842 14.7627 17.5513 14.8837 17.1566C14.6163 17.1121 14.3362 17.093 14.0625 17.093C12.1719 17.093 10.1794 18.0224 10.1794 18.4298V19.13H14.7564C14.7181 18.8986 14.6989 18.6643 14.6991 18.4298ZM14.0625 10.1543C14.7378 10.1543 15.3855 10.4226 15.863 10.9001C16.3405 11.3776 16.6088 12.0253 16.6088 12.7006C16.6088 13.3759 16.3405 14.0236 15.863 14.5011C15.3855 14.9786 14.7378 15.2469 14.0625 15.2469C13.3872 15.2469 12.7395 14.9786 12.262 14.5011C11.7845 14.0236 11.5162 13.3759 11.5162 12.7006C11.5162 12.0253 11.7845 11.3776 12.262 10.9001C12.7395 10.4226 13.3872 10.1543 14.0625 10.1543ZM14.0625 11.3638C13.708 11.3638 13.3679 11.5046 13.1172 11.7553C12.8665 12.006 12.7257 12.3461 12.7257 12.7006C12.7257 13.0551 12.8665 13.3952 13.1172 13.6459C13.3679 13.8966 13.708 14.0374 14.0625 14.0374C14.417 14.0374 14.7571 13.8966 15.0078 13.6459C15.2585 13.3952 15.3993 13.0551 15.3993 12.7006C15.3993 12.3461 15.2585 12.006 15.0078 11.7553C14.7571 11.5046 14.417 11.3638 14.0625 11.3638Z" fill="#F8FAFF"/>
<path d="M4.19104 12.1285C5.00541 8.65669 7.7162 5.94589 11.188 5.13153C13.6953 4.5434 16.3046 4.5434 18.8119 5.13153C22.2837 5.94589 24.9945 8.65669 25.8088 12.1285C26.397 14.6358 26.397 17.2451 25.8088 19.7524C24.9945 23.2242 22.2837 25.935 18.8119 26.7493C16.3046 27.3375 13.6953 27.3375 11.188 26.7493C7.7162 25.935 5.00541 23.2242 4.19104 19.7524C3.60291 17.2451 3.60291 14.6357 4.19104 12.1285Z" fill="#F8FAFF" fill-opacity="0.15" stroke="#F8FAFF" stroke-width="1.35" stroke-linecap="round"/>
</svg>
