<svg width="30" height="31" viewBox="0 0 30 31" fill="none" xmlns="http://www.w3.org/2000/svg">
<path d="M17.6316 19C16.9763 19 16.4177 18.7678 15.9557 18.3033C15.4937 17.8389 15.2628 17.2775 15.2632 16.619C15.2632 15.9603 15.4942 15.3987 15.9562 14.9343C16.4182 14.4698 16.9766 14.2378 17.6316 14.2381C18.2868 14.2381 18.8455 14.4703 19.3075 14.9348C19.7695 15.3992 20.0003 15.9606 20 16.619C20 17.2778 19.769 17.8394 19.307 18.3038C18.845 18.7683 18.2865 19.0003 17.6316 19ZM18.425 17.75L18.7566 17.4167L17.8684 16.5238V15.1905H17.3947V16.7143L18.425 17.75ZM11.9474 18.5238C11.6868 18.5238 11.4637 18.4305 11.2781 18.2438C11.0924 18.0571 10.9997 17.833 11 17.5714V10.9048C11 10.6429 11.0928 10.4186 11.2785 10.2319C11.4642 10.0452 11.6872 9.95206 11.9474 9.95238H13.925C14.0118 9.6746 14.1816 9.44635 14.4342 9.26762C14.6868 9.08889 14.9632 8.99968 15.2632 9C15.5789 9 15.8613 9.08937 16.1101 9.2681C16.3589 9.44683 16.5266 9.67492 16.6132 9.95238H18.5789C18.8395 9.95238 19.0626 10.0457 19.2483 10.2324C19.4339 10.419 19.5266 10.6432 19.5263 10.9048V13.881C19.3842 13.7778 19.2342 13.6905 19.0763 13.619C18.9184 13.5476 18.7526 13.4841 18.5789 13.4286V10.9048H17.6316V12.3333H12.8947V10.9048H11.9474V17.5714H14.4579C14.5132 17.746 14.5763 17.9127 14.6474 18.0714C14.7184 18.2302 14.8053 18.381 14.9079 18.5238H11.9474ZM15.2632 10.9048C15.3974 10.9048 15.5099 10.859 15.6009 10.7676C15.6918 10.6762 15.7372 10.5632 15.7368 10.4286C15.7368 10.2937 15.6914 10.1805 15.6004 10.089C15.5095 9.99762 15.3971 9.95206 15.2632 9.95238C15.1289 9.95238 15.0164 9.9981 14.9254 10.0895C14.8345 10.181 14.7892 10.294 14.7895 10.4286C14.7895 10.5635 14.8349 10.6767 14.9259 10.7681C15.0168 10.8595 15.1293 10.9051 15.2632 10.9048Z" fill="#F8FAFF"/>
<path d="M5.4411 10.438C4.85297 12.9453 4.85297 15.5547 5.4411 18.062C6.25547 21.5337 8.96626 24.2445 12.438 25.0589C14.9453 25.647 17.5547 25.647 20.062 25.0589C23.5337 24.2445 26.2445 21.5337 27.0589 18.062C27.647 15.5547 27.647 12.9453 27.0589 10.438C26.2445 6.96626 23.5337 4.25546 20.062 3.4411C17.5547 2.85297 14.9453 2.85297 12.438 3.4411C8.96626 4.25546 6.25547 6.96626 5.4411 10.438Z" fill="#F8FAFF" fill-opacity="0.15" stroke="#F8FAFF" stroke-width="1.35"/>
</svg>
