<svg width="31" height="31" viewBox="0 0 31 31" fill="none" xmlns="http://www.w3.org/2000/svg">
<g id="COCO/Duotone/Grid - 2">
<g id="Vector">
<path d="M4.27487 11.4755C5.10553 7.93426 7.87054 5.16925 11.4118 4.33859C13.9692 3.7387 16.6307 3.7387 19.1882 4.33859C22.7294 5.16925 25.4944 7.93426 26.325 11.4755C26.9249 14.0329 26.9249 16.6944 26.325 19.2519C25.4944 22.7931 22.7294 25.5581 19.1881 26.3888C16.6307 26.9886 13.9692 26.9886 11.4118 26.3888C7.87054 25.5581 5.10553 22.7931 4.27487 19.2519C3.67498 16.6945 3.67498 14.0329 4.27487 11.4755Z" fill="#3BCBB2" fill-opacity="0.15"/>
<path d="M4.68917 11.3846H25.9107M11.3209 12.0478L11.3209 25.9745M4.27487 19.2519C3.67498 16.6945 3.67498 14.0329 4.27487 11.4755C5.10553 7.93426 7.87054 5.16925 11.4118 4.33859C13.9692 3.7387 16.6307 3.7387 19.1882 4.33859C22.7294 5.16925 25.4944 7.93426 26.325 11.4755C26.9249 14.0329 26.9249 16.6944 26.325 19.2519C25.4944 22.7931 22.7294 25.5581 19.1881 26.3888C16.6307 26.9886 13.9692 26.9886 11.4118 26.3888C7.87054 25.5581 5.10553 22.7931 4.27487 19.2519Z" stroke="#F4F5F6" stroke-width="1.35"/>
</g>
</g>
</svg>
