<svg width="25" height="26" viewBox="0 0 25 26" fill="none" xmlns="http://www.w3.org/2000/svg">
<g id="COCO/Duotone/Setting - 4" clip-path="url(#clip0_11779_46700)">
<path id="Vector" d="M1.4411 9.60601C2.25547 6.13423 4.96626 3.42343 8.43804 2.60906C10.9453 2.02094 13.5547 2.02094 16.062 2.60906C19.5337 3.42343 22.2445 6.13423 23.0589 9.60601C23.647 12.1133 23.647 14.7227 23.0589 17.2299C22.2445 20.7017 19.5337 23.4125 16.062 24.2269C13.5547 24.815 10.9453 24.815 8.43804 24.2269C4.96626 23.4125 2.25547 20.7017 1.4411 17.2299C0.852968 14.7227 0.852968 12.1133 1.4411 9.60601Z" fill="#FDFDFD" stroke="#5063F4" stroke-width="1.35" stroke-linecap="round"/>
<g id="Group">
<path id="Vector_2" d="M17.5 13.5846V12.418C17.5 9.51851 15.1495 7.16797 12.25 7.16797C9.35054 7.16797 7 9.51851 7 12.418V13.5846" stroke="#5063F4" stroke-width="1.16667" stroke-linecap="round" stroke-linejoin="round"/>
<path id="Vector_3" d="M14.5837 13.8763V9.5013C14.5837 8.88246 14.3378 8.28897 13.9002 7.85139C13.4627 7.4138 12.8692 7.16797 12.2503 7.16797C11.6315 7.16797 11.038 7.4138 10.6004 7.85139C10.1628 8.28897 9.91699 8.88246 9.91699 9.5013V13.8763" stroke="#5063F4" stroke-width="1.16667" stroke-linecap="round" stroke-linejoin="round"/>
<path id="Vector_4" d="M12.25 13.002V17.0853C12.25 17.5494 12.4344 17.9945 12.7626 18.3227C13.0908 18.6509 13.5359 18.8353 14 18.8353C14.4641 18.8353 14.9092 18.6509 15.2374 18.3227C15.5656 17.9945 15.75 17.5494 15.75 17.0853V16.2427M8.75 13.002H17.5" stroke="#5063F4" stroke-width="1.16667" stroke-linecap="round" stroke-linejoin="round"/>
</g>
</g>
<defs>
<clipPath id="clip0_11779_46700">
<rect width="25" height="25" fill="white" transform="translate(0 0.667969)"/>
</clipPath>
</defs>
</svg>
