<svg width="49" height="48" viewBox="0 0 49 48" fill="none" xmlns="http://www.w3.org/2000/svg">
<g clip-path="url(#clip0_8646_11068)">
<path d="M2.88219 16.3761C4.51093 9.43252 9.93252 4.01093 16.8761 2.38219C21.8906 1.20594 27.1094 1.20594 32.1239 2.38219C39.0675 4.01093 44.4891 9.43252 46.1178 16.3761C47.2941 21.3906 47.2941 26.6094 46.1178 31.6239C44.4891 38.5675 39.0675 43.9891 32.1239 45.6178C27.1094 46.7941 21.8906 46.7941 16.8761 45.6178C9.93253 43.9891 4.51093 38.5675 2.88219 31.6239C1.70594 26.6094 1.70594 21.3906 2.88219 16.3761Z" fill="#EFF2FE" stroke="#5063F4" stroke-width="1.35"/>
<path d="M22.0302 15.0898H27.1002V20.4598L26.1702 28.7098H22.9602L22.0302 20.4598V15.0898ZM24.4602 31.0498C25.9602 31.0498 27.0402 32.0998 27.0402 33.6298C27.0402 35.1598 25.9602 36.2398 24.4602 36.2398C22.9602 36.2398 21.9102 35.1598 21.9102 33.6298C21.9102 32.0998 22.9602 31.0498 24.4602 31.0498Z" fill="#5063F4"/>
</g>
<defs>
<clipPath id="clip0_8646_11068">
<rect width="48" height="47" fill="white" transform="translate(0.5 0.5)"/>
</clipPath>
</defs>
</svg>
