<svg width="15" height="15" viewBox="0 0 15 15" fill="none" xmlns="http://www.w3.org/2000/svg">
<path id="Vector" fill-rule="evenodd" clip-rule="evenodd" d="M7.51525 0.144531C5.66916 0.144531 3.98736 0.754309 2.99218 1.25251C2.90227 1.29747 2.81849 1.34161 2.74043 1.38411C2.58594 1.4683 2.45434 1.54677 2.34971 1.61584L3.4818 3.28252L4.01475 3.49463C6.09747 4.54539 8.89051 4.54539 10.9736 3.49463L11.5785 3.18075L12.6489 1.61584C12.4272 1.47119 12.1966 1.34056 11.9586 1.22472C10.9683 0.73183 9.3266 0.144531 7.51565 0.144531H7.51525ZM4.88241 2.03108C4.48153 1.95607 4.08558 1.85671 3.69678 1.73355C4.62902 1.31954 6.01818 0.880188 7.51525 0.880188C8.55211 0.880188 9.53258 1.09108 10.3434 1.35836C9.39321 1.49201 8.37923 1.71884 7.41307 1.99798C6.65289 2.21786 5.76438 2.19415 4.88241 2.03108ZM11.4052 4.10073L11.3047 4.15141C9.01353 5.30721 5.97445 5.30721 3.68329 4.15141L3.58807 4.10318C0.14601 7.87996 -2.48192 14.8564 7.51525 14.8564C17.5124 14.8564 14.8203 7.74959 11.4052 4.10073ZM7.09061 7.5011C6.87382 7.5011 6.66591 7.58722 6.51262 7.74051C6.35933 7.8938 6.27321 8.10171 6.27321 8.31849C6.27321 8.53528 6.35933 8.74319 6.51262 8.89648C6.66591 9.04977 6.87382 9.13589 7.09061 9.13589V7.5011ZM7.908 6.6837V6.275H7.09061V6.6837C6.65703 6.6837 6.24122 6.85594 5.93464 7.16252C5.62805 7.4691 5.45582 7.88492 5.45582 8.31849C5.45582 8.75207 5.62805 9.16788 5.93464 9.47447C6.24122 9.78105 6.65703 9.95329 7.09061 9.95329V11.5881C6.73504 11.5881 6.4322 11.3613 6.3194 11.0433C6.30266 10.9913 6.27566 10.9431 6.24 10.9017C6.20433 10.8603 6.16073 10.8265 6.11176 10.8022C6.06279 10.778 6.00946 10.7638 5.95491 10.7605C5.90036 10.7572 5.84571 10.7649 5.79418 10.7831C5.74266 10.8013 5.69531 10.8297 5.65493 10.8665C5.61455 10.9033 5.58197 10.9478 5.55911 10.9975C5.53625 11.0471 5.52358 11.1008 5.52184 11.1555C5.52011 11.2101 5.52934 11.2645 5.549 11.3155C5.66174 11.6343 5.87052 11.9102 6.1466 12.1054C6.42268 12.3006 6.75249 12.4055 7.09061 12.4055V12.8142H7.908V12.4055C8.34158 12.4055 8.75739 12.2332 9.06398 11.9267C9.37056 11.6201 9.5428 11.2043 9.5428 10.7707C9.5428 10.3371 9.37056 9.92129 9.06398 9.61471C8.75739 9.30813 8.34158 9.13589 7.908 9.13589V7.5011C8.26357 7.5011 8.56642 7.72792 8.67922 8.04589C8.69595 8.09791 8.72295 8.14605 8.75862 8.18745C8.79428 8.22886 8.83788 8.26269 8.88685 8.28695C8.93582 8.31121 8.98915 8.3254 9.0437 8.32869C9.09825 8.33197 9.1529 8.32428 9.20443 8.30608C9.25595 8.28788 9.30331 8.25952 9.34368 8.2227C9.38406 8.18587 9.41664 8.14133 9.4395 8.09169C9.46236 8.04206 9.47503 7.98834 9.47677 7.93372C9.47851 7.8791 9.46927 7.82469 9.44961 7.7737C9.33688 7.45492 9.1281 7.17894 8.85201 6.98373C8.57593 6.78853 8.24613 6.68371 7.908 6.6837ZM7.908 9.95329V11.5881C8.12479 11.5881 8.3327 11.502 8.48599 11.3487C8.63928 11.1954 8.7254 10.9875 8.7254 10.7707C8.7254 10.5539 8.63928 10.346 8.48599 10.1927C8.3327 10.0394 8.12479 9.95329 7.908 9.95329Z" fill="#5063F4"/>
</svg>
