<svg width="12" height="13" viewBox="0 0 12 13" fill="none" xmlns="http://www.w3.org/2000/svg">
<g id="iconamoon:edit">
<path id="Vector (Stroke)" fill-rule="evenodd" clip-rule="evenodd" d="M7.98999 2.40459C8.25789 2.13678 8.62119 1.98633 8.99999 1.98633C9.3788 1.98633 9.7421 2.13678 10.01 2.40459L10.096 2.49064C10.3639 2.75854 10.5143 3.12188 10.5143 3.50069C10.5143 3.87949 10.3639 4.24279 10.0961 4.51069L4.30304 10.3037C4.24811 10.3587 4.17929 10.3976 4.10394 10.4165L2.10394 10.9165C1.95789 10.953 1.80339 10.9102 1.69695 10.8037C1.5905 10.6973 1.5477 10.5428 1.58422 10.3967L2.08422 8.39674C2.10306 8.32139 2.14202 8.25257 2.19695 8.19764L7.19668 3.19791L7.98999 2.40459ZM7.49999 4.10678L2.88698 8.71979L2.58901 9.91167L3.78089 9.6137L8.3939 5.00069L7.49999 4.10678ZM8.99999 4.39459L8.10608 3.50069L8.59599 3.01078C8.59598 3.01079 8.59601 3.01076 8.59599 3.01078C8.70315 2.90368 8.84849 2.84347 8.99999 2.84347C9.15149 2.84347 9.29679 2.90363 9.40395 3.01073C9.40393 3.01072 9.40396 3.01075 9.40395 3.01073L9.4899 3.09669C9.48989 3.09667 9.48992 3.0967 9.4899 3.09669M6.07142 10.5007C6.07142 10.264 6.2633 10.0721 6.49999 10.0721H10.5C10.7367 10.0721 10.9286 10.264 10.9286 10.5007C10.9286 10.7374 10.7367 10.9293 10.5 10.9293H6.49999C6.2633 10.9293 6.07142 10.7374 6.07142 10.5007Z" fill="#5063F4"/>
</g>
</svg>
