<svg width="30" height="30" viewBox="0 0 30 30" fill="none" xmlns="http://www.w3.org/2000/svg">
<g id="Exit" clip-path="url(#clip0_668_16364)">
<rect id="Rectangle 5492" width="30" height="30" rx="5" fill="#44E0AA"/>
<path id="Vector" d="M20.8918 8.30202C20.7993 8.20932 20.6894 8.13577 20.5684 8.08559C20.4474 8.03541 20.3177 8.00958 20.1868 8.00958C20.0558 8.00958 19.9261 8.03541 19.8052 8.08559C19.6842 8.13577 19.5743 8.20932 19.4818 8.30202L14.5918 13.182L9.70178 8.29202C9.60919 8.19944 9.49928 8.126 9.37832 8.07589C9.25736 8.02579 9.12771 8 8.99678 8C8.86585 8 8.7362 8.02579 8.61523 8.07589C8.49427 8.126 8.38436 8.19944 8.29178 8.29202C8.19919 8.3846 8.12575 8.49451 8.07565 8.61548C8.02554 8.73644 7.99976 8.86609 7.99976 8.99702C7.99976 9.12795 8.02554 9.2576 8.07565 9.37856C8.12575 9.49953 8.19919 9.60944 8.29178 9.70202L13.1818 14.592L8.29178 19.482C8.19919 19.5746 8.12575 19.6845 8.07565 19.8055C8.02554 19.9264 7.99976 20.0561 7.99976 20.187C7.99976 20.318 8.02554 20.4476 8.07565 20.5686C8.12575 20.6895 8.19919 20.7994 8.29178 20.892C8.38436 20.9846 8.49427 21.058 8.61523 21.1081C8.7362 21.1583 8.86585 21.184 8.99678 21.184C9.12771 21.184 9.25736 21.1583 9.37832 21.1081C9.49928 21.058 9.60919 20.9846 9.70178 20.892L14.5918 16.002L19.4818 20.892C19.5744 20.9846 19.6843 21.058 19.8052 21.1081C19.9262 21.1583 20.0558 21.184 20.1868 21.184C20.3177 21.184 20.4474 21.1583 20.5683 21.1081C20.6893 21.058 20.7992 20.9846 20.8918 20.892C20.9844 20.7994 21.0578 20.6895 21.1079 20.5686C21.158 20.4476 21.1838 20.318 21.1838 20.187C21.1838 20.0561 21.158 19.9264 21.1079 19.8055C21.0578 19.6845 20.9844 19.5746 20.8918 19.482L16.0018 14.592L20.8918 9.70202C21.2718 9.32202 21.2718 8.68202 20.8918 8.30202Z" fill="#F8FAFF"/>
</g>
<defs>
<clipPath id="clip0_668_16364">
<rect width="30" height="30" fill="white"/>
</clipPath>
</defs>
</svg>
