<svg width="362" height="384" viewBox="0 0 362 384" fill="none" xmlns="http://www.w3.org/2000/svg">
<path d="M57.9841 156.372H62.4921L71.3961 168.188V156.372H76.1561V176H71.6761L62.7721 164.24V176H57.9841V156.372ZM87.0238 160.684C92.0078 160.684 95.3118 163.764 95.3118 168.412C95.3118 173.088 92.0078 176.168 87.0238 176.168C82.0398 176.168 78.7638 173.088 78.7638 168.412C78.7638 163.764 82.0398 160.684 87.0238 160.684ZM87.0238 164.716C85.0918 164.716 83.7758 166.228 83.7758 168.468C83.7758 170.736 85.0918 172.248 87.0238 172.248C88.9838 172.248 90.2998 170.736 90.2998 168.468C90.2998 166.228 88.9838 164.716 87.0238 164.716ZM120.666 176L119.322 172.528H110.838L109.466 176H104.202L112.63 156.372H117.894L126.126 176H120.666ZM112.378 168.608H117.81L115.122 161.608L112.378 168.608ZM137.018 166.368C136.346 165.388 135.338 164.8 134.05 164.8C132.258 164.8 131.026 166.284 131.026 168.468C131.026 170.68 132.258 172.136 134.05 172.136C135.366 172.136 136.402 171.604 137.018 170.428L140.686 172.528C139.482 174.852 137.018 176.168 133.798 176.168C129.122 176.168 126.014 173.116 126.014 168.496C126.014 163.792 129.15 160.684 133.854 160.684C136.906 160.684 139.314 162 140.63 164.268L137.018 166.368ZM151.872 171.688L152.824 175.216C151.732 175.86 150.22 176.224 148.736 176.224C145.796 176.252 143.668 174.516 143.668 171.38V164.884H141.568V161.58H143.668V157.38H148.624V161.58H152.544V164.884H148.624V170.596C148.624 171.716 149.128 172.22 149.996 172.192C150.5 172.192 151.144 171.996 151.872 171.688ZM157.683 154.3C158.999 154.3 159.951 155.252 159.951 156.596C159.951 157.912 158.999 158.864 157.683 158.864C156.367 158.864 155.415 157.912 155.415 156.596C155.415 155.252 156.367 154.3 157.683 154.3ZM155.191 160.852H160.147V176H155.191V160.852ZM161.924 160.852H167.048L170.212 171.38L173.404 160.852H178.388L172.704 176H167.58L161.924 160.852ZM186.273 160.684C191.565 160.684 194.253 164.24 193.917 169.756H183.389C183.865 171.464 185.125 172.416 186.833 172.416C188.121 172.416 189.381 171.884 190.389 170.876L192.993 173.48C191.453 175.216 189.185 176.168 186.385 176.168C181.429 176.168 178.377 173.116 178.377 168.496C178.377 163.792 181.541 160.684 186.273 160.684ZM183.277 167.096H189.101C189.101 165.36 187.981 164.184 186.301 164.184C184.677 164.184 183.613 165.36 183.277 167.096ZM217.867 170.932V165.976H222.291V173.704C220.191 175.16 216.859 176.224 214.115 176.224C208.123 176.224 203.615 171.912 203.615 166.2C203.615 160.488 208.235 156.232 214.451 156.232C217.391 156.232 220.499 157.352 222.515 159.144L219.603 162.728C218.203 161.412 216.215 160.572 214.423 160.572C211.259 160.572 208.879 163.008 208.879 166.2C208.879 169.42 211.287 171.856 214.479 171.856C215.459 171.856 216.691 171.52 217.867 170.932ZM230.667 163.372C231.703 161.636 233.411 160.656 235.539 160.656V165.22C232.767 164.94 230.919 166.172 230.667 168.272V176H225.683V160.852H230.667V163.372ZM244.743 160.684C249.727 160.684 253.031 163.764 253.031 168.412C253.031 173.088 249.727 176.168 244.743 176.168C239.759 176.168 236.483 173.088 236.483 168.412C236.483 163.764 239.759 160.684 244.743 160.684ZM244.743 164.716C242.811 164.716 241.495 166.228 241.495 168.468C241.495 170.736 242.811 172.248 244.743 172.248C246.703 172.248 248.019 170.736 248.019 168.468C248.019 166.228 246.703 164.716 244.743 164.716ZM265.37 160.852H270.354V176H265.37V173.536C264.334 175.3 262.682 176.196 260.526 176.224C257.25 176.224 255.122 173.956 255.122 170.428V160.852H260.106V169C260.106 170.708 261.058 171.744 262.542 171.744C264.306 171.716 265.37 170.316 265.37 168.328V160.852ZM283.74 160.684C287.968 160.684 290.796 163.792 290.796 168.496C290.796 173.116 288.052 176.168 283.852 176.168C281.92 176.168 280.352 175.412 279.288 174.04V181.432H274.304V160.852H279.288V162.812C280.352 161.44 281.864 160.684 283.74 160.684ZM282.508 172.136C284.468 172.136 285.784 170.624 285.784 168.384C285.784 166.144 284.468 164.604 282.508 164.604C280.604 164.604 279.288 166.144 279.288 168.384C279.288 170.624 280.604 172.136 282.508 172.136ZM303.467 165.64C301.591 164.66 299.883 164.1 298.651 164.1C297.811 164.1 297.223 164.408 297.223 165.052C297.223 167.04 305.175 166.088 305.147 171.352C305.147 174.46 302.431 176.224 298.735 176.224C296.187 176.224 293.751 175.496 291.903 174.068L293.471 170.848C295.207 172.052 297.167 172.724 298.847 172.724C299.771 172.724 300.443 172.416 300.443 171.8C300.443 169.728 292.631 170.764 292.631 165.528C292.631 162.364 295.291 160.628 298.847 160.628C301.031 160.628 303.243 161.244 305.147 162.392L303.467 165.64Z" fill="#5063F4"/>
<path d="M22.8565 199.594C21.7925 198.95 20.7285 198.684 19.9865 198.684C19.0205 198.684 18.3905 199.048 18.3905 199.706C18.3905 201.848 23.6825 200.7 23.6685 204.228C23.6685 205.978 22.1285 207.056 19.9725 207.056C18.4325 207.056 16.9765 206.426 15.9685 205.502L16.6825 204.074C17.6905 204.998 18.9505 205.502 20.0005 205.502C21.1485 205.502 21.8345 205.068 21.8345 204.312C21.8345 202.128 16.5425 203.346 16.5425 199.86C16.5425 198.18 17.9845 197.13 20.1125 197.13C21.3865 197.13 22.6325 197.536 23.5425 198.138L22.8565 199.594ZM29.3115 205.292L29.7175 206.524C29.1295 206.874 28.5135 207.07 27.8835 207.07C26.7635 207.07 25.7975 206.426 25.7975 204.9V201.036H24.7475V199.832H25.7975V197.788H27.3935V199.832H29.5915V201.036H27.3935V204.606C27.3935 205.376 27.6875 205.614 28.1915 205.614C28.5275 205.614 28.8775 205.502 29.3115 205.292ZM37.2526 207H35.6706V206.09C35.1386 206.748 34.2846 207.07 33.2066 207.07C31.5966 207.07 30.5886 206.076 30.5886 204.76C30.5886 203.402 31.6106 202.534 33.4026 202.52H35.6566V202.296C35.6566 201.358 35.0546 200.798 33.8786 200.798C33.1646 200.798 32.4226 201.05 31.6806 201.554L31.0226 200.434C32.0586 199.818 32.8146 199.496 34.2286 199.496C36.1466 199.496 37.2246 200.476 37.2386 202.114L37.2526 207ZM33.5426 205.796C34.6906 205.796 35.5726 205.194 35.6566 204.382V203.696H33.6406C32.5906 203.696 32.1006 203.976 32.1006 204.69C32.1006 205.362 32.6466 205.796 33.5426 205.796ZM41.0178 201.036C41.5218 200.028 42.4178 199.496 43.5938 199.496V201.036C42.0958 200.952 41.1438 201.834 41.0178 203.108V207H39.4078V199.552H41.0178V201.036ZM48.7255 205.292L49.1315 206.524C48.5435 206.874 47.9275 207.07 47.2975 207.07C46.1775 207.07 45.2115 206.426 45.2115 204.9V201.036H44.1615V199.832H45.2115V197.788H46.8075V199.832H49.0055V201.036H46.8075V204.606C46.8075 205.376 47.1015 205.614 47.6055 205.614C47.9415 205.614 48.2915 205.502 48.7255 205.292ZM59.1 199.496C61.214 199.496 62.656 201.036 62.656 203.304C62.656 205.53 61.256 207.056 59.128 207.056C57.938 207.056 57.042 206.58 56.496 205.712V207H54.886V196.612H56.496V200.84C57.042 199.972 57.938 199.496 59.1 199.496ZM58.764 205.684C60.094 205.684 61.032 204.676 61.032 203.248C61.032 201.862 60.094 200.84 58.764 200.84C57.434 200.84 56.496 201.848 56.496 203.248C56.496 204.69 57.434 205.684 58.764 205.684ZM66.9842 208.022C66.5222 209.198 65.6822 209.786 64.5622 209.786C63.8902 209.786 63.3582 209.59 62.8402 209.156L63.5262 207.91C63.8762 208.162 64.1562 208.274 64.4922 208.274C64.9822 208.274 65.3742 208.008 65.6262 207.448L65.8782 206.888L62.7982 199.552H64.4642L66.6902 205.194L68.7622 199.552H70.3722L66.9842 208.022ZM80.9429 201.75C80.4249 201.218 79.7109 200.896 78.8149 200.91C77.5269 200.91 76.6029 201.876 76.6029 203.29C76.6029 204.704 77.5269 205.67 78.8149 205.67C79.7529 205.67 80.5089 205.362 81.0129 204.774L81.9089 205.67C81.2369 206.552 80.1589 207.056 78.7449 207.056C76.5329 207.056 74.9929 205.53 74.9929 203.29C74.9929 201.036 76.5329 199.496 78.7449 199.496C80.0889 199.496 81.1389 199.93 81.8249 200.714L80.9429 201.75ZM85.2053 201.036C85.7093 200.028 86.6053 199.496 87.7813 199.496V201.036C86.2833 200.952 85.3313 201.834 85.2053 203.108V207H83.5953V199.552H85.2053V201.036ZM92.171 199.496C94.789 199.496 95.853 201.204 95.657 203.892H90.029C90.281 205.04 91.163 205.754 92.339 205.754C93.151 205.754 93.893 205.446 94.439 204.886L95.293 205.796C94.565 206.594 93.501 207.056 92.213 207.056C89.917 207.056 88.405 205.53 88.405 203.29C88.405 201.036 89.959 199.51 92.171 199.496ZM90.001 202.716H94.257C94.201 201.512 93.403 200.784 92.185 200.784C91.009 200.784 90.169 201.526 90.001 202.716ZM103.384 207H101.802V206.09C101.27 206.748 100.416 207.07 99.3375 207.07C97.7275 207.07 96.7195 206.076 96.7195 204.76C96.7195 203.402 97.7415 202.534 99.5335 202.52H101.788V202.296C101.788 201.358 101.186 200.798 100.01 200.798C99.2955 200.798 98.5535 201.05 97.8115 201.554L97.1535 200.434C98.1895 199.818 98.9455 199.496 100.36 199.496C102.278 199.496 103.356 200.476 103.37 202.114L103.384 207ZM99.6735 205.796C100.822 205.796 101.704 205.194 101.788 204.382V203.696H99.7715C98.7215 203.696 98.2315 203.976 98.2315 204.69C98.2315 205.362 98.7775 205.796 99.6735 205.796ZM109.347 205.292L109.753 206.524C109.165 206.874 108.549 207.07 107.919 207.07C106.799 207.07 105.833 206.426 105.833 204.9V201.036H104.783V199.832H105.833V197.788H107.429V199.832H109.627V201.036H107.429V204.606C107.429 205.376 107.723 205.614 108.227 205.614C108.563 205.614 108.913 205.502 109.347 205.292ZM112.038 196.458C112.57 196.458 112.976 196.864 112.976 197.424C112.976 197.97 112.57 198.376 112.038 198.376C111.506 198.376 111.1 197.97 111.1 197.424C111.1 196.864 111.506 196.458 112.038 196.458ZM111.24 199.552H112.836V207H111.24V199.552ZM119.572 199.496C121.308 199.496 122.344 200.588 122.344 202.366V207H120.734V202.814C120.734 201.694 120.062 201.008 118.942 201.008C117.71 201.022 116.94 201.876 116.828 203.038V207H115.218V199.552H116.828V200.98C117.36 199.944 118.312 199.496 119.572 199.496ZM129.626 199.552H131.222V206.272C131.222 208.414 129.696 209.758 127.358 209.758C126.196 209.758 125.174 209.394 124.264 208.778L124.95 207.616C125.65 208.134 126.378 208.428 127.288 208.428C128.702 208.428 129.626 207.602 129.626 206.314V205.376C129.122 206.188 128.282 206.636 127.162 206.636C125.146 206.636 123.802 205.18 123.802 203.038C123.802 200.938 125.132 199.51 127.106 199.496C128.254 199.482 129.108 199.944 129.626 200.756V199.552ZM127.484 205.376C128.744 205.376 129.626 204.424 129.626 203.08C129.626 201.736 128.744 200.798 127.484 200.798C126.21 200.798 125.328 201.75 125.314 203.08C125.328 204.424 126.196 205.376 127.484 205.376ZM143.702 207H142.12V206.09C141.588 206.748 140.734 207.07 139.656 207.07C138.046 207.07 137.038 206.076 137.038 204.76C137.038 203.402 138.06 202.534 139.852 202.52H142.106V202.296C142.106 201.358 141.504 200.798 140.328 200.798C139.614 200.798 138.872 201.05 138.13 201.554L137.472 200.434C138.508 199.818 139.264 199.496 140.678 199.496C142.596 199.496 143.674 200.476 143.688 202.114L143.702 207ZM139.992 205.796C141.14 205.796 142.022 205.194 142.106 204.382V203.696H140.09C139.04 203.696 138.55 203.976 138.55 204.69C138.55 205.362 139.096 205.796 139.992 205.796ZM154.408 199.496C156.144 199.496 157.18 200.588 157.18 202.366V207H155.57V202.814C155.57 201.694 154.898 201.008 153.778 201.008C152.546 201.022 151.776 201.876 151.664 203.038V207H150.054V199.552H151.664V200.98C152.196 199.944 153.148 199.496 154.408 199.496ZM162.403 199.496C165.021 199.496 166.085 201.204 165.889 203.892H160.261C160.513 205.04 161.395 205.754 162.571 205.754C163.383 205.754 164.125 205.446 164.671 204.886L165.525 205.796C164.797 206.594 163.733 207.056 162.445 207.056C160.149 207.056 158.637 205.53 158.637 203.29C158.637 201.036 160.191 199.51 162.403 199.496ZM160.233 202.716H164.489C164.433 201.512 163.635 200.784 162.417 200.784C161.241 200.784 160.401 201.526 160.233 202.716ZM166.118 199.552H167.77L169.702 205.404L171.578 199.552H173.244L175.134 205.404L177.038 199.552H178.676L175.96 207H174.294L172.404 201.484L170.514 207H168.862L166.118 199.552ZM189.112 199.552H190.708V206.272C190.708 208.414 189.182 209.758 186.844 209.758C185.682 209.758 184.66 209.394 183.75 208.778L184.436 207.616C185.136 208.134 185.864 208.428 186.774 208.428C188.188 208.428 189.112 207.602 189.112 206.314V205.376C188.608 206.188 187.768 206.636 186.648 206.636C184.632 206.636 183.288 205.18 183.288 203.038C183.288 200.938 184.618 199.51 186.592 199.496C187.74 199.482 188.594 199.944 189.112 200.756V199.552ZM186.97 205.376C188.23 205.376 189.112 204.424 189.112 203.08C189.112 201.736 188.23 200.798 186.97 200.798C185.696 200.798 184.814 201.75 184.8 203.08C184.814 204.424 185.682 205.376 186.97 205.376ZM194.553 201.036C195.057 200.028 195.953 199.496 197.129 199.496V201.036C195.631 200.952 194.679 201.834 194.553 203.108V207H192.943V199.552H194.553V201.036ZM201.645 199.496C203.941 199.496 205.523 201.022 205.523 203.262C205.523 205.516 203.941 207.056 201.645 207.056C199.335 207.056 197.753 205.516 197.753 203.262C197.753 201.022 199.335 199.496 201.645 199.496ZM201.645 200.868C200.301 200.868 199.363 201.862 199.363 203.29C199.363 204.732 200.301 205.712 201.645 205.712C202.975 205.712 203.913 204.732 203.913 203.29C203.913 201.862 202.975 200.868 201.645 200.868ZM212.355 199.552H213.965V207H212.355V205.544C211.851 206.58 210.913 207.042 209.695 207.056C207.987 207.056 206.965 205.964 206.965 204.186V199.552H208.575V203.738C208.575 204.858 209.233 205.544 210.311 205.544C211.599 205.516 212.355 204.522 212.355 203.22V199.552ZM220.633 199.496C222.747 199.496 224.189 201.036 224.189 203.304C224.189 205.53 222.789 207.056 220.661 207.056C219.471 207.056 218.575 206.58 218.029 205.712V209.716H216.419V199.552H218.029V200.84C218.575 199.972 219.471 199.496 220.633 199.496ZM220.297 205.684C221.627 205.684 222.565 204.676 222.565 203.248C222.565 201.862 221.627 200.84 220.297 200.84C218.967 200.84 218.029 201.848 218.029 203.248C218.029 204.69 218.967 205.684 220.297 205.684ZM233.87 205.292L234.276 206.524C233.688 206.874 233.072 207.07 232.442 207.07C231.322 207.07 230.356 206.426 230.356 204.9V201.036H229.306V199.832H230.356V197.788H231.952V199.832H234.15V201.036H231.952V204.606C231.952 205.376 232.246 205.614 232.75 205.614C233.086 205.614 233.436 205.502 233.87 205.292ZM238.873 199.496C241.169 199.496 242.751 201.022 242.751 203.262C242.751 205.516 241.169 207.056 238.873 207.056C236.563 207.056 234.981 205.516 234.981 203.262C234.981 201.022 236.563 199.496 238.873 199.496ZM238.873 200.868C237.529 200.868 236.591 201.862 236.591 203.29C236.591 204.732 237.529 205.712 238.873 205.712C240.203 205.712 241.141 204.732 241.141 203.29C241.141 201.862 240.203 200.868 238.873 200.868ZM252.912 199.496C255.026 199.496 256.468 201.036 256.468 203.304C256.468 205.53 255.068 207.056 252.94 207.056C251.75 207.056 250.854 206.58 250.308 205.712V209.716H248.698V199.552H250.308V200.84C250.854 199.972 251.75 199.496 252.912 199.496ZM252.576 205.684C253.906 205.684 254.844 204.676 254.844 203.248C254.844 201.862 253.906 200.84 252.576 200.84C251.246 200.84 250.308 201.848 250.308 203.248C250.308 204.69 251.246 205.684 252.576 205.684ZM261.336 199.496C263.632 199.496 265.214 201.022 265.214 203.262C265.214 205.516 263.632 207.056 261.336 207.056C259.026 207.056 257.444 205.516 257.444 203.262C257.444 201.022 259.026 199.496 261.336 199.496ZM261.336 200.868C259.992 200.868 259.054 201.862 259.054 203.29C259.054 204.732 259.992 205.712 261.336 205.712C262.666 205.712 263.604 204.732 263.604 203.29C263.604 201.862 262.666 200.868 261.336 200.868ZM271.178 199.496C273.292 199.496 274.734 201.036 274.734 203.304C274.734 205.53 273.334 207.056 271.206 207.056C270.016 207.056 269.12 206.58 268.574 205.712V209.716H266.964V199.552H268.574V200.84C269.12 199.972 270.016 199.496 271.178 199.496ZM270.842 205.684C272.172 205.684 273.11 204.676 273.11 203.248C273.11 201.862 272.172 200.84 270.842 200.84C269.512 200.84 268.574 201.848 268.574 203.248C268.574 204.69 269.512 205.684 270.842 205.684ZM281.562 199.552H283.172V207H281.562V205.544C281.058 206.58 280.12 207.042 278.902 207.056C277.194 207.056 276.172 205.964 276.172 204.186V199.552H277.782V203.738C277.782 204.858 278.44 205.544 279.518 205.544C280.806 205.516 281.562 204.522 281.562 203.22V199.552ZM285.626 196.612H287.236V207H285.626V196.612ZM295.733 207H294.151V206.09C293.619 206.748 292.765 207.07 291.687 207.07C290.077 207.07 289.069 206.076 289.069 204.76C289.069 203.402 290.091 202.534 291.883 202.52H294.137V202.296C294.137 201.358 293.535 200.798 292.359 200.798C291.645 200.798 290.903 201.05 290.161 201.554L289.503 200.434C290.539 199.818 291.295 199.496 292.709 199.496C294.627 199.496 295.705 200.476 295.719 202.114L295.733 207ZM292.023 205.796C293.171 205.796 294.053 205.194 294.137 204.382V203.696H292.121C291.071 203.696 290.581 203.976 290.581 204.69C290.581 205.362 291.127 205.796 292.023 205.796ZM301.696 205.292L302.102 206.524C301.514 206.874 300.898 207.07 300.268 207.07C299.148 207.07 298.182 206.426 298.182 204.9V201.036H297.132V199.832H298.182V197.788H299.778V199.832H301.976V201.036H299.778V204.606C299.778 205.376 300.072 205.614 300.576 205.614C300.912 205.614 301.262 205.502 301.696 205.292ZM306.573 199.496C309.191 199.496 310.255 201.204 310.059 203.892H304.431C304.683 205.04 305.565 205.754 306.741 205.754C307.553 205.754 308.295 205.446 308.841 204.886L309.695 205.796C308.967 206.594 307.903 207.056 306.615 207.056C304.319 207.056 302.807 205.53 302.807 203.29C302.807 201.036 304.361 199.51 306.573 199.496ZM304.403 202.716H308.659C308.603 201.512 307.805 200.784 306.587 200.784C305.411 200.784 304.571 201.526 304.403 202.716ZM321.423 196.612H323.033V207H321.423V205.726C320.891 206.594 319.995 207.07 318.805 207.07C316.663 207.07 315.235 205.516 315.235 203.248C315.235 201.008 316.677 199.482 318.777 199.482C319.981 199.482 320.877 199.972 321.423 200.84V196.612ZM319.141 205.726C320.485 205.726 321.423 204.718 321.423 203.304C321.423 201.862 320.485 200.854 319.141 200.854C317.797 200.854 316.859 201.876 316.845 203.304C316.859 204.718 317.783 205.726 319.141 205.726ZM331.526 207H329.944V206.09C329.412 206.748 328.558 207.07 327.48 207.07C325.87 207.07 324.862 206.076 324.862 204.76C324.862 203.402 325.884 202.534 327.676 202.52H329.93V202.296C329.93 201.358 329.328 200.798 328.152 200.798C327.438 200.798 326.696 201.05 325.954 201.554L325.296 200.434C326.332 199.818 327.088 199.496 328.502 199.496C330.42 199.496 331.498 200.476 331.512 202.114L331.526 207ZM327.816 205.796C328.964 205.796 329.846 205.194 329.93 204.382V203.696H327.914C326.864 203.696 326.374 203.976 326.374 204.69C326.374 205.362 326.92 205.796 327.816 205.796ZM337.489 205.292L337.895 206.524C337.307 206.874 336.691 207.07 336.061 207.07C334.941 207.07 333.975 206.426 333.975 204.9V201.036H332.925V199.832H333.975V197.788H335.571V199.832H337.769V201.036H335.571V204.606C335.571 205.376 335.865 205.614 336.369 205.614C336.705 205.614 337.055 205.502 337.489 205.292ZM345.43 207H343.848V206.09C343.316 206.748 342.462 207.07 341.384 207.07C339.774 207.07 338.766 206.076 338.766 204.76C338.766 203.402 339.788 202.534 341.58 202.52H343.834V202.296C343.834 201.358 343.232 200.798 342.056 200.798C341.342 200.798 340.6 201.05 339.858 201.554L339.2 200.434C340.236 199.818 340.992 199.496 342.406 199.496C344.324 199.496 345.402 200.476 345.416 202.114L345.43 207ZM341.72 205.796C342.868 205.796 343.75 205.194 343.834 204.382V203.696H341.818C340.768 203.696 340.278 203.976 340.278 204.69C340.278 205.362 340.824 205.796 341.72 205.796Z" fill="#252525"/>
</svg>
