<svg width="30" height="31" viewBox="0 0 30 31" fill="none" xmlns="http://www.w3.org/2000/svg">
<path d="M13.3333 16.0635H13.9999C13.9999 16.4235 14.4566 16.7301 14.9999 16.7301C15.5433 16.7301 15.9999 16.4235 15.9999 16.0635C15.9999 15.6968 15.6533 15.5635 14.9199 15.3868C14.2133 15.2101 13.3333 14.9901 13.3333 14.0635C13.3333 13.4668 13.8233 12.9601 14.4999 12.7901V12.0635H15.4999V12.7901C16.1766 12.9601 16.6666 13.4668 16.6666 14.0635H15.9999C15.9999 13.7035 15.5433 13.3968 14.9999 13.3968C14.4566 13.3968 13.9999 13.7035 13.9999 14.0635C13.9999 14.4301 14.3466 14.5635 15.0799 14.7401C15.7866 14.9168 16.6666 15.1368 16.6666 16.0635C16.6666 16.6601 16.1766 17.1668 15.4999 17.3368V18.0635H14.4999V17.3368C13.8233 17.1668 13.3333 16.6601 13.3333 16.0635Z" fill="white"/>
<path d="M4.4411 11.438C5.25547 7.96626 7.96626 5.25546 11.438 4.4411C13.9453 3.85297 16.5547 3.85297 19.062 4.4411C22.5337 5.25547 25.2445 7.96626 26.0589 11.438C26.647 13.9453 26.647 16.5547 26.0589 19.062C25.2445 22.5337 22.5337 25.2445 19.062 26.0589C16.5547 26.647 13.9453 26.647 11.438 26.0589C7.96626 25.2445 5.25547 22.5337 4.4411 19.062C3.85297 16.5547 3.85297 13.9453 4.4411 11.438Z" fill="#F8FAFF" fill-opacity="0.15" stroke="#F8FAFF" stroke-width="1.35" stroke-linecap="round"/>
<g clip-path="url(#clip0_15317_6846)">
<path d="M22.0001 16.3335C22.6416 16.3335 23.2695 16.5186 23.8085 16.8666C24.3474 17.2146 24.7745 17.7107 25.0384 18.2954C25.3024 18.8801 25.392 19.5286 25.2965 20.163C25.201 20.7974 24.9245 21.3907 24.5001 21.8718V25.3652C24.5001 25.5214 24.4602 25.6751 24.3841 25.8116C24.308 25.9481 24.1983 26.0629 24.0654 26.145C23.9324 26.2272 23.7807 26.274 23.6246 26.281C23.4685 26.2881 23.3132 26.2551 23.1734 26.1852L22.0001 25.5985L20.8267 26.1852C20.687 26.2551 20.5317 26.2881 20.3756 26.281C20.2194 26.274 20.0677 26.2272 19.9348 26.145C19.8019 26.0629 19.6922 25.9481 19.6161 25.8116C19.54 25.6751 19.5001 25.5214 19.5001 25.3652V21.8718C19.0757 21.3907 18.7992 20.7974 18.7037 20.163C18.6082 19.5286 18.6978 18.8801 18.9618 18.2954C19.2257 17.7107 19.6528 17.2146 20.1917 16.8666C20.7306 16.5186 21.3586 16.3335 22.0001 16.3335ZM23.6667 11.3335C24.1088 11.3335 24.5327 11.5091 24.8453 11.8217C25.1578 12.1342 25.3334 12.5581 25.3334 13.0002V14.6668C25.3334 14.8878 25.2456 15.0998 25.0893 15.2561C24.9331 15.4124 24.7211 15.5002 24.5001 15.5002C24.2791 15.5002 24.0671 15.4124 23.9108 15.2561C23.7545 15.0998 23.6667 14.8878 23.6667 14.6668V13.0002H10.3334V23.0002H17.0001C17.2211 23.0002 17.4331 23.088 17.5893 23.2442C17.7456 23.4005 17.8334 23.6125 17.8334 23.8335C17.8334 24.0545 17.7456 24.2665 17.5893 24.4228C17.4331 24.579 17.2211 24.6668 17.0001 24.6668H10.3334C9.89139 24.6668 9.46746 24.4912 9.1549 24.1787C8.84234 23.8661 8.66675 23.4422 8.66675 23.0002V13.0002C8.66675 12.5581 8.84234 12.1342 9.1549 11.8217C9.46746 11.5091 9.89139 11.3335 10.3334 11.3335H23.6667ZM22.8334 22.8952C22.2868 23.0363 21.7133 23.0363 21.1667 22.8952V24.1518L21.6276 23.9218C21.7432 23.864 21.8708 23.8339 22.0001 23.8339C22.1294 23.8339 22.2569 23.864 22.3726 23.9218L22.8334 24.1518V22.8952ZM22.0001 18.0002C21.5581 18.0002 21.1341 18.1758 20.8216 18.4883C20.509 18.8009 20.3334 19.2248 20.3334 19.6668C20.3334 20.1089 20.509 20.5328 20.8216 20.8453C21.1341 21.1579 21.5581 21.3335 22.0001 21.3335C22.4421 21.3335 22.866 21.1579 23.1786 20.8453C23.4912 20.5328 23.6667 20.1089 23.6667 19.6668C23.6667 19.2248 23.4912 18.8009 23.1786 18.4883C22.866 18.1758 22.4421 18.0002 22.0001 18.0002ZM14.5001 18.8335C14.7125 18.8337 14.9168 18.9151 15.0712 19.0609C15.2257 19.2067 15.3186 19.406 15.3311 19.618C15.3435 19.83 15.2745 20.0388 15.1382 20.2017C15.0019 20.3646 14.8085 20.4692 14.5976 20.4943L14.5001 20.5002H12.8334C12.621 20.4999 12.4167 20.4186 12.2623 20.2728C12.1078 20.127 12.0149 19.9277 12.0024 19.7157C11.99 19.5036 12.059 19.2948 12.1953 19.132C12.3316 18.9691 12.525 18.8644 12.7359 18.8393L12.8334 18.8335H14.5001ZM17.8334 15.5002C18.0544 15.5002 18.2664 15.588 18.4227 15.7442C18.5789 15.9005 18.6667 16.1125 18.6667 16.3335C18.6667 16.5545 18.5789 16.7665 18.4227 16.9228C18.2664 17.079 18.0544 17.1668 17.8334 17.1668H12.8334C12.6124 17.1668 12.4004 17.079 12.2442 16.9228C12.0879 16.7665 12.0001 16.5545 12.0001 16.3335C12.0001 16.1125 12.0879 15.9005 12.2442 15.7442C12.4004 15.588 12.6124 15.5002 12.8334 15.5002H17.8334Z" fill="#5063F4"/>
<path d="M14.5 15.9688C14.5 16.0931 14.4506 16.2123 14.3627 16.3002C14.2748 16.3881 14.1556 16.4375 14.0312 16.4375H11.2188C11.0944 16.4375 10.9752 16.3881 10.8873 16.3002C10.7994 16.2123 10.75 16.0931 10.75 15.9688C10.75 15.8444 10.7994 15.7252 10.8873 15.6373C10.9752 15.5494 11.0944 15.5 11.2188 15.5H14.0312C14.1556 15.5 14.2748 15.5494 14.3627 15.6373C14.4506 15.7252 14.5 15.8444 14.5 15.9688ZM14.0312 13.625H11.2188C11.0944 13.625 10.9752 13.6744 10.8873 13.7623C10.7994 13.8502 10.75 13.9694 10.75 14.0938C10.75 14.2181 10.7994 14.3373 10.8873 14.4252C10.9752 14.5131 11.0944 14.5625 11.2188 14.5625H14.0312C14.1556 14.5625 14.2748 14.5131 14.3627 14.4252C14.4506 14.3373 14.5 14.2181 14.5 14.0938C14.5 13.9694 14.4506 13.8502 14.3627 13.7623C14.2748 13.6744 14.1556 13.625 14.0312 13.625ZM20.5938 17.4611V21.125C20.5945 21.2076 20.5734 21.289 20.5325 21.3609C20.4917 21.4327 20.4326 21.4925 20.3612 21.5341C20.2898 21.5758 20.2087 21.5978 20.1261 21.598C20.0434 21.5981 19.9622 21.5765 19.8906 21.5352L18.4844 20.7301L17.0781 21.5352C17.0066 21.5765 16.9253 21.5981 16.8427 21.598C16.7601 21.5978 16.6789 21.5758 16.6075 21.5341C16.5362 21.4925 16.477 21.4327 16.4362 21.3609C16.3954 21.289 16.3743 21.2076 16.375 21.125V19.7188H9.34375C9.09511 19.7188 8.85665 19.62 8.68084 19.4442C8.50502 19.2683 8.40625 19.0299 8.40625 18.7812V11.2812C8.40625 11.0326 8.50502 10.7942 8.68084 10.6183C8.85665 10.4425 9.09511 10.3438 9.34375 10.3438H19.6562C19.9049 10.3438 20.1433 10.4425 20.3192 10.6183C20.495 10.7942 20.5938 11.0326 20.5938 11.2812V13.0701C20.8901 13.3539 21.1259 13.6947 21.287 14.072C21.4481 14.4493 21.5311 14.8554 21.5311 15.2656C21.5311 15.6759 21.4481 16.0819 21.287 16.4592C21.1259 16.8366 20.8901 17.1774 20.5938 17.4611ZM16.375 18.7812V17.4611C15.8642 16.9685 15.5414 16.313 15.4622 15.6078C15.3831 14.9025 15.5526 14.1918 15.9415 13.5982C16.3305 13.0046 16.9144 12.5654 17.5926 12.3563C18.2707 12.1473 19.0006 12.1815 19.6562 12.4531V11.2812H9.34375V18.7812H16.375ZM19.6562 18.0781C19.285 18.2332 18.8867 18.3131 18.4844 18.3131C18.0821 18.3131 17.6837 18.2332 17.3125 18.0781V20.3176L18.25 19.7809C18.3208 19.7404 18.401 19.7191 18.4826 19.7191C18.5642 19.7191 18.6444 19.7404 18.7152 19.7809L19.6527 20.3176L19.6562 18.0781ZM20.5938 15.2656C20.5938 14.8484 20.47 14.4406 20.2383 14.0937C20.0065 13.7468 19.677 13.4765 19.2916 13.3168C18.9062 13.1572 18.482 13.1154 18.0729 13.1968C17.6637 13.2782 17.2878 13.4791 16.9928 13.7741C16.6978 14.0691 16.4969 14.4449 16.4155 14.8541C16.3341 15.2633 16.3759 15.6874 16.5356 16.0728C16.6952 16.4583 16.9656 16.7877 17.3125 17.0195C17.6594 17.2513 18.0672 17.375 18.4844 17.375C18.7614 17.375 19.0357 17.3204 19.2916 17.2144C19.5475 17.1084 19.7801 16.9531 19.9759 16.7572C20.1718 16.5613 20.3272 16.3288 20.4332 16.0728C20.5392 15.8169 20.5938 15.5426 20.5938 15.2656Z" fill="white"/>
</g>
<defs>
<clipPath id="clip0_15317_6846">
<rect width="15" height="15" fill="white" transform="translate(7 8)"/>
</clipPath>
</defs>
</svg>
