<svg width="28" height="38" viewBox="0 0 28 38" fill="none" xmlns="http://www.w3.org/2000/svg">
<g id="Group 26782">
<path id="Ellipse 658" d="M10.509 13.8667C14.3382 13.8667 17.4424 10.7625 17.4424 6.93333C17.4424 3.10416 14.3382 0 10.509 0C6.67984 0 3.57568 3.10416 3.57568 6.93333C3.57568 10.7625 6.67984 13.8667 10.509 13.8667Z" fill="#DFEAFB"/>
<path id="Path 25916" d="M15.9265 36.5661C14.8172 36.5661 13.7814 36.5661 12.8384 36.5065C11.6769 36.4279 10.5596 36.0305 9.60943 35.3579C8.65922 34.6854 7.91291 33.7638 7.45261 32.6945L1.60227 21.1325C1.17317 20.6329 0.958927 19.9839 1.0062 19.3271C1.05347 18.6702 1.35843 18.0586 1.85464 17.6256C2.26117 17.2989 2.7683 17.123 3.28984 17.1278C3.67381 17.139 4.05079 17.2333 4.3948 17.4042C4.73881 17.5751 5.04166 17.8186 5.28248 18.1179L7.93933 21.744L7.97954 21.7912V8.01463C7.97954 7.33113 8.25106 6.67562 8.73436 6.19232C9.21767 5.70902 9.87318 5.4375 10.5567 5.4375C11.2402 5.4375 11.8957 5.70902 12.379 6.19232C12.8623 6.67562 13.1338 7.33113 13.1338 8.01463V17.028C13.1039 16.6963 13.1433 16.362 13.2497 16.0465C13.3561 15.7309 13.5271 15.4409 13.7517 15.1951C13.9764 14.9493 14.2498 14.7529 14.5545 14.6186C14.8592 14.4843 15.1886 14.4149 15.5216 14.4149C15.8546 14.4149 16.184 14.4843 16.4887 14.6186C16.7935 14.7529 17.0669 14.9493 17.2915 15.1951C17.5162 15.4409 17.6871 15.7309 17.7935 16.0465C17.8999 16.362 17.9394 16.6963 17.9095 17.028V18.9069C17.8795 18.5752 17.919 18.2409 18.0254 17.9254C18.1318 17.6098 18.3028 17.3199 18.5274 17.074C18.7521 16.8282 19.0255 16.6319 19.3302 16.4975C19.6349 16.3632 19.9643 16.2938 20.2973 16.2938C20.6303 16.2938 20.9597 16.3632 21.2644 16.4975C21.5691 16.6319 21.8425 16.8282 22.0672 17.074C22.2918 17.3199 22.4628 17.6098 22.5692 17.9254C22.6756 18.2409 22.7151 18.5752 22.6851 18.9069V20.3546C22.6552 20.0229 22.6947 19.6886 22.8011 19.3731C22.9075 19.0575 23.0785 18.7676 23.3031 18.5217C23.5277 18.2759 23.8012 18.0795 24.1059 17.9452C24.4106 17.8109 24.74 17.7415 25.073 17.7415C25.406 17.7415 25.7354 17.8109 26.0401 17.9452C26.3448 18.0795 26.6182 18.2759 26.8429 18.5217C27.0675 18.7676 27.2385 19.0575 27.3449 19.3731C27.4513 19.6886 27.4908 20.0229 27.4608 20.3546V29.1419C27.4137 31.8445 26.192 36.4011 21.8947 36.4011C21.5827 36.4149 18.9398 36.5675 15.9321 36.5675L15.9265 36.5661Z" fill="#5063F4" stroke="white"/>
</g>
</svg>
