<svg width="157" height="157" viewBox="0 0 157 157" fill="none" xmlns="http://www.w3.org/2000/svg">
<g id="Group 1707478164">
<g id="Group">
<g id="Group_2">
<path id="Vector" d="M1.92994 7.03628C4.14394 33.5329 6.2151 60.458 0.787229 86.7403C0.501552 88.0972 2.57271 88.6686 2.85839 87.3116C8.35767 60.815 6.28652 33.7471 4.07252 7.03628C3.92968 5.67931 1.7871 5.67931 1.92994 7.03628Z" fill="#E8E8E8" fill-opacity="0.5"/>
</g>
</g>
<g id="Group_3">
<g id="Group_4">
<path id="Vector_2" d="M3.1437 7.75065C16.2849 8.32201 29.4974 8.32202 42.6386 7.67924C53.9943 7.10789 66.3498 7.10789 76.9199 2.53705C78.2054 1.9657 77.0627 0.108789 75.8486 0.680143C64.85 5.46524 51.6375 5.17956 39.8533 5.6795C27.6406 6.17943 15.3564 6.17943 3.1437 5.60807C1.78673 5.53665 1.78673 7.67923 3.1437 7.75065Z" fill="#E8E8E8" fill-opacity="0.5"/>
</g>
</g>
<g id="Group_5">
<g id="Group_6">
<path id="Vector_3" d="M75.1349 2.25156C81.9911 28.391 83.6338 55.6732 79.8486 82.4555C79.6343 83.8124 81.7055 84.3838 81.9197 83.0268C85.7049 55.8161 84.1337 28.2482 77.2061 1.6802C76.9204 0.323233 74.8492 0.894589 75.1349 2.25156Z" fill="#E8E8E8" fill-opacity="0.5"/>
</g>
</g>
<g id="Group_7">
<g id="Group_8">
<path id="Vector_4" d="M1.35834 87.812C15.4994 90.9544 30.0689 91.2401 44.4956 90.2402C51.7804 89.7403 59.1366 88.8832 66.4214 88.0262C71.635 87.3834 77.0628 87.0978 81.348 83.741C82.4193 82.884 80.9195 81.3842 79.8482 82.2413C74.9917 86.0265 67.4212 85.8122 61.6363 86.455C55.0657 87.2406 48.4237 87.8834 41.7817 88.3119C28.4263 89.0975 15.0709 88.7404 2.00113 85.8122C0.572744 85.4551 0.00137132 87.5263 1.35834 87.812Z" fill="#E8E8E8" fill-opacity="0.5"/>
</g>
</g>
<g id="Group_9">
<g id="Group_10">
<path id="Vector_5" d="M7.07192 81.5268C8.78599 81.5982 10.4286 81.0269 12.1427 80.884C14.2139 80.7412 16.1422 80.9555 18.1419 81.4554C19.4989 81.8125 20.0703 79.7413 18.7133 79.3842C16.8564 78.8843 14.9281 78.5986 12.9997 78.67C11 78.7415 9.07167 79.4557 7.07192 79.3842C5.71496 79.3128 5.71496 81.4554 7.07192 81.5268Z" fill="#E8E8E8" fill-opacity="0.5"/>
</g>
</g>
<g id="Group_11">
<g id="Group_12">
<path id="Vector_6" d="M8.35757 76.5276C11.8571 76.599 15.4281 76.599 18.9276 76.6705C20.2846 76.6705 20.2846 74.5279 18.9276 74.5279C15.4281 74.4565 11.8571 74.4565 8.35757 74.385C7.0006 74.3136 7.0006 76.4562 8.35757 76.5276Z" fill="#E8E8E8" fill-opacity="0.5"/>
</g>
</g>
<g id="Group_13">
<g id="Group_14">
<path id="Vector_7" d="M9.07144 71.1712C12.2139 71.314 15.2849 71.4568 18.4274 71.5997C19.7843 71.6711 19.7843 69.5285 18.4274 69.4571C15.2849 69.3143 12.2139 69.1714 9.07144 69.0286C7.71447 68.9572 7.71447 71.0998 9.07144 71.1712Z" fill="#E8E8E8" fill-opacity="0.5"/>
</g>
</g>
<g id="Group_15">
<g id="Group_16">
<path id="Vector_8" d="M10.0714 57.6015C13.571 57.173 17.0705 56.9587 20.6415 57.0301C21.9985 57.0301 21.9985 54.8876 20.6415 54.8876C17.1419 54.8161 13.571 55.0304 10.0714 55.4589C8.71447 55.6732 8.71447 57.8158 10.0714 57.6015Z" fill="#E8E8E8" fill-opacity="0.5"/>
</g>
</g>
<g id="Group_17">
<g id="Group_18">
<path id="Vector_9" d="M10.7853 51.9595C14.142 52.0309 17.4987 52.1023 20.8554 52.1737C22.2124 52.1737 22.2124 50.0312 20.8554 50.0312C17.4987 49.9597 14.142 49.8883 10.7853 49.8169C9.42834 49.8169 9.42834 51.9595 10.7853 51.9595Z" fill="#E8E8E8" fill-opacity="0.5"/>
</g>
</g>
<g id="Group_19">
<g id="Group_20">
<path id="Vector_10" d="M10.0714 47.1028C13.1425 47.3171 16.1421 47.2456 19.1417 46.96C20.4987 46.8171 20.4987 44.6745 19.1417 44.8174C16.1421 45.1745 13.071 45.1745 10.0714 44.9602C8.71447 44.8174 8.71447 46.96 10.0714 47.1028Z" fill="#E8E8E8" fill-opacity="0.5"/>
</g>
</g>
<g id="Group_21">
<g id="Group_22">
<path id="Vector_11" d="M10.5714 33.3906C14.2852 32.6764 17.999 32.3193 21.8556 32.3908C23.2126 32.3908 23.2126 30.2482 21.8556 30.2482C17.8562 30.1768 13.9281 30.5339 10 31.3195C8.71447 31.6052 9.28584 33.6763 10.5714 33.3906Z" fill="#E8E8E8" fill-opacity="0.5"/>
</g>
</g>
<g id="Group_23">
<g id="Group_24">
<path id="Vector_12" d="M10.3569 28.1768C14.3564 28.2482 18.3559 28.2482 22.4268 28.034C23.7838 27.9626 23.7838 25.82 22.4268 25.8914C18.4273 26.1057 14.4278 26.1771 10.3569 26.0342C8.92855 25.9628 8.92855 28.1054 10.3569 28.1768Z" fill="#E8E8E8" fill-opacity="0.5"/>
</g>
</g>
<g id="Group_25">
<g id="Group_26">
<path id="Vector_13" d="M8.85708 22.6059C13.2851 22.7487 17.7131 22.5345 22.1411 22.106C23.4981 21.9631 23.4981 19.8205 22.1411 19.9634C17.7131 20.3919 13.2851 20.6062 8.85708 20.4633C7.50011 20.4633 7.50011 22.6059 8.85708 22.6059Z" fill="#E8E8E8" fill-opacity="0.5"/>
</g>
</g>
<g id="Group_27">
<g id="Group_28">
<path id="Vector_14" d="M32.7115 20.6061C43.7815 18.9634 54.9229 18.1778 66.0644 18.3207C67.4213 18.3207 67.4213 16.1781 66.0644 16.1781C54.7087 16.0353 43.353 16.8209 32.1402 18.5349C30.7832 18.7492 31.3545 20.8203 32.7115 20.6061Z" fill="#E8E8E8" fill-opacity="0.5"/>
</g>
</g>
<g id="Group_29">
<g id="Group_30">
<path id="Vector_15" d="M34.9253 24.6057C45.9239 23.6773 56.9939 23.1059 68.0639 22.7488C69.4209 22.6774 69.4209 20.5348 68.0639 20.6062C56.9939 20.8919 45.9239 21.5347 34.9253 22.4631C33.4969 22.606 33.4969 24.7486 34.9253 24.6057Z" fill="#E8E8E8" fill-opacity="0.5"/>
</g>
</g>
<g id="Group_31">
<g id="Group_32">
<path id="Vector_16" d="M34.0685 29.3909C45.4956 28.8196 56.9941 30.1765 68.4212 28.9624C69.7782 28.8196 69.7782 26.677 68.4212 26.8198C56.9941 28.1054 45.4956 26.677 34.0685 27.2483C32.7115 27.3198 32.7115 29.4623 34.0685 29.3909Z" fill="#E8E8E8" fill-opacity="0.5"/>
</g>
</g>
<g id="Group_33">
<g id="Group_34">
<path id="Vector_17" d="M27.2832 47.1032C32.2826 47.1032 37.2819 47.0317 42.2813 47.0317C43.6382 47.0317 43.6382 44.8892 42.2813 44.8892C37.2819 44.8892 32.2826 44.9606 27.2832 44.9606C25.8548 44.9606 25.8548 47.1032 27.2832 47.1032Z" fill="#E8E8E8" fill-opacity="0.5"/>
</g>
</g>
<g id="Group_35">
<g id="Group_36">
<path id="Vector_18" d="M27.7837 52.5304C33.1401 52.3876 38.568 52.2448 43.9245 52.1733C45.4243 52.1733 59.7081 51.3877 59.7081 51.5306C60.1367 52.8161 62.2078 52.3162 61.7793 50.9592C61.3508 49.4594 60.0652 49.6737 58.7083 49.6737C55.423 49.6737 52.1377 49.8165 48.8524 49.8879C41.8533 50.0308 34.7828 50.245 27.7837 50.3879C26.3553 50.3879 26.3553 52.5304 27.7837 52.5304Z" fill="#E8E8E8" fill-opacity="0.5"/>
</g>
</g>
<g id="Group_37">
<g id="Group_38">
<path id="Vector_19" d="M27.7837 57.887C32.0689 58.1013 36.2826 58.1012 40.5678 58.0298C41.9247 57.9584 41.9247 55.8158 40.5678 55.8872C36.2826 56.0301 32.0689 55.9587 27.7837 55.7444C26.3553 55.673 26.3553 57.8156 27.7837 57.887Z" fill="#E8E8E8" fill-opacity="0.5"/>
</g>
</g>
<g id="Group_39">
<g id="Group_40">
<path id="Vector_20" d="M25.2838 70.1716C39.5677 69.2431 53.923 68.886 68.2783 69.1003C69.6353 69.1003 69.6353 66.9577 68.2783 66.9577C53.923 66.7435 39.6391 67.1006 25.2838 68.029C23.9269 68.1004 23.9269 70.243 25.2838 70.1716Z" fill="#E8E8E8" fill-opacity="0.5"/>
</g>
</g>
<g id="Group_41">
<g id="Group_42">
<path id="Vector_21" d="M27.4982 74.8852C31.0692 74.8137 34.7115 74.7423 38.2825 74.6709C39.6395 74.6709 39.6395 72.5283 38.2825 72.5283C34.7115 72.5997 31.0692 72.6712 27.4982 72.7426C26.1412 72.7426 26.1412 74.8852 27.4982 74.8852Z" fill="#E8E8E8" fill-opacity="0.5"/>
</g>
</g>
<g id="Group_43">
<g id="Group_44">
<path id="Vector_22" d="M46.9236 74.8139C52.7086 74.2426 58.565 73.7426 64.3499 73.3855C65.7069 73.3141 65.7069 71.1715 64.3499 71.243C58.4935 71.6001 52.7086 72.1 46.9236 72.6713C45.5666 72.8142 45.4952 74.9568 46.9236 74.8139Z" fill="#E8E8E8" fill-opacity="0.5"/>
</g>
</g>
<g id="Group_45">
<g id="Group_46">
<path id="Vector_23" d="M26.4977 81.7412C38.2105 81.5984 49.9233 81.2413 61.636 80.8128C62.993 80.7414 62.993 78.5988 61.636 78.6702C49.9233 79.1701 38.2105 79.4558 26.4977 79.5986C25.1407 79.5986 25.1407 81.7412 26.4977 81.7412Z" fill="#E8E8E8" fill-opacity="0.5"/>
</g>
</g>
<g id="Group_47">
<g id="Group_48">
<path id="Vector_24" d="M83.8477 39.8178C102.345 36.3897 121.129 34.7471 139.983 34.8899C139.626 34.6042 139.269 34.39 138.983 34.1043C149.982 69.1712 155.267 105.881 154.624 142.662C154.624 144.019 156.767 144.019 156.767 142.662C157.41 105.738 152.125 68.8141 141.055 33.533C140.912 33.1044 140.483 32.7473 140.055 32.7473C121.057 32.6045 102.06 34.2471 83.3478 37.7467C81.9194 37.9609 82.4908 40.0321 83.8477 39.8178Z" fill="#E8E8E8" fill-opacity="0.5"/>
</g>
</g>
<g id="Group_49">
<g id="Group_50">
<path id="Vector_25" d="M45.7097 89.3831C46.9952 109.452 44.2098 129.449 37.425 148.304C36.9965 149.59 38.9962 150.161 39.4962 148.875C46.281 129.806 49.1378 109.595 47.8522 89.3831C47.7808 88.0261 45.6382 87.9547 45.7097 89.3831Z" fill="#E8E8E8" fill-opacity="0.5"/>
</g>
</g>
<g id="Group_51">
<g id="Group_52">
<path id="Vector_26" d="M37.7821 149.875C55.7798 157.517 75.4915 156.731 94.5605 154.946C115.344 152.946 135.769 149.59 155.767 143.662C157.052 143.305 156.553 141.233 155.196 141.591C135.769 147.304 115.986 150.732 95.7746 152.661C76.7771 154.517 56.8511 155.66 38.8534 148.018C37.6393 147.447 36.568 149.304 37.7821 149.875Z" fill="#E8E8E8" fill-opacity="0.5"/>
</g>
</g>
<g id="Group_53">
<g id="Group_54">
<path id="Vector_27" d="M89.4898 47.0316C93.2036 46.3889 96.9175 46.1746 100.703 46.3174C102.06 46.3889 102.06 44.2463 100.703 44.1749C96.7032 44.032 92.7751 44.3177 88.9185 45.0319C87.5615 45.2462 88.1329 47.2459 89.4898 47.0316Z" fill="#E8E8E8" fill-opacity="0.5"/>
</g>
</g>
<g id="Group_55">
<g id="Group_56">
<path id="Vector_28" d="M88.9186 52.4592C93.9894 51.9592 99.0601 51.5307 104.131 51.1736C105.488 51.1022 105.488 48.9596 104.131 49.031C99.0601 49.3881 93.9894 49.8166 88.9186 50.3166C87.5616 50.4594 87.5616 52.602 88.9186 52.4592Z" fill="#E8E8E8" fill-opacity="0.5"/>
</g>
</g>
<g id="Group_57">
<g id="Group_58">
<path id="Vector_29" d="M91.2036 60.5297V60.6012C91.5607 60.3155 91.9178 60.1012 92.2035 59.8155C92.1321 59.8155 92.1321 59.8155 92.0606 59.8155C92.3463 59.9584 92.7034 60.1727 92.9891 60.3155C92.9891 60.2441 92.9177 60.2441 92.9177 60.1726C92.8463 60.6012 92.7748 61.0297 92.7748 61.4582C92.2749 61.601 92.3463 61.6724 93.0605 61.601C93.489 61.601 93.9176 61.601 94.2747 61.601C94.9889 61.601 95.703 61.5296 96.4172 61.5296C97.8456 61.3868 99.274 61.2439 100.702 60.9583C102.059 60.744 101.488 58.6728 100.131 58.8871C98.2741 59.2442 96.4172 59.387 94.5603 59.4584C93.4176 59.4584 92.0606 59.1014 91.2036 59.9584C90.8465 60.3155 90.8465 60.8868 91.0608 61.2439C91.3465 61.6724 91.7035 61.8867 92.2035 61.8867C92.632 61.8867 93.1319 61.5296 93.2034 61.1011V61.0297C93.5605 59.7441 91.4893 59.1728 91.2036 60.5297Z" fill="#E8E8E8" fill-opacity="0.5"/>
</g>
</g>
<g id="Group_59">
<g id="Group_60">
<path id="Vector_30" d="M89.7042 70.9569C95.7034 70.0999 101.703 68.9571 107.773 69.1714C109.13 69.2428 109.13 67.1002 107.773 67.0288C101.488 66.8146 95.2749 68.0287 89.1328 68.8857C87.7759 69.1 88.3472 71.1711 89.7042 70.9569Z" fill="#E8E8E8" fill-opacity="0.5"/>
</g>
</g>
<g id="Group_61">
<g id="Group_62">
<path id="Vector_31" d="M112.986 44.746C119.843 43.8175 126.699 43.3176 133.555 43.1033C134.912 43.0319 134.912 40.8893 133.555 40.9607C126.628 41.175 119.771 41.6749 112.986 42.6034C111.63 42.7462 111.63 44.8888 112.986 44.746Z" fill="#E8E8E8" fill-opacity="0.5"/>
</g>
</g>
<g id="Group_63">
<g id="Group_64">
<path id="Vector_32" d="M117.915 53.7447C122.2 53.0306 126.414 52.3878 130.699 51.6736C132.056 51.4593 131.484 49.3882 130.127 49.6024C125.842 50.3166 121.628 50.9594 117.343 51.6736C115.986 51.8879 116.558 53.959 117.915 53.7447Z" fill="#E8E8E8" fill-opacity="0.5"/>
</g>
</g>
<g id="Group_65">
<g id="Group_66">
<path id="Vector_33" d="M119.343 66.2431C122.986 65.886 126.7 65.7432 130.413 65.7432C131.77 65.7432 131.77 63.6006 130.413 63.6006C126.7 63.6006 123.057 63.7434 119.343 64.1005C117.986 64.2433 117.986 66.3859 119.343 66.2431Z" fill="#E8E8E8" fill-opacity="0.5"/>
</g>
</g>
<g id="Group_67">
<g id="Group_68">
<path id="Vector_34" d="M125.771 70.3138C130.27 69.671 134.698 69.2425 139.269 68.9568C140.626 68.8854 140.626 66.7428 139.269 66.8142C134.555 67.0999 129.913 67.5999 125.199 68.2426C123.842 68.4569 124.414 70.4566 125.771 70.3138Z" fill="#E8E8E8" fill-opacity="0.5"/>
</g>
</g>
<g id="Group_69">
<g id="Group_70">
<path id="Vector_35" d="M54.9943 124.807C56.3513 124.807 56.3513 122.665 54.9943 122.665C53.6373 122.665 53.6373 124.807 54.9943 124.807Z" fill="#E8E8E8" fill-opacity="0.5"/>
</g>
</g>
<g id="Group_71">
<g id="Group_72">
<path id="Vector_36" d="M52.7086 122.879C54.4941 123.45 56.2082 123.236 58.0651 123.164C60.4933 123.093 62.9216 123.236 65.3499 123.45C66.7068 123.593 66.7068 121.45 65.3499 121.307C63.2787 121.093 61.1361 120.95 59.0649 121.022C57.208 121.022 55.1369 121.45 53.3514 120.808C51.9944 120.379 51.4231 122.45 52.7086 122.879Z" fill="#E8E8E8" fill-opacity="0.5"/>
</g>
</g>
<g id="Group_73">
<g id="Group_74">
<path id="Vector_37" d="M55.2799 129.306C59.208 128.949 63.1361 129.021 67.0641 129.592C68.4211 129.735 68.4211 127.592 67.0641 127.449C63.1361 126.949 59.208 126.878 55.2799 127.164C53.923 127.307 53.923 129.449 55.2799 129.306Z" fill="#E8E8E8" fill-opacity="0.5"/>
</g>
</g>
<g id="Group_75">
<g id="Group_76">
<path id="Vector_38" d="M49.0667 138.377C52.4234 139.662 55.923 139.448 59.4939 139.448C63.6362 139.448 67.7785 139.448 71.9209 139.448C79.2056 139.448 87.0618 140.234 94.1323 138.091C95.4178 137.663 94.9179 135.591 93.561 136.02C86.7047 138.163 78.9914 137.305 71.9209 137.305C68.2071 137.305 64.5647 137.305 60.8509 137.305C57.0656 137.305 53.209 137.663 49.5666 136.306C48.2811 135.806 47.7811 137.877 49.0667 138.377Z" fill="#E8E8E8" fill-opacity="0.5"/>
</g>
</g>
<g id="Group_77">
<g id="Group_78">
<path id="Vector_39" d="M85.9905 128.235C88.276 128.092 90.5614 128.021 92.8468 127.878C95.1322 127.735 97.4891 127.378 99.6317 128.306C100.917 128.806 101.489 126.735 100.203 126.235C98.1318 125.378 96.0607 125.592 93.8467 125.735C91.2041 125.878 88.5617 126.021 85.9191 126.164C84.5622 126.164 84.5621 128.306 85.9905 128.235Z" fill="#E8E8E8" fill-opacity="0.5"/>
</g>
</g>
<g id="Group_79">
<g id="Group_80">
<path id="Vector_40" d="M77.1343 147.733C88.6328 147.304 100.06 146.661 111.558 145.733C112.915 145.59 112.915 143.447 111.558 143.59C100.131 144.519 88.6328 145.162 77.1343 145.59C75.7059 145.661 75.7059 147.804 77.1343 147.733Z" fill="#E8E8E8" fill-opacity="0.5"/>
</g>
</g>
</g>
</svg>
