<svg width="359" height="320" viewBox="0 0 359 320" fill="none" xmlns="http://www.w3.org/2000/svg">
<path d="M0.935059 160C0.935059 202.435 17.7922 243.131 47.798 273.137C77.8038 303.143 118.5 320 160.935 320C203.37 320 244.066 303.143 274.072 273.137C304.078 243.131 320.935 202.435 320.935 160C320.935 117.565 304.078 76.8687 274.072 46.8629C244.066 16.8571 203.37 0 160.935 0C118.5 0 77.8038 16.8571 47.798 46.8629C17.7922 76.8687 0.935059 117.565 0.935059 160Z" fill="#EFF2FE"/>
<path d="M204.935 282.6C204.935 279.288 185.235 276.6 160.935 276.6C136.635 276.6 116.935 279.288 116.935 282.6C116.935 285.912 136.635 288.6 160.935 288.6C185.235 288.6 204.935 285.912 204.935 282.6Z" fill="#EFF2FE"/>
<path d="M207.231 157.381L164.699 72.3169C164.349 71.6178 163.812 71.0298 163.147 70.6188C162.483 70.2079 161.716 69.9902 160.935 69.9902C160.153 69.9902 159.387 70.2079 158.722 70.6188C158.058 71.0298 157.52 71.6178 157.171 72.3169L114.639 157.381L60.7109 110.641C60.0483 110.065 59.2221 109.71 58.3479 109.627C57.4737 109.544 56.5954 109.736 55.836 110.177C55.0766 110.618 54.4743 111.285 54.1133 112.086C53.7522 112.886 53.6507 113.78 53.8229 114.641L76.7589 233.157C76.7589 233.157 76.7589 254.201 160.935 254.201C245.111 254.201 245.107 233.157 245.107 233.157L268.047 114.641C268.219 113.78 268.118 112.886 267.757 112.086C267.396 111.285 266.793 110.618 266.034 110.177C265.274 109.736 264.396 109.544 263.522 109.627C262.648 109.71 261.821 110.065 261.159 110.641L207.231 157.381Z" fill="white"/>
<path d="M73.1509 214.484L76.7509 233.136C76.7509 233.136 76.7509 254.18 160.927 254.18C245.103 254.18 245.099 233.136 245.099 233.136L248.699 214.484C240.619 220.656 218.963 228.928 160.915 228.928C102.867 228.928 81.2269 220.656 73.1509 214.484Z" fill="#EFF2FE"/>
<path d="M73.1509 214.484C81.2269 220.656 102.883 228.928 160.935 228.928C218.987 228.928 240.639 220.656 248.719 214.484" stroke="#5063F4" stroke-width="4" stroke-linejoin="round"/>
<path d="M207.231 157.381L164.699 72.3169C164.349 71.6178 163.812 71.0298 163.147 70.6188C162.483 70.2079 161.716 69.9902 160.935 69.9902C160.153 69.9902 159.387 70.2079 158.722 70.6188C158.058 71.0298 157.52 71.6178 157.171 72.3169L114.639 157.381L60.7109 110.641C60.0483 110.065 59.2221 109.71 58.3479 109.627C57.4737 109.544 56.5954 109.736 55.836 110.177C55.0766 110.618 54.4743 111.285 54.1133 112.086C53.7522 112.886 53.6507 113.78 53.8229 114.641L76.7589 233.157C76.7589 233.157 76.7589 254.201 160.935 254.201C245.111 254.201 245.107 233.157 245.107 233.157L268.047 114.641C268.219 113.78 268.118 112.886 267.757 112.086C267.396 111.285 266.793 110.618 266.034 110.177C265.274 109.736 264.396 109.544 263.522 109.627C262.648 109.71 261.821 110.065 261.159 110.641L207.231 157.381Z" stroke="#5063F4" stroke-width="4" stroke-linejoin="round"/>
<path d="M240.447 55.4711C240.988 53.1404 242.172 51.0081 243.864 49.3162C245.556 47.6243 247.688 46.4405 250.019 45.8991L269.219 41.4671C269.569 41.3834 269.88 41.1843 270.103 40.902C270.325 40.6197 270.446 40.2706 270.446 39.9111C270.446 39.5515 270.325 39.2025 270.103 38.9202C269.88 38.6379 269.569 38.4388 269.219 38.3551L250.019 33.9271C247.687 33.3883 245.553 32.2054 243.861 30.513C242.169 28.8207 240.986 26.687 240.447 24.3551L236.015 5.15509C235.931 4.80543 235.732 4.49417 235.45 4.2715C235.168 4.04883 234.818 3.92773 234.459 3.92773C234.099 3.92773 233.75 4.04883 233.468 4.2715C233.186 4.49417 232.987 4.80543 232.903 5.15509L228.475 24.3551C227.934 26.6858 226.75 28.8181 225.058 30.51C223.366 32.2019 221.234 33.3857 218.903 33.9271L199.703 38.3551C199.353 38.4388 199.042 38.6379 198.819 38.9202C198.597 39.2025 198.476 39.5515 198.476 39.9111C198.476 40.2706 198.597 40.6197 198.819 40.902C199.042 41.1843 199.353 41.3834 199.703 41.4671L218.903 45.8991C221.234 46.4381 223.367 47.6212 225.059 49.3136C226.751 51.0059 227.933 53.1395 228.471 55.4711L232.903 74.6711C232.987 75.0207 233.186 75.332 233.468 75.5547C233.75 75.7773 234.099 75.8984 234.459 75.8984C234.818 75.8984 235.168 75.7773 235.45 75.5547C235.732 75.332 235.931 75.0207 236.015 74.6711L240.447 55.4711Z" fill="white" stroke="#5063F4" stroke-width="4" stroke-linecap="round" stroke-linejoin="round"/>
<path d="M336.803 167.329C337.15 165.836 337.909 164.471 338.993 163.388C340.077 162.305 341.442 161.547 342.935 161.201L355.275 158.353C355.5 158.299 355.7 158.171 355.843 157.99C355.987 157.808 356.065 157.584 356.065 157.353C356.065 157.121 355.987 156.897 355.843 156.715C355.7 156.534 355.5 156.406 355.275 156.353L342.935 153.489C341.437 153.142 340.066 152.382 338.979 151.295C337.891 150.209 337.13 148.838 336.783 147.341L333.939 135.005C333.885 134.78 333.758 134.579 333.576 134.436C333.395 134.293 333.17 134.215 332.939 134.215C332.708 134.215 332.483 134.293 332.302 134.436C332.12 134.579 331.993 134.78 331.939 135.005L329.095 147.341C328.748 148.839 327.987 150.209 326.9 151.296C325.812 152.383 324.441 153.143 322.943 153.489L310.611 156.333C310.386 156.386 310.186 156.514 310.043 156.695C309.899 156.877 309.821 157.101 309.821 157.333C309.821 157.564 309.899 157.788 310.043 157.97C310.186 158.151 310.386 158.279 310.611 158.333L322.943 161.181C324.441 161.526 325.812 162.286 326.899 163.373C327.986 164.46 328.746 165.83 329.091 167.329L331.939 179.669C331.993 179.893 332.12 180.094 332.302 180.237C332.483 180.38 332.708 180.458 332.939 180.458C333.17 180.458 333.395 180.38 333.576 180.237C333.758 180.094 333.885 179.893 333.939 179.669L336.803 167.329Z" fill="white" stroke="#5063F4" stroke-width="4" stroke-linecap="round" stroke-linejoin="round"/>
<path d="M89.9431 73.92C90.37 72.0681 91.309 70.3736 92.6528 69.0297C93.9966 67.6859 95.6912 66.7469 97.5431 66.32L112.783 62.804C113.061 62.7383 113.309 62.5807 113.486 62.3568C113.663 62.1328 113.759 61.8556 113.759 61.57C113.759 61.2844 113.663 61.0072 113.486 60.7832C113.309 60.5593 113.061 60.4017 112.783 60.336L97.5431 56.82C95.6908 56.394 93.9958 55.4553 92.6518 54.1113C91.3078 52.7673 90.3691 51.0723 89.9431 49.22L86.4271 34C86.3648 33.7192 86.2086 33.468 85.9842 33.2879C85.7598 33.1079 85.4808 33.0098 85.1931 33.0098C84.9054 33.0098 84.6264 33.1079 84.402 33.2879C84.1776 33.468 84.0214 33.7192 83.9591 34L80.4431 49.228C80.0166 51.0801 79.0778 52.7749 77.7339 54.1188C76.39 55.4627 74.6952 56.4015 72.8431 56.828L57.6111 60.34C57.3332 60.4057 57.0856 60.5633 56.9084 60.7873C56.7312 61.0112 56.6348 61.2884 56.6348 61.574C56.6348 61.8596 56.7312 62.1368 56.9084 62.3608C57.0856 62.5847 57.3332 62.7423 57.6111 62.808L72.8431 66.324C74.695 66.7509 76.3896 67.6899 77.7334 69.0337C79.0772 70.3776 80.0162 72.0721 80.4431 73.924L83.9591 89.164C84.0248 89.4419 84.1824 89.6895 84.4063 89.8667C84.6303 90.0439 84.9075 90.1404 85.1931 90.1404C85.4787 90.1404 85.7559 90.0439 85.9799 89.8667C86.2038 89.6895 86.3614 89.4419 86.4271 89.164L89.9431 73.92Z" fill="white" stroke="#5063F4" stroke-width="4" stroke-linecap="round" stroke-linejoin="round"/>
</svg>
