<svg width="243" height="172" viewBox="0 0 243 172" fill="none" xmlns="http://www.w3.org/2000/svg">
<path d="M197.672 0H50.2432C43.458 0 37.9575 5.5005 37.9575 12.2857V159.714C37.9575 166.499 43.458 172 50.2432 172H197.672C204.457 172 209.958 166.499 209.958 159.714V12.2857C209.958 5.5005 204.457 0 197.672 0Z" fill="url(#paint0_linear_2081_82374)"/>
<g filter="url(#filter0_d_2081_82374)">
<path d="M64.9856 66.3428H230.843C232.472 66.3428 234.034 66.99 235.186 68.142C236.338 69.294 236.986 70.8564 236.986 72.4856V103.2C236.986 104.829 236.338 106.392 235.186 107.544C234.034 108.696 232.472 109.343 230.843 109.343H64.9856C63.3564 109.343 61.794 108.696 60.642 107.544C59.49 106.392 58.8428 104.829 58.8428 103.2V72.4856C58.8428 70.8564 59.49 69.294 60.642 68.142C61.794 66.99 63.3564 66.3428 64.9856 66.3428V66.3428Z" fill="white"/>
</g>
<path d="M155.9 76.1714H123.957C121.922 76.1714 120.271 77.8215 120.271 79.8571C120.271 81.8927 121.922 83.5428 123.957 83.5428H155.9C157.936 83.5428 159.586 81.8927 159.586 79.8571C159.586 77.8215 157.936 76.1714 155.9 76.1714Z" fill="#EFF2FE"/>
<path d="M178.014 92.1431H123.957C121.922 92.1431 120.271 93.7932 120.271 95.8288C120.271 97.8643 121.922 99.5145 123.957 99.5145H178.014C180.05 99.5145 181.7 97.8643 181.7 95.8288C181.7 93.7932 180.05 92.1431 178.014 92.1431Z" fill="#D9D9D9"/>
<path d="M96.314 99.5142C102.76 99.5142 107.985 94.2888 107.985 87.8428C107.985 81.3969 102.76 76.1714 96.314 76.1714C89.8681 76.1714 84.6426 81.3969 84.6426 87.8428C84.6426 94.2888 89.8681 99.5142 96.314 99.5142Z" fill="#5063F4"/>
<path d="M90.6342 91V90.605H91.4592V87.87H91.6942L90.7092 88.48V88.025L91.5892 87.475H91.9242V90.605H92.6992V91H90.6342ZM94.5122 91.045C94.1089 91.045 93.7989 90.89 93.5822 90.58C93.3655 90.2667 93.2572 89.8183 93.2572 89.235C93.2572 88.6417 93.3655 88.1933 93.5822 87.89C93.7989 87.5833 94.1089 87.43 94.5122 87.43C94.9189 87.43 95.2289 87.5833 95.4422 87.89C95.6589 88.1933 95.7672 88.64 95.7672 89.23C95.7672 89.8167 95.6589 90.2667 95.4422 90.58C95.2255 90.89 94.9155 91.045 94.5122 91.045ZM94.5122 90.65C94.7789 90.65 94.9772 90.535 95.1072 90.305C95.2405 90.075 95.3072 89.7167 95.3072 89.23C95.3072 88.7433 95.2405 88.3883 95.1072 88.165C94.9772 87.9383 94.7789 87.825 94.5122 87.825C94.2489 87.825 94.0505 87.9383 93.9172 88.165C93.7839 88.3883 93.7172 88.7433 93.7172 89.23C93.7172 89.7167 93.7839 90.075 93.9172 90.305C94.0505 90.535 94.2489 90.65 94.5122 90.65ZM96.4403 91V87.475H96.8003L99.0103 90.395H98.8903V87.475H99.3253V91H98.9703L96.7603 88.08H96.8753V91H96.4403ZM100.18 91V87.475H101.375C101.769 87.475 102.1 87.5433 102.37 87.68C102.644 87.8167 102.85 88.0167 102.99 88.28C103.13 88.54 103.2 88.8583 103.2 89.235C103.2 89.6117 103.13 89.9317 102.99 90.195C102.85 90.4583 102.644 90.6583 102.37 90.795C102.1 90.9317 101.769 91 101.375 91H100.18ZM100.645 90.605H101.34C101.81 90.605 102.159 90.4917 102.385 90.265C102.612 90.0383 102.725 89.695 102.725 89.235C102.725 88.775 102.612 88.4333 102.385 88.21C102.159 87.9833 101.81 87.87 101.34 87.87H100.645V90.605Z" fill="white"/>
<g filter="url(#filter1_d_2081_82374)">
<path d="M12.157 119.171H178.014C179.643 119.171 181.206 119.819 182.358 120.971C183.51 122.123 184.157 123.685 184.157 125.314V156.029C184.157 157.658 183.51 159.22 182.358 160.372C181.206 161.524 179.643 162.171 178.014 162.171H12.157C10.5278 162.171 8.96537 161.524 7.81336 160.372C6.66135 159.22 6.01416 157.658 6.01416 156.029V125.314C6.01416 123.685 6.66135 122.123 7.81336 120.971C8.96537 119.819 10.5278 119.171 12.157 119.171V119.171Z" fill="white"/>
</g>
<path d="M103.071 129H71.1286C69.093 129 67.4429 130.65 67.4429 132.686C67.4429 134.721 69.093 136.371 71.1286 136.371H103.071C105.107 136.371 106.757 134.721 106.757 132.686C106.757 130.65 105.107 129 103.071 129Z" fill="#EFF2FE"/>
<path d="M125.186 144.971H71.1286C69.093 144.971 67.4429 146.621 67.4429 148.657C67.4429 150.692 69.093 152.343 71.1286 152.343H125.186C127.221 152.343 128.871 150.692 128.871 148.657C128.871 146.621 127.221 144.971 125.186 144.971Z" fill="#D9D9D9"/>
<path d="M27.5142 152.343C33.9602 152.343 39.1856 147.117 39.1856 140.671C39.1856 134.225 33.9602 129 27.5142 129C21.0682 129 15.8428 134.225 15.8428 140.671C15.8428 147.117 21.0682 152.343 27.5142 152.343Z" fill="#5063F4"/>
<path d="M20.4392 142V141.655L21.6692 140.365C21.8292 140.202 21.9475 140.045 22.0242 139.895C22.1042 139.745 22.1442 139.59 22.1442 139.43C22.1442 139.233 22.0825 139.085 21.9592 138.985C21.8392 138.882 21.6625 138.83 21.4292 138.83C21.2492 138.83 21.0792 138.863 20.9192 138.93C20.7625 138.993 20.6125 139.092 20.4692 139.225L20.3042 138.87C20.4408 138.737 20.6125 138.63 20.8192 138.55C21.0292 138.47 21.2492 138.43 21.4792 138.43C21.8392 138.43 22.1175 138.513 22.3142 138.68C22.5108 138.843 22.6092 139.078 22.6092 139.385C22.6092 139.608 22.5542 139.822 22.4442 140.025C22.3375 140.225 22.1792 140.432 21.9692 140.645L20.8942 141.735V141.605H22.7542V142H20.4392ZM24.5122 142.045C24.1089 142.045 23.7989 141.89 23.5822 141.58C23.3655 141.267 23.2572 140.818 23.2572 140.235C23.2572 139.642 23.3655 139.193 23.5822 138.89C23.7989 138.583 24.1089 138.43 24.5122 138.43C24.9189 138.43 25.2289 138.583 25.4422 138.89C25.6589 139.193 25.7672 139.64 25.7672 140.23C25.7672 140.817 25.6589 141.267 25.4422 141.58C25.2255 141.89 24.9155 142.045 24.5122 142.045ZM24.5122 141.65C24.7789 141.65 24.9772 141.535 25.1072 141.305C25.2405 141.075 25.3072 140.717 25.3072 140.23C25.3072 139.743 25.2405 139.388 25.1072 139.165C24.9772 138.938 24.7789 138.825 24.5122 138.825C24.2489 138.825 24.0505 138.938 23.9172 139.165C23.7839 139.388 23.7172 139.743 23.7172 140.23C23.7172 140.717 23.7839 141.075 23.9172 141.305C24.0505 141.535 24.2489 141.65 24.5122 141.65ZM26.4403 142V138.475H27.9003C28.2769 138.475 28.5669 138.563 28.7703 138.74C28.9769 138.917 29.0803 139.163 29.0803 139.48C29.0803 139.69 29.0336 139.868 28.9403 140.015C28.8469 140.162 28.7153 140.273 28.5453 140.35C28.3786 140.427 28.1836 140.465 27.9603 140.465L28.0453 140.395H28.1653C28.3019 140.395 28.4236 140.43 28.5303 140.5C28.6369 140.567 28.7253 140.677 28.7953 140.83L29.2953 142H28.7803L28.2953 140.84C28.2386 140.697 28.1553 140.603 28.0453 140.56C27.9386 140.517 27.8036 140.495 27.6403 140.495H26.9053V142H26.4403ZM26.9053 140.135H27.8303C28.0869 140.135 28.2819 140.08 28.4153 139.97C28.5519 139.86 28.6203 139.7 28.6203 139.49C28.6203 139.283 28.5519 139.127 28.4153 139.02C28.2819 138.91 28.0869 138.855 27.8303 138.855H26.9053V140.135ZM29.9168 142V138.475H31.1118C31.5051 138.475 31.8368 138.543 32.1068 138.68C32.3801 138.817 32.5868 139.017 32.7268 139.28C32.8668 139.54 32.9368 139.858 32.9368 140.235C32.9368 140.612 32.8668 140.932 32.7268 141.195C32.5868 141.458 32.3801 141.658 32.1068 141.795C31.8368 141.932 31.5051 142 31.1118 142H29.9168ZM30.3818 141.605H31.0768C31.5468 141.605 31.8951 141.492 32.1218 141.265C32.3485 141.038 32.4618 140.695 32.4618 140.235C32.4618 139.775 32.3485 139.433 32.1218 139.21C31.8951 138.983 31.5468 138.87 31.0768 138.87H30.3818V141.605Z" fill="white"/>
<g filter="url(#filter2_d_2081_82374)">
<path d="M178.014 13.5142H12.157C8.76441 13.5142 6.01416 16.2644 6.01416 19.657V50.3713C6.01416 53.7639 8.76441 56.5142 12.157 56.5142H178.014C181.407 56.5142 184.157 53.7639 184.157 50.3713V19.657C184.157 16.2644 181.407 13.5142 178.014 13.5142Z" fill="white"/>
</g>
<path d="M100.614 23.3428H68.6711C66.6355 23.3428 64.9854 24.9929 64.9854 27.0285C64.9854 29.0641 66.6355 30.7142 68.6711 30.7142H100.614C102.649 30.7142 104.3 29.0641 104.3 27.0285C104.3 24.9929 102.649 23.3428 100.614 23.3428Z" fill="#EFF2FE"/>
<path d="M122.728 39.3145H68.6711C66.6355 39.3145 64.9854 40.9646 64.9854 43.0002C64.9854 45.0357 66.6355 46.6859 68.6711 46.6859H122.728C124.764 46.6859 126.414 45.0357 126.414 43.0002C126.414 40.9646 124.764 39.3145 122.728 39.3145Z" fill="#D9D9D9"/>
<path d="M43.4854 46.6856C49.9313 46.6856 55.1568 41.4602 55.1568 35.0142C55.1568 28.5683 49.9313 23.3428 43.4854 23.3428C37.0394 23.3428 31.814 28.5683 31.814 35.0142C31.814 41.4602 37.0394 46.6856 43.4854 46.6856Z" fill="#5063F4"/>
<path d="M36.891 37V36.605H37.716V33.87H37.951L36.966 34.48V34.025L37.846 33.475H38.181V36.605H38.956V37H36.891ZM39.694 37V36.655L40.924 35.365C41.084 35.2017 41.2024 35.045 41.279 34.895C41.359 34.745 41.399 34.59 41.399 34.43C41.399 34.2333 41.3374 34.085 41.214 33.985C41.094 33.8817 40.9174 33.83 40.684 33.83C40.504 33.83 40.334 33.8633 40.174 33.93C40.0174 33.9933 39.8674 34.0917 39.724 34.225L39.559 33.87C39.6957 33.7367 39.8674 33.63 40.074 33.55C40.284 33.47 40.504 33.43 40.734 33.43C41.094 33.43 41.3724 33.5133 41.569 33.68C41.7657 33.8433 41.864 34.0783 41.864 34.385C41.864 34.6083 41.809 34.8217 41.699 35.025C41.5924 35.225 41.434 35.4317 41.224 35.645L40.149 36.735V36.605H42.009V37H39.694ZM42.6971 37V33.475H43.0571L45.2671 36.395H45.1471V33.475H45.5821V37H45.2271L43.0171 34.08H43.1321V37H42.6971ZM46.4373 37V33.475H47.6323C48.0257 33.475 48.3573 33.5433 48.6273 33.68C48.9007 33.8167 49.1073 34.0167 49.2473 34.28C49.3873 34.54 49.4573 34.8583 49.4573 35.235C49.4573 35.6117 49.3873 35.9317 49.2473 36.195C49.1073 36.4583 48.9007 36.6583 48.6273 36.795C48.3573 36.9317 48.0257 37 47.6323 37H46.4373ZM46.9023 36.605H47.5973C48.0673 36.605 48.4157 36.4917 48.6423 36.265C48.869 36.0383 48.9823 35.695 48.9823 35.235C48.9823 34.775 48.869 34.4333 48.6423 34.21C48.4157 33.9833 48.0673 33.87 47.5973 33.87H46.9023V36.605Z" fill="white"/>
<defs>
<filter id="filter0_d_2081_82374" x="52.8428" y="63.3428" width="190.143" height="55" filterUnits="userSpaceOnUse" color-interpolation-filters="sRGB">
<feFlood flood-opacity="0" result="BackgroundImageFix"/>
<feColorMatrix in="SourceAlpha" type="matrix" values="0 0 0 0 0 0 0 0 0 0 0 0 0 0 0 0 0 0 127 0" result="hardAlpha"/>
<feOffset dy="3"/>
<feGaussianBlur stdDeviation="3"/>
<feColorMatrix type="matrix" values="0 0 0 0 0 0 0 0 0 0 0 0 0 0 0 0 0 0 0.161 0"/>
<feBlend mode="normal" in2="BackgroundImageFix" result="effect1_dropShadow_2081_82374"/>
<feBlend mode="normal" in="SourceGraphic" in2="effect1_dropShadow_2081_82374" result="shape"/>
</filter>
<filter id="filter1_d_2081_82374" x="0.0141602" y="116.171" width="190.143" height="55" filterUnits="userSpaceOnUse" color-interpolation-filters="sRGB">
<feFlood flood-opacity="0" result="BackgroundImageFix"/>
<feColorMatrix in="SourceAlpha" type="matrix" values="0 0 0 0 0 0 0 0 0 0 0 0 0 0 0 0 0 0 127 0" result="hardAlpha"/>
<feOffset dy="3"/>
<feGaussianBlur stdDeviation="3"/>
<feColorMatrix type="matrix" values="0 0 0 0 0 0 0 0 0 0 0 0 0 0 0 0 0 0 0.161 0"/>
<feBlend mode="normal" in2="BackgroundImageFix" result="effect1_dropShadow_2081_82374"/>
<feBlend mode="normal" in="SourceGraphic" in2="effect1_dropShadow_2081_82374" result="shape"/>
</filter>
<filter id="filter2_d_2081_82374" x="0.0141602" y="10.5142" width="190.143" height="55" filterUnits="userSpaceOnUse" color-interpolation-filters="sRGB">
<feFlood flood-opacity="0" result="BackgroundImageFix"/>
<feColorMatrix in="SourceAlpha" type="matrix" values="0 0 0 0 0 0 0 0 0 0 0 0 0 0 0 0 0 0 127 0" result="hardAlpha"/>
<feOffset dy="3"/>
<feGaussianBlur stdDeviation="3"/>
<feColorMatrix type="matrix" values="0 0 0 0 0 0 0 0 0 0 0 0 0 0 0 0 0 0 0.161 0"/>
<feBlend mode="normal" in2="BackgroundImageFix" result="effect1_dropShadow_2081_82374"/>
<feBlend mode="normal" in="SourceGraphic" in2="effect1_dropShadow_2081_82374" result="shape"/>
</filter>
<linearGradient id="paint0_linear_2081_82374" x1="123.958" y1="0" x2="123.958" y2="172" gradientUnits="userSpaceOnUse">
<stop stop-color="#E3ECFA"/>
<stop offset="1" stop-color="#DAE7FF"/>
</linearGradient>
</defs>
</svg>
