<svg width="26" height="25" viewBox="0 0 26 25" fill="none" xmlns="http://www.w3.org/2000/svg">
<g id="Group 1707478158">
<circle id="Ellipse 1169" cx="13" cy="12.5" r="12.5" fill="#9CA1AA"/>
<path id="Vector" d="M8.875 7.4H7.5V6H18.5V7.4H17.125V8.8C17.125 9.9305 16.564 10.8405 15.8573 11.5839C15.3739 12.0921 14.7861 12.5604 14.1901 13C14.7861 13.4396 15.3739 13.9079 15.8573 14.4161C16.564 15.1595 17.125 16.0695 17.125 17.2V18.6H18.5V20H7.5V18.6H8.875V17.2C8.875 16.0695 9.436 15.1595 10.1427 14.4161C10.6261 13.9079 11.2139 13.4396 11.8099 13C11.2139 12.5604 10.6261 12.0921 10.1427 11.5839C9.436 10.8405 8.875 9.9305 8.875 8.8V7.4ZM10.25 7.4V8.8C10.25 9.2795 10.4288 9.7345 10.7801 10.2H15.2199C15.5706 9.7345 15.75 9.2795 15.75 8.8V7.4H10.25ZM13 13.8554C12.2816 14.372 11.6305 14.8641 11.1307 15.3898C11.0063 15.5197 10.8892 15.6566 10.7801 15.8H15.2199C15.1108 15.6566 14.9937 15.5197 14.8693 15.3898C14.3695 14.8641 13.7184 14.372 13 13.8554Z" fill="#FDFDFD"/>
</g>
</svg>
