<svg width="258" height="115" viewBox="0 0 258 115" fill="none" xmlns="http://www.w3.org/2000/svg">
<path d="M4 98V34L256 37V71.5L253 98L248.5 108.5H238.5L26 112.5L9.5 108.5L4 98Z" fill="#FDFDFD"/>
<path fill-rule="evenodd" clip-rule="evenodd" d="M172.919 64.4668H83.4889C68.1245 64.4668 65.8136 83.3308 82.2805 83.5602C98.7474 83.7895 170.364 84.3642 172.919 84.3642C174.512 84.3642 173.917 64.4668 172.919 64.4668Z" fill="#D9D9D9"/>
<path fill-rule="evenodd" clip-rule="evenodd" d="M257.448 17.4587C257.431 13.3065 255.858 9.31148 253.04 6.26241C250.221 3.21334 246.362 1.33182 242.224 0.989336C232.852 0.113832 28.3273 0.604608 17.5105 0.989336C6.69374 1.37406 1.61583 8.70856 1.16451 15.2539C0.84637 19.8558 0.481365 32.5962 2.47653 32.5962C8.44475 32.5962 253.948 33.2177 256.854 33.2621C258.565 33.2868 257.448 19.1949 257.448 17.4587ZM208.656 24.4652C198.89 24.4652 197.997 9.224 208.114 9.224C209.158 9.11116 210.214 9.21472 211.217 9.52821C212.219 9.8417 213.147 10.3584 213.94 11.0461C214.734 11.7337 215.378 12.5776 215.832 13.5251C216.285 14.4726 216.538 15.5033 216.576 16.553C216.613 17.6027 216.434 18.6488 216.049 19.6261C215.664 20.6035 215.082 21.491 214.339 22.2334C213.596 22.9758 212.708 23.5571 211.73 23.9411C210.752 24.325 209.706 24.5035 208.656 24.4652ZM234.594 24.4652C233.55 24.5785 232.494 24.4757 231.491 24.163C230.489 23.8503 229.562 23.3346 228.767 22.6478C227.973 21.961 227.329 21.118 226.875 20.1713C226.421 19.2246 226.166 18.1945 226.128 17.1452C226.089 16.096 226.267 15.05 226.651 14.0725C227.034 13.0951 227.615 12.2071 228.357 11.4639C229.098 10.7207 229.985 10.1383 230.962 9.75292C231.939 9.36756 232.984 9.1875 234.034 9.224C244.093 9.2166 244.971 24.4652 234.594 24.4652Z" fill="#5063F4"/>
<path fill-rule="evenodd" clip-rule="evenodd" d="M256.644 89.3707C258.266 72.4972 258.406 55.5141 257.063 38.6161C256.893 36.4631 253.566 36.8676 253.739 39.0206C254.868 53.0188 255.218 81.9671 252.427 96.2366C249.635 110.506 239.405 108.681 228.117 108.814L34.3474 111.088C-0.28066 111.493 4.11413 109.362 3.70227 39.2302C3.70227 37.6888 1.08069 37.6543 0.989445 39.2302C0.444413 48.804 0.0300831 87.9699 1.60106 97.7533C4.7726 117.483 24.5368 114.45 40.6115 114.277L222.29 112.193C243.134 111.964 254.165 115.17 256.644 89.3707Z" fill="#9CA1AA"/>
<path fill-rule="evenodd" clip-rule="evenodd" d="M178.887 64.7124C178.719 64.7194 178.554 64.7593 178.402 64.8299C178.25 64.9006 178.113 65.0005 177.999 65.1241C177.769 65.3736 177.648 65.7041 177.662 66.0429C177.676 66.3817 177.824 66.7011 178.074 66.9307C178.323 67.1603 178.654 67.2815 178.993 67.2674C195.985 68.1774 213.189 67.0824 230.061 68.0541C236.063 68.4019 238.907 70.979 239.185 73.7067C239.985 81.7958 226.181 80.8734 221.429 80.9968H179.602C177.483 80.9968 177.629 84.4716 179.742 84.4495C194.231 84.3311 208.711 84.1461 223.18 84.082C230.085 84.0499 242.86 83.8354 242.184 73.7239C241.637 65.4991 231.913 65.0281 225.804 64.9738C210.982 64.8431 192.993 64.1427 178.887 64.7124Z" fill="#9CA1AA"/>
<path d="M55.1325 61.4948H64.2927V65.2998H60.6286V90.0323C60.6286 90.5369 60.4356 91.0208 60.092 91.3776C59.7484 91.7344 59.2824 91.9348 58.7965 91.9348H33.148C32.6621 91.9348 32.1961 91.7344 31.8525 91.3776C31.509 91.0208 31.3159 90.5369 31.3159 90.0323V65.2998H27.6519V61.4948H36.8121V55.7873C36.8121 55.2827 37.0051 54.7988 37.3486 54.442C37.6922 54.0852 38.1582 53.8848 38.6441 53.8848H53.3004C53.7863 53.8848 54.2523 54.0852 54.5959 54.442C54.9394 54.7988 55.1325 55.2827 55.1325 55.7873V61.4948ZM56.9645 65.2998H34.98V88.1298H56.9645V65.2998ZM40.4761 71.0073H44.1402V82.4223H40.4761V71.0073ZM47.8043 71.0073H51.4684V82.4223H47.8043V71.0073ZM40.4761 57.6898V61.4948H51.4684V57.6898H40.4761Z" fill="#5063F4"/>
</svg>
