<svg width="26" height="25" viewBox="0 0 26 25" fill="none" xmlns="http://www.w3.org/2000/svg">
<g id="Group 1707478159">
<circle id="Ellipse 1169" cx="13" cy="12.5" r="12.5" fill="#9CA1AA"/>
<path id="Vector" d="M7.7915 7V20H8.83317V15.6667H19.2498V7H7.7915ZM8.83317 8.08333H10.3957V9.70833H11.9582V8.08333H13.5207V9.70833H15.0832V8.08333H16.6457V9.70833H18.2082V11.3333H16.6457V12.9583H18.2082V14.5833H16.6457V12.9583H15.0832V14.5833H13.5207V12.9583H11.9582V14.5833H10.3957V12.9583H8.83317V11.3333H10.3957V9.70833H8.83317V8.08333ZM10.3957 11.3333V12.9583H11.9582V11.3333H10.3957ZM11.9582 11.3333H13.5207V9.70833H11.9582V11.3333ZM13.5207 11.3333V12.9583H15.0832V11.3333H13.5207ZM15.0832 11.3333H16.6457V9.70833H15.0832V11.3333Z" fill="#FDFDFD"/>
</g>
</svg>
