<svg width="25" height="25" viewBox="0 0 25 25" fill="none" xmlns="http://www.w3.org/2000/svg">
<g id="Group 1707478157">
<circle id="Ellipse 1169" cx="12.5" cy="12.5" r="12.5" fill="#5063F4"/>
<path id="Vector" d="M18.1044 7.56973C18.4159 7.67921 18.6858 7.88273 18.8767 8.15217C19.0675 8.42161 19.17 8.74367 19.17 9.07387V16.1589C19.17 16.9575 18.8528 17.7234 18.2881 18.2881C17.7234 18.8528 16.9575 19.17 16.1589 19.17H9.07387C8.74367 19.17 8.42161 19.0675 8.15217 18.8767C7.88273 18.6858 7.67921 18.4159 7.56973 18.1044L9.05545 18.1072H16.1589C16.6756 18.1072 17.1712 17.902 17.5366 17.5366C17.902 17.1712 18.1072 16.6756 18.1072 16.1589V9.07387L18.1044 9.03774V7.56973ZM15.8018 5C16.2246 5 16.6301 5.16795 16.929 5.46691C17.228 5.76586 17.3959 6.17134 17.3959 6.59412V15.8025C17.3959 16.2253 17.228 16.6308 16.929 16.9297C16.6301 17.2287 16.2246 17.3966 15.8018 17.3966H6.59412C6.17134 17.3966 5.76586 17.2287 5.46691 16.9297C5.16795 16.6308 5 16.2253 5 15.8025V6.59412C5 6.17134 5.16795 5.76586 5.46691 5.46691C5.76586 5.16795 6.17134 5 6.59412 5H15.8018ZM15.8018 6.06275H6.59412C6.4532 6.06275 6.31804 6.11873 6.21839 6.21839C6.11873 6.31804 6.06275 6.4532 6.06275 6.59412V15.8025C6.06275 16.0958 6.30081 16.3339 6.59412 16.3339H15.8025C15.9434 16.3339 16.0786 16.2779 16.1782 16.1782C16.2779 16.0786 16.3339 15.9434 16.3339 15.8025V6.59412C16.3339 6.4532 16.2779 6.31804 16.1782 6.21839C16.0786 6.11873 15.9427 6.06275 15.8018 6.06275ZM10.3711 11.6301L13.1265 8.87549C13.2214 8.78129 13.3484 8.72636 13.4821 8.72165C13.6157 8.71695 13.7462 8.76281 13.8476 8.8501C13.9489 8.93739 14.0136 9.05968 14.0287 9.19256C14.0439 9.32545 14.0083 9.45915 13.9292 9.56699L13.8775 9.6265L10.6893 12.8148C10.5901 12.9138 10.4559 12.9696 10.3157 12.9702C10.1756 12.9707 10.041 12.9159 9.94108 12.8176L9.88865 12.7581L8.8259 11.3411C8.74506 11.2338 8.70783 11.0999 8.72172 10.9663C8.73561 10.8327 8.79958 10.7093 8.90076 10.621C9.00195 10.5326 9.13283 10.4859 9.26708 10.4901C9.40133 10.4944 9.529 10.5493 9.62438 10.6439L9.6761 10.7034L10.3711 11.6301L13.1265 8.87549L10.3704 11.6301H10.3711Z" fill="white"/>
</g>
</svg>
