<svg width="30" height="31" viewBox="0 0 30 31" fill="none" xmlns="http://www.w3.org/2000/svg">
<g id="COCO/Duotone/Setting - 3">
<path id="Vector" d="M15.4183 8.39697C13.4696 8.39697 12.2074 9.19539 11.2165 10.6193C11.0367 10.8776 11.0921 11.2317 11.3429 11.4219L12.3961 12.2204C12.6493 12.4125 13.0096 12.3676 13.2079 12.1192C13.8195 11.353 14.2731 10.9119 15.2283 10.9119C15.9794 10.9119 16.9084 11.3953 16.9084 12.1236C16.9084 12.6742 16.4539 12.957 15.7123 13.3727C14.8475 13.8576 13.703 14.461 13.703 15.9705V16.2095C13.703 16.5331 13.9654 16.7954 14.289 16.7954H16.0583C16.3819 16.7954 16.6442 16.5331 16.6442 16.2095V16.0685C16.6442 15.0221 19.7025 14.9786 19.7025 12.147C19.7026 10.0146 17.4906 8.39697 15.4183 8.39697ZM15.1737 17.5146C14.2411 17.5146 13.4825 18.2733 13.4825 19.2058C13.4825 20.1383 14.2411 20.897 15.1737 20.897C16.1062 20.897 16.8648 20.1383 16.8648 19.2058C16.8648 18.2733 16.1062 17.5146 15.1737 17.5146Z" fill="#F8FAFF"/>
<path id="Vector_2" d="M4.19097 11.5293C5.00534 8.05757 7.71614 5.34677 11.1879 4.5324C13.6952 3.94428 16.3046 3.94428 18.8118 4.5324C22.2836 5.34677 24.9944 8.05757 25.8088 11.5294C26.3969 14.0366 26.3969 16.646 25.8088 19.1533C24.9944 22.6251 22.2836 25.3358 18.8118 26.1502C16.3046 26.7383 13.6952 26.7383 11.1879 26.1502C7.71614 25.3358 5.00535 22.6251 4.19097 19.1533C3.60285 16.646 3.60285 14.0366 4.19097 11.5293Z" fill="#F8FAFF" fill-opacity="0.15" stroke="#F8FAFF" stroke-width="1.35" stroke-linecap="round"/>
</g>
</svg>
