<svg width="30" height="31" viewBox="0 0 30 31" fill="none" xmlns="http://www.w3.org/2000/svg">
<g id="COCO/Duotone/Setting - 3">
<path id="Vector" d="M18.5183 16.5202H19.4732V18.3153L21.0264 19.2129L20.549 20.0404L18.5183 18.8691V16.5202ZM19.1549 15.247C18.3108 15.247 17.5012 15.5823 16.9043 16.1793C16.3074 16.7762 15.972 17.5857 15.972 18.4299C15.972 19.274 16.3074 20.0836 16.9043 20.6805C17.5012 21.2774 18.3108 21.6128 19.1549 21.6128C19.9991 21.6128 20.8086 21.2774 21.4055 20.6805C22.0024 20.0836 22.3378 19.274 22.3378 18.4299C22.3378 17.5857 22.0024 16.7762 21.4055 16.1793C20.8086 15.5823 19.9991 15.247 19.1549 15.247ZM19.1549 13.9739C20.3367 13.9739 21.4701 14.4433 22.3058 15.279C23.1415 16.1147 23.6109 17.2481 23.6109 18.4299C23.6109 19.6117 23.1415 20.7451 22.3058 21.5808C21.4701 22.4164 20.3367 22.8859 19.1549 22.8859C17.3789 22.8859 15.8447 21.8419 15.1254 20.3396H8.96973V18.4299C8.96973 16.7366 12.3627 15.8836 14.0623 15.8836C14.4443 15.8836 14.9153 15.9281 15.4119 16.0109C15.8156 15.3854 16.3698 14.8712 17.0238 14.5153C17.6777 14.1594 18.4104 13.9733 19.1549 13.9739ZM14.6989 18.4299C14.6989 17.9843 14.7626 17.5514 14.8835 17.1567C14.6161 17.1122 14.336 17.0931 14.0623 17.0931C12.1717 17.0931 10.1792 18.0225 10.1792 18.4299V19.1301H14.7562C14.7179 18.8987 14.6987 18.6645 14.6989 18.4299ZM14.0623 10.1544C14.7376 10.1544 15.3853 10.4227 15.8628 10.9002C16.3403 11.3777 16.6086 12.0254 16.6086 12.7007C16.6086 13.376 16.3403 14.0237 15.8628 14.5012C15.3853 14.9787 14.7376 15.247 14.0623 15.247C13.387 15.247 12.7393 14.9787 12.2618 14.5012C11.7843 14.0237 11.516 13.376 11.516 12.7007C11.516 12.0254 11.7843 11.3777 12.2618 10.9002C12.7393 10.4227 13.387 10.1544 14.0623 10.1544ZM14.0623 11.3639C13.7078 11.3639 13.3678 11.5048 13.1171 11.7555C12.8664 12.0062 12.7255 12.3462 12.7255 12.7007C12.7255 13.0553 12.8664 13.3953 13.1171 13.646C13.3678 13.8967 13.7078 14.0375 14.0623 14.0375C14.4169 14.0375 14.7569 13.8967 15.0076 13.646C15.2583 13.3953 15.3991 13.0553 15.3991 12.7007C15.3991 12.3462 15.2583 12.0062 15.0076 11.7555C14.7569 11.5048 14.4169 11.3639 14.0623 11.3639Z" fill="#F8FAFF"/>
<path id="Vector_2" d="M4.1911 12.1291C5.00547 8.6573 7.71626 5.9465 11.188 5.13214C13.6953 4.54401 16.3047 4.54401 18.812 5.13214C22.2837 5.94651 24.9945 8.6573 25.8089 12.1291C26.397 14.6364 26.397 17.2457 25.8089 19.753C24.9945 23.2248 22.2837 25.9356 18.812 26.7499C16.3047 27.3381 13.6953 27.3381 11.188 26.7499C7.71626 25.9356 5.00547 23.2248 4.1911 19.753C3.60297 17.2457 3.60297 14.6364 4.1911 12.1291Z" fill="#F8FAFF" fill-opacity="0.15" stroke="#F8FAFF" stroke-width="1.35" stroke-linecap="round"/>
</g>
</svg>
