<svg width="30" height="31" viewBox="0 0 30 31" fill="none" xmlns="http://www.w3.org/2000/svg">
<g id="COCO/Duotone/Note">
<g id="Vector">
<path d="M4.1911 11.8515C5.00547 8.37971 7.71626 5.66892 11.188 4.85455C13.6953 4.26642 16.3047 4.26642 18.812 4.85455C22.2837 5.66892 24.9945 8.37971 25.8089 11.8515C26.397 14.3588 26.397 16.9681 25.8089 19.4754C24.9945 22.9472 22.2837 25.658 18.812 26.4724C16.3047 27.0605 13.6953 27.0605 11.188 26.4724C7.71626 25.658 5.00547 22.9472 4.1911 19.4754C3.60297 16.9681 3.60297 14.3588 4.1911 11.8515Z" fill="#F8FAFF" fill-opacity="0.15"/>
<path d="M4.1911 19.4754L4.84826 19.3213L4.1911 19.4754ZM4.1911 11.8515L4.84826 12.0056L4.1911 11.8515ZM25.8089 11.8515L26.4661 11.6973L25.8089 11.8515ZM25.8089 19.4754L25.1517 19.3213L25.8089 19.4754ZM18.812 26.4724L18.6578 25.8152L18.812 26.4724ZM11.188 26.4724L11.0339 27.1295L11.188 26.4724ZM11.188 4.85455L11.3422 5.51171L11.188 4.85455ZM18.812 4.85455L18.6578 5.51171L18.812 4.85455ZM4.84826 19.3213C4.28391 16.9154 4.28391 14.4115 4.84826 12.0056L3.53393 11.6973C2.92202 14.306 2.92202 17.0209 3.53393 19.6296L4.84826 19.3213ZM25.1517 12.0056C25.7161 14.4115 25.7161 16.9154 25.1517 19.3213L26.4661 19.6296C27.078 17.0209 27.078 14.306 26.4661 11.6973L25.1517 12.0056ZM18.6578 25.8152C16.2519 26.3795 13.7481 26.3795 11.3422 25.8152L11.0339 27.1295C13.6426 27.7414 16.3574 27.7414 18.9661 27.1295L18.6578 25.8152ZM11.3422 5.51171C13.7481 4.94737 16.2519 4.94737 18.6578 5.51171L18.9661 4.19738C16.3574 3.58547 13.6426 3.58547 11.0339 4.19739L11.3422 5.51171ZM11.3422 25.8152C8.12 25.0594 5.60408 22.5435 4.84826 19.3213L3.53393 19.6296C4.40685 23.3509 7.31253 26.2566 11.0339 27.1295L11.3422 25.8152ZM18.9661 27.1295C22.6875 26.2566 25.5932 23.3509 26.4661 19.6296L25.1517 19.3213C24.3959 22.5435 21.88 25.0594 18.6578 25.8152L18.9661 27.1295ZM18.6578 5.51171C21.88 6.26753 24.3959 8.78345 25.1517 12.0056L26.4661 11.6973C25.5932 7.97598 22.6875 5.0703 18.9661 4.19738L18.6578 5.51171ZM11.0339 4.19739C7.31252 5.0703 4.40685 7.97597 3.53393 11.6973L4.84826 12.0056C5.60408 8.78345 8.12 6.26753 11.3422 5.51171L11.0339 4.19739Z" fill="#F8FAFF"/>
</g>
<path id="Vector_2" fill-rule="evenodd" clip-rule="evenodd" d="M11.8057 13.3543H18.7502C19.3257 13.3543 19.8777 13.583 20.2847 13.9899C20.6917 14.3969 20.9203 14.9489 20.9203 15.5245C20.9203 16.1 20.6917 16.652 20.2847 17.059C19.8777 17.466 19.3257 17.6946 18.7502 17.6946H11.8057C11.2302 17.6946 10.6782 17.466 10.2712 17.059C9.86422 16.652 9.63558 16.1 9.63558 15.5245C9.63558 14.9489 9.86422 14.3969 10.2712 13.9899C10.6782 13.583 11.2302 13.3543 11.8057 13.3543ZM8.3335 15.5245C8.3335 14.6036 8.69932 13.7204 9.35049 13.0692C10.0017 12.4181 10.8848 12.0522 11.8057 12.0522H18.7502C19.6711 12.0522 20.5542 12.4181 21.2054 13.0692C21.8566 13.7204 22.2224 14.6036 22.2224 15.5245C22.2224 16.4454 21.8566 17.3285 21.2054 17.9797C20.5542 18.6309 19.6711 18.9967 18.7502 18.9967H11.8057C10.8848 18.9967 10.0017 18.6309 9.35049 17.9797C8.69932 17.3285 8.3335 16.4454 8.3335 15.5245ZM11.8057 14.6564C11.5755 14.6564 11.3547 14.7479 11.1919 14.9107C11.0291 15.0735 10.9377 15.2942 10.9377 15.5245C10.9377 15.7547 11.0291 15.9755 11.1919 16.1383C11.3547 16.3011 11.5755 16.3925 11.8057 16.3925H16.146C16.3762 16.3925 16.597 16.3011 16.7598 16.1383C16.9226 15.9755 17.0141 15.7547 17.0141 15.5245C17.0141 15.2942 16.9226 15.0735 16.7598 14.9107C16.597 14.7479 16.3762 14.6564 16.146 14.6564H11.8057Z" fill="#F8FAFF"/>
</g>
</svg>
