<svg width="20" height="20" viewBox="0 0 20 20" fill="none" xmlns="http://www.w3.org/2000/svg">
<rect width="20" height="20" fill="#F8FAFF"/>
<g id="Frame 1707478729">
<rect width="4009" height="2003" transform="translate(-763 -717)" fill="white"/>
<g id="Campaign Setup Modal">
<rect x="-222" y="-315" width="590" height="545" rx="20" fill="white"/>
<g id="Frame 1707478115">
<g id="Frame 1707478168">
<g id="Frame 1707478164">
<g id="Input field">
<g id="_Input field core">
<g id="Input with label">
<g id="Input" filter="url(#filter0_d_295_46170)">
<rect x="-192" y="-12" width="260" height="44" rx="22" fill="white"/>
<rect x="-191.5" y="-11.5" width="259" height="43" rx="21.5" stroke="#D9D9D9"/>
<g id="Content">
<g id="jam:calendar">
<path id="Vector" d="M16.667 8.33333V6.66667C16.667 6.44565 16.5792 6.23369 16.4229 6.07741C16.2666 5.92113 16.0547 5.83333 15.8337 5.83333H15.0003V6.66667C15.0003 6.88768 14.9125 7.09964 14.7562 7.25592C14.6 7.4122 14.388 7.5 14.167 7.5C13.946 7.5 13.734 7.4122 13.5777 7.25592C13.4215 7.09964 13.3337 6.88768 13.3337 6.66667V5.83333H6.66699V6.66667C6.66699 6.88768 6.57919 7.09964 6.42291 7.25592C6.26663 7.4122 6.05467 7.5 5.83366 7.5C5.61264 7.5 5.40068 7.4122 5.2444 7.25592C5.08812 7.09964 5.00033 6.88768 5.00033 6.66667V5.83333H4.16699C3.94598 5.83333 3.73402 5.92113 3.57774 6.07741C3.42146 6.23369 3.33366 6.44565 3.33366 6.66667V8.33333H16.667ZM16.667 10H3.33366V15C3.33366 15.221 3.42146 15.433 3.57774 15.5893C3.73402 15.7455 3.94598 15.8333 4.16699 15.8333H15.8337C16.0547 15.8333 16.2666 15.7455 16.4229 15.5893C16.5792 15.433 16.667 15.221 16.667 15V10ZM15.0003 4.16667H15.8337C16.4967 4.16667 17.1326 4.43006 17.6014 4.8989C18.0703 5.36774 18.3337 6.00363 18.3337 6.66667V15C18.3337 15.663 18.0703 16.2989 17.6014 16.7678C17.1326 17.2366 16.4967 17.5 15.8337 17.5H4.16699C3.50395 17.5 2.86807 17.2366 2.39923 16.7678C1.93038 16.2989 1.66699 15.663 1.66699 15L1.66699 6.66667C1.66699 6.00363 1.93038 5.36774 2.39923 4.8989C2.86807 4.43006 3.50395 4.16667 4.16699 4.16667H5.00033V3.33333C5.00033 3.11232 5.08812 2.90036 5.2444 2.74408C5.40068 2.5878 5.61264 2.5 5.83366 2.5C6.05467 2.5 6.26663 2.5878 6.42291 2.74408C6.57919 2.90036 6.66699 3.11232 6.66699 3.33333V4.16667H13.3337V3.33333C13.3337 3.11232 13.4215 2.90036 13.5777 2.74408C13.734 2.5878 13.946 2.5 14.167 2.5C14.388 2.5 14.6 2.5878 14.7562 2.74408C14.9125 2.90036 15.0003 3.11232 15.0003 3.33333V4.16667Z" fill="#5063F4"/>
</g>
</g>
</g>
</g>
</g>
</g>
</g>
</g>
</g>
</g>
</g>
<defs>
<filter id="filter0_d_295_46170" x="-194" y="-13" width="264" height="48" filterUnits="userSpaceOnUse" color-interpolation-filters="sRGB">
<feFlood flood-opacity="0" result="BackgroundImageFix"/>
<feColorMatrix in="SourceAlpha" type="matrix" values="0 0 0 0 0 0 0 0 0 0 0 0 0 0 0 0 0 0 127 0" result="hardAlpha"/>
<feOffset dy="1"/>
<feGaussianBlur stdDeviation="1"/>
<feColorMatrix type="matrix" values="0 0 0 0 0.0627451 0 0 0 0 0.0941176 0 0 0 0 0.156863 0 0 0 0.05 0"/>
<feBlend mode="normal" in2="BackgroundImageFix" result="effect1_dropShadow_295_46170"/>
<feBlend mode="normal" in="SourceGraphic" in2="effect1_dropShadow_295_46170" result="shape"/>
</filter>
</defs>
</svg>
