<svg width="30" height="31" viewBox="0 0 30 31" fill="none" xmlns="http://www.w3.org/2000/svg">
<path d="M10.2432 15.0107L11.7744 15.6588C11.9682 15.2709 12.1792 14.8955 12.4075 14.5326C12.6359 14.1696 12.888 13.8167 13.1638 13.4738L12.2044 13.2901C12.1402 13.2738 12.0782 13.2757 12.0182 13.2957C11.9582 13.3157 11.904 13.3496 11.8557 13.3976L10.2432 15.0107ZM12.2694 16.0551L14.0382 17.8213C14.5319 17.5984 15.0288 17.3151 15.5288 16.9713C16.0288 16.6276 16.5096 16.2249 16.9713 15.7632C17.6442 15.0903 18.1584 14.3726 18.5138 13.6101C18.8692 12.8476 19.069 11.9671 19.1132 10.9688C18.1148 11.013 17.2357 11.2128 16.4757 11.5682C15.7165 11.9236 15.0002 12.4378 14.3269 13.1107C13.8657 13.5724 13.4632 14.0551 13.1194 14.5588C12.7757 15.0626 12.4923 15.5613 12.2694 16.0551ZM15.5069 14.5707C15.3236 14.3874 15.2319 14.1674 15.2319 13.9107C15.2319 13.654 15.3236 13.4338 15.5069 13.2501C15.6902 13.0663 15.9132 12.9746 16.1757 12.9751C16.4382 12.9755 16.6609 13.0671 16.8438 13.2501C17.0267 13.433 17.1184 13.6532 17.1188 13.9107C17.1192 14.1682 17.0275 14.3882 16.8438 14.5707C16.6605 14.754 16.4375 14.8457 16.175 14.8457C15.9125 14.8457 15.69 14.754 15.5075 14.5707M15.0707 19.8513L16.6838 18.2382C16.7317 18.1899 16.7659 18.1357 16.7863 18.0757C16.8063 18.0157 16.8084 17.9536 16.7925 17.8894L16.6082 16.9301C16.2652 17.2059 15.9123 17.4574 15.5494 17.6844C15.1865 17.9115 14.8111 18.1219 14.4232 18.3157L15.0707 19.8513ZM19.6969 10.3932C19.7669 11.5415 19.6044 12.5978 19.2094 13.5619C18.8148 14.5265 18.2002 15.4261 17.3657 16.2607L17.2569 16.3688L17.1488 16.4769L17.4013 17.7594C17.435 17.9278 17.4288 18.0909 17.3825 18.2488C17.3359 18.4067 17.2517 18.5465 17.13 18.6682L14.8538 20.9326L13.8175 18.4919L11.59 16.2644L9.14941 15.2163L11.41 12.9519C11.5317 12.8303 11.6721 12.7442 11.8313 12.6938C11.9905 12.6434 12.1542 12.6351 12.3225 12.6688L13.6288 12.9326C13.6688 12.8926 13.7027 12.8565 13.7307 12.8244C13.7586 12.7924 13.7927 12.7563 13.8332 12.7163C14.6682 11.8813 15.5671 11.268 16.53 10.8763C17.493 10.4846 18.5482 10.3236 19.6969 10.3932ZM10.1982 18.1044C10.4427 17.8603 10.7398 17.7394 11.0894 17.7419C11.439 17.7444 11.7361 17.8682 11.9807 18.1132C12.2252 18.3582 12.3469 18.6553 12.3457 19.0044C12.3444 19.3544 12.2215 19.6515 11.9769 19.8957C11.7644 20.1082 11.4238 20.2901 10.955 20.4413C10.4863 20.5926 9.94358 20.6971 9.32691 20.7551C9.38483 20.1384 9.4915 19.5957 9.64691 19.1269C9.80233 18.6582 9.98608 18.3174 10.1982 18.1044ZM10.6444 18.5588C10.524 18.6792 10.4117 18.8755 10.3075 19.1476C10.2034 19.4196 10.1346 19.7003 10.1013 19.9894C10.3905 19.9557 10.6711 19.8853 10.9432 19.7782C11.2148 19.6715 11.4109 19.558 11.5313 19.4376C11.6563 19.3126 11.72 19.1636 11.7225 18.9907C11.7246 18.8174 11.6632 18.6682 11.5382 18.5432C11.4132 18.4182 11.2642 18.3584 11.0913 18.3638C10.9184 18.3688 10.7694 18.4338 10.6444 18.5588Z" fill="white"/>
<path d="M4.4411 11.438C5.25547 7.96626 7.96626 5.25546 11.438 4.4411C13.9453 3.85297 16.5547 3.85297 19.062 4.4411C22.5337 5.25547 25.2445 7.96626 26.0589 11.438C26.647 13.9453 26.647 16.5547 26.0589 19.062C25.2445 22.5337 22.5337 25.2445 19.062 26.0589C16.5547 26.647 13.9453 26.647 11.438 26.0589C7.96626 25.2445 5.25547 22.5337 4.4411 19.062C3.85297 16.5547 3.85297 13.9453 4.4411 11.438Z" fill="#F8FAFF" fill-opacity="0.15" stroke="#F8FAFF" stroke-width="1.35" stroke-linecap="round"/>
</svg>
