<svg width="40" height="40" viewBox="0 0 40 40" fill="none" xmlns="http://www.w3.org/2000/svg">
<path d="M5.58813 14.9174C6.67396 10.2883 10.2883 6.67395 14.9174 5.58813C18.2604 4.80396 21.7396 4.80396 25.0826 5.58813C29.7117 6.67395 33.326 10.2883 34.4119 14.9174C35.196 18.2604 35.196 21.7396 34.4119 25.0826C33.326 29.7117 29.7117 33.326 25.0826 34.4119C21.7396 35.196 18.2604 35.196 14.9174 34.4119C10.2884 33.326 6.67396 29.7117 5.58813 25.0826C4.80396 21.7396 4.80396 18.2604 5.58813 14.9174Z" fill="#EFF2FE" stroke="#5063F4" stroke-width="1.35" stroke-linecap="round"/>
<path opacity="0.3" d="M16.1937 24.6937C16.0187 24.8687 14.8374 25.1687 14.8374 25.1687C14.8374 25.1687 15.1312 23.9937 15.3124 23.8125C15.4187 23.6937 15.5749 23.625 15.7499 23.625C15.8736 23.6252 15.9946 23.662 16.0974 23.7308C16.2003 23.7995 16.2805 23.8972 16.328 24.0115C16.3754 24.1258 16.388 24.2515 16.3641 24.3729C16.3402 24.4944 16.2809 24.606 16.1937 24.6937ZM16.6312 19.7688L15.4374 19.2563L16.6687 18.025L17.5687 18.2063C17.2124 18.725 16.8937 19.2688 16.6312 19.7688ZM20.7437 24.5625L20.2312 23.3688C20.7312 23.1063 21.2749 22.7875 21.7874 22.4313L21.9687 23.3313L20.7437 24.5625ZM24.4937 15.5063C24.4937 15.5063 22.2749 15.075 19.3499 18C18.5249 18.825 17.8499 20.1125 17.6437 20.525L19.4749 22.3563C19.8812 22.1563 21.1687 21.4813 21.9999 20.65C24.9249 17.725 24.4937 15.5063 24.4937 15.5063ZM21.3749 19.875C20.6874 19.875 20.1249 19.3125 20.1249 18.625C20.1249 17.9375 20.6874 17.375 21.3749 17.375C22.0624 17.375 22.6249 17.9375 22.6249 18.625C22.6249 19.3125 22.0624 19.875 21.3749 19.875Z" fill="#5063F4"/>
<path d="M15.75 22.375C15.2313 22.375 14.7625 22.5875 14.425 22.925C13.6875 23.6625 13.25 26.75 13.25 26.75C13.25 26.75 16.3375 26.3125 17.075 25.575C17.3381 25.3132 17.5175 24.9792 17.5904 24.6153C17.6633 24.2514 17.6264 23.874 17.4845 23.5311C17.3425 23.1882 17.1018 22.8953 16.793 22.6894C16.4842 22.4836 16.1211 22.3741 15.75 22.375ZM16.1937 24.6937C16.0187 24.8687 14.8375 25.1687 14.8375 25.1687C14.8375 25.1687 15.1313 23.9937 15.3125 23.8125C15.4188 23.6937 15.575 23.625 15.75 23.625C15.8737 23.6252 15.9947 23.662 16.0975 23.7307C16.2004 23.7995 16.2806 23.8972 16.328 24.0115C16.3755 24.1258 16.3881 24.2515 16.3642 24.3729C16.3403 24.4943 16.281 24.606 16.1937 24.6937ZM22.8875 21.5312C26.8625 17.5562 25.5375 14.4625 25.5375 14.4625C25.5375 14.4625 22.4438 13.1375 18.4688 17.1125L16.9125 16.8C16.7102 16.7611 16.5015 16.7721 16.3044 16.832C16.1073 16.8919 15.9277 16.9989 15.7812 17.1437L13.25 19.6812L16.375 21.0187L18.9812 23.625L20.3188 26.75L22.85 24.2187C23.1438 23.925 23.275 23.5 23.1938 23.0875L22.8875 21.5312ZM16.6312 19.7687L15.4375 19.2562L16.6687 18.025L17.5687 18.2062C17.2125 18.725 16.8937 19.2687 16.6312 19.7687ZM20.7437 24.5625L20.2312 23.3687C20.7313 23.1062 21.275 22.7875 21.7875 22.4312L21.9688 23.3312L20.7437 24.5625ZM22 20.65C21.175 21.475 19.8875 22.15 19.475 22.3562L17.6437 20.525C17.8438 20.1187 18.5188 18.8312 19.35 18C22.275 15.075 24.4937 15.5062 24.4937 15.5062C24.4937 15.5062 24.925 17.725 22 20.65ZM21.375 19.875C22.0625 19.875 22.625 19.3125 22.625 18.625C22.625 17.9375 22.0625 17.375 21.375 17.375C20.6875 17.375 20.125 17.9375 20.125 18.625C20.125 19.3125 20.6875 19.875 21.375 19.875Z" fill="#5063F4"/>
</svg>
