<svg width="25" height="26" viewBox="0 0 25 26" fill="none" xmlns="http://www.w3.org/2000/svg">
<g id="COCO/Duotone/Setting - 5" clip-path="url(#clip0_11779_46716)">
<path id="Vector" d="M1.4411 9.10601C2.25547 5.63423 4.96626 2.92343 8.43804 2.10906C10.9453 1.52094 13.5547 1.52094 16.062 2.10906C19.5337 2.92343 22.2445 5.63423 23.0589 9.10601C23.647 11.6133 23.647 14.2226 23.0589 16.7299C22.2445 20.2017 19.5337 22.9125 16.062 23.7269C13.5547 24.315 10.9453 24.315 8.43804 23.7269C4.96626 22.9125 2.25547 20.2017 1.4411 16.7299C0.852968 14.2227 0.852968 11.6133 1.4411 9.10601Z" fill="#FDFDFD" stroke="#5063F4" stroke-width="1.35" stroke-linecap="round"/>
<path id="Vector_2" d="M12 8.81797C12.4736 8.81797 12.9278 9.00234 13.2627 9.33053C13.5976 9.65872 13.7857 10.1038 13.7857 10.568C13.7857 10.7978 13.7395 11.0253 13.6498 11.2377C13.56 11.45 13.4285 11.6429 13.2627 11.8054C13.0969 11.9679 12.9 12.0968 12.6834 12.1848C12.4667 12.2727 12.2345 12.318 12 12.318C11.5264 12.318 11.0722 12.1336 10.7373 11.8054C10.4024 11.4772 10.2143 11.0321 10.2143 10.568C10.2143 10.1038 10.4024 9.65872 10.7373 9.33053C11.0722 9.00234 11.5264 8.81797 12 8.81797ZM12 5.66797C13.3261 5.66797 14.5979 6.18422 15.5355 7.10315C16.4732 8.02207 17 9.26841 17 10.568C17 14.243 12 19.668 12 19.668C12 19.668 7 14.243 7 10.568C7 9.26841 7.52678 8.02207 8.46447 7.10315C9.40215 6.18422 10.6739 5.66797 12 5.66797ZM12 7.06797C11.0528 7.06797 10.1444 7.43672 9.47462 8.0931C8.80485 8.74947 8.42857 9.63971 8.42857 10.568C8.42857 11.268 8.42857 12.668 12 17.365C15.5714 12.668 15.5714 11.268 15.5714 10.568C15.5714 9.63971 15.1952 8.74947 14.5254 8.0931C13.8556 7.43672 12.9472 7.06797 12 7.06797Z" fill="#5063F4"/>
</g>
<defs>
<clipPath id="clip0_11779_46716">
<rect width="25" height="25" fill="white" transform="translate(0 0.667969)"/>
</clipPath>
</defs>
</svg>
