<svg width="258" height="209" viewBox="0 0 258 209" fill="none" xmlns="http://www.w3.org/2000/svg">
<path d="M104.506 208.429C161.943 208.429 208.506 161.866 208.506 104.429C208.506 46.9911 161.943 0.428711 104.506 0.428711C47.0682 0.428711 0.505859 46.9911 0.505859 104.429C0.505859 161.866 47.0682 208.429 104.506 208.429Z" fill="url(#paint0_linear_5305_48891)"/>
<g filter="url(#filter0_d_5305_48891)">
<path d="M57.3591 47.5757H244.559C246.398 47.5757 248.161 48.3062 249.462 49.6064C250.762 50.9067 251.492 52.6702 251.492 54.509V89.1757C251.492 91.0145 250.762 92.778 249.462 94.0783C248.161 95.3785 246.398 96.109 244.559 96.109H57.3591C55.5203 96.109 53.7568 95.3785 52.4565 94.0783C51.1563 92.778 50.4258 91.0145 50.4258 89.1757V54.509C50.4258 52.6702 51.1563 50.9067 52.4565 49.6064C53.7568 48.3062 55.5203 47.5757 57.3591 47.5757V47.5757Z" fill="white"/>
</g>
<path d="M146.106 58.6689H110.053C107.755 58.6689 105.893 60.5314 105.893 62.8289C105.893 65.1265 107.755 66.9889 110.053 66.9889H146.106C148.403 66.9889 150.266 65.1265 150.266 62.8289C150.266 60.5314 148.403 58.6689 146.106 58.6689Z" fill="#EFF2FE"/>
<path d="M171.066 76.6958H110.053C107.755 76.6958 105.893 78.5583 105.893 80.8558C105.893 83.1533 107.755 85.0158 110.053 85.0158H171.066C173.363 85.0158 175.226 83.1533 175.226 80.8558C175.226 78.5583 173.363 76.6958 171.066 76.6958Z" fill="#DEE9FC"/>
<path d="M94.7993 71.8425C94.7993 60.7379 85.7972 51.7358 74.6926 51.7358C63.588 51.7358 54.5859 60.7379 54.5859 71.8425C54.5859 82.9471 63.588 91.9492 74.6926 91.9492C85.7972 91.9492 94.7993 82.9471 94.7993 71.8425Z" fill="#5063F4"/>
<path d="M73.4452 78.3516C75.1666 78.3513 76.8384 77.7753 78.1946 76.7153L82.4586 80.9793L83.83 79.6079L79.5646 75.3425C80.6362 73.957 81.207 72.2493 81.1839 70.4978C81.1608 68.7464 80.5451 67.0544 79.4373 65.6976C78.3295 64.3408 76.7948 63.3992 75.0833 63.0263C73.3718 62.6534 71.5845 62.8712 70.0127 63.6441C68.4408 64.4171 67.1771 65.6996 66.4274 67.2827C65.6778 68.8658 65.4864 70.6561 65.8845 72.3619C66.2826 74.0677 67.2467 75.5883 68.6197 76.676C69.9927 77.7637 71.6936 78.3543 73.4452 78.3516ZM73.4452 64.7706C74.5971 64.7706 75.7231 65.1121 76.6809 65.7521C77.6386 66.392 78.3851 67.3016 78.8259 68.3658C79.2667 69.43 79.382 70.601 79.1573 71.7308C78.9326 72.8605 78.3779 73.8982 77.5634 74.7127C76.7489 75.5272 75.7112 76.0819 74.5814 76.3066C73.4517 76.5314 72.2807 76.416 71.2165 75.9752C70.1523 75.5344 69.2427 74.7879 68.6027 73.8302C67.9628 72.8724 67.6212 71.7464 67.6212 70.5946C67.6212 69.0499 68.2348 67.5686 69.327 66.4764C70.4193 65.3842 71.9006 64.7706 73.4452 64.7706Z" fill="white"/>
<g filter="url(#filter1_d_5305_48891)">
<path d="M223.76 109.976H36.5603C32.7311 109.976 29.627 113.08 29.627 116.909V151.576C29.627 155.405 32.7311 158.509 36.5603 158.509H223.76C227.589 158.509 230.694 155.405 230.694 151.576V116.909C230.694 113.08 227.589 109.976 223.76 109.976Z" fill="white"/>
</g>
<path d="M125.307 121.069H89.2537C86.9562 121.069 85.0938 122.931 85.0938 125.229C85.0938 127.526 86.9562 129.389 89.2537 129.389H125.307C127.605 129.389 129.467 127.526 129.467 125.229C129.467 122.931 127.605 121.069 125.307 121.069Z" fill="#EFF2FE"/>
<path d="M150.267 139.095H89.2538C86.9562 139.095 85.0938 140.958 85.0938 143.255C85.0938 145.553 86.9562 147.415 89.2538 147.415H150.267C152.565 147.415 154.427 145.553 154.427 143.255C154.427 140.958 152.565 139.095 150.267 139.095Z" fill="#DEE9FC"/>
<path d="M74.0004 134.242C74.0004 123.138 64.9984 114.136 53.8938 114.136C42.7892 114.136 33.7871 123.138 33.7871 134.242C33.7871 145.347 42.7892 154.349 53.8938 154.349C64.9984 154.349 74.0004 145.347 74.0004 134.242Z" fill="#5063F4"/>
<path d="M52.6464 140.751C54.3677 140.751 56.0395 140.175 57.3957 139.115L61.6597 143.379L63.0311 142.007L58.7658 137.742C59.8374 136.356 60.4082 134.649 60.3851 132.897C60.362 131.146 59.7463 129.454 58.6385 128.097C57.5306 126.74 55.9959 125.799 54.2845 125.426C52.573 125.053 50.7857 125.271 49.2138 126.044C47.642 126.816 46.3782 128.099 45.6286 129.682C44.8789 131.265 44.6876 133.056 45.0857 134.761C45.4838 136.467 46.4479 137.988 47.8209 139.075C49.1939 140.163 50.8948 140.754 52.6464 140.751ZM52.6464 127.17C53.7983 127.17 54.9243 127.512 55.882 128.151C56.8398 128.791 57.5863 129.701 58.0271 130.765C58.4679 131.829 58.5832 133 58.3585 134.13C58.1338 135.26 57.5791 136.298 56.7646 137.112C55.9501 137.927 54.9124 138.481 53.7826 138.706C52.6529 138.931 51.4818 138.815 50.4177 138.375C49.3535 137.934 48.4439 137.187 47.8039 136.23C47.164 135.272 46.8224 134.146 46.8224 132.994C46.8224 131.449 47.436 129.968 48.5282 128.876C49.6204 127.784 51.1018 127.17 52.6464 127.17Z" fill="white"/>
<defs>
<filter id="filter0_d_5305_48891" x="44.4258" y="44.5757" width="213.066" height="60.5332" filterUnits="userSpaceOnUse" color-interpolation-filters="sRGB">
<feFlood flood-opacity="0" result="BackgroundImageFix"/>
<feColorMatrix in="SourceAlpha" type="matrix" values="0 0 0 0 0 0 0 0 0 0 0 0 0 0 0 0 0 0 127 0" result="hardAlpha"/>
<feOffset dy="3"/>
<feGaussianBlur stdDeviation="3"/>
<feColorMatrix type="matrix" values="0 0 0 0 0 0 0 0 0 0 0 0 0 0 0 0 0 0 0.161 0"/>
<feBlend mode="normal" in2="BackgroundImageFix" result="effect1_dropShadow_5305_48891"/>
<feBlend mode="normal" in="SourceGraphic" in2="effect1_dropShadow_5305_48891" result="shape"/>
</filter>
<filter id="filter1_d_5305_48891" x="23.627" y="106.976" width="213.066" height="60.5332" filterUnits="userSpaceOnUse" color-interpolation-filters="sRGB">
<feFlood flood-opacity="0" result="BackgroundImageFix"/>
<feColorMatrix in="SourceAlpha" type="matrix" values="0 0 0 0 0 0 0 0 0 0 0 0 0 0 0 0 0 0 127 0" result="hardAlpha"/>
<feOffset dy="3"/>
<feGaussianBlur stdDeviation="3"/>
<feColorMatrix type="matrix" values="0 0 0 0 0 0 0 0 0 0 0 0 0 0 0 0 0 0 0.161 0"/>
<feBlend mode="normal" in2="BackgroundImageFix" result="effect1_dropShadow_5305_48891"/>
<feBlend mode="normal" in="SourceGraphic" in2="effect1_dropShadow_5305_48891" result="shape"/>
</filter>
<linearGradient id="paint0_linear_5305_48891" x1="104.506" y1="0.428711" x2="104.506" y2="208.429" gradientUnits="userSpaceOnUse">
<stop stop-color="#E3ECFA"/>
<stop offset="1" stop-color="#DAE7FF"/>
</linearGradient>
</defs>
</svg>
