<svg width="208" height="208" viewBox="0 0 208 208" fill="none" xmlns="http://www.w3.org/2000/svg">
<g id="Mask Group 5">
<path id="Ellipse 653" d="M104 208C161.438 208 208 161.438 208 104C208 46.5624 161.438 0 104 0C46.5624 0 0 46.5624 0 104C0 161.438 46.5624 208 104 208Z" fill="#E3ECFA"/>
<path id="Subtraction 1" d="M166.4 208H41.5996V73.4933C47.4819 73.4867 53.1213 71.1471 57.2807 66.9877C61.44 62.8283 63.7797 57.1889 63.7863 51.3066H144.213C144.207 54.2206 144.778 57.1068 145.895 59.7983C147.012 62.4898 148.651 64.9332 150.718 66.987C152.772 69.0547 155.215 70.6945 157.907 71.8113C160.599 72.9281 163.485 73.4998 166.4 73.4933V208Z" fill="white"/>
<path id="Ellipse 665" d="M104 141.44C122.38 141.44 137.28 126.54 137.28 108.16C137.28 89.7798 122.38 74.8799 104 74.8799C85.6197 74.8799 70.7197 89.7798 70.7197 108.16C70.7197 126.54 85.6197 141.44 104 141.44Z" fill="#5063F4"/>
<g id="ic_add_48px">
<path id="Vector" d="M105.796 115.463C105.796 115.917 105.662 116.361 105.409 116.739C105.157 117.116 104.798 117.411 104.379 117.584C103.959 117.758 103.497 117.804 103.052 117.715C102.607 117.627 102.197 117.408 101.876 117.087C101.555 116.766 101.336 116.356 101.248 115.911C101.159 115.466 101.205 115.004 101.379 114.584C101.552 114.165 101.847 113.806 102.224 113.554C102.602 113.301 103.046 113.167 103.5 113.167C104.109 113.167 104.693 113.409 105.124 113.839C105.554 114.27 105.796 114.854 105.796 115.463ZM119 108C119 111.066 118.091 114.062 116.388 116.611C114.685 119.16 112.264 121.147 109.432 122.32C106.599 123.493 103.483 123.8 100.476 123.202C97.4694 122.604 94.7076 121.128 92.5399 118.96C90.3721 116.792 88.8959 114.031 88.2978 111.024C87.6998 108.017 88.0067 104.901 89.1799 102.068C90.353 99.2362 92.3397 96.8154 94.8887 95.1122C97.4376 93.4091 100.434 92.5 103.5 92.5C107.609 92.5046 111.549 94.1391 114.455 97.0449C117.361 99.9507 118.995 103.891 119 108ZM115.556 108C115.556 105.616 114.849 103.285 113.524 101.302C112.199 99.3198 110.316 97.7746 108.113 96.8621C105.911 95.9497 103.487 95.7109 101.148 96.1761C98.8095 96.6413 96.6614 97.7894 94.9754 99.4754C93.2894 101.161 92.1413 103.31 91.6761 105.648C91.2109 107.987 91.4497 110.411 92.3621 112.613C93.2746 114.816 94.8198 116.699 96.8023 118.024C98.7848 119.349 101.116 120.056 103.5 120.056C106.696 120.052 109.761 118.781 112.021 116.521C114.281 114.261 115.552 111.196 115.556 108ZM103.5 98.8148C100.018 98.8148 97.1852 101.39 97.1852 104.556V105.13C97.1852 105.586 97.3666 106.024 97.6896 106.347C98.0126 106.67 98.4506 106.852 98.9074 106.852C99.3642 106.852 99.8022 106.67 100.125 106.347C100.448 106.024 100.63 105.586 100.63 105.13V104.556C100.63 103.29 101.921 102.259 103.5 102.259C105.079 102.259 106.37 103.29 106.37 104.556C106.37 105.821 105.079 106.852 103.5 106.852C103.043 106.852 102.605 107.033 102.282 107.356C101.959 107.679 101.778 108.117 101.778 108.574V109.722C101.777 110.148 101.933 110.559 102.217 110.875C102.501 111.192 102.892 111.393 103.315 111.439C103.738 111.484 104.163 111.372 104.508 111.123C104.853 110.874 105.094 110.506 105.183 110.09C107.85 109.418 109.815 107.192 109.815 104.556C109.815 101.39 106.982 98.8148 103.5 98.8148Z" fill="#FDFDFD"/>
</g>
<path id="Rectangle 5617" d="M122.027 149.76H85.9735C83.676 149.76 81.8135 151.622 81.8135 153.92C81.8135 156.217 83.676 158.08 85.9735 158.08H122.027C124.324 158.08 126.187 156.217 126.187 153.92C126.187 151.622 124.324 149.76 122.027 149.76Z" fill="#DFEAFB"/>
<path id="Rectangle 5618" d="M134.506 166.4H73.493C71.1955 166.4 69.333 168.263 69.333 170.56C69.333 172.858 71.1955 174.72 73.493 174.72H134.506C136.804 174.72 138.666 172.858 138.666 170.56C138.666 168.263 136.804 166.4 134.506 166.4Z" fill="#DFEAFB"/>
</g>
</svg>
