<svg width="208" height="211" viewBox="0 0 208 211" fill="none" xmlns="http://www.w3.org/2000/svg">
<path d="M104 208C161.438 208 208 161.438 208 104C208 46.5624 161.438 0 104 0C46.5624 0 0 46.5624 0 104C0 161.438 46.5624 208 104 208Z" fill="url(#paint0_linear_1878_30058)"/>
<g filter="url(#filter0_d_1878_30058)">
<mask id="mask0_1878_30058" style="mask-type:alpha" maskUnits="userSpaceOnUse" x="0" y="0" width="208" height="208">
<path d="M104 208C161.438 208 208 161.438 208 104C208 46.5624 161.438 0 104 0C46.5624 0 0 46.5624 0 104C0 161.438 46.5624 208 104 208Z" fill="url(#paint1_linear_1878_30058)"/>
</mask>
<g mask="url(#mask0_1878_30058)">
<path d="M163.626 59.627H44.3728C40.5436 59.627 37.4395 62.7311 37.4395 66.5603V212.16C37.4395 215.989 40.5436 219.094 44.3728 219.094H163.626C167.455 219.094 170.559 215.989 170.559 212.16V66.5603C170.559 62.7311 167.455 59.627 163.626 59.627Z" fill="white"/>
<path d="M76.7509 101.2H83.3309L83.3169 102.684H78.4029V105.512H82.8549V106.982H78.4029V111H76.7509V101.2ZM87.7716 103.496C90.3896 103.496 91.4536 105.204 91.2576 107.892H85.6296C85.8816 109.04 86.7636 109.754 87.9396 109.754C88.7516 109.754 89.4936 109.446 90.0396 108.886L90.8936 109.796C90.1656 110.594 89.1016 111.056 87.8136 111.056C85.5176 111.056 84.0056 109.53 84.0056 107.29C84.0056 105.036 85.5596 103.51 87.7716 103.496ZM85.6016 106.716H89.8576C89.8016 105.512 89.0036 104.784 87.7856 104.784C86.6096 104.784 85.7696 105.526 85.6016 106.716ZM98.9841 111H97.4021V110.09C96.8701 110.748 96.0161 111.07 94.9381 111.07C93.3281 111.07 92.3201 110.076 92.3201 108.76C92.3201 107.402 93.3421 106.534 95.1341 106.52H97.3881V106.296C97.3881 105.358 96.7861 104.798 95.6101 104.798C94.8961 104.798 94.1541 105.05 93.4121 105.554L92.7541 104.434C93.7901 103.818 94.5461 103.496 95.9601 103.496C97.8781 103.496 98.9561 104.476 98.9701 106.114L98.9841 111ZM95.2741 109.796C96.4221 109.796 97.3041 109.194 97.3881 108.382V107.696H95.3721C94.3221 107.696 93.8321 107.976 93.8321 108.69C93.8321 109.362 94.3781 109.796 95.2741 109.796ZM104.947 109.292L105.353 110.524C104.765 110.874 104.149 111.07 103.519 111.07C102.399 111.07 101.433 110.426 101.433 108.9V105.036H100.383V103.832H101.433V101.788H103.029V103.832H105.227V105.036H103.029V108.606C103.029 109.376 103.323 109.614 103.827 109.614C104.163 109.614 104.513 109.502 104.947 109.292ZM111.992 103.552H113.602V111H111.992V109.544C111.488 110.58 110.55 111.042 109.332 111.056C107.624 111.056 106.602 109.964 106.602 108.186V103.552H108.212V107.738C108.212 108.858 108.87 109.544 109.948 109.544C111.236 109.516 111.992 108.522 111.992 107.22V103.552ZM117.597 105.036C118.101 104.028 118.997 103.496 120.173 103.496V105.036C118.675 104.952 117.723 105.834 117.597 107.108V111H115.987V103.552H117.597V105.036ZM124.563 103.496C127.181 103.496 128.245 105.204 128.049 107.892H122.421C122.673 109.04 123.555 109.754 124.731 109.754C125.543 109.754 126.285 109.446 126.831 108.886L127.685 109.796C126.957 110.594 125.893 111.056 124.605 111.056C122.309 111.056 120.797 109.53 120.797 107.29C120.797 105.036 122.351 103.51 124.563 103.496ZM122.393 106.716H126.649C126.593 105.512 125.795 104.784 124.577 104.784C123.401 104.784 122.561 105.526 122.393 106.716Z" fill="#5063F4"/>
</g>
</g>
<path d="M91.52 73.4932H55.4666C53.1691 73.4932 51.3066 75.3557 51.3066 77.6532C51.3066 79.9507 53.1691 81.8132 55.4666 81.8132H91.52C93.8175 81.8132 95.68 79.9507 95.68 77.6532C95.68 75.3557 93.8175 73.4932 91.52 73.4932Z" fill="#EFF2FE"/>
<path d="M91.52 131.733H55.4666C53.1691 131.733 51.3066 133.596 51.3066 135.893C51.3066 138.191 53.1691 140.053 55.4666 140.053H91.52C93.8175 140.053 95.68 138.191 95.68 135.893C95.68 133.596 93.8175 131.733 91.52 131.733Z" fill="#EFF2FE"/>
<path d="M149.76 94.2939H58.24C55.1767 94.2939 52.6934 96.7773 52.6934 99.8406V113.707C52.6934 116.771 55.1767 119.254 58.24 119.254H149.76C152.823 119.254 155.307 116.771 155.307 113.707V99.8406C155.307 96.7773 152.823 94.2939 149.76 94.2939Z" stroke="#5063F4" stroke-width="2"/>
<path d="M149.76 151.146H58.24C54.4108 151.146 51.3066 154.251 51.3066 158.08V169.173C51.3066 173.002 54.4108 176.106 58.24 176.106H149.76C153.589 176.106 156.693 173.002 156.693 169.173V158.08C156.693 154.251 153.589 151.146 149.76 151.146Z" fill="#DFEAFB"/>
<path d="M73.493 44.3736C76.5563 44.3736 79.0396 41.8903 79.0396 38.8269C79.0396 35.7636 76.5563 33.2803 73.493 33.2803C70.4296 33.2803 67.9463 35.7636 67.9463 38.8269C67.9463 41.8903 70.4296 44.3736 73.493 44.3736Z" fill="white"/>
<path d="M104 44.3736C107.063 44.3736 109.546 41.8903 109.546 38.8269C109.546 35.7636 107.063 33.2803 104 33.2803C100.936 33.2803 98.4531 35.7636 98.4531 38.8269C98.4531 41.8903 100.936 44.3736 104 44.3736Z" fill="#5063F4"/>
<path d="M134.507 44.3736C137.57 44.3736 140.053 41.8903 140.053 38.8269C140.053 35.7636 137.57 33.2803 134.507 33.2803C131.443 33.2803 128.96 35.7636 128.96 38.8269C128.96 41.8903 131.443 44.3736 134.507 44.3736Z" fill="white"/>
<path d="M119.253 122.027C123.082 122.027 126.186 118.923 126.186 115.093C126.186 111.264 123.082 108.16 119.253 108.16C115.423 108.16 112.319 111.264 112.319 115.093C112.319 118.923 115.423 122.027 119.253 122.027Z" fill="#DFEAFB"/>
<path d="M124.671 144.726C123.562 144.726 122.526 144.726 121.583 144.667C120.421 144.588 119.304 144.191 118.354 143.518C117.404 142.846 116.657 141.924 116.197 140.855L110.347 129.293C109.918 128.793 109.703 128.144 109.751 127.487C109.798 126.83 110.103 126.219 110.599 125.786C111.006 125.459 111.513 125.283 112.034 125.288C112.418 125.299 112.795 125.393 113.139 125.564C113.483 125.735 113.786 125.979 114.027 126.278L116.684 129.904L116.724 129.951V116.175C116.724 115.491 116.995 114.836 117.479 114.352C117.962 113.869 118.618 113.598 119.301 113.598C119.985 113.598 120.64 113.869 121.123 114.352C121.607 114.836 121.878 115.491 121.878 116.175V125.188C121.848 124.856 121.888 124.522 121.994 124.207C122.101 123.891 122.271 123.601 122.496 123.355C122.721 123.109 122.994 122.913 123.299 122.779C123.604 122.644 123.933 122.575 124.266 122.575C124.599 122.575 124.928 122.644 125.233 122.779C125.538 122.913 125.811 123.109 126.036 123.355C126.261 123.601 126.432 123.891 126.538 124.207C126.644 124.522 126.684 124.856 126.654 125.188V127.067C126.624 126.735 126.663 126.401 126.77 126.086C126.876 125.77 127.047 125.48 127.272 125.234C127.496 124.988 127.77 124.792 128.075 124.658C128.379 124.523 128.709 124.454 129.042 124.454C129.375 124.454 129.704 124.523 130.009 124.658C130.314 124.792 130.587 124.988 130.812 125.234C131.036 125.48 131.207 125.77 131.314 126.086C131.42 126.401 131.459 126.735 131.43 127.067V128.515C131.4 128.183 131.439 127.849 131.545 127.533C131.652 127.218 131.823 126.928 132.047 126.682C132.272 126.436 132.546 126.24 132.85 126.105C133.155 125.971 133.484 125.902 133.817 125.902C134.15 125.902 134.48 125.971 134.784 126.105C135.089 126.24 135.363 126.436 135.587 126.682C135.812 126.928 135.983 127.218 136.089 127.533C136.196 127.849 136.235 128.183 136.205 128.515V137.302C136.158 140.005 134.936 144.561 130.639 144.561C130.327 144.575 127.684 144.728 124.676 144.728L124.671 144.726Z" fill="#5063F4" stroke="white"/>
<defs>
<filter id="filter0_d_1878_30058" x="31.4395" y="50.627" width="145.12" height="160.373" filterUnits="userSpaceOnUse" color-interpolation-filters="sRGB">
<feFlood flood-opacity="0" result="BackgroundImageFix"/>
<feColorMatrix in="SourceAlpha" type="matrix" values="0 0 0 0 0 0 0 0 0 0 0 0 0 0 0 0 0 0 127 0" result="hardAlpha"/>
<feOffset dy="-3"/>
<feGaussianBlur stdDeviation="3"/>
<feColorMatrix type="matrix" values="0 0 0 0 0.788235 0 0 0 0 0.803922 0 0 0 0 0.85098 0 0 0 0.349 0"/>
<feBlend mode="normal" in2="BackgroundImageFix" result="effect1_dropShadow_1878_30058"/>
<feBlend mode="normal" in="SourceGraphic" in2="effect1_dropShadow_1878_30058" result="shape"/>
</filter>
<linearGradient id="paint0_linear_1878_30058" x1="104" y1="0" x2="104" y2="208" gradientUnits="userSpaceOnUse">
<stop stop-color="#E3ECFA"/>
<stop offset="1" stop-color="#DAE7FF"/>
</linearGradient>
<linearGradient id="paint1_linear_1878_30058" x1="104" y1="0" x2="104" y2="208" gradientUnits="userSpaceOnUse">
<stop stop-color="#E3ECFA"/>
<stop offset="1" stop-color="#DAE7FF"/>
</linearGradient>
</defs>
</svg>
