<svg width="209" height="208" viewBox="0 0 209 208" fill="none" xmlns="http://www.w3.org/2000/svg">
<g id="Mask Group 5">
<path id="Ellipse 653" d="M104.5 208C161.938 208 208.5 161.438 208.5 104C208.5 46.5624 161.938 0 104.5 0C47.0624 0 0.5 46.5624 0.5 104C0.5 161.438 47.0624 208 104.5 208Z" fill="#EAF5EA"/>
<path id="Subtraction 1" d="M166.9 208H42.0996V73.4933C47.9819 73.4867 53.6213 71.1471 57.7807 66.9877C61.94 62.8283 64.2797 57.1889 64.2863 51.3066H144.713C144.707 54.2206 145.278 57.1068 146.395 59.7983C147.512 62.4898 149.151 64.9332 151.218 66.987C153.272 69.0547 155.715 70.6945 158.407 71.8113C161.099 72.9281 163.985 73.4998 166.9 73.4933V208Z" fill="white"/>
<path id="Ellipse 665" d="M104.5 141.44C122.88 141.44 137.78 126.54 137.78 108.16C137.78 89.7798 122.88 74.8799 104.5 74.8799C86.1197 74.8799 71.2197 89.7798 71.2197 108.16C71.2197 126.54 86.1197 141.44 104.5 141.44Z" fill="#44E0AA"/>
<g id="ic_add_48px">
<path id="Vector" d="M98.2251 123.013L84 108.788L87.5563 105.232L98.2251 115.9L121.123 93.0029L124.679 96.5592L98.2251 123.013Z" fill="white"/>
</g>
<path id="Rectangle 5617" d="M122.527 149.76H86.4735C84.176 149.76 82.3135 151.622 82.3135 153.92C82.3135 156.217 84.176 158.08 86.4735 158.08H122.527C124.824 158.08 126.687 156.217 126.687 153.92C126.687 151.622 124.824 149.76 122.527 149.76Z" fill="#DFEAFB"/>
<path id="Rectangle 5618" d="M135.006 166.4H73.993C71.6955 166.4 69.833 168.263 69.833 170.56C69.833 172.858 71.6955 174.72 73.993 174.72H135.006C137.304 174.72 139.166 172.858 139.166 170.56C139.166 168.263 137.304 166.4 135.006 166.4Z" fill="#DFEAFB"/>
</g>
</svg>
