<svg width="33" height="33" viewBox="0 0 33 33" fill="none" xmlns="http://www.w3.org/2000/svg">
<g id="mdi:file-transfer">
<path id="Vector" d="M26.125 17.875C26.5925 17.875 27.0462 17.93 27.5 17.9988V11L19.25 2.75H8.25C6.72375 2.75 5.5 3.97375 5.5 5.5V27.5C5.5 29.0263 6.72375 30.25 8.25 30.25H18.9888C18.2875 29.04 17.875 27.6375 17.875 26.125C17.875 21.5737 21.5737 17.875 26.125 17.875ZM17.875 4.8125L25.4375 12.375H17.875V4.8125ZM27.5 26.8125V24.75H22V22H27.5V19.9375L31.625 23.375L27.5 26.8125ZM24.75 27.5H30.25V30.25H24.75V32.3125L20.625 28.875L24.75 25.4375V27.5Z" fill="#5063F4"/>
</g>
</svg>
