<svg width="33" height="33" viewBox="0 0 33 33" fill="none" xmlns="http://www.w3.org/2000/svg">
<g id="mdi:talk">
<path id="Vector" d="M12.375 6.875C13.8337 6.875 15.2326 7.45446 16.2641 8.48591C17.2955 9.51736 17.875 10.9163 17.875 12.375C17.875 13.8337 17.2955 15.2326 16.2641 16.2641C15.2326 17.2955 13.8337 17.875 12.375 17.875C10.9163 17.875 9.51736 17.2955 8.48591 16.2641C7.45446 15.2326 6.875 13.8337 6.875 12.375C6.875 10.9163 7.45446 9.51736 8.48591 8.48591C9.51736 7.45446 10.9163 6.875 12.375 6.875ZM12.375 20.625C16.0463 20.625 23.375 22.4675 23.375 26.125V28.875H1.375V26.125C1.375 22.4675 8.70375 20.625 12.375 20.625ZM23.045 7.37C25.8225 10.395 25.8225 14.5887 23.045 17.3663L20.735 15.0425C21.89 13.42 21.89 11.3162 20.735 9.69375L23.045 7.37ZM27.5962 2.75C33 8.31875 32.9587 16.6512 27.5962 22L25.355 19.7587C29.1638 15.3862 29.1638 9.14375 25.355 4.99125L27.5962 2.75Z" fill="#5063F4"/>
</g>
</svg>
