<svg width="25" height="24" viewBox="0 0 25 24" fill="none" xmlns="http://www.w3.org/2000/svg">
<g id="New Mail" clip-path="url(#clip0_863_13357)">
<g id="Group">
<path id="Vector" d="M22.3965 7.53516V17.0002C22.3965 17.7654 22.1042 18.5017 21.5792 19.0584C21.0542 19.6152 20.3364 19.9503 19.5725 19.9952L19.3965 20.0002H5.39648C4.63127 20.0002 3.89497 19.7078 3.33822 19.1829C2.78148 18.6579 2.44638 17.9401 2.40148 17.1762L2.39648 17.0002V7.53516L11.8415 13.8322L11.9575 13.8982C12.0942 13.965 12.2443 13.9997 12.3965 13.9997C12.5486 13.9997 12.6988 13.965 12.8355 13.8982L12.9515 13.8322L22.3965 7.53516Z" fill="#5063F4"/>
<path id="Vector_2" d="M19.3965 4C20.4765 4 21.4235 4.57 21.9515 5.427L12.3965 11.797L2.84149 5.427C3.09222 5.01977 3.4367 4.6784 3.8462 4.43138C4.25569 4.18436 4.71832 4.03886 5.19549 4.007L5.39649 4H19.3965Z" fill="#5063F4"/>
</g>
</g>
<defs>
<clipPath id="clip0_863_13357">
<rect width="24" height="24" fill="white" transform="translate(0.396484)"/>
</clipPath>
</defs>
</svg>
