<svg width="708" height="299" viewBox="0 0 708 299" fill="none" xmlns="http://www.w3.org/2000/svg">
<path d="M1.56599 82.7187C4.14932 113.635 6.56598 145.052 0.232647 175.719C-0.100686 177.302 2.31598 177.969 2.64931 176.385C9.06597 145.469 6.64932 113.885 4.06599 82.7187C3.89932 81.1354 1.39932 81.1354 1.56599 82.7187Z" fill="#E8E8E8"/>
<path d="M2.98437 83.5521C18.3177 84.2188 33.7344 84.2188 49.0677 83.4688C62.3177 82.8021 76.7344 82.8021 89.0677 77.4688C90.5677 76.8021 89.2344 74.6355 87.8177 75.3021C74.9844 80.8855 59.5677 80.5521 45.8177 81.1355C31.5677 81.7188 17.2344 81.7188 2.98437 81.0521C1.40104 80.9688 1.40104 83.4688 2.98437 83.5521Z" fill="#E8E8E8"/>
<path d="M86.9826 77.1355C94.9826 107.635 96.8993 139.469 92.4827 170.719C92.2327 172.302 94.6493 172.969 94.8993 171.385C99.316 139.635 97.4827 107.469 89.3993 76.4688C89.066 74.8855 86.6493 75.5521 86.9826 77.1355Z" fill="#E8E8E8"/>
<path d="M0.900112 176.969C17.4001 180.636 34.4001 180.969 51.2335 179.802C59.7335 179.219 68.3168 178.219 76.8168 177.219C82.9001 176.469 89.2334 176.136 94.2334 172.219C95.4834 171.219 93.7335 169.469 92.4835 170.469C86.8168 174.886 77.9835 174.636 71.2335 175.386C63.5668 176.302 55.8168 177.052 48.0668 177.552C32.4835 178.469 16.9001 178.052 1.65013 174.636C-0.0165344 174.219 -0.683221 176.636 0.900112 176.969Z" fill="#E8E8E8"/>
<path d="M7.56641 169.636C9.56641 169.719 11.4831 169.052 13.4831 168.886C15.8997 168.719 18.1497 168.969 20.4831 169.552C22.0664 169.969 22.7331 167.552 21.1498 167.136C18.9831 166.552 16.7331 166.219 14.4831 166.302C12.1498 166.386 9.89974 167.219 7.56641 167.136C5.98307 167.052 5.98307 169.552 7.56641 169.636Z" fill="#E8E8E8"/>
<path d="M9.06641 163.802C13.1497 163.886 17.3164 163.886 21.3997 163.969C22.9831 163.969 22.9831 161.469 21.3997 161.469C17.3164 161.386 13.1497 161.386 9.06641 161.302C7.48307 161.219 7.48307 163.719 9.06641 163.802Z" fill="#E8E8E8"/>
<path d="M9.90039 157.552C13.5671 157.719 17.1504 157.886 20.8171 158.052C22.4004 158.136 22.4004 155.636 20.8171 155.552C17.1504 155.386 13.5671 155.219 9.90039 155.052C8.31706 154.969 8.31706 157.469 9.90039 157.552Z" fill="#E8E8E8"/>
<path d="M11.0664 141.719C15.1497 141.219 19.2331 140.969 23.3997 141.052C24.9831 141.052 24.9831 138.552 23.3997 138.552C19.3164 138.469 15.1497 138.719 11.0664 139.219C9.48307 139.469 9.48307 141.969 11.0664 141.719Z" fill="#E8E8E8"/>
<path d="M11.9004 135.136C15.8171 135.219 19.7337 135.302 23.6504 135.386C25.2337 135.386 25.2337 132.886 23.6504 132.886C19.7337 132.802 15.8171 132.719 11.9004 132.636C10.3171 132.636 10.3171 135.136 11.9004 135.136Z" fill="#E8E8E8"/>
<path d="M11.0664 129.469C14.6497 129.719 18.1497 129.636 21.6497 129.302C23.2331 129.136 23.2331 126.636 21.6497 126.802C18.1497 127.219 14.5664 127.219 11.0664 126.969C9.48307 126.802 9.48307 129.302 11.0664 129.469Z" fill="#E8E8E8"/>
<path d="M11.6509 113.469C15.9842 112.636 20.3175 112.219 24.8175 112.302C26.4009 112.302 26.4009 109.802 24.8175 109.802C20.1509 109.719 15.5675 110.136 10.9842 111.052C9.48418 111.386 10.1509 113.802 11.6509 113.469Z" fill="#E8E8E8"/>
<path d="M11.4004 107.386C16.0671 107.469 20.7337 107.469 25.4837 107.219C27.0671 107.136 27.0671 104.636 25.4837 104.719C20.8171 104.969 16.1504 105.052 11.4004 104.886C9.73372 104.802 9.73372 107.302 11.4004 107.386Z" fill="#E8E8E8"/>
<path d="M9.65039 100.886C14.8171 101.052 19.9838 100.802 25.1504 100.302C26.7338 100.136 26.7338 97.6357 25.1504 97.8024C19.9838 98.3024 14.8171 98.5524 9.65039 98.3857C8.06706 98.3857 8.06706 100.886 9.65039 100.886Z" fill="#E8E8E8"/>
<path d="M37.4841 98.5521C50.4008 96.6354 63.4008 95.7188 76.4008 95.8854C77.9841 95.8854 77.9841 93.3854 76.4008 93.3854C63.1508 93.2188 49.9008 94.1354 36.8175 96.1354C35.2341 96.3854 35.9008 98.8021 37.4841 98.5521Z" fill="#E8E8E8"/>
<path d="M40.0664 103.219C52.8997 102.136 65.8164 101.469 78.7331 101.052C80.3164 100.969 80.3164 98.469 78.7331 98.5523C65.8164 98.8857 52.8997 99.6357 40.0664 100.719C38.3997 100.886 38.3997 103.386 40.0664 103.219Z" fill="#E8E8E8"/>
<path d="M39.0664 108.802C52.3997 108.136 65.8164 109.719 79.1498 108.302C80.7331 108.136 80.7331 105.636 79.1498 105.802C65.8164 107.302 52.3997 105.636 39.0664 106.302C37.4831 106.386 37.4831 108.886 39.0664 108.802Z" fill="#E8E8E8"/>
<path d="M31.1504 129.469C36.9837 129.469 42.8171 129.386 48.6504 129.386C50.2337 129.386 50.2337 126.886 48.6504 126.886C42.8171 126.886 36.9837 126.969 31.1504 126.969C29.4837 126.969 29.4837 129.469 31.1504 129.469Z" fill="#E8E8E8"/>
<path d="M31.7344 135.802C37.9844 135.636 44.3177 135.469 50.5677 135.386C52.3177 135.386 68.9844 134.469 68.9844 134.636C69.4844 136.136 71.9011 135.552 71.4011 133.969C70.9011 132.219 69.401 132.469 67.8177 132.469C63.9844 132.469 60.151 132.636 56.3177 132.719C48.151 132.886 39.901 133.136 31.7344 133.302C30.0677 133.302 30.0677 135.802 31.7344 135.802Z" fill="#E8E8E8"/>
<path d="M31.7344 142.052C36.7344 142.302 41.6511 142.302 46.6511 142.219C48.2344 142.136 48.2344 139.636 46.6511 139.719C41.6511 139.886 36.7344 139.802 31.7344 139.552C30.0677 139.469 30.0677 141.969 31.7344 142.052Z" fill="#E8E8E8"/>
<path d="M28.8164 156.386C45.4831 155.302 62.2331 154.886 78.9831 155.136C80.5664 155.136 80.5664 152.636 78.9831 152.636C62.2331 152.386 45.5664 152.802 28.8164 153.886C27.2331 153.969 27.2331 156.469 28.8164 156.386Z" fill="#E8E8E8"/>
<path d="M31.4004 161.886C35.5671 161.802 39.817 161.719 43.9837 161.636C45.567 161.636 45.567 159.136 43.9837 159.136C39.817 159.219 35.5671 159.302 31.4004 159.386C29.8171 159.386 29.8171 161.886 31.4004 161.886Z" fill="#E8E8E8"/>
<path d="M54.0666 161.802C60.8166 161.136 67.65 160.552 74.4 160.136C75.9833 160.052 75.9833 157.552 74.4 157.636C67.5666 158.052 60.8166 158.636 54.0666 159.302C52.4833 159.469 52.3999 161.969 54.0666 161.802Z" fill="#E8E8E8"/>
<path d="M30.2344 169.886C43.901 169.719 57.5677 169.302 71.2344 168.802C72.8177 168.719 72.8177 166.219 71.2344 166.302C57.5677 166.886 43.901 167.219 30.2344 167.386C28.651 167.386 28.651 169.886 30.2344 169.886Z" fill="#E8E8E8"/>
<path d="M97.15 120.969C118.733 116.969 140.65 115.052 162.65 115.219C162.233 114.886 161.817 114.636 161.483 114.302C174.317 155.219 180.483 198.052 179.733 240.969C179.733 242.552 182.233 242.552 182.233 240.969C182.983 197.886 176.817 154.802 163.9 113.636C163.733 113.136 163.233 112.719 162.733 112.719C140.567 112.552 118.4 114.469 96.5667 118.552C94.9 118.802 95.5667 121.219 97.15 120.969Z" fill="#E8E8E8"/>
<path d="M52.6505 178.802C54.1505 202.219 50.9004 225.552 42.9838 247.552C42.4838 249.052 44.8171 249.719 45.4005 248.219C53.3171 225.969 56.6505 202.386 55.1505 178.802C55.0671 177.219 52.5671 177.136 52.6505 178.802Z" fill="#E8E8E8"/>
<path d="M43.4005 249.386C64.4005 258.302 87.4005 257.386 109.651 255.302C133.901 252.969 157.734 249.052 181.067 242.136C182.567 241.719 181.984 239.302 180.401 239.719C157.734 246.386 134.651 250.386 111.067 252.636C88.9005 254.802 65.6505 256.136 44.6505 247.219C43.2339 246.552 41.9839 248.719 43.4005 249.386Z" fill="#E8E8E8"/>
<path d="M103.734 129.386C108.067 128.636 112.401 128.386 116.817 128.552C118.401 128.636 118.401 126.136 116.817 126.052C112.151 125.886 107.567 126.219 103.067 127.052C101.484 127.302 102.151 129.636 103.734 129.386Z" fill="#E8E8E8"/>
<path d="M103.066 135.719C108.983 135.135 114.9 134.636 120.816 134.219C122.4 134.136 122.4 131.636 120.816 131.719C114.9 132.136 108.983 132.635 103.066 133.219C101.483 133.385 101.483 135.885 103.066 135.719Z" fill="#E8E8E8"/>
<path d="M105.734 145.135V145.219C106.15 144.885 106.567 144.635 106.9 144.302C106.817 144.302 106.817 144.302 106.734 144.302C107.067 144.469 107.484 144.719 107.817 144.885C107.817 144.802 107.734 144.802 107.734 144.719C107.65 145.219 107.567 145.719 107.567 146.219C106.984 146.385 107.067 146.469 107.9 146.385C108.4 146.385 108.9 146.385 109.317 146.385C110.15 146.385 110.984 146.302 111.817 146.302C113.484 146.135 115.15 145.969 116.817 145.635C118.4 145.385 117.734 142.969 116.15 143.219C113.984 143.635 111.817 143.802 109.65 143.885C108.317 143.885 106.734 143.469 105.734 144.469C105.317 144.885 105.317 145.552 105.567 145.969C105.9 146.469 106.317 146.719 106.9 146.719C107.4 146.719 107.984 146.302 108.067 145.802V145.719C108.484 144.219 106.067 143.552 105.734 145.135Z" fill="#E8E8E8"/>
<path d="M103.984 157.302C110.984 156.302 117.984 154.969 125.067 155.219C126.651 155.302 126.651 152.802 125.067 152.719C117.734 152.469 110.484 153.886 103.317 154.886C101.734 155.136 102.401 157.552 103.984 157.302Z" fill="#E8E8E8"/>
<path d="M131.15 126.719C139.15 125.636 147.15 125.052 155.15 124.802C156.734 124.719 156.734 122.219 155.15 122.302C147.067 122.552 139.067 123.136 131.15 124.219C129.567 124.386 129.567 126.886 131.15 126.719Z" fill="#E8E8E8"/>
<path d="M136.9 137.219C141.9 136.386 146.817 135.636 151.817 134.802C153.4 134.552 152.733 132.136 151.15 132.386C146.15 133.219 141.233 133.969 136.233 134.802C134.65 135.052 135.317 137.469 136.9 137.219Z" fill="#E8E8E8"/>
<path d="M138.566 151.802C142.816 151.385 147.15 151.219 151.483 151.219C153.066 151.219 153.066 148.719 151.483 148.719C147.15 148.719 142.9 148.885 138.566 149.302C136.983 149.469 136.983 151.969 138.566 151.802Z" fill="#E8E8E8"/>
<path d="M146.066 156.552C151.316 155.802 156.483 155.302 161.816 154.969C163.399 154.886 163.399 152.386 161.816 152.469C156.316 152.802 150.899 153.386 145.399 154.136C143.816 154.386 144.483 156.719 146.066 156.552Z" fill="#E8E8E8"/>
<path d="M63.4844 220.136C65.0677 220.136 65.0677 217.636 63.4844 217.636C61.901 217.636 61.901 220.136 63.4844 220.136Z" fill="#E8E8E8"/>
<path d="M60.8171 217.886C62.9004 218.552 64.9004 218.302 67.0671 218.219C69.9004 218.136 72.7337 218.302 75.5671 218.552C77.1504 218.719 77.1504 216.219 75.5671 216.052C73.1504 215.802 70.6504 215.636 68.2337 215.719C66.067 215.719 63.6504 216.219 61.567 215.469C59.9837 214.969 59.3171 217.386 60.8171 217.886Z" fill="#E8E8E8"/>
<path d="M63.8164 225.385C68.3997 224.969 72.9831 225.052 77.5664 225.719C79.1497 225.885 79.1497 223.385 77.5664 223.219C72.9831 222.635 68.3997 222.552 63.8164 222.885C62.2331 223.052 62.2331 225.552 63.8164 225.385Z" fill="#E8E8E8"/>
<path d="M56.5663 235.969C60.4829 237.469 64.5663 237.219 68.733 237.219C73.5663 237.219 78.3996 237.219 83.2329 237.219C91.7329 237.219 100.9 238.136 109.15 235.636C110.65 235.136 110.066 232.719 108.483 233.219C100.483 235.719 91.4829 234.719 83.2329 234.719C78.8996 234.719 74.6496 234.719 70.3163 234.719C65.8996 234.719 61.3996 235.136 57.1496 233.552C55.6496 232.969 55.0663 235.386 56.5663 235.969Z" fill="#E8E8E8"/>
<path d="M99.6493 224.135C102.316 223.969 104.983 223.885 107.649 223.719C110.316 223.552 113.066 223.135 115.566 224.219C117.066 224.802 117.733 222.385 116.233 221.802C113.816 220.802 111.399 221.052 108.816 221.219C105.733 221.385 102.649 221.552 99.566 221.719C97.9826 221.719 97.9826 224.219 99.6493 224.135Z" fill="#E8E8E8"/>
<path d="M89.3164 246.886C102.733 246.386 116.066 245.636 129.483 244.552C131.066 244.386 131.066 241.886 129.483 242.052C116.15 243.136 102.733 243.886 89.3164 244.386C87.6497 244.469 87.6497 246.969 89.3164 246.886Z" fill="#E8E8E8"/>
<path d="M238.567 8.80225C242.317 48.3022 241.483 87.9689 240.65 127.552C240.65 129.136 243.15 129.136 243.15 127.552C244.067 87.9689 244.817 48.3022 241.067 8.80225C240.9 7.21891 238.4 7.21891 238.567 8.80225Z" fill="#E8E8E8"/>
<path d="M239.9 9.71893C256.817 10.4689 273.4 5.71893 290.15 3.8856C307.15 2.05227 324.317 2.05226 341.317 3.80226C342.9 3.96893 342.9 1.46893 341.317 1.30226C324.317 -0.447737 307.15 -0.447732 290.15 1.3856C273.4 3.21893 256.817 7.96893 239.9 7.21893C238.234 7.21893 238.234 9.71893 239.9 9.71893Z" fill="#E8E8E8"/>
<path d="M340.234 3.13547C342.484 11.8855 342.817 20.8855 342.984 29.8021C343.234 39.3855 343.567 49.0521 343.9 58.6355C344.567 77.5521 345.4 96.5522 346.4 115.469C346.484 117.052 348.984 117.052 348.9 115.469C347.9 95.9688 346.984 76.4688 346.317 56.9688C345.984 47.3855 345.734 37.8022 345.484 28.3022C345.234 19.6355 344.817 10.8855 342.65 2.46882C342.234 0.885485 339.817 1.55214 340.234 3.13547Z" fill="#E8E8E8"/>
<path d="M241.816 129.385C259.733 134.552 278.983 132.635 297.233 130.802C314.816 129.052 332.233 125.719 348.316 117.969C349.733 117.302 348.483 115.135 347.066 115.802C330.983 123.552 313.399 126.719 295.816 128.469C278.233 130.135 259.733 131.969 242.566 126.969C240.899 126.469 240.233 128.885 241.816 129.385Z" fill="#E8E8E8"/>
<path d="M344.566 25.5523C354.733 23.969 365.066 23.469 375.399 24.0523C380.733 24.3857 386.066 24.969 391.399 25.8857C393.649 26.3023 396.149 26.469 398.316 27.219C401.399 28.3023 401.233 30.5523 401.733 33.469C405.566 53.8857 408.066 74.5523 409.316 95.3023C409.399 96.8857 411.899 96.8857 411.816 95.3023C411.066 83.5523 409.983 71.8023 408.483 60.1357C407.816 54.719 406.983 49.3023 406.066 43.8857C405.566 40.969 405.066 38.0523 404.566 35.1357C404.149 32.6357 403.983 29.469 402.983 27.219C401.566 23.969 395.816 24.0523 392.816 23.5523C387.566 22.6357 382.316 21.969 376.983 21.6357C365.899 20.8857 354.899 21.469 343.899 23.1357C342.316 23.3857 342.983 25.8023 344.566 25.5523Z" fill="#E8E8E8"/>
<path d="M313.233 128.386C314.733 132.552 315.65 136.719 315.816 141.136C315.9 143.302 315.566 145.886 317.149 147.636C318.733 149.386 321.483 149.386 323.649 149.719C327.149 150.219 330.733 150.636 334.233 150.802C350.483 151.719 366.733 149.636 382.816 147.469C384.399 147.302 384.399 144.719 382.816 144.969C369.066 146.802 355.316 148.636 341.4 148.469C338.233 148.469 335.066 148.302 331.899 148.052C329.816 147.886 327.816 147.636 325.733 147.386C324.316 147.219 321.316 147.302 320.233 146.469C317.399 144.386 318.316 139.636 317.816 136.552C317.399 133.469 316.566 130.552 315.566 127.636C315.066 126.219 312.649 126.802 313.233 128.386Z" fill="#E8E8E8"/>
<path d="M378.817 96.6354C380.65 104.635 380.983 112.885 381.4 121.135C381.817 128.969 382.233 136.885 382.567 144.719C383.233 160.719 383.65 176.719 383.817 192.802C383.817 194.385 386.317 194.385 386.317 192.802C386.15 176.219 385.65 159.719 384.983 143.135C384.317 127.635 384.733 111.219 381.233 96.052C380.9 94.3854 378.483 95.052 378.817 96.6354Z" fill="#E8E8E8"/>
<path d="M380.484 98.1357C397.901 97.1357 415.318 97.3857 432.651 98.8024C434.234 98.969 434.234 96.469 432.651 96.3024C415.318 94.8024 397.901 94.6357 380.484 95.6357C378.901 95.8023 378.901 98.3023 380.484 98.1357Z" fill="#E8E8E8"/>
<path d="M383.566 193.302C385.65 196.886 389.066 198.219 393.066 198.719C399.066 199.469 405.15 199.719 411.15 200.136C423.983 200.969 436.816 201.636 449.65 201.719C455.9 201.719 462.233 201.636 468.483 201.386C471.483 201.219 474.483 201.052 477.483 200.886C479.066 200.802 481.816 201.052 483.233 199.886C484.15 199.136 484.233 198.052 484.4 196.886C484.733 193.636 484.65 190.302 484.733 187.052C484.983 180.469 485.15 173.886 485.4 167.302C485.483 165.719 482.983 165.719 482.9 167.302C482.733 172.469 482.566 177.719 482.4 182.886C482.316 185.386 482.233 187.802 482.15 190.302C482.066 191.636 482.066 193.052 481.983 194.386C481.9 196.719 481.65 197.552 479.15 198.219C476.983 198.802 474.066 198.552 471.816 198.719C469.066 198.886 466.4 198.969 463.65 199.052C458.483 199.219 453.316 199.219 448.066 199.219C437.983 199.136 427.816 198.719 417.733 198.052C412.566 197.719 407.4 197.386 402.15 196.969C396.816 196.552 388.816 197.302 385.733 192.052C384.9 190.636 382.733 191.969 383.566 193.302Z" fill="#E8E8E8"/>
<path d="M426.983 61.2187C431.567 76.9687 432.567 92.8021 433.317 109.135C434.15 125.802 434.9 142.385 435.733 159.052C435.817 160.635 438.317 160.635 438.233 159.052C437.4 141.885 436.567 124.719 435.733 107.469C434.983 91.4687 433.817 76.0521 429.317 60.5521C428.9 59.0521 426.567 59.7187 426.983 61.2187Z" fill="#E8E8E8"/>
<path d="M436.316 161.052C446.066 164.469 456.4 165.052 466.566 165.969C477.15 166.969 487.233 168.053 497.816 166.303C508.4 164.553 518.9 162.469 529.4 160.053C538.983 157.803 547.816 154.552 555.483 148.302C556.733 147.302 554.983 145.552 553.733 146.552C545.816 152.969 536.316 155.886 526.483 158.136C516.733 160.386 506.983 162.302 497.15 163.886C486.816 165.552 476.9 164.386 466.566 163.386C456.65 162.386 446.483 161.886 436.983 158.552C435.483 158.052 434.816 160.469 436.316 161.052Z" fill="#E8E8E8"/>
<path d="M428.066 61.3023C445.983 56.219 464.733 55.8857 483.233 54.969C501.983 53.969 520.483 53.3856 539.233 54.8023C540.816 54.8856 540.816 52.3856 539.233 52.3023C519.983 50.8023 500.983 51.5523 481.733 52.5523C463.483 53.469 445.066 53.969 427.399 58.969C425.816 59.3023 426.483 61.719 428.066 61.3023Z" fill="#E8E8E8"/>
<path d="M537.983 53.4687C538.233 69.3021 540.316 85.0521 543.149 100.635C544.566 108.552 546.233 116.385 547.983 124.219C549.649 131.969 551.066 139.802 553.732 147.219C554.232 148.719 556.649 148.052 556.149 146.552C551.066 132.219 548.649 116.469 545.899 101.552C542.899 85.6354 540.816 69.6354 540.483 53.4687C540.399 51.8854 537.899 51.8854 537.983 53.4687Z" fill="#E8E8E8"/>
<path d="M249.816 52.3857C265.65 51.219 281.566 50.719 297.483 50.8024C299.066 50.8024 299.066 48.3024 297.483 48.3024C281.566 48.219 265.65 48.719 249.816 49.8857C248.233 49.969 248.233 52.469 249.816 52.3857Z" fill="#E8E8E8"/>
<path d="M250.234 63.1355C253.818 63.2188 257.484 63.3855 261.068 63.1355C264.401 62.9688 267.651 62.3022 270.984 62.7188C272.568 62.8855 272.568 60.3855 270.984 60.2188C267.651 59.8022 264.401 60.4688 261.068 60.6355C257.484 60.8022 253.818 60.7188 250.234 60.6355C248.568 60.5522 248.568 63.0522 250.234 63.1355Z" fill="#E8E8E8"/>
<path d="M250.15 70.2189C256.15 70.5522 262.067 69.3022 267.984 70.2189C269.567 70.4689 270.234 68.0522 268.65 67.8022C262.484 66.8855 256.317 68.0522 250.15 67.7189C248.484 67.6355 248.484 70.1355 250.15 70.2189Z" fill="#E8E8E8"/>
<path d="M251.566 86.1357C256.983 86.1357 262.4 86.1357 267.9 86.1357C269.483 86.1357 269.483 83.6357 267.9 83.6357C262.483 83.6357 257.066 83.6357 251.566 83.6357C249.983 83.6357 249.983 86.1357 251.566 86.1357Z" fill="#E8E8E8"/>
<path d="M252.65 91.9687C256.567 91.9687 260.567 91.9687 264.484 91.9687C266.067 91.9687 266.067 89.4688 264.484 89.4688C260.567 89.4688 256.567 89.4688 252.65 89.4688C250.984 89.4688 250.984 91.9687 252.65 91.9687Z" fill="#E8E8E8"/>
<path d="M250.234 101.219C255.818 101.219 261.401 101.219 266.901 101.219C268.484 101.219 268.484 98.7188 266.901 98.7188C261.318 98.7188 255.734 98.7188 250.234 98.7188C248.568 98.7188 248.568 101.219 250.234 101.219Z" fill="#E8E8E8"/>
<path d="M293.234 60.8022C304.984 60.8022 316.734 60.8022 328.484 60.8022C330.068 60.8022 330.068 58.3022 328.484 58.3022C316.734 58.3022 304.984 58.3022 293.234 58.3022C291.651 58.3022 291.651 60.8022 293.234 60.8022Z" fill="#E8E8E8"/>
<path d="M294.066 70.6357C301.733 70.6357 309.4 70.6357 316.983 70.6357C318.566 70.6357 318.566 68.1357 316.983 68.1357C309.316 68.1357 301.65 68.1357 294.066 68.1357C292.483 68.1357 292.483 70.6357 294.066 70.6357Z" fill="#E8E8E8"/>
<path d="M325.484 70.2187C327.734 70.2187 330.068 70.2187 332.318 70.2187C333.901 70.2187 333.901 67.7188 332.318 67.7188C330.068 67.7188 327.734 67.7188 325.484 67.7188C323.818 67.7188 323.818 70.2187 325.484 70.2187Z" fill="#E8E8E8"/>
<path d="M296.484 86.3022C305.651 86.3022 314.901 86.3022 324.068 86.3022C325.651 86.3022 325.651 83.8022 324.068 83.8022C314.901 83.8022 305.651 83.8022 296.484 83.8022C294.901 83.8022 294.901 86.3022 296.484 86.3022Z" fill="#E8E8E8"/>
<path d="M286.65 97.6357C294.734 97.6357 302.734 97.6357 310.817 97.6357C312.4 97.6357 312.4 95.1357 310.817 95.1357C302.734 95.1357 294.734 95.1357 286.65 95.1357C284.984 95.1357 284.984 97.6357 286.65 97.6357Z" fill="#E8E8E8"/>
<path d="M296.484 103.802C302.568 103.802 308.651 103.802 314.818 103.802C316.401 103.802 316.401 101.302 314.818 101.302C308.734 101.302 302.651 101.302 296.484 101.302C294.901 101.302 294.901 103.802 296.484 103.802Z" fill="#E8E8E8"/>
<path d="M319.65 97.2187C325.484 97.2187 331.317 97.2187 337.15 97.2187C338.734 97.2187 338.734 94.7188 337.15 94.7188C331.317 94.7188 325.484 94.7188 319.65 94.7188C317.984 94.7188 317.984 97.2187 319.65 97.2187Z" fill="#E8E8E8"/>
<path d="M348.566 37.8022C353.9 37.8022 359.316 37.8022 364.65 37.8022C366.233 37.8022 366.233 35.3022 364.65 35.3022C359.316 35.3022 353.9 35.3022 348.566 35.3022C346.983 35.3022 346.983 37.8022 348.566 37.8022Z" fill="#E8E8E8"/>
<path d="M369.566 33.0522C373.733 34.8022 378.4 34.7189 382.4 36.8022C382.4 36.0522 382.4 35.3855 382.4 34.6355C379.483 36.7189 376.566 38.8022 373.733 40.8855C372.4 41.8022 373.65 43.9689 374.983 43.0522C377.9 40.9689 380.816 38.8856 383.65 36.8022C384.316 36.3022 384.566 35.1355 383.65 34.6355C379.4 32.4689 374.566 32.4689 370.233 30.6355C368.733 30.0522 368.066 32.4689 369.566 33.0522Z" fill="#E8E8E8"/>
<path d="M351.066 48.8855C352.983 49.3855 354.899 49.8854 356.899 50.2188C357.399 50.3021 361.983 50.5521 362.233 51.0521C361.983 50.5521 355.566 56.1354 354.899 56.8854C353.816 58.0521 355.566 59.8021 356.649 58.6355C358.649 56.5521 360.816 54.8021 363.316 53.3021C364.566 52.5521 365.983 51.4688 365.233 49.8021C364.483 48.3021 362.233 48.5521 360.816 48.3021C357.816 47.8855 354.816 47.2188 351.816 46.3855C350.149 46.0521 349.483 48.4688 351.066 48.8855Z" fill="#E8E8E8"/>
<path d="M350.566 70.0522C359.15 70.0522 367.733 70.0522 376.316 70.0522C377.9 70.0522 377.9 67.5522 376.316 67.5522C367.733 67.5522 359.15 67.5522 350.566 67.5522C348.983 67.5522 348.983 70.0522 350.566 70.0522Z" fill="#E8E8E8"/>
<path d="M376.651 61.9688C378.401 62.8855 380.234 63.4688 382.151 63.9688C384.151 64.5522 387.567 65.0522 388.817 66.9688C388.817 66.5522 388.817 66.1355 388.817 65.7188C387.984 67.1355 386.317 68.3855 385.151 69.5522C383.984 70.7188 382.734 71.9688 381.567 73.1355C380.567 74.1355 381.817 75.8022 383.067 75.1355C383.234 75.0522 383.484 74.8855 383.65 74.8022C385.067 73.9688 383.817 71.8855 382.4 72.6355C382.234 72.7188 381.984 72.8855 381.817 72.9688C382.317 73.6355 382.817 74.3022 383.317 74.9688C384.734 73.5522 386.234 72.1355 387.651 70.6355C388.817 69.4688 390.234 68.4688 390.984 67.0522C391.234 66.6355 391.234 66.1355 390.984 65.8022C388.401 61.8022 381.817 61.8855 377.901 59.8855C376.484 59.0522 375.234 61.2188 376.651 61.9688Z" fill="#E8E8E8"/>
<path d="M350.4 84.3022C356.4 84.3022 362.484 84.3022 368.484 84.3022C370.067 84.3022 370.067 81.8022 368.484 81.8022C362.484 81.8022 356.4 81.8022 350.4 81.8022C348.817 81.8022 348.817 84.3022 350.4 84.3022Z" fill="#E8E8E8"/>
<path d="M378.816 83.7187C385.233 83.7187 391.733 83.7187 398.15 83.7187C399.733 83.7187 399.733 81.2188 398.15 81.2188C391.733 81.2188 385.233 81.2188 378.816 81.2188C377.15 81.2188 377.15 83.7187 378.816 83.7187Z" fill="#E8E8E8"/>
<path d="M352.65 100.802C359.234 100.802 365.817 100.802 372.4 100.802C373.984 100.802 373.984 98.3022 372.4 98.3022C365.817 98.3022 359.234 98.3022 352.65 98.3022C350.984 98.3022 350.984 100.802 352.65 100.802Z" fill="#E8E8E8"/>
<path d="M325.484 131.802C335.651 131.802 345.901 131.802 356.068 131.802C357.651 131.802 357.651 129.302 356.068 129.302C345.901 129.302 335.651 129.302 325.484 129.302C323.818 129.302 323.818 131.802 325.484 131.802Z" fill="#E8E8E8"/>
<path d="M336.9 140.636C346.067 140.636 355.317 140.636 364.484 140.636C366.067 140.636 366.067 138.136 364.484 138.136C355.317 138.136 346.067 138.136 336.9 138.136C335.317 138.136 335.317 140.636 336.9 140.636Z" fill="#E8E8E8"/>
<path d="M416.567 111.136C412.151 106.386 406.484 117.302 405.901 120.552C405.151 124.885 406.234 129.302 407.401 133.469C408.317 136.885 409.234 139.802 407.901 143.302C406.734 146.219 404.401 148.885 401.567 150.135C400.484 150.635 400.984 152.552 402.234 152.469C412.318 151.469 409.484 170.719 412.067 176.886C414.567 182.719 420.318 185.469 426.401 184.469C427.984 184.219 427.317 181.802 425.734 182.052C412.734 184.136 413.401 169.719 412.234 161.219C411.484 155.969 408.567 149.302 402.151 149.969C402.401 150.719 402.567 151.552 402.817 152.302C408.067 149.969 411.984 143.469 410.984 137.719C410.234 133.135 408.317 128.886 408.151 124.219C408.067 122.302 408.317 120.302 408.984 118.469C409.234 117.885 413.068 111.136 414.734 112.969C415.901 114.136 417.651 112.302 416.567 111.136Z" fill="#E8E8E8"/>
<path d="M456.316 163.802C454.233 166.052 454.9 168.719 456.066 171.386C457.066 173.636 459.483 176.302 459.4 178.802C459.4 183.386 454.066 185.469 450.566 186.802C449.066 187.386 449.733 189.802 451.233 189.219C455.4 187.636 460.066 185.636 461.483 180.969C462.066 179.219 461.899 177.469 461.233 175.802C460.233 173.219 455.4 168.302 458.066 165.552C459.233 164.386 457.4 162.636 456.316 163.802Z" fill="#E8E8E8"/>
<path d="M615.649 188.052C611.649 223.969 614.482 260.302 623.899 295.136C624.316 296.719 626.733 296.052 626.316 294.469C616.899 259.802 614.149 223.719 618.149 188.052C618.316 186.469 615.816 186.469 615.649 188.052Z" fill="#E8E8E8"/>
<path d="M617.984 188.469C639.901 189.969 662.984 193.385 684.651 187.802C686.234 187.385 685.568 184.969 683.984 185.385C662.651 190.969 639.734 187.469 617.984 185.969C616.318 185.885 616.318 188.385 617.984 188.469Z" fill="#E8E8E8"/>
<path d="M682.984 186.802C680.234 218.636 688.151 250.719 705.317 277.636C706.151 278.969 708.317 277.719 707.484 276.386C690.567 249.802 682.817 218.219 685.484 186.802C685.651 185.219 683.151 185.219 682.984 186.802Z" fill="#E8E8E8"/>
<path d="M625.734 295.886C638.484 300.552 654.234 298.219 667.151 295.302C680.984 292.136 694.234 286.469 706.068 278.719C707.401 277.886 706.151 275.719 704.818 276.552C693.484 283.969 681.067 289.386 667.901 292.552C655.067 295.636 639.151 298.135 626.401 293.469C624.901 292.885 624.234 295.302 625.734 295.886Z" fill="#E8E8E8"/>
<path d="M632.817 202.302C628.233 205.469 624.067 208.969 620.15 212.886C619.4 213.636 619.9 215.052 621.067 215.052C627.233 214.886 633.483 214.719 639.65 214.636C641.233 214.636 641.233 212.136 639.65 212.136C633.483 212.302 627.233 212.469 621.067 212.552C621.4 213.302 621.65 213.969 621.983 214.719C625.733 210.969 629.733 207.552 634.15 204.552C635.4 203.636 634.15 201.386 632.817 202.302Z" fill="#E8E8E8"/>
<path d="M644.4 205.719C650.9 205.219 657.317 205.302 663.734 205.969C665.317 206.136 665.317 203.636 663.734 203.469C657.317 202.802 650.817 202.719 644.4 203.219C642.817 203.302 642.817 205.802 644.4 205.719Z" fill="#E8E8E8"/>
<path d="M664.567 201.719C668.567 202.635 672.484 203.802 676.4 205.219C676.234 204.552 676.067 203.802 675.817 203.135C673.15 205.219 670.567 207.385 668.067 209.719C666.9 210.802 668.65 212.552 669.817 211.469C672.317 209.219 674.9 206.969 677.567 204.885C678.4 204.219 677.817 203.052 676.984 202.802C673.15 201.302 669.234 200.135 665.15 199.302C663.65 198.969 662.984 201.302 664.567 201.719Z" fill="#E8E8E8"/>
<path d="M621.482 230.469C625.149 230.719 628.732 230.885 632.399 231.135C633.982 231.219 633.982 228.719 632.399 228.635C628.732 228.385 625.149 228.219 621.482 227.969C619.899 227.886 619.899 230.386 621.482 230.469Z" fill="#E8E8E8"/>
<path d="M639.984 230.469C650.234 228.886 660.484 227.302 670.651 225.719C672.234 225.469 671.567 223.052 669.984 223.302C659.734 224.886 649.484 226.469 639.317 228.052C637.734 228.302 638.401 230.719 639.984 230.469Z" fill="#E8E8E8"/>
<path d="M623.316 238.636C625.9 238.636 628.566 238.636 631.15 238.636C632.733 238.636 632.733 236.136 631.15 236.136C628.566 236.136 625.9 236.136 623.316 236.136C621.733 236.136 621.733 238.636 623.316 238.636Z" fill="#E8E8E8"/>
<path d="M623.9 244.719C626.9 244.969 629.817 244.719 632.65 244.052C634.234 243.719 633.567 241.302 631.984 241.635C629.317 242.219 626.65 242.385 623.9 242.219C622.317 242.052 622.317 244.552 623.9 244.719Z" fill="#E8E8E8"/>
<path d="M622.984 255.552C634.068 254.385 646.234 254.385 656.818 250.719C658.318 250.219 657.651 247.802 656.151 248.302C645.734 251.885 633.818 251.885 622.984 253.052C621.401 253.219 621.401 255.719 622.984 255.552Z" fill="#E8E8E8"/>
<path d="M643.234 241.636C654.734 240.386 666.151 238.386 677.401 235.636C678.984 235.219 678.318 232.802 676.734 233.219C665.734 235.969 654.568 237.886 643.234 239.136C641.651 239.302 641.651 241.802 643.234 241.636Z" fill="#E8E8E8"/>
<path d="M625.734 265.802C628.318 266.052 630.818 265.885 633.318 265.219C634.901 264.802 634.234 262.385 632.651 262.802C630.401 263.385 628.068 263.552 625.734 263.302C624.151 263.135 624.151 265.635 625.734 265.802Z" fill="#E8E8E8"/>
<path d="M644.316 263.136C648.066 263.552 651.65 262.469 655.316 261.636C659.816 260.636 664.316 259.636 668.733 258.636C670.316 258.302 669.65 255.886 668.066 256.219C664.15 257.136 660.15 257.969 656.233 258.886C652.316 259.719 648.316 261.052 644.316 260.636C642.733 260.386 642.733 262.886 644.316 263.136Z" fill="#E8E8E8"/>
<path d="M639.233 267.635C637.15 268.219 635.483 269.635 634.983 271.802C634.817 272.635 634.9 273.635 635.15 274.469C635.4 275.135 638.9 279.552 637.067 280.052C636.317 280.219 635.817 281.219 636.317 281.885C638.317 284.635 638.067 288.635 641.067 290.719C642.983 292.052 645.067 292.135 646.817 290.552C647.983 289.469 646.233 287.719 645.067 288.802C642.067 291.636 639.65 282.302 638.483 280.635C638.233 281.219 637.983 281.886 637.733 282.469C639.233 282.052 640.067 281.219 640.233 279.636C640.65 277.052 634.567 271.469 639.9 270.052C641.483 269.636 640.817 267.219 639.233 267.635Z" fill="#E8E8E8"/>
<path d="M645.65 278.469C653.15 278.136 660.567 277.552 667.984 276.719C669.567 276.552 669.567 274.052 667.984 274.219C660.567 275.052 653.15 275.636 645.65 275.969C644.067 276.052 644.067 278.552 645.65 278.469Z" fill="#E8E8E8"/>
<path d="M672.816 265.219C673.483 265.302 674.566 265.052 675.233 265.219C678.816 266.219 677.316 267.052 677.566 268.886C677.733 270.302 677.566 271.552 677.983 272.969C678.4 274.469 679.233 275.886 679.733 277.386C680.483 279.552 680.566 279.969 678.983 281.886C677.483 283.636 677.483 283.636 675.483 283.969C673.9 284.219 674.566 286.636 676.15 286.386C678.65 285.969 681.15 285.052 682.316 282.636C683.65 279.802 682.233 277.052 681.15 274.386C680.316 272.386 679.983 270.552 680.066 268.386C680.066 267.219 680.233 265.969 679.733 264.886C678.316 261.969 675.4 263.052 672.816 262.719C671.233 262.552 671.233 265.052 672.816 265.219Z" fill="#E8E8E8"/>
</svg>
