<svg width="30" height="31" viewBox="0 0 30 31" fill="none" xmlns="http://www.w3.org/2000/svg">
<g id="COCO/Duotone/Chart">
<path id="Vector" d="M19.4449 13.9523H16.6671V11.1745C16.6671 10.8062 16.5208 10.4529 16.2603 10.1924C15.9998 9.93197 15.6466 9.78564 15.2782 9.78564C14.9099 9.78564 14.5566 9.93197 14.2961 10.1924C14.0357 10.4529 13.8893 10.8062 13.8893 11.1745L13.9386 13.9523H11.1115C10.7432 13.9523 10.3899 14.0986 10.1295 14.3591C9.86899 14.6196 9.72266 14.9728 9.72266 15.3412C9.72266 15.7096 9.86899 16.0628 10.1295 16.3233C10.3899 16.5838 10.7432 16.7301 11.1115 16.7301L13.9386 16.6808L13.8893 19.5079C13.8893 19.8762 14.0357 20.2295 14.2961 20.49C14.5566 20.7504 14.9099 20.8968 15.2782 20.8968C15.6466 20.8968 15.9998 20.7504 16.2603 20.49C16.5208 20.2295 16.6671 19.8762 16.6671 19.5079V16.6808L19.4449 16.7301C19.8132 16.7301 20.1665 16.5838 20.427 16.3233C20.6874 16.0628 20.8338 15.7096 20.8338 15.3412C20.8338 14.9728 20.6874 14.6196 20.427 14.3591C20.1665 14.0986 19.8132 13.9523 19.4449 13.9523Z" fill="#F8FAFF"/>
<path id="Vector_2" d="M4.1911 11.2515C5.00547 7.77974 7.71626 5.06894 11.188 4.25457C13.6953 3.66644 16.3047 3.66644 18.812 4.25457C22.2837 5.06894 24.9945 7.77974 25.8089 11.2515C26.397 13.7588 26.397 16.3682 25.8089 18.8754C24.9945 22.3472 22.2837 25.058 18.812 25.8724C16.3047 26.4605 13.6953 26.4605 11.188 25.8724C7.71626 25.058 5.00547 22.3472 4.1911 18.8754C3.60297 16.3682 3.60297 13.7588 4.1911 11.2515Z" fill="#F8FAFF" fill-opacity="0.15" stroke="#F8FAFF" stroke-width="1.35" stroke-linecap="round"/>
</g>
</svg>
