<svg width="40" height="40" viewBox="0 0 40 40" fill="none" xmlns="http://www.w3.org/2000/svg">
<path d="M5.58813 14.9174C6.67396 10.2883 10.2883 6.67395 14.9174 5.58813C18.2604 4.80396 21.7396 4.80396 25.0826 5.58813C29.7117 6.67395 33.3261 10.2884 34.4119 14.9174C35.196 18.2604 35.196 21.7396 34.4119 25.0826C33.3261 29.7117 29.7117 33.3261 25.0826 34.4119C21.7396 35.196 18.2604 35.196 14.9174 34.4119C10.2884 33.3261 6.67396 29.7117 5.58813 25.0826C4.80396 21.7396 4.80396 18.2604 5.58813 14.9174Z" fill="#EFF2FE" stroke="#5063F4" stroke-width="1.35"/>
<path d="M16 13C15.2044 13 14.4413 13.3161 13.8787 13.8787C13.3161 14.4413 13 15.2044 13 16V24C13 24.7956 13.3161 25.5587 13.8787 26.1213C14.4413 26.6839 15.2044 27 16 27H19.6C19.4367 26.6803 19.305 26.3454 19.207 26H16C15.4696 26 14.9609 25.7893 14.5858 25.4142C14.2107 25.0391 14 24.5304 14 24V16C14 15.4696 14.2107 14.9609 14.5858 14.5858C14.9609 14.2107 15.4696 14 16 14H24C24.5304 14 25.0391 14.2107 25.4142 14.5858C25.7893 14.9609 26 15.4696 26 16V19.207C26.3493 19.3063 26.6827 19.4373 27 19.6V16C27 15.2044 26.6839 14.4413 26.1213 13.8787C25.5587 13.3161 24.7956 13 24 13H16ZM19.5 20H21.337C22.232 19.37 23.323 19 24.5 19H19.5C19.3674 19 19.2402 19.0527 19.1464 19.1464C19.0527 19.2402 19 19.3674 19 19.5C19 19.6326 19.0527 19.7598 19.1464 19.8536C19.2402 19.9473 19.3674 20 19.5 20ZM15.5 15C15.3674 15 15.2402 15.0527 15.1464 15.1464C15.0527 15.2402 15 15.3674 15 15.5C15 15.6326 15.0527 15.7598 15.1464 15.8536C15.2402 15.9473 15.3674 16 15.5 16H24.5C24.6326 16 24.7598 15.9473 24.8536 15.8536C24.9473 15.7598 25 15.6326 25 15.5C25 15.3674 24.9473 15.2402 24.8536 15.1464C24.7598 15.0527 24.6326 15 24.5 15H15.5ZM16.5 21C16.8978 21 17.2794 20.842 17.5607 20.5607C17.842 20.2794 18 19.8978 18 19.5C18 19.1022 17.842 18.7206 17.5607 18.4393C17.2794 18.158 16.8978 18 16.5 18C16.1022 18 15.7206 18.158 15.4393 18.4393C15.158 18.7206 15 19.1022 15 19.5C15 19.8978 15.158 20.2794 15.4393 20.5607C15.7206 20.842 16.1022 21 16.5 21ZM16.5 20C16.3674 20 16.2402 19.9473 16.1464 19.8536C16.0527 19.7598 16 19.6326 16 19.5C16 19.3674 16.0527 19.2402 16.1464 19.1464C16.2402 19.0527 16.3674 19 16.5 19C16.6326 19 16.7598 19.0527 16.8536 19.1464C16.9473 19.2402 17 19.3674 17 19.5C17 19.6326 16.9473 19.7598 16.8536 19.8536C16.7598 19.9473 16.6326 20 16.5 20ZM16.5 25C16.8978 25 17.2794 24.842 17.5607 24.5607C17.842 24.2794 18 23.8978 18 23.5C18 23.1022 17.842 22.7206 17.5607 22.4393C17.2794 22.158 16.8978 22 16.5 22C16.1022 22 15.7206 22.158 15.4393 22.4393C15.158 22.7206 15 23.1022 15 23.5C15 23.8978 15.158 24.2794 15.4393 24.5607C15.7206 24.842 16.1022 25 16.5 25ZM16.5 23C16.6326 23 16.7598 23.0527 16.8536 23.1464C16.9473 23.2402 17 23.3674 17 23.5C17 23.6326 16.9473 23.7598 16.8536 23.8536C16.7598 23.9473 16.6326 24 16.5 24C16.3674 24 16.2402 23.9473 16.1464 23.8536C16.0527 23.7598 16 23.6326 16 23.5C16 23.3674 16.0527 23.2402 16.1464 23.1464C16.2402 23.0527 16.3674 23 16.5 23ZM29 24.5C29 25.6935 28.5259 26.8381 27.682 27.682C26.8381 28.5259 25.6935 29 24.5 29C23.3065 29 22.1619 28.5259 21.318 27.682C20.4741 26.8381 20 25.6935 20 24.5C20 23.3065 20.4741 22.1619 21.318 21.318C22.1619 20.4741 23.3065 20 24.5 20C25.6935 20 26.8381 20.4741 27.682 21.318C28.5259 22.1619 29 23.3065 29 24.5ZM25 22.5C25 22.3674 24.9473 22.2402 24.8536 22.1464C24.7598 22.0527 24.6326 22 24.5 22C24.3674 22 24.2402 22.0527 24.1464 22.1464C24.0527 22.2402 24 22.3674 24 22.5V24H22.5C22.3674 24 22.2402 24.0527 22.1464 24.1464C22.0527 24.2402 22 24.3674 22 24.5C22 24.6326 22.0527 24.7598 22.1464 24.8536C22.2402 24.9473 22.3674 25 22.5 25H24V26.5C24 26.6326 24.0527 26.7598 24.1464 26.8536C24.2402 26.9473 24.3674 27 24.5 27C24.6326 27 24.7598 26.9473 24.8536 26.8536C24.9473 26.7598 25 26.6326 25 26.5V25H26.5C26.6326 25 26.7598 24.9473 26.8536 24.8536C26.9473 24.7598 27 24.6326 27 24.5C27 24.3674 26.9473 24.2402 26.8536 24.1464C26.7598 24.0527 26.6326 24 26.5 24H25V22.5Z" fill="#5063F4"/>
</svg>
