<svg width="25" height="26" viewBox="0 0 25 26" fill="none" xmlns="http://www.w3.org/2000/svg">
<rect width="25" height="26" fill="#C8CBD0"/>
<g id="Review Offers" clip-path="url(#clip0_86_15078)">
<rect width="1512" height="907" transform="translate(-673 -400)" fill="#F8FAFF"/>
<g id="Frame 1707478185">
<g id="Frame 1707478184">
</g>
</g>
<path id="Rectangle 64" d="M-677 -402H844V509H-677V-402Z" fill="#1F1E1E" fill-opacity="0.6"/>
<g id="About FI Modal" filter="url(#filter0_d_86_15078)">
<rect x="-331" y="-176.332" width="828" height="459" rx="10" fill="white" shape-rendering="crispEdges"/>
<g id="Frame 1707478409">
<g id="Frame 1707478402">
<g id="Frame 1707478715">
<g id="Interest">
<g id="COCO/Duotone/Setting - 3" clip-path="url(#clip1_86_15078)">
<path id="Vector" d="M1.4411 9.10601C2.25547 5.63423 4.96626 2.92343 8.43804 2.10906C10.9453 1.52094 13.5547 1.52094 16.062 2.10906C19.5337 2.92343 22.2445 5.63423 23.0589 9.10601C23.647 11.6133 23.647 14.2227 23.0589 16.7299C22.2445 20.2017 19.5337 22.9125 16.062 23.7269C13.5547 24.315 10.9453 24.315 8.43804 23.7269C4.96626 22.9125 2.25547 20.2017 1.4411 16.7299C0.852968 14.2227 0.852968 11.6133 1.4411 9.10601Z" fill="#FDFDFD" stroke="#5063F4" stroke-width="1.35" stroke-linecap="round"/>
<path id="Vector_2" d="M17.0625 9.41709C17.0623 9.08982 16.9704 8.76915 16.7971 8.4915C16.6239 8.21386 16.3762 7.99036 16.0823 7.84639C15.7884 7.70242 15.46 7.64375 15.1345 7.67705C14.8089 7.71034 14.4992 7.83427 14.2405 8.03474C13.9818 8.23522 13.7845 8.50422 13.6711 8.81119C13.5576 9.11816 13.5325 9.45079 13.5985 9.77132C13.6646 10.0919 13.8193 10.3874 14.0449 10.6245C14.2705 10.8615 14.5581 11.0306 14.875 11.1124V11.6046C14.875 11.8367 14.7828 12.0592 14.6187 12.2233C14.4546 12.3874 14.2321 12.4796 14 12.4796H10.0625C9.7551 12.4792 9.45312 12.5606 9.1875 12.7153V11.1124C9.59992 11.0059 9.95934 10.7527 10.1984 10.4001C10.4374 10.0476 10.5397 9.62001 10.4861 9.19746C10.4324 8.77492 10.2265 8.38645 9.90686 8.10488C9.58726 7.82331 9.17594 7.66797 8.75 7.66797C8.32407 7.66797 7.91275 7.82331 7.59315 8.10488C7.27356 8.38645 7.06762 8.77492 7.01395 9.19746C6.96028 9.62001 7.06256 10.0476 7.30162 10.4001C7.54067 10.7527 7.90009 11.0059 8.3125 11.1124V14.7218C7.90009 14.8283 7.54067 15.0815 7.30162 15.434C7.06256 15.7866 6.96028 16.2142 7.01395 16.6367C7.06762 17.0593 7.27356 17.4477 7.59315 17.7293C7.91275 18.0109 8.32407 18.1662 8.75 18.1662C9.17594 18.1662 9.58726 18.0109 9.90686 17.7293C10.2265 17.4477 10.4324 17.0593 10.4861 16.6367C10.5397 16.2142 10.4374 15.7866 10.1984 15.434C9.95934 15.0815 9.59992 14.8283 9.1875 14.7218V14.2296C9.1875 13.9975 9.27969 13.775 9.44379 13.6109C9.60788 13.4468 9.83044 13.3546 10.0625 13.3546H14C14.4641 13.3546 14.9093 13.1702 15.2374 12.842C15.5656 12.5138 15.75 12.0687 15.75 11.6046V11.1124C16.1255 11.0149 16.4581 10.7955 16.6956 10.4887C16.9331 10.182 17.0621 9.80506 17.0625 9.41709ZM7.875 9.41709C7.875 9.24403 7.92632 9.07486 8.02247 8.93096C8.11861 8.78707 8.25527 8.67492 8.41516 8.60869C8.57504 8.54247 8.75097 8.52514 8.92071 8.5589C9.09044 8.59266 9.24635 8.676 9.36872 8.79837C9.49109 8.92074 9.57443 9.07665 9.60819 9.24638C9.64195 9.41612 9.62463 9.59205 9.5584 9.75194C9.49217 9.91182 9.38002 10.0485 9.23613 10.1446C9.09223 10.2408 8.92306 10.2921 8.75 10.2921C8.51794 10.2921 8.29538 10.1999 8.13129 10.0358C7.96719 9.87171 7.875 9.64915 7.875 9.41709ZM9.625 16.4171C9.625 16.5901 9.57369 16.7593 9.47754 16.9032C9.38139 17.0471 9.24474 17.1593 9.08485 17.2255C8.92497 17.2917 8.74903 17.309 8.5793 17.2753C8.40957 17.2415 8.25366 17.1582 8.13129 17.0358C8.00891 16.9134 7.92558 16.7575 7.89182 16.5878C7.85805 16.4181 7.87538 16.2421 7.94161 16.0822C8.00784 15.9224 8.11999 15.7857 8.26388 15.6896C8.40777 15.5934 8.57695 15.5421 8.75 15.5421C8.98207 15.5421 9.20463 15.6343 9.36872 15.7984C9.53282 15.9625 9.625 16.185 9.625 16.4171Z" fill="#5063F4"/>
</g>
</g>
</g>
</g>
</g>
</g>
</g>
<defs>
<filter id="filter0_d_86_15078" x="-337" y="-180.332" width="840" height="471" filterUnits="userSpaceOnUse" color-interpolation-filters="sRGB">
<feFlood flood-opacity="0" result="BackgroundImageFix"/>
<feColorMatrix in="SourceAlpha" type="matrix" values="0 0 0 0 0 0 0 0 0 0 0 0 0 0 0 0 0 0 127 0" result="hardAlpha"/>
<feOffset dy="2"/>
<feGaussianBlur stdDeviation="3"/>
<feComposite in2="hardAlpha" operator="out"/>
<feColorMatrix type="matrix" values="0 0 0 0 0 0 0 0 0 0 0 0 0 0 0 0 0 0 0.15 0"/>
<feBlend mode="normal" in2="BackgroundImageFix" result="effect1_dropShadow_86_15078"/>
<feBlend mode="normal" in="SourceGraphic" in2="effect1_dropShadow_86_15078" result="shape"/>
</filter>
<clipPath id="clip0_86_15078">
<rect width="1512" height="907" fill="white" transform="translate(-673 -400)"/>
</clipPath>
<clipPath id="clip1_86_15078">
<rect width="25" height="25" fill="white" transform="translate(0 0.667969)"/>
</clipPath>
</defs>
</svg>
