<svg width="501" height="347" viewBox="0 0 501 347" fill="none" xmlns="http://www.w3.org/2000/svg">
<mask id="mask0_5301_109367" style="mask-type:luminance" maskUnits="userSpaceOnUse" x="0" y="0" width="501" height="347">
<path d="M500.672 0H0.671875V347H500.672V0Z" fill="white"/>
</mask>
<g mask="url(#mask0_5301_109367)">
<path d="M450.571 343.49H417.451V343.74H450.571V343.49Z" fill="#EBEBEB"/>
<path d="M331.891 346.21H323.201V346.46H331.891V346.21Z" fill="#EBEBEB"/>
<path d="M416.452 334.21H397.262V334.46H416.452V334.21Z" fill="#EBEBEB"/>
<path d="M96.3228 335.89H53.1328V336.14H96.3228V335.89Z" fill="#EBEBEB"/>
<path d="M111.562 335.89H105.232V336.14H111.562V335.89Z" fill="#EBEBEB"/>
<path d="M225.823 340.11H132.143V340.36H225.823V340.11Z" fill="#EBEBEB"/>
<path d="M237.673 282.8H44.5828C43.0702 282.797 41.6204 282.195 40.5517 281.124C39.4831 280.053 38.8828 278.603 38.8828 277.09V5.66C38.896 4.15602 39.502 2.71798 40.5693 1.65822C41.6365 0.598458 43.0788 0.00257639 44.5828 0H237.673C239.187 0 240.64 0.601588 241.711 1.67242C242.781 2.74325 243.383 4.19561 243.383 5.71V277.09C243.383 278.604 242.781 280.057 241.711 281.128C240.64 282.198 239.187 282.8 237.673 282.8ZM44.5828 0.200001C43.1365 0.20265 41.7503 0.779065 40.7285 1.80273C39.7067 2.82639 39.1328 4.21365 39.1328 5.66V277.09C39.1328 278.536 39.7067 279.924 40.7285 280.947C41.7503 281.971 43.1365 282.547 44.5828 282.55H237.673C239.12 282.547 240.507 281.971 241.531 280.948C242.554 279.924 243.13 278.537 243.133 277.09V5.66C243.13 4.21273 242.554 2.82549 241.531 1.80212C240.507 0.77874 239.12 0.202644 237.673 0.200001H44.5828Z" fill="#EBEBEB"/>
<path d="M453.982 282.8H260.882C259.368 282.797 257.918 282.195 256.847 281.125C255.777 280.054 255.175 278.604 255.172 277.09V5.66C255.188 4.15511 255.796 2.71708 256.865 1.65759C257.934 0.598109 259.377 0.00254829 260.882 0H453.982C455.484 0.0052045 456.924 0.602249 457.989 1.66173C459.054 2.72121 459.659 4.15775 459.672 5.66V277.09C459.672 278.601 459.073 280.05 458.007 281.121C456.94 282.191 455.493 282.795 453.982 282.8ZM260.882 0.200001C259.435 0.202644 258.047 0.77874 257.024 1.80212C256.001 2.82549 255.425 4.21273 255.422 5.66V277.09C255.425 278.537 256.001 279.924 257.024 280.948C258.047 281.971 259.435 282.547 260.882 282.55H453.982C455.429 282.547 456.817 281.971 457.84 280.948C458.863 279.924 459.439 278.537 459.442 277.09V5.66C459.439 4.21273 458.863 2.82549 457.84 1.80212C456.817 0.77874 455.429 0.202644 453.982 0.200001H260.882Z" fill="#EBEBEB"/>
<path d="M500.672 327.4H0.671875V327.65H500.672V327.4Z" fill="#EBEBEB"/>
<path d="M149.851 160.26H127.451V327.27H149.851V160.26Z" fill="#F0F0F0"/>
<path d="M187.191 103.31H164.791V327.27H187.191V103.31Z" fill="#F0F0F0"/>
<path d="M224.533 160.26H202.133V327.27H224.533V160.26Z" fill="#F0F0F0"/>
<path d="M75.1715 217.2H52.7715V327.26H75.1715V217.2Z" fill="#F0F0F0"/>
<path d="M112.511 189.71H90.1113V327.27H112.511V189.71Z" fill="#F0F0F0"/>
<path d="M261.873 217.2H239.473V327.26H261.873V217.2Z" fill="#F0F0F0"/>
<path d="M448.562 46.3599H426.162V327.26H448.562V46.3599Z" fill="#F0F0F0"/>
<path d="M299.212 160.26H276.812V327.27H299.212V160.26Z" fill="#F0F0F0"/>
<path d="M411.222 103.31H388.822V327.27H411.222V103.31Z" fill="#F0F0F0"/>
<path d="M373.892 132.76H351.492V327.27H373.892V132.76Z" fill="#F0F0F0"/>
<path d="M336.552 189.71H314.152V327.27H336.552V189.71Z" fill="#F0F0F0"/>
<path d="M349.281 98.5399L357.301 117.32L398.391 87.6799L410.371 50.9199L432.231 31.6999L437.301 37.4899L448.771 9.35986L416.111 11.0399L421.901 17.5899L399.941 36.3999L389.011 73.4899L349.281 98.5399Z" fill="#F0F0F0"/>
<path d="M78.0975 150.012C80.0804 141.611 74.8772 133.193 66.4758 131.21C58.0744 129.227 49.6563 134.43 47.6734 142.831C45.6905 151.233 50.8937 159.651 59.2951 161.634C67.6964 163.617 76.1146 158.414 78.0975 150.012Z" fill="#EBEBEB"/>
<path d="M75.809 157.469C81.9129 151.365 81.9129 141.469 75.809 135.365C69.7051 129.261 59.8087 129.261 53.7048 135.365C47.601 141.469 47.601 151.365 53.7049 157.469C59.8087 163.573 69.7051 163.573 75.809 157.469Z" fill="#FAFAFA"/>
<path d="M64.7625 158.12C71.2243 158.12 76.4625 152.882 76.4625 146.42C76.4625 139.958 71.2243 134.72 64.7625 134.72C58.3008 134.72 53.0625 139.958 53.0625 146.42C53.0625 152.882 58.3008 158.12 64.7625 158.12Z" fill="#F0F0F0"/>
<path d="M69.9019 148.91C70.3519 151.5 68.5719 153.23 65.3719 153.5V155.64H63.3719L63.4319 153.5C61.7495 153.381 60.1188 152.867 58.6719 152L59.5519 149.59C60.7342 150.367 62.085 150.851 63.4919 151L63.5819 147.72C61.6719 147.17 59.5819 146.45 59.1519 144.1C58.7019 141.51 60.5119 139.77 63.7819 139.53V137.39H65.7819V139.55C67.1001 139.665 68.3819 140.042 69.5519 140.66L68.7319 143C67.7966 142.449 66.7524 142.107 65.6719 142L65.5919 145.42C67.4619 146 69.5119 146.68 69.9019 148.91ZM63.6419 144.91L63.7119 142.11C62.6419 142.32 62.1219 142.92 62.2319 143.66C62.3419 144.4 62.8819 144.61 63.6719 144.91H63.6419ZM66.8419 149.42C66.7419 148.85 66.2319 148.5 65.5019 148.25V150.91C66.4619 150.7 66.9719 150.16 66.8419 149.42Z" fill="white"/>
<path d="M193.722 66.1901C199.212 77.9201 191.842 89.6001 181.222 94.0601C178.76 95.1406 176.099 95.6921 173.41 95.6788C170.722 95.6655 168.066 95.0877 165.615 93.9829C163.164 92.878 160.973 91.2708 159.182 89.2652C157.392 87.2596 156.043 84.9003 155.222 82.3401C151.502 71.4101 155.372 53.8501 165.992 49.3901C166.032 49.3901 186.482 50.7401 193.722 66.1901Z" fill="#F0F0F0"/>
<path d="M182.051 72.7101C183.741 75.2501 182.651 77.8801 179.361 79.6101L180.301 81.9001L178.221 82.7701L177.281 80.4801C175.428 81.1035 173.456 81.285 171.521 81.0101L171.341 78.0601C172.951 78.34 174.605 78.2407 176.171 77.7701L174.721 74.2501C172.431 74.5201 169.841 74.7101 168.301 72.4001C166.611 69.8601 167.731 67.1901 171.111 65.4701L170.171 63.1801L172.241 62.3101L173.241 64.6201C174.707 64.1424 176.254 63.9655 177.791 64.1001L178.101 67.0001C176.839 66.8366 175.558 66.9422 174.341 67.3101L175.851 70.9801C178.071 70.6901 180.581 70.5101 182.051 72.7101ZM173.481 71.2701L172.251 68.2701C171.251 68.9801 170.941 69.8501 171.401 70.5801C171.659 70.8636 171.986 71.076 172.35 71.1968C172.715 71.3176 173.104 71.3428 173.481 71.2701ZM179.011 74.6201C178.769 74.3385 178.454 74.1295 178.101 74.0165C177.748 73.9034 177.37 73.8908 177.011 73.9801L178.201 76.8301C179.211 76.1501 179.501 75.3501 179.011 74.6201Z" fill="white"/>
<path d="M160.612 53.3199L155.232 48.3199C155.232 48.3199 155.832 43.4999 158.762 42.0799C159.554 41.6544 160.436 41.42 161.335 41.3957C162.234 41.3714 163.127 41.5578 163.942 41.9399L169.332 37.9399L170.232 50.2399C170.232 50.2399 166.482 56.9099 160.612 53.3199Z" fill="#F0F0F0"/>
<path d="M166.673 50.5702C165.343 48.3802 164.072 46.1102 162.752 43.9102C162.258 43.729 161.727 43.6689 161.205 43.7351C160.683 43.8012 160.185 43.9915 159.752 44.2902C159.324 44.6007 158.972 45.0041 158.723 45.47C158.474 45.9359 158.333 46.4522 158.312 46.9802C159.459 48.8238 160.848 50.5054 162.442 51.9802C162.672 51.0602 165.953 50.0702 166.673 50.5702Z" fill="#E0E0E0"/>
<path d="M167.732 50.4698L166.732 43.0898C166.402 43.4598 166.172 43.7899 165.842 44.1599C166.152 45.6599 167.062 50.1598 167.212 50.3498L167.732 50.4698Z" fill="#E0E0E0"/>
<path d="M311.112 147.63C294.482 157.71 277.732 137.75 261.112 147.83C261.112 138.563 261.075 129.293 261.002 120.02C277.632 109.94 294.382 129.9 311.002 119.82L311.112 147.63Z" fill="#FAFAFA"/>
<path d="M308.862 144.44L308.782 125.38C308.56 125.516 308.304 125.587 308.044 125.586C307.784 125.586 307.529 125.513 307.307 125.377C307.085 125.24 306.906 125.045 306.789 124.812C306.671 124.58 306.621 124.319 306.642 124.06C292.912 128.42 279.112 115.91 265.372 120.27C265.319 120.906 265.093 121.516 264.72 122.034C264.346 122.552 263.839 122.958 263.252 123.21L263.332 142.28C263.553 142.144 263.807 142.072 264.066 142.071C264.325 142.071 264.58 142.143 264.801 142.279C265.021 142.415 265.2 142.609 265.317 142.841C265.434 143.072 265.484 143.332 265.462 143.59C279.202 139.23 293.002 151.75 306.742 147.39C306.794 146.752 307.019 146.14 307.392 145.62C307.766 145.1 308.274 144.692 308.862 144.44Z" fill="#F0F0F0"/>
<path d="M284.833 131.88C284.839 132.062 284.91 132.235 285.033 132.37C285.204 132.546 285.399 132.697 285.613 132.82C285.613 132.32 285.613 131.82 285.613 131.33C285.41 131.303 285.204 131.349 285.033 131.46C284.968 131.508 284.916 131.572 284.881 131.645C284.846 131.718 284.829 131.799 284.833 131.88Z" fill="white"/>
<path d="M286.672 134.93V136.37C286.866 136.401 287.064 136.362 287.232 136.26C287.295 136.218 287.346 136.159 287.38 136.091C287.413 136.022 287.428 135.946 287.422 135.87C287.416 135.69 287.349 135.517 287.232 135.38C287.069 135.202 286.881 135.051 286.672 134.93Z" fill="white"/>
<path d="M286.022 126C281.712 124.67 278.232 127.38 278.242 131.71C278.252 136.04 281.772 140.27 286.082 141.6C290.392 142.93 293.882 140.22 293.862 135.88C293.842 131.54 290.342 127.36 286.022 126ZM288.482 137.49C288.212 137.645 287.914 137.745 287.605 137.784C287.296 137.824 286.983 137.802 286.682 137.72V138.89L285.632 138.58V137.44C285.115 137.262 284.618 137.027 284.152 136.74C283.738 136.494 283.358 136.195 283.022 135.85L283.592 134.74C283.876 135.024 284.188 135.279 284.522 135.5C284.869 135.727 285.237 135.918 285.622 136.07V134.33C285.188 134.099 284.767 133.841 284.362 133.56C284.027 133.315 283.736 133.014 283.502 132.67C283.266 132.304 283.144 131.876 283.152 131.44C283.134 131.187 283.181 130.933 283.29 130.703C283.398 130.474 283.565 130.276 283.772 130.13C284.331 129.823 284.987 129.744 285.602 129.91C285.602 129.53 285.602 129.14 285.602 128.75L286.652 129.06V130.2C287.432 130.482 288.152 130.91 288.772 131.46L288.262 132.59C287.783 132.172 287.239 131.834 286.652 131.59C286.652 132.18 286.652 132.78 286.652 133.37C287.083 133.59 287.497 133.841 287.892 134.12C288.23 134.359 288.521 134.657 288.752 135C288.983 135.362 289.104 135.782 289.102 136.21C289.123 136.464 289.077 136.718 288.968 136.948C288.859 137.178 288.692 137.375 288.482 137.52V137.49Z" fill="white"/>
<path d="M315.012 143C298.392 153.08 281.642 133.12 265.012 143.2C264.972 133.927 264.936 124.657 264.902 115.39C281.522 105.31 298.272 125.27 314.902 115.19L315.012 143Z" fill="#FAFAFA"/>
<path d="M312.763 139.85L312.673 120.78C312.453 120.92 312.198 120.995 311.937 120.997C311.676 120.999 311.42 120.928 311.198 120.791C310.976 120.655 310.796 120.458 310.68 120.225C310.565 119.991 310.517 119.729 310.543 119.47C296.803 123.83 283.003 111.32 269.263 115.67C269.22 116.317 268.999 116.939 268.625 117.468C268.251 117.998 267.738 118.413 267.143 118.67L267.223 137.73C267.444 137.593 267.699 137.521 267.96 137.521C268.22 137.521 268.475 137.594 268.696 137.731C268.917 137.868 269.096 138.064 269.212 138.297C269.328 138.53 269.377 138.791 269.353 139.05C283.093 134.69 296.893 147.2 310.633 142.84C310.676 142.193 310.898 141.571 311.274 141.043C311.65 140.515 312.166 140.102 312.763 139.85Z" fill="#F0F0F0"/>
<path d="M288.731 127.29C288.737 127.469 288.808 127.64 288.931 127.77C289.105 127.947 289.3 128.101 289.511 128.23V126.74C289.305 126.713 289.097 126.759 288.921 126.87C288.859 126.92 288.809 126.984 288.776 127.057C288.743 127.13 288.728 127.21 288.731 127.29Z" fill="white"/>
<path d="M290.572 130.33V131.78C290.769 131.81 290.971 131.771 291.142 131.67C291.202 131.625 291.249 131.565 291.281 131.497C291.312 131.429 291.326 131.355 291.322 131.28C291.323 131.099 291.255 130.924 291.132 130.79C290.966 130.613 290.778 130.459 290.572 130.33Z" fill="white"/>
<path d="M289.922 121.43C285.612 120.1 282.132 122.82 282.152 127.15C282.172 131.48 285.672 135.7 289.992 137.03C294.312 138.36 297.782 135.65 297.762 131.32C297.742 126.99 294.242 122.76 289.922 121.43ZM292.392 132.93C291.841 133.238 291.192 133.32 290.582 133.16V134.33L289.532 134.02V132.88C289.014 132.699 288.517 132.46 288.052 132.17C287.637 131.925 287.257 131.626 286.922 131.28L287.492 130.17C287.772 130.457 288.084 130.712 288.422 130.93C288.768 131.16 289.136 131.355 289.522 131.51V129.76C289.085 129.535 288.664 129.281 288.262 129C287.923 128.754 287.632 128.449 287.402 128.1C287.164 127.738 287.042 127.313 287.052 126.88C287.037 126.626 287.087 126.373 287.197 126.144C287.307 125.915 287.474 125.717 287.682 125.57C287.955 125.414 288.257 125.315 288.569 125.277C288.882 125.239 289.199 125.264 289.502 125.35V124.19L290.502 124.5V125.64C291.302 125.911 292.04 126.339 292.672 126.9C292.492 127.28 292.322 127.65 292.152 128.03C291.672 127.612 291.129 127.274 290.542 127.03C290.542 127.62 290.542 128.21 290.542 128.81C290.972 129.027 291.386 129.274 291.782 129.55C292.122 129.79 292.413 130.092 292.642 130.44C292.876 130.799 292.998 131.221 292.992 131.65C293.006 131.897 292.959 132.143 292.854 132.366C292.749 132.59 292.59 132.784 292.392 132.93Z" fill="white"/>
<path d="M130.791 215.359L129.793 215.431L131.122 233.873L132.119 233.802L130.791 215.359Z" fill="#5063F4"/>
<path d="M132.796 243.322L131.799 243.394L132.299 250.336L133.296 250.264L132.796 243.322Z" fill="#5063F4"/>
<path d="M364.381 328.16H150.221C147.837 328.117 145.553 327.193 143.81 325.567C142.067 323.94 140.988 321.725 140.781 319.35L130.261 173.22C130.163 172.093 130.302 170.958 130.67 169.888C131.037 168.818 131.625 167.837 132.394 167.008C133.164 166.179 134.099 165.521 135.139 165.075C136.178 164.629 137.3 164.406 138.431 164.42H352.591C354.973 164.463 357.256 165.385 358.998 167.01C360.741 168.635 361.821 170.847 362.031 173.22L372.551 319.35C372.649 320.478 372.509 321.613 372.142 322.683C371.775 323.754 371.187 324.735 370.418 325.565C369.648 326.395 368.714 327.054 367.674 327.501C366.634 327.948 365.513 328.173 364.381 328.16Z" fill="#5063F4"/>
<path d="M365.201 328.16H151.041C148.657 328.117 146.374 327.193 144.631 325.567C142.888 323.94 141.808 321.725 141.601 319.35L131.081 173.22C130.983 172.093 131.123 170.958 131.49 169.888C131.858 168.818 132.445 167.837 133.215 167.008C133.984 166.179 134.919 165.521 135.959 165.075C136.999 164.629 138.12 164.406 139.251 164.42H353.411C355.794 164.463 358.076 165.385 359.819 167.01C361.562 168.635 362.642 170.847 362.851 173.22L373.371 319.35C373.471 320.478 373.332 321.614 372.966 322.685C372.599 323.756 372.012 324.738 371.242 325.568C370.472 326.399 369.537 327.058 368.496 327.505C367.456 327.951 366.333 328.174 365.201 328.16Z" fill="#5063F4"/>
<path opacity="0.5" d="M365.201 328.16H151.041C148.657 328.117 146.374 327.193 144.631 325.567C142.888 323.94 141.808 321.725 141.601 319.35L131.081 173.22C130.983 172.093 131.123 170.958 131.49 169.888C131.858 168.818 132.445 167.837 133.215 167.008C133.984 166.179 134.919 165.521 135.959 165.075C136.999 164.629 138.12 164.406 139.251 164.42H353.411C355.794 164.463 358.076 165.385 359.819 167.01C361.562 168.635 362.642 170.847 362.851 173.22L373.371 319.35C373.471 320.478 373.332 321.614 372.966 322.685C372.599 323.756 372.012 324.738 371.242 325.568C370.472 326.399 369.537 327.058 368.496 327.505C367.456 327.951 366.333 328.174 365.201 328.16Z" fill="white"/>
<path d="M353.732 168.82H139.572H138.852C133.382 169.27 134.502 177.6 140.022 177.6H354.542C360.072 177.6 359.992 169.27 354.452 168.82H353.732Z" fill="#5063F4"/>
<path d="M145.152 173.22C145.173 173.478 145.139 173.737 145.054 173.981C144.969 174.225 144.833 174.449 144.656 174.637C144.479 174.826 144.264 174.975 144.026 175.075C143.787 175.176 143.53 175.225 143.272 175.22C142.728 175.212 142.207 175.004 141.808 174.634C141.409 174.265 141.161 173.761 141.112 173.22C141.091 172.963 141.124 172.704 141.209 172.461C141.293 172.218 141.428 171.995 141.604 171.806C141.78 171.618 141.994 171.468 142.231 171.368C142.468 171.267 142.724 171.216 142.982 171.22C143.527 171.225 144.051 171.433 144.452 171.802C144.853 172.172 145.102 172.677 145.152 173.22Z" fill="#FAFAFA"/>
<path d="M152.023 173.22C152.044 173.478 152.011 173.737 151.925 173.981C151.84 174.225 151.704 174.449 151.527 174.637C151.35 174.826 151.135 174.975 150.897 175.075C150.658 175.176 150.401 175.225 150.143 175.22C149.599 175.212 149.078 175.004 148.679 174.634C148.28 174.265 148.032 173.761 147.983 173.22C147.962 172.963 147.995 172.704 148.08 172.461C148.165 172.218 148.299 171.995 148.475 171.806C148.651 171.618 148.865 171.468 149.102 171.368C149.339 171.267 149.595 171.216 149.853 171.22C150.398 171.225 150.922 171.433 151.323 171.802C151.724 172.172 151.973 172.677 152.023 173.22Z" fill="#FAFAFA"/>
<path d="M158.883 173.22C158.904 173.477 158.871 173.736 158.786 173.979C158.701 174.222 158.566 174.445 158.39 174.634C158.214 174.822 158.001 174.972 157.764 175.072C157.526 175.173 157.271 175.224 157.013 175.22C156.469 175.215 155.946 175.007 155.547 174.637C155.147 174.267 154.9 173.762 154.853 173.22C154.83 172.963 154.862 172.704 154.946 172.46C155.031 172.215 155.165 171.992 155.342 171.803C155.518 171.614 155.732 171.465 155.97 171.365C156.208 171.264 156.465 171.215 156.723 171.22C157.266 171.228 157.788 171.436 158.187 171.806C158.585 172.175 158.833 172.679 158.883 173.22Z" fill="#FAFAFA"/>
<path d="M359.523 313.58H154.673C153.807 313.566 152.978 313.23 152.346 312.639C151.714 312.048 151.324 311.243 151.253 310.38L142.603 190.21C142.564 189.798 142.614 189.382 142.748 188.99C142.883 188.598 143.099 188.24 143.383 187.938C143.667 187.636 144.011 187.399 144.394 187.24C144.777 187.082 145.189 187.007 145.603 187.02H350.503C351.367 187.032 352.196 187.365 352.828 187.955C353.461 188.545 353.851 189.348 353.923 190.21L362.583 310.38C362.62 310.798 362.568 311.219 362.429 311.614C362.291 312.01 362.069 312.372 361.779 312.675C361.489 312.978 361.138 313.216 360.749 313.372C360.36 313.528 359.942 313.599 359.523 313.58Z" fill="white"/>
<path d="M273.201 267.8L269.861 221.48L259.761 215.4H231.951L235.731 267.8H273.201Z" fill="white"/>
<path d="M273.202 268.28H235.732C235.608 268.283 235.488 268.238 235.396 268.154C235.305 268.07 235.25 267.954 235.242 267.83L231.472 215.43C231.467 215.364 231.476 215.298 231.499 215.236C231.521 215.174 231.556 215.118 231.602 215.07C231.646 215.021 231.7 214.981 231.76 214.954C231.821 214.926 231.886 214.911 231.952 214.91H259.762C259.85 214.913 259.936 214.937 260.012 214.98L270.112 221.06C270.18 221.099 270.237 221.154 270.279 221.22C270.321 221.287 270.346 221.362 270.352 221.44L273.672 267.76C273.679 267.828 273.671 267.896 273.648 267.96C273.626 268.024 273.59 268.082 273.542 268.13C273.499 268.177 273.446 268.214 273.388 268.24C273.329 268.266 273.266 268.28 273.202 268.28ZM236.202 267.28H272.672L269.392 221.73L259.672 215.88H232.472L236.202 267.28Z" fill="#5063F4"/>
<path d="M269.862 221.48L259.762 215.4L263.472 223.46L269.862 221.48Z" fill="#EBEBEB"/>
<path d="M263.473 223.94C263.38 223.94 263.29 223.913 263.212 223.864C263.135 223.814 263.072 223.743 263.033 223.66L259.323 215.6C259.279 215.505 259.267 215.4 259.287 215.298C259.306 215.195 259.357 215.102 259.433 215.03C259.512 214.962 259.611 214.921 259.715 214.912C259.819 214.903 259.923 214.927 260.013 214.98L270.113 221.06C270.194 221.109 270.26 221.18 270.303 221.265C270.345 221.35 270.362 221.446 270.353 221.54C270.34 221.632 270.301 221.719 270.241 221.789C270.181 221.86 270.102 221.913 270.013 221.94L263.613 223.94H263.473ZM260.863 216.62L263.733 222.87L268.733 221.34L260.863 216.62Z" fill="#5063F4"/>
<path d="M247.671 239C247.686 239.272 247.645 239.544 247.551 239.799C247.458 240.055 247.313 240.288 247.126 240.486C246.938 240.684 246.713 240.841 246.463 240.948C246.212 241.055 245.943 241.111 245.671 241.11C245.1 241.1 244.553 240.879 244.136 240.489C243.719 240.099 243.46 239.569 243.411 239C243.385 238.726 243.418 238.449 243.508 238.188C243.598 237.927 243.742 237.688 243.931 237.488C244.121 237.287 244.35 237.129 244.606 237.024C244.861 236.92 245.135 236.87 245.411 236.88C245.983 236.893 246.53 237.116 246.947 237.507C247.364 237.899 247.622 238.43 247.671 239Z" fill="#5063F4"/>
<path d="M261.371 239C261.396 239.274 261.361 239.55 261.271 239.809C261.181 240.069 261.036 240.306 260.847 240.506C260.658 240.705 260.429 240.862 260.174 240.966C259.92 241.071 259.646 241.119 259.371 241.11C258.799 241.1 258.251 240.879 257.832 240.49C257.413 240.1 257.153 239.57 257.101 239C257.085 238.727 257.125 238.454 257.218 238.198C257.311 237.941 257.456 237.706 257.643 237.507C257.83 237.309 258.056 237.151 258.307 237.043C258.558 236.935 258.828 236.879 259.101 236.88C259.676 236.888 260.226 237.109 260.646 237.501C261.066 237.893 261.324 238.428 261.371 239Z" fill="#5063F4"/>
<path d="M265.251 252.74C265.129 252.738 265.013 252.691 264.924 252.608C264.835 252.525 264.781 252.411 264.771 252.29C264.521 248.88 259.181 246.11 252.871 246.11C248.681 246.11 244.921 247.36 243.061 249.36C242.679 249.729 242.38 250.174 242.183 250.667C241.986 251.161 241.897 251.69 241.921 252.22C241.926 252.286 241.917 252.352 241.896 252.414C241.875 252.477 241.842 252.534 241.799 252.584C241.712 252.684 241.589 252.746 241.456 252.755C241.323 252.764 241.192 252.721 241.092 252.633C240.992 252.546 240.93 252.423 240.921 252.29C240.891 251.627 241 250.965 241.241 250.347C241.483 249.729 241.85 249.168 242.321 248.7C244.321 246.51 248.391 245.14 252.841 245.14C259.771 245.14 265.421 248.25 265.701 252.22C265.705 252.283 265.697 252.346 265.676 252.406C265.656 252.466 265.624 252.521 265.582 252.569C265.54 252.616 265.489 252.655 265.433 252.682C265.376 252.71 265.314 252.726 265.251 252.73V252.74Z" fill="#5063F4"/>
<path d="M239.841 234.72C239.719 234.717 239.602 234.671 239.511 234.59C239.42 234.498 239.369 234.374 239.369 234.245C239.369 234.116 239.42 233.992 239.511 233.9L241.641 231.61C241.733 231.522 241.854 231.473 241.981 231.473C242.108 231.473 242.23 231.522 242.321 231.61C242.366 231.654 242.402 231.707 242.426 231.766C242.45 231.824 242.462 231.887 242.462 231.95C242.462 232.013 242.45 232.076 242.426 232.134C242.402 232.192 242.366 232.245 242.321 232.29L240.191 234.58C240.145 234.626 240.091 234.662 240.031 234.686C239.97 234.71 239.906 234.721 239.841 234.72Z" fill="#5063F4"/>
<path d="M264.253 234.72C264.131 234.714 264.015 234.668 263.923 234.59L261.473 232.3C261.426 232.255 261.389 232.201 261.364 232.142C261.339 232.083 261.326 232.019 261.326 231.955C261.326 231.89 261.339 231.827 261.364 231.767C261.389 231.708 261.426 231.655 261.473 231.61C261.564 231.522 261.686 231.473 261.813 231.473C261.939 231.473 262.061 231.522 262.153 231.61L264.603 233.9C264.647 233.944 264.683 233.997 264.707 234.056C264.731 234.114 264.744 234.177 264.744 234.24C264.744 234.303 264.731 234.366 264.707 234.424C264.683 234.482 264.647 234.535 264.603 234.58C264.508 234.669 264.383 234.719 264.253 234.72Z" fill="#5063F4"/>
<path d="M228.932 278.15H231.192L234.452 282.49L234.142 278.15H236.422L236.982 285.99H234.672L231.432 281.68L231.742 285.99H229.462L228.932 278.15Z" fill="#5063F4"/>
<path d="M238.002 282.07C237.925 281.538 237.962 280.995 238.11 280.478C238.258 279.96 238.515 279.481 238.862 279.07C239.242 278.696 239.697 278.408 240.197 278.223C240.697 278.039 241.231 277.963 241.762 278C242.889 277.939 243.996 278.315 244.852 279.05C245.637 279.831 246.091 280.883 246.122 281.99C246.205 282.753 246.102 283.525 245.822 284.24C245.563 284.816 245.13 285.295 244.582 285.61C243.926 285.962 243.187 286.131 242.442 286.1C241.677 286.124 240.916 285.981 240.212 285.68C239.596 285.384 239.076 284.919 238.712 284.34C238.283 283.657 238.039 282.875 238.002 282.07ZM240.432 282.07C240.423 282.683 240.62 283.282 240.992 283.77C241.148 283.942 241.34 284.078 241.555 284.168C241.769 284.257 242 284.299 242.232 284.29C242.454 284.305 242.676 284.267 242.88 284.178C243.084 284.09 243.263 283.953 243.402 283.78C243.689 283.234 243.785 282.607 243.672 282C243.677 281.412 243.479 280.84 243.112 280.38C242.952 280.211 242.758 280.078 242.542 279.99C242.327 279.902 242.095 279.861 241.862 279.87C241.645 279.861 241.428 279.903 241.23 279.993C241.032 280.084 240.858 280.22 240.722 280.39C240.43 280.905 240.327 281.507 240.432 282.09V282.07Z" fill="#5063F4"/>
<path d="M250.822 278.15H254.422C255.016 278.131 255.607 278.23 256.162 278.44C256.602 278.624 256.992 278.909 257.302 279.27C257.617 279.637 257.858 280.062 258.012 280.52C258.175 281.013 258.275 281.523 258.312 282.04C258.389 282.694 258.338 283.356 258.162 283.99C258.025 284.429 257.781 284.828 257.452 285.15C257.178 285.44 256.834 285.654 256.452 285.77C255.987 285.905 255.507 285.979 255.022 285.99H251.432L250.822 278.15ZM253.372 279.93L253.682 284.21H254.272C254.637 284.234 255.003 284.176 255.342 284.04C255.566 283.91 255.731 283.699 255.802 283.45C255.917 283.006 255.944 282.544 255.882 282.09C255.901 281.48 255.715 280.881 255.352 280.39C255.167 280.222 254.948 280.095 254.711 280.015C254.473 279.936 254.222 279.907 253.972 279.93H253.372Z" fill="#5063F4"/>
<path d="M264.121 284.69H261.371L261.081 285.99H258.611L260.991 278.15H263.671L267.181 285.99H264.641L264.121 284.69ZM263.491 283L262.431 280.18L261.771 283H263.491Z" fill="#5063F4"/>
<path d="M266.041 278.15H273.401L273.541 280.09H271.071L271.491 285.99H269.071L268.651 280.09H266.181L266.041 278.15Z" fill="#5063F4"/>
<path d="M279.041 284.69H276.291L276.001 285.99H273.531L275.911 278.15H278.551L282.051 285.99H279.521L279.041 284.69ZM278.411 283L277.341 280.18L276.671 283H278.411Z" fill="#5063F4"/>
</g>
</svg>
