<svg width="75" height="81" viewBox="0 0 75 81" fill="none" xmlns="http://www.w3.org/2000/svg">
<path fill-rule="evenodd" clip-rule="evenodd" d="M27.4149 54.3779C27.3463 54.8695 27.3108 55.3718 27.3108 55.8826C27.3108 61.7714 32.0299 66.5452 37.8513 66.5452C43.6727 66.5452 48.3918 61.7714 48.3918 55.8826C48.3918 55.3718 48.3563 54.8695 48.2877 54.3779H73.8647V78.0963C73.8647 79.5685 72.685 80.762 71.2296 80.762H4.47302C3.01768 80.762 1.83789 79.5685 1.83789 78.0963V54.3779H27.4149Z" fill="white"/>
<path fill-rule="evenodd" clip-rule="evenodd" d="M49.2702 54.1056C49.2702 60.4851 44.1578 65.6567 37.8513 65.6567C31.5448 65.6567 26.4324 60.4851 26.4324 54.1056C26.4324 53.8989 26.4378 53.6935 26.4484 53.4895H1.83789L10.2356 28.3722C10.5976 27.2893 11.6018 26.5605 12.7318 26.5605H62.9709C64.1008 26.5605 65.105 27.2893 65.4671 28.3722L73.8647 53.4895H49.2542C49.2648 53.6935 49.2702 53.8989 49.2702 54.1056Z" fill="white"/>
<path fill-rule="evenodd" clip-rule="evenodd" d="M47.5981 54.9534C47.5981 59.883 43.2338 64.7678 37.8502 64.7678C32.4666 64.7678 28.1024 59.883 28.1024 54.9534C28.1024 54.7937 28.107 53.7464 28.116 53.5888H9.74219L16.9109 35.957C17.22 35.1203 18.0772 34.5571 19.0418 34.5571H56.6586C57.6232 34.5571 58.4805 35.1203 58.7895 35.957L65.9583 53.5888H47.5844C47.5935 53.7464 47.5981 54.7937 47.5981 54.9534Z" fill="#EFF2FE"/>
<path fill-rule="evenodd" clip-rule="evenodd" d="M2.93555 53.6719V77.2075C2.93555 78.0663 3.62376 78.7625 4.47271 78.7625H71.2293C72.0782 78.7625 72.7664 78.0663 72.7664 77.2075V53.6719L64.4267 28.7277C64.2155 28.096 63.6297 27.6709 62.9705 27.6709H12.7315C12.0723 27.6709 11.4865 28.096 11.2753 28.7277L2.93555 53.6719Z" stroke="#5063F4" stroke-width="4"/>
<path d="M14.1344 53.2168C17.5922 53.2168 21.3238 53.2168 25.3292 53.2168C26.9773 53.2168 26.9773 54.3884 26.9773 54.9939C26.9773 60.8827 31.805 65.6565 37.7603 65.6565C43.7156 65.6565 48.5433 60.8827 48.5433 54.9939C48.5433 54.3884 48.5433 53.2168 50.1914 53.2168H72.1072M7.61133 53.2168H9.74251H7.61133Z" stroke="#5063F4" stroke-width="4" stroke-linecap="round" stroke-linejoin="round"/>
<path d="M37.06 2.56934V17.4577M14.1348 6.39253L23.8844 17.4577M59.8978 6.39253L50.1482 17.4577" stroke="#D9D9D9" stroke-width="4" stroke-linecap="round" stroke-linejoin="round"/>
</svg>
