<svg width="19" height="22" viewBox="0 0 19 22" fill="none" xmlns="http://www.w3.org/2000/svg">
<g id="Notification">
<path id="Vector" d="M12.4173 19.8947C12.4175 20.4259 12.2256 20.9374 11.8801 21.3269C11.5346 21.7163 11.0611 21.9549 10.5545 21.9947L10.4035 22H8.38965C7.88159 22.0002 7.39224 21.7996 7.01971 21.4384C6.64717 21.0773 6.41898 20.5823 6.38087 20.0526L6.37584 19.8947H12.4173ZM9.39656 2C11.2241 1.99997 12.9802 2.74199 14.2944 4.06955C15.6086 5.39711 16.3782 7.20641 16.4409 9.11579L16.4449 9.36842V13.3305L18.2795 17.1663C18.3596 17.3337 18.3996 17.5188 18.3963 17.7059C18.3929 17.893 18.3462 18.0765 18.2602 18.2406C18.1742 18.4047 18.0514 18.5446 17.9024 18.6482C17.7534 18.7519 17.5825 18.8163 17.4045 18.8358L17.2887 18.8421H1.50441C1.32535 18.8422 1.14894 18.7968 0.990305 18.71C0.831671 18.6232 0.69554 18.4974 0.593579 18.3435C0.491617 18.1896 0.426865 18.0122 0.404871 17.8264C0.382877 17.6407 0.404297 17.4521 0.467295 17.2768L0.513613 17.1663L2.3482 13.3305V9.36842C2.3482 7.41419 3.09079 5.54001 4.41262 4.15816C5.73444 2.77631 7.52722 2 9.39656 2Z" fill="#5063F4"/>
<circle id="Ellipse 1167" cx="13.3965" cy="4" r="4" fill="#F8FAFF"/>
<circle id="Ellipse 1168" cx="13.3965" cy="4" r="2" fill="#FF2E2E"/>
</g>
</svg>
