<svg width="40" height="40" viewBox="0 0 40 40" fill="none" xmlns="http://www.w3.org/2000/svg">
<path d="M5.58813 14.9174C6.67396 10.2883 10.2883 6.67395 14.9174 5.58813C18.2604 4.80396 21.7396 4.80396 25.0826 5.58813C29.7117 6.67395 33.3261 10.2884 34.4119 14.9174C35.196 18.2604 35.196 21.7396 34.4119 25.0826C33.3261 29.7117 29.7117 33.3261 25.0826 34.4119C21.7396 35.1961 18.2604 35.1961 14.9174 34.4119C10.2884 33.3261 6.67396 29.7117 5.58813 25.0826C4.80396 21.7396 4.80396 18.2604 5.58813 14.9174Z" fill="#EFF2FE" stroke="#5063F4" stroke-width="1.35"/>
<path opacity="0.3" d="M14.666 17.3333V24.6666H19.386C19.3527 24.4466 19.3327 24.2266 19.3327 23.9999C19.3327 21.4199 21.4193 19.3333 23.9993 19.3333C24.466 19.3333 24.9127 19.3999 25.3327 19.5266V17.3333H14.666Z" fill="#5063F4"/>
<path d="M14.6673 24.6666V17.3333H25.334V19.5266C25.814 19.6733 26.2673 19.8866 26.6673 20.1733V17.3333C26.6673 16.5933 26.074 15.9999 25.334 15.9999H22.6673V14.6666C22.6673 13.9266 22.074 13.3333 21.334 13.3333H18.6673C17.9273 13.3333 17.334 13.9266 17.334 14.6666V15.9999H14.6673C13.9273 15.9999 13.3407 16.5933 13.3407 17.3333L13.334 24.6666C13.334 25.4066 13.9273 25.9999 14.6673 25.9999H19.7873C19.5873 25.5866 19.454 25.1399 19.3873 24.6666H14.6673ZM18.6673 14.6666H21.334V15.9999H18.6673V14.6666Z" fill="#5063F4"/>
<path d="M23.9993 20.6667C22.1593 20.6667 20.666 22.1601 20.666 24.0001C20.666 25.8401 22.1593 27.3334 23.9993 27.3334C25.8393 27.3334 27.3327 25.8401 27.3327 24.0001C27.3327 22.1601 25.8393 20.6667 23.9993 20.6667ZM25.0993 25.5667L23.666 24.1334V22.0001H24.3327V23.8601L25.566 25.0934L25.0993 25.5667Z" fill="#5063F4"/>
</svg>
