<svg width="40" height="40" viewBox="0 0 40 40" fill="none" xmlns="http://www.w3.org/2000/svg">
<path d="M5.58813 14.9174C6.67396 10.2883 10.2883 6.67395 14.9174 5.58813C18.2604 4.80396 21.7396 4.80396 25.0826 5.58813C29.7117 6.67395 33.326 10.2883 34.4119 14.9174C35.196 18.2604 35.196 21.7396 34.4119 25.0826C33.326 29.7117 29.7117 33.326 25.0826 34.4119C21.7396 35.196 18.2604 35.196 14.9174 34.4119C10.2884 33.326 6.67396 29.7117 5.58813 25.0826C4.80396 21.7396 4.80396 18.2604 5.58813 14.9174Z" fill="#EFF2FE" stroke="#5063F4" stroke-width="1.35" stroke-linecap="round"/>
<path d="M17 16.125H15.75C15.4185 16.125 15.1005 16.2567 14.8661 16.4911C14.6317 16.7255 14.5 17.0435 14.5 17.375V24.875C14.5 25.2065 14.6317 25.5245 14.8661 25.7589C15.1005 25.9933 15.4185 26.125 15.75 26.125H19.3106M23.25 21.75V24.25H25.75M23.25 19.875V17.375C23.25 17.0435 23.1183 16.7255 22.8839 16.4911C22.6495 16.2567 22.3315 16.125 22 16.125H20.75" stroke="#5063F4" stroke-linecap="round" stroke-linejoin="round"/>
<path d="M17 19.875H19.5M17 22.375H18.875M17 16.125C17 15.7935 17.1317 15.4755 17.3661 15.2411C17.6005 15.0067 17.9185 14.875 18.25 14.875H19.5C19.8315 14.875 20.1495 15.0067 20.3839 15.2411C20.6183 15.4755 20.75 15.7935 20.75 16.125C20.75 16.4565 20.6183 16.7745 20.3839 17.0089C20.1495 17.2433 19.8315 17.375 19.5 17.375H18.25C17.9185 17.375 17.6005 17.2433 17.3661 17.0089C17.1317 16.7745 17 16.4565 17 16.125ZM20.75 24.25C20.75 24.913 21.0134 25.5489 21.4822 26.0178C21.9511 26.4866 22.587 26.75 23.25 26.75C23.913 26.75 24.5489 26.4866 25.0178 26.0178C25.4866 25.5489 25.75 24.913 25.75 24.25C25.75 23.587 25.4866 22.9511 25.0178 22.4822C24.5489 22.0134 23.913 21.75 23.25 21.75C22.587 21.75 21.9511 22.0134 21.4822 22.4822C21.0134 22.9511 20.75 23.587 20.75 24.25Z" stroke="#5063F4" stroke-linecap="round" stroke-linejoin="round"/>
</svg>
