<svg width="40" height="40" viewBox="0 0 40 40" fill="none" xmlns="http://www.w3.org/2000/svg">
<g id="COCO/Duotone/Setting - 3">
<path id="Vector" d="M5.58813 15.2885C6.67396 10.6594 10.2883 7.04505 14.9174 5.95922C18.2604 5.17505 21.7396 5.17505 25.0826 5.95922C29.7117 7.04505 33.326 10.6594 34.4119 15.2885C35.196 18.6315 35.196 22.1107 34.4119 25.4537C33.326 30.0828 29.7117 33.6971 25.0826 34.783C21.7396 35.5671 18.2604 35.5671 14.9174 34.783C10.2884 33.6971 6.67396 30.0828 5.58813 25.4537C4.80396 22.1107 4.80396 18.6315 5.58813 15.2885Z" fill="#EFF2FE" stroke="#5063F4" stroke-width="1.35" stroke-linecap="round"/>
<g id="Group">
<path id="Vector_2" d="M18.3962 14.6226C18.2093 14.4356 17.9088 14.4356 17.3071 14.4356H17.1476V13.4785C17.1476 13.3516 17.0971 13.2299 17.0074 13.1402C16.9177 13.0504 16.7959 13 16.669 13C16.5421 13 16.4204 13.0504 16.3307 13.1402C16.2409 13.2299 16.1905 13.3516 16.1905 13.4785V14.4356H16.031C15.4293 14.4356 15.1288 14.4356 14.9418 14.6226C14.7549 14.8095 14.7549 15.11 14.7549 15.7117V15.8419C14.8838 15.8081 15.0139 15.7844 15.1415 15.7672C15.5524 15.7117 16.0597 15.7117 16.6116 15.7117H16.7265C17.2784 15.7117 17.785 15.7117 18.1965 15.7672C18.3241 15.7838 18.4543 15.8081 18.5832 15.8419V15.7117C18.5832 15.11 18.5832 14.8095 18.3962 14.6226Z" fill="#5063F4"/>
<path id="Vector_3" fill-rule="evenodd" clip-rule="evenodd" d="M13.4785 25.1236C13.3516 25.1236 13.2299 25.174 13.1402 25.2638C13.0504 25.3535 13 25.4752 13 25.6021C13 25.729 13.0504 25.8508 13.1402 25.9405C13.2299 26.0302 13.3516 26.0807 13.4785 26.0807H26.2395C26.3664 26.0807 26.4881 26.0302 26.5779 25.9405C26.6676 25.8508 26.718 25.729 26.718 25.6021C26.718 25.4752 26.6676 25.3535 26.5779 25.2638C26.4881 25.174 26.3664 25.1236 26.2395 25.1236H25.6015V16.524C25.6015 15.669 25.6015 15.2409 25.3743 14.9129C25.1472 14.5849 24.7465 14.4344 23.9451 14.1345C22.3787 13.5468 21.5958 13.2533 21.0464 13.6336C20.4971 14.0152 20.4971 14.851 20.4971 16.524V18.2646H20.5545C21.1064 18.2646 21.613 18.2646 22.0246 18.3201C22.4782 18.3807 22.958 18.5243 23.3517 18.9186C23.7467 19.3129 23.8902 19.7927 23.9515 20.2457C24.0063 20.6579 24.0063 21.1645 24.0063 21.717V25.1236H23.0493V21.7738C23.0493 20.5705 23.0493 19.9694 22.6754 19.5955C22.3015 19.2216 21.7004 19.2216 20.4971 19.2216H19.221C18.0176 19.2216 17.4166 19.2216 17.0427 19.5955C16.6688 19.9694 16.6688 20.5705 16.6688 21.7738V25.1236H15.7117V21.7164C15.7117 21.1645 15.7117 20.6579 15.7672 20.2463C15.8278 19.7927 15.9714 19.3129 16.3657 18.9192C16.76 18.5243 17.2398 18.3807 17.6928 18.3194C18.105 18.2646 18.6116 18.2646 19.1642 18.2646H19.2101C19.1846 17.6674 19.1049 17.3011 18.8471 17.0433C18.4732 16.6694 17.8721 16.6694 16.6688 16.6694C15.4654 16.6694 14.8644 16.6694 14.4905 17.0433C14.1166 17.4172 14.1166 18.0183 14.1166 19.2216V25.1236H13.4785ZM18.1044 21.1358C18.1044 21.0089 18.1548 20.8872 18.2446 20.7974C18.3343 20.7077 18.456 20.6573 18.5829 20.6573H21.1351C21.262 20.6573 21.3838 20.7077 21.4735 20.7974C21.5632 20.8872 21.6137 21.0089 21.6137 21.1358C21.6137 21.2627 21.5632 21.3844 21.4735 21.4742C21.3838 21.5639 21.262 21.6143 21.1351 21.6143H18.5829C18.456 21.6143 18.3343 21.5639 18.2446 21.4742C18.1548 21.3844 18.1044 21.2627 18.1044 21.1358ZM18.1044 23.0499C18.1044 22.923 18.1548 22.8013 18.2446 22.7116C18.3343 22.6218 18.456 22.5714 18.5829 22.5714H21.1351C21.262 22.5714 21.3838 22.6218 21.4735 22.7116C21.5632 22.8013 21.6137 22.923 21.6137 23.0499C21.6137 23.1768 21.5632 23.2986 21.4735 23.3883C21.3838 23.4781 21.262 23.5285 21.1351 23.5285H18.5829C18.456 23.5285 18.3343 23.4781 18.2446 23.3883C18.1548 23.2986 18.1044 23.1768 18.1044 23.0499Z" fill="#5063F4"/>
</g>
</g>
</svg>
