<svg width="30" height="31" viewBox="0 0 30 31" fill="none" xmlns="http://www.w3.org/2000/svg">
<g id="COCO/Duotone/User">
<path id="Vector" d="M17.6316 18.9999C16.9763 18.9999 16.4177 18.7677 15.9557 18.3032C15.4937 17.8388 15.2628 17.2773 15.2632 16.6189C15.2632 15.9602 15.4942 15.3986 15.9562 14.9342C16.4182 14.4697 16.9766 14.2377 17.6316 14.238C18.2868 14.238 18.8455 14.4702 19.3075 14.9346C19.7695 15.3991 20.0003 15.9605 20 16.6189C20 17.2777 19.769 17.8392 19.307 18.3037C18.845 18.7681 18.2865 19.0002 17.6316 18.9999ZM18.425 17.7499L18.7566 17.4165L17.8684 16.5237V15.1904H17.3947V16.7142L18.425 17.7499ZM11.9474 18.5237C11.6868 18.5237 11.4637 18.4304 11.2781 18.2437C11.0924 18.057 10.9997 17.8329 11 17.5713V10.9046C11 10.6427 11.0928 10.4184 11.2785 10.2318C11.4642 10.0451 11.6872 9.95194 11.9474 9.95226H13.925C14.0118 9.67448 14.1816 9.44623 14.4342 9.2675C14.6868 9.08877 14.9632 8.99956 15.2632 8.99988C15.5789 8.99988 15.8613 9.08924 16.1101 9.26797C16.3589 9.4467 16.5266 9.6748 16.6132 9.95226H18.5789C18.8395 9.95226 19.0626 10.0456 19.2483 10.2323C19.4339 10.4189 19.5266 10.6431 19.5263 10.9046V13.8808C19.3842 13.7777 19.2342 13.6904 19.0763 13.6189C18.9184 13.5475 18.7526 13.484 18.5789 13.4285V10.9046H17.6316V12.3332H12.8947V10.9046H11.9474V17.5713H14.4579C14.5132 17.7459 14.5763 17.9126 14.6474 18.0713C14.7184 18.23 14.8053 18.3808 14.9079 18.5237H11.9474ZM15.2632 10.9046C15.3974 10.9046 15.5099 10.8589 15.6009 10.7675C15.6918 10.6761 15.7372 10.5631 15.7368 10.4285C15.7368 10.2935 15.6914 10.1804 15.6004 10.0889C15.5095 9.9975 15.3971 9.95194 15.2632 9.95226C15.1289 9.95226 15.0164 9.99797 14.9254 10.0894C14.8345 10.1808 14.7892 10.2938 14.7895 10.4285C14.7895 10.5634 14.8349 10.6765 14.9259 10.768C15.0168 10.8594 15.1293 10.905 15.2632 10.9046Z" fill="#F8FAFF"/>
<path id="Vector_2" d="M5.4411 10.4379C4.85297 12.9452 4.85297 15.5546 5.4411 18.0618C6.25547 21.5336 8.96626 24.2444 12.438 25.0588C14.9453 25.6469 17.5547 25.6469 20.062 25.0588C23.5337 24.2444 26.2445 21.5336 27.0589 18.0618C27.647 15.5546 27.647 12.9452 27.0589 10.4379C26.2445 6.96614 23.5337 4.25534 20.062 3.44097C17.5547 2.85285 14.9453 2.85285 12.438 3.44097C8.96626 4.25534 6.25547 6.96614 5.4411 10.4379Z" fill="#F8FAFF" fill-opacity="0.15" stroke="#F8FAFF" stroke-width="1.35"/>
</g>
</svg>
