<svg width="21" height="20" viewBox="0 0 21 20" fill="none" xmlns="http://www.w3.org/2000/svg">
<g id="pepicons-pop:dots-y">
<g id="Group">
<path id="Vector" d="M10.3965 17C11.5011 17 12.3965 16.1046 12.3965 15C12.3965 13.8954 11.5011 13 10.3965 13C9.29191 13 8.39648 13.8954 8.39648 15C8.39648 16.1046 9.29191 17 10.3965 17Z" fill="#5063F4"/>
<path id="Vector_2" d="M10.3965 12C11.5011 12 12.3965 11.1046 12.3965 10C12.3965 8.89543 11.5011 8 10.3965 8C9.29191 8 8.39648 8.89543 8.39648 10C8.39648 11.1046 9.29191 12 10.3965 12Z" fill="#5063F4"/>
<path id="Vector_3" d="M10.3965 7C11.5011 7 12.3965 6.10457 12.3965 5C12.3965 3.89543 11.5011 3 10.3965 3C9.29191 3 8.39648 3.89543 8.39648 5C8.39648 6.10457 9.29191 7 10.3965 7Z" fill="#5063F4"/>
</g>
</g>
</svg>
