<svg width="40" height="40" viewBox="0 0 40 40" fill="none" xmlns="http://www.w3.org/2000/svg">
<path d="M5.58801 14.9174C6.67383 10.2883 10.2882 6.67395 14.9173 5.58813C18.2603 4.80396 21.7395 4.80396 25.0825 5.58813C29.7115 6.67395 33.3259 10.2883 34.4118 14.9174C35.1959 18.2604 35.1959 21.7396 34.4118 25.0826C33.3259 29.7117 29.7115 33.326 25.0825 34.4119C21.7395 35.196 18.2603 35.196 14.9173 34.4119C10.2882 33.326 6.67383 29.7117 5.58801 25.0826C4.80383 21.7396 4.80383 18.2604 5.58801 14.9174Z" fill="#EFF2FE" stroke="#5063F4" stroke-width="1.35" stroke-linecap="round"/>
<g clip-path="url(#clip0_15292_90351)">
<path opacity="0.2" d="M11.25 21.8748H13.75V26.2498H11.25C11.0842 26.2498 10.9253 26.1839 10.8081 26.0667C10.6908 25.9495 10.625 25.7905 10.625 25.6248V22.4998C10.625 22.334 10.6908 22.175 10.8081 22.0578C10.9253 21.9406 11.0842 21.8748 11.25 21.8748ZM25.9375 14.3748C25.6132 14.375 25.2929 14.4473 25 14.5865C24.9787 14.1173 24.807 13.6674 24.5103 13.3034C24.2135 12.9394 23.8075 12.6805 23.3523 12.5651C22.897 12.4497 22.4167 12.4839 21.9824 12.6626C21.5481 12.8413 21.1828 13.155 20.9406 13.5574C20.6984 13.9598 20.5921 14.4294 20.6375 14.8969C20.6828 15.3643 20.8774 15.8047 21.1925 16.153C21.5076 16.5013 21.9264 16.739 22.3869 16.8308C22.8475 16.9227 23.3254 16.8638 23.75 16.663C23.7697 17.0908 23.9146 17.5034 24.1666 17.8497C24.4187 18.1959 24.7668 18.4605 25.1679 18.6108C25.5689 18.761 26.0052 18.7902 26.4227 18.6947C26.8402 18.5993 27.2205 18.3834 27.5164 18.0738C27.8123 17.7643 28.0109 17.3747 28.0874 16.9533C28.164 16.5319 28.1152 16.0974 27.9471 15.7035C27.7789 15.3096 27.4989 14.9738 27.1417 14.7376C26.7845 14.5014 26.3658 14.3752 25.9375 14.3748Z" fill="#5063F4"/>
<path d="M27.9945 21.0203C27.762 20.8414 27.4913 20.7185 27.2035 20.6612C26.9157 20.6038 26.6185 20.6137 26.3352 20.6898L23.0664 21.4414C23.1425 21.1202 23.1448 20.7858 23.0733 20.4636C23.0017 20.1413 22.8582 19.8393 22.6534 19.5804C22.4486 19.3215 22.1878 19.1123 21.8907 18.9685C21.5935 18.8247 21.2676 18.75 20.9375 18.75H17.0266C16.6981 18.7492 16.3728 18.8134 16.0693 18.9391C15.7659 19.0647 15.4903 19.2493 15.2586 19.482L13.4914 21.25H11.25C10.9185 21.25 10.6005 21.3817 10.3661 21.6161C10.1317 21.8505 10 22.1685 10 22.5V25.625C10 25.9565 10.1317 26.2745 10.3661 26.5089C10.6005 26.7433 10.9185 26.875 11.25 26.875H19.375C19.4261 26.875 19.477 26.8687 19.5266 26.8563L24.5266 25.6063C24.5584 25.5986 24.5895 25.5882 24.6195 25.575L27.6562 24.2828L27.6906 24.2672C27.9825 24.1214 28.2324 23.9036 28.4168 23.6345C28.6013 23.3654 28.7142 23.0537 28.7449 22.7289C28.7756 22.4041 28.7231 22.0768 28.5924 21.7779C28.4617 21.479 28.257 21.2183 27.9977 21.0203H27.9945ZM11.25 22.5H13.125V25.625H11.25V22.5ZM27.143 23.1414L24.1742 24.4055L19.2969 25.625H14.375V22.1336L16.143 20.3664C16.2586 20.2498 16.3963 20.1574 16.548 20.0945C16.6997 20.0316 16.8623 19.9995 17.0266 20H20.9375C21.1861 20 21.4246 20.0988 21.6004 20.2746C21.7762 20.4504 21.875 20.6889 21.875 20.9375C21.875 21.1861 21.7762 21.4246 21.6004 21.6004C21.4246 21.7762 21.1861 21.875 20.9375 21.875H18.75C18.5842 21.875 18.4253 21.9408 18.3081 22.0581C18.1908 22.1753 18.125 22.3342 18.125 22.5C18.125 22.6658 18.1908 22.8247 18.3081 22.9419C18.4253 23.0592 18.5842 23.125 18.75 23.125H21.25C21.297 23.1249 21.3439 23.1196 21.3898 23.1094L26.6242 21.9055L26.6484 21.8992C26.8082 21.8549 26.9788 21.8712 27.1273 21.945C27.2758 22.0188 27.3917 22.1449 27.4528 22.2991C27.5139 22.4533 27.5158 22.6246 27.4582 22.7801C27.4005 22.9356 27.2874 23.0643 27.1406 23.1414H27.143ZM22.8125 17.5C22.9669 17.5002 23.1211 17.4876 23.2734 17.4625C23.4448 17.9715 23.7583 18.4208 24.177 18.7573C24.5956 19.0938 25.1018 19.3033 25.6358 19.3612C26.1698 19.4191 26.7091 19.3229 27.1901 19.084C27.6712 18.845 28.0737 18.4734 28.3502 18.0129C28.6267 17.5524 28.7655 17.0224 28.7503 16.4855C28.7351 15.9487 28.5665 15.4274 28.2644 14.9833C27.9624 14.5392 27.5394 14.1909 27.0457 13.9795C26.5519 13.7682 26.008 13.7026 25.4781 13.7906C25.3131 13.3002 25.016 12.8648 24.6195 12.5323C24.223 12.1999 23.7424 11.9832 23.2307 11.9063C22.7191 11.8293 22.196 11.895 21.7193 12.0961C21.2425 12.2973 20.8305 12.626 20.5285 13.0462C20.2266 13.4664 20.0464 13.9618 20.0078 14.4778C19.9692 14.9938 20.0737 15.5105 20.3098 15.9709C20.546 16.4313 20.9045 16.8177 21.3461 17.0875C21.7876 17.3573 22.2951 17.5 22.8125 17.5ZM27.5 16.5625C27.5 16.8715 27.4084 17.1736 27.2367 17.4306C27.065 17.6875 26.821 17.8878 26.5354 18.0061C26.2499 18.1243 25.9358 18.1553 25.6327 18.095C25.3296 18.0347 25.0512 17.8859 24.8326 17.6674C24.6141 17.4488 24.4653 17.1704 24.405 16.8673C24.3447 16.5642 24.3757 16.2501 24.4939 15.9646C24.6122 15.679 24.8125 15.435 25.0694 15.2633C25.3264 15.0916 25.6285 15 25.9375 15C26.3519 15 26.7493 15.1646 27.0424 15.4576C27.3354 15.7507 27.5 16.1481 27.5 16.5625ZM22.8125 13.125C23.1534 13.1252 23.4848 13.2368 23.7563 13.4429C24.0279 13.6489 24.2245 13.9382 24.3164 14.2664C23.9963 14.4916 23.7267 14.7812 23.5249 15.1166C23.3232 15.4519 23.1936 15.8257 23.1445 16.2141C23.0354 16.2376 22.9241 16.2497 22.8125 16.25C22.3981 16.25 22.0007 16.0854 21.7076 15.7924C21.4146 15.4993 21.25 15.1019 21.25 14.6875C21.25 14.2731 21.4146 13.8757 21.7076 13.5826C22.0007 13.2896 22.3981 13.125 22.8125 13.125Z" fill="#5063F4"/>
</g>
<defs>
<clipPath id="clip0_15292_90351">
<rect width="20" height="20" fill="white" transform="translate(10 10)"/>
</clipPath>
</defs>
</svg>
