<svg width="48" height="48" viewBox="0 0 48 48" fill="none" xmlns="http://www.w3.org/2000/svg">
<g id="Promo" clip-path="url(#clip0_3879_4390)">
<path id="Vector" d="M2.38219 16.3761C4.01093 9.43252 9.43252 4.01093 16.3761 2.38219C21.3906 1.20594 26.6094 1.20594 31.6239 2.38219C38.5675 4.01093 43.9891 9.43252 45.6178 16.3761C46.7941 21.3906 46.7941 26.6094 45.6178 31.6239C43.9891 38.5675 38.5675 43.9891 31.6239 45.6178C26.6094 46.7941 21.3906 46.7941 16.3761 45.6178C9.43253 43.9891 4.01093 38.5675 2.38219 31.6239C1.20594 26.6094 1.20594 21.3906 2.38219 16.3761Z" fill="#EFF2FE" stroke="#5063F4" stroke-width="1.35"/>
<path id="Vector_2" d="M36.7319 11.697C36.3738 11.4653 35.9642 11.3251 35.5392 11.2888C35.1141 11.2524 34.6867 11.3211 34.2944 11.4886L21.4403 16.5511C21.1359 16.675 20.8105 16.7387 20.4819 16.7386H12.2528C11.5621 16.7386 10.8997 17.013 10.4113 17.5014C9.92297 17.9897 9.6486 18.6521 9.6486 19.3428V19.5511H7.04443V25.8011H9.6486V26.072C9.66492 26.7517 9.94647 27.3982 10.4331 27.8731C10.9197 28.3481 11.5728 28.6138 12.2528 28.6136L15.3778 35.2386C15.5894 35.6848 15.9225 36.0622 16.3389 36.3275C16.7554 36.5928 17.2382 36.7353 17.7319 36.7386H19.0444C19.7315 36.7331 20.3885 36.4563 20.8724 35.9686C21.3563 35.4808 21.6278 34.8215 21.6278 34.1345V28.8636L34.2944 33.9261C34.606 34.0501 34.9383 34.1137 35.2736 34.1136C35.7938 34.1052 36.3004 33.946 36.7319 33.6553C37.0746 33.4239 37.3572 33.1143 37.5565 32.752C37.7557 32.3898 37.8659 31.9852 37.8778 31.572V13.8428C37.8759 13.4189 37.7705 13.0018 37.5708 12.6279C37.3711 12.2539 37.0832 11.9344 36.7319 11.697ZM19.0236 19.3428V26.072H12.2528V19.3428H19.0236ZM19.0236 34.1345H17.7111L15.1486 28.6136H19.0236V34.1345ZM22.3986 26.3845C22.1512 26.2581 21.8933 26.1535 21.6278 26.072V19.197C21.8908 19.1427 22.1487 19.066 22.3986 18.9678L35.2736 13.8428V31.5095L22.3986 26.3845ZM37.9403 20.072V25.2803C38.6309 25.2803 39.2933 25.0059 39.7817 24.5176C40.2701 24.0292 40.5444 23.3668 40.5444 22.6761C40.5444 21.9855 40.2701 21.3231 39.7817 20.8347C39.2933 20.3463 38.6309 20.072 37.9403 20.072Z" fill="#5063F4"/>
</g>
<defs>
<clipPath id="clip0_3879_4390">
<rect width="48" height="47" fill="white" transform="translate(0 0.5)"/>
</clipPath>
</defs>
</svg>
