<svg width="61" height="61" viewBox="0 0 61 61" fill="none" xmlns="http://www.w3.org/2000/svg">
<g id="Promo">
<path id="Vector" d="M8.98217 22.9762C10.6109 16.0326 16.0325 10.611 22.9761 8.98229C27.9906 7.80603 33.2093 7.80603 38.2239 8.98229C45.1675 10.611 50.5891 16.0326 52.2178 22.9762C53.394 27.9907 53.394 33.2095 52.2178 38.224C50.5891 45.1676 45.1675 50.5892 38.2239 52.2179C33.2093 53.3942 27.9906 53.3942 22.9761 52.2179C16.0325 50.5892 10.6109 45.1676 8.98217 38.224C7.80591 33.2095 7.80591 27.9907 8.98217 22.9762Z" fill="#EFF2FE" fill-opacity="0.5" stroke="#F8FAFF" stroke-width="1.35"/>
<path id="Vector_2" d="M44.7319 17.1975C44.3738 16.9657 43.9642 16.8256 43.5392 16.7892C43.1141 16.7529 42.6867 16.8216 42.2944 16.9891L29.4403 22.0516C29.1359 22.1755 28.8105 22.2391 28.4819 22.2391H20.2528C19.5621 22.2391 18.8997 22.5135 18.4113 23.0019C17.923 23.4902 17.6486 24.1526 17.6486 24.8433V25.0516H15.0444V31.3016H17.6486V31.5725C17.6649 32.2522 17.9465 32.8987 18.4331 33.3736C18.9197 33.8485 19.5728 34.1143 20.2528 34.1141L23.3778 40.7391C23.5894 41.1852 23.9225 41.5626 24.3389 41.828C24.7554 42.0933 25.2382 42.2358 25.7319 42.2391H27.0444C27.7315 42.2336 28.3885 41.9568 28.8724 41.469C29.3563 40.9813 29.6278 40.322 29.6278 39.635V34.3641L42.2944 39.4266C42.606 39.5506 42.9383 39.6142 43.2736 39.6141C43.7938 39.6057 44.3004 39.4465 44.7319 39.1558C45.0746 38.9244 45.3572 38.6148 45.5565 38.2525C45.7557 37.8902 45.8659 37.4857 45.8778 37.0725V19.3433C45.8759 18.9194 45.7705 18.5023 45.5708 18.1284C45.3711 17.7544 45.0832 17.4348 44.7319 17.1975ZM27.0236 24.8433V31.5725H20.2528V24.8433H27.0236ZM27.0236 39.635H25.7111L23.1486 34.1141H27.0236V39.635ZM30.3986 31.8849C30.1512 31.7585 29.8933 31.654 29.6278 31.5725V24.6975C29.8908 24.6432 30.1487 24.5665 30.3986 24.4683L43.2736 19.3433V37.01L30.3986 31.8849ZM45.9403 25.5725V30.7808C46.6309 30.7808 47.2933 30.5064 47.7817 30.018C48.2701 29.5297 48.5444 28.8673 48.5444 28.1766C48.5444 27.4859 48.2701 26.8236 47.7817 26.3352C47.2933 25.8468 46.6309 25.5725 45.9403 25.5725Z" fill="#5063F4"/>
</g>
</svg>
