<svg width="48" height="48" viewBox="0 0 48 48" fill="none" xmlns="http://www.w3.org/2000/svg">
<g id="Promo" clip-path="url(#clip0_668_16350)">
<path id="Vector" d="M2.38219 16.3761C4.01093 9.43252 9.43252 4.01093 16.3761 2.38219C21.3906 1.20594 26.6094 1.20594 31.6239 2.38219C38.5675 4.01093 43.9891 9.43252 45.6178 16.3761C46.7941 21.3906 46.7941 26.6094 45.6178 31.6239C43.9891 38.5675 38.5675 43.9891 31.6239 45.6178C26.6094 46.7941 21.3906 46.7941 16.3761 45.6178C9.43253 43.9891 4.01093 38.5675 2.38219 31.6239C1.20594 26.6094 1.20594 21.3906 2.38219 16.3761Z" fill="#EFF2FE" stroke="#5063F4" stroke-width="1.35"/>
<path id="Vector_2" d="M36.7319 11.6975C36.3738 11.4657 35.9642 11.3256 35.5392 11.2892C35.1141 11.2529 34.6867 11.3216 34.2944 11.4891L21.4403 16.5516C21.1359 16.6755 20.8105 16.7391 20.4819 16.7391H12.2528C11.5621 16.7391 10.8997 17.0135 10.4113 17.5019C9.92297 17.9902 9.6486 18.6526 9.6486 19.3433V19.5516H7.04443V25.8016H9.6486V26.0725C9.66492 26.7522 9.94647 27.3987 10.4331 27.8736C10.9197 28.3485 11.5728 28.6143 12.2528 28.6141L15.3778 35.2391C15.5894 35.6852 15.9225 36.0626 16.3389 36.328C16.7554 36.5933 17.2382 36.7358 17.7319 36.7391H19.0444C19.7315 36.7336 20.3885 36.4568 20.8724 35.969C21.3563 35.4813 21.6278 34.822 21.6278 34.135V28.8641L34.2944 33.9266C34.606 34.0506 34.9383 34.1142 35.2736 34.1141C35.7938 34.1057 36.3004 33.9465 36.7319 33.6558C37.0746 33.4244 37.3572 33.1148 37.5565 32.7525C37.7557 32.3902 37.8659 31.9857 37.8778 31.5725V13.8433C37.8759 13.4194 37.7705 13.0023 37.5708 12.6284C37.3711 12.2544 37.0832 11.9348 36.7319 11.6975ZM19.0236 19.3433V26.0725H12.2528V19.3433H19.0236ZM19.0236 34.135H17.7111L15.1486 28.6141H19.0236V34.135ZM22.3986 26.3849C22.1512 26.2585 21.8933 26.154 21.6278 26.0725V19.1975C21.8908 19.1432 22.1487 19.0665 22.3986 18.9683L35.2736 13.8433V31.51L22.3986 26.3849ZM37.9403 20.0725V25.2808C38.6309 25.2808 39.2933 25.0064 39.7817 24.518C40.2701 24.0297 40.5444 23.3673 40.5444 22.6766C40.5444 21.9859 40.2701 21.3236 39.7817 20.8352C39.2933 20.3468 38.6309 20.0725 37.9403 20.0725Z" fill="#5063F4"/>
</g>
<defs>
<clipPath id="clip0_668_16350">
<rect width="48" height="47" fill="white" transform="translate(0 0.5)"/>
</clipPath>
</defs>
</svg>
