<svg width="61" height="61" viewBox="0 0 61 61" fill="none" xmlns="http://www.w3.org/2000/svg">
<g id="Promo">
<path id="Vector" d="M9.38219 23.3761C11.0109 16.4325 16.4325 11.0109 23.3761 9.38219C28.3906 8.20594 33.6094 8.20594 38.6239 9.38219C45.5675 11.0109 50.9891 16.4325 52.6178 23.3761C53.7941 28.3906 53.7941 33.6094 52.6178 38.6239C50.9891 45.5675 45.5675 50.9891 38.6239 52.6178C33.6094 53.7941 28.3906 53.7941 23.3761 52.6178C16.4325 50.9891 11.0109 45.5675 9.38219 38.6239C8.20594 33.6094 8.20594 28.3906 9.38219 23.3761Z" fill="#EFF2FE" stroke="#5063F4" stroke-width="1.35"/>
<path id="Vector_2" d="M32.4281 21.2851L42.6229 38.9435C42.7169 39.1062 42.7663 39.2908 42.7663 39.4786C42.7663 39.6665 42.7169 39.851 42.623 40.0137C42.529 40.1764 42.3939 40.3115 42.2312 40.4054C42.0686 40.4994 41.884 40.5488 41.6961 40.5488H21.3065C21.1187 40.5488 20.9341 40.4994 20.7714 40.4054C20.6087 40.3115 20.4736 40.1764 20.3797 40.0137C20.2858 39.851 20.2363 39.6665 20.2363 39.4786C20.2363 39.2908 20.2858 39.1062 20.3797 38.9435L30.5745 21.2851C30.6685 21.1224 30.8036 20.9873 30.9662 20.8934C31.1289 20.7994 31.3135 20.75 31.5013 20.75C31.6892 20.75 31.8737 20.7994 32.0364 20.8934C32.1991 20.9873 32.3342 21.1224 32.4281 21.2851ZM23.1601 38.4084H39.8425L31.5024 23.9606L23.1601 38.4084ZM30.4311 35.1978H32.5715V37.3382H30.4311V35.1978ZM30.4311 27.7063H32.5715V33.0574H30.4311V27.7063Z" fill="#5063F4"/>
</g>
</svg>
