<svg width="60" height="61" viewBox="0 0 60 61" fill="none" xmlns="http://www.w3.org/2000/svg">
<g id="Promo">
<path id="Vector" d="M9.38219 23.3761C11.0109 16.4325 16.4325 11.0109 23.3761 9.38219C28.3906 8.20594 33.6094 8.20594 38.6239 9.38219C45.5675 11.0109 50.9891 16.4325 52.6178 23.3761C53.7941 28.3906 53.7941 33.6094 52.6178 38.6239C50.9891 45.5675 45.5675 50.9891 38.6239 52.6178C33.6094 53.7941 28.3906 53.7941 23.3761 52.6178C16.4325 50.9891 11.0109 45.5675 9.38219 38.6239C8.20594 33.6094 8.20594 28.3906 9.38219 23.3761Z" fill="#EFF2FE" stroke="#F8FAFF" stroke-width="1.35"/>
<path id="Vector_2" d="M43.7319 18.6975C43.3738 18.4657 42.9642 18.3256 42.5392 18.2892C42.1141 18.2529 41.6867 18.3216 41.2944 18.4891L28.4403 23.5516C28.1359 23.6755 27.8105 23.7391 27.4819 23.7391H19.2528C18.5621 23.7391 17.8997 24.0135 17.4113 24.5019C16.923 24.9902 16.6486 25.6526 16.6486 26.3433V26.5516H14.0444V32.8016H16.6486V33.0725C16.6649 33.7522 16.9465 34.3987 17.4331 34.8736C17.9197 35.3485 18.5728 35.6143 19.2528 35.6141L22.3778 42.2391C22.5894 42.6852 22.9225 43.0626 23.3389 43.328C23.7554 43.5933 24.2382 43.7358 24.7319 43.7391H26.0444C26.7315 43.7336 27.3885 43.4568 27.8724 42.969C28.3563 42.4813 28.6278 41.822 28.6278 41.135V35.8641L41.2944 40.9266C41.606 41.0506 41.9383 41.1142 42.2736 41.1141C42.7938 41.1057 43.3004 40.9465 43.7319 40.6558C44.0746 40.4244 44.3572 40.1148 44.5565 39.7525C44.7557 39.3902 44.8659 38.9857 44.8778 38.5725V20.8433C44.8759 20.4194 44.7705 20.0023 44.5708 19.6284C44.3711 19.2544 44.0832 18.9348 43.7319 18.6975ZM26.0236 26.3433V33.0725H19.2528V26.3433H26.0236ZM26.0236 41.135H24.7111L22.1486 35.6141H26.0236V41.135ZM29.3986 33.3849C29.1512 33.2585 28.8933 33.154 28.6278 33.0725V26.1975C28.8908 26.1432 29.1487 26.0665 29.3986 25.9683L42.2736 20.8433V38.51L29.3986 33.3849ZM44.9403 27.0725V32.2808C45.6309 32.2808 46.2933 32.0064 46.7817 31.518C47.2701 31.0297 47.5444 30.3673 47.5444 29.6766C47.5444 28.9859 47.2701 28.3236 46.7817 27.8352C46.2933 27.3468 45.6309 27.0725 44.9403 27.0725Z" fill="#5063F4"/>
</g>
</svg>
