<svg width="60" height="60" viewBox="0 0 60 60" fill="none" xmlns="http://www.w3.org/2000/svg">
<g id="Promo">
<path id="Vector" d="M9.38219 22.8761C11.0109 15.9325 16.4325 10.5109 23.3761 8.88219C28.3906 7.70594 33.6094 7.70594 38.6239 8.88219C45.5675 10.5109 50.9891 15.9325 52.6178 22.8761C53.7941 27.8906 53.7941 33.1094 52.6178 38.1239C50.9891 45.0675 45.5675 50.4891 38.6239 52.1178C33.6094 53.2941 28.3906 53.2941 23.3761 52.1178C16.4325 50.4891 11.0109 45.0675 9.38219 38.1239C8.20594 33.1094 8.20594 27.8906 9.38219 22.8761Z" fill="#EFF2FE" stroke="#5063F4" stroke-width="1.35"/>
<g id="Group">
<path id="Vector_2" d="M23.75 23.75H22.5C21.837 23.75 21.2011 24.0134 20.7322 24.4822C20.2634 24.9511 20 25.587 20 26.25V37.5C20 38.163 20.2634 38.7989 20.7322 39.2678C21.2011 39.7366 21.837 40 22.5 40H33.75C34.413 40 35.0489 39.7366 35.5178 39.2678C35.9866 38.7989 36.25 38.163 36.25 37.5V36.25" stroke="#5063F4" stroke-width="2.5" stroke-linecap="round" stroke-linejoin="round"/>
<path id="Vector_3" d="M35 21.2501L38.75 25.0001M40.4813 23.2314C40.9736 22.7391 41.2501 22.0714 41.2501 21.3751C41.2501 20.6789 40.9736 20.0112 40.4813 19.5189C39.9889 19.0266 39.3212 18.75 38.625 18.75C37.9288 18.75 37.2611 19.0266 36.7688 19.5189L26.25 30.0001V33.7501H30L40.4813 23.2314Z" stroke="#5063F4" stroke-width="2.5" stroke-linecap="round" stroke-linejoin="round"/>
</g>
</g>
</svg>
