<svg width="60" height="61" viewBox="0 0 60 61" fill="none" xmlns="http://www.w3.org/2000/svg">
<g id="Promo">
<path id="Vector" d="M9.38219 23.3761C11.0109 16.4325 16.4325 11.0109 23.3761 9.38219C28.3906 8.20594 33.6094 8.20594 38.6239 9.38219C45.5675 11.0109 50.9891 16.4325 52.6178 23.3761C53.7941 28.3906 53.7941 33.6094 52.6178 38.6239C50.9891 45.5675 45.5675 50.9891 38.6239 52.6178C33.6094 53.7941 28.3906 53.7941 23.3761 52.6178C16.4325 50.9891 11.0109 45.5675 9.38219 38.6239C8.20594 33.6094 8.20594 28.3906 9.38219 23.3761Z" fill="#EFF2FE" stroke="#F8FAFF" stroke-width="1.35"/>
<g id="Group">
<path id="Vector_2" d="M23.75 24.25H22.5C21.837 24.25 21.2011 24.5134 20.7322 24.9822C20.2634 25.4511 20 26.087 20 26.75V38C20 38.663 20.2634 39.2989 20.7322 39.7678C21.2011 40.2366 21.837 40.5 22.5 40.5H33.75C34.413 40.5 35.0489 40.2366 35.5178 39.7678C35.9866 39.2989 36.25 38.663 36.25 38V36.75" stroke="#5063F4" stroke-width="2.5" stroke-linecap="round" stroke-linejoin="round"/>
<path id="Vector_3" d="M35 21.7501L38.75 25.5001M40.4813 23.7314C40.9736 23.2391 41.2501 22.5714 41.2501 21.8751C41.2501 21.1789 40.9736 20.5112 40.4813 20.0189C39.9889 19.5266 39.3212 19.25 38.625 19.25C37.9288 19.25 37.2611 19.5266 36.7688 20.0189L26.25 30.5001V34.2501H30L40.4813 23.7314Z" stroke="#5063F4" stroke-width="2.5" stroke-linecap="round" stroke-linejoin="round"/>
</g>
</g>
</svg>
