<svg width="40" height="40" viewBox="0 0 40 40" fill="none" xmlns="http://www.w3.org/2000/svg">
<g id="Promo">
<path id="Vector" d="M5.58813 14.9174C6.67396 10.2883 10.2883 6.67395 14.9174 5.58813C18.2604 4.80396 21.7396 4.80396 25.0826 5.58813C29.7117 6.67395 33.3261 10.2884 34.4119 14.9174C35.196 18.2604 35.196 21.7396 34.4119 25.0826C33.3261 29.7117 29.7117 33.3261 25.0826 34.4119C21.7396 35.1961 18.2604 35.1961 14.9174 34.4119C10.2884 33.3261 6.67396 29.7117 5.58813 25.0826C4.80396 21.7396 4.80396 18.2604 5.58813 14.9174Z" fill="#EFF2FE" stroke="#5063F4" stroke-width="1.35"/>
<path id="Vector_2" d="M29.4213 11.0646C29.1825 10.9101 28.9095 10.8167 28.6261 10.7924C28.3428 10.7682 28.0578 10.814 27.7963 10.9257L19.2269 14.3007C19.024 14.3833 18.807 14.4257 18.588 14.4257H13.1019C12.6414 14.4257 12.1998 14.6086 11.8743 14.9342C11.5487 15.2598 11.3658 15.7014 11.3658 16.1618V16.3007H9.62965V20.4674H11.3658V20.6479C11.3766 21.1011 11.5643 21.5321 11.8888 21.8487C12.2132 22.1653 12.6486 22.3425 13.1019 22.3424L15.1852 26.759C15.3263 27.0564 15.5484 27.308 15.826 27.4849C16.1036 27.6618 16.4255 27.7568 16.7547 27.759H17.6297C18.0877 27.7554 18.5257 27.5708 18.8483 27.2456C19.1709 26.9205 19.3519 26.481 19.3519 26.0229V22.509L27.7963 25.884C28.004 25.9667 28.2255 26.0091 28.4491 26.009C28.7959 26.0034 29.1337 25.8973 29.4213 25.7035C29.6498 25.5492 29.8382 25.3428 29.971 25.1013C30.1039 24.8598 30.1773 24.5901 30.1852 24.3146V12.4951C30.1839 12.2125 30.1137 11.9345 29.9806 11.6852C29.8474 11.4359 29.6555 11.2228 29.4213 11.0646ZM17.6158 16.1618V20.6479H13.1019V16.1618H17.6158ZM17.6158 26.0229H16.7408L15.0324 22.3424H17.6158V26.0229ZM19.8658 20.8562C19.7009 20.772 19.5289 20.7023 19.3519 20.6479V16.0646C19.5272 16.0284 19.6991 15.9773 19.8658 15.9118L28.4491 12.4951V24.2729L19.8658 20.8562ZM30.2269 16.6479V20.1201C30.6873 20.1201 31.1289 19.9372 31.4545 19.6116C31.7801 19.2861 31.963 18.8445 31.963 18.384C31.963 17.9236 31.7801 17.482 31.4545 17.1564C31.1289 16.8308 30.6873 16.6479 30.2269 16.6479Z" fill="#5063F4"/>
</g>
</svg>
