<svg width="25" height="25" viewBox="0 0 25 25" fill="none" xmlns="http://www.w3.org/2000/svg">
<g id="Promo">
<path id="Vector" d="M3.95285 9.65063C4.60435 6.8732 6.77298 4.70457 9.55041 4.05307C11.5562 3.58257 13.6437 3.58257 15.6495 4.05307C18.427 4.70457 20.5956 6.87321 21.2471 9.65063C21.7176 11.6565 21.7176 13.7439 21.2471 15.7498C20.5956 18.5272 18.427 20.6958 15.6495 21.3473C13.6437 21.8178 11.5562 21.8178 9.55041 21.3473C6.77299 20.6958 4.60435 18.5272 3.95285 15.7498C3.48235 13.7439 3.48235 11.6565 3.95285 9.65063Z" fill="#5063F4" fill-opacity="0.15" stroke="#F8FAFF" stroke-width="1.35"/>
<path id="Vector_2" d="M18.2528 7.33894C18.1095 7.24626 17.9457 7.19019 17.7757 7.17566C17.6057 7.16113 17.4347 7.18858 17.2778 7.25561L12.1361 9.28061C12.0144 9.33015 11.8842 9.35562 11.7528 9.35561H8.46114C8.18487 9.35561 7.91992 9.46536 7.72457 9.66071C7.52922 9.85606 7.41947 10.121 7.41947 10.3973V10.4806H6.37781V12.9806H7.41947V13.0889C7.426 13.3609 7.53862 13.6194 7.73327 13.8094C7.92792 13.9994 8.18915 14.1057 8.46114 14.1056L9.71114 16.7556C9.79578 16.9341 9.92904 17.085 10.0956 17.1912C10.2622 17.2973 10.4553 17.3543 10.6528 17.3556H11.1778C11.4526 17.3534 11.7154 17.2427 11.909 17.0476C12.1025 16.8525 12.2111 16.5888 12.2111 16.3139V14.2056L17.2778 16.2306C17.4024 16.2802 17.5353 16.3057 17.6695 16.3056C17.8776 16.3023 18.0802 16.2386 18.2528 16.1223C18.3899 16.0297 18.5029 15.9059 18.5826 15.761C18.6623 15.6161 18.7064 15.4543 18.7111 15.2889V8.19728C18.7104 8.02771 18.6682 7.86089 18.5884 7.7113C18.5085 7.56172 18.3933 7.4339 18.2528 7.33894ZM11.1695 10.3973V13.0889H8.46114V10.3973H11.1695ZM11.1695 16.3139H10.6445L9.61947 14.1056H11.1695V16.3139ZM12.5195 13.2139C12.4205 13.1634 12.3174 13.1216 12.2111 13.0889V10.3389C12.3163 10.3172 12.4195 10.2866 12.5195 10.2473L17.6695 8.19728V15.2639L12.5195 13.2139ZM18.7361 10.6889V12.7723C19.0124 12.7723 19.2774 12.6625 19.4727 12.4672C19.6681 12.2718 19.7778 12.0069 19.7778 11.7306C19.7778 11.4543 19.6681 11.1894 19.4727 10.994C19.2774 10.7987 19.0124 10.6889 18.7361 10.6889Z" fill="#5063F4"/>
</g>
</svg>
