<svg width="60" height="61" viewBox="0 0 60 61" fill="none" xmlns="http://www.w3.org/2000/svg">
<g clip-path="url(#clip0_11284_103203)">
<path d="M8.38219 22.8761C10.0109 15.9325 15.4325 10.5109 22.3761 8.88219C27.3906 7.70594 32.6094 7.70594 37.6239 8.88219C44.5675 10.5109 49.9891 15.9325 51.6178 22.8761C52.7941 27.8906 52.7941 33.1094 51.6178 38.1239C49.9891 45.0675 44.5675 50.4891 37.6239 52.1178C32.6094 53.2941 27.3906 53.2941 22.3761 52.1178C15.4325 50.4891 10.0109 45.0675 8.38219 38.1239C7.20594 33.1094 7.20594 27.8906 8.38219 22.8761Z" fill="#EFF2FE"/>
<path d="M8.38219 38.1239L9.03936 37.9698L8.38219 38.1239ZM8.38219 22.8761L7.72503 22.7219L8.38219 22.8761ZM51.6178 22.8761L52.275 22.7219L51.6178 22.8761ZM51.6178 38.1239L52.275 38.2781L51.6178 38.1239ZM37.6239 52.1178L37.7781 52.775L37.6239 52.1178ZM22.3761 52.1178L22.5302 51.4607L22.3761 52.1178ZM22.3761 8.88219L22.2219 8.22503L22.3761 8.88219ZM37.6239 8.88219L37.7781 8.22503L37.6239 8.88219ZM9.03936 37.9698C7.88688 33.0566 7.88688 27.9434 9.03936 23.0302L7.72503 22.7219C6.52499 27.8379 6.52499 33.1621 7.72503 38.2781L9.03936 37.9698ZM50.9607 23.0302C52.1131 27.9434 52.1131 33.0566 50.9607 37.9698L52.275 38.2781C53.475 33.1621 53.475 27.8379 52.275 22.7219L50.9607 23.0302ZM37.4698 51.4607C32.5566 52.6131 27.4434 52.6131 22.5302 51.4607L22.2219 52.775C27.3379 53.975 32.6621 53.975 37.7781 52.775L37.4698 51.4607ZM22.5302 9.53935C27.4434 8.38688 32.5566 8.38688 37.4698 9.53936L37.7781 8.22503C32.6621 7.02499 27.3379 7.02499 22.2219 8.22503L22.5302 9.53935ZM22.5302 51.4607C15.8363 49.8905 10.6096 44.6638 9.03936 37.9698L7.72503 38.2781C9.41232 45.4712 15.0288 51.0877 22.2219 52.775L22.5302 51.4607ZM37.7781 52.775C44.9712 51.0877 50.5877 45.4712 52.275 38.2781L50.9607 37.9698C49.3905 44.6637 44.1637 49.8905 37.4698 51.4607L37.7781 52.775ZM37.4698 9.53936C44.1637 11.1095 49.3905 16.3363 50.9607 23.0302L52.275 22.7219C50.5877 15.5288 44.9712 9.91231 37.7781 8.22503L37.4698 9.53936ZM22.2219 8.22503C15.0288 9.91231 9.41232 15.5288 7.72503 22.7219L9.03936 23.0302C10.6096 16.3363 15.8363 11.1095 22.5302 9.53935L22.2219 8.22503Z" fill="#5063F4"/>
<path d="M38.5246 24.1905C38.5262 22.5524 37.9867 20.9597 36.9901 19.6597C35.9934 18.3596 34.5954 17.4251 33.0131 17.0013C31.4308 16.5774 29.7528 16.6879 28.2397 17.3157C26.7267 17.9435 25.4633 19.0533 24.6458 20.4728C24.3641 20.961 24.2879 21.5412 24.4339 22.0856C24.5799 22.63 24.9362 23.0941 25.4244 23.3758C25.9126 23.6575 26.4928 23.7338 27.0372 23.5878C27.5816 23.4417 28.0457 23.0854 28.3274 22.5972C28.6078 22.1129 29.0105 21.7108 29.4952 21.4312C29.9799 21.1516 30.5296 21.0042 31.0892 21.0039C31.9343 21.0039 32.7448 21.3397 33.3424 21.9373C33.94 22.5349 34.2758 23.3454 34.2758 24.1905C34.2758 25.0357 33.94 25.8462 33.3424 26.4438C32.7448 27.0414 31.9343 27.3772 31.0892 27.3772H31.0828C30.9458 27.3909 30.8105 27.4187 30.6791 27.46C30.5365 27.4745 30.3956 27.503 30.2585 27.545C30.1419 27.6087 30.0316 27.6834 29.9292 27.7681C29.8072 27.8346 29.6919 27.9129 29.5851 28.0017C29.4896 28.1159 29.4063 28.2398 29.3365 28.3714C29.2589 28.467 29.1899 28.5694 29.1305 28.6773C29.0842 28.8238 29.0535 28.9747 29.0391 29.1277C29.0025 29.2497 28.9777 29.3749 28.9647 29.5016V31.626L28.969 31.6494V32.6924C28.9701 33.2551 29.1944 33.7944 29.5927 34.1919C29.991 34.5894 30.5307 34.8126 31.0934 34.8126H31.0998C31.3788 34.812 31.6549 34.7565 31.9124 34.6493C32.17 34.542 32.4038 34.385 32.6007 34.1874C32.7976 33.9897 32.9536 33.7552 33.0599 33.4972C33.1661 33.2393 33.2205 32.9629 33.2199 32.6839L33.2157 31.2776C34.7446 30.8234 36.0865 29.8889 37.0427 28.6124C37.9989 27.3359 38.5185 25.7854 38.5246 24.1905ZM29.5957 38.6153C29.2974 38.9112 29.0935 39.2889 29.0098 39.7006C28.9262 40.1123 28.9665 40.5396 29.1256 40.9285C29.2848 41.3173 29.5557 41.6502 29.9041 41.8851C30.2524 42.12 30.6626 42.2463 31.0828 42.248C31.6459 42.2432 32.1857 42.0227 32.5911 41.632C32.9856 41.229 33.2065 40.6875 33.2065 40.1236C33.2065 39.5597 32.9856 39.0183 32.5911 38.6153C32.1845 38.2363 31.6493 38.0256 31.0934 38.0256C30.5375 38.0256 30.0023 38.2363 29.5957 38.6153Z" fill="#5063F4"/>
</g>
<defs>
<clipPath id="clip0_11284_103203">
<rect width="48" height="47" fill="white" transform="translate(6 7)"/>
</clipPath>
</defs>
</svg>
