<svg width="41" height="40" viewBox="0 0 41 40" fill="none" xmlns="http://www.w3.org/2000/svg">
<path d="M6.08813 14.9175C7.17396 10.2885 10.7883 6.67408 15.4174 5.58825C18.7604 4.80408 22.2396 4.80408 25.5826 5.58825C30.2117 6.67408 33.826 10.2885 34.9119 14.9175C35.696 18.2606 35.696 21.7397 34.9119 25.0827C33.826 29.7118 30.2117 33.3262 25.5826 34.412C22.2396 35.1962 18.7604 35.1962 15.4174 34.412C10.7884 33.3262 7.17396 29.7118 6.08813 25.0827C5.30396 21.7397 5.30396 18.2605 6.08813 14.9175Z" fill="#EFF2FE" stroke="#5063F4" stroke-width="1.35" stroke-linecap="round"/>
<path opacity="0.2" d="M28.625 20C28.625 20.9773 27.2328 21.7148 26.8531 22.632C26.4875 23.5164 26.9641 25.0266 26.2453 25.7453C25.5266 26.4641 24.0164 25.9875 23.132 26.3531C22.2188 26.7328 21.4766 28.125 20.5 28.125C19.5234 28.125 18.7812 26.7328 17.868 26.3531C16.9836 25.9875 15.4742 26.4641 14.7547 25.7453C14.0352 25.0266 14.5125 23.5164 14.1469 22.632C13.7672 21.7188 12.375 20.9766 12.375 20C12.375 19.0234 13.7672 18.2812 14.1469 17.368C14.5125 16.4844 14.0359 14.9734 14.7547 14.2547C15.4734 13.5359 16.9844 14.0125 17.868 13.6469C18.7852 13.2672 19.5234 11.875 20.5 11.875C21.4766 11.875 22.2188 13.2672 23.132 13.6469C24.0164 14.0125 25.5258 13.5359 26.2453 14.2547C26.9648 14.9734 26.4875 16.4836 26.8531 17.368C27.2328 18.2852 28.625 19.0234 28.625 20Z" fill="#5063F4"/>
<path d="M28.1453 18.0328C27.8508 17.725 27.5461 17.4078 27.4312 17.1289C27.325 16.8734 27.3187 16.45 27.3125 16.0398C27.3008 15.2773 27.2883 14.4133 26.6875 13.8125C26.0867 13.2117 25.2227 13.1992 24.4602 13.1875C24.05 13.1812 23.6266 13.175 23.3711 13.0687C23.093 12.9539 22.775 12.6492 22.4672 12.3547C21.9281 11.8367 21.3156 11.25 20.5 11.25C19.6844 11.25 19.0727 11.8367 18.5328 12.3547C18.225 12.6492 17.9078 12.9539 17.6289 13.0687C17.375 13.175 16.95 13.1812 16.5398 13.1875C15.7773 13.1992 14.9133 13.2117 14.3125 13.8125C13.7117 14.4133 13.7031 15.2773 13.6875 16.0398C13.6812 16.45 13.675 16.8734 13.5687 17.1289C13.4539 17.407 13.1492 17.725 12.8547 18.0328C12.3367 18.5727 11.75 19.1844 11.75 20C11.75 20.8156 12.3367 21.4273 12.8547 21.9672C13.1492 22.275 13.4539 22.5922 13.5687 22.8711C13.675 23.1266 13.6812 23.55 13.6875 23.9602C13.6992 24.7227 13.7117 25.5867 14.3125 26.1875C14.9133 26.7883 15.7773 26.8008 16.5398 26.8125C16.95 26.8187 17.3734 26.825 17.6289 26.9312C17.907 27.0461 18.225 27.3508 18.5328 27.6453C19.0719 28.1633 19.6844 28.75 20.5 28.75C21.3156 28.75 21.9273 28.1633 22.4672 27.6453C22.775 27.3508 23.0922 27.0461 23.3711 26.9312C23.6266 26.825 24.05 26.8187 24.4602 26.8125C25.2227 26.8008 26.0867 26.7883 26.6875 26.1875C27.2883 25.5867 27.3008 24.7227 27.3125 23.9602C27.3187 23.55 27.325 23.1266 27.4312 22.8711C27.5461 22.593 27.8508 22.275 28.1453 21.9672C28.6633 21.4273 29.25 20.8156 29.25 20C29.25 19.1844 28.6633 18.5727 28.1453 18.0328ZM27.243 21.1023C26.8687 21.493 26.4812 21.8969 26.2758 22.393C26.0789 22.8695 26.0703 23.4141 26.0625 23.9414C26.0547 24.4883 26.0461 25.0609 25.8031 25.3031C25.5602 25.5453 24.9914 25.5547 24.4414 25.5625C23.9141 25.5703 23.3695 25.5789 22.893 25.7758C22.3969 25.9812 21.993 26.3687 21.6023 26.743C21.2117 27.1172 20.8125 27.5 20.5 27.5C20.1875 27.5 19.7852 27.1156 19.3977 26.743C19.0102 26.3703 18.6031 25.9812 18.107 25.7758C17.6305 25.5789 17.0859 25.5703 16.5586 25.5625C16.0117 25.5547 15.4391 25.5461 15.1969 25.3031C14.9547 25.0602 14.9453 24.4914 14.9375 23.9414C14.9297 23.4141 14.9211 22.8695 14.7242 22.393C14.5187 21.8969 14.1312 21.493 13.757 21.1023C13.3828 20.7117 13 20.3125 13 20C13 19.6875 13.3844 19.2859 13.757 18.8977C14.1297 18.5094 14.5187 18.1031 14.7242 17.607C14.9211 17.1305 14.9297 16.5859 14.9375 16.0586C14.9453 15.5117 14.9539 14.9391 15.1969 14.6969C15.4398 14.4547 16.0086 14.4453 16.5586 14.4375C17.0859 14.4297 17.6305 14.4211 18.107 14.2242C18.6031 14.0187 19.007 13.6312 19.3977 13.257C19.7883 12.8828 20.1875 12.5 20.5 12.5C20.8125 12.5 21.2148 12.8844 21.6023 13.257C21.9898 13.6297 22.3969 14.0187 22.893 14.2242C23.3695 14.4211 23.9141 14.4297 24.4414 14.4375C24.9883 14.4453 25.5609 14.4539 25.8031 14.6969C26.0453 14.9398 26.0547 15.5086 26.0625 16.0586C26.0703 16.5859 26.0789 17.1305 26.2758 17.607C26.4812 18.1031 26.8687 18.507 27.243 18.8977C27.6172 19.2883 28 19.6875 28 20C28 20.3125 27.6156 20.7141 27.243 21.1023ZM19.875 17.5C19.875 17.1292 19.765 16.7666 19.559 16.4583C19.353 16.15 19.0601 15.9096 18.7175 15.7677C18.3749 15.6258 17.9979 15.5887 17.6342 15.661C17.2705 15.7334 16.9364 15.912 16.6742 16.1742C16.412 16.4364 16.2334 16.7705 16.161 17.1342C16.0887 17.4979 16.1258 17.8749 16.2677 18.2175C16.4096 18.5601 16.65 18.853 16.9583 19.059C17.2666 19.265 17.6292 19.375 18 19.375C18.4973 19.375 18.9742 19.1775 19.3258 18.8258C19.6775 18.4742 19.875 17.9973 19.875 17.5ZM17.375 17.5C17.375 17.3764 17.4117 17.2555 17.4803 17.1528C17.549 17.05 17.6466 16.9699 17.7608 16.9226C17.875 16.8753 18.0007 16.8629 18.1219 16.887C18.2432 16.9111 18.3545 16.9707 18.4419 17.0581C18.5293 17.1455 18.5889 17.2568 18.613 17.3781C18.6371 17.4993 18.6247 17.625 18.5774 17.7392C18.5301 17.8534 18.45 17.951 18.3472 18.0197C18.2445 18.0883 18.1236 18.125 18 18.125C17.8342 18.125 17.6753 18.0592 17.5581 17.9419C17.4408 17.8247 17.375 17.6658 17.375 17.5ZM23 20.625C22.6292 20.625 22.2666 20.735 21.9583 20.941C21.65 21.147 21.4096 21.4399 21.2677 21.7825C21.1258 22.1251 21.0887 22.5021 21.161 22.8658C21.2334 23.2295 21.412 23.5636 21.6742 23.8258C21.9364 24.088 22.2705 24.2666 22.6342 24.339C22.9979 24.4113 23.3749 24.3742 23.7175 24.2323C24.0601 24.0904 24.353 23.85 24.559 23.5417C24.765 23.2334 24.875 22.8708 24.875 22.5C24.875 22.0027 24.6775 21.5258 24.3258 21.1742C23.9742 20.8225 23.4973 20.625 23 20.625ZM23 23.125C22.8764 23.125 22.7555 23.0883 22.6528 23.0197C22.55 22.951 22.4699 22.8534 22.4226 22.7392C22.3753 22.625 22.3629 22.4993 22.387 22.3781C22.4111 22.2568 22.4706 22.1455 22.5581 22.0581C22.6455 21.9706 22.7568 21.9111 22.8781 21.887C22.9993 21.8629 23.125 21.8753 23.2392 21.9226C23.3534 21.9699 23.451 22.05 23.5197 22.1528C23.5883 22.2555 23.625 22.3764 23.625 22.5C23.625 22.6658 23.5592 22.8247 23.4419 22.9419C23.3247 23.0592 23.1658 23.125 23 23.125ZM24.0672 17.3172L17.8172 23.5672C17.7591 23.6253 17.6902 23.6713 17.6143 23.7027C17.5384 23.7342 17.4571 23.7503 17.375 23.7503C17.2929 23.7503 17.2116 23.7342 17.1357 23.7027C17.0598 23.6713 16.9909 23.6253 16.9328 23.5672C16.8747 23.5091 16.8287 23.4402 16.7973 23.3643C16.7658 23.2884 16.7497 23.2071 16.7497 23.125C16.7497 23.0429 16.7658 22.9616 16.7973 22.8857C16.8287 22.8098 16.8747 22.7409 16.9328 22.6828L23.1828 16.4328C23.2409 16.3747 23.3098 16.3287 23.3857 16.2973C23.4616 16.2658 23.5429 16.2497 23.625 16.2497C23.7071 16.2497 23.7884 16.2658 23.8643 16.2973C23.9402 16.3287 24.0091 16.3747 24.0672 16.4328C24.1253 16.4909 24.1713 16.5598 24.2027 16.6357C24.2342 16.7116 24.2503 16.7929 24.2503 16.875C24.2503 16.9571 24.2342 17.0384 24.2027 17.1143C24.1713 17.1902 24.1253 17.2591 24.0672 17.3172Z" fill="#5063F4"/>
</svg>
