<svg width="30" height="31" viewBox="0 0 30 31" fill="none" xmlns="http://www.w3.org/2000/svg">
<path d="M4.4411 11.438C5.25547 7.96626 7.96626 5.25546 11.438 4.4411C13.9453 3.85297 16.5547 3.85297 19.062 4.4411C22.5337 5.25547 25.2445 7.96626 26.0589 11.438C26.647 13.9453 26.647 16.5547 26.0589 19.062C25.2445 22.5337 22.5337 25.2445 19.062 26.0589C16.5547 26.647 13.9453 26.647 11.438 26.0589C7.96626 25.2445 5.25547 22.5337 4.4411 19.062C3.85297 16.5547 3.85297 13.9453 4.4411 11.438Z" fill="#F8FAFF" fill-opacity="0.15" stroke="#F8FAFF" stroke-width="1.35" stroke-linecap="round"/>
<g clip-path="url(#clip0_15317_6854)">
<path fill-rule="evenodd" clip-rule="evenodd" d="M14.2843 10.5725L10.0231 14.8329C9.85992 14.996 9.76784 15.2171 9.76686 15.4478C9.76587 15.6785 9.85607 15.9003 10.0178 16.0649L13.8416 19.9586C14.0043 20.1241 14.226 20.2181 14.458 20.2201C14.69 20.222 14.9133 20.1318 15.0788 19.9691L19.4188 15.7096C19.5434 15.5876 19.6423 15.4419 19.7099 15.2811C19.7775 15.1204 19.8124 14.9478 19.8126 14.7734V11.0625C19.8126 10.8304 19.7204 10.6079 19.5563 10.4438C19.3922 10.2797 19.1696 10.1875 18.9376 10.1875H15.2127C15.0402 10.1875 14.8695 10.2216 14.7102 10.2876C14.5509 10.3537 14.4062 10.4505 14.2843 10.5725ZM20.3393 16.6467C20.5882 16.4024 20.7858 16.1108 20.9208 15.7892C21.0557 15.4675 21.1251 15.1222 21.1251 14.7734V11.0625C21.1251 10.4823 20.8946 9.92594 20.4844 9.5157C20.0741 9.10547 19.5177 8.875 18.9376 8.875H15.2127C14.8678 8.87496 14.5264 8.94286 14.2078 9.07483C13.8892 9.2068 13.5997 9.40025 13.3559 9.64412L9.09468 13.9054C8.6871 14.3133 8.45707 14.8656 8.45461 15.4422C8.45215 16.0189 8.67747 16.5731 9.08156 16.9845L12.9053 20.8783C13.3118 21.2921 13.866 21.5275 14.4461 21.5328C15.0261 21.538 15.5845 21.3127 15.9984 20.9062L20.3393 16.6467ZM17.0843 11.9883C16.8083 11.8102 16.4958 11.6965 16.1699 11.6558C15.9118 11.6257 15.6503 11.655 15.4052 11.7415C15.1602 11.8279 14.9381 11.9692 14.7559 12.1545C14.2834 12.627 14.2659 13.2308 14.3736 13.7006C14.4777 14.1609 14.7183 14.601 14.9309 14.9344C15.1532 15.2844 15.3334 15.5749 15.4113 15.8383C15.4752 16.0561 15.4428 16.1463 15.3483 16.2408C15.2853 16.3038 15.1891 16.3493 14.9834 16.2985C14.7621 16.2425 14.4856 16.0824 14.2353 15.8321C14.0277 15.6203 13.8853 15.3534 13.8249 15.063C13.7646 14.7751 13.8048 14.5642 13.8547 14.468C13.8965 14.3914 13.9226 14.3073 13.9315 14.2205C13.9404 14.1337 13.9319 14.046 13.9065 13.9625C13.8812 13.879 13.8394 13.8014 13.7836 13.7343C13.7279 13.6672 13.6593 13.6118 13.582 13.5715C13.5046 13.5312 13.4199 13.5067 13.333 13.4995C13.246 13.4923 13.1585 13.5025 13.0755 13.5295C12.9926 13.5565 12.9158 13.5998 12.8498 13.6568C12.7837 13.7138 12.7297 13.7835 12.6909 13.8616C12.4608 14.3044 12.4381 14.846 12.5404 15.3334C12.6017 15.6239 12.7119 15.9196 12.8747 16.1979L12.6533 16.4184C12.5337 16.5421 12.4675 16.7078 12.4689 16.8799C12.4703 17.052 12.5392 17.2166 12.6609 17.3383C12.7825 17.4601 12.947 17.5292 13.1191 17.5307C13.2912 17.5323 13.457 17.4662 13.5808 17.3468L13.7751 17.1534C14.044 17.3459 14.3459 17.4877 14.6658 17.5716C15.1908 17.7029 15.8042 17.6407 16.2758 17.1691C16.8113 16.6336 16.8236 15.9914 16.6704 15.469C16.5366 15.0123 16.2574 14.5747 16.0632 14.2702L16.0378 14.23C15.8514 13.9377 15.7071 13.649 15.6528 13.4101C15.6003 13.1818 15.6511 13.1153 15.6843 13.0829C15.7274 13.0363 15.7811 13.0009 15.8408 12.9796C15.9005 12.9583 15.9645 12.9517 16.0273 12.9604C16.1778 12.9779 16.4167 13.0706 16.7072 13.3602C16.9959 13.649 17.0983 13.8853 17.1289 14.0515C17.1577 14.2035 17.1372 14.3608 17.0703 14.5004C17.0314 14.579 17.0086 14.6647 17.0033 14.7523C16.998 14.8398 17.0104 14.9276 17.0396 15.0104C17.0689 15.0931 17.1144 15.1691 17.1735 15.234C17.2327 15.2988 17.3042 15.3511 17.3839 15.3878C17.4637 15.4245 17.5499 15.4448 17.6376 15.4476C17.7253 15.4504 17.8127 15.4355 17.8946 15.4039C17.9765 15.3723 18.0512 15.3247 18.1143 15.2637C18.1774 15.2027 18.2276 15.1297 18.2621 15.049C18.4196 14.706 18.5079 14.2799 18.4187 13.8065C18.3539 13.4802 18.2209 13.1713 18.0284 12.9L18.2218 12.7066C18.2863 12.6465 18.338 12.5741 18.3739 12.4936C18.4097 12.4131 18.429 12.3262 18.4306 12.2381C18.4321 12.15 18.4159 12.0624 18.3829 11.9807C18.3499 11.899 18.3008 11.8248 18.2385 11.7625C18.1762 11.7002 18.1019 11.651 18.0202 11.618C17.9385 11.585 17.851 11.5688 17.7629 11.5704C17.6747 11.5719 17.5878 11.5912 17.5073 11.6271C17.4268 11.6629 17.3544 11.7146 17.2943 11.7791L17.0843 11.9883Z" fill="white"/>
</g>
<defs>
<clipPath id="clip0_15317_6854">
<rect width="14" height="14" fill="white" transform="translate(8 8)"/>
</clipPath>
</defs>
</svg>
