<svg width="40" height="40" viewBox="0 0 40 40" fill="none" xmlns="http://www.w3.org/2000/svg">
<g id="Promo">
<path id="Vector" d="M5.58813 14.9174C6.67396 10.2883 10.2883 6.67395 14.9174 5.58813C18.2604 4.80396 21.7396 4.80396 25.0826 5.58813C29.7117 6.67395 33.3261 10.2884 34.4119 14.9174C35.196 18.2604 35.196 21.7396 34.4119 25.0826C33.3261 29.7117 29.7117 33.3261 25.0826 34.4119C21.7396 35.1961 18.2604 35.1961 14.9174 34.4119C10.2884 33.3261 6.67396 29.7117 5.58813 25.0826C4.80396 21.7396 4.80396 18.2604 5.58813 14.9174Z" fill="#EFF2FE" stroke="#5063F4" stroke-width="1.35"/>
<path id="Vector_2" d="M25.699 13H14.411C13.6349 13 13.0071 13.6349 13.0071 14.411L13 27.11L15.822 24.288H25.699C26.475 24.288 27.11 23.6531 27.11 22.877V14.411C27.11 13.6349 26.475 13 25.699 13ZM25.699 22.877H15.2364L14.8202 23.2932L14.411 23.7024V14.411H25.699V22.877ZM18.9967 21.466H24.288V20.055H20.4078L18.9967 21.466ZM21.72 17.3247C21.8611 17.1836 21.8611 16.9649 21.72 16.8238L20.4712 15.5751C20.3301 15.434 20.1114 15.434 19.9703 15.5751L15.822 19.7234V21.466H17.5646L21.72 17.3247Z" fill="#5063F4"/>
</g>
</svg>
