<svg width="30" height="31" viewBox="0 0 30 31" fill="none" xmlns="http://www.w3.org/2000/svg">
<g id="COCO/Duotone/Chart">
<path id="Vector" d="M19.4444 14.4888H16.6666V11.711C16.6666 11.3427 16.5203 10.9894 16.2598 10.7289C15.9993 10.4685 15.6461 10.3221 15.2777 10.3221C14.9094 10.3221 14.5561 10.4685 14.2956 10.7289C14.0352 10.9894 13.8888 11.3427 13.8888 11.711L13.9381 14.4888H11.1111C10.7427 14.4888 10.3894 14.6351 10.129 14.8956C9.8685 15.1561 9.72217 15.5093 9.72217 15.8777C9.72217 16.2461 9.8685 16.5993 10.129 16.8598C10.3894 17.1203 10.7427 17.2666 11.1111 17.2666L13.9381 17.2173L13.8888 20.0444C13.8888 20.4127 14.0352 20.766 14.2956 21.0265C14.5561 21.2869 14.9094 21.4333 15.2777 21.4333C15.6461 21.4333 15.9993 21.2869 16.2598 21.0265C16.5203 20.766 16.6666 20.4127 16.6666 20.0444V17.2173L19.4444 17.2666C19.8127 17.2666 20.166 17.1203 20.4265 16.8598C20.6869 16.5993 20.8333 16.2461 20.8333 15.8777C20.8333 15.5093 20.6869 15.1561 20.4265 14.8956C20.166 14.6351 19.8127 14.4888 19.4444 14.4888Z" fill="#F8FAFF"/>
<path id="Vector_2" d="M4.1911 11.788C5.00547 8.31623 7.71626 5.60544 11.188 4.79107C13.6953 4.20294 16.3047 4.20294 18.812 4.79107C22.2837 5.60544 24.9945 8.31624 25.8089 11.788C26.397 14.2953 26.397 16.9047 25.8089 19.4119C24.9945 22.8837 22.2837 25.5945 18.812 26.4089C16.3047 26.997 13.6953 26.997 11.188 26.4089C7.71626 25.5945 5.00547 22.8837 4.1911 19.4119C3.60297 16.9047 3.60297 14.2953 4.1911 11.788Z" fill="#F8FAFF" fill-opacity="0.15" stroke="#F8FAFF" stroke-width="1.35" stroke-linecap="round"/>
</g>
</svg>
