<svg width="60" height="60" viewBox="0 0 60 60" fill="none" xmlns="http://www.w3.org/2000/svg">
<path d="M9.38219 22.8761C11.0109 15.9325 16.4325 10.5109 23.3761 8.88219C28.3906 7.70594 33.6094 7.70594 38.6239 8.88219C45.5675 10.5109 50.9891 15.9325 52.6178 22.8761C53.7941 27.8906 53.7941 33.1094 52.6178 38.1239C50.9891 45.0675 45.5675 50.4891 38.6239 52.1178C33.6094 53.2941 28.3906 53.2941 23.3761 52.1178C16.4325 50.4891 11.0109 45.0675 9.38219 38.1239C8.20594 33.1094 8.20594 27.8906 9.38219 22.8761Z" fill="#EFF2FE" stroke="#5063F4" stroke-width="1.35"/>
<path fill-rule="evenodd" clip-rule="evenodd" d="M19.204 24.6367C19.4093 24.4156 19.6974 24.29 19.9991 24.29H41.4991C41.8008 24.29 42.0888 24.4156 42.2941 24.6367C42.4994 24.8578 42.6034 25.1543 42.5811 25.4552L41.3867 41.5802C41.3447 42.1468 40.8728 42.585 40.3046 42.585H21.1935C20.6254 42.585 20.1534 42.1468 20.1115 41.5802L18.917 25.4552C18.8947 25.1543 18.9987 24.8578 19.204 24.6367ZM21.1674 26.46L22.2011 40.415H39.297L40.3307 26.46H21.1674Z" fill="#5063F4"/>
<path fill-rule="evenodd" clip-rule="evenodd" d="M24.8867 20C24.8867 19.4008 25.3725 18.915 25.9717 18.915H35.5273C36.1265 18.915 36.6123 19.4008 36.6123 20V27.7639C36.6123 28.3632 36.1265 28.8489 35.5273 28.8489C34.928 28.8489 34.4423 28.3632 34.4423 27.7639V21.085H27.0567V27.7639C27.0567 28.3632 26.5709 28.8489 25.9717 28.8489C25.3725 28.8489 24.8867 28.3632 24.8867 27.7639V20Z" fill="#5063F4"/>
<path fill-rule="evenodd" clip-rule="evenodd" d="M24.8867 36.7242C24.8867 36.1249 25.3725 35.6392 25.9717 35.6392H35.5273C36.1265 35.6392 36.6123 36.1249 36.6123 36.7242C36.6123 37.3234 36.1265 37.8092 35.5273 37.8092H25.9717C25.3725 37.8092 24.8867 37.3234 24.8867 36.7242Z" fill="#5063F4"/>
</svg>
