<svg width="25" height="26" viewBox="0 0 25 26" fill="none" xmlns="http://www.w3.org/2000/svg">
<g id="COCO/Duotone/Setting - 4" clip-path="url(#clip0_1620_56180)">
<path id="Vector" d="M1.4411 9.43804C2.25547 5.96626 4.96626 3.25546 8.43804 2.4411C10.9453 1.85297 13.5547 1.85297 16.062 2.4411C19.5337 3.25547 22.2445 5.96626 23.0589 9.43805C23.647 11.9453 23.647 14.5547 23.0589 17.062C22.2445 20.5337 19.5337 23.2445 16.062 24.0589C13.5547 24.647 10.9453 24.647 8.43804 24.0589C4.96626 23.2445 2.25547 20.5337 1.4411 17.062C0.852968 14.5547 0.852968 11.9453 1.4411 9.43804Z" fill="#FDFDFD" stroke="#5063F4" stroke-width="1.35" stroke-linecap="round"/>
<g id="Group">
<path id="Vector_2" d="M17.5 13.4167V12.25C17.5 9.35054 15.1495 7 12.25 7C9.35054 7 7 9.35054 7 12.25V13.4167" stroke="#5063F4" stroke-width="1.16667" stroke-linecap="round" stroke-linejoin="round"/>
<path id="Vector_3" d="M14.5832 13.7083V9.33333C14.5832 8.71449 14.3373 8.121 13.8998 7.68342C13.4622 7.24583 12.8687 7 12.2498 7C11.631 7 11.0375 7.24583 10.5999 7.68342C10.1623 8.121 9.9165 8.71449 9.9165 9.33333V13.7083" stroke="#5063F4" stroke-width="1.16667" stroke-linecap="round" stroke-linejoin="round"/>
<path id="Vector_4" d="M12.25 12.833V16.9163C12.25 17.3805 12.4344 17.8256 12.7626 18.1538C13.0908 18.482 13.5359 18.6663 14 18.6663C14.4641 18.6663 14.9092 18.482 15.2374 18.1538C15.5656 17.8256 15.75 17.3805 15.75 16.9163V16.0737M8.75 12.833H17.5" stroke="#5063F4" stroke-width="1.16667" stroke-linecap="round" stroke-linejoin="round"/>
</g>
</g>
<defs>
<clipPath id="clip0_1620_56180">
<rect width="25" height="25" fill="white" transform="translate(0 0.5)"/>
</clipPath>
</defs>
</svg>
