<svg width="40" height="40" viewBox="0 0 40 40" fill="none" xmlns="http://www.w3.org/2000/svg">
<g id="COCO/Duotone/Setting - 3">
<path id="Vector" d="M5.58813 15.2875C6.67396 10.6585 10.2883 7.04407 14.9174 5.95825C18.2604 5.17408 21.7396 5.17407 25.0826 5.95824C29.7117 7.04407 33.326 10.6585 34.4119 15.2875C35.196 18.6305 35.196 22.1097 34.4119 25.4527C33.326 30.0818 29.7117 33.6962 25.0826 34.782C21.7396 35.5662 18.2604 35.5662 14.9174 34.782C10.2884 33.6962 6.67396 30.0818 5.58813 25.4527C4.80396 22.1097 4.80396 18.6305 5.58813 15.2875Z" fill="#EFF2FE" stroke="#5063F4" stroke-width="1.35" stroke-linecap="round"/>
<g id="Group">
<path id="Vector_2" d="M26.2949 28.3217H14.7049C14.3219 28.3241 13.9427 28.2453 13.5923 28.0906C13.2419 27.9359 12.9282 27.7088 12.6718 27.4243C12.4154 27.1397 12.2222 26.8041 12.1048 26.4395C11.9874 26.0749 11.9485 25.6896 11.9906 25.3089L12.8999 17.3153C12.9368 16.9818 13.0959 16.6738 13.3465 16.4508C13.5972 16.2277 13.9215 16.1054 14.257 16.1074H26.7427C27.0782 16.1054 27.4026 16.2277 27.6532 16.4508C27.9039 16.6738 28.063 16.9818 28.0999 17.3153L28.982 25.3089C29.0239 25.6873 28.9857 26.0703 28.8699 26.433C28.7541 26.7957 28.5633 27.13 28.3099 27.4141C28.0564 27.6983 27.7461 27.9259 27.3989 28.0823C27.0518 28.2387 26.6756 28.3202 26.2949 28.3217Z" stroke="#5063F4" stroke-width="1.35714" stroke-linecap="round" stroke-linejoin="round"/>
<path id="Vector_3" d="M15.0713 16.1073C15.0713 14.6675 15.6432 13.2868 16.6613 12.2687C17.6793 11.2506 19.0601 10.6787 20.4999 10.6787C21.9396 10.6787 23.3204 11.2506 24.3384 12.2687C25.3565 13.2868 25.9284 14.6675 25.9284 16.1073M17.107 20.1787H23.8927" stroke="#5063F4" stroke-width="1.35714" stroke-linecap="round" stroke-linejoin="round"/>
</g>
</g>
</svg>
