<svg width="41" height="41" viewBox="0 0 41 41" fill="none" xmlns="http://www.w3.org/2000/svg">
<g id="COCO/Duotone/Setting - 3">
<path id="Vector" d="M5.61938 15.9174C6.70521 11.2883 10.3196 7.67395 14.9486 6.58813C18.2917 5.80396 21.7708 5.80396 25.1139 6.58813C29.7429 7.67395 33.3573 11.2883 34.4431 15.9174C35.2273 19.2604 35.2273 22.7396 34.4431 26.0826C33.3573 30.7117 29.7429 34.326 25.1139 35.4119C21.7708 36.196 18.2917 36.196 14.9486 35.4119C10.3196 34.326 6.70521 30.7117 5.61938 26.0826C4.83521 22.7396 4.83521 19.2604 5.61938 15.9174Z" stroke="#5063F4" stroke-linecap="round"/>
<path id="Vector_2" d="M13.0312 20.5H15.5312M20.5312 13V15.5M17.0313 17L15.1979 15.1667M24.0313 17L25.8646 15.1667M17.0313 24L15.1979 25.8333M20.5312 20.5L28.0312 23L24.6979 24.6667L23.0312 28L20.5312 20.5Z" stroke="#5063F4" stroke-width="1.66667" stroke-linecap="round" stroke-linejoin="round"/>
</g>
</svg>
