<svg width="25" height="26" viewBox="0 0 25 26" fill="none" xmlns="http://www.w3.org/2000/svg">
<g clip-path="url(#clip0_1620_56189)">
<path d="M1.4411 9.43804C2.25547 5.96626 4.96626 3.25546 8.43804 2.4411C10.9453 1.85297 13.5547 1.85297 16.062 2.4411C19.5337 3.25547 22.2445 5.96626 23.0589 9.43805C23.647 11.9453 23.647 14.5547 23.0589 17.062C22.2445 20.5337 19.5337 23.2445 16.062 24.0589C13.5547 24.647 10.9453 24.647 8.43804 24.0589C4.96626 23.2445 2.25547 20.5337 1.4411 17.062C0.852968 14.5547 0.852968 11.9453 1.4411 9.43804Z" fill="#FDFDFD" stroke="#5063F4" stroke-width="1.35" stroke-linecap="round"/>
<path d="M7.75524 19.2463C7.87232 19.4744 8.05038 19.6657 8.26961 19.7987C8.48885 19.9318 8.74068 20.0014 8.99713 20H14.9123C15.1688 20.0014 15.4206 19.9318 15.6398 19.7987C15.8591 19.6657 16.0371 19.4744 16.1542 19.2463C16.6711 18.3607 16.9321 17.3491 16.9079 16.324C16.733 14.1154 15.3739 12.299 14.4644 11.3454H14.5002C14.7365 11.3454 14.9631 11.2516 15.1301 11.0845C15.2972 10.9174 15.3911 10.6908 15.3911 10.4545C15.3911 10.2183 15.2972 9.99165 15.1301 9.82457C14.9631 9.65749 14.7365 9.56363 14.5002 9.56363H14.1732C14.5551 8.95126 15.1254 8.02119 15.3508 7.57077C15.3874 7.49769 15.3995 7.41481 15.3854 7.33432C15.3714 7.25383 15.3319 7.17996 15.2728 7.12358C14.1497 6.05419 12.3117 6 11.9547 6C10.7634 6.04519 9.61088 6.43544 8.63719 7.12333C8.57422 7.18307 8.5335 7.26249 8.52175 7.34849C8.51 7.43449 8.52792 7.52193 8.57256 7.59637L9.75294 9.56363H9.40927C9.17299 9.56363 8.94638 9.65749 8.77931 9.82457C8.61223 9.99165 8.51837 10.2183 8.51837 10.4545C8.51837 10.6908 8.61223 10.9174 8.77931 11.0845C8.94638 11.2516 9.17299 11.3454 9.40927 11.3454H9.44507C8.53552 12.299 7.17641 14.1154 7.00154 16.324C6.97738 17.3491 7.23831 18.3608 7.75524 19.2463ZM9.41325 7.5131C10.1885 7.06419 11.0599 6.80722 11.9547 6.76364C12.8646 6.75335 13.7581 7.00637 14.5275 7.49222C14.1815 8.11292 13.5322 9.15099 13.2717 9.56363H10.6437L9.41325 7.5131ZM9.282 10.4545C9.28207 10.4208 9.2955 10.3885 9.31935 10.3646C9.3432 10.3408 9.37554 10.3273 9.40927 10.3273H14.5002C14.5339 10.3273 14.5663 10.3407 14.5902 10.3645C14.614 10.3884 14.6274 10.4208 14.6274 10.4545C14.6274 10.4883 14.614 10.5207 14.5902 10.5445C14.5663 10.5684 14.5339 10.5818 14.5002 10.5818H9.40927C9.37554 10.5817 9.3432 10.5683 9.31935 10.5445C9.2955 10.5206 9.28207 10.4883 9.282 10.4545ZM10.5453 11.3454H13.3642C13.8439 11.7208 15.9394 13.7664 16.1463 16.3841C16.157 17.2677 15.9249 18.1372 15.4751 18.8978C15.4217 19.0007 15.3408 19.0868 15.2415 19.1466C15.1422 19.2063 15.0282 19.2374 14.9123 19.2363H8.99713C8.88121 19.2374 8.76727 19.2063 8.66794 19.1466C8.5686 19.0868 8.48776 19.0007 8.43437 18.8978C7.9846 18.1372 7.75243 17.2677 7.7632 16.3842C7.97 13.7664 10.0655 11.7208 10.5453 11.3454Z" fill="#5063F4"/>
<path d="M11.1152 16.3094C11.1152 16.2081 11.075 16.111 11.0034 16.0394C10.9318 15.9678 10.8346 15.9276 10.7334 15.9276C10.6321 15.9276 10.535 15.9678 10.4634 16.0394C10.3918 16.111 10.3516 16.2081 10.3516 16.3094C10.3696 16.641 10.5008 16.9563 10.7231 17.203C10.9455 17.4496 11.2456 17.6126 11.5736 17.6649V18.0912C11.5736 18.1924 11.6138 18.2896 11.6854 18.3612C11.757 18.4328 11.8541 18.473 11.9554 18.473C12.0567 18.473 12.1538 18.4328 12.2254 18.3612C12.297 18.2896 12.3372 18.1924 12.3372 18.0912V17.6649C12.6652 17.6126 12.9653 17.4496 13.1877 17.203C13.41 16.9563 13.5412 16.641 13.5592 16.3094C13.5412 15.9778 13.41 15.6624 13.1877 15.4157C12.9653 15.1691 12.6652 15.0061 12.3372 14.9539V13.7119C12.4606 13.7495 12.5701 13.8229 12.6517 13.9228C12.7333 14.0227 12.7834 14.1446 12.7956 14.273C12.7956 14.3743 12.8358 14.4714 12.9074 14.543C12.979 14.6146 13.0761 14.6548 13.1774 14.6548C13.2787 14.6548 13.3758 14.6146 13.4474 14.543C13.519 14.4714 13.5592 14.3743 13.5592 14.273C13.5412 13.9414 13.41 13.626 13.1877 13.3794C12.9653 13.1327 12.6652 12.9697 12.3372 12.9175V12.4912C12.3372 12.3899 12.297 12.2928 12.2254 12.2212C12.1538 12.1496 12.0567 12.1094 11.9554 12.1094C11.8541 12.1094 11.757 12.1496 11.6854 12.2212C11.6138 12.2928 11.5736 12.3899 11.5736 12.4912V12.9175C11.2456 12.9697 10.9455 13.1327 10.7231 13.3794C10.5008 13.626 10.3696 13.9414 10.3516 14.273C10.3696 14.6046 10.5008 14.92 10.7231 15.1666C10.9455 15.4133 11.2456 15.5763 11.5736 15.6285V16.8704C11.4502 16.8329 11.3407 16.7595 11.2591 16.6596C11.1775 16.5597 11.1274 16.4378 11.1152 16.3094ZM12.7956 16.3094C12.7834 16.4378 12.7333 16.5597 12.6517 16.6596C12.5701 16.7595 12.4606 16.8329 12.3372 16.8704V15.7483C12.4606 15.7858 12.5701 15.8592 12.6517 15.9591C12.7333 16.059 12.7834 16.1809 12.7956 16.3094ZM11.1152 14.273C11.1274 14.1446 11.1775 14.0227 11.2591 13.9228C11.3407 13.8229 11.4502 13.7495 11.5736 13.7119V14.834C11.4502 14.7965 11.3407 14.7231 11.2591 14.6232C11.1775 14.5233 11.1274 14.4014 11.1152 14.273Z" fill="#5063F4"/>
</g>
<defs>
<clipPath id="clip0_1620_56189">
<rect width="25" height="25" fill="white" transform="translate(0 0.5)"/>
</clipPath>
</defs>
</svg>
