<svg width="25" height="25" viewBox="0 0 25 25" fill="none" xmlns="http://www.w3.org/2000/svg">
<g id="COCO/Duotone/Setting - 5" clip-path="url(#clip0_1620_56219)">
<path id="Vector" d="M1.4411 8.43804C2.25547 4.96626 4.96626 2.25546 8.43804 1.4411C10.9453 0.852968 13.5547 0.852968 16.062 1.4411C19.5337 2.25547 22.2445 4.96626 23.0589 8.43805C23.647 10.9453 23.647 13.5547 23.0589 16.062C22.2445 19.5337 19.5337 22.2445 16.062 23.0589C13.5547 23.647 10.9453 23.647 8.43804 23.0589C4.96626 22.2445 2.25547 19.5337 1.4411 16.062C0.852968 13.5547 0.852968 10.9453 1.4411 8.43804Z" fill="#FDFDFD" stroke="#5063F4" stroke-width="1.35" stroke-linecap="round"/>
<path id="Vector_2" d="M7.625 6.3125V17.6875H14.625V16.8125H8.5V7.1875H12.875V9.8125H15.5V10.6875H16.375V9.2L16.2438 9.06875L13.6188 6.44375L13.4875 6.3125H7.625ZM13.75 7.8L14.8875 8.9375H13.75V7.8ZM9.375 10.6875V11.5625H14.625V10.6875H9.375ZM16.8125 11.5625V12.4375C16.0688 12.5687 15.5 13.1813 15.5 13.9688C15.5 14.8438 16.1562 15.5 17.0312 15.5H17.4688C17.8188 15.5 18.125 15.8062 18.125 16.1562C18.125 16.5063 17.8188 16.8125 17.4688 16.8125H15.9375V17.6875H16.8125V18.5625H17.6875V17.6875C18.4312 17.5562 19 16.9438 19 16.1562C19 15.2812 18.3438 14.625 17.4688 14.625H17.0312C16.6812 14.625 16.375 14.3188 16.375 13.9688C16.375 13.6188 16.6812 13.3125 17.0312 13.3125H18.5625V12.4375H17.6875V11.5625H16.8125ZM9.375 12.875V13.75H12.4375V12.875H9.375ZM13.3125 12.875V13.75H14.625V12.875H13.3125ZM9.375 14.625V15.5H12.4375V14.625H9.375ZM13.3125 14.625V15.5H14.625V14.625H13.3125Z" fill="#5063F4"/>
</g>
<defs>
<clipPath id="clip0_1620_56219">
<rect width="25" height="25" fill="white"/>
</clipPath>
</defs>
</svg>
