<svg width="25" height="25" viewBox="0 0 25 25" fill="none" xmlns="http://www.w3.org/2000/svg">
<g id="COCO/Duotone/Setting - 3" clip-path="url(#clip0_1620_56206)">
<path id="Vector" d="M1.4411 8.43804C2.25547 4.96626 4.96626 2.25546 8.43804 1.4411C10.9453 0.852968 13.5547 0.852968 16.062 1.4411C19.5337 2.25547 22.2445 4.96626 23.0589 8.43805C23.647 10.9453 23.647 13.5547 23.0589 16.062C22.2445 19.5337 19.5337 22.2445 16.062 23.0589C13.5547 23.647 10.9453 23.647 8.43804 23.0589C4.96626 22.2445 2.25547 19.5337 1.4411 16.062C0.852968 13.5547 0.852968 10.9453 1.4411 8.43804Z" fill="#FDFDFD" stroke="#5063F4" stroke-width="1.35" stroke-linecap="round"/>
<path id="Vector_2" d="M17.0625 8.74912C17.0623 8.42185 16.9704 8.10118 16.7971 7.82353C16.6239 7.54589 16.3762 7.32239 16.0823 7.17842C15.7884 7.03445 15.46 6.97579 15.1345 7.00908C14.8089 7.04237 14.4992 7.1663 14.2405 7.36677C13.9818 7.56725 13.7845 7.83625 13.6711 8.14322C13.5576 8.45019 13.5325 8.78283 13.5985 9.10336C13.6646 9.42389 13.8193 9.71946 14.0449 9.95652C14.2705 10.1936 14.5581 10.3626 14.875 10.4444V10.9366C14.875 11.1687 14.7828 11.3912 14.6187 11.5553C14.4546 11.7194 14.2321 11.8116 14 11.8116H10.0625C9.7551 11.8112 9.45312 11.8926 9.1875 12.0473V10.4444C9.59992 10.3379 9.95934 10.0847 10.1984 9.73218C10.4374 9.37965 10.5397 8.95204 10.4861 8.52949C10.4324 8.10695 10.2265 7.71849 9.90686 7.43692C9.58726 7.15535 9.17594 7 8.75 7C8.32407 7 7.91275 7.15535 7.59315 7.43692C7.27356 7.71849 7.06762 8.10695 7.01395 8.52949C6.96028 8.95204 7.06256 9.37965 7.30162 9.73218C7.54067 10.0847 7.90009 10.3379 8.3125 10.4444V14.0538C7.90009 14.1603 7.54067 14.4135 7.30162 14.7661C7.06256 15.1186 6.96028 15.5462 7.01395 15.9687C7.06762 16.3913 7.27356 16.7798 7.59315 17.0613C7.91275 17.3429 8.32407 17.4982 8.75 17.4982C9.17594 17.4982 9.58726 17.3429 9.90686 17.0613C10.2265 16.7798 10.4324 16.3913 10.4861 15.9687C10.5397 15.5462 10.4374 15.1186 10.1984 14.7661C9.95934 14.4135 9.59992 14.1603 9.1875 14.0538V13.5616C9.1875 13.3296 9.27969 13.107 9.44379 12.9429C9.60788 12.7788 9.83044 12.6866 10.0625 12.6866H14C14.4641 12.6866 14.9093 12.5022 15.2374 12.1741C15.5656 11.8459 15.75 11.4007 15.75 10.9366V10.4444C16.1255 10.3469 16.4581 10.1276 16.6956 9.82077C16.9331 9.51399 17.0621 9.13709 17.0625 8.74912ZM7.875 8.74912C7.875 8.57606 7.92632 8.40689 8.02247 8.26299C8.11861 8.1191 8.25527 8.00695 8.41516 7.94072C8.57504 7.8745 8.75097 7.85717 8.92071 7.89093C9.09044 7.92469 9.24635 8.00803 9.36872 8.1304C9.49109 8.25277 9.57443 8.40868 9.60819 8.57841C9.64195 8.74815 9.62463 8.92408 9.5584 9.08397C9.49217 9.24385 9.38002 9.38051 9.23613 9.47665C9.09223 9.5728 8.92306 9.62412 8.75 9.62412C8.51794 9.62412 8.29538 9.53193 8.13129 9.36784C7.96719 9.20374 7.875 8.98118 7.875 8.74912ZM9.625 15.7491C9.625 15.9222 9.57369 16.0913 9.47754 16.2352C9.38139 16.3791 9.24474 16.4913 9.08485 16.5575C8.92497 16.6237 8.74903 16.6411 8.5793 16.6073C8.40957 16.5735 8.25366 16.4902 8.13129 16.3678C8.00891 16.2455 7.92558 16.0896 7.89182 15.9198C7.85805 15.7501 7.87538 15.5742 7.94161 15.4143C8.00784 15.2544 8.11999 15.1177 8.26388 15.0216C8.40777 14.9254 8.57695 14.8741 8.75 14.8741C8.98207 14.8741 9.20463 14.9663 9.36872 15.1304C9.53282 15.2945 9.625 15.5171 9.625 15.7491Z" fill="#5063F4"/>
</g>
<defs>
<clipPath id="clip0_1620_56206">
<rect width="25" height="25" fill="white"/>
</clipPath>
</defs>
</svg>
