<svg width="41" height="40" viewBox="0 0 41 40" fill="none" xmlns="http://www.w3.org/2000/svg">
<g id="COCO/Duotone/Setting - 3">
<path id="Vector" d="M6.08813 15.2875C7.17396 10.6585 10.7883 7.04407 15.4174 5.95825C18.7604 5.17408 22.2396 5.17407 25.5826 5.95824C30.2117 7.04407 33.826 10.6585 34.9119 15.2875C35.696 18.6305 35.696 22.1097 34.9119 25.4527C33.826 30.0818 30.2117 33.6962 25.5826 34.782C22.2396 35.5662 18.7604 35.5662 15.4174 34.782C10.7884 33.6962 7.17396 30.0818 6.08813 25.4527C5.30396 22.1097 5.30396 18.6305 6.08813 15.2875Z" fill="#EFF2FE" stroke="#5063F4" stroke-width="1.35" stroke-linecap="round"/>
<path id="Vector_2" d="M28.8332 12.5H12.1665V17.5H12.9998V26.6667C12.9998 27.1087 13.1754 27.5326 13.488 27.8452C13.8006 28.1577 14.2245 28.3333 14.6665 28.3333H26.3332C26.7752 28.3333 27.1991 28.1577 27.5117 27.8452C27.8242 27.5326 27.9998 27.1087 27.9998 26.6667V17.5H28.8332V12.5ZM13.8332 14.1667H27.1665V15.8333H13.8332V14.1667ZM26.3332 26.6667H14.6665V17.5H26.3332V26.6667ZM17.9998 19.1667H22.9998C22.9998 19.6087 22.8242 20.0326 22.5117 20.3452C22.1991 20.6577 21.7752 20.8333 21.3332 20.8333H19.6665C19.2245 20.8333 18.8006 20.6577 18.488 20.3452C18.1754 20.0326 17.9998 19.6087 17.9998 19.1667Z" fill="#5063F4"/>
</g>
</svg>
