<svg width="25" height="25" viewBox="0 0 25 25" fill="none" xmlns="http://www.w3.org/2000/svg">
<g id="COCO/Duotone/Setting - 4" clip-path="url(#clip0_1620_56213)">
<path id="Vector" d="M1.4411 8.43804C2.25547 4.96626 4.96626 2.25546 8.43804 1.4411C10.9453 0.852968 13.5547 0.852968 16.062 1.4411C19.5337 2.25547 22.2445 4.96626 23.0589 8.43805C23.647 10.9453 23.647 13.5547 23.0589 16.062C22.2445 19.5337 19.5337 22.2445 16.062 23.0589C13.5547 23.647 10.9453 23.647 8.43804 23.0589C4.96626 22.2445 2.25547 19.5337 1.4411 16.062C0.852968 13.5547 0.852968 10.9453 1.4411 8.43804Z" fill="#FDFDFD" stroke="#5063F4" stroke-width="1.35" stroke-linecap="round"/>
<path id="Vector_2" d="M16.6667 8.12267V8C16.6667 7.46957 16.456 6.96086 16.0809 6.58579C15.7058 6.21071 15.1971 6 14.6667 6C14.1362 6 13.6275 6.21071 13.2525 6.58579C12.8774 6.96086 12.6667 7.46957 12.6667 8H11.3333C11.3333 7.46957 11.1226 6.96086 10.7475 6.58579C10.3725 6.21071 9.86377 6 9.33333 6C8.8029 6 8.29419 6.21071 7.91912 6.58579C7.54405 6.96086 7.33333 7.46957 7.33333 8V8.12267C6.94457 8.2598 6.60774 8.51384 6.36903 8.84994C6.13032 9.18604 6.00142 9.58776 6 10V16C6 17.1027 6.89733 18 8 18H16C17.1027 18 18 17.1027 18 16V10C17.9986 9.58776 17.8697 9.18604 17.631 8.84994C17.3923 8.51384 17.0554 8.2598 16.6667 8.12267ZM14 8C14 7.82319 14.0702 7.65362 14.1953 7.5286C14.3203 7.40357 14.4899 7.33333 14.6667 7.33333C14.8435 7.33333 15.013 7.40357 15.1381 7.5286C15.2631 7.65362 15.3333 7.82319 15.3333 8V9.33333C15.3333 9.51014 15.2631 9.67971 15.1381 9.80474C15.013 9.92976 14.8435 10 14.6667 10C14.4899 10 14.3203 9.92976 14.1953 9.80474C14.0702 9.67971 14 9.51014 14 9.33333V8ZM8.66667 8C8.66667 7.82319 8.7369 7.65362 8.86193 7.5286C8.98695 7.40357 9.15652 7.33333 9.33333 7.33333C9.51014 7.33333 9.67971 7.40357 9.80474 7.5286C9.92976 7.65362 10 7.82319 10 8V9.33333C10 9.51014 9.92976 9.67971 9.80474 9.80474C9.67971 9.92976 9.51014 10 9.33333 10C9.15652 10 8.98695 9.92976 8.86193 9.80474C8.7369 9.67971 8.66667 9.51014 8.66667 9.33333V8ZM16.6667 16C16.6667 16.3673 16.368 16.6667 16 16.6667H8C7.632 16.6667 7.33333 16.3673 7.33333 16V12H16.6667V16Z" fill="#5063F4"/>
</g>
<defs>
<clipPath id="clip0_1620_56213">
<rect width="25" height="25" fill="white"/>
</clipPath>
</defs>
</svg>
