<svg width="41" height="40" viewBox="0 0 41 40" fill="none" xmlns="http://www.w3.org/2000/svg">
<g id="COCO/Duotone/Setting - 3">
<path id="Vector" d="M6.54321 15.2875C7.62903 10.6585 11.2434 7.04407 15.8725 5.95825C19.2155 5.17408 22.6947 5.17407 26.0377 5.95824C30.6667 7.04407 34.2811 10.6585 35.367 15.2875C36.1511 18.6305 36.1511 22.1097 35.367 25.4527C34.2811 30.0818 30.6667 33.6962 26.0377 34.782C22.6947 35.5662 19.2155 35.5662 15.8725 34.782C11.2434 33.6962 7.62903 30.0818 6.54321 25.4527C5.75904 22.1097 5.75904 18.6305 6.54321 15.2875Z" stroke="#5063F4" stroke-linecap="round"/>
<path id="Vector_2" d="M14.4109 17.0853C14.4109 16.3667 14.5894 15.6594 14.9305 15.0269C15.2715 14.3945 15.7645 13.8567 16.3649 13.462C16.9654 13.0673 17.6546 12.8281 18.3704 12.7658C19.0863 12.7035 19.8064 12.8202 20.466 13.1053C21.1256 13.3903 21.704 13.8349 22.1492 14.3989C22.5943 14.963 22.8923 15.6288 23.0163 16.3366C23.1403 17.0444 23.0864 17.7719 22.8595 18.4537C22.6326 19.1355 22.2398 19.7502 21.7164 20.2425C22.7033 20.7214 23.5602 21.4313 24.2144 22.3119C24.8686 23.1925 25.3008 24.2179 25.4744 25.3011C25.4935 25.4216 25.4887 25.5447 25.4602 25.6634C25.4318 25.7821 25.3802 25.894 25.3085 25.9927C25.2368 26.0915 25.1463 26.1751 25.0423 26.2389C24.9382 26.3027 24.8226 26.3453 24.7021 26.3644C24.5816 26.3836 24.4585 26.3787 24.3398 26.3503C24.2211 26.3218 24.1092 26.2702 24.0105 26.1985C23.9117 26.1268 23.8281 26.0364 23.7643 25.9323C23.7005 25.8283 23.6579 25.7127 23.6387 25.5922C23.453 24.4282 22.8583 23.3687 21.9616 22.6037C21.0649 21.8388 19.9248 21.4186 18.7462 21.4186C17.5675 21.4186 16.4274 21.8388 15.5307 22.6037C14.634 23.3687 14.0393 24.4282 13.8536 25.5922C13.8344 25.7127 13.7916 25.8283 13.7278 25.9323C13.6639 26.0363 13.5802 26.1267 13.4814 26.1984C13.3826 26.27 13.2706 26.3215 13.1519 26.3499C13.0332 26.3783 12.9101 26.383 12.7896 26.3638C12.669 26.3446 12.5535 26.3019 12.4495 26.238C12.3455 26.1742 12.255 26.0905 12.1834 25.9917C12.1117 25.8929 12.0602 25.7809 12.0318 25.6622C12.0035 25.5435 11.9987 25.4204 12.0179 25.2998C12.1917 24.2171 12.6241 23.1921 13.2783 22.312C13.9324 21.4318 14.7892 20.7224 15.7759 20.2438C15.3445 19.8386 15.0007 19.3493 14.7659 18.806C14.5312 18.2628 14.4103 17.6771 14.4109 17.0853ZM25.5586 15.2273C26.2783 15.2278 26.9823 15.4372 27.5853 15.8301C28.1882 16.223 28.6642 16.7824 28.9553 17.4405C29.2465 18.0987 29.3404 18.8272 29.2255 19.5376C29.1107 20.2481 28.7921 20.9099 28.3084 21.4428C29.0623 21.817 29.7322 22.3408 30.2773 22.9822C30.8224 23.6235 31.2314 24.3691 31.4793 25.1735C31.5284 25.3297 31.5353 25.496 31.4993 25.6557C31.4633 25.8154 31.3857 25.9627 31.2744 26.0827C31.1631 26.2027 31.022 26.2911 30.8654 26.339C30.7089 26.3868 30.5425 26.3924 30.3831 26.3552C30.2238 26.3181 30.0771 26.2397 29.9578 26.1279C29.8384 26.0162 29.7506 25.875 29.7031 25.7185C29.4811 25.0004 29.0765 24.3521 28.529 23.8371C27.9814 23.3221 27.3096 22.9581 26.5792 22.7805C26.3764 22.7315 26.196 22.6157 26.067 22.4516C25.938 22.2876 25.868 22.0849 25.8683 21.8763V21.4403C25.8682 21.2673 25.9163 21.0978 26.0074 20.9507C26.0984 20.8037 26.2287 20.6849 26.3835 20.6079C26.7591 20.4218 27.0606 20.1142 27.2392 19.7351C27.4179 19.356 27.4631 18.9276 27.3675 18.5196C27.272 18.1115 27.0413 17.7478 26.7129 17.4874C26.3845 17.227 25.9777 17.0853 25.5586 17.0853C25.3122 17.0853 25.076 16.9874 24.9017 16.8132C24.7275 16.6389 24.6296 16.4027 24.6296 16.1563C24.6296 15.9099 24.7275 15.6736 24.9017 15.4994C25.076 15.3252 25.3122 15.2273 25.5586 15.2273ZM18.7462 14.608C18.4163 14.6005 18.0882 14.6591 17.7812 14.7801C17.4743 14.9012 17.1946 15.0824 16.9586 15.313C16.7226 15.5437 16.5351 15.8191 16.407 16.1233C16.279 16.4274 16.213 16.754 16.2129 17.084C16.2128 17.414 16.2786 17.7406 16.4066 18.0448C16.5345 18.349 16.7218 18.6246 16.9577 18.8553C17.1936 19.0861 17.4732 19.2674 17.7801 19.3887C18.087 19.5099 18.415 19.5686 18.7449 19.5613C19.3922 19.547 20.0081 19.2798 20.4609 18.8171C20.9136 18.3543 21.1672 17.7327 21.1674 17.0852C21.1676 16.4378 20.9143 15.8161 20.4617 15.3531C20.0092 14.8901 19.3934 14.6226 18.7462 14.608Z" fill="#5063F4"/>
</g>
</svg>
