<svg width="30" height="30" viewBox="0 0 30 30" fill="none" xmlns="http://www.w3.org/2000/svg">
<path d="M4.4411 11.438C5.25547 7.96626 7.96626 5.25546 11.438 4.4411C13.9453 3.85297 16.5547 3.85297 19.062 4.4411C22.5337 5.25547 25.2445 7.96626 26.0589 11.438C26.647 13.9453 26.647 16.5547 26.0589 19.062C25.2445 22.5337 22.5337 25.2445 19.062 26.0589C16.5547 26.647 13.9453 26.647 11.438 26.0589C7.96626 25.2445 5.25547 22.5337 4.4411 19.062C3.85297 16.5547 3.85297 13.9453 4.4411 11.438Z" fill="#FDFDFD" stroke="#5063F4" stroke-width="1.35" stroke-linecap="round"/>
<path d="M14.1585 11.2504C14.0144 11.1063 13.7828 11.1063 13.3191 11.1063H13.1962V10.3688C13.1962 10.271 13.1573 10.1772 13.0882 10.108C13.019 10.0389 12.9252 10 12.8274 10C12.7296 10 12.6358 10.0389 12.5666 10.108C12.4975 10.1772 12.4586 10.271 12.4586 10.3688V11.1063H12.3357C11.872 11.1063 11.6404 11.1063 11.4964 11.2504C11.3523 11.3945 11.3523 11.6261 11.3523 12.0898V12.1901C11.4516 12.164 11.5519 12.1458 11.6503 12.1325C11.9669 12.0898 12.3578 12.0898 12.7832 12.0898H12.8717C13.297 12.0898 13.6874 12.0898 14.0046 12.1325C14.1029 12.1453 14.2032 12.164 14.3025 12.1901V12.0898C14.3025 11.6261 14.3025 11.3945 14.1585 11.2504Z" fill="#5063F4"/>
<path fill-rule="evenodd" clip-rule="evenodd" d="M10.3688 19.3427C10.271 19.3427 10.1772 19.3815 10.108 19.4507C10.0389 19.5198 10 19.6136 10 19.7115C10 19.8093 10.0389 19.9031 10.108 19.9722C10.1772 20.0414 10.271 20.0802 10.3688 20.0802H20.2029C20.3007 20.0802 20.3945 20.0414 20.4637 19.9722C20.5329 19.9031 20.5717 19.8093 20.5717 19.7115C20.5717 19.6136 20.5329 19.5198 20.4637 19.4507C20.3945 19.3815 20.3007 19.3427 20.2029 19.3427H19.7112V12.7154C19.7112 12.0566 19.7112 11.7266 19.5362 11.4739C19.3611 11.2211 19.0523 11.1051 18.4347 10.874C17.2276 10.4211 16.6243 10.195 16.2009 10.488C15.7776 10.782 15.7776 11.4262 15.7776 12.7154V14.0568H15.8218C16.2471 14.0568 16.6376 14.0568 16.9547 14.0996C17.3043 14.1463 17.6741 14.2569 17.9775 14.5608C18.2818 14.8647 18.3925 15.2345 18.4397 15.5836C18.482 15.9012 18.482 16.2916 18.482 16.7174V19.3427H17.7444V16.7612C17.7444 15.8339 17.7444 15.3707 17.4562 15.0825C17.1681 14.7944 16.7049 14.7944 15.7776 14.7944H14.7941C13.8668 14.7944 13.4036 14.7944 13.1155 15.0825C12.8273 15.3707 12.8273 15.8339 12.8273 16.7612V19.3427H12.0898V16.717C12.0898 16.2916 12.0898 15.9012 12.1325 15.5841C12.1792 15.2345 12.2899 14.8647 12.5938 14.5613C12.8976 14.2569 13.2674 14.1463 13.6165 14.0991C13.9341 14.0568 14.3246 14.0568 14.7504 14.0568H14.7858C14.7661 13.5966 14.7047 13.3143 14.506 13.1157C14.2179 12.8276 13.7547 12.8276 12.8273 12.8276C11.9 12.8276 11.4368 12.8276 11.1486 13.1157C10.8605 13.4038 10.8605 13.867 10.8605 14.7944V19.3427H10.3688ZM13.9337 16.2695C13.9337 16.1717 13.9725 16.0779 14.0417 16.0087C14.1108 15.9396 14.2046 15.9007 14.3024 15.9007H16.2693C16.3671 15.9007 16.4609 15.9396 16.53 16.0087C16.5992 16.0779 16.638 16.1717 16.638 16.2695C16.638 16.3673 16.5992 16.4611 16.53 16.5303C16.4609 16.5994 16.3671 16.6383 16.2693 16.6383H14.3024C14.2046 16.6383 14.1108 16.5994 14.0417 16.5303C13.9725 16.4611 13.9337 16.3673 13.9337 16.2695ZM13.9337 17.7446C13.9337 17.6468 13.9725 17.553 14.0417 17.4839C14.1108 17.4147 14.2046 17.3758 14.3024 17.3758H16.2693C16.3671 17.3758 16.4609 17.4147 16.53 17.4839C16.5992 17.553 16.638 17.6468 16.638 17.7446C16.638 17.8424 16.5992 17.9362 16.53 18.0054C16.4609 18.0746 16.3671 18.1134 16.2693 18.1134H14.3024C14.2046 18.1134 14.1108 18.0746 14.0417 18.0054C13.9725 17.9362 13.9337 17.8424 13.9337 17.7446Z" fill="#5063F4"/>
</svg>
