<svg width="357" height="327" viewBox="0 0 357 327" fill="none" xmlns="http://www.w3.org/2000/svg">
<path d="M23.3472 166.888C23.3472 209.322 40.2043 250.019 70.2101 280.025C100.216 310.031 140.913 326.888 183.347 326.888C225.782 326.888 266.478 310.031 296.484 280.025C326.49 250.019 343.347 209.322 343.347 166.888C343.347 124.453 326.49 83.7564 296.484 53.7506C266.478 23.7448 225.782 6.8877 183.347 6.8877C140.913 6.8877 100.216 23.7448 70.2101 53.7506C40.2043 83.7564 23.3472 124.453 23.3472 166.888Z" fill="#F4F5F6"/>
<path d="M248.059 276.804L178.843 302.984L100.235 207.796M248.059 276.804L299.875 156.648L273.027 74.7356M248.059 276.804L322.587 243.216M248.059 276.804L194.067 188.064M25.2871 119.332L83.8991 270.88L100.235 207.796M25.2871 119.332L101.031 54.7956M25.2871 119.332L100.235 207.796M101.031 54.7956L176.103 13.3516L238.951 37.7516M101.031 54.7956L238.951 37.7516M238.951 37.7516L273.027 74.7356M238.951 37.7516L194.067 188.064M238.951 37.7516L178.843 110.7M273.027 74.7356L320.411 91.0036M101.855 125.808L178.843 110.7M178.843 110.7L194.067 188.064" stroke="#5063F4" stroke-width="4" stroke-linecap="round" stroke-linejoin="round"/>
<path d="M193.967 187.416L178.843 302.984L83.8989 270.88" stroke="#5063F4" stroke-width="4" stroke-linecap="round" stroke-linejoin="round"/>
<path d="M167.491 110.7C167.491 113.71 168.687 116.598 170.816 118.727C172.945 120.856 175.832 122.052 178.843 122.052C181.854 122.052 184.741 120.856 186.87 118.727C188.999 116.598 190.195 113.71 190.195 110.7C190.195 107.689 188.999 104.801 186.87 102.673C184.741 100.544 181.854 99.3477 178.843 99.3477C175.832 99.3477 172.945 100.544 170.816 102.673C168.687 104.801 167.491 107.689 167.491 110.7Z" fill="white" stroke="#5063F4" stroke-width="4" stroke-linecap="round" stroke-linejoin="round"/>
<path d="M194.067 188.064L273.027 74.7363L194.067 188.064Z" fill="white"/>
<path d="M194.067 188.064L273.027 74.7363" stroke="#5063F4" stroke-width="4" stroke-linecap="round" stroke-linejoin="round"/>
<path d="M261.675 74.7358C261.675 77.7465 262.871 80.6339 265 82.7629C267.129 84.8918 270.017 86.0878 273.027 86.0878C276.038 86.0878 278.925 84.8918 281.054 82.7629C283.183 80.6339 284.379 77.7465 284.379 74.7358C284.379 71.725 283.183 68.8376 281.054 66.7087C278.925 64.5798 276.038 63.3838 273.027 63.3838C270.017 63.3838 267.129 64.5798 265 66.7087C262.871 68.8376 261.675 71.725 261.675 74.7358Z" fill="white" stroke="#5063F4" stroke-width="4" stroke-linecap="round" stroke-linejoin="round"/>
<path d="M309.059 91.0043C309.059 94.0151 310.255 96.9025 312.384 99.0314C314.513 101.16 317.4 102.356 320.411 102.356C323.422 102.356 326.309 101.16 328.438 99.0314C330.567 96.9025 331.763 94.0151 331.763 91.0043C331.763 87.9936 330.567 85.1062 328.438 82.9773C326.309 80.8484 323.422 79.6523 320.411 79.6523C317.4 79.6523 314.513 80.8484 312.384 82.9773C310.255 85.1062 309.059 87.9936 309.059 91.0043Z" fill="white" stroke="#5063F4" stroke-width="4" stroke-linecap="round" stroke-linejoin="round"/>
<path d="M311.235 243.216C311.235 246.227 312.431 249.114 314.56 251.243C316.689 253.372 319.576 254.568 322.587 254.568C325.598 254.568 328.485 253.372 330.614 251.243C332.743 249.114 333.939 246.227 333.939 243.216C333.939 240.206 332.743 237.318 330.614 235.189C328.485 233.06 325.598 231.864 322.587 231.864C319.576 231.864 316.689 233.06 314.56 235.189C312.431 237.318 311.235 240.206 311.235 243.216Z" fill="white" stroke="#5063F4" stroke-width="4" stroke-linecap="round" stroke-linejoin="round"/>
<path d="M227.599 37.7524C227.599 39.2432 227.893 40.7193 228.463 42.0966C229.034 43.4739 229.87 44.7253 230.924 45.7795C231.978 46.8336 233.23 47.6698 234.607 48.2403C235.984 48.8108 237.46 49.1044 238.951 49.1044C240.442 49.1044 241.918 48.8108 243.295 48.2403C244.673 47.6698 245.924 46.8336 246.978 45.7795C248.032 44.7253 248.869 43.4739 249.439 42.0966C250.009 40.7193 250.303 39.2432 250.303 37.7524C250.303 34.7417 249.107 31.8542 246.978 29.7253C244.849 27.5964 241.962 26.4004 238.951 26.4004C235.94 26.4004 233.053 27.5964 230.924 29.7253C228.795 31.8542 227.599 34.7417 227.599 37.7524Z" fill="white" stroke="#5063F4" stroke-width="4" stroke-linecap="round" stroke-linejoin="round"/>
<path d="M89.6353 54.7963C89.6353 57.8071 90.8313 60.6945 92.9602 62.8234C95.0891 64.9523 97.9765 66.1483 100.987 66.1483C103.998 66.1483 106.885 64.9523 109.014 62.8234C111.143 60.6945 112.339 57.8071 112.339 54.7963C112.339 51.7856 111.143 48.8982 109.014 46.7693C106.885 44.6403 103.998 43.4443 100.987 43.4443C97.9765 43.4443 95.0891 44.6403 92.9602 46.7693C90.8313 48.8982 89.6353 51.7856 89.6353 54.7963Z" fill="white" stroke="#5063F4" stroke-width="4" stroke-linecap="round" stroke-linejoin="round"/>
<path d="M13.9351 119.804C13.9351 122.815 15.1311 125.702 17.26 127.831C19.3889 129.96 22.2763 131.156 25.2871 131.156C28.2978 131.156 31.1852 129.96 33.3141 127.831C35.4431 125.702 36.6391 122.815 36.6391 119.804C36.6391 116.793 35.4431 113.906 33.3141 111.777C31.1852 109.648 28.2978 108.452 25.2871 108.452C22.2763 108.452 19.3889 109.648 17.26 111.777C15.1311 113.906 13.9351 116.793 13.9351 119.804Z" fill="white" stroke="#5063F4" stroke-width="4" stroke-linecap="round" stroke-linejoin="round"/>
<path d="M164.751 13.352C164.751 16.3627 165.947 19.2502 168.076 21.3791C170.205 23.508 173.092 24.704 176.103 24.704C179.114 24.704 182.001 23.508 184.13 21.3791C186.259 19.2502 187.455 16.3627 187.455 13.352C187.455 10.3413 186.259 7.45384 184.13 5.32492C182.001 3.19601 179.114 2 176.103 2C173.092 2 170.205 3.19601 168.076 5.32492C165.947 7.45384 164.751 10.3413 164.751 13.352Z" fill="white" stroke="#5063F4" stroke-width="4" stroke-linecap="round" stroke-linejoin="round"/>
<path d="M167.491 302.48C167.491 305.491 168.687 308.378 170.816 310.507C172.945 312.636 175.832 313.832 178.843 313.832C181.854 313.832 184.741 312.636 186.87 310.507C188.999 308.378 190.195 305.491 190.195 302.48C190.195 299.469 188.999 296.582 186.87 294.453C184.741 292.324 181.854 291.128 178.843 291.128C175.832 291.128 172.945 292.324 170.816 294.453C168.687 296.582 167.491 299.469 167.491 302.48Z" fill="white" stroke="#5063F4" stroke-width="4" stroke-linecap="round" stroke-linejoin="round"/>
<path d="M72.5469 270.88C72.5469 273.891 73.7429 276.778 75.8718 278.907C78.0007 281.036 80.8881 282.232 83.8989 282.232C86.9096 282.232 89.797 281.036 91.9259 278.907C94.0549 276.778 95.2509 273.891 95.2509 270.88C95.2509 267.87 94.0549 264.982 91.9259 262.853C89.797 260.724 86.9096 259.528 83.8989 259.528C80.8881 259.528 78.0007 260.724 75.8718 262.853C73.7429 264.982 72.5469 267.87 72.5469 270.88Z" fill="white" stroke="#5063F4" stroke-width="4" stroke-linecap="round" stroke-linejoin="round"/>
<path d="M88.8828 207.796C88.8828 210.807 90.0788 213.694 92.2077 215.823C94.3367 217.952 97.2241 219.148 100.235 219.148C103.246 219.148 106.133 217.952 108.262 215.823C110.391 213.694 111.587 210.807 111.587 207.796C111.587 204.786 110.391 201.898 108.262 199.769C106.133 197.64 103.246 196.444 100.235 196.444C97.2241 196.444 94.3367 197.64 92.2077 199.769C90.0788 201.898 88.8828 204.786 88.8828 207.796Z" fill="white" stroke="#5063F4" stroke-width="4" stroke-linecap="round" stroke-linejoin="round"/>
<path d="M73.0908 118.256C73.0908 125.885 76.1213 133.201 81.5156 138.595C86.9099 143.99 94.2261 147.02 101.855 147.02C109.484 147.02 116.8 143.99 122.194 138.595C127.588 133.201 130.619 125.885 130.619 118.256C130.619 110.628 127.588 103.311 122.194 97.917C116.8 92.5227 109.484 89.4922 101.855 89.4922C94.2261 89.4922 86.9099 92.5227 81.5156 97.917C76.1213 103.311 73.0908 110.628 73.0908 118.256Z" fill="white" stroke="#5063F4" stroke-width="4" stroke-linecap="round" stroke-linejoin="round"/>
<path d="M121.087 139.644C115.807 144.385 108.961 147.008 101.865 147.008C94.7687 147.008 87.9228 144.385 82.6431 139.644C84.231 135.862 86.9002 132.634 90.3159 130.363C93.7316 128.093 97.7417 126.882 101.843 126.882C105.944 126.882 109.955 128.093 113.37 130.363C116.786 132.634 119.455 135.862 121.043 139.644" fill="#EFF2FE"/>
<path d="M121.087 139.644C115.807 144.385 108.961 147.008 101.865 147.008C94.7687 147.008 87.9228 144.385 82.6431 139.644C84.231 135.862 86.9002 132.634 90.3159 130.363C93.7316 128.093 97.7417 126.882 101.843 126.882C105.944 126.882 109.955 128.093 113.37 130.363C116.786 132.634 119.455 135.862 121.043 139.644" stroke="#5063F4" stroke-width="4" stroke-linecap="round" stroke-linejoin="round"/>
<path d="M151.803 188.064C151.803 199.274 156.256 210.025 164.183 217.952C172.11 225.879 182.861 230.332 194.071 230.332C205.281 230.332 216.032 225.879 223.959 217.952C231.886 210.025 236.339 199.274 236.339 188.064C236.339 176.854 231.886 166.103 223.959 158.176C216.032 150.249 205.281 145.796 194.071 145.796C182.861 145.796 172.11 150.249 164.183 158.176C156.256 166.103 151.803 176.854 151.803 188.064Z" fill="white" stroke="#5063F4" stroke-width="4" stroke-linecap="round" stroke-linejoin="round"/>
<path d="M180.471 187.084C180.471 190.691 181.904 194.15 184.455 196.7C187.005 199.251 190.464 200.684 194.071 200.684C197.678 200.684 201.137 199.251 203.688 196.7C206.238 194.15 207.671 190.691 207.671 187.084V180.284C207.671 176.677 206.238 173.217 203.688 170.667C201.137 168.116 197.678 166.684 194.071 166.684C190.464 166.684 187.005 168.116 184.455 170.667C181.904 173.217 180.471 176.677 180.471 180.284V187.084Z" fill="white" stroke="#5063F4" stroke-width="4" stroke-linecap="round" stroke-linejoin="round"/>
<path d="M222.323 219.5C214.565 226.47 204.504 230.326 194.075 230.326C183.646 230.326 173.585 226.47 165.827 219.5C168.149 213.929 172.066 209.168 177.087 205.818C182.108 202.468 188.007 200.678 194.043 200.673C200.079 200.668 205.981 202.448 211.008 205.79C216.034 209.131 219.96 213.885 222.291 219.452" fill="#EFF2FE"/>
<path d="M222.323 219.5C214.565 226.47 204.504 230.326 194.075 230.326C183.646 230.326 173.585 226.47 165.827 219.5C168.149 213.929 172.066 209.168 177.087 205.818C182.108 202.468 188.007 200.678 194.043 200.673C200.079 200.668 205.981 202.448 211.008 205.79C216.034 209.131 219.96 213.885 222.291 219.452" stroke="#5063F4" stroke-width="4" stroke-linecap="round" stroke-linejoin="round"/>
<path d="M180.583 178.528C180.937 175.781 182.121 173.208 183.977 171.152C185.833 169.097 188.272 167.657 190.968 167.025C193.665 166.393 196.49 166.599 199.066 167.616C201.641 168.633 203.846 170.412 205.383 172.716C202.163 175.839 198.155 178.03 193.787 179.053C189.419 180.077 184.856 179.895 180.583 178.528Z" fill="white" stroke="#5063F4" stroke-width="4" stroke-linecap="round" stroke-linejoin="round"/>
<path d="M271.111 154.576C271.111 162.204 274.141 169.52 279.536 174.915C284.93 180.309 292.246 183.34 299.875 183.34C307.504 183.34 314.82 180.309 320.214 174.915C325.608 169.52 328.639 162.204 328.639 154.576C328.639 146.947 325.608 139.631 320.214 134.236C314.82 128.842 307.504 125.812 299.875 125.812C292.246 125.812 284.93 128.842 279.536 134.236C274.141 139.631 271.111 146.947 271.111 154.576Z" fill="white" stroke="#5063F4" stroke-width="4" stroke-linecap="round" stroke-linejoin="round"/>
<path d="M290.619 153.908C290.619 156.363 291.594 158.718 293.33 160.453C295.066 162.189 297.42 163.164 299.875 163.164C302.33 163.164 304.684 162.189 306.42 160.453C308.156 158.718 309.131 156.363 309.131 153.908V149.28C309.131 146.826 308.156 144.471 306.42 142.735C304.684 141 302.33 140.024 299.875 140.024C297.42 140.024 295.066 141 293.33 142.735C291.594 144.471 290.619 146.826 290.619 149.28V153.908Z" fill="white" stroke="#5063F4" stroke-width="4" stroke-linecap="round" stroke-linejoin="round"/>
<path d="M319.103 175.968C313.824 180.712 306.977 183.336 299.879 183.336C292.782 183.336 285.935 180.712 280.655 175.968C282.236 172.177 284.902 168.938 288.319 166.658C291.736 164.379 295.751 163.161 299.859 163.157C303.966 163.154 307.983 164.365 311.404 166.639C314.825 168.913 317.496 172.148 319.083 175.936" fill="#EFF2FE"/>
<path d="M319.103 175.968C313.824 180.712 306.977 183.336 299.879 183.336C292.782 183.336 285.935 180.712 280.655 175.968C282.236 172.177 284.902 168.938 288.319 166.658C291.736 164.379 295.751 163.161 299.859 163.157C303.966 163.154 307.983 164.365 311.404 166.639C314.825 168.913 317.496 172.148 319.083 175.936" stroke="#5063F4" stroke-width="4" stroke-linecap="round" stroke-linejoin="round"/>
<path d="M290.695 148.084C290.939 146.218 291.745 144.47 293.007 143.073C294.27 141.677 295.928 140.699 297.76 140.269C299.593 139.839 301.513 139.978 303.264 140.668C305.016 141.357 306.516 142.565 307.563 144.128C305.372 146.252 302.646 147.741 299.676 148.438C296.706 149.134 293.602 149.012 290.695 148.084Z" fill="white" stroke="#5063F4" stroke-width="4" stroke-linecap="round" stroke-linejoin="round"/>
<path d="M219.295 276.704C219.295 280.482 220.039 284.222 221.484 287.712C222.93 291.202 225.049 294.373 227.72 297.044C230.391 299.715 233.562 301.833 237.051 303.279C240.541 304.724 244.282 305.468 248.059 305.468C251.836 305.468 255.577 304.724 259.066 303.279C262.556 301.833 265.727 299.715 268.398 297.044C271.069 294.373 273.188 291.202 274.633 287.712C276.079 284.222 276.823 280.482 276.823 276.704C276.823 269.076 273.792 261.76 268.398 256.365C263.004 250.971 255.688 247.94 248.059 247.94C240.43 247.94 233.114 250.971 227.72 256.365C222.325 261.76 219.295 269.076 219.295 276.704Z" fill="white" stroke="#5063F4" stroke-width="4" stroke-linecap="round" stroke-linejoin="round"/>
<path d="M238.803 276.044C238.803 278.499 239.778 280.853 241.514 282.589C243.25 284.325 245.604 285.3 248.059 285.3C250.514 285.3 252.868 284.325 254.604 282.589C256.34 280.853 257.315 278.499 257.315 276.044V271.412C257.315 268.957 256.34 266.603 254.604 264.867C252.868 263.131 250.514 262.156 248.059 262.156C245.604 262.156 243.25 263.131 241.514 264.867C239.778 266.603 238.803 268.957 238.803 271.412V276.044Z" fill="white" stroke="#5063F4" stroke-width="4" stroke-linecap="round" stroke-linejoin="round"/>
<path d="M267.287 298.1C262.006 302.841 255.16 305.464 248.063 305.464C240.966 305.464 234.12 302.841 228.839 298.1C230.419 294.309 233.085 291.069 236.502 288.789C239.919 286.51 243.933 285.291 248.041 285.287C252.148 285.283 256.165 286.494 259.586 288.768C263.007 291.041 265.68 294.276 267.267 298.064" fill="#EFF2FE"/>
<path d="M267.287 298.1C262.006 302.841 255.16 305.464 248.063 305.464C240.966 305.464 234.12 302.841 228.839 298.1C230.419 294.309 233.085 291.069 236.502 288.789C239.919 286.51 243.933 285.291 248.041 285.287C252.148 285.283 256.165 286.494 259.586 288.768C263.007 291.041 265.68 294.276 267.267 298.064" stroke="#5063F4" stroke-width="4" stroke-linecap="round" stroke-linejoin="round"/>
<path d="M238.879 270.216C239.122 268.35 239.929 266.602 241.191 265.205C242.453 263.809 244.111 262.831 245.944 262.401C247.776 261.971 249.697 262.11 251.448 262.8C253.2 263.489 254.699 264.696 255.747 266.26C253.556 268.383 250.83 269.873 247.86 270.569C244.889 271.266 241.785 271.144 238.879 270.216Z" fill="white" stroke="#5063F4" stroke-width="4" stroke-linecap="round" stroke-linejoin="round"/>
<path d="M189.455 114.728L272.347 146.2M319.707 232.232L306.667 182.532M152.623 196.404L111.331 205.384M317.023 101.84L309.055 127.304M121.623 139.152L159.035 164.412M101.435 89.4922L101.163 66.1442M121.011 96.7962L169.847 22.8242M73.5509 123.416L36.627 120.288M101.439 147.016L100.459 196.448M312.155 238.736L232.923 204.736" stroke="#5063F4" stroke-width="4" stroke-linecap="round" stroke-linejoin="round"/>
<path d="M92.6031 117.588C92.5775 118.82 92.7979 120.044 93.2515 121.189C93.705 122.334 94.3826 123.377 95.2444 124.257C96.1063 125.137 97.1351 125.836 98.2706 126.313C99.406 126.791 100.625 127.037 101.857 127.037C103.089 127.037 104.308 126.791 105.444 126.313C106.579 125.836 107.608 125.137 108.47 124.257C109.332 123.377 110.009 122.334 110.463 121.189C110.916 120.044 111.137 118.82 111.111 117.588V112.96C111.137 111.729 110.916 110.505 110.463 109.359C110.009 108.214 109.332 107.171 108.47 106.291C107.608 105.411 106.579 104.712 105.444 104.235C104.308 103.758 103.089 103.512 101.857 103.512C100.625 103.512 99.406 103.758 98.2706 104.235C97.1351 104.712 96.1063 105.411 95.2444 106.291C94.3826 107.171 93.705 108.214 93.2515 109.359C92.7979 110.505 92.5775 111.729 92.6031 112.96V117.588Z" fill="white" stroke="#5063F4" stroke-width="4" stroke-linecap="round" stroke-linejoin="round"/>
<path d="M92.6792 111.764C92.9213 109.897 93.7271 108.149 94.9889 106.752C96.2508 105.355 97.9087 104.377 99.7413 103.947C101.574 103.517 103.494 103.656 105.246 104.346C106.997 105.036 108.496 106.244 109.543 107.808C107.354 109.932 104.628 111.422 101.658 112.119C98.6884 112.815 95.585 112.693 92.6792 111.764Z" fill="white" stroke="#5063F4" stroke-width="4" stroke-linecap="round" stroke-linejoin="round"/>
</svg>
