<svg width="358" height="320" viewBox="0 0 358 320" fill="none" xmlns="http://www.w3.org/2000/svg">
<path d="M0.435059 160C0.435059 202.435 17.2922 243.131 47.298 273.137C77.3038 303.143 118 320 160.435 320C202.87 320 243.566 303.143 273.572 273.137C303.578 243.131 320.435 202.435 320.435 160C320.435 117.565 303.578 76.8687 273.572 46.8629C243.566 16.8571 202.87 0 160.435 0C118 0 77.3038 16.8571 47.298 46.8629C17.2922 76.8687 0.435059 117.565 0.435059 160Z" fill="#EFF2FE"/>
<path d="M204.435 282.6C204.435 279.288 184.735 276.6 160.435 276.6C136.135 276.6 116.435 279.288 116.435 282.6C116.435 285.912 136.135 288.6 160.435 288.6C184.735 288.6 204.435 285.912 204.435 282.6Z" fill="#EFF2FE"/>
<path d="M206.731 157.38L164.199 72.3159C163.849 71.6168 163.312 71.0288 162.647 70.6179C161.983 70.2069 161.216 69.9893 160.435 69.9893C159.653 69.9893 158.887 70.2069 158.222 70.6179C157.558 71.0288 157.02 71.6168 156.671 72.3159L114.139 157.38L60.2109 110.64C59.5483 110.064 58.7221 109.709 57.8479 109.626C56.9737 109.543 56.0954 109.735 55.336 110.176C54.5766 110.617 53.9743 111.284 53.6133 112.085C53.2522 112.885 53.1507 113.779 53.3229 114.64L76.2589 233.156C76.2589 233.156 76.2589 254.2 160.435 254.2C244.611 254.2 244.607 233.156 244.607 233.156L267.547 114.64C267.719 113.779 267.618 112.885 267.257 112.085C266.896 111.284 266.293 110.617 265.534 110.176C264.774 109.735 263.896 109.543 263.022 109.626C262.148 109.709 261.321 110.064 260.659 110.64L206.731 157.38Z" fill="white"/>
<path d="M72.6509 214.484L76.2509 233.136C76.2509 233.136 76.2509 254.18 160.427 254.18C244.603 254.18 244.599 233.136 244.599 233.136L248.199 214.484C240.119 220.656 218.463 228.928 160.415 228.928C102.367 228.928 80.7269 220.656 72.6509 214.484Z" fill="#EFF2FE"/>
<path d="M72.6509 214.484C80.7269 220.656 102.383 228.928 160.435 228.928C218.487 228.928 240.139 220.656 248.219 214.484" stroke="#5063F4" stroke-width="4" stroke-linejoin="round"/>
<path d="M206.731 157.38L164.199 72.3159C163.849 71.6168 163.312 71.0288 162.647 70.6179C161.983 70.2069 161.216 69.9893 160.435 69.9893C159.653 69.9893 158.887 70.2069 158.222 70.6179C157.558 71.0288 157.02 71.6168 156.671 72.3159L114.139 157.38L60.2109 110.64C59.5483 110.064 58.7221 109.709 57.8479 109.626C56.9737 109.543 56.0954 109.735 55.336 110.176C54.5766 110.617 53.9743 111.284 53.6133 112.085C53.2522 112.885 53.1507 113.779 53.3229 114.64L76.2589 233.156C76.2589 233.156 76.2589 254.2 160.435 254.2C244.611 254.2 244.607 233.156 244.607 233.156L267.547 114.64C267.719 113.779 267.618 112.885 267.257 112.085C266.896 111.284 266.293 110.617 265.534 110.176C264.774 109.735 263.896 109.543 263.022 109.626C262.148 109.709 261.321 110.064 260.659 110.64L206.731 157.38Z" stroke="#5063F4" stroke-width="4" stroke-linejoin="round"/>
<path d="M239.947 55.4721C240.488 53.1414 241.672 51.0091 243.364 49.3172C245.056 47.6252 247.188 46.4414 249.519 45.9001L268.719 41.4681C269.069 41.3843 269.38 41.1853 269.603 40.903C269.825 40.6207 269.946 40.2716 269.946 39.9121C269.946 39.5525 269.825 39.2035 269.603 38.9212C269.38 38.6389 269.069 38.4398 268.719 38.3561L249.519 33.9281C247.187 33.3893 245.053 32.2063 243.361 30.514C241.669 28.8217 240.486 26.688 239.947 24.3561L235.515 5.15606C235.431 4.80641 235.232 4.49515 234.95 4.27248C234.668 4.04981 234.318 3.92871 233.959 3.92871C233.599 3.92871 233.25 4.04981 232.968 4.27248C232.686 4.49515 232.487 4.80641 232.403 5.15606L227.975 24.3561C227.434 26.6868 226.25 28.819 224.558 30.511C222.866 32.2029 220.734 33.3867 218.403 33.9281L199.203 38.3561C198.853 38.4398 198.542 38.6389 198.319 38.9212C198.097 39.2035 197.976 39.5525 197.976 39.9121C197.976 40.2716 198.097 40.6207 198.319 40.903C198.542 41.1853 198.853 41.3843 199.203 41.4681L218.403 45.9001C220.734 46.4391 222.867 47.6222 224.559 49.3145C226.251 51.0069 227.433 53.1405 227.971 55.4721L232.403 74.6721C232.487 75.0217 232.686 75.333 232.968 75.5556C233.25 75.7783 233.599 75.8994 233.959 75.8994C234.318 75.8994 234.668 75.7783 234.95 75.5556C235.232 75.333 235.431 75.0217 235.515 74.6721L239.947 55.4721Z" fill="white" stroke="#5063F4" stroke-width="4" stroke-linecap="round" stroke-linejoin="round"/>
<path d="M336.303 167.329C336.65 165.836 337.409 164.471 338.493 163.388C339.577 162.305 340.942 161.547 342.435 161.201L354.775 158.353C355 158.299 355.2 158.171 355.343 157.99C355.487 157.808 355.565 157.584 355.565 157.353C355.565 157.121 355.487 156.897 355.343 156.715C355.2 156.534 355 156.406 354.775 156.353L342.435 153.489C340.937 153.142 339.566 152.382 338.479 151.295C337.391 150.209 336.63 148.838 336.283 147.341L333.439 135.005C333.385 134.78 333.258 134.579 333.076 134.436C332.895 134.293 332.67 134.215 332.439 134.215C332.208 134.215 331.983 134.293 331.802 134.436C331.62 134.579 331.493 134.78 331.439 135.005L328.595 147.341C328.248 148.839 327.487 150.209 326.4 151.296C325.312 152.383 323.941 153.143 322.443 153.489L310.111 156.333C309.886 156.386 309.686 156.514 309.543 156.695C309.399 156.877 309.321 157.101 309.321 157.333C309.321 157.564 309.399 157.788 309.543 157.97C309.686 158.151 309.886 158.279 310.111 158.333L322.443 161.181C323.941 161.526 325.312 162.286 326.399 163.373C327.486 164.46 328.246 165.83 328.591 167.329L331.439 179.669C331.493 179.893 331.62 180.094 331.802 180.237C331.983 180.38 332.208 180.458 332.439 180.458C332.67 180.458 332.895 180.38 333.076 180.237C333.258 180.094 333.385 179.893 333.439 179.669L336.303 167.329Z" fill="white" stroke="#5063F4" stroke-width="4" stroke-linecap="round" stroke-linejoin="round"/>
<path d="M89.4431 73.92C89.87 72.0681 90.809 70.3736 92.1528 69.0297C93.4966 67.6859 95.1912 66.7469 97.0431 66.32L112.283 62.804C112.561 62.7383 112.809 62.5807 112.986 62.3568C113.163 62.1328 113.259 61.8556 113.259 61.57C113.259 61.2844 113.163 61.0072 112.986 60.7832C112.809 60.5593 112.561 60.4017 112.283 60.336L97.0431 56.82C95.1908 56.394 93.4958 55.4553 92.1518 54.1113C90.8078 52.7673 89.8691 51.0723 89.4431 49.22L85.9271 34C85.8648 33.7192 85.7086 33.468 85.4842 33.2879C85.2598 33.1079 84.9808 33.0098 84.6931 33.0098C84.4054 33.0098 84.1264 33.1079 83.902 33.2879C83.6776 33.468 83.5214 33.7192 83.4591 34L79.9431 49.228C79.5166 51.0801 78.5778 52.7749 77.2339 54.1188C75.89 55.4627 74.1952 56.4015 72.3431 56.828L57.1111 60.34C56.8332 60.4057 56.5856 60.5633 56.4084 60.7873C56.2312 61.0112 56.1348 61.2884 56.1348 61.574C56.1348 61.8596 56.2312 62.1368 56.4084 62.3608C56.5856 62.5847 56.8332 62.7423 57.1111 62.808L72.3431 66.324C74.195 66.7509 75.8896 67.6899 77.2334 69.0337C78.5772 70.3776 79.5162 72.0721 79.9431 73.924L83.4591 89.164C83.5248 89.4419 83.6824 89.6895 83.9063 89.8667C84.1303 90.0439 84.4075 90.1404 84.6931 90.1404C84.9787 90.1404 85.2559 90.0439 85.4799 89.8667C85.7038 89.6895 85.8614 89.4419 85.9271 89.164L89.4431 73.92Z" fill="white" stroke="#5063F4" stroke-width="4" stroke-linecap="round" stroke-linejoin="round"/>
</svg>
