<svg width="22" height="22" viewBox="0 0 22 22" fill="none" xmlns="http://www.w3.org/2000/svg">
<g id="Frame">
<path id="Vector" d="M13 11.0002H14V13.8335L15.9067 14.9602L15.4067 15.7735L13 14.3335V11.0002ZM13.6667 9.00016C14.1267 9.00016 14.58 9.06683 15 9.1935V6.1335L13 6.90683V9.04683C13.22 9.00016 13.44 9.00016 13.6667 9.00016ZM18.3334 13.6668C18.3334 14.9045 17.8417 16.0915 16.9665 16.9667C16.0914 17.8418 14.9044 18.3335 13.6667 18.3335C11.6667 18.3335 9.93337 17.0535 9.28004 15.2668L8.33337 14.9335L4.77337 16.3135L4.66671 16.3335C4.5783 16.3335 4.49352 16.2984 4.43101 16.2359C4.36849 16.1734 4.33337 16.0886 4.33337 16.0002V5.92016C4.33337 5.76683 4.43337 5.64683 4.57337 5.60016L8.33337 4.3335L12.3334 5.7335L15.8934 4.3535L16 4.3335C16.0884 4.3335 16.1732 4.36862 16.2357 4.43113C16.2983 4.49364 16.3334 4.57842 16.3334 4.66683V9.8335C17.54 10.6668 18.3334 12.0802 18.3334 13.6668ZM9.00004 13.6668C9.00004 11.8068 10.0867 10.2002 11.6667 9.44683V6.9135L9.00004 5.98016V13.7535V13.6668ZM13.6667 10.3335C12.7827 10.3335 11.9348 10.6847 11.3097 11.3098C10.6846 11.9349 10.3334 12.7828 10.3334 13.6668C10.3334 14.5509 10.6846 15.3987 11.3097 16.0239C11.9348 16.649 12.7827 17.0002 13.6667 17.0002C14.5508 17.0002 15.3986 16.649 16.0237 16.0239C16.6489 15.3987 17 14.5509 17 13.6668C17 12.7828 16.6489 11.9349 16.0237 11.3098C15.3986 10.6847 14.5508 10.3335 13.6667 10.3335ZM5.66671 6.64016V14.5402L7.66671 13.7668V5.96683L5.66671 6.64016Z" fill="#5063F4"/>
</g>
</svg>
