<svg width="25" height="26" viewBox="0 0 25 26" fill="none" xmlns="http://www.w3.org/2000/svg">
<g id="COCO/Duotone/Setting - 5" clip-path="url(#clip0_11779_46677)">
<path id="Vector" d="M1.4411 9.60601C2.25547 6.13423 4.96626 3.42343 8.43804 2.60906C10.9453 2.02094 13.5547 2.02094 16.062 2.60906C19.5337 3.42343 22.2445 6.13423 23.0589 9.60601C23.647 12.1133 23.647 14.7227 23.0589 17.2299C22.2445 20.7017 19.5337 23.4125 16.062 24.2269C13.5547 24.815 10.9453 24.815 8.43804 24.2269C4.96626 23.4125 2.25547 20.7017 1.4411 17.2299C0.852968 14.7227 0.852968 12.1133 1.4411 9.60601Z" fill="#FDFDFD" stroke="#5063F4" stroke-width="1.35" stroke-linecap="round"/>
<g id="Layer 2">
<path id="Vector_2" d="M7.75524 19.4143C7.87232 19.6424 8.05038 19.8337 8.26961 19.9667C8.48885 20.0998 8.74068 20.1694 8.99713 20.1679H14.9123C15.1688 20.1694 15.4206 20.0998 15.6398 19.9667C15.8591 19.8337 16.0371 19.6424 16.1542 19.4143C16.6711 18.5287 16.9321 17.517 16.9079 16.492C16.733 14.2834 15.3739 12.467 14.4644 11.5134H14.5002C14.7365 11.5134 14.9631 11.4196 15.1301 11.2525C15.2972 11.0854 15.3911 10.8588 15.3911 10.6225C15.3911 10.3862 15.2972 10.1596 15.1301 9.99254C14.9631 9.82546 14.7365 9.7316 14.5002 9.7316H14.1732C14.5551 9.11923 15.1254 8.18916 15.3508 7.73874C15.3874 7.66566 15.3995 7.58278 15.3854 7.50229C15.3714 7.42179 15.3319 7.34793 15.2728 7.29155C14.1497 6.22216 12.3117 6.16797 11.9547 6.16797C10.7634 6.21316 9.61088 6.60341 8.63719 7.2913C8.57422 7.35104 8.5335 7.43046 8.52175 7.51646C8.51 7.60246 8.52792 7.6899 8.57256 7.76434L9.75294 9.7316H9.40927C9.17299 9.7316 8.94638 9.82546 8.77931 9.99254C8.61223 10.1596 8.51837 10.3862 8.51837 10.6225C8.51837 10.8588 8.61223 11.0854 8.77931 11.2525C8.94638 11.4196 9.17299 11.5134 9.40927 11.5134H9.44507C8.53552 12.4669 7.17641 14.2834 7.00154 16.492C6.97738 17.5171 7.23831 18.5287 7.75524 19.4143ZM9.41325 7.68107C10.1885 7.23216 11.0599 6.97519 11.9547 6.9316C12.8646 6.92132 13.7581 7.17434 14.5275 7.66019C14.1815 8.28089 13.5322 9.31896 13.2717 9.7316H10.6437L9.41325 7.68107ZM9.282 10.6225C9.28207 10.5888 9.2955 10.5564 9.31935 10.5326C9.3432 10.5087 9.37554 10.4953 9.40927 10.4952H14.5002C14.5339 10.4952 14.5663 10.5086 14.5902 10.5325C14.614 10.5564 14.6274 10.5888 14.6274 10.6225C14.6274 10.6563 14.614 10.6886 14.5902 10.7125C14.5663 10.7364 14.5339 10.7498 14.5002 10.7498H9.40927C9.37554 10.7497 9.3432 10.7363 9.31935 10.7124C9.2955 10.6886 9.28207 10.6562 9.282 10.6225ZM10.5453 11.5134H13.3642C13.8439 11.8888 15.9394 13.9343 16.1463 16.5521C16.157 17.4357 15.9249 18.3052 15.4751 19.0658C15.4217 19.1687 15.3408 19.2548 15.2415 19.3145C15.1422 19.3743 15.0282 19.4054 14.9123 19.4043H8.99713C8.88121 19.4054 8.76727 19.3743 8.66794 19.3145C8.5686 19.2548 8.48776 19.1687 8.43437 19.0658C7.9846 18.3052 7.75243 17.4357 7.7632 16.5521C7.97 13.9343 10.0655 11.8888 10.5453 11.5134Z" fill="#5063F4"/>
<path id="Vector_3" d="M11.1152 16.4773C11.1152 16.3761 11.075 16.279 11.0034 16.2074C10.9318 16.1357 10.8346 16.0955 10.7334 16.0955C10.6321 16.0955 10.535 16.1357 10.4634 16.2074C10.3918 16.279 10.3516 16.3761 10.3516 16.4773C10.3696 16.8089 10.5008 17.1243 10.7231 17.371C10.9455 17.6176 11.2456 17.7806 11.5736 17.8328V18.2592C11.5736 18.3604 11.6138 18.4575 11.6854 18.5291C11.757 18.6007 11.8541 18.641 11.9554 18.641C12.0567 18.641 12.1538 18.6007 12.2254 18.5291C12.297 18.4575 12.3372 18.3604 12.3372 18.2592V17.8328C12.6652 17.7806 12.9653 17.6176 13.1877 17.371C13.41 17.1243 13.5412 16.8089 13.5592 16.4773C13.5412 16.1457 13.41 15.8304 13.1877 15.5837C12.9653 15.3371 12.6652 15.1741 12.3372 15.1218V13.8799C12.4606 13.9174 12.5701 13.9908 12.6517 14.0907C12.7333 14.1906 12.7834 14.3125 12.7956 14.441C12.7956 14.5422 12.8358 14.6394 12.9074 14.711C12.979 14.7826 13.0761 14.8228 13.1774 14.8228C13.2787 14.8228 13.3758 14.7826 13.4474 14.711C13.519 14.6394 13.5592 14.5422 13.5592 14.441C13.5412 14.1094 13.41 13.794 13.1877 13.5474C12.9653 13.3007 12.6652 13.1377 12.3372 13.0855V12.6592C12.3372 12.5579 12.297 12.4608 12.2254 12.3892C12.1538 12.3176 12.0567 12.2773 11.9554 12.2773C11.8541 12.2773 11.757 12.3176 11.6854 12.3892C11.6138 12.4608 11.5736 12.5579 11.5736 12.6592V13.0855C11.2456 13.1377 10.9455 13.3007 10.7231 13.5474C10.5008 13.794 10.3696 14.1094 10.3516 14.441C10.3696 14.7726 10.5008 15.088 10.7231 15.3346C10.9455 15.5812 11.2456 15.7443 11.5736 15.7965V17.0384C11.4502 17.0008 11.3407 16.9274 11.2591 16.8276C11.1775 16.7277 11.1274 16.6058 11.1152 16.4773ZM12.7956 16.4773C12.7834 16.6058 12.7333 16.7277 12.6517 16.8276C12.5701 16.9274 12.4606 17.0008 12.3372 17.0384V15.9162C12.4606 15.9538 12.5701 16.0272 12.6517 16.1271C12.7333 16.227 12.7834 16.3489 12.7956 16.4773ZM11.1152 14.441C11.1274 14.3125 11.1775 14.1906 11.2591 14.0907C11.3407 13.9908 11.4502 13.9174 11.5736 13.8799V15.002C11.4502 14.9645 11.3407 14.8911 11.2591 14.7912C11.1775 14.6913 11.1274 14.5694 11.1152 14.441Z" fill="#5063F4"/>
</g>
</g>
<defs>
<clipPath id="clip0_11779_46677">
<rect width="25" height="25" fill="white" transform="translate(0 0.667969)"/>
</clipPath>
</defs>
</svg>
