<svg width="40" height="40" viewBox="0 0 40 40" fill="none" xmlns="http://www.w3.org/2000/svg">
<path d="M5.58813 14.9174C6.67396 10.2883 10.2883 6.67395 14.9174 5.58813C18.2604 4.80396 21.7396 4.80396 25.0826 5.58813C29.7117 6.67395 33.3261 10.2884 34.4119 14.9174C35.196 18.2604 35.196 21.7396 34.4119 25.0826C33.3261 29.7117 29.7117 33.3261 25.0826 34.4119C21.7396 35.1961 18.2604 35.1961 14.9174 34.4119C10.2884 33.3261 6.67396 29.7117 5.58813 25.0826C4.80396 21.7396 4.80396 18.2604 5.58813 14.9174Z" fill="#EFF2FE" stroke="#5063F4" stroke-width="1.35"/>
<g clip-path="url(#clip0_16282_240197)">
<path fill-rule="evenodd" clip-rule="evenodd" d="M16 16.5714C16.6062 16.5714 17.1876 16.3306 17.6162 15.902C18.0449 15.4733 18.2857 14.8919 18.2857 14.2857C18.2857 13.6795 18.0449 13.0981 17.6162 12.6695C17.1876 12.2408 16.6062 12 16 12C15.3938 12 14.8124 12.2408 14.3838 12.6695C13.9551 13.0981 13.7143 13.6795 13.7143 14.2857C13.7143 14.8919 13.9551 15.4733 14.3838 15.902C14.8124 16.3306 15.3938 16.5714 16 16.5714ZM18.3371 23.4286V23.3943C18.3371 22.2629 18.9623 21.2777 19.8857 20.7634C19.6536 19.8132 19.0812 18.9809 18.277 18.4241C17.4727 17.8672 16.4923 17.6244 15.5211 17.7415C14.55 17.8586 13.6554 18.3275 13.0066 19.0596C12.3577 19.7916 11.9996 20.7361 12 21.7143V22.8571C12 23.0087 12.0602 23.154 12.1674 23.2612C12.2745 23.3684 12.4199 23.4286 12.5714 23.4286H13.7143L14.2229 27.4994C14.2401 27.6376 14.3073 27.7647 14.4116 27.8569C14.516 27.9491 14.6505 28 14.7897 28H17.2114C17.3507 28 17.4851 27.9491 17.5895 27.8569C17.6939 27.7647 17.761 27.6376 17.7783 27.4994L18.2857 23.4286H18.3371ZM23.3451 20.7851C23.2694 20.7851 23.1967 20.8152 23.1431 20.8688C23.0895 20.9224 23.0594 20.9951 23.0594 21.0709V21.8149H24.6743V21.072C24.6743 20.9962 24.6442 20.9236 24.5906 20.87C24.537 20.8164 24.4643 20.7863 24.3886 20.7863H23.3451V20.7851ZM21.3451 21.0709V21.8149C20.4731 21.8149 19.7657 22.5234 19.7657 23.3954V26.4206C19.7657 27.2926 20.4731 28 21.3451 28H26.3874C27.2594 28 27.9669 27.2926 27.9669 26.4206V23.3943C27.9669 22.5223 27.2606 21.8149 26.3886 21.8149V21.072C26.3886 20.5416 26.1779 20.0329 25.8028 19.6578C25.4277 19.2827 24.919 19.072 24.3886 19.072H23.3451C22.8147 19.072 22.306 19.2827 21.9309 19.6578C21.5559 20.0329 21.3451 20.5416 21.3451 21.072V21.0709Z" fill="#5063F4"/>
</g>
<defs>
<clipPath id="clip0_16282_240197">
<rect width="16" height="16" fill="white" transform="translate(12 12)"/>
</clipPath>
</defs>
</svg>
