<svg width="40" height="40" viewBox="0 0 40 40" fill="none" xmlns="http://www.w3.org/2000/svg">
<path d="M5.58813 14.9174C6.67396 10.2883 10.2883 6.67395 14.9174 5.58813C18.2604 4.80396 21.7396 4.80396 25.0826 5.58813C29.7117 6.67395 33.3261 10.2884 34.4119 14.9174C35.196 18.2604 35.196 21.7396 34.4119 25.0826C33.3261 29.7117 29.7117 33.3261 25.0826 34.4119C21.7396 35.196 18.2604 35.196 14.9174 34.4119C10.2884 33.3261 6.67396 29.7117 5.58813 25.0826C4.80396 21.7396 4.80396 18.2604 5.58813 14.9174Z" fill="#EFF2FE" stroke="#5063F4" stroke-width="1.35"/>
<path d="M17.5891 14.5398C18.0875 13.0815 20.1025 13.0373 20.6933 14.4073L20.7433 14.5407L21.4158 16.5073C21.5699 16.9584 21.819 17.3711 22.1462 17.7177C22.4733 18.0643 22.8711 18.3367 23.3125 18.5165L23.4933 18.584L25.46 19.2557C26.9183 19.754 26.9625 21.769 25.5933 22.3598L25.46 22.4098L23.4933 23.0823C23.0421 23.2364 22.6292 23.4854 22.2825 23.8126C21.9357 24.1397 21.6632 24.5375 21.4833 24.979L21.4158 25.159L20.7441 27.1265C20.2458 28.5848 18.2308 28.629 17.6408 27.2598L17.5891 27.1265L16.9175 25.1598C16.7634 24.7087 16.5144 24.2958 16.1872 23.949C15.8601 23.6023 15.4623 23.3297 15.0208 23.1498L14.8408 23.0823L12.8741 22.4107C11.415 21.9123 11.3708 19.8973 12.7408 19.3073L12.8741 19.2557L14.8408 18.584C15.2918 18.4299 15.7046 18.1808 16.0512 17.8536C16.3977 17.5265 16.6701 17.1287 16.85 16.6873L16.9175 16.5073L17.5891 14.5398ZM25.8333 11.6665C25.9892 11.6665 26.142 11.7102 26.2743 11.7927C26.4065 11.8752 26.513 11.9932 26.5816 12.1332L26.6216 12.2307L26.9133 13.0857L27.7691 13.3773C27.9254 13.4304 28.0623 13.5287 28.1627 13.6597C28.263 13.7907 28.3222 13.9485 28.3327 14.1132C28.3432 14.2779 28.3046 14.4419 28.2218 14.5847C28.139 14.7274 28.0157 14.8423 27.8675 14.9148L27.7691 14.9548L26.9141 15.2465L26.6225 16.1023C26.5693 16.2585 26.471 16.3954 26.3399 16.4957C26.2089 16.5959 26.051 16.655 25.8863 16.6654C25.7217 16.6759 25.5576 16.6372 25.415 16.5543C25.2723 16.4714 25.1574 16.3481 25.085 16.1998L25.045 16.1023L24.7533 15.2473L23.8975 14.9557C23.7412 14.9026 23.6043 14.8043 23.5039 14.6733C23.4036 14.5423 23.3444 14.3845 23.3339 14.2198C23.3234 14.0552 23.362 13.8911 23.4448 13.7483C23.5276 13.6056 23.6509 13.4907 23.7991 13.4182L23.8975 13.3782L24.7525 13.0865L25.0441 12.2307C25.1003 12.066 25.2066 11.9231 25.3482 11.8219C25.4897 11.7207 25.6593 11.6664 25.8333 11.6665Z" fill="#5063F4"/>
</svg>
