<svg width="60" height="60" viewBox="0 0 60 60" fill="none" xmlns="http://www.w3.org/2000/svg">
<path d="M8.88219 22.8761C10.5109 15.9325 15.9325 10.5109 22.8761 8.88219C27.8906 7.70594 33.1094 7.70594 38.1239 8.88219C45.0675 10.5109 50.4891 15.9325 52.1178 22.8761C53.2941 27.8906 53.2941 33.1094 52.1178 38.1239C50.4891 45.0675 45.0675 50.4891 38.1239 52.1178C33.1094 53.2941 27.8906 53.2941 22.8761 52.1178C15.9325 50.4891 10.5109 45.0675 8.88219 38.1239C7.70594 33.1094 7.70594 27.8906 8.88219 22.8761Z" fill="#EFF2FE" stroke="#5063F4" stroke-width="1.35"/>
<path d="M25.2 19C24.0543 19 22.9555 19.4551 22.1453 20.2653C21.3351 21.0755 20.88 22.1743 20.88 23.32C20.88 24.4657 21.3351 25.5645 22.1453 26.3747C22.9555 27.1849 24.0543 27.64 25.2 27.64C26.3457 27.64 27.4445 27.1849 28.2547 26.3747C29.0649 25.5645 29.52 24.4657 29.52 23.32C29.52 22.1743 29.0649 21.0755 28.2547 20.2653C27.4445 19.4551 26.3457 19 25.2 19ZM22.32 23.32C22.32 22.9418 22.3945 22.5673 22.5392 22.2179C22.684 21.8685 22.8961 21.551 23.1635 21.2835C23.431 21.0161 23.7485 20.804 24.0979 20.6592C24.4473 20.5145 24.8218 20.44 25.2 20.44C25.5782 20.44 25.9527 20.5145 26.3021 20.6592C26.6515 20.804 26.969 21.0161 27.2365 21.2835C27.5039 21.551 27.716 21.8685 27.8608 22.2179C28.0055 22.5673 28.08 22.9418 28.08 23.32C28.08 24.0838 27.7766 24.8164 27.2365 25.3565C26.6964 25.8966 25.9638 26.2 25.2 26.2C24.4362 26.2 23.7036 25.8966 23.1635 25.3565C22.6234 24.8164 22.32 24.0838 22.32 23.32ZM35.28 20.92C34.8388 20.92 34.4018 21.0069 33.9942 21.1758C33.5865 21.3446 33.2161 21.5921 32.9041 21.9041C32.5921 22.2161 32.3446 22.5865 32.1758 22.9942C32.0069 23.4018 31.92 23.8388 31.92 24.28C31.92 24.7212 32.0069 25.1582 32.1758 25.5658C32.3446 25.9735 32.5921 26.3439 32.9041 26.6559C33.2161 26.9679 33.5865 27.2154 33.9942 27.3842C34.4018 27.5531 34.8388 27.64 35.28 27.64C36.1711 27.64 37.0258 27.286 37.6559 26.6559C38.286 26.0258 38.64 25.1711 38.64 24.28C38.64 23.3889 38.286 22.5342 37.6559 21.9041C37.0258 21.274 36.1711 20.92 35.28 20.92ZM33.36 24.28C33.36 23.7708 33.5623 23.2824 33.9224 22.9224C34.2824 22.5623 34.7708 22.36 35.28 22.36C35.7892 22.36 36.2776 22.5623 36.6376 22.9224C36.9977 23.2824 37.2 23.7708 37.2 24.28C37.2 24.7892 36.9977 25.2776 36.6376 25.6376C36.2776 25.9977 35.7892 26.2 35.28 26.2C34.7708 26.2 34.2824 25.9977 33.9224 25.6376C33.5623 25.2776 33.36 24.7892 33.36 24.28ZM20.16 29.56C19.5871 29.56 19.0377 29.7876 18.6326 30.1926C18.2276 30.5977 18 31.1471 18 31.72V32.2298C18.0012 32.3074 18.0066 32.385 18.0163 32.4621C18.0326 32.609 18.0634 32.8106 18.1219 33.0496C18.2812 33.6798 18.5641 34.2721 18.9542 34.792C19.9277 36.0909 21.7843 37.24 25.2 37.24C26.6698 37.24 27.8515 37.0269 28.7971 36.6813C28.6719 36.2046 28.5959 35.7162 28.5706 35.224C27.768 35.5648 26.6794 35.8 25.2 35.8C22.1357 35.8 20.7523 34.7891 20.1062 33.928C19.8314 33.5617 19.6323 33.1443 19.5206 32.7002C19.4803 32.5402 19.4536 32.377 19.441 32.2125L19.44 32.1952V31.72C19.44 31.529 19.5159 31.3459 19.6509 31.2109C19.7859 31.0759 19.969 31 20.16 31H29.6688C29.9851 30.4995 30.3617 30.0397 30.7901 29.631C30.6105 29.5839 30.4256 29.56 30.24 29.56H20.16ZM42 34.84C42 36.4949 41.3426 38.0821 40.1723 39.2523C39.0021 40.4226 37.415 41.08 35.76 41.08C34.105 41.08 32.5179 40.4226 31.3477 39.2523C30.1774 38.0821 29.52 36.4949 29.52 34.84C29.52 33.185 30.1774 31.5979 31.3477 30.4277C32.5179 29.2574 34.105 28.6 35.76 28.6C37.415 28.6 39.0021 29.2574 40.1723 30.4277C41.3426 31.5979 42 33.185 42 34.84ZM36.24 31C36.24 30.8727 36.1894 30.7506 36.0994 30.6606C36.0094 30.5706 35.8873 30.52 35.76 30.52C35.6327 30.52 35.5106 30.5706 35.4206 30.6606C35.3306 30.7506 35.28 30.8727 35.28 31V34.36H31.92C31.7927 34.36 31.6706 34.4106 31.5806 34.5006C31.4906 34.5906 31.44 34.7127 31.44 34.84C31.44 34.9673 31.4906 35.0894 31.5806 35.1794C31.6706 35.2694 31.7927 35.32 31.92 35.32H35.28V38.68C35.28 38.8073 35.3306 38.9294 35.4206 39.0194C35.5106 39.1094 35.6327 39.16 35.76 39.16C35.8873 39.16 36.0094 39.1094 36.0994 39.0194C36.1894 38.9294 36.24 38.8073 36.24 38.68V35.32H39.6C39.7273 35.32 39.8494 35.2694 39.9394 35.1794C40.0294 35.0894 40.08 34.9673 40.08 34.84C40.08 34.7127 40.0294 34.5906 39.9394 34.5006C39.8494 34.4106 39.7273 34.36 39.6 34.36H36.24V31Z" fill="#5063F4"/>
</svg>
