<svg width="25" height="14" viewBox="0 0 25 14" fill="none" xmlns="http://www.w3.org/2000/svg">
<path id="Vector" d="M5.55556 2.83345V0.0556689H25V2.83345H5.55556ZM5.55556 8.389V5.61122H25V8.389H5.55556ZM5.55556 13.9446V11.1668H25V13.9446H5.55556ZM1.38889 2.83345C0.995375 2.83345 0.665282 2.70011 0.398616 2.43345C0.131949 2.16678 -0.00092112 1.83715 4.80585e-06 1.44456C4.80585e-06 1.05104 0.133338 0.720947 0.400005 0.45428C0.666671 0.187614 0.996301 0.0547429 1.38889 0.0556689C1.78241 0.0556689 2.1125 0.189002 2.37917 0.455669C2.64584 0.722336 2.77871 1.05197 2.77778 1.44456C2.77778 1.83808 2.64445 2.16817 2.37778 2.43484C2.11112 2.7015 1.78149 2.83437 1.38889 2.83345ZM1.38889 8.389C0.995375 8.389 0.665282 8.25567 0.398616 7.989C0.131949 7.72233 -0.00092112 7.3927 4.80585e-06 7.00011C4.80585e-06 6.60659 0.133338 6.2765 0.400005 6.00983C0.666671 5.74317 0.996301 5.6103 1.38889 5.61122C1.78241 5.61122 2.1125 5.74456 2.37917 6.01122C2.64584 6.27789 2.77871 6.60752 2.77778 7.00011C2.77778 7.39363 2.64445 7.72372 2.37778 7.99039C2.11112 8.25706 1.78149 8.38993 1.38889 8.389ZM1.38889 13.9446C0.995375 13.9446 0.665282 13.8112 0.398616 13.5446C0.131949 13.2779 -0.00092112 12.9483 4.80585e-06 12.5557C4.80585e-06 12.1621 0.133338 11.8321 0.400005 11.5654C0.666671 11.2987 0.996301 11.1659 1.38889 11.1668C1.78241 11.1668 2.1125 11.3001 2.37917 11.5668C2.64584 11.8334 2.77871 12.1631 2.77778 12.5557C2.77778 12.9492 2.64445 13.2793 2.37778 13.5459C2.11112 13.8126 1.78149 13.9455 1.38889 13.9446Z" fill="#D9D9D9"/>
</svg>
