<svg width="25" height="26" viewBox="0 0 25 26" fill="none" xmlns="http://www.w3.org/2000/svg">
<g clip-path="url(#clip0_11779_46721)">
<path d="M1.4411 9.10601C2.25547 5.63423 4.96626 2.92343 8.43804 2.10906C10.9453 1.52094 13.5547 1.52094 16.062 2.10906C19.5337 2.92343 22.2445 5.63423 23.0589 9.10601C23.647 11.6133 23.647 14.2227 23.0589 16.7299C22.2445 20.2017 19.5337 22.9125 16.062 23.7269C13.5547 24.315 10.9453 24.315 8.43804 23.7269C4.96626 22.9125 2.25547 20.2017 1.4411 16.7299C0.852968 14.2227 0.852968 11.6133 1.4411 9.10601Z" fill="#FDFDFD" stroke="#5063F4" stroke-width="1.35" stroke-linecap="round"/>
<path d="M12.0003 6.83398C8.77858 6.83398 6.16699 9.44557 6.16699 12.6673C6.16699 15.8891 8.77858 18.5007 12.0003 18.5007C15.2221 18.5007 17.8337 15.8891 17.8337 12.6673C17.8337 9.44557 15.2221 6.83398 12.0003 6.83398ZM12.0003 17.334L13.167 16.1673L13.7503 15.584V14.4173H12.5837V13.834L12.0003 13.2507H10.2503V15.0007L11.417 16.1673V17.2937C9.11866 17.005 7.33366 15.0427 7.33366 12.6673L7.91699 13.2507H9.08366V12.084H10.2503L12.0003 10.334V9.16732H10.8337L10.2503 8.58398V8.34423C11.3721 7.88677 12.6285 7.88677 13.7503 8.34423V9.16732L13.167 9.75065V10.9173L13.7503 11.5007L15.5762 9.67482C16.0203 10.2062 16.3404 10.8299 16.513 11.5007H15.5003L14.3337 12.6673V13.834L14.917 14.4173H16.0837L16.2505 14.5842C15.5172 16.2029 13.8897 17.334 12.0003 17.334Z" fill="#5063F4"/>
</g>
<defs>
<clipPath id="clip0_11779_46721">
<rect width="25" height="25" fill="white" transform="translate(0 0.667969)"/>
</clipPath>
</defs>
</svg>
