<svg width="10" height="10" viewBox="0 0 10 10" fill="none" xmlns="http://www.w3.org/2000/svg">
<g id="icon-park-outline:folder-withdrawal-one" clip-path="url(#clip0_10740_152696)">
<g id="Group">
<path id="Vector (Stroke)" fill-rule="evenodd" clip-rule="evenodd" d="M0.869078 1.07745C1.02536 0.921171 1.23732 0.833374 1.45833 0.833374H3.95833C4.08199 0.833374 4.19926 0.8883 4.27843 0.983297L5.19516 2.08337H8.54167C8.76268 2.08337 8.97464 2.17117 9.13092 2.32745C9.2872 2.48373 9.375 2.69569 9.375 2.91671V4.79171C9.375 5.02183 9.18845 5.20837 8.95833 5.20837C8.72821 5.20837 8.54167 5.02183 8.54167 4.79171V2.91671H5C4.87634 2.91671 4.75907 2.86178 4.67991 2.76678L3.76318 1.66671H1.45833V8.33337H4.58333C4.81345 8.33337 5 8.51992 5 8.75004C5 8.98016 4.81345 9.16671 4.58333 9.16671H1.45833C1.23732 9.16671 1.02536 9.07891 0.869078 8.92263C0.712797 8.76635 0.625 8.55439 0.625 8.33337V1.66671C0.625 1.44569 0.712797 1.23373 0.869078 1.07745ZM6.96129 6.58041C7.12401 6.74313 7.12401 7.00695 6.96129 7.16967L6.21426 7.91671L6.96129 8.66375C7.12401 8.82647 7.12401 9.09028 6.96129 9.253C6.79858 9.41572 6.53476 9.41572 6.37204 9.253L5.33037 8.21134C5.16765 8.04862 5.16765 7.7848 5.33037 7.62208L6.37204 6.58041C6.53476 6.41769 6.79858 6.41769 6.96129 6.58041Z" fill="#F4B63C"/>
<path id="Vector (Stroke)_2" fill-rule="evenodd" clip-rule="evenodd" d="M8.95801 5.83337C9.18813 5.83337 9.37467 6.01992 9.37467 6.25004V7.91671C9.37467 8.14683 9.18813 8.33337 8.95801 8.33337H5.62467C5.39456 8.33337 5.20801 8.14683 5.20801 7.91671C5.20801 7.68659 5.39456 7.50004 5.62467 7.50004H8.54134V6.25004C8.54134 6.01992 8.72789 5.83337 8.95801 5.83337Z" fill="#F4B63C"/>
</g>
</g>
<defs>
<clipPath id="clip0_10740_152696">
<rect width="10" height="10" fill="white"/>
</clipPath>
</defs>
</svg>
