<svg width="12" height="13" viewBox="0 0 12 13" fill="none" xmlns="http://www.w3.org/2000/svg">
<g id="Icons">
<path id="Vector" d="M6.74845 6.5L8.84339 4.40505C8.94282 4.3058 8.99875 4.17112 8.99887 4.03064C8.99899 3.89015 8.94331 3.75537 8.84406 3.65594C8.74481 3.55652 8.61012 3.50059 8.46964 3.50047C8.32915 3.50034 8.19437 3.55603 8.09495 3.65528L6 5.75023L3.90505 3.65528C3.80563 3.55586 3.67078 3.5 3.53017 3.5C3.38956 3.5 3.25471 3.55586 3.15528 3.65528C3.05586 3.75471 3 3.88956 3 4.03017C3 4.17078 3.05586 4.30563 3.15528 4.40505L5.25023 6.5L3.15528 8.59495C3.05586 8.69437 3 8.82922 3 8.96983C3 9.11044 3.05586 9.24529 3.15528 9.34472C3.25471 9.44414 3.38956 9.5 3.53017 9.5C3.67078 9.5 3.80563 9.44414 3.90505 9.34472L6 7.24977L8.09495 9.34472C8.19437 9.44414 8.32922 9.5 8.46983 9.5C8.61044 9.5 8.74529 9.44414 8.84472 9.34472C8.94414 9.24529 9 9.11044 9 8.96983C9 8.82922 8.94414 8.69437 8.84472 8.59495L6.74845 6.5Z" fill="#252525"/>
</g>
</svg>
