<svg width="25" height="26" viewBox="0 0 25 26" fill="none" xmlns="http://www.w3.org/2000/svg">
<g id="COCO/Duotone/Setting - 3" clip-path="url(#clip0_11779_46709)">
<path id="Vector" d="M1.4411 9.10601C2.25547 5.63423 4.96626 2.92343 8.43804 2.10906C10.9453 1.52094 13.5547 1.52094 16.062 2.10906C19.5337 2.92343 22.2445 5.63423 23.0589 9.10601C23.647 11.6133 23.647 14.2227 23.0589 16.7299C22.2445 20.2017 19.5337 22.9125 16.062 23.7269C13.5547 24.315 10.9453 24.315 8.43804 23.7269C4.96626 22.9125 2.25547 20.2017 1.4411 16.7299C0.852968 14.2227 0.852968 11.6133 1.4411 9.10601Z" fill="#FDFDFD" stroke="#5063F4" stroke-width="1.35" stroke-linecap="round"/>
<path id="Vector_2" d="M16.6667 8.79064V8.66797C16.6667 8.13754 16.456 7.62883 16.0809 7.25376C15.7058 6.87868 15.1971 6.66797 14.6667 6.66797C14.1362 6.66797 13.6275 6.87868 13.2525 7.25376C12.8774 7.62883 12.6667 8.13754 12.6667 8.66797H11.3333C11.3333 8.13754 11.1226 7.62883 10.7475 7.25376C10.3725 6.87868 9.86377 6.66797 9.33333 6.66797C8.8029 6.66797 8.29419 6.87868 7.91912 7.25376C7.54405 7.62883 7.33333 8.13754 7.33333 8.66797V8.79064C6.94457 8.92777 6.60774 9.18181 6.36903 9.51791C6.13032 9.85401 6.00142 10.2557 6 10.668V16.668C6 17.7706 6.89733 18.668 8 18.668H16C17.1027 18.668 18 17.7706 18 16.668V10.668C17.9986 10.2557 17.8697 9.85401 17.631 9.51791C17.3923 9.18181 17.0554 8.92777 16.6667 8.79064ZM14 8.66797C14 8.49116 14.0702 8.32159 14.1953 8.19656C14.3203 8.07154 14.4899 8.0013 14.6667 8.0013C14.8435 8.0013 15.013 8.07154 15.1381 8.19656C15.2631 8.32159 15.3333 8.49116 15.3333 8.66797V10.0013C15.3333 10.1781 15.2631 10.3477 15.1381 10.4727C15.013 10.5977 14.8435 10.668 14.6667 10.668C14.4899 10.668 14.3203 10.5977 14.1953 10.4727C14.0702 10.3477 14 10.1781 14 10.0013V8.66797ZM8.66667 8.66797C8.66667 8.49116 8.7369 8.32159 8.86193 8.19656C8.98695 8.07154 9.15652 8.0013 9.33333 8.0013C9.51014 8.0013 9.67971 8.07154 9.80474 8.19656C9.92976 8.32159 10 8.49116 10 8.66797V10.0013C10 10.1781 9.92976 10.3477 9.80474 10.4727C9.67971 10.5977 9.51014 10.668 9.33333 10.668C9.15652 10.668 8.98695 10.5977 8.86193 10.4727C8.7369 10.3477 8.66667 10.1781 8.66667 10.0013V8.66797ZM16.6667 16.668C16.6667 17.0353 16.368 17.3346 16 17.3346H8C7.632 17.3346 7.33333 17.0353 7.33333 16.668V12.668H16.6667V16.668Z" fill="#5063F4"/>
</g>
<defs>
<clipPath id="clip0_11779_46709">
<rect width="25" height="25" fill="white" transform="translate(0 0.667969)"/>
</clipPath>
</defs>
</svg>
