<svg width="29" height="11" viewBox="0 0 29 11" fill="none" xmlns="http://www.w3.org/2000/svg">
<path d="M0.00380473 10.6635V0.793452H4.02181C5.0858 0.793452 5.90247 1.01745 6.47181 1.46545C7.04114 1.91345 7.32581 2.54345 7.32581 3.35545C7.32581 3.97145 7.13914 4.48479 6.7658 4.89545C6.40181 5.30612 5.90247 5.58145 5.2678 5.72145V5.51145C5.9958 5.59545 6.56047 5.84745 6.9618 6.26745C7.37247 6.68745 7.57781 7.24279 7.57781 7.93345C7.57781 8.81079 7.28381 9.48745 6.6958 9.96345C6.10781 10.4301 5.27714 10.6635 4.2038 10.6635H0.00380473ZM1.2638 9.62745H4.0778C4.76847 9.62745 5.30981 9.49679 5.70181 9.23545C6.10314 8.96479 6.3038 8.52145 6.3038 7.90545C6.3038 7.28012 6.10314 6.83679 5.70181 6.57545C5.30981 6.31412 4.76847 6.18345 4.0778 6.18345H1.2638V9.62745ZM1.2638 5.14745H3.8398C4.57714 5.14745 5.1278 5.00745 5.4918 4.72745C5.8558 4.43812 6.0378 4.02279 6.0378 3.48145C6.0378 2.94012 5.8558 2.52945 5.4918 2.24945C5.1278 1.96012 4.57714 1.81545 3.8398 1.81545H1.2638V5.14745ZM12.6264 10.7895C11.5064 10.7895 10.6198 10.4675 9.96645 9.82345C9.32245 9.17945 9.00045 8.29279 9.00045 7.16345C9.00045 6.41679 9.14045 5.77279 9.42045 5.23145C9.70978 4.68079 10.1064 4.25612 10.6104 3.95745C11.1144 3.64945 11.7024 3.49545 12.3744 3.49545C13.0184 3.49545 13.5644 3.63545 14.0124 3.91545C14.4604 4.18612 14.8011 4.57345 15.0344 5.07745C15.2678 5.58145 15.3844 6.17879 15.3844 6.86945V7.28945H9.99445V6.53345H14.5164L14.2784 6.71545C14.2784 5.98745 14.1151 5.42279 13.7884 5.02145C13.4711 4.62012 12.9998 4.41945 12.3744 4.41945C11.6931 4.41945 11.1658 4.65745 10.7924 5.13345C10.4191 5.60012 10.2324 6.23945 10.2324 7.05145V7.17745C10.2324 8.03612 10.4424 8.68479 10.8624 9.12345C11.2918 9.56212 11.8844 9.78145 12.6404 9.78145C13.0604 9.78145 13.4524 9.72079 13.8164 9.59945C14.1804 9.47812 14.5304 9.27745 14.8664 8.99745L15.2864 9.87945C14.9691 10.1688 14.5724 10.3928 14.0964 10.5515C13.6298 10.7101 13.1398 10.7895 12.6264 10.7895ZM19.6677 10.7895C18.9303 10.7895 18.3703 10.5888 17.9877 10.1875C17.6143 9.77679 17.4277 9.16079 17.4277 8.33945V4.60145H16.0557V3.62145H17.4277V1.73145L18.7017 1.38145V3.62145H20.6897V4.60145H18.7017V8.22745C18.7017 8.76879 18.795 9.15612 18.9817 9.38945C19.1777 9.61345 19.4577 9.72545 19.8217 9.72545C20.0083 9.72545 20.167 9.71145 20.2977 9.68345C20.4377 9.64612 20.5637 9.60412 20.6757 9.55745V10.6075C20.5357 10.6635 20.3723 10.7055 20.1857 10.7335C20.0083 10.7708 19.8357 10.7895 19.6677 10.7895ZM24.7139 10.7895C24.0979 10.7895 23.5566 10.6448 23.0899 10.3555C22.6232 10.0661 22.2592 9.64612 21.9979 9.09545C21.7366 8.54479 21.6059 7.89145 21.6059 7.13545C21.6059 6.37945 21.7366 5.73079 21.9979 5.18945C22.2592 4.63879 22.6232 4.21879 23.0899 3.92945C23.5566 3.64012 24.0979 3.49545 24.7139 3.49545C25.3392 3.49545 25.8806 3.65412 26.3379 3.97145C26.8046 4.27945 27.1126 4.70412 27.2619 5.24545H27.0939L27.2479 3.62145H28.4799C28.4519 3.90145 28.4239 4.18145 28.3959 4.46145C28.3772 4.74145 28.3679 5.01679 28.3679 5.28745V10.6635H27.0939V9.05345H27.2479C27.0986 9.58545 26.7906 10.0101 26.3239 10.3275C25.8666 10.6355 25.3299 10.7895 24.7139 10.7895ZM25.0079 9.78145C25.6426 9.78145 26.1512 9.55745 26.5339 9.10945C26.9166 8.66145 27.1079 8.00345 27.1079 7.13545C27.1079 6.26745 26.9166 5.61412 26.5339 5.17545C26.1512 4.73679 25.6426 4.51745 25.0079 4.51745C24.3732 4.51745 23.8599 4.73679 23.4679 5.17545C23.0852 5.61412 22.8939 6.26745 22.8939 7.13545C22.8939 8.00345 23.0852 8.66145 23.4679 9.10945C23.8506 9.55745 24.3639 9.78145 25.0079 9.78145Z" fill="#F4F5F6"/>
</svg>
