<svg width="300" height="300" viewBox="0 0 300 300" fill="none" xmlns="http://www.w3.org/2000/svg">
<path d="M21.2031 254.34V269.4H24.6771C24.495 267.815 24.495 266.215 24.6771 264.63C25.0071 262.86 28.7811 258.288 28.6671 254.364L21.2031 254.34Z" fill="#EBEBEB"/>
<path d="M48.9961 254.34V269.4H52.4701C52.2879 267.815 52.2879 266.215 52.4701 264.63C52.8001 262.86 56.5741 258.288 56.4601 254.364L48.9961 254.34Z" fill="#E0E0E0"/>
<path d="M76.199 254.34V269.4H72.719C72.8979 267.815 72.8979 266.215 72.719 264.63C72.383 262.86 68.615 258.288 68.723 254.364L76.199 254.34Z" fill="#EBEBEB"/>
<path d="M100.248 254.34V269.4H96.7738C96.9527 267.815 96.9527 266.215 96.7738 264.63C96.4438 262.86 92.6698 258.288 92.7838 254.364L100.248 254.34Z" fill="#E0E0E0"/>
<path d="M102.072 180.078H18.8398V254.82H102.072V180.078Z" fill="#F5F5F5"/>
<path d="M79.6504 180.078L80.2684 254.82H102.072V180.078H79.6504Z" fill="#E0E0E0"/>
<path d="M76.02 185.58H22.584V204.6H76.02V185.58Z" fill="#EBEBEB"/>
<path d="M76.02 208.386H22.584V227.406H76.02V208.386Z" fill="#EBEBEB"/>
<path d="M76.02 231.198H22.584V250.218H76.02V231.198Z" fill="#EBEBEB"/>
<path d="M43.0677 158.604L40.7637 179.994H70.2957L72.7437 158.604H43.0677Z" fill="#E0E0E0"/>
<path d="M44.285 160.14L42.041 178.854H68.693L70.847 160.14H44.285Z" fill="white"/>
<path d="M48.7687 163.29L47.3887 175.71H64.2067L65.0707 163.29H48.7687Z" fill="#EBEBEB"/>
<path d="M71.6869 167.814L77.7889 180.078L70.2949 179.994L71.6869 167.814Z" fill="#EBEBEB"/>
<path d="M51.2577 196.08C51.2589 196.467 51.1452 196.846 50.931 197.168C50.7168 197.491 50.4117 197.742 50.0544 197.891C49.6971 198.04 49.3036 198.08 48.9238 198.005C48.544 197.93 48.1949 197.744 47.9207 197.471C47.6466 197.198 47.4597 196.849 47.3837 196.47C47.3078 196.09 47.3462 195.697 47.494 195.339C47.6419 194.981 47.8926 194.675 48.2144 194.46C48.5362 194.245 48.9146 194.13 49.3017 194.13C49.8194 194.13 50.316 194.335 50.6827 194.701C51.0493 195.066 51.2561 195.562 51.2577 196.08Z" fill="#E0E0E0"/>
<path d="M51.2577 219.12C51.2577 219.507 51.143 219.885 50.9281 220.207C50.7131 220.528 50.4076 220.779 50.0502 220.927C49.6928 221.075 49.2995 221.114 48.9201 221.038C48.5407 220.963 48.1922 220.776 47.9186 220.503C47.6451 220.229 47.4588 219.881 47.3833 219.501C47.3078 219.122 47.3465 218.729 47.4946 218.371C47.6426 218.014 47.8933 217.708 48.215 217.493C48.5367 217.279 48.9148 217.164 49.3017 217.164C49.5588 217.163 49.8135 217.213 50.0512 217.311C50.2888 217.409 50.5048 217.553 50.6866 217.735C50.8684 217.917 51.0124 218.133 51.1104 218.37C51.2084 218.608 51.2585 218.863 51.2577 219.12Z" fill="#E0E0E0"/>
<path d="M51.2577 242.154C51.2577 242.541 51.143 242.919 50.9281 243.241C50.7131 243.562 50.4076 243.813 50.0502 243.961C49.6928 244.109 49.2995 244.148 48.9201 244.072C48.5407 243.997 48.1922 243.811 47.9186 243.537C47.6451 243.264 47.4588 242.915 47.3833 242.536C47.3078 242.156 47.3465 241.763 47.4946 241.405C47.6426 241.048 47.8933 240.743 48.215 240.528C48.5367 240.313 48.9148 240.198 49.3017 240.198C49.8205 240.198 50.318 240.404 50.6848 240.771C51.0516 241.138 51.2577 241.635 51.2577 242.154Z" fill="#E0E0E0"/>
<path d="M75.9361 58.5778L28.7461 58.1218L30.0601 119.622L77.2501 119.796L75.9361 58.5778Z" fill="#E0E0E0"/>
<path d="M72.894 61.32L31.584 60.252L32.778 116.028L74.076 116.538L72.894 61.32Z" fill="#FAFAFA"/>
<path d="M65.8437 69.654L38.4297 69.198L39.2697 108.186L66.6537 107.598L65.8437 69.654Z" fill="#EBEBEB"/>
<path d="M39.2697 108.186L66.2277 87.57L38.4297 69.198L39.2697 108.186Z" fill="#F5F5F5"/>
<path d="M279.006 26.5199L237.6 26.1179L238.758 80.0759L280.152 80.2259L279.006 26.5199Z" fill="#E0E0E0"/>
<path d="M276.33 28.932L240.09 27.99L241.14 76.92L277.368 77.364L276.33 28.932Z" fill="#FAFAFA"/>
<path d="M270.144 36.2399L246.102 35.8379L246.834 70.0379L270.858 69.5279L270.144 36.2399Z" fill="#EBEBEB"/>
<path d="M246.834 70.0379L270.486 51.9539L246.102 35.8379L246.834 70.0379Z" fill="#F5F5F5"/>
<path d="M232.627 229.38C232.453 229.908 238.627 253.38 238.627 253.38L242.863 252.498L237.037 229.38H232.627Z" fill="#EBEBEB"/>
<path d="M265.452 226.026L256.98 253.38H261.924L270.042 227.97L265.452 226.026Z" fill="#F5F5F5"/>
<path d="M273.216 221.79L263.508 253.38H268.452L277.806 223.734L273.216 221.79Z" fill="#EBEBEB"/>
<path d="M235.625 251.442L240.569 268.56H265.451L270.041 251.442H235.625Z" fill="#E0E0E0"/>
<path d="M248.46 251.442C248.439 251.383 248.421 251.323 248.406 251.262L248.274 250.74C248.16 250.26 248.004 249.582 247.8 248.718L246.09 241.242L240.504 216.312L240.654 216.438H236.298L236.448 216.246C238.662 226.056 240.648 234.846 242.07 241.194C242.766 244.356 243.33 246.906 243.726 248.694C243.906 249.564 244.056 250.242 244.158 250.728C244.2 250.95 244.236 251.124 244.26 251.256C244.27 251.318 244.27 251.38 244.26 251.442C244.239 251.383 244.221 251.323 244.206 251.262C244.17 251.13 244.128 250.956 244.074 250.74C243.954 250.26 243.792 249.582 243.582 248.718C243.168 246.918 242.574 244.392 241.836 241.242C240.378 234.894 238.368 226.116 236.124 216.312L236.076 216.126H240.756L240.786 216.246C242.94 226.056 244.878 234.846 246.276 241.194C246.954 244.356 247.506 246.906 247.89 248.694C248.07 249.564 248.208 250.242 248.31 250.728L248.412 251.256C248.438 251.315 248.454 251.378 248.46 251.442Z" fill="#E0E0E0"/>
<path d="M272.779 269.274C272.779 269.358 215.815 269.43 145.579 269.43C75.3429 269.43 18.3789 269.358 18.3789 269.274C18.3789 269.19 75.3309 269.118 145.609 269.118C215.887 269.118 272.779 269.19 272.779 269.274Z" fill="#263238"/>
<path d="M256.398 105.51C256.261 105.452 256.119 105.408 255.973 105.378C255.544 105.282 255.099 105.282 254.671 105.378C253.976 105.557 253.33 105.889 252.781 106.35C252.033 106.997 251.386 107.751 250.861 108.588C249.631 110.472 248.665 113.076 247.537 116.112C246.231 119.579 245.102 123.109 244.153 126.69C243.976 127.02 243.74 127.315 243.457 127.56C243.31 127.693 243.137 127.793 242.949 127.853C242.76 127.913 242.561 127.932 242.365 127.908C241.979 127.81 241.631 127.601 241.363 127.308C241.081 127.05 240.817 126.774 240.553 126.492C240.032 125.919 239.476 125.378 238.891 124.872C238.324 124.327 237.57 124.02 236.785 124.014C236.391 124.081 236.017 124.23 235.685 124.451C235.353 124.672 235.072 124.961 234.859 125.298C234.433 126.027 234.203 126.854 234.193 127.698C234.091 129.414 234.589 131.148 234.889 132.942C235.189 134.736 235.567 136.578 235.915 138.456C236.095 139.398 236.268 140.346 236.448 141.306L236.719 142.758C236.801 143.012 236.828 143.28 236.798 143.545C236.768 143.81 236.682 144.065 236.545 144.294C236.454 144.414 236.33 144.505 236.187 144.553C236.045 144.601 235.891 144.605 235.747 144.564C235.487 144.489 235.245 144.364 235.033 144.198L233.833 143.286C233.016 142.669 232.167 142.096 231.289 141.57C230.41 141.023 229.45 140.618 228.445 140.37C227.947 140.253 227.43 140.253 226.933 140.37C226.437 140.495 226.001 140.788 225.697 141.198C225.119 142.089 224.836 143.138 224.887 144.198C224.888 145.29 224.995 146.379 225.205 147.45C225.637 149.652 226.249 151.815 227.035 153.918C227.263 154.455 227.438 155.014 227.557 155.586C227.585 155.748 227.58 155.914 227.542 156.074C227.504 156.234 227.433 156.384 227.335 156.516C227.281 156.578 227.223 156.637 227.161 156.69C227.093 156.751 227.013 156.798 226.927 156.828C226.744 156.855 226.557 156.813 226.405 156.708C225.906 156.388 225.442 156.018 225.019 155.604L223.735 154.404C222.894 153.59 221.98 152.855 221.005 152.208C220.518 151.889 219.986 151.646 219.427 151.488C219.161 151.405 218.88 151.38 218.604 151.415C218.328 151.449 218.062 151.541 217.825 151.686C217.361 152.022 217.039 152.518 216.919 153.078C216.774 153.651 216.702 154.239 216.703 154.83C216.708 156.044 216.859 157.252 217.153 158.43C217.745 160.824 218.621 163.138 219.763 165.324C220.898 167.565 222.196 169.721 223.645 171.774C224.37 172.816 225.151 173.817 225.985 174.774C226.789 175.77 227.605 176.76 228.421 177.774V177.81L228.277 177.75L232.093 177.198C233.357 177.047 234.613 176.831 235.855 176.55C238.303 175.999 240.709 175.275 243.055 174.384C245.369 173.528 247.574 172.402 249.625 171.03C250.631 170.363 251.552 169.576 252.367 168.684C252.768 168.247 253.113 167.761 253.393 167.238C253.679 166.743 253.773 166.16 253.657 165.6C253.579 165.332 253.446 165.084 253.265 164.871C253.083 164.659 252.859 164.488 252.607 164.37C252.085 164.115 251.529 163.937 250.957 163.842C249.799 163.667 248.628 163.597 247.459 163.632H245.707C245.104 163.655 244.501 163.617 243.907 163.518C243.722 163.494 243.554 163.4 243.439 163.254C243.395 163.172 243.368 163.082 243.361 162.99C243.351 162.908 243.351 162.826 243.361 162.744C243.379 162.581 243.429 162.424 243.508 162.281C243.588 162.138 243.694 162.012 243.823 161.91C244.295 161.568 244.799 161.273 245.329 161.028C247.325 160.001 249.234 158.811 251.035 157.47C251.906 156.82 252.71 156.084 253.435 155.274C254.184 154.525 254.679 153.559 254.851 152.514C254.901 152.005 254.774 151.494 254.491 151.068C254.204 150.645 253.821 150.296 253.375 150.048C252.47 149.55 251.491 149.2 250.477 149.01C249.473 148.808 248.46 148.662 247.441 148.572L245.929 148.428C245.659 148.413 245.395 148.341 245.155 148.218C245.02 148.149 244.91 148.041 244.839 147.908C244.767 147.775 244.737 147.624 244.753 147.474C244.808 147.214 244.917 146.969 245.073 146.754C245.229 146.539 245.428 146.359 245.659 146.226L246.859 145.338L249.169 143.58L253.633 140.19C255.067 139.068 256.597 138.12 257.677 136.776C258.229 136.148 258.609 135.387 258.781 134.568C258.85 134.174 258.836 133.77 258.739 133.383C258.642 132.995 258.464 132.632 258.216 132.318C257.955 132.029 257.615 131.82 257.239 131.718C256.862 131.606 256.473 131.542 256.081 131.526C255.308 131.506 254.534 131.534 253.765 131.61C253.381 131.61 252.997 131.664 252.619 131.67C252.225 131.7 251.831 131.614 251.485 131.424C251.319 131.312 251.18 131.166 251.076 130.995C250.973 130.824 250.907 130.633 250.885 130.434C250.84 130.061 250.863 129.683 250.951 129.318C252.668 126.064 254.22 122.726 255.601 119.316C256.801 116.316 257.839 113.736 258.211 111.516C258.392 110.547 258.433 109.557 258.331 108.576C258.253 107.863 258.013 107.178 257.629 106.572C257.396 106.201 257.08 105.891 256.705 105.666C256.577 105.588 256.442 105.522 256.303 105.468C256.448 105.507 256.587 105.566 256.716 105.642C257.103 105.863 257.431 106.171 257.677 106.542C258.068 107.153 258.316 107.844 258.403 108.564C258.519 109.553 258.489 110.554 258.312 111.534C257.953 113.76 256.933 116.334 255.739 119.334C254.387 122.783 252.861 126.162 251.167 129.456C251.083 129.793 251.063 130.143 251.107 130.488C251.123 130.658 251.175 130.822 251.26 130.97C251.345 131.118 251.46 131.246 251.598 131.346C251.912 131.512 252.265 131.585 252.619 131.556C252.991 131.556 253.369 131.52 253.753 131.49C254.532 131.411 255.315 131.381 256.098 131.4C256.505 131.416 256.908 131.483 257.299 131.598C257.711 131.708 258.085 131.93 258.379 132.24C258.64 132.576 258.829 132.963 258.932 133.377C259.035 133.79 259.051 134.22 258.979 134.64C258.804 135.5 258.407 136.298 257.827 136.956C256.717 138.336 255.175 139.296 253.753 140.424L249.295 143.82L246.991 145.572L245.821 146.466C245.623 146.598 245.443 146.755 245.287 146.934C245.142 147.105 245.047 147.313 245.011 147.534C245 147.634 245.02 147.734 245.068 147.822C245.117 147.91 245.191 147.981 245.281 148.026C245.493 148.129 245.723 148.188 245.959 148.2L247.471 148.344C248.498 148.431 249.52 148.578 250.531 148.782C251.58 148.976 252.593 149.334 253.531 149.844C254.009 150.119 254.419 150.499 254.73 150.954C255.043 151.431 255.187 152 255.139 152.568C254.96 153.674 254.442 154.697 253.657 155.496C252.911 156.32 252.087 157.07 251.197 157.734C249.384 159.089 247.464 160.293 245.455 161.334C244.944 161.566 244.458 161.847 244.003 162.174C243.903 162.25 243.82 162.346 243.758 162.455C243.696 162.565 243.657 162.685 243.643 162.81C243.637 162.87 243.637 162.93 243.643 162.99C243.643 163.038 243.643 163.152 243.685 163.146C243.762 163.215 243.858 163.259 243.961 163.272C244.524 163.363 245.094 163.399 245.665 163.38H247.416C248.604 163.337 249.794 163.407 250.969 163.59C251.574 163.684 252.161 163.873 252.709 164.148C252.998 164.286 253.255 164.485 253.461 164.73C253.668 164.975 253.821 165.261 253.909 165.57C254.045 166.2 253.942 166.859 253.621 167.418C253.331 167.964 252.972 168.47 252.553 168.924C251.722 169.836 250.783 170.642 249.757 171.324C247.688 172.715 245.46 173.853 243.121 174.714C240.756 175.616 238.33 176.346 235.861 176.898C234.615 177.18 233.355 177.397 232.087 177.546L228.265 178.104H228.175L228.121 178.032H228.091L225.655 175.032C224.821 174.073 224.038 173.072 223.309 172.032C221.848 169.964 220.541 167.792 219.397 165.534C218.25 163.324 217.37 160.986 216.775 158.568C216.471 157.374 216.316 156.146 216.312 154.914C216.313 154.295 216.39 153.678 216.541 153.078C216.682 152.449 217.049 151.894 217.573 151.518C217.846 151.349 218.152 151.24 218.471 151.199C218.789 151.157 219.113 151.184 219.421 151.278C220.008 151.444 220.566 151.699 221.077 152.034C222.068 152.69 222.996 153.437 223.848 154.266L225.133 155.466C225.541 155.862 225.987 156.218 226.465 156.528C226.55 156.59 226.653 156.623 226.759 156.624C226.759 156.624 226.849 156.57 226.891 156.54L227.023 156.408C227.095 156.307 227.147 156.192 227.173 156.07C227.2 155.948 227.202 155.822 227.179 155.7C227.065 155.15 226.896 154.614 226.675 154.098C225.886 151.98 225.272 149.8 224.839 147.582C224.625 146.493 224.519 145.386 224.521 144.276C224.473 143.154 224.779 142.046 225.397 141.108C225.739 140.653 226.225 140.327 226.777 140.184C227.315 140.058 227.876 140.058 228.415 140.184C229.446 140.428 230.432 140.833 231.337 141.384C232.225 141.912 233.083 142.491 233.905 143.118L235.105 144.03C235.283 144.175 235.487 144.286 235.705 144.36C235.801 144.388 235.904 144.386 236 144.354C236.095 144.322 236.179 144.261 236.239 144.18C236.357 144.001 236.425 143.794 236.437 143.58C236.443 143.342 236.416 143.103 236.359 142.872C236.269 142.386 236.185 141.906 236.095 141.426C235.915 140.466 235.74 139.512 235.566 138.576C235.224 136.692 234.883 134.856 234.553 133.062C234.223 131.268 233.76 129.528 233.863 127.758C233.88 126.881 234.124 126.023 234.571 125.268C234.802 124.903 235.108 124.591 235.469 124.353C235.83 124.115 236.238 123.956 236.665 123.888C237.089 123.853 237.516 123.938 237.895 124.134C238.263 124.313 238.607 124.536 238.921 124.8C239.514 125.313 240.075 125.862 240.601 126.444C240.857 126.724 241.121 126.994 241.393 127.254C241.637 127.513 241.948 127.698 242.293 127.788C242.462 127.807 242.634 127.789 242.797 127.737C242.959 127.684 243.108 127.597 243.235 127.482C243.497 127.255 243.717 126.983 243.883 126.678C244.844 123.091 245.989 119.557 247.315 116.088C248.455 113.058 249.439 110.448 250.693 108.564C251.229 107.722 251.888 106.966 252.648 106.32C253.208 105.856 253.867 105.528 254.575 105.36C255.009 105.258 255.46 105.258 255.895 105.36C256.07 105.381 256.24 105.432 256.398 105.51Z" fill="#263238"/>
<path d="M253.248 113.67C253.238 113.738 253.218 113.805 253.188 113.868L252.984 114.432C252.786 114.942 252.51 115.668 252.162 116.586C251.43 118.476 250.392 121.182 249.108 124.512L239.142 150.696C235.266 160.896 231.714 170.178 229.086 176.85C227.778 180.186 226.686 182.88 225.942 184.74C225.57 185.652 225.276 186.366 225.066 186.87C224.964 187.104 224.892 187.284 224.832 187.428L224.742 187.608C224.753 187.541 224.773 187.477 224.802 187.416C224.85 187.272 224.922 187.086 225.006 186.852C225.204 186.336 225.48 185.616 225.828 184.692C226.56 182.802 227.598 180.102 228.882 176.772L238.848 150.6C242.724 140.37 246.27 131.124 248.904 124.452C250.212 121.116 251.304 118.416 252.048 116.562C252.42 115.65 252.714 114.93 252.924 114.426C253.026 114.198 253.098 114.012 253.158 113.874L253.248 113.67Z" fill="#263238"/>
<path d="M253.572 134.4C253.098 134.74 252.596 135.039 252.072 135.294L248.4 137.334C246.96 138.132 245.652 138.846 244.686 139.332C244.178 139.62 243.641 139.853 243.084 140.028C243.562 139.694 244.063 139.396 244.584 139.134L248.244 137.064C249.684 136.266 250.998 135.57 251.97 135.096C252.481 134.813 253.017 134.58 253.572 134.4Z" fill="#263238"/>
<path d="M242.598 139.644C242.52 139.68 241.092 136.956 239.412 133.56C237.732 130.164 236.412 127.38 236.502 127.338C236.592 127.296 238.008 130.026 239.694 133.422C241.38 136.818 242.676 139.602 242.598 139.644Z" fill="#263238"/>
<path d="M237.354 155.622C236.874 155.268 236.432 154.866 236.034 154.422C235.254 153.642 234.234 152.532 233.124 151.248C232.014 149.964 231.114 148.752 230.478 147.852C230.104 147.387 229.78 146.885 229.512 146.352C229.924 146.78 230.305 147.237 230.652 147.72C231.336 148.584 232.278 149.766 233.364 151.044C234.45 152.322 235.458 153.444 236.19 154.266C236.611 154.688 237 155.141 237.354 155.622Z" fill="#263238"/>
<path d="M248.327 153.042C247.815 153.247 247.285 153.404 246.743 153.51C245.759 153.756 244.391 154.074 242.879 154.41C241.367 154.746 239.987 155.01 238.991 155.226C238.457 155.361 237.91 155.443 237.359 155.472C237.872 155.269 238.402 155.114 238.943 155.01C239.927 154.764 241.295 154.41 242.813 154.104C244.331 153.798 245.699 153.504 246.695 153.294C247.23 153.16 247.777 153.076 248.327 153.042Z" fill="#263238"/>
<path d="M245.49 167.742C244.824 167.972 244.142 168.155 243.45 168.288C242.178 168.582 240.45 168.972 238.482 169.38C236.514 169.788 234.768 170.148 233.49 170.388C232.806 170.551 232.11 170.662 231.408 170.718C232.074 170.485 232.756 170.303 233.448 170.172C234.714 169.878 236.448 169.488 238.416 169.08C240.384 168.672 242.124 168.312 243.402 168.072C244.089 167.908 244.787 167.798 245.49 167.742Z" fill="#263238"/>
<path d="M231.72 170.55C231.553 170.434 231.401 170.297 231.27 170.142C230.994 169.866 230.61 169.458 230.136 168.942C229.194 167.91 227.928 166.452 226.596 164.79C225.264 163.128 224.118 161.568 223.32 160.422C222.918 159.852 222.606 159.384 222.396 159.054C222.271 158.891 222.17 158.712 222.096 158.52C222.246 158.657 222.379 158.812 222.492 158.982L223.5 160.296C224.34 161.406 225.51 162.936 226.842 164.592C228.174 166.248 229.404 167.73 230.304 168.792C230.814 169.346 231.287 169.934 231.72 170.55Z" fill="#263238"/>
<path d="M225.72 210.744C215.304 202.344 213.792 187.986 215.1 175.26C215.322 173.136 215.238 170.874 216.378 169.074C217.518 167.274 219.978 166.164 221.82 167.19C223.35 168.042 223.908 169.932 224.688 171.51C225.732 173.619 227.35 175.391 229.356 176.622C230.664 177.42 232.314 177.966 233.7 177.318C235.608 176.43 235.998 173.91 236.13 171.792L236.868 159.948C237 157.824 237.144 155.664 237.942 153.702C238.74 151.74 240.342 149.97 242.376 149.538C244.41 149.106 246.84 150.45 247.122 152.538C247.141 153.42 247.101 154.302 247.002 155.178C247.002 156.06 247.344 157.062 248.16 157.362C248.976 157.662 249.876 157.128 250.56 156.552C252.894 154.566 254.562 151.914 256.14 149.268C257.718 146.622 259.248 143.91 261.396 141.714C263.544 139.518 266.406 137.856 269.454 137.892C272.502 137.928 275.598 140.022 276.162 143.052C276.726 146.082 274.776 149.004 272.712 151.29C269.647 154.689 266.106 157.625 262.2 160.008C261.437 160.352 260.806 160.933 260.4 161.664C259.842 163.044 261.084 164.538 262.446 165.102C263.988 165.732 265.716 165.702 267.354 165.996C268.992 166.29 270.732 167.154 271.248 168.756C271.968 170.982 270 173.124 268.116 174.492C264.361 177.221 260.166 179.287 255.714 180.6C254.112 181.062 252.438 181.446 251.106 182.454C249.774 183.462 248.886 185.316 249.546 186.858C250.206 188.4 252.12 189.018 253.746 188.826C255.372 188.634 256.92 187.848 258.516 187.368C261.516 186.468 265.248 186.93 266.916 189.57C268.026 191.31 267.978 193.62 267.222 195.57C266.378 197.463 265.165 199.169 263.652 200.586C258.66 205.811 252.369 209.617 245.424 211.614C238.512 213.492 232.224 213.696 225.672 210.78" fill="#44E0AA"/>
<g opacity="0.1">
<path d="M225.72 210.744C215.304 202.344 213.792 187.986 215.1 175.26C215.322 173.136 215.238 170.874 216.378 169.074C217.518 167.274 219.978 166.164 221.82 167.19C223.35 168.042 223.908 169.932 224.688 171.51C225.732 173.619 227.35 175.391 229.356 176.622C230.664 177.42 232.314 177.966 233.7 177.318C235.608 176.43 235.998 173.91 236.13 171.792L236.868 159.948C237 157.824 237.144 155.664 237.942 153.702C238.74 151.74 240.342 149.97 242.376 149.538C244.41 149.106 246.84 150.45 247.122 152.538C247.141 153.42 247.101 154.302 247.002 155.178C247.002 156.06 247.344 157.062 248.16 157.362C248.976 157.662 249.876 157.128 250.56 156.552C252.894 154.566 254.562 151.914 256.14 149.268C257.718 146.622 259.248 143.91 261.396 141.714C263.544 139.518 266.406 137.856 269.454 137.892C272.502 137.928 275.598 140.022 276.162 143.052C276.726 146.082 274.776 149.004 272.712 151.29C269.647 154.689 266.106 157.625 262.2 160.008C261.437 160.352 260.806 160.933 260.4 161.664C259.842 163.044 261.084 164.538 262.446 165.102C263.988 165.732 265.716 165.702 267.354 165.996C268.992 166.29 270.732 167.154 271.248 168.756C271.968 170.982 270 173.124 268.116 174.492C264.361 177.221 260.166 179.287 255.714 180.6C254.112 181.062 252.438 181.446 251.106 182.454C249.774 183.462 248.886 185.316 249.546 186.858C250.206 188.4 252.12 189.018 253.746 188.826C255.372 188.634 256.92 187.848 258.516 187.368C261.516 186.468 265.248 186.93 266.916 189.57C268.026 191.31 267.978 193.62 267.222 195.57C266.378 197.463 265.165 199.169 263.652 200.586C258.66 205.811 252.369 209.617 245.424 211.614C238.512 213.492 232.224 213.696 225.672 210.78" fill="black"/>
</g>
<path d="M224.904 220.2C225.904 214.327 227.463 208.562 229.56 202.986C232.156 196.183 235.139 189.534 238.494 183.072L241.104 177.972C241.968 176.298 242.82 174.642 243.756 173.07C245.558 170.061 247.523 167.152 249.642 164.358C251.652 161.676 253.65 159.204 255.54 156.906C257.43 154.608 259.242 152.508 260.97 150.66C263.684 147.73 266.625 145.02 269.766 142.554C270.876 141.684 271.758 141.036 272.364 140.604L273.054 140.118C273.13 140.06 273.211 140.008 273.294 139.962C273.231 140.034 273.159 140.096 273.078 140.148L272.412 140.67C271.812 141.12 270.954 141.786 269.862 142.68C266.766 145.182 263.862 147.914 261.174 150.852C259.464 152.706 257.67 154.818 255.774 157.116C253.878 159.414 251.904 161.916 249.912 164.58C247.804 167.365 245.853 170.266 244.068 173.268C243.138 174.834 242.268 176.478 241.434 178.152L238.824 183.252C235.477 189.701 232.491 196.332 229.878 203.112C227.774 208.665 226.194 214.401 225.156 220.248" fill="#263238"/>
<path d="M243.87 173.052C243.785 172.753 243.735 172.445 243.72 172.134C243.654 171.534 243.576 170.682 243.498 169.614C243.348 167.49 243.234 164.538 243.12 161.292C243.006 158.046 242.85 155.1 242.664 152.976C242.574 151.92 242.496 151.062 242.43 150.468C242.376 150.161 242.358 149.849 242.376 149.538C242.474 149.833 242.542 150.136 242.58 150.444C242.688 151.044 242.814 151.89 242.94 152.952C243.198 155.07 243.396 158.016 243.54 161.274C243.684 164.532 243.738 167.382 243.804 169.602C243.846 170.604 243.876 171.444 243.906 172.122C243.924 172.433 243.912 172.744 243.87 173.052Z" fill="#263238"/>
<path d="M271.446 169.83C271.083 169.887 270.715 169.907 270.348 169.89C269.646 169.89 268.632 169.89 267.348 169.974C264.84 170.076 261.348 170.328 257.562 170.784C253.776 171.24 250.32 171.798 247.848 172.278C246.612 172.506 245.616 172.722 244.926 172.878C244.572 172.972 244.21 173.034 243.846 173.064C244.183 172.921 244.532 172.809 244.89 172.728C245.568 172.536 246.558 172.284 247.794 172.014C250.254 171.468 253.692 170.862 257.514 170.4C260.776 170.002 264.056 169.772 267.342 169.71C268.602 169.71 269.622 169.71 270.342 169.746C270.711 169.741 271.081 169.769 271.446 169.83Z" fill="#263238"/>
<path d="M229.931 202.494C229.86 202.389 229.806 202.274 229.769 202.152L229.367 201.132C229.025 200.25 228.563 198.954 228.017 197.352C226.919 194.142 225.539 189.66 224.081 184.698C222.623 179.736 221.291 175.242 220.259 172.014C219.755 170.442 219.335 169.152 219.029 168.192L218.699 167.154C218.653 167.035 218.622 166.909 218.609 166.782C218.678 166.889 218.732 167.004 218.771 167.124C218.879 167.4 219.011 167.724 219.167 168.144C219.509 169.026 219.971 170.322 220.523 171.924C221.621 175.134 223.001 179.616 224.453 184.584C225.905 189.552 227.249 194.034 228.281 197.262C228.785 198.834 229.199 200.124 229.481 201.084L229.811 202.122C229.868 202.24 229.909 202.365 229.931 202.494Z" fill="#263238"/>
<path d="M266.916 193.314C266.799 193.376 266.674 193.419 266.544 193.44L265.47 193.722L261.51 194.712C258.162 195.546 253.56 196.752 248.472 198.096C243.384 199.44 238.764 200.604 235.398 201.372C233.718 201.756 232.356 202.056 231.408 202.242L230.316 202.452C230.19 202.483 230.061 202.498 229.932 202.494C230.048 202.438 230.171 202.398 230.298 202.374L231.378 202.092L235.338 201.102C238.68 200.268 243.288 199.056 248.376 197.712C253.464 196.368 258.084 195.204 261.444 194.436C263.124 194.052 264.492 193.758 265.434 193.572L266.526 193.362C266.653 193.331 266.784 193.315 266.916 193.314Z" fill="#263238"/>
<path d="M228.145 45.114H82.6387V244.494H228.145V45.114Z" fill="#455A64"/>
<path d="M222.39 232.638H195.444H94.7578V53.1719H222.39V210.312V232.638Z" fill="#E0E0E0"/>
<path d="M220.375 229.308H193.669H93.8887V50.802H220.375V207.102V229.308Z" fill="#EBEBEB"/>
<path d="M206.785 215.418L192.217 227.28H91.5312V51.252H219.163V205.38L206.785 215.418Z" fill="#FAFAFA"/>
<path d="M206.785 215.4C206.785 215.4 207.043 215.178 207.565 214.752L209.899 212.844L219.133 205.326V205.362C219.133 180.042 219.085 123.762 219.043 51.2341L219.181 51.3781H92.659H91.549L91.705 51.2221C91.705 117.402 91.705 178.452 91.669 227.25L91.549 227.124L192.235 227.196H192.199L203.143 218.322L205.885 216.108C206.485 215.616 206.803 215.376 206.803 215.376L205.903 216.126L203.161 218.4L192.253 227.316L91.531 227.4H91.405V227.274C91.405 178.476 91.405 117.426 91.375 51.2461V51.0901H92.641H219.163H219.307V51.2281C219.265 123.78 219.229 180.036 219.217 205.356L209.947 212.838L207.601 214.8L206.785 215.4Z" fill="#263238"/>
<path d="M138.127 38.9519H173.017C175.269 38.9519 177.429 39.8464 179.021 41.4386C180.613 43.0308 181.507 45.1902 181.507 47.4419V56.8559H129.271V47.8019C129.273 45.4542 130.207 43.2032 131.867 41.5436C133.528 39.8841 135.78 38.9519 138.127 38.9519Z" fill="#5063F4"/>
<path d="M142.068 38.952L140.16 29.292H170.238L168.564 38.952H142.068Z" fill="#5063F4"/>
<path d="M126.379 100.8H104.881V79.2959H126.379V100.8ZM105.481 100.2H125.779V79.8959H105.481V100.2Z" fill="#5063F4"/>
<path d="M202.368 84.4919C202.368 84.5759 187.398 84.6479 168.942 84.6479C150.486 84.6479 135.51 84.5759 135.51 84.4919C135.51 84.4079 150.474 84.3359 168.942 84.3359C187.41 84.3359 202.368 84.4019 202.368 84.4919Z" fill="#263238"/>
<path d="M202.368 88.956C202.368 89.046 187.398 89.1121 168.942 89.1121C150.486 89.1121 135.51 89.046 135.51 88.956C135.51 88.866 150.474 88.8 168.942 88.8C187.41 88.8 202.368 88.872 202.368 88.956Z" fill="#263238"/>
<path d="M202.368 93.426C202.368 93.51 187.398 93.582 168.942 93.582C150.486 93.582 135.51 93.51 135.51 93.426C135.51 93.342 150.474 93.27 168.942 93.27C187.41 93.27 202.368 93.342 202.368 93.426Z" fill="#263238"/>
<path d="M202.368 97.896C202.368 97.98 187.398 98.052 168.942 98.052C150.486 98.052 135.51 97.98 135.51 97.896C135.51 97.812 150.474 97.74 168.942 97.74C187.41 97.74 202.368 97.8 202.368 97.896Z" fill="#263238"/>
<path d="M126.379 133.938H104.881V112.434H126.379V133.938ZM105.481 133.338H125.779V113.034H105.481V133.338Z" fill="#5063F4"/>
<path d="M126.498 100.504H105V79H126.498V100.504ZM105.6 99.904H125.898V79.6H105.6V99.904Z" fill="#5063F4"/>
<path d="M109.152 123.63L112.008 120.564L116.766 124.368L127.656 113.796L130.266 116.874L116.556 130.398L109.152 123.63Z" fill="#5063F4"/>
<path d="M109.271 90.1963L112.127 87.1303L116.885 90.9343L127.775 80.3623L130.385 83.4403L116.675 96.9643L109.271 90.1963Z" fill="#5063F4"/>
<path d="M202.368 117.63C202.368 117.714 187.398 117.786 168.942 117.786C150.486 117.786 135.51 117.714 135.51 117.63C135.51 117.546 150.474 117.474 168.942 117.474C187.41 117.474 202.368 117.546 202.368 117.63Z" fill="#263238"/>
<path d="M202.368 122.1C202.368 122.184 187.398 122.256 168.942 122.256C150.486 122.256 135.51 122.184 135.51 122.1C135.51 122.016 150.474 121.944 168.942 121.944C187.41 121.944 202.368 122.01 202.368 122.1Z" fill="#263238"/>
<path d="M202.368 126.564C202.368 126.654 187.398 126.72 168.942 126.72C150.486 126.72 135.51 126.654 135.51 126.564C135.51 126.474 150.474 126.408 168.942 126.408C187.41 126.408 202.368 126.48 202.368 126.564Z" fill="#263238"/>
<path d="M202.368 131.034C202.368 131.118 187.398 131.19 168.942 131.19C150.486 131.19 135.51 131.118 135.51 131.034C135.51 130.95 150.474 130.878 168.942 130.878C187.41 130.878 202.368 130.95 202.368 131.034Z" fill="#263238"/>
<path d="M126.379 166.008H104.881V144.504H126.379V166.008ZM105.481 165.408H125.779V145.104H105.481V165.408Z" fill="#5063F4"/>
<path d="M109.152 155.7L112.008 152.634L116.766 156.438L127.656 145.866L130.266 148.944L116.556 162.468L109.152 155.7Z" fill="#5063F4"/>
<path d="M202.368 149.7C202.368 149.784 187.398 149.856 168.942 149.856C150.486 149.856 135.51 149.784 135.51 149.7C135.51 149.616 150.474 149.544 168.942 149.544C187.41 149.544 202.368 149.61 202.368 149.7Z" fill="#263238"/>
<path d="M202.368 154.164C202.368 154.254 187.398 154.32 168.942 154.32C150.486 154.32 135.51 154.254 135.51 154.164C135.51 154.074 150.474 154.008 168.942 154.008C187.41 154.008 202.368 154.08 202.368 154.164Z" fill="#263238"/>
<path d="M202.368 158.634C202.368 158.724 187.398 158.79 168.942 158.79C150.486 158.79 135.51 158.724 135.51 158.634C135.51 158.544 150.474 158.478 168.942 158.478C187.41 158.478 202.368 158.55 202.368 158.634Z" fill="#263238"/>
<path d="M202.368 163.104C202.368 163.188 187.398 163.26 168.942 163.26C150.486 163.26 135.51 163.188 135.51 163.104C135.51 163.02 150.474 162.948 168.942 162.948C187.41 162.948 202.368 163.02 202.368 163.104Z" fill="#263238"/>
<path d="M126.379 196.974H104.881V175.47H126.379V196.974ZM105.481 196.374H125.779V176.07H105.481V196.374Z" fill="#5063F4"/>
<path d="M109.152 186.666L112.008 183.6L116.766 187.404L127.656 176.832L130.266 179.904L116.556 193.428L109.152 186.666Z" fill="#5063F4"/>
<path d="M202.368 180.66C202.368 180.75 187.398 180.816 168.942 180.816C150.486 180.816 135.51 180.75 135.51 180.66C135.51 180.57 150.474 180.504 168.942 180.504C187.41 180.504 202.368 180.6 202.368 180.66Z" fill="#263238"/>
<path d="M202.368 185.13C202.368 185.214 187.398 185.286 168.942 185.286C150.486 185.286 135.51 185.214 135.51 185.13C135.51 185.046 150.474 184.974 168.942 184.974C187.41 184.974 202.368 185.046 202.368 185.13Z" fill="#263238"/>
<path d="M202.368 189.6C202.368 189.684 187.398 189.756 168.942 189.756C150.486 189.756 135.51 189.684 135.51 189.6C135.51 189.516 150.474 189.444 168.942 189.444C187.41 189.444 202.368 189.51 202.368 189.6Z" fill="#263238"/>
<path d="M202.368 194.064C202.368 194.154 187.398 194.22 168.942 194.22C150.486 194.22 135.51 194.154 135.51 194.064C135.51 193.974 150.474 193.908 168.942 193.908C187.41 193.908 202.368 193.98 202.368 194.064Z" fill="#263238"/>
<path d="M196.219 198.138L182.227 227.118H192.217L196.219 198.138Z" fill="#E0E0E0"/>
<path d="M192.217 227.28L196.219 198.3L219.163 205.38L192.217 227.28Z" fill="#FAFAFA"/>
<path d="M192.217 227.28L199.933 220.926L219.067 205.26L219.121 205.524L210.259 202.8L196.201 198.438L196.387 198.318C195.187 206.718 194.161 213.948 193.435 219.072C192.709 224.058 192.337 226.632 192.235 227.28C192.233 227.236 192.233 227.192 192.235 227.148L192.289 226.752C192.337 226.374 192.403 225.846 192.493 225.174C192.679 223.764 192.943 221.742 193.279 219.174C193.975 214.008 194.947 206.742 196.081 198.252V198.084L196.243 198.132L210.337 202.476L219.193 205.212L219.469 205.296L219.247 205.476C211.501 211.722 204.727 217.182 199.879 221.076L194.221 225.618L192.709 226.818L192.325 227.124L192.217 227.28Z" fill="#263238"/>
<g opacity="0.3">
<path d="M168.156 29.292L166.5 38.952H168.564L170.238 29.292H167.604" fill="black"/>
</g>
</svg>
