<svg width="244" height="165" viewBox="0 0 244 165" fill="none" xmlns="http://www.w3.org/2000/svg">
<g id="freepik--window-no-data--inject-64">
<path id="Vector" d="M1.11851 51.3593L0.121094 51.4312L1.44952 69.8734L2.44694 69.8015L1.11851 51.3593Z" fill="#5063F4"/>
<path id="Vector_2" d="M3.12437 79.3217L2.12695 79.3936L2.627 86.3356L3.62441 86.2637L3.12437 79.3217Z" fill="#5063F4"/>
<path id="Vector_3" d="M234.709 164.16H20.549C18.1651 164.117 15.8815 163.193 14.1384 161.567C12.3953 159.94 11.3161 157.725 11.109 155.35L0.588951 9.22006C0.491105 8.09308 0.630406 6.9581 0.997872 5.88823C1.36534 4.81835 1.95282 3.83731 2.72249 3.0083C3.49216 2.17928 4.42693 1.52067 5.46661 1.07489C6.50629 0.629105 7.62782 0.40604 8.75896 0.420055H222.919C225.301 0.462679 227.584 1.38515 229.326 3.00985C231.069 4.63455 232.149 6.8466 232.359 9.22006L242.879 155.35C242.977 156.478 242.837 157.613 242.47 158.683C242.103 159.754 241.515 160.735 240.746 161.565C239.976 162.395 239.042 163.054 238.002 163.501C236.962 163.948 235.841 164.173 234.709 164.16Z" fill="#5063F4"/>
<path id="Vector_4" d="M235.529 164.16H21.3693C18.9854 164.117 16.7018 163.193 14.9587 161.567C13.2156 159.94 12.1364 157.725 11.9293 155.35L1.40926 9.22006C1.31142 8.09308 1.45071 6.9581 1.81818 5.88823C2.18564 4.81835 2.77313 3.83731 3.54279 3.0083C4.31246 2.17928 5.24724 1.52067 6.28692 1.07489C7.3266 0.629105 8.44813 0.40604 9.57926 0.420055H223.739C226.122 0.462679 228.404 1.38515 230.147 3.00985C231.89 4.63455 232.97 6.8466 233.179 9.22006L243.699 155.35C243.799 156.478 243.66 157.614 243.294 158.685C242.927 159.756 242.34 160.738 241.57 161.568C240.8 162.399 239.865 163.058 238.824 163.505C237.784 163.951 236.661 164.174 235.529 164.16Z" fill="#5063F4"/>
<path id="Vector_5" opacity="0.5" d="M235.529 164.16H21.3693C18.9854 164.117 16.7018 163.193 14.9587 161.567C13.2156 159.94 12.1364 157.725 11.9293 155.35L1.40926 9.22006C1.31142 8.09308 1.45071 6.9581 1.81818 5.88823C2.18564 4.81835 2.77313 3.83731 3.54279 3.0083C4.31246 2.17928 5.24724 1.52067 6.28692 1.07489C7.3266 0.629105 8.44813 0.40604 9.57926 0.420055H223.739C226.122 0.462679 228.404 1.38515 230.147 3.00985C231.89 4.63455 232.97 6.8466 233.179 9.22006L243.699 155.35C243.799 156.478 243.66 157.614 243.294 158.685C242.927 159.756 242.34 160.738 241.57 161.568C240.8 162.399 239.865 163.058 238.824 163.505C237.784 163.951 236.661 164.174 235.529 164.16Z" fill="white"/>
<path id="Vector_6" d="M224.06 4.82031H9.90029H9.18029C3.71029 5.27031 4.83029 13.6003 10.3503 13.6003H224.87C230.4 13.6003 230.32 5.27031 224.78 4.82031H224.06Z" fill="#5063F4"/>
<path id="Vector_7" d="M15.4797 9.21991C15.5007 9.47772 15.4674 9.73705 15.382 9.9812C15.2966 10.2254 15.1609 10.4489 14.9838 10.6373C14.8066 10.8258 14.5919 10.975 14.3535 11.0754C14.1151 11.1757 13.8583 11.225 13.5997 11.2199C13.0562 11.2123 12.5348 11.0037 12.1359 10.6344C11.7371 10.2651 11.4891 9.76123 11.4397 9.21991C11.4188 8.96296 11.4518 8.70448 11.5366 8.46103C11.6214 8.21758 11.7562 7.99454 11.9323 7.80623C12.1083 7.61792 12.3218 7.46849 12.559 7.36752C12.7962 7.26655 13.0519 7.21627 13.3097 7.21991C13.8549 7.22509 14.3788 7.43256 14.7798 7.80209C15.1807 8.17163 15.4302 8.6769 15.4797 9.21991Z" fill="#FAFAFA"/>
<path id="Vector_8" d="M22.3508 9.21991C22.3718 9.47772 22.3385 9.73705 22.2531 9.9812C22.1677 10.2254 22.032 10.4489 21.8549 10.6373C21.6777 10.8258 21.463 10.975 21.2246 11.0754C20.9862 11.1757 20.7294 11.225 20.4708 11.2199C19.9273 11.2123 19.4058 11.0037 19.007 10.6344C18.6082 10.2651 18.3602 9.76123 18.3108 9.21991C18.2899 8.96296 18.3229 8.70448 18.4077 8.46103C18.4925 8.21758 18.6273 7.99454 18.8034 7.80623C18.9794 7.61792 19.1929 7.46849 19.4301 7.36752C19.6673 7.26655 19.923 7.21627 20.1808 7.21991C20.726 7.22509 21.2499 7.43256 21.6509 7.80209C22.0518 8.17163 22.3012 8.6769 22.3508 9.21991Z" fill="#FAFAFA"/>
<path id="Vector_9" d="M29.2108 9.2201C29.2318 9.47705 29.1988 9.73553 29.1139 9.97898C29.0291 10.2224 28.8943 10.4455 28.7183 10.6338C28.5422 10.8221 28.3287 10.9715 28.0915 11.0725C27.8543 11.1735 27.5986 11.2237 27.3408 11.2201C26.7967 11.2147 26.274 11.0069 25.8747 10.6371C25.4754 10.2674 25.228 9.76225 25.1808 9.2201C25.1583 8.96281 25.1902 8.70367 25.2745 8.45952C25.3587 8.21538 25.4934 7.99171 25.6698 7.80306C25.8462 7.61441 26.0603 7.46501 26.2983 7.36457C26.5362 7.26413 26.7926 7.2149 27.0508 7.2201C27.5943 7.22774 28.1158 7.43631 28.5146 7.80561C28.9135 8.17491 29.1615 8.67878 29.2108 9.2201Z" fill="#FAFAFA"/>
<path id="Vector_10" d="M229.851 149.58H25.0006C24.1352 149.566 23.3061 149.23 22.6741 148.639C22.0421 148.048 21.6524 147.243 21.5806 146.38L12.9306 26.21C12.8921 25.7977 12.9418 25.3818 13.0763 24.9901C13.2108 24.5984 13.4271 24.2398 13.7108 23.9381C13.9946 23.6364 14.3392 23.3985 14.7219 23.2402C15.1047 23.0819 15.5167 23.0069 15.9306 23.02H220.831C221.695 23.0319 222.524 23.3652 223.156 23.9549C223.789 24.5446 224.179 25.3485 224.251 26.21L232.911 146.38C232.948 146.798 232.896 147.219 232.757 147.614C232.619 148.01 232.397 148.372 232.107 148.675C231.817 148.978 231.466 149.216 231.077 149.372C230.688 149.528 230.27 149.599 229.851 149.58Z" fill="white"/>
<path id="Vector_11" d="M143.529 103.8L140.189 57.4799L130.089 51.3999H102.279L106.059 103.8H143.529Z" fill="white"/>
<path id="Vector_12" d="M143.53 104.28H106.06C105.936 104.283 105.816 104.238 105.724 104.154C105.633 104.07 105.578 103.954 105.57 103.83L101.8 51.4301C101.795 51.3644 101.804 51.2983 101.827 51.2363C101.849 51.1743 101.884 51.1177 101.93 51.0702C101.974 51.0208 102.028 50.9811 102.088 50.9535C102.149 50.926 102.214 50.9112 102.28 50.9102H130.09C130.178 50.9132 130.264 50.9372 130.34 50.9801L140.44 57.0602C140.508 57.0991 140.565 57.1541 140.607 57.2203C140.649 57.2866 140.674 57.362 140.68 57.4402L144 103.76C144.007 103.828 143.999 103.896 143.976 103.96C143.954 104.024 143.918 104.082 143.87 104.13C143.827 104.177 143.774 104.214 143.716 104.24C143.657 104.266 143.594 104.28 143.53 104.28ZM106.53 103.28H143L139.72 57.7301L130 51.8802H102.8L106.53 103.28Z" fill="#5063F4"/>
<path id="Vector_13" d="M140.19 57.4799L130.09 51.3999L133.8 59.4599L140.19 57.4799Z" fill="#EBEBEB"/>
<path id="Vector_14" d="M133.801 59.9401C133.708 59.9396 133.618 59.9131 133.54 59.8635C133.463 59.814 133.4 59.7435 133.361 59.6601L129.651 51.6001C129.607 51.5055 129.595 51.3997 129.615 51.2975C129.634 51.1953 129.685 51.1019 129.761 51.0301C129.84 50.9623 129.939 50.921 130.043 50.912C130.147 50.903 130.251 50.9269 130.341 50.9801L140.441 57.0601C140.522 57.109 140.588 57.1802 140.631 57.2652C140.673 57.3502 140.69 57.4456 140.681 57.5401C140.668 57.6322 140.629 57.7187 140.569 57.7895C140.509 57.8603 140.43 57.9126 140.341 57.9401L133.941 59.9401H133.801ZM131.191 52.6201L134.061 58.8701L139.061 57.3401L131.191 52.6201Z" fill="#5063F4"/>
<path id="Vector_15" d="M117.999 75.0001C118.014 75.2719 117.973 75.5438 117.879 75.7993C117.786 76.0548 117.641 76.2885 117.454 76.486C117.266 76.6835 117.041 76.8407 116.791 76.9481C116.54 77.0554 116.271 77.1105 115.999 77.1101C115.428 77.0999 114.881 76.8786 114.464 76.489C114.047 76.0993 113.788 75.5689 113.739 75.0001C113.713 74.7255 113.746 74.4486 113.836 74.1877C113.926 73.9269 114.07 73.6883 114.259 73.4876C114.449 73.287 114.678 73.129 114.934 73.0243C115.189 72.9195 115.463 72.8704 115.739 72.8801C116.311 72.8928 116.858 73.1162 117.275 73.5075C117.692 73.8988 117.95 74.4303 117.999 75.0001Z" fill="#5063F4"/>
<path id="Vector_16" d="M131.699 74.9999C131.724 75.2737 131.689 75.5495 131.599 75.8091C131.509 76.0687 131.364 76.3061 131.175 76.5056C130.986 76.7052 130.757 76.8622 130.502 76.9664C130.248 77.0705 129.974 77.1195 129.699 77.1099C129.127 77.0999 128.579 76.879 128.16 76.4895C127.741 76.1001 127.481 75.5696 127.429 74.9999C127.413 74.7273 127.453 74.4543 127.546 74.1976C127.639 73.9409 127.784 73.7061 127.971 73.5074C128.158 73.3088 128.384 73.1507 128.635 73.0427C128.886 72.9348 129.156 72.8794 129.429 72.8799C130.004 72.8879 130.554 73.1095 130.974 73.5014C131.394 73.8934 131.652 74.4276 131.699 74.9999Z" fill="#5063F4"/>
<path id="Vector_17" d="M135.579 88.7401C135.457 88.7381 135.341 88.6908 135.252 88.6077C135.163 88.5245 135.109 88.4113 135.099 88.2901C134.849 84.8801 129.509 82.1101 123.199 82.1101C119.009 82.1101 115.249 83.3601 113.389 85.3601C113.007 85.7286 112.708 86.1743 112.511 86.6674C112.314 87.1605 112.225 87.6898 112.249 88.2201C112.254 88.2858 112.245 88.3517 112.224 88.4141C112.203 88.4766 112.17 88.5343 112.127 88.5839C112.04 88.6843 111.917 88.7459 111.784 88.7551C111.651 88.7644 111.52 88.7206 111.42 88.6334C111.32 88.5462 111.258 88.4227 111.249 88.2901C111.219 87.6272 111.328 86.9654 111.569 86.3471C111.811 85.7289 112.178 85.1679 112.649 84.7001C114.649 82.5101 118.719 81.1401 123.169 81.1401C130.099 81.1401 135.749 84.2501 136.029 88.2201C136.033 88.2832 136.025 88.3464 136.004 88.4062C135.984 88.466 135.952 88.5212 135.91 88.5686C135.868 88.616 135.817 88.6546 135.761 88.6824C135.704 88.7101 135.642 88.7263 135.579 88.7301V88.7401Z" fill="#5063F4"/>
<path id="Vector_18" d="M110.169 70.7198C110.047 70.7174 109.93 70.6712 109.839 70.5898C109.748 70.498 109.697 70.374 109.697 70.2448C109.697 70.1156 109.748 69.9916 109.839 69.8998L111.969 67.6098C112.061 67.5218 112.182 67.4727 112.309 67.4727C112.436 67.4727 112.558 67.5218 112.649 67.6098C112.694 67.6544 112.73 67.7074 112.754 67.7657C112.778 67.8241 112.79 67.8866 112.79 67.9498C112.79 68.013 112.778 68.0756 112.754 68.1339C112.73 68.1922 112.694 68.2452 112.649 68.2898L110.519 70.5798C110.473 70.6256 110.419 70.6615 110.359 70.6856C110.298 70.7097 110.234 70.7213 110.169 70.7198Z" fill="#5063F4"/>
<path id="Vector_19" d="M134.581 70.7198C134.459 70.7141 134.343 70.6684 134.251 70.5898L131.801 68.2998C131.754 68.2551 131.717 68.2015 131.692 68.1422C131.667 68.0829 131.654 68.0192 131.654 67.9548C131.654 67.8904 131.667 67.8267 131.692 67.7675C131.717 67.7082 131.754 67.6546 131.801 67.6098C131.892 67.5218 132.014 67.4727 132.141 67.4727C132.267 67.4727 132.389 67.5218 132.481 67.6098L134.931 69.8998C134.975 69.9444 135.011 69.9974 135.035 70.0557C135.059 70.1141 135.072 70.1766 135.072 70.2398C135.072 70.303 135.059 70.3655 135.035 70.4239C135.011 70.4822 134.975 70.5352 134.931 70.5798C134.836 70.6686 134.711 70.7186 134.581 70.7198Z" fill="#5063F4"/>
<path id="Vector_20" d="M99.2598 114.15H101.52L104.78 118.49L104.47 114.15H106.75L107.31 121.99H105L101.76 117.68L102.07 121.99H99.7898L99.2598 114.15Z" fill="#5063F4"/>
<path id="Vector_21" d="M108.33 118.07C108.253 117.538 108.29 116.995 108.438 116.478C108.586 115.96 108.843 115.481 109.19 115.07C109.57 114.696 110.025 114.408 110.525 114.223C111.025 114.039 111.559 113.963 112.09 114C113.217 113.939 114.324 114.315 115.18 115.05C115.965 115.831 116.419 116.883 116.45 117.99C116.533 118.753 116.43 119.525 116.15 120.24C115.891 120.816 115.458 121.295 114.91 121.61C114.254 121.962 113.515 122.131 112.77 122.1C112.005 122.124 111.244 121.981 110.54 121.68C109.924 121.384 109.404 120.919 109.04 120.34C108.611 119.657 108.367 118.875 108.33 118.07ZM110.76 118.07C110.751 118.683 110.948 119.282 111.32 119.77C111.476 119.942 111.668 120.078 111.883 120.168C112.097 120.257 112.328 120.299 112.56 120.29C112.782 120.305 113.004 120.267 113.208 120.178C113.412 120.09 113.591 119.953 113.73 119.78C114.017 119.234 114.113 118.607 114 118C114.005 117.412 113.807 116.84 113.44 116.38C113.28 116.211 113.086 116.078 112.87 115.99C112.655 115.902 112.423 115.861 112.19 115.87C111.973 115.861 111.756 115.903 111.558 115.993C111.36 116.084 111.186 116.22 111.05 116.39C110.758 116.905 110.655 117.507 110.76 118.09V118.07Z" fill="#5063F4"/>
<path id="Vector_22" d="M121.15 114.15H124.75C125.344 114.131 125.935 114.23 126.49 114.44C126.93 114.624 127.32 114.909 127.63 115.27C127.945 115.637 128.186 116.062 128.34 116.52C128.503 117.013 128.603 117.523 128.64 118.04C128.717 118.694 128.666 119.356 128.49 119.99C128.353 120.429 128.109 120.828 127.78 121.15C127.506 121.44 127.162 121.654 126.78 121.77C126.315 121.905 125.835 121.979 125.35 121.99H121.76L121.15 114.15ZM123.7 115.93L124.01 120.21H124.6C124.965 120.234 125.331 120.176 125.67 120.04C125.894 119.91 126.059 119.699 126.13 119.45C126.245 119.006 126.272 118.544 126.21 118.09C126.229 117.48 126.043 116.881 125.68 116.39C125.495 116.222 125.276 116.095 125.039 116.015C124.801 115.936 124.55 115.907 124.3 115.93H123.7Z" fill="#5063F4"/>
<path id="Vector_23" d="M134.449 120.69H131.699L131.409 121.99H128.939L131.319 114.15H133.999L137.509 121.99H134.969L134.449 120.69ZM133.819 119L132.759 116.18L132.099 119H133.819Z" fill="#5063F4"/>
<path id="Vector_24" d="M136.369 114.15H143.729L143.869 116.09H141.399L141.819 121.99H139.399L138.979 116.09H136.509L136.369 114.15Z" fill="#5063F4"/>
<path id="Vector_25" d="M149.369 120.69H146.619L146.329 121.99H143.859L146.239 114.15H148.879L152.379 121.99H149.849L149.369 120.69ZM148.739 119L147.669 116.18L146.999 119H148.739Z" fill="#5063F4"/>
</g>
</svg>
