<svg width="19" height="19" viewBox="0 0 19 19" fill="none" xmlns="http://www.w3.org/2000/svg">
<g id="Rating">
<path id="Vector" fill-rule="evenodd" clip-rule="evenodd" d="M9.92357 1.29201C9.86021 1.15469 9.75883 1.03839 9.63144 0.95687C9.50405 0.875353 9.35598 0.832031 9.20474 0.832031C9.0535 0.832031 8.90542 0.875353 8.77803 0.95687C8.65064 1.03839 8.54927 1.15469 8.4859 1.29201L6.21382 6.21618L0.829696 6.85505C0.679477 6.87279 0.537485 6.93319 0.420522 7.02911C0.30356 7.12503 0.216525 7.25244 0.169717 7.39628C0.122909 7.54012 0.118289 7.69436 0.156403 7.84074C0.194516 7.98712 0.273768 8.11952 0.384779 8.22226L4.36686 11.9035L3.30999 17.2235C3.28063 17.3718 3.29435 17.5254 3.34953 17.6662C3.4047 17.8069 3.49902 17.9289 3.62134 18.0178C3.74366 18.1066 3.88885 18.1586 4.03977 18.1675C4.19068 18.1765 4.34099 18.142 4.47295 18.0682L9.20474 15.4193L13.9365 18.0682C14.0686 18.1423 14.2191 18.177 14.3702 18.1681C14.5214 18.1593 14.6668 18.1073 14.7893 18.0183C14.9118 17.9293 15.0062 17.8071 15.0613 17.6661C15.1164 17.525 15.1299 17.3712 15.1003 17.2227L14.0434 11.9043L18.0247 8.22226C18.1357 8.11952 18.215 7.98712 18.2531 7.84074C18.2912 7.69436 18.2866 7.54012 18.2398 7.39628C18.1929 7.25244 18.1059 7.12503 17.989 7.02911C17.872 6.93319 17.73 6.87279 17.5798 6.85505L12.1949 6.21539L9.92357 1.29201Z" fill="#5063F4"/>
</g>
</svg>
