<svg width="1020" height="290" viewBox="0 0 1020 290" fill="none" xmlns="http://www.w3.org/2000/svg">
<path d="M23.0023 70.1451C26.6055 96.1953 29.9763 122.667 21.1425 148.506C20.6776 149.84 24.0484 150.402 24.5133 149.068C33.4633 123.018 30.0925 96.406 26.4893 70.1451C26.2568 68.811 22.7698 68.811 23.0023 70.1451Z" fill="#E8E8E8" fill-opacity="0.2"/>
<path d="M24.9776 70.8465C46.3646 71.4082 67.8677 71.4083 89.2547 70.7763C107.736 70.2146 127.844 70.2146 145.047 65.7207C147.139 65.159 145.279 63.3334 143.303 63.8951C125.403 68.5996 103.9 68.3187 84.7216 68.8103C64.8457 69.3018 44.8535 69.3018 24.9776 68.74C22.7692 68.6698 22.7692 70.7763 24.9776 70.8465Z" fill="#E8E8E8" fill-opacity="0.2"/>
<path d="M142.141 65.4418C153.299 91.1409 155.972 117.963 149.812 144.295C149.463 145.629 152.834 146.19 153.183 144.856C159.343 118.104 156.786 91.0004 145.511 64.88C145.046 63.5459 141.676 64.1076 142.141 65.4418Z" fill="#E8E8E8" fill-opacity="0.2"/>
<path d="M22.0719 149.56C45.0861 152.65 68.7978 152.931 92.2769 151.948C104.133 151.456 116.105 150.614 127.961 149.771C136.446 149.139 145.279 148.858 152.253 145.558C153.997 144.716 151.556 143.241 149.812 144.084C141.909 147.805 129.588 147.594 120.173 148.226C109.479 148.999 98.6698 149.631 87.86 150.052C66.1244 150.824 44.3887 150.473 23.118 147.594C20.7933 147.243 19.8634 149.28 22.0719 149.56Z" fill="#E8E8E8" fill-opacity="0.2"/>
<path d="M31.3702 143.382C34.1598 143.452 36.8332 142.89 39.6228 142.75C42.9935 142.609 46.1318 142.82 49.3864 143.312C51.5948 143.663 52.5247 141.626 50.3163 141.275C47.2942 140.784 44.1559 140.503 41.0176 140.573C37.7631 140.643 34.6247 141.346 31.3702 141.275C29.1618 141.205 29.1618 143.312 31.3702 143.382Z" fill="#E8E8E8" fill-opacity="0.2"/>
<path d="M33.462 138.466C39.1574 138.536 44.9691 138.536 50.6645 138.606C52.873 138.606 52.873 136.5 50.6645 136.5C44.9691 136.429 39.1574 136.429 33.462 136.359C31.2536 136.289 31.2536 138.395 33.462 138.466Z" fill="#E8E8E8" fill-opacity="0.2"/>
<path d="M34.6251 133.2C39.7393 133.34 44.7374 133.481 49.8517 133.621C52.0601 133.691 52.0601 131.585 49.8517 131.515C44.7374 131.374 39.7393 131.234 34.6251 131.094C32.4166 131.023 32.4166 133.13 34.6251 133.2Z" fill="#E8E8E8" fill-opacity="0.2"/>
<path d="M36.253 119.859C41.9484 119.438 47.6439 119.227 53.4555 119.298C55.664 119.298 55.664 117.191 53.4555 117.191C47.7601 117.121 41.9484 117.331 36.253 117.753C34.0446 117.963 34.0446 120.07 36.253 119.859Z" fill="#E8E8E8" fill-opacity="0.2"/>
<path d="M37.4151 114.312C42.8781 114.382 48.3411 114.452 53.804 114.522C56.0125 114.522 56.0125 112.416 53.804 112.416C48.3411 112.346 42.8781 112.275 37.4151 112.205C35.2067 112.205 35.2067 114.312 37.4151 114.312Z" fill="#E8E8E8" fill-opacity="0.2"/>
<path d="M36.253 109.537C41.251 109.747 46.1329 109.677 51.0147 109.396C53.2231 109.256 53.2231 107.149 51.0147 107.29C46.1329 107.641 41.1348 107.641 36.253 107.43C34.0446 107.29 34.0446 109.396 36.253 109.537Z" fill="#E8E8E8" fill-opacity="0.2"/>
<path d="M37.0662 96.0553C43.1104 95.3532 49.1545 95.0021 55.4311 95.0723C57.6395 95.0723 57.6395 92.9658 55.4311 92.9658C48.922 92.8956 42.5292 93.2467 36.1364 94.0191C34.0441 94.2999 34.974 96.3362 37.0662 96.0553Z" fill="#E8E8E8" fill-opacity="0.2"/>
<path d="M36.7181 90.9303C43.2272 91.0005 49.7362 91.0005 56.3616 90.7898C58.57 90.7196 58.57 88.6131 56.3616 88.6834C49.8525 88.894 43.3434 88.9642 36.7181 88.8238C34.3934 88.7536 34.3934 90.8601 36.7181 90.9303Z" fill="#E8E8E8" fill-opacity="0.2"/>
<path d="M34.2764 85.4524C41.4829 85.5928 48.6894 85.3822 55.8959 84.9609C58.1043 84.8204 58.1043 82.7139 55.8959 82.8544C48.6894 83.2757 41.4829 83.4863 34.2764 83.3459C32.068 83.3459 32.068 85.4524 34.2764 85.4524Z" fill="#E8E8E8" fill-opacity="0.2"/>
<path d="M73.0989 83.4868C91.1151 81.8718 109.247 81.0994 127.38 81.2399C129.588 81.2399 129.588 79.1334 127.38 79.1334C108.899 78.993 90.4177 79.7653 72.169 81.4505C69.9606 81.6612 70.8904 83.6974 73.0989 83.4868Z" fill="#E8E8E8" fill-opacity="0.2"/>
<path d="M76.7025 87.4182C94.6024 86.5054 112.619 85.9437 130.635 85.5926C132.843 85.5224 132.843 83.4159 130.635 83.4861C112.619 83.767 94.6024 84.3989 76.7025 85.3117C74.3778 85.4521 74.3778 87.5586 76.7025 87.4182Z" fill="#E8E8E8" fill-opacity="0.2"/>
<path d="M75.3067 92.1243C93.9041 91.5626 112.618 92.8967 131.215 91.703C133.423 91.5626 133.423 89.4561 131.215 89.5966C112.618 90.8605 93.9041 89.4561 75.3067 90.0179C73.0983 90.0881 73.0983 92.1946 75.3067 92.1243Z" fill="#E8E8E8" fill-opacity="0.2"/>
<path d="M64.265 109.536C72.4013 109.536 80.5377 109.466 88.674 109.466C90.8824 109.466 90.8824 107.359 88.674 107.359C80.5377 107.359 72.4013 107.43 64.265 107.43C61.9403 107.43 61.9403 109.536 64.265 109.536Z" fill="#E8E8E8" fill-opacity="0.2"/>
<path d="M65.0785 114.874C73.796 114.733 82.6298 114.593 91.3473 114.523C93.7882 114.523 117.035 113.75 117.035 113.891C117.732 115.155 121.103 114.663 120.406 113.329C119.708 111.854 117.616 112.065 115.408 112.065C110.061 112.065 104.714 112.206 99.3673 112.276C87.9764 112.416 76.4693 112.627 65.0785 112.767C62.7538 112.767 62.7538 114.874 65.0785 114.874Z" fill="#E8E8E8" fill-opacity="0.2"/>
<path d="M65.0785 120.139C72.0525 120.35 78.9103 120.35 85.8843 120.28C88.0927 120.21 88.0927 118.103 85.8843 118.173C78.9103 118.314 72.0525 118.244 65.0785 118.033C62.7538 117.963 62.7538 120.069 65.0785 120.139Z" fill="#E8E8E8" fill-opacity="0.2"/>
<path d="M61.0098 132.217C84.2565 131.304 107.619 130.953 130.982 131.164C133.191 131.164 133.191 129.057 130.982 129.057C107.619 128.847 84.3728 129.198 61.0098 130.111C58.8014 130.181 58.8014 132.287 61.0098 132.217Z" fill="#E8E8E8" fill-opacity="0.2"/>
<path d="M64.6134 136.85C70.425 136.78 76.3529 136.71 82.1646 136.64C84.373 136.64 84.373 134.533 82.1646 134.533C76.3529 134.603 70.425 134.674 64.6134 134.744C62.4049 134.744 62.4049 136.85 64.6134 136.85Z" fill="#E8E8E8" fill-opacity="0.2"/>
<path d="M96.2285 136.78C105.643 136.218 115.175 135.727 124.59 135.376C126.798 135.306 126.798 133.199 124.59 133.269C115.058 133.62 105.643 134.112 96.2285 134.674C94.0201 134.814 93.9038 136.921 96.2285 136.78Z" fill="#E8E8E8" fill-opacity="0.2"/>
<path d="M62.9864 143.591C82.0487 143.451 101.111 143.1 120.173 142.679C122.382 142.608 122.382 140.502 120.173 140.572C101.111 141.064 82.0487 141.344 62.9864 141.485C60.778 141.485 60.778 143.591 62.9864 143.591Z" fill="#E8E8E8" fill-opacity="0.2"/>
<path d="M156.321 102.376C186.426 99.0055 216.995 97.3905 247.681 97.5309C247.1 97.2501 246.518 97.0394 246.053 96.7585C263.953 131.235 272.555 167.326 271.509 203.487C271.509 204.821 274.996 204.821 274.996 203.487C276.042 167.185 267.44 130.884 249.424 96.1968C249.192 95.7755 248.494 95.4244 247.797 95.4244C216.879 95.284 185.961 96.899 155.508 100.34C153.183 100.55 154.113 102.586 156.321 102.376Z" fill="#E8E8E8" fill-opacity="0.2"/>
<path d="M94.2532 151.105C96.3454 170.836 91.8123 190.496 80.7701 209.034C80.0727 210.297 83.3273 210.859 84.1409 209.595C95.1831 190.848 99.8324 170.976 97.7402 151.105C97.624 149.771 94.137 149.701 94.2532 151.105Z" fill="#E8E8E8" fill-opacity="0.2"/>
<path d="M81.3507 210.578C110.641 218.091 142.722 217.319 173.756 215.564C207.58 213.597 240.823 210.297 273.368 204.469C275.461 204.118 274.647 202.082 272.438 202.433C240.823 208.05 208.626 211.421 175.732 213.317C144.814 215.142 112.385 216.266 83.0942 208.753C81.1182 208.191 79.3747 210.016 81.3507 210.578Z" fill="#E8E8E8" fill-opacity="0.2"/>
<path d="M165.505 109.467C171.549 108.835 177.593 108.624 183.754 108.765C185.962 108.835 185.962 106.728 183.754 106.658C177.245 106.518 170.852 106.799 164.575 107.501C162.367 107.711 163.297 109.677 165.505 109.467Z" fill="#E8E8E8" fill-opacity="0.2"/>
<path d="M164.574 114.804C172.827 114.312 181.079 113.891 189.332 113.54C191.54 113.47 191.54 111.363 189.332 111.433C181.079 111.784 172.827 112.206 164.574 112.697C162.366 112.838 162.366 114.944 164.574 114.804Z" fill="#E8E8E8" fill-opacity="0.2"/>
<path d="M168.294 122.738V122.808C168.875 122.527 169.456 122.316 169.921 122.035C169.805 122.035 169.805 122.035 169.688 122.035C170.153 122.176 170.735 122.387 171.199 122.527C171.199 122.457 171.083 122.457 171.083 122.387C170.967 122.808 170.851 123.229 170.851 123.65C170.037 123.791 170.153 123.861 171.316 123.791C172.013 123.791 172.711 123.791 173.292 123.791C174.454 123.791 175.616 123.721 176.779 123.721C179.103 123.58 181.428 123.44 183.753 123.159C185.961 122.948 185.031 120.912 182.823 121.123C179.801 121.474 176.779 121.614 173.757 121.684C171.897 121.684 169.688 121.333 168.294 122.176C167.712 122.527 167.713 123.089 168.061 123.44C168.526 123.861 169.107 124.072 169.921 124.072C170.618 124.072 171.432 123.721 171.548 123.299V123.229C172.129 121.965 168.759 121.404 168.294 122.738Z" fill="#E8E8E8" fill-opacity="0.2"/>
<path d="M165.853 132.988C175.616 132.145 185.38 131.022 195.26 131.233C197.468 131.303 197.468 129.196 195.26 129.126C185.031 128.915 174.919 130.109 164.923 130.952C162.714 131.162 163.644 133.199 165.853 132.988Z" fill="#E8E8E8" fill-opacity="0.2"/>
<path d="M203.745 107.219C214.904 106.306 226.062 105.815 237.22 105.604C239.429 105.534 239.429 103.428 237.22 103.498C225.946 103.708 214.787 104.2 203.745 105.113C201.537 105.253 201.537 107.36 203.745 107.219Z" fill="#E8E8E8" fill-opacity="0.2"/>
<path d="M211.766 116.068C218.74 115.366 225.598 114.734 232.572 114.032C234.78 113.821 233.85 111.785 231.642 111.996C224.668 112.698 217.81 113.33 210.836 114.032C208.628 114.243 209.557 116.279 211.766 116.068Z" fill="#E8E8E8" fill-opacity="0.2"/>
<path d="M214.089 128.356C220.017 128.005 226.061 127.864 232.105 127.864C234.314 127.864 234.314 125.758 232.105 125.758C226.061 125.758 220.133 125.898 214.089 126.249C211.881 126.39 211.881 128.496 214.089 128.356Z" fill="#E8E8E8" fill-opacity="0.2"/>
<path d="M224.55 132.356C231.873 131.724 239.079 131.303 246.518 131.022C248.727 130.952 248.727 128.846 246.518 128.916C238.847 129.197 231.292 129.688 223.62 130.32C221.412 130.531 222.342 132.497 224.55 132.356Z" fill="#E8E8E8" fill-opacity="0.2"/>
<path d="M109.363 185.933C111.572 185.933 111.572 183.826 109.363 183.826C107.155 183.826 107.155 185.933 109.363 185.933Z" fill="#E8E8E8" fill-opacity="0.2"/>
<path d="M105.644 184.037C108.55 184.598 111.339 184.388 114.362 184.318C118.313 184.247 122.265 184.388 126.217 184.598C128.426 184.739 128.426 182.632 126.217 182.492C122.847 182.281 119.36 182.141 115.989 182.211C112.967 182.211 109.596 182.632 106.69 182C104.482 181.579 103.552 183.615 105.644 184.037Z" fill="#E8E8E8" fill-opacity="0.2"/>
<path d="M109.827 190.357C116.22 190.006 122.613 190.076 129.006 190.638C131.214 190.778 131.214 188.672 129.006 188.531C122.613 188.04 116.22 187.969 109.827 188.25C107.619 188.391 107.619 190.497 109.827 190.357Z" fill="#E8E8E8" fill-opacity="0.2"/>
<path d="M99.7163 199.273C105.179 200.537 110.875 200.326 116.686 200.326C123.428 200.326 130.169 200.326 136.911 200.326C148.767 200.326 161.553 201.098 173.06 198.992C175.152 198.57 174.338 196.534 172.13 196.955C160.971 199.062 148.418 198.219 136.911 198.219C130.867 198.219 124.939 198.219 118.895 198.219C112.734 198.219 106.458 198.57 100.53 197.236C98.4378 196.745 97.6241 198.781 99.7163 199.273Z" fill="#E8E8E8" fill-opacity="0.2"/>
<path d="M159.808 189.303C163.528 189.163 167.247 189.093 170.967 188.952C174.686 188.812 178.522 188.461 182.009 189.374C184.101 189.865 185.031 187.829 182.939 187.337C179.568 186.495 176.197 186.705 172.594 186.846C168.293 186.986 163.993 187.127 159.692 187.267C157.483 187.267 157.483 189.374 159.808 189.303Z" fill="#E8E8E8" fill-opacity="0.2"/>
<path d="M145.396 208.472C164.109 208.051 182.707 207.419 201.42 206.506C203.629 206.365 203.629 204.259 201.42 204.399C182.823 205.312 164.109 205.944 145.396 206.365C143.071 206.436 143.071 208.542 145.396 208.472Z" fill="#E8E8E8" fill-opacity="0.2"/>
<path d="M353.57 7.86386C358.8 41.1463 357.638 74.5692 356.476 107.922C356.476 109.256 359.963 109.256 359.963 107.922C361.241 74.5692 362.287 41.1463 357.057 7.86386C356.824 6.52975 353.337 6.52975 353.57 7.86386Z" fill="#E8E8E8" fill-opacity="0.2"/>
<path d="M355.429 8.63638C379.024 9.26833 402.155 5.26601 425.518 3.72125C449.229 2.17649 473.174 2.17649 496.885 3.65103C499.094 3.79146 499.094 1.68498 496.885 1.54454C473.174 0.0700047 449.229 0.0700089 425.518 1.61476C402.155 3.15952 379.024 7.16184 355.429 6.5299C353.104 6.5299 353.104 8.63638 355.429 8.63638Z" fill="#E8E8E8" fill-opacity="0.2"/>
<path d="M495.375 3.09018C498.513 10.4629 498.978 18.0462 499.21 25.5594C499.559 33.6342 500.024 41.7793 500.489 49.8542C501.419 65.7932 502.581 81.8025 503.976 97.7416C504.092 99.0757 507.579 99.0757 507.463 97.7416C506.068 81.311 504.79 64.8804 503.86 48.4498C503.395 40.375 503.046 32.3001 502.697 24.2955C502.349 16.993 501.768 9.6203 498.745 2.52846C498.164 1.19435 494.794 1.75607 495.375 3.09018Z" fill="#E8E8E8" fill-opacity="0.2"/>
<path d="M358.103 109.465C383.093 113.819 409.943 112.204 435.398 110.659C459.924 109.184 484.216 106.376 506.65 99.8457C508.625 99.284 506.882 97.4584 504.906 98.0201C482.473 104.55 457.948 107.218 433.422 108.693C408.897 110.097 383.093 111.642 359.149 107.429C356.825 107.008 355.895 109.044 358.103 109.465Z" fill="#E8E8E8" fill-opacity="0.2"/>
<path d="M501.418 21.9779C515.599 20.6438 530.012 20.2225 544.425 20.714C551.864 20.9949 559.302 21.4864 566.741 22.2588C569.88 22.6098 573.367 22.7503 576.389 23.3822C580.689 24.295 580.457 26.1909 581.154 28.6484C586.501 45.8514 589.988 63.265 591.732 80.7488C591.848 82.0829 595.335 82.0829 595.219 80.7488C594.173 70.8484 592.661 60.9479 590.569 51.1176C589.639 46.5536 588.477 41.9895 587.198 37.4255C586.501 34.9679 585.804 32.5103 585.106 30.0528C584.525 27.9463 584.293 25.2781 582.898 23.3822C580.922 20.6438 572.902 20.714 568.717 20.2927C561.395 19.5203 554.072 18.9586 546.633 18.6777C531.174 18.0458 515.831 18.5373 500.488 19.9416C498.28 20.1523 499.21 22.1885 501.418 21.9779Z" fill="#E8E8E8" fill-opacity="0.2"/>
<path d="M457.715 108.624C459.807 112.135 461.086 115.646 461.318 119.367C461.434 121.193 460.969 123.369 463.178 124.844C465.386 126.319 469.222 126.319 472.244 126.599C477.126 127.021 482.124 127.372 487.006 127.512C509.671 128.285 532.337 126.529 554.77 124.704C556.978 124.563 556.978 122.386 554.77 122.597C535.591 124.142 516.413 125.687 497.002 125.546C492.585 125.546 488.168 125.406 483.751 125.195C480.845 125.055 478.056 124.844 475.15 124.633C473.174 124.493 468.989 124.563 467.478 123.861C463.526 122.106 464.805 118.103 464.108 115.505C463.526 112.907 462.364 110.45 460.969 107.992C460.272 106.798 456.901 107.29 457.715 108.624Z" fill="#E8E8E8" fill-opacity="0.2"/>
<path d="M549.19 81.8722C551.748 88.6129 552.212 95.5643 552.794 102.516C553.375 109.116 553.956 115.787 554.421 122.387C555.351 135.868 555.932 149.35 556.164 162.902C556.164 164.236 559.651 164.236 559.651 162.902C559.419 148.929 558.722 135.026 557.792 121.053C556.862 107.993 557.443 94.16 552.561 81.3806C552.096 79.9763 548.725 80.538 549.19 81.8722Z" fill="#E8E8E8" fill-opacity="0.2"/>
<path d="M551.516 83.1356C575.808 82.293 600.101 82.5037 624.278 83.6974C626.486 83.8378 626.486 81.7313 624.278 81.5909C600.101 80.327 575.808 80.1865 551.516 81.0291C549.307 81.1696 549.307 83.2761 551.516 83.1356Z" fill="#E8E8E8" fill-opacity="0.2"/>
<path d="M555.816 163.322C558.722 166.341 563.488 167.465 569.067 167.886C577.436 168.518 585.921 168.729 594.289 169.08C612.189 169.782 630.089 170.344 647.989 170.414C656.707 170.414 665.541 170.344 674.258 170.133C678.442 169.993 682.627 169.852 686.811 169.712C689.02 169.642 692.855 169.852 694.831 168.869C696.11 168.237 696.226 167.324 696.459 166.341C696.924 163.603 696.807 160.794 696.924 158.056C697.272 152.509 697.505 146.962 697.853 141.415C697.97 140.081 694.483 140.081 694.366 141.415C694.134 145.768 693.901 150.192 693.669 154.545C693.553 156.652 693.437 158.688 693.32 160.794C693.204 161.918 693.204 163.111 693.088 164.235C692.972 166.201 692.623 166.903 689.136 167.465C686.114 167.956 682.046 167.746 678.907 167.886C675.072 168.027 671.352 168.097 667.516 168.167C660.31 168.307 653.104 168.307 645.781 168.307C631.717 168.237 617.536 167.886 603.472 167.324C596.265 167.044 589.059 166.763 581.736 166.412C574.297 166.061 563.139 166.692 558.838 162.269C557.676 161.075 554.654 162.199 555.816 163.322Z" fill="#E8E8E8" fill-opacity="0.2"/>
<path d="M616.374 52.03C622.767 65.3009 624.162 78.6419 625.208 92.4043C626.37 106.448 627.416 120.421 628.578 134.464C628.695 135.798 632.182 135.798 632.065 134.464C630.903 119.999 629.741 105.535 628.578 91C627.532 77.5185 625.905 64.5285 619.628 51.4683C619.047 50.2044 615.793 50.7661 616.374 52.03Z" fill="#E8E8E8" fill-opacity="0.2"/>
<path d="M629.39 136.149C642.99 139.028 657.403 139.519 671.583 140.292C686.345 141.134 700.409 142.047 715.171 140.573C729.932 139.098 744.578 137.343 759.223 135.306C772.59 133.41 784.911 130.672 795.604 125.406C797.348 124.563 794.907 123.089 793.163 123.931C782.121 129.338 768.87 131.795 755.155 133.691C741.556 135.587 727.956 137.202 714.241 138.536C699.828 139.941 685.996 138.958 671.583 138.115C657.751 137.272 643.571 136.851 630.32 134.042C628.228 133.621 627.298 135.657 629.39 136.149Z" fill="#E8E8E8" fill-opacity="0.2"/>
<path d="M617.885 52.1008C642.875 47.8176 669.028 47.5367 694.832 46.7644C720.984 45.9218 746.788 45.4302 772.941 46.6239C775.149 46.6941 775.149 44.5876 772.941 44.5174C746.091 43.2535 719.589 43.8855 692.739 44.7281C667.284 45.5005 641.597 45.9218 616.955 50.1347C614.747 50.4156 615.677 52.4519 617.885 52.1008Z" fill="#E8E8E8" fill-opacity="0.2"/>
<path d="M771.197 45.5006C771.546 58.8417 774.452 72.1125 778.404 85.2429C780.38 91.9135 782.704 98.5138 785.145 105.114C787.47 111.644 789.446 118.245 793.165 124.494C793.863 125.758 797.233 125.196 796.536 123.932C789.446 111.855 786.075 98.584 782.239 86.0153C778.055 72.604 775.149 59.1225 774.684 45.5006C774.568 44.1665 771.081 44.1665 771.197 45.5006Z" fill="#E8E8E8" fill-opacity="0.2"/>
<path d="M369.262 44.5868C391.346 43.6037 413.547 43.1824 435.747 43.2527C437.956 43.2527 437.956 41.1462 435.747 41.1462C413.547 41.076 391.346 41.4972 369.262 42.4803C367.053 42.5505 367.053 44.657 369.262 44.5868Z" fill="#E8E8E8" fill-opacity="0.2"/>
<path d="M369.842 53.6454C374.84 53.7156 379.954 53.8561 384.952 53.6454C389.602 53.505 394.135 52.9432 398.784 53.2943C400.993 53.4348 400.993 51.3283 398.784 51.1878C394.135 50.8368 389.602 51.3985 384.952 51.5389C379.954 51.6794 374.84 51.6091 369.842 51.5389C367.517 51.4687 367.517 53.5752 369.842 53.6454Z" fill="#E8E8E8" fill-opacity="0.2"/>
<path d="M369.726 59.6125C378.095 59.8933 386.347 58.8401 394.6 59.6125C396.808 59.8231 397.738 57.7869 395.53 57.5762C386.928 56.8038 378.327 57.7869 369.726 57.506C367.401 57.4358 367.401 59.5423 369.726 59.6125Z" fill="#E8E8E8" fill-opacity="0.2"/>
<path d="M371.703 73.0245C379.258 73.0245 386.814 73.0245 394.485 73.0245C396.693 73.0245 396.693 70.918 394.485 70.918C386.93 70.918 379.375 70.918 371.703 70.918C369.495 70.918 369.495 73.0245 371.703 73.0245Z" fill="#E8E8E8" fill-opacity="0.2"/>
<path d="M373.212 77.9405C378.675 77.9405 384.254 77.9405 389.717 77.9405C391.926 77.9405 391.926 75.834 389.717 75.834C384.254 75.834 378.675 75.834 373.212 75.834C370.888 75.834 370.888 77.9405 373.212 77.9405Z" fill="#E8E8E8" fill-opacity="0.2"/>
<path d="M369.842 85.7334C377.63 85.7334 385.417 85.7334 393.089 85.7334C395.297 85.7334 395.297 83.627 393.089 83.627C385.301 83.627 377.514 83.627 369.842 83.627C367.517 83.627 367.517 85.7334 369.842 85.7334Z" fill="#E8E8E8" fill-opacity="0.2"/>
<path d="M429.819 51.6788C446.208 51.6788 462.597 51.6788 478.986 51.6788C481.195 51.6788 481.195 49.5723 478.986 49.5723C462.597 49.5723 446.208 49.5723 429.819 49.5723C427.611 49.5723 427.611 51.6788 429.819 51.6788Z" fill="#E8E8E8" fill-opacity="0.2"/>
<path d="M430.982 59.9659C441.675 59.9659 452.368 59.9659 462.946 59.9659C465.154 59.9659 465.154 57.8594 462.946 57.8594C452.252 57.8594 441.559 57.8594 430.982 57.8594C428.773 57.8594 428.773 59.9659 430.982 59.9659Z" fill="#E8E8E8" fill-opacity="0.2"/>
<path d="M474.801 59.6143C477.939 59.6143 481.194 59.6143 484.332 59.6143C486.541 59.6143 486.541 57.5078 484.332 57.5078C481.194 57.5078 477.939 57.5078 474.801 57.5078C472.476 57.5078 472.476 59.6143 474.801 59.6143Z" fill="#E8E8E8" fill-opacity="0.2"/>
<path d="M434.352 73.1651C447.137 73.1651 460.039 73.1651 472.825 73.1651C475.033 73.1651 475.033 71.0586 472.825 71.0586C460.039 71.0586 447.137 71.0586 434.352 71.0586C432.143 71.0586 432.143 73.1651 434.352 73.1651Z" fill="#E8E8E8" fill-opacity="0.2"/>
<path d="M420.636 82.7159C431.911 82.7159 443.069 82.7159 454.344 82.7159C456.552 82.7159 456.552 80.6094 454.344 80.6094C443.069 80.6094 431.911 80.6094 420.636 80.6094C418.311 80.6094 418.311 82.7159 420.636 82.7159Z" fill="#E8E8E8" fill-opacity="0.2"/>
<path d="M434.353 87.9112C442.838 87.9112 451.323 87.9112 459.924 87.9112C462.132 87.9112 462.132 85.8047 459.924 85.8047C451.439 85.8047 442.954 85.8047 434.353 85.8047C432.144 85.8047 432.144 87.9112 434.353 87.9112Z" fill="#E8E8E8" fill-opacity="0.2"/>
<path d="M466.664 82.3643C474.801 82.3643 482.937 82.3643 491.073 82.3643C493.282 82.3643 493.282 80.2578 491.073 80.2578C482.937 80.2578 474.801 80.2578 466.664 80.2578C464.34 80.2578 464.34 82.3643 466.664 82.3643Z" fill="#E8E8E8" fill-opacity="0.2"/>
<path d="M506.998 32.2979C514.437 32.2979 521.992 32.2979 529.431 32.2979C531.64 32.2979 531.64 30.1914 529.431 30.1914C521.992 30.1914 514.437 30.1914 506.998 30.1914C504.79 30.1914 504.79 32.2979 506.998 32.2979Z" fill="#E8E8E8" fill-opacity="0.2"/>
<path d="M536.289 28.2958C542.1 29.7704 548.609 29.7001 554.189 31.4555C554.189 30.8236 554.189 30.2619 554.189 29.6299C550.12 31.3853 546.052 33.1407 542.1 34.8961C540.241 35.6685 541.984 37.4941 543.844 36.7218C547.912 34.9664 551.98 33.2109 555.932 31.4555C556.862 31.0342 557.211 30.0512 555.932 29.6299C550.004 27.8043 543.263 27.8043 537.219 26.2595C535.126 25.768 534.197 27.8043 536.289 28.2958Z" fill="#E8E8E8" fill-opacity="0.2"/>
<path d="M510.485 41.6388C513.158 42.0601 515.832 42.4814 518.621 42.7623C519.319 42.8325 525.712 43.0432 526.06 43.4645C525.712 43.0432 516.762 47.7476 515.832 48.3796C514.321 49.3626 516.762 50.8372 518.273 49.8541C521.062 48.0987 524.084 46.6242 527.571 45.3603C529.315 44.7284 531.291 43.8155 530.245 42.4112C529.199 41.1473 526.06 41.358 524.084 41.1473C519.9 40.7963 515.716 40.2345 511.531 39.5324C509.206 39.2515 508.277 41.2878 510.485 41.6388Z" fill="#E8E8E8" fill-opacity="0.2"/>
<path d="M509.787 59.4737C521.759 59.4737 533.731 59.4737 545.703 59.4737C547.912 59.4737 547.912 57.3672 545.703 57.3672C533.731 57.3672 521.759 57.3672 509.787 57.3672C507.579 57.3672 507.579 59.4737 509.787 59.4737Z" fill="#E8E8E8" fill-opacity="0.2"/>
<path d="M546.168 52.6616C548.609 53.434 551.166 53.9255 553.839 54.3468C556.629 54.8383 561.395 55.2596 563.138 56.8746C563.138 56.5235 563.138 56.1725 563.138 55.8214C561.976 57.0151 559.651 58.0683 558.024 59.0513C556.397 60.0344 554.653 61.0876 553.026 62.0706C551.631 62.9132 553.375 64.3175 555.118 63.7558C555.35 63.6856 555.699 63.5452 555.932 63.4749C557.908 62.7728 556.164 61.0174 554.188 61.6493C553.956 61.7195 553.607 61.86 553.375 61.9302C554.072 62.4919 554.769 63.0536 555.467 63.6154C557.443 62.4217 559.535 61.228 561.511 59.9641C563.138 58.9811 565.114 58.1385 566.16 56.9448C566.509 56.5938 566.509 56.1725 566.16 55.8916C562.557 52.5212 553.375 52.5914 547.912 50.9062C545.936 50.2041 544.192 52.0297 546.168 52.6616Z" fill="#E8E8E8" fill-opacity="0.2"/>
<path d="M509.555 71.4795C517.924 71.4795 526.409 71.4795 534.777 71.4795C536.986 71.4795 536.986 69.373 534.777 69.373C526.409 69.373 517.924 69.373 509.555 69.373C507.346 69.373 507.346 71.4795 509.555 71.4795Z" fill="#E8E8E8" fill-opacity="0.2"/>
<path d="M549.19 70.9893C558.14 70.9893 567.206 70.9893 576.156 70.9893C578.364 70.9893 578.364 68.8828 576.156 68.8828C567.206 68.8828 558.14 68.8828 549.19 68.8828C546.865 68.8828 546.865 70.9893 549.19 70.9893Z" fill="#E8E8E8" fill-opacity="0.2"/>
<path d="M512.694 85.3819C521.876 85.3819 531.059 85.3819 540.241 85.3819C542.449 85.3819 542.449 83.2754 540.241 83.2754C531.059 83.2754 521.876 83.2754 512.694 83.2754C510.369 83.2754 510.369 85.3819 512.694 85.3819Z" fill="#E8E8E8" fill-opacity="0.2"/>
<path d="M474.801 111.503C488.982 111.503 503.278 111.503 517.459 111.503C519.667 111.503 519.667 109.396 517.459 109.396C503.278 109.396 488.982 109.396 474.801 109.396C472.476 109.396 472.476 111.503 474.801 111.503Z" fill="#E8E8E8" fill-opacity="0.2"/>
<path d="M490.727 118.946C503.512 118.946 516.414 118.946 529.2 118.946C531.408 118.946 531.408 116.84 529.2 116.84C516.414 116.84 503.512 116.84 490.727 116.84C488.518 116.84 488.518 118.946 490.727 118.946Z" fill="#E8E8E8" fill-opacity="0.2"/>
<path d="M601.844 94.0895C595.684 90.0872 587.78 99.2855 586.967 102.024C585.92 105.675 587.431 109.397 589.059 112.907C590.337 115.786 591.616 118.244 589.756 121.193C588.129 123.651 584.874 125.897 580.922 126.951C579.411 127.372 580.109 128.987 581.852 128.917C595.917 128.074 591.965 144.294 595.568 149.49C599.055 154.405 607.075 156.722 615.56 155.88C617.768 155.669 616.839 153.633 614.63 153.843C596.498 155.599 597.428 143.451 595.8 136.289C594.754 131.866 590.686 126.249 581.736 126.81C582.085 127.442 582.317 128.144 582.666 128.776C589.989 126.81 595.452 121.333 594.057 116.488C593.011 112.627 590.337 109.046 590.105 105.113C589.989 103.498 590.337 101.813 591.267 100.269C591.616 99.777 596.963 94.0895 599.287 95.6343C600.915 96.6173 603.355 95.0725 601.844 94.0895Z" fill="#E8E8E8" fill-opacity="0.2"/>
<path d="M657.287 138.465C654.382 140.361 655.311 142.608 656.939 144.854C658.333 146.75 661.704 148.997 661.588 151.104C661.588 154.966 654.149 156.721 649.267 157.844C647.175 158.336 648.105 160.372 650.197 159.881C656.009 158.547 662.518 156.861 664.494 152.929C665.307 151.455 665.075 149.98 664.145 148.576C662.75 146.399 656.009 142.256 659.728 139.939C661.355 138.956 658.798 137.482 657.287 138.465Z" fill="#E8E8E8" fill-opacity="0.2"/>
<path d="M879.527 158.899C873.947 189.162 877.899 219.776 891.034 249.127C891.615 250.461 894.986 249.899 894.405 248.565C881.27 219.355 877.434 188.952 883.014 158.899C883.246 157.565 879.759 157.565 879.527 158.899Z" fill="#E8E8E8" fill-opacity="0.2"/>
<path d="M882.781 159.25C913.35 160.514 945.547 163.393 975.767 158.688C977.976 158.337 977.046 156.301 974.837 156.652C945.082 161.356 913.118 158.407 882.781 157.143C880.456 157.073 880.456 159.18 882.781 159.25Z" fill="#E8E8E8" fill-opacity="0.2"/>
<path d="M973.442 157.844C969.607 184.667 980.649 211.7 1004.59 234.38C1005.76 235.503 1008.78 234.45 1007.61 233.327C984.019 210.928 973.21 184.316 976.929 157.844C977.162 156.51 973.675 156.51 973.442 157.844Z" fill="#E8E8E8" fill-opacity="0.2"/>
<path d="M893.589 249.759C911.373 253.691 933.341 251.725 951.358 249.267C970.652 246.599 989.133 241.824 1005.64 235.294C1007.5 234.592 1005.75 232.766 1003.9 233.468C988.087 239.718 970.768 244.282 952.404 246.95C934.504 249.548 912.303 251.654 894.519 247.722C892.427 247.231 891.497 249.267 893.589 249.759Z" fill="#E8E8E8" fill-opacity="0.2"/>
<path d="M903.469 170.906C897.077 173.574 891.265 176.523 885.802 179.824C884.756 180.455 885.453 181.649 887.081 181.649C895.682 181.509 904.399 181.368 913.001 181.298C915.209 181.298 915.209 179.192 913.001 179.192C904.399 179.332 895.682 179.472 887.081 179.543C887.546 180.175 887.894 180.736 888.359 181.368C893.59 178.209 899.169 175.33 905.329 172.802C907.073 172.03 905.329 170.134 903.469 170.906Z" fill="#E8E8E8" fill-opacity="0.2"/>
<path d="M919.626 173.784C928.692 173.362 937.642 173.432 946.592 173.994C948.801 174.135 948.801 172.028 946.592 171.888C937.642 171.326 928.576 171.256 919.626 171.677C917.418 171.747 917.418 173.854 919.626 173.784Z" fill="#E8E8E8" fill-opacity="0.2"/>
<path d="M947.755 170.415C953.334 171.188 958.797 172.171 964.26 173.364C964.027 172.803 963.795 172.171 963.446 171.609C959.727 173.364 956.123 175.19 952.636 177.156C951.009 178.069 953.45 179.543 955.077 178.63C958.564 176.735 962.168 174.839 965.887 173.083C967.049 172.522 966.236 171.539 965.073 171.328C959.727 170.064 954.264 169.081 948.568 168.379C946.476 168.098 945.546 170.064 947.755 170.415Z" fill="#E8E8E8" fill-opacity="0.2"/>
<path d="M887.662 194.639C892.776 194.85 897.774 194.991 902.889 195.201C905.097 195.271 905.097 193.165 902.889 193.095C897.774 192.884 892.776 192.744 887.662 192.533C885.454 192.463 885.454 194.569 887.662 194.639Z" fill="#E8E8E8" fill-opacity="0.2"/>
<path d="M913.466 194.64C927.763 193.306 942.059 191.972 956.24 190.637C958.448 190.427 957.518 188.391 955.31 188.601C941.013 189.935 926.717 191.269 912.536 192.604C910.328 192.814 911.258 194.85 913.466 194.64Z" fill="#E8E8E8" fill-opacity="0.2"/>
<path d="M890.219 201.521C893.822 201.521 897.542 201.521 901.145 201.521C903.353 201.521 903.353 199.414 901.145 199.414C897.542 199.414 893.822 199.414 890.219 199.414C888.01 199.414 888.01 201.521 890.219 201.521Z" fill="#E8E8E8" fill-opacity="0.2"/>
<path d="M891.033 206.646C895.218 206.857 899.286 206.646 903.238 206.084C905.446 205.803 904.516 203.767 902.308 204.048C898.588 204.54 894.869 204.68 891.033 204.54C888.825 204.399 888.825 206.506 891.033 206.646Z" fill="#E8E8E8" fill-opacity="0.2"/>
<path d="M889.754 215.773C905.213 214.79 922.183 214.79 936.945 211.701C939.037 211.279 938.107 209.243 936.015 209.664C921.486 212.684 904.864 212.684 889.754 213.667C887.546 213.807 887.546 215.914 889.754 215.773Z" fill="#E8E8E8" fill-opacity="0.2"/>
<path d="M917.999 204.048C934.039 202.995 949.963 201.31 965.655 198.993C967.863 198.642 966.933 196.605 964.725 196.957C949.382 199.274 933.807 200.889 917.999 201.942C915.791 202.082 915.791 204.189 917.999 204.048Z" fill="#E8E8E8" fill-opacity="0.2"/>
<path d="M893.592 224.412C897.195 224.623 900.682 224.482 904.169 223.921C906.378 223.569 905.448 221.533 903.239 221.884C900.101 222.376 896.846 222.516 893.592 222.306C891.383 222.165 891.383 224.272 893.592 224.412Z" fill="#E8E8E8" fill-opacity="0.2"/>
<path d="M919.51 222.163C924.74 222.514 929.738 221.601 934.853 220.899C941.129 220.057 947.406 219.214 953.566 218.371C955.775 218.091 954.845 216.054 952.636 216.335C947.173 217.107 941.594 217.81 936.131 218.582C930.668 219.284 925.089 220.408 919.51 220.057C917.301 219.846 917.301 221.952 919.51 222.163Z" fill="#E8E8E8" fill-opacity="0.2"/>
<path d="M912.42 225.955C909.514 226.446 907.189 227.64 906.492 229.465C906.26 230.168 906.376 231.01 906.725 231.712C907.073 232.274 911.955 235.996 909.398 236.417C908.352 236.557 907.654 237.4 908.352 237.962C911.141 240.279 910.793 243.649 914.977 245.404C917.65 246.528 920.556 246.598 922.997 245.264C924.625 244.351 922.184 242.877 920.556 243.79C916.372 246.177 913.001 238.313 911.374 236.908C911.025 237.4 910.676 237.962 910.328 238.453C912.42 238.102 913.582 237.4 913.815 236.066C914.396 233.889 905.911 229.185 913.35 227.991C915.558 227.64 914.628 225.603 912.42 225.955Z" fill="#E8E8E8" fill-opacity="0.2"/>
<path d="M921.37 235.084C931.831 234.803 942.176 234.311 952.521 233.609C954.729 233.469 954.729 231.362 952.521 231.503C942.176 232.205 931.831 232.696 921.37 232.977C919.162 233.048 919.162 235.154 921.37 235.084Z" fill="#E8E8E8" fill-opacity="0.2"/>
<path d="M959.262 223.92C960.192 223.99 961.703 223.779 962.633 223.92C967.631 224.762 965.538 225.465 965.887 227.009C966.12 228.203 965.887 229.256 966.468 230.45C967.05 231.714 968.212 232.908 968.909 234.171C969.955 235.997 970.072 236.348 967.863 237.963C965.771 239.438 965.771 239.438 962.981 239.718C960.773 239.929 961.703 241.965 963.911 241.755C967.398 241.404 970.885 240.631 972.512 238.595C974.372 236.208 972.396 233.891 970.885 231.644C969.723 229.958 969.258 228.414 969.374 226.588C969.374 225.605 969.607 224.552 968.909 223.639C966.933 221.181 962.865 222.094 959.262 221.813C957.053 221.673 957.053 223.779 959.262 223.92Z" fill="#E8E8E8" fill-opacity="0.2"/>
<g clip-path="url(#clip0_8048_34918)">
<path d="M369.377 50.6462C347.348 94.5327 354.317 149.929 381.845 190.59C409.373 231.251 455.17 257.572 503.326 267.163C537.706 274 574.686 272.577 606.096 257.054C637.507 241.53 662.204 210.205 664.107 175.205C664.818 161.979 662.01 147.948 653.193 138.079C639.108 122.316 615.053 121.767 593.93 122.416C572.806 123.066 548.767 122.571 534.605 106.87C523.73 94.8112 522.129 77.3076 516.397 62.109C506.652 36.2674 483.138 16.0876 456.121 10.3795C452.372 9.58313 448.569 9.06607 444.743 8.83252C415.019 6.9762 386.834 22.2677 371.264 47.6374L369.377 50.6462Z" fill="#F5F5F5"/>
<path d="M369.246 185.701C370.623 185.002 372.128 184.588 373.67 184.484C375.212 184.38 376.759 184.589 378.218 185.098C381.14 186.132 383.786 187.823 385.953 190.041C390.238 194.186 392.914 200.506 394.461 206.283C387.964 207.583 381.242 203.855 377.955 201.751C372.749 198.425 365.363 189.259 369.253 185.717" fill="#44E0AA"/>
<path d="M405.745 207.63C404.203 206.863 402.89 205.702 401.939 204.265C400.988 202.828 400.434 201.166 400.331 199.447C400.255 197.722 400.523 196 401.119 194.38C401.716 192.759 402.628 191.274 403.804 190.01C404.871 188.827 406.287 187.744 407.872 187.821C408.615 187.904 409.322 188.183 409.921 188.628C410.52 189.074 410.99 189.671 411.283 190.358C411.847 191.747 412.031 193.26 411.817 194.744C411.33 199.825 409.93 204.652 405.784 207.63" fill="#44E0AA"/>
<path d="M416.242 223.787C415.93 223.522 415.645 223.226 415.391 222.905L413.148 220.422C411.307 218.303 408.615 215.341 406.883 211.319C405.348 207.912 404.745 204.159 405.135 200.444C405.26 199.328 405.52 198.232 405.908 197.18C406.015 196.892 406.136 196.611 406.272 196.336C406.357 196.151 406.411 196.05 406.426 196.058C405.94 197.495 405.601 198.977 405.413 200.482C405.123 204.144 405.767 207.819 407.285 211.164C408.971 215.109 411.593 218.079 413.38 220.244C414.285 221.327 415.027 222.201 415.515 222.82C415.787 223.119 416.031 223.442 416.242 223.787Z" fill="#263238"/>
<path d="M375.495 192.184C375.658 192.262 375.813 192.355 375.959 192.462L377.22 193.321C378.318 194.094 379.888 195.185 381.814 196.569C385.682 199.346 390.949 203.252 396.673 207.699C402.396 212.147 407.501 216.293 411.144 219.34C412.962 220.887 414.424 222.109 415.429 222.983L416.574 223.996C416.837 224.236 416.968 224.36 416.953 224.375C416.799 224.286 416.654 224.182 416.52 224.066L415.321 223.115L410.951 219.58C407.207 216.579 402.118 212.487 396.379 208.071C390.64 203.654 385.411 199.686 381.606 196.848L377.096 193.491L375.874 192.563C375.734 192.451 375.606 192.324 375.495 192.184Z" fill="#263238"/>
<path d="M403.341 216.679C400.126 214.966 396.549 214.044 392.907 213.987C389.265 213.931 385.662 214.742 382.395 216.354C380.748 217.189 379.007 218.597 379.154 220.438C379.301 222.279 381.258 223.4 383.022 223.926C386.752 224.948 390.701 224.841 394.371 223.62C398.041 222.399 401.267 220.118 403.642 217.066" fill="#44E0AA"/>
<path d="M387.345 219.146C387.662 218.925 388.001 218.738 388.358 218.589C388.758 218.375 389.172 218.187 389.596 218.025C390.145 217.787 390.708 217.58 391.282 217.406C391.969 217.171 392.669 216.975 393.378 216.818C394.192 216.628 395.016 216.481 395.845 216.377C397.752 216.163 399.677 216.163 401.584 216.377C403.49 216.614 405.361 217.071 407.161 217.738C407.954 218.033 408.728 218.374 409.481 218.759C410.134 219.087 410.769 219.449 411.384 219.842C411.964 220.175 412.421 220.569 412.854 220.871C413.222 221.135 413.573 221.422 413.906 221.729C414.208 221.961 414.487 222.219 414.741 222.503C414.671 222.58 413.472 221.443 411.222 220.074C410.608 219.701 409.976 219.36 409.327 219.053C408.587 218.687 407.828 218.361 407.053 218.079C405.278 217.444 403.439 217.009 401.569 216.779C399.692 216.578 397.799 216.578 395.922 216.779C395.104 216.871 394.291 217.005 393.486 217.181C392.713 217.313 392.032 217.53 391.398 217.7C388.845 218.458 387.383 219.231 387.345 219.146Z" fill="#263238"/>
<path d="M604.133 247.015C598.719 243.534 596.769 239.071 595.919 232.69C595.516 229.489 595.804 226.238 596.763 223.157C597.723 220.077 599.331 217.237 601.48 214.831C605.084 210.855 610.143 208.14 612.765 203.453C615.549 198.456 615.193 191.851 619.169 187.713C621.907 184.89 626.03 184.008 629.402 181.997C632.163 180.357 634.391 177.983 636.889 175.979C639.388 173.976 642.389 172.274 645.591 172.39C650.425 172.568 654.362 177.155 654.772 181.974C655.182 186.792 652.676 191.511 649.11 194.782C646.527 197.149 643.301 199.013 641.669 202.122C638.575 207.947 642.342 215.743 639.024 221.459C636.603 225.613 630.833 227.778 630.206 232.551C629.974 234.306 630.539 236.062 630.593 237.833C630.763 243.364 625.767 248.012 620.36 249.203C614.954 250.395 609.338 248.902 604.117 247.038" fill="#455A64"/>
<path d="M635.898 192.222C635.742 192.455 635.564 192.673 635.365 192.871L633.733 194.627C633.013 195.401 632.131 196.306 631.18 197.435C630.229 198.564 629.053 199.755 627.924 201.256C626.795 202.756 625.464 204.28 624.211 206.074C623.585 206.972 622.881 207.853 622.247 208.836L620.274 211.837C617.43 216.343 614.927 221.056 612.787 225.937C610.705 230.843 609.011 235.904 607.721 241.074C607.172 243.472 606.638 245.715 606.329 247.911C606.019 250.108 605.71 252.08 605.501 253.929C605.292 255.778 605.223 257.456 605.099 258.933C604.975 260.411 604.967 261.679 604.952 262.723C604.936 263.767 604.913 264.502 604.898 265.121C604.904 265.401 604.881 265.681 604.828 265.956C604.776 265.681 604.755 265.401 604.766 265.121C604.766 264.502 604.727 263.706 604.697 262.716C604.666 261.725 604.642 260.395 604.697 258.918C604.751 257.44 604.774 255.739 604.998 253.883C605.223 252.026 605.362 250.015 605.772 247.819C606.182 245.622 606.545 243.348 607.11 240.935C608.385 235.72 610.079 230.616 612.176 225.674C614.332 220.76 616.869 216.022 619.764 211.504L621.767 208.503C622.417 207.529 623.128 206.639 623.77 205.75C625.054 203.963 626.377 202.401 627.568 200.962C628.759 199.523 629.888 198.293 630.902 197.187C631.915 196.081 632.797 195.176 633.547 194.449C634.297 193.722 634.823 193.204 635.272 192.779C635.461 192.572 635.671 192.386 635.898 192.222Z" fill="#263238"/>
<path d="M608.959 51.1729H409.69V285.789H608.959V51.1729Z" fill="#FAFAFA"/>
<path d="M608.967 285.788C608.967 284.242 608.89 190.969 608.781 51.1725L608.967 51.3504H409.714L409.915 51.1493C409.915 137.778 409.915 218.458 409.915 285.765L409.745 285.595L609.021 285.765L409.745 285.935H409.528V285.765C409.528 218.474 409.528 137.77 409.528 51.1493V50.9482H409.753H609.006H609.184V51.1339C609.037 190.969 608.967 284.234 608.967 285.788Z" fill="#263238"/>
<path d="M520.575 89.5132H516.707L515.872 91.3772H515.099L518.285 84.416H519.012L522.199 91.3772H521.426L520.575 89.5132ZM520.312 88.9176L518.633 85.174L516.963 88.9563L520.312 88.9176Z" fill="black"/>
<path d="M527.93 83.9834V91.3777H527.25V90.3413C527.04 90.6848 526.742 90.9663 526.387 91.1566C526.032 91.3469 525.633 91.4393 525.231 91.4242C524.549 91.3874 523.907 91.0906 523.438 90.595C522.968 90.0993 522.706 89.4424 522.706 88.7596C522.706 88.0767 522.968 87.4198 523.438 86.9241C523.907 86.4285 524.549 86.1317 525.231 86.095C525.623 86.0857 526.011 86.176 526.358 86.3572C526.706 86.5384 527.002 86.8048 527.219 87.1314V83.9834H527.93ZM527.226 88.7557C527.208 88.3743 527.078 88.0067 526.853 87.6985C526.628 87.3902 526.317 87.1549 525.959 87.0218C525.602 86.8886 525.212 86.8635 524.841 86.9495C524.469 87.0355 524.13 87.2288 523.867 87.5055C523.604 87.7822 523.428 88.13 523.361 88.5059C523.294 88.8817 523.338 89.269 523.489 89.6196C523.64 89.9703 523.891 90.2688 524.21 90.4782C524.53 90.6877 524.903 90.7987 525.285 90.7976C525.55 90.8014 525.812 90.7504 526.056 90.6477C526.3 90.5451 526.52 90.3931 526.702 90.2014C526.885 90.0096 527.025 89.7821 527.116 89.5333C527.206 89.2845 527.244 89.0198 527.226 88.7557Z" fill="black"/>
<path d="M534.683 83.9834V91.3777H534.003V90.3413C533.793 90.6848 533.495 90.9663 533.14 91.1566C532.785 91.3469 532.386 91.4393 531.984 91.4242C531.302 91.3874 530.66 91.0906 530.19 90.595C529.721 90.0993 529.459 89.4424 529.459 88.7596C529.459 88.0767 529.721 87.4198 530.19 86.9241C530.66 86.4285 531.302 86.1317 531.984 86.095C532.376 86.0857 532.764 86.176 533.111 86.3572C533.459 86.5384 533.755 86.8048 533.972 87.1314V83.9834H534.683ZM533.979 88.7557C533.961 88.3743 533.831 88.0067 533.606 87.6985C533.381 87.3902 533.07 87.1549 532.712 87.0218C532.354 86.8886 531.965 86.8635 531.593 86.9495C531.221 87.0355 530.883 87.2288 530.62 87.5055C530.357 87.7822 530.181 88.13 530.114 88.5059C530.047 88.8817 530.091 89.269 530.242 89.6196C530.393 89.9703 530.644 90.2688 530.963 90.4782C531.283 90.6877 531.656 90.7987 532.038 90.7976C532.303 90.8014 532.565 90.7504 532.809 90.6477C533.053 90.5451 533.273 90.3931 533.455 90.2014C533.638 90.0096 533.778 89.7821 533.869 89.5333C533.959 89.2845 533.996 89.0198 533.979 88.7557Z" fill="black"/>
<path d="M543.981 86.1328V91.3769H543.339V90.4178C543.146 90.7405 542.87 91.0046 542.539 91.1818C542.207 91.359 541.834 91.4425 541.459 91.4233C541.158 91.4531 540.854 91.415 540.569 91.3118C540.285 91.2086 540.027 91.043 539.815 90.8271C539.602 90.6112 539.441 90.3506 539.343 90.0642C539.245 89.7779 539.212 89.4732 539.247 89.1725V86.1328H539.959V89.1029C539.959 90.2167 540.531 90.7891 541.506 90.7891C541.754 90.802 542.002 90.7606 542.232 90.6679C542.463 90.5751 542.67 90.4333 542.84 90.2521C543.01 90.071 543.139 89.855 543.217 89.6191C543.295 89.3832 543.321 89.1332 543.292 88.8864V86.1328H543.981Z" fill="black"/>
<path d="M545.233 90.7816L545.55 90.217C546.094 90.6058 546.747 90.8116 547.415 90.8048C548.412 90.8048 548.822 90.4722 548.822 89.954C548.822 88.585 545.419 89.6601 545.419 87.6336C545.419 86.775 546.192 86.1331 547.492 86.1331C548.143 86.1251 548.785 86.2935 549.348 86.6204L549.039 87.1927C548.581 86.8893 548.041 86.7327 547.492 86.7441C546.548 86.7441 546.131 87.1154 546.131 87.6104C546.131 89.0258 549.526 87.9585 549.526 89.9308C549.526 90.8358 548.753 91.4236 547.368 91.4236C546.606 91.4455 545.857 91.2203 545.233 90.7816Z" fill="black"/>
<path d="M555.397 88.9563H551.011C551.026 89.2117 551.091 89.4618 551.204 89.6918C551.316 89.9219 551.472 90.1274 551.664 90.2965C551.856 90.4655 552.08 90.5948 552.323 90.6768C552.565 90.7587 552.821 90.7917 553.077 90.7739C553.378 90.7839 553.677 90.7274 553.954 90.6084C554.231 90.4894 554.478 90.3109 554.678 90.0855L555.072 90.5496C554.82 90.8319 554.507 91.0547 554.158 91.2019C553.809 91.349 553.432 91.4168 553.053 91.4004C552.694 91.4221 552.333 91.3686 551.996 91.2432C551.658 91.1178 551.35 90.9233 551.092 90.6722C550.833 90.4211 550.63 90.1188 550.495 89.7847C550.36 89.4507 550.296 89.0921 550.308 88.732C550.288 88.3855 550.34 88.0387 550.46 87.7129C550.579 87.3871 550.764 87.0891 551.002 86.837C551.241 86.585 551.528 86.3842 551.847 86.247C552.166 86.1098 552.509 86.0391 552.856 86.0391C553.203 86.0391 553.547 86.1098 553.865 86.247C554.184 86.3842 554.471 86.585 554.71 86.837C554.949 87.0891 555.133 87.3871 555.253 87.7129C555.372 88.0387 555.424 88.3855 555.405 88.732C555.405 88.817 555.397 88.8944 555.397 88.9563ZM551.011 88.4226H554.724C554.682 87.9595 554.468 87.529 554.124 87.2155C553.781 86.902 553.333 86.7282 552.868 86.7282C552.403 86.7282 551.955 86.902 551.611 87.2155C551.268 87.529 551.054 87.9595 551.011 88.4226Z" fill="black"/>
<path d="M559.488 86.0944V86.7828H559.318C559.068 86.77 558.818 86.8126 558.587 86.9078C558.355 87.0029 558.148 87.1482 557.979 87.3331C557.811 87.5179 557.685 87.7379 557.612 87.9771C557.538 88.2163 557.519 88.4688 557.554 88.7165V91.385H556.843V86.1408H557.523V87.1696C557.705 86.8137 557.989 86.5208 558.34 86.329C558.69 86.1372 559.09 86.0555 559.488 86.0944Z" fill="black"/>
<path d="M506.08 159.566C506.08 159.566 506.08 159.411 506.08 159.133C506.08 158.855 506.08 158.421 506.08 157.88C506.08 156.766 506.08 155.142 506.08 153.038C506.08 148.823 506.034 142.697 506.003 134.993L506.135 135.117L427.945 135.194L428.146 134.993C428.146 143.501 428.146 151.777 428.146 159.566L427.952 159.373L483.835 159.458L500.202 159.512H504.603H505.748H506.142H505.771H504.588H500.233L483.913 159.574L427.891 159.659H427.689V134.792H427.891L506.08 134.862H506.212V134.993C506.212 142.728 506.158 148.916 506.142 153.115C506.142 155.204 506.142 156.82 506.142 157.926C506.142 158.46 506.142 158.87 506.142 159.156C506.142 159.442 506.08 159.566 506.08 159.566Z" fill="#263238"/>
<path d="M592.631 192.848C592.631 192.848 592.631 192.299 592.631 191.232C592.631 190.164 592.631 188.587 592.631 186.506C592.631 182.352 592.631 176.219 592.577 168.275L592.678 168.376L427.929 168.476L428.13 168.275V192.848L427.929 192.655L545.14 192.74L579.947 192.794H589.36H591.804H592.647C592.647 192.794 592.376 192.794 591.835 192.794H589.414H580.047L545.241 192.856L427.891 192.941H427.689V168.074H427.898L592.647 168.175H592.747V168.275C592.747 176.25 592.701 182.399 592.686 186.568C592.686 188.63 592.686 190.198 592.686 191.271C592.647 192.322 592.631 192.848 592.631 192.848Z" fill="#263238"/>
<path d="M592.631 225.907C592.631 225.907 592.631 225.35 592.631 224.29C592.631 223.231 592.631 221.637 592.631 219.564C592.631 215.403 592.631 209.277 592.577 201.334L592.678 201.426L427.929 201.535L428.13 201.334V225.907L427.929 225.706L545.14 225.791L579.947 225.853H589.36H591.804H592.647H591.835H589.414H580.047L545.241 225.907L427.891 226H427.689V201.109H427.898L592.647 201.218H592.747V201.318C592.747 209.285 592.701 215.434 592.686 219.603C592.686 221.666 592.686 223.233 592.686 224.306C592.647 225.381 592.631 225.907 592.631 225.907Z" fill="#263238"/>
<path d="M592.631 159.566C592.631 159.566 592.631 159.411 592.631 159.133C592.631 158.855 592.631 158.421 592.631 157.88C592.631 156.766 592.631 155.142 592.631 153.038C592.631 148.823 592.631 142.697 592.562 134.993L592.693 135.117L514.503 135.194L514.704 134.993V159.566L514.503 159.373L570.394 159.458L586.761 159.512H591.162H592.306H592.701H592.33H591.138H586.784L570.464 159.574L514.434 159.659H514.24V159.466C514.24 151.677 514.24 143.408 514.24 134.893V134.691H514.449L592.639 134.761H592.77V134.893C592.77 142.627 592.716 148.815 592.693 153.015C592.693 155.103 592.693 156.72 592.693 157.826C592.693 158.36 592.693 158.769 592.693 159.056C592.693 159.342 592.631 159.566 592.631 159.566Z" fill="#263238"/>
<path d="M444.265 150.834C444.067 150.86 443.868 150.873 443.669 150.873L441.906 150.927C440.359 150.973 438.147 151.035 435.486 151.066H435.238L435.316 150.834C435.54 150.047 435.967 149.333 436.553 148.761C437.214 148.166 438.039 147.784 438.92 147.663L438.874 148.042C438.378 147.825 437.951 147.477 437.639 147.035C437.327 146.594 437.141 146.075 437.102 145.536C437.049 144.93 437.179 144.322 437.475 143.791C437.772 143.26 438.221 142.83 438.765 142.558C439.284 142.32 439.867 142.257 440.424 142.379C440.982 142.5 441.486 142.799 441.859 143.231C442.191 143.612 442.424 144.069 442.539 144.561C442.654 145.053 442.646 145.566 442.517 146.054C442.41 146.479 442.208 146.873 441.925 147.207C441.642 147.541 441.286 147.806 440.885 147.98V147.709C441.574 147.811 442.229 148.076 442.795 148.483C443.21 148.795 443.562 149.183 443.832 149.628C444.074 149.997 444.235 150.413 444.303 150.85C444.303 150.85 444.241 150.734 444.156 150.548C444.026 150.258 443.874 149.979 443.7 149.713C443.378 149.234 442.955 148.833 442.46 148.536C441.966 148.239 441.412 148.055 440.838 147.996L440.32 147.934L440.807 147.725C441.16 147.56 441.471 147.317 441.717 147.014C441.962 146.711 442.135 146.356 442.223 145.977C442.332 145.544 442.335 145.091 442.229 144.657C442.124 144.223 441.915 143.821 441.619 143.486C441.292 143.126 440.86 142.877 440.384 142.776C439.908 142.675 439.412 142.726 438.966 142.922C438.498 143.161 438.112 143.534 437.859 143.995C437.605 144.455 437.495 144.981 437.543 145.505C437.577 145.975 437.739 146.427 438.011 146.812C438.284 147.197 438.657 147.499 439.09 147.686L439.748 147.949L439.044 148.065C438.237 148.171 437.482 148.519 436.878 149.063C436.332 149.583 435.929 150.236 435.71 150.958L435.54 150.734C438.116 150.734 440.281 150.734 441.836 150.788H443.646C443.853 150.79 444.06 150.805 444.265 150.834Z" fill="#5063F4"/>
<path d="M535.929 150.834C535.734 150.861 535.538 150.874 535.341 150.873L533.57 150.927C532.023 150.973 529.818 151.035 527.15 151.066H526.91L526.98 150.834C527.205 150.047 527.631 149.333 528.217 148.761C528.877 148.161 529.701 147.773 530.584 147.648L530.538 148.027C530.043 147.809 529.618 147.461 529.307 147.019C528.996 146.578 528.812 146.059 528.774 145.521C528.717 144.915 528.844 144.306 529.14 143.775C529.435 143.243 529.885 142.814 530.429 142.543C530.949 142.306 531.531 142.244 532.088 142.365C532.646 142.486 533.149 142.785 533.523 143.216C533.854 143.597 534.086 144.054 534.199 144.546C534.312 145.039 534.303 145.551 534.173 146.039C534.067 146.463 533.864 146.858 533.582 147.192C533.299 147.526 532.943 147.79 532.541 147.965V147.694C533.23 147.795 533.886 148.061 534.451 148.467C534.869 148.777 535.221 149.166 535.488 149.612C535.731 149.981 535.891 150.398 535.96 150.834C535.96 150.834 535.898 150.718 535.813 150.533C535.689 150.24 535.536 149.96 535.356 149.697C535.036 149.219 534.614 148.817 534.121 148.521C533.627 148.224 533.075 148.039 532.502 147.98L531.984 147.918L532.464 147.709C532.817 147.544 533.128 147.3 533.375 146.998C533.621 146.695 533.796 146.341 533.887 145.961C533.995 145.528 533.995 145.075 533.889 144.641C533.782 144.207 533.572 143.805 533.276 143.471C532.954 143.105 532.523 142.852 532.047 142.751C531.57 142.649 531.074 142.703 530.631 142.906C530.16 143.143 529.772 143.517 529.517 143.977C529.262 144.438 529.151 144.965 529.2 145.49C529.233 145.96 529.395 146.412 529.668 146.797C529.941 147.181 530.314 147.484 530.747 147.671L531.404 147.934L530.7 148.05C529.894 148.155 529.139 148.503 528.534 149.048C527.99 149.568 527.591 150.221 527.374 150.943L527.204 150.718C529.78 150.718 531.945 150.718 533.492 150.772H535.31C535.517 150.779 535.724 150.799 535.929 150.834Z" fill="#5063F4"/>
<path d="M453.431 145.42V147.493H456.153V147.972H453.431V150.208H452.843V144.94H456.455V145.42H453.431Z" fill="#263238"/>
<path d="M457.321 144.995C457.323 144.893 457.365 144.797 457.437 144.726C457.51 144.655 457.607 144.616 457.708 144.616C457.758 144.613 457.809 144.621 457.856 144.639C457.903 144.657 457.947 144.684 457.983 144.718C458.02 144.753 458.05 144.794 458.07 144.841C458.09 144.887 458.102 144.936 458.102 144.987C458.114 145.044 458.113 145.103 458.099 145.16C458.084 145.216 458.058 145.269 458.021 145.315C457.984 145.36 457.937 145.396 457.885 145.421C457.832 145.446 457.774 145.459 457.716 145.459C457.657 145.459 457.6 145.446 457.547 145.421C457.494 145.396 457.448 145.36 457.411 145.315C457.374 145.269 457.347 145.216 457.333 145.16C457.319 145.103 457.318 145.044 457.329 144.987L457.321 144.995ZM457.437 146.24H457.971V150.2H457.437V146.24Z" fill="#263238"/>
<path d="M461.451 146.193V146.719H461.35C461.162 146.709 460.974 146.741 460.8 146.812C460.626 146.884 460.469 146.993 460.342 147.132C460.215 147.271 460.12 147.436 460.064 147.616C460.009 147.796 459.994 147.987 460.02 148.173V150.192H459.486V146.232H459.997V147.005C460.13 146.74 460.34 146.521 460.599 146.376C460.859 146.231 461.155 146.167 461.451 146.193Z" fill="#263238"/>
<path d="M461.893 149.743L462.132 149.325C462.544 149.616 463.036 149.771 463.54 149.766C464.314 149.766 464.6 149.511 464.6 149.124C464.6 148.088 462.04 148.9 462.04 147.337C462.04 146.695 462.596 146.208 463.586 146.208C464.078 146.202 464.562 146.331 464.986 146.579L464.754 147.013C464.41 146.78 464.002 146.661 463.586 146.672C462.875 146.672 462.558 146.951 462.558 147.322C462.558 148.389 465.118 147.585 465.118 149.109C465.118 149.789 464.522 150.23 463.486 150.23C462.916 150.243 462.358 150.072 461.893 149.743Z" fill="#263238"/>
<path d="M468.203 149.952C467.967 150.142 467.671 150.241 467.368 150.231C467.213 150.249 467.055 150.232 466.907 150.181C466.759 150.13 466.624 150.047 466.513 149.937C466.402 149.827 466.316 149.694 466.264 149.546C466.211 149.399 466.192 149.242 466.208 149.086V146.696H465.504V146.24H466.208V145.42H466.765V146.278H467.964V146.735H466.765V149.094C466.752 149.188 466.76 149.284 466.789 149.375C466.818 149.465 466.867 149.548 466.932 149.617C466.998 149.686 467.078 149.74 467.166 149.774C467.255 149.808 467.351 149.821 467.445 149.813C467.659 149.819 467.868 149.748 468.033 149.612L468.203 149.952Z" fill="#263238"/>
<path d="M474.77 147.902V150.223H474.236V147.98C474.262 147.815 474.249 147.647 474.2 147.487C474.151 147.328 474.066 147.183 473.952 147.061C473.838 146.94 473.697 146.846 473.542 146.786C473.386 146.727 473.219 146.704 473.053 146.719C472.864 146.704 472.674 146.731 472.497 146.798C472.32 146.865 472.159 146.97 472.027 147.106C471.895 147.242 471.794 147.405 471.732 147.584C471.67 147.763 471.649 147.954 471.668 148.142V150.223H471.135V146.262H471.645V146.966C471.804 146.713 472.027 146.508 472.293 146.372C472.558 146.236 472.856 146.174 473.154 146.193C473.377 146.181 473.6 146.219 473.808 146.302C474.015 146.385 474.202 146.512 474.356 146.675C474.509 146.837 474.626 147.031 474.698 147.243C474.769 147.455 474.794 147.68 474.77 147.902Z" fill="#263238"/>
<path d="M479.202 147.74V150.192H478.692V149.573C478.543 149.793 478.339 149.97 478.1 150.084C477.86 150.198 477.595 150.246 477.33 150.223C476.441 150.223 475.892 149.759 475.892 149.078C475.892 148.398 476.278 147.957 477.439 147.957H478.692V147.74C478.692 147.06 478.313 146.696 477.578 146.696C477.098 146.688 476.631 146.852 476.263 147.16L476.015 146.766C476.461 146.4 477.017 146.198 477.593 146.193C477.807 146.161 478.024 146.179 478.23 146.244C478.435 146.309 478.623 146.421 478.779 146.571C478.934 146.72 479.053 146.903 479.127 147.106C479.2 147.309 479.226 147.526 479.202 147.74ZM478.668 149.001V148.351H477.431C476.657 148.351 476.418 148.653 476.418 149.063C476.418 149.473 476.781 149.836 477.415 149.836C477.685 149.851 477.953 149.779 478.178 149.63C478.404 149.481 478.576 149.263 478.668 149.009V149.001Z" fill="#263238"/>
<path d="M487.177 147.902V150.223H486.643V147.98C486.643 147.144 486.226 146.719 485.506 146.719C485.321 146.71 485.137 146.741 484.965 146.811C484.793 146.88 484.639 146.987 484.513 147.122C484.387 147.258 484.292 147.42 484.235 147.596C484.178 147.772 484.161 147.959 484.184 148.142V150.223H483.65V147.98C483.65 147.144 483.232 146.719 482.513 146.719C482.328 146.71 482.143 146.741 481.972 146.811C481.8 146.88 481.646 146.987 481.52 147.122C481.394 147.258 481.299 147.42 481.242 147.596C481.185 147.772 481.167 147.959 481.19 148.142V150.223H480.688V146.263H481.198V146.967C481.346 146.718 481.558 146.515 481.813 146.378C482.068 146.242 482.356 146.178 482.644 146.193C482.937 146.169 483.229 146.237 483.481 146.387C483.733 146.536 483.933 146.761 484.052 147.028C484.211 146.763 484.439 146.546 484.711 146.399C484.983 146.252 485.29 146.181 485.599 146.193C485.822 146.178 486.045 146.213 486.252 146.295C486.46 146.378 486.646 146.506 486.797 146.67C486.949 146.834 487.061 147.03 487.127 147.243C487.193 147.456 487.21 147.682 487.177 147.902Z" fill="#263238"/>
<path d="M492.08 148.382H488.778C488.789 148.574 488.837 148.762 488.921 148.936C489.005 149.109 489.122 149.264 489.265 149.392C489.409 149.52 489.577 149.618 489.758 149.681C489.94 149.744 490.133 149.77 490.325 149.759C490.552 149.766 490.777 149.724 490.986 149.634C491.194 149.545 491.381 149.41 491.531 149.241L491.833 149.589C491.549 149.886 491.184 150.092 490.783 150.183C490.383 150.273 489.964 150.244 489.58 150.098C489.197 149.951 488.864 149.695 488.625 149.361C488.386 149.027 488.251 148.63 488.236 148.22C488.236 147.707 488.44 147.215 488.803 146.852C489.165 146.49 489.657 146.286 490.17 146.286C490.683 146.286 491.175 146.49 491.537 146.852C491.9 147.215 492.104 147.707 492.104 148.22C492.088 148.266 492.08 148.328 492.08 148.382ZM488.778 147.988H491.578C491.562 147.628 491.405 147.289 491.142 147.043C490.879 146.797 490.53 146.664 490.17 146.673C489.812 146.665 489.464 146.798 489.204 147.044C488.943 147.29 488.79 147.629 488.778 147.988Z" fill="#263238"/>
<path d="M457.352 184.093V184.572H453.616V179.312H457.228V179.792H454.134V181.664H456.857V182.136H454.134V184.093H457.352Z" fill="#263238"/>
<path d="M465.063 182.306V184.627H464.53V182.384C464.53 181.548 464.112 181.123 463.393 181.123C463.207 181.113 463.021 181.145 462.849 181.215C462.677 181.285 462.522 181.392 462.396 181.529C462.27 181.665 462.175 181.828 462.119 182.005C462.063 182.182 462.046 182.37 462.07 182.554V184.627H461.536V182.384C461.536 181.548 461.119 181.123 460.399 181.123C460.214 181.115 460.029 181.147 459.858 181.218C459.686 181.288 459.532 181.395 459.406 181.532C459.28 181.668 459.186 181.83 459.129 182.006C459.072 182.183 459.054 182.37 459.077 182.554V184.627H458.543V180.674H459.03V181.394C459.179 181.146 459.392 180.944 459.647 180.808C459.902 180.671 460.188 180.607 460.477 180.62C460.769 180.596 461.061 180.664 461.313 180.814C461.566 180.963 461.765 181.188 461.884 181.456C462.044 181.19 462.271 180.973 462.543 180.826C462.816 180.679 463.122 180.608 463.431 180.62C463.656 180.595 463.884 180.623 464.097 180.699C464.31 180.776 464.503 180.901 464.66 181.064C464.818 181.226 464.936 181.423 465.006 181.638C465.076 181.854 465.095 182.082 465.063 182.306Z" fill="#263238"/>
<path d="M469.495 182.152V184.604H468.984V183.985C468.837 184.207 468.633 184.384 468.394 184.5C468.154 184.616 467.888 184.665 467.623 184.643C466.726 184.643 466.177 184.178 466.177 183.49C466.177 182.802 466.571 182.369 467.724 182.369H468.977V182.129C468.977 181.456 468.59 181.085 467.855 181.085C467.376 181.078 466.909 181.242 466.54 181.549L466.301 181.154C466.758 180.793 467.327 180.604 467.909 180.621C468.119 180.593 468.333 180.613 468.534 180.679C468.736 180.745 468.919 180.856 469.072 181.004C469.224 181.151 469.341 181.331 469.415 181.529C469.488 181.728 469.515 181.941 469.495 182.152ZM468.961 183.413V182.771H467.724C466.95 182.771 466.703 183.072 466.703 183.475C466.703 183.877 467.074 184.248 467.708 184.248C467.979 184.261 468.247 184.187 468.472 184.036C468.698 183.886 468.869 183.668 468.961 183.413Z" fill="#263238"/>
<path d="M470.826 179.398C470.844 179.308 470.892 179.228 470.963 179.17C471.033 179.113 471.122 179.081 471.213 179.081C471.304 179.081 471.392 179.113 471.463 179.17C471.533 179.228 471.582 179.308 471.6 179.398C471.611 179.455 471.61 179.514 471.596 179.571C471.582 179.627 471.555 179.68 471.518 179.725C471.481 179.771 471.434 179.807 471.382 179.832C471.329 179.857 471.271 179.87 471.213 179.87C471.154 179.87 471.097 179.857 471.044 179.832C470.991 179.807 470.945 179.771 470.908 179.725C470.871 179.68 470.844 179.627 470.83 179.571C470.816 179.514 470.815 179.455 470.826 179.398ZM470.942 180.651H471.476V184.603H470.942V180.651Z" fill="#263238"/>
<path d="M472.953 179.026H473.487V184.603H472.953V179.026Z" fill="#263238"/>
<path d="M455.163 214.049C455.163 215.171 454.389 215.844 453.012 215.844H451.597V217.507H451.04V212.247H453.012C454.335 212.247 455.163 212.92 455.163 214.049ZM454.606 214.049C454.606 213.206 454.049 212.727 452.997 212.727H451.597V215.356H452.997C454.033 215.356 454.59 214.877 454.59 214.049H454.606Z" fill="#263238"/>
<path d="M459.185 215.032V217.484H458.667V216.865C458.522 217.086 458.319 217.264 458.081 217.38C457.843 217.496 457.577 217.545 457.314 217.522C456.416 217.522 455.867 217.058 455.867 216.37C455.867 215.682 456.254 215.248 457.414 215.248H458.675V215.032C458.675 214.359 458.288 213.988 457.553 213.988C457.073 213.982 456.606 214.15 456.238 214.459L455.999 214.057C456.456 213.696 457.025 213.507 457.607 213.524C457.815 213.498 458.025 213.518 458.224 213.584C458.422 213.649 458.604 213.758 458.755 213.903C458.906 214.047 459.023 214.223 459.097 214.419C459.172 214.614 459.202 214.823 459.185 215.032ZM458.652 216.3V215.651H457.406C456.633 215.651 456.393 215.952 456.393 216.354C456.393 216.757 456.764 217.128 457.391 217.128C457.659 217.144 457.925 217.074 458.151 216.93C458.378 216.785 458.553 216.573 458.652 216.324V216.3Z" fill="#263238"/>
<path d="M460.082 217.058L460.322 216.632C460.732 216.926 461.225 217.083 461.73 217.081C462.503 217.081 462.789 216.826 462.789 216.431C462.789 215.403 460.221 216.215 460.221 214.652C460.221 214.003 460.778 213.523 461.768 213.523C462.26 213.513 462.746 213.641 463.168 213.894L462.936 214.32C462.59 214.09 462.183 213.972 461.768 213.979C461.057 213.979 460.739 214.258 460.739 214.637C460.739 215.704 463.307 214.9 463.307 216.416C463.307 217.104 462.704 217.545 461.675 217.545C461.106 217.559 460.547 217.388 460.082 217.058Z" fill="#263238"/>
<path d="M463.756 217.058L463.996 216.632C464.406 216.926 464.899 217.083 465.403 217.081C466.177 217.081 466.463 216.826 466.463 216.431C466.463 215.403 463.895 216.215 463.895 214.652C463.895 214.003 464.452 213.523 465.442 213.523C465.934 213.513 466.419 213.642 466.842 213.894L466.61 214.32C466.264 214.09 465.857 213.971 465.442 213.979C464.73 213.979 464.413 214.258 464.413 214.637C464.413 215.704 466.981 214.9 466.981 216.416C466.981 217.104 466.378 217.545 465.349 217.545C464.779 217.559 464.22 217.388 463.756 217.058Z" fill="#263238"/>
<path d="M473.726 213.555L472.18 217.507H471.677L470.455 214.258L469.209 217.499H468.707L467.214 213.547H467.732L468.97 216.904L470.238 213.547H470.702L471.963 216.904L473.216 213.547L473.726 213.555Z" fill="#263238"/>
<path d="M473.997 215.527C473.998 215.129 474.117 214.741 474.339 214.412C474.561 214.082 474.876 213.825 475.243 213.674C475.611 213.523 476.015 213.485 476.405 213.563C476.794 213.641 477.152 213.834 477.432 214.115C477.713 214.397 477.904 214.755 477.981 215.145C478.058 215.535 478.017 215.939 477.865 216.306C477.712 216.673 477.455 216.986 477.124 217.207C476.794 217.428 476.405 217.545 476.008 217.545C475.74 217.555 475.474 217.51 475.225 217.412C474.976 217.314 474.75 217.165 474.561 216.976C474.372 216.786 474.225 216.559 474.128 216.31C474.03 216.061 473.986 215.794 473.997 215.527ZM477.477 215.527C477.462 215.24 477.363 214.964 477.193 214.732C477.023 214.501 476.788 214.325 476.519 214.225C476.249 214.126 475.956 214.108 475.677 214.173C475.397 214.238 475.142 214.384 474.944 214.592C474.746 214.8 474.614 215.062 474.563 215.345C474.513 215.627 474.546 215.919 474.659 216.183C474.772 216.447 474.96 216.672 475.2 216.83C475.44 216.989 475.72 217.073 476.008 217.074C476.208 217.077 476.408 217.039 476.593 216.962C476.778 216.884 476.945 216.769 477.083 216.624C477.221 216.478 477.328 216.306 477.396 216.117C477.463 215.928 477.491 215.727 477.477 215.527Z" fill="#263238"/>
<path d="M481.097 213.523V214.041H480.966C480.777 214.031 480.588 214.063 480.413 214.135C480.238 214.207 480.081 214.317 479.954 214.457C479.827 214.597 479.732 214.763 479.677 214.944C479.622 215.125 479.608 215.316 479.636 215.503V217.514H479.141V213.562H479.651V214.335C479.785 214.072 479.994 213.854 480.251 213.71C480.509 213.565 480.803 213.5 481.097 213.523Z" fill="#263238"/>
<path d="M485.622 211.938V217.514H485.112V216.741C484.952 217.005 484.724 217.22 484.452 217.365C484.179 217.509 483.873 217.577 483.565 217.561C483.031 217.561 482.52 217.349 482.143 216.972C481.766 216.594 481.554 216.083 481.554 215.55C481.554 215.016 481.766 214.505 482.143 214.128C482.52 213.75 483.031 213.539 483.565 213.539C483.86 213.527 484.154 213.592 484.417 213.727C484.68 213.863 484.903 214.064 485.065 214.312V211.938H485.622ZM485.096 215.534C485.081 215.247 484.982 214.97 484.811 214.739C484.64 214.508 484.406 214.331 484.136 214.232C483.866 214.133 483.573 214.115 483.293 214.181C483.013 214.247 482.758 214.393 482.561 214.602C482.363 214.811 482.231 215.074 482.181 215.357C482.131 215.64 482.166 215.932 482.28 216.196C482.394 216.46 482.584 216.684 482.824 216.841C483.065 216.999 483.347 217.082 483.634 217.081C483.835 217.084 484.034 217.045 484.219 216.966C484.404 216.888 484.57 216.772 484.708 216.626C484.845 216.479 484.951 216.306 485.018 216.117C485.084 215.928 485.111 215.727 485.096 215.526V215.534Z" fill="#263238"/>
<path d="M541.791 145.675H542.34V150.463H545.295V150.942H541.791V145.675Z" fill="#263238"/>
<path d="M549.062 148.513V150.965H548.552V150.346C548.405 150.568 548.201 150.746 547.961 150.861C547.722 150.977 547.456 151.026 547.191 151.004C546.293 151.004 545.744 150.532 545.744 149.851C545.744 149.171 546.139 148.73 547.291 148.73H548.544V148.49C548.544 147.817 548.157 147.446 547.423 147.446C546.943 147.439 546.477 147.603 546.108 147.91L545.868 147.516C546.325 147.154 546.894 146.966 547.477 146.982C547.687 146.954 547.9 146.974 548.102 147.04C548.303 147.107 548.487 147.218 548.639 147.365C548.792 147.512 548.909 147.692 548.982 147.891C549.055 148.09 549.083 148.302 549.062 148.513ZM548.529 149.774V149.132H547.291C546.518 149.132 546.27 149.434 546.27 149.836C546.27 150.238 546.641 150.609 547.276 150.609C547.549 150.621 547.819 150.543 548.045 150.388C548.271 150.234 548.44 150.01 548.529 149.751V149.774Z" fill="#263238"/>
<path d="M549.959 150.493L550.199 150.068C550.61 150.359 551.103 150.513 551.606 150.509C552.38 150.509 552.666 150.253 552.666 149.867C552.666 148.838 550.106 149.65 550.106 148.08C550.106 147.438 550.655 146.958 551.653 146.958C552.142 146.949 552.623 147.075 553.045 147.322L552.813 147.755C552.47 147.526 552.065 147.407 551.653 147.415C550.934 147.415 550.624 147.693 550.624 148.072C550.624 149.14 553.184 148.328 553.184 149.851C553.184 150.532 552.581 150.981 551.552 150.981C550.983 150.99 550.426 150.819 549.959 150.493Z" fill="#263238"/>
<path d="M556.263 150.703C556.026 150.891 555.73 150.99 555.428 150.981C555.272 150.998 555.115 150.98 554.967 150.928C554.819 150.877 554.685 150.792 554.575 150.682C554.464 150.571 554.38 150.437 554.328 150.289C554.276 150.142 554.258 149.984 554.275 149.829V147.439H553.563V146.967H554.275V146.101H554.809V146.967H556.008V147.415H554.809V149.775C554.796 149.869 554.804 149.965 554.833 150.055C554.862 150.146 554.911 150.229 554.976 150.298C555.042 150.367 555.122 150.42 555.211 150.454C555.299 150.488 555.395 150.502 555.489 150.494C555.703 150.501 555.913 150.43 556.077 150.293L556.263 150.703Z" fill="#263238"/>
<path d="M562.837 148.645V150.965H562.304V148.722C562.329 148.557 562.317 148.388 562.267 148.228C562.217 148.068 562.132 147.922 562.017 147.8C561.902 147.679 561.761 147.585 561.604 147.526C561.447 147.468 561.279 147.445 561.113 147.462C560.924 147.448 560.734 147.476 560.557 147.544C560.38 147.612 560.22 147.718 560.089 147.854C559.957 147.991 559.858 148.155 559.797 148.334C559.736 148.513 559.715 148.704 559.736 148.892V150.965H559.202V146.967H559.713V147.74C559.871 147.489 560.094 147.285 560.357 147.149C560.621 147.013 560.917 146.95 561.213 146.967C561.434 146.955 561.655 146.99 561.861 147.071C562.068 147.152 562.254 147.276 562.408 147.435C562.562 147.595 562.68 147.785 562.754 147.994C562.828 148.202 562.857 148.424 562.837 148.645Z" fill="#263238"/>
<path d="M567.269 148.513V150.965H566.759V150.346C566.612 150.568 566.408 150.747 566.169 150.862C565.929 150.978 565.663 151.027 565.398 151.004C564.5 151.004 563.951 150.532 563.951 149.851C563.951 149.171 564.346 148.73 565.498 148.73H566.751V148.49C566.751 147.817 566.364 147.446 565.63 147.446C565.15 147.439 564.684 147.603 564.315 147.91L564.075 147.516C564.533 147.156 565.102 146.967 565.684 146.982C565.894 146.954 566.107 146.974 566.309 147.04C566.51 147.107 566.694 147.218 566.846 147.365C566.999 147.512 567.116 147.692 567.189 147.891C567.262 148.09 567.29 148.302 567.269 148.513ZM566.736 149.774V149.132H565.498C564.725 149.132 564.477 149.434 564.477 149.836C564.477 150.238 564.848 150.609 565.483 150.609C565.756 150.621 566.026 150.543 566.252 150.388C566.478 150.234 566.647 150.01 566.736 149.751V149.774Z" fill="#263238"/>
<path d="M575.244 148.645V150.965H574.71V148.722C574.71 147.887 574.293 147.461 573.573 147.461C573.388 147.452 573.202 147.483 573.03 147.554C572.858 147.624 572.703 147.731 572.577 147.867C572.451 148.004 572.356 148.166 572.3 148.344C572.243 148.521 572.227 148.708 572.251 148.892V150.965H571.717V148.722C571.717 147.887 571.299 147.461 570.572 147.461C570.387 147.453 570.202 147.486 570.03 147.556C569.859 147.627 569.705 147.734 569.579 147.87C569.453 148.006 569.358 148.168 569.301 148.345C569.245 148.521 569.227 148.708 569.25 148.892V150.965H568.716V146.966H569.226V147.74C569.376 147.491 569.59 147.288 569.846 147.152C570.102 147.016 570.391 146.952 570.68 146.966C570.973 146.944 571.264 147.012 571.516 147.162C571.768 147.311 571.968 147.535 572.088 147.802C572.246 147.536 572.474 147.317 572.746 147.17C573.018 147.023 573.326 146.953 573.635 146.966C573.857 146.947 574.081 146.978 574.29 147.057C574.498 147.135 574.687 147.26 574.841 147.421C574.995 147.582 575.112 147.775 575.181 147.987C575.251 148.199 575.272 148.424 575.244 148.645Z" fill="#263238"/>
<path d="M580.148 149.133H576.837C576.863 149.519 577.04 149.879 577.329 150.135C577.619 150.391 577.998 150.523 578.384 150.502C578.612 150.51 578.839 150.468 579.049 150.379C579.259 150.289 579.447 150.154 579.598 149.984L579.9 150.332C579.617 150.631 579.251 150.84 578.849 150.932C578.447 151.024 578.027 150.995 577.641 150.849C577.256 150.702 576.922 150.445 576.683 150.109C576.443 149.774 576.309 149.375 576.296 148.963C576.282 148.702 576.322 148.441 576.413 148.196C576.505 147.951 576.645 147.728 576.827 147.54C577.008 147.352 577.226 147.204 577.468 147.104C577.709 147.004 577.968 146.955 578.229 146.959C578.49 146.955 578.748 147.004 578.989 147.104C579.23 147.204 579.447 147.353 579.627 147.541C579.807 147.729 579.946 147.953 580.036 148.197C580.126 148.442 580.164 148.703 580.148 148.963C580.155 149.009 580.148 149.071 580.148 149.133ZM576.837 148.731H579.645C579.618 148.376 579.459 148.045 579.199 147.803C578.938 147.561 578.596 147.427 578.241 147.427C577.886 147.427 577.543 147.561 577.283 147.803C577.023 148.045 576.863 148.376 576.837 148.731Z" fill="#263238"/>
<path d="M442.788 211.489C442.751 211.324 442.728 211.156 442.718 210.987C442.723 210.578 442.627 210.174 442.44 209.811C442.292 209.551 442.088 209.328 441.841 209.159C441.594 208.99 441.312 208.88 441.017 208.836C440.66 208.789 440.296 208.843 439.969 208.994C439.642 209.145 439.364 209.385 439.168 209.687C438.998 209.946 438.896 210.244 438.874 210.554C438.874 210.878 438.874 211.188 438.874 211.497L438.688 211.304C440.068 211.296 441.446 211.358 442.819 211.489C441.447 211.641 440.068 211.705 438.688 211.683H438.495V211.489C438.495 211.18 438.495 210.878 438.495 210.523C438.516 210.147 438.636 209.784 438.843 209.471C439.079 209.104 439.417 208.814 439.815 208.636C440.214 208.459 440.656 208.402 441.086 208.473C441.433 208.529 441.761 208.668 442.042 208.878C442.324 209.088 442.55 209.363 442.703 209.68C442.902 210.101 442.964 210.574 442.881 211.033C442.85 211.366 442.788 211.513 442.788 211.489Z" fill="#5063F4"/>
<path d="M441.449 216.516C441.304 216.224 441.18 215.922 441.078 215.612V215.526L441.163 215.465C441.286 215.368 441.37 215.23 441.398 215.076C441.427 214.922 441.398 214.763 441.318 214.629C441.277 214.545 441.218 214.472 441.144 214.415C441.07 214.358 440.984 214.32 440.892 214.302C440.801 214.285 440.706 214.289 440.617 214.315C440.527 214.341 440.445 214.387 440.376 214.45C440.308 214.514 440.255 214.592 440.223 214.68C440.19 214.767 440.179 214.861 440.189 214.953C440.199 215.046 440.231 215.135 440.282 215.213C440.333 215.291 440.402 215.356 440.482 215.403L440.606 215.472L440.567 215.604L440.335 216.524L440.188 216.339C440.619 216.359 441.048 216.408 441.472 216.486C441.055 216.604 440.622 216.657 440.188 216.64H440.003V216.439C440.065 216.13 440.119 215.82 440.173 215.503L440.258 215.704C440.135 215.629 440.03 215.528 439.951 215.407C439.872 215.287 439.82 215.15 439.8 215.007C439.78 214.865 439.792 214.719 439.835 214.581C439.878 214.444 439.951 214.318 440.049 214.212C440.157 214.092 440.292 214.002 440.444 213.949C440.595 213.897 440.757 213.883 440.916 213.91C441.061 213.933 441.199 213.989 441.319 214.074C441.44 214.158 441.54 214.269 441.612 214.397C441.728 214.607 441.759 214.855 441.697 215.087C441.635 215.319 441.485 215.518 441.279 215.642L441.341 215.495C441.44 215.826 441.477 216.172 441.449 216.516Z" fill="#5063F4"/>
<path d="M443.367 211.497C443.48 211.475 443.595 211.475 443.707 211.497C443.988 211.582 444.239 211.744 444.431 211.966C444.622 212.188 444.747 212.46 444.79 212.75C444.79 213.021 444.79 213.284 444.79 213.585C444.79 214.196 444.79 214.869 444.79 215.612C444.79 215.991 444.79 216.385 444.79 216.787C444.82 217.229 444.804 217.672 444.744 218.11C444.676 218.356 444.552 218.582 444.382 218.771C444.211 218.961 443.999 219.108 443.762 219.201C443.516 219.299 443.252 219.341 442.988 219.324H442.215H439.121H438.301C438.063 219.336 437.826 219.297 437.604 219.21C437.383 219.123 437.183 218.99 437.017 218.819C436.851 218.649 436.723 218.445 436.641 218.221C436.56 217.998 436.527 217.759 436.545 217.522C436.545 216.331 436.545 215.202 436.545 214.042V213.214C436.521 212.918 436.558 212.621 436.653 212.34C436.758 212.062 436.935 211.817 437.166 211.631C437.398 211.444 437.675 211.323 437.968 211.28L437.814 211.458C437.814 211.087 437.814 210.754 437.814 210.375C437.849 210.012 437.957 209.66 438.131 209.339C438.496 208.722 439.082 208.269 439.771 208.07C440.289 207.883 440.853 207.856 441.387 207.994C441.921 208.132 442.401 208.428 442.764 208.844C442.999 209.104 443.18 209.408 443.295 209.739C443.411 210.07 443.459 210.42 443.437 210.77C443.43 211.013 443.406 211.256 443.367 211.497C443.329 211.259 443.313 211.018 443.321 210.778C443.317 210.112 443.06 209.473 442.601 208.991C442.328 208.703 441.99 208.484 441.615 208.352C441.24 208.221 440.84 208.18 440.446 208.234C440.052 208.287 439.677 208.434 439.351 208.661C439.025 208.888 438.758 209.189 438.572 209.54C438.423 209.824 438.331 210.134 438.301 210.453C438.301 210.77 438.301 211.157 438.301 211.512V211.667H438.146C437.919 211.703 437.706 211.799 437.528 211.944C437.35 212.089 437.214 212.279 437.133 212.495C437.058 212.745 437.031 213.008 437.056 213.268V214.096C437.056 215.217 437.056 216.416 437.056 217.576C437.034 217.825 437.084 218.075 437.201 218.296C437.318 218.517 437.495 218.699 437.713 218.822C437.928 218.934 438.167 218.99 438.409 218.984H442.338C442.799 219.028 443.263 219.002 443.715 218.907C443.902 218.834 444.069 218.718 444.203 218.569C444.338 218.42 444.435 218.242 444.489 218.048C444.545 217.641 444.566 217.229 444.551 216.818C444.551 216.416 444.551 216.045 444.551 215.643C444.551 214.869 444.551 214.227 444.551 213.616C444.551 213.322 444.551 213.028 444.551 212.796C444.531 212.579 444.459 212.369 444.342 212.185C444.108 211.849 443.763 211.605 443.367 211.497Z" fill="#5063F4"/>
<path d="M446.747 185.771C446.724 185.573 446.712 185.375 446.709 185.176C446.709 184.758 446.709 184.216 446.655 183.559C446.616 182.136 446.569 180.179 446.508 177.82L446.67 177.982L434.882 178.137L435.053 177.905V178.941C435.053 179.289 435.053 179.638 435.053 179.986C435.053 180.674 435.053 181.355 435.053 182.02C435.053 183.342 435.053 184.626 435.053 185.833L434.867 185.655C438.301 185.655 441.225 185.655 443.305 185.655H445.75C446.052 185.648 446.354 185.661 446.655 185.694C446.383 185.731 446.109 185.746 445.835 185.74L443.429 185.818C441.356 185.872 438.386 185.941 434.867 185.988H434.689V185.802C434.689 184.588 434.689 183.311 434.643 181.981C434.643 181.316 434.643 180.635 434.643 179.947C434.643 179.607 434.643 179.259 434.643 178.91V177.866L434.844 177.657L446.631 177.58H446.794V177.743C446.794 180.14 446.794 182.128 446.794 183.582C446.794 184.224 446.794 184.75 446.794 185.129C446.807 185.344 446.792 185.56 446.747 185.771Z" fill="#5063F4"/>
<path d="M446.655 177.82C446.161 178.33 445.614 178.786 445.023 179.182C443.987 179.955 442.54 181.061 440.924 182.229H440.653L440.576 182.175L440.421 182.067L440.119 181.858L439.532 181.448L438.426 180.674L436.561 179.329C435.969 178.938 435.415 178.493 434.906 177.998C435.546 178.305 436.155 178.673 436.724 179.097L438.634 180.373L439.756 181.146L440.351 181.556L440.653 181.765L440.8 181.866L440.877 181.92H440.916H440.7C442.316 180.752 443.793 179.708 444.876 178.965C445.433 178.531 446.029 178.147 446.655 177.82Z" fill="#5063F4"/>
<path d="M435.192 185.88C435.678 184.934 436.284 184.056 436.995 183.265C437.602 182.388 438.316 181.59 439.122 180.891C438.635 181.84 438.027 182.721 437.312 183.513C436.707 184.387 435.995 185.183 435.192 185.88Z" fill="#5063F4"/>
<path d="M442.965 180.891C443.745 181.572 444.434 182.352 445.015 183.211C445.702 183.988 446.284 184.851 446.747 185.779C445.966 185.098 445.277 184.318 444.697 183.459C444.009 182.683 443.427 181.819 442.965 180.891Z" fill="#5063F4"/>
<path d="M590.574 238.614H429.948C428.812 238.614 427.891 239.535 427.891 240.672V261.671C427.891 262.808 428.812 263.729 429.948 263.729H590.574C591.71 263.729 592.632 262.808 592.632 261.671V240.672C592.632 239.535 591.71 238.614 590.574 238.614Z" fill="#5063F4"/>
<g opacity="0.3">
<path d="M590.574 238.614H429.948C428.812 238.614 427.891 239.535 427.891 240.672V261.671C427.891 262.808 428.812 263.729 429.948 263.729H590.574C591.71 263.729 592.632 262.808 592.632 261.671V240.672C592.632 239.535 591.71 238.614 590.574 238.614Z" fill="black"/>
</g>
<path d="M590.574 235.118H429.948C428.812 235.118 427.891 236.039 427.891 237.176V258.175C427.891 259.312 428.812 260.233 429.948 260.233H590.574C591.71 260.233 592.632 259.312 592.632 258.175V237.176C592.632 236.039 591.71 235.118 590.574 235.118Z" fill="#5063F4"/>
<path d="M496.35 248.213C496.345 247.85 496.415 247.491 496.554 247.156C496.694 246.821 496.9 246.518 497.161 246.266C497.422 246.014 497.731 245.818 498.071 245.69C498.41 245.562 498.772 245.505 499.134 245.521C499.507 245.507 499.879 245.572 500.225 245.714C500.571 245.855 500.882 246.069 501.138 246.341L500.65 246.813C500.371 246.517 500.009 246.311 499.611 246.223C499.213 246.135 498.798 246.168 498.42 246.319C498.041 246.469 497.716 246.73 497.488 247.067C497.259 247.404 497.137 247.802 497.137 248.209C497.137 248.617 497.259 249.015 497.488 249.352C497.716 249.689 498.041 249.949 498.42 250.1C498.798 250.25 499.213 250.283 499.611 250.195C500.009 250.107 500.371 249.902 500.65 249.605L501.138 250.077C500.881 250.351 500.569 250.567 500.222 250.71C499.875 250.853 499.502 250.919 499.127 250.905C498.765 250.921 498.404 250.862 498.065 250.734C497.727 250.605 497.418 250.409 497.158 250.157C496.898 249.905 496.693 249.603 496.554 249.268C496.415 248.934 496.345 248.575 496.35 248.213Z" fill="white"/>
<path d="M505.724 250.843L504.587 249.227H504.262H502.955V250.828H502.182V245.568H504.239C505.6 245.568 506.428 246.257 506.428 247.401C506.446 247.767 506.342 248.128 506.134 248.428C505.925 248.729 505.624 248.953 505.276 249.064L506.521 250.828L505.724 250.843ZM505.724 247.417C505.724 246.643 505.221 246.241 504.262 246.241H502.978V248.608H504.262C505.198 248.608 505.701 248.167 505.701 247.417H505.724Z" fill="white"/>
<path d="M511.487 250.194V250.844H507.666V245.584H511.379V246.241H508.416V247.858H511.062V248.492H508.416V250.194H511.487Z" fill="white"/>
<path d="M516.058 249.529H513.258L512.678 250.844H511.904L514.287 245.584H515.06L517.45 250.844H516.677L516.058 249.529ZM515.795 248.933L514.658 246.35L513.521 248.933H515.795Z" fill="white"/>
<path d="M518.982 246.241H517.18V245.584H521.534V246.241H519.724V250.844H518.951L518.982 246.241Z" fill="white"/>
<path d="M526.168 250.194V250.844H522.347V245.584H526.059V246.241H523.097V247.858H525.734V248.492H523.097V250.194H526.168Z" fill="white"/>
<path d="M469.812 118.278C480.658 118.278 489.451 109.485 489.451 98.6393C489.451 87.7934 480.658 79.001 469.812 79.001C458.966 79.001 450.174 87.7934 450.174 98.6393C450.174 109.485 458.966 118.278 469.812 118.278Z" fill="#5063F4"/>
<g opacity="0.3">
<path d="M469.812 118.278C480.658 118.278 489.451 109.485 489.451 98.6393C489.451 87.7934 480.658 79.001 469.812 79.001C458.966 79.001 450.174 87.7934 450.174 98.6393C450.174 109.485 458.966 118.278 469.812 118.278Z" fill="black"/>
</g>
<path d="M469.812 114.635C480.658 114.635 489.451 105.843 489.451 94.9967C489.451 84.1508 480.658 75.3584 469.812 75.3584C458.966 75.3584 450.174 84.1508 450.174 94.9967C450.174 105.843 458.966 114.635 469.812 114.635Z" fill="#5063F4"/>
<path d="M469.812 106.614C469.255 106.614 468.799 101.409 468.799 95.0122C468.799 88.6156 469.255 83.4102 469.812 83.4102C470.369 83.4102 470.818 88.6156 470.818 95.0122C470.818 101.409 470.361 106.614 469.812 106.614Z" fill="white"/>
<path d="M481.461 94.9967C481.461 95.5536 476.263 96.0022 469.859 96.0022C463.455 96.0022 458.257 95.5536 458.257 94.9967C458.257 94.4398 463.455 93.9912 469.859 93.9912C476.263 93.9912 481.461 94.4398 481.461 94.9967Z" fill="white"/>
</g>
<defs>
<clipPath id="clip0_8048_34918">
<rect width="309.387" height="278" fill="white" transform="translate(355.307 8)"/>
</clipPath>
</defs>
</svg>
