<svg width="502" height="373" viewBox="0 0 502 373" fill="none" xmlns="http://www.w3.org/2000/svg">
<path d="M450.901 343.861H417.781V344.111H450.901V343.861Z" fill="#EBEBEB"/>
<path d="M332.221 346.581H323.531V346.831H332.221V346.581Z" fill="#EBEBEB"/>
<path d="M416.78 334.581H397.59V334.831H416.78V334.581Z" fill="#EBEBEB"/>
<path d="M96.6509 336.261H53.4609V336.511H96.6509V336.261Z" fill="#EBEBEB"/>
<path d="M111.889 336.261H105.559V336.511H111.889V336.261Z" fill="#EBEBEB"/>
<path d="M226.149 340.481H132.469V340.731H226.149V340.481Z" fill="#EBEBEB"/>
<path d="M238.001 283.171H44.9109C43.3983 283.168 41.9485 282.566 40.8798 281.495C39.8112 280.425 39.2109 278.974 39.2109 277.461V6.03109C39.2241 4.52712 39.8301 3.08907 40.8974 2.02931C41.9646 0.969552 43.4069 0.37367 44.9109 0.371094H238.001C239.515 0.371094 240.968 0.972682 242.039 2.04351C243.109 3.11435 243.711 4.56671 243.711 6.08109V277.461C243.711 278.975 243.109 280.428 242.039 281.499C240.968 282.57 239.515 283.171 238.001 283.171ZM44.9109 0.571095C43.4646 0.573744 42.0784 1.15016 41.0566 2.17382C40.0348 3.19748 39.4609 4.58474 39.4609 6.03109V277.461C39.4609 278.907 40.0348 280.295 41.0566 281.318C42.0784 282.342 43.4646 282.918 44.9109 282.921H238.001C239.448 282.918 240.835 282.342 241.859 281.319C242.882 280.296 243.458 278.908 243.461 277.461V6.03109C243.458 4.58382 242.882 3.19659 241.859 2.17321C240.835 1.14983 239.448 0.573738 238.001 0.571095H44.9109Z" fill="#EBEBEB"/>
<path d="M454.31 283.171H261.21C259.696 283.168 258.246 282.566 257.175 281.496C256.105 280.426 255.503 278.975 255.5 277.461V6.03109C255.516 4.52621 256.124 3.08817 257.193 2.02869C258.262 0.969202 259.705 0.373642 261.21 0.371094H454.31C455.812 0.376298 457.252 0.973343 458.317 2.03282C459.382 3.0923 459.987 4.52885 460 6.03109V277.461C460 278.972 459.401 280.421 458.335 281.492C457.268 282.562 455.821 283.166 454.31 283.171ZM261.21 0.571095C259.763 0.573738 258.375 1.14983 257.352 2.17321C256.329 3.19659 255.753 4.58382 255.75 6.03109V277.461C255.753 278.908 256.329 280.296 257.352 281.319C258.375 282.342 259.763 282.918 261.21 282.921H454.31C455.757 282.918 457.145 282.342 458.168 281.319C459.191 280.296 459.767 278.908 459.77 277.461V6.03109C459.767 4.58382 459.191 3.19659 458.168 2.17321C457.145 1.14983 455.757 0.573738 454.31 0.571095H261.21Z" fill="#EBEBEB"/>
<path d="M501 327.771H1V328.021H501V327.771Z" fill="#EBEBEB"/>
<path d="M150.181 160.631H127.781V327.641H150.181V160.631Z" fill="#F0F0F0"/>
<path d="M187.521 103.681H165.121V327.641H187.521V103.681Z" fill="#F0F0F0"/>
<path d="M224.861 160.631H202.461V327.641H224.861V160.631Z" fill="#F0F0F0"/>
<path d="M75.5016 217.571H53.1016V327.631H75.5016V217.571Z" fill="#F0F0F0"/>
<path d="M112.841 190.081H90.4414V327.641H112.841V190.081Z" fill="#F0F0F0"/>
<path d="M262.201 217.571H239.801V327.631H262.201V217.571Z" fill="#F0F0F0"/>
<path d="M448.888 46.7314H426.488V327.631H448.888V46.7314Z" fill="#F0F0F0"/>
<path d="M299.541 160.631H277.141V327.641H299.541V160.631Z" fill="#F0F0F0"/>
<path d="M411.548 103.681H389.148V327.641H411.548V103.681Z" fill="#F0F0F0"/>
<path d="M374.22 133.131H351.82V327.641H374.22V133.131Z" fill="#F0F0F0"/>
<path d="M336.88 190.081H314.48V327.641H336.88V190.081Z" fill="#F0F0F0"/>
<path d="M349.609 98.9114L357.629 117.691L398.719 88.0514L410.699 51.2914L432.559 32.0714L437.629 37.8614L449.099 9.73145L416.439 11.4114L422.229 17.9614L400.269 36.7714L389.339 73.8615L349.609 98.9114Z" fill="#F0F0F0"/>
<path d="M78.4246 150.383C80.4075 141.981 75.2043 133.563 66.8029 131.58C58.4016 129.597 49.9834 134.801 48.0005 143.202C46.0176 151.603 51.2208 160.022 59.6222 162.004C68.0236 163.987 76.4417 158.784 78.4246 150.383Z" fill="#EBEBEB"/>
<path d="M76.1367 157.84C82.2406 151.736 82.2406 141.84 76.1367 135.736C70.0328 129.632 60.1364 129.632 54.0325 135.736C47.9287 141.84 47.9287 151.736 54.0326 157.84C60.1364 163.944 70.0328 163.944 76.1367 157.84Z" fill="#FAFAFA"/>
<path d="M65.0906 158.491C71.5524 158.491 76.7906 153.253 76.7906 146.791C76.7906 140.329 71.5524 135.091 65.0906 135.091C58.6289 135.091 53.3906 140.329 53.3906 146.791C53.3906 153.253 58.6289 158.491 65.0906 158.491Z" fill="#F0F0F0"/>
<path d="M70.23 149.281C70.68 151.871 68.9 153.601 65.7 153.871V156.011H63.7L63.76 153.871C62.0776 153.751 60.4469 153.238 59 152.371L59.88 149.961C61.0623 150.738 62.4131 151.221 63.82 151.371L63.91 148.091C62 147.541 59.91 146.821 59.48 144.471C59.03 141.881 60.84 140.141 64.11 139.901V137.761H66.11V139.921C67.4282 140.035 68.71 140.413 69.88 141.031L69.06 143.371C68.1247 142.819 67.0805 142.478 66 142.371L65.92 145.791C67.79 146.371 69.84 147.051 70.23 149.281ZM63.97 145.281L64.04 142.481C62.97 142.691 62.45 143.291 62.56 144.031C62.67 144.771 63.21 144.981 64 145.281H63.97ZM67.17 149.791C67.07 149.221 66.56 148.871 65.83 148.621V151.281C66.79 151.071 67.3 150.531 67.17 149.791Z" fill="white"/>
<path d="M194.052 66.5607C199.542 78.2907 192.172 89.9707 181.552 94.4307C179.09 95.5112 176.429 96.0627 173.74 96.0494C171.052 96.0361 168.396 95.4583 165.945 94.3535C163.494 93.2486 161.303 91.6414 159.512 89.6358C157.722 87.6302 156.373 85.2709 155.552 82.7107C151.832 71.7807 155.702 54.2207 166.322 49.7607C166.362 49.7607 186.812 51.1107 194.052 66.5607Z" fill="#F0F0F0"/>
<path d="M182.38 73.0807C184.07 75.6207 182.98 78.2507 179.69 79.9807L180.63 82.2707L178.55 83.1407L177.61 80.8507C175.757 81.4741 173.785 81.6557 171.85 81.3807L171.67 78.4307C173.28 78.7106 174.934 78.6113 176.5 78.1407L175.05 74.6207C172.76 74.8907 170.17 75.0807 168.63 72.7707C166.94 70.2307 168.06 67.5607 171.44 65.8407L170.5 63.5507L172.57 62.6807L173.57 64.9907C175.036 64.513 176.583 64.3361 178.12 64.4707L178.43 67.3707C177.168 67.2072 175.887 67.3128 174.67 67.6807L176.18 71.3507C178.4 71.0607 180.91 70.8807 182.38 73.0807ZM173.81 71.6407L172.58 68.6407C171.58 69.3507 171.27 70.2207 171.73 70.9507C171.988 71.2342 172.315 71.4466 172.679 71.5674C173.044 71.6882 173.433 71.7134 173.81 71.6407ZM179.34 74.9907C179.098 74.7091 178.783 74.5001 178.43 74.3871C178.077 74.2741 177.699 74.2614 177.34 74.3507L178.53 77.2007C179.54 76.5207 179.83 75.7207 179.34 74.9907Z" fill="white"/>
<path d="M160.939 53.6915L155.559 48.6915C155.559 48.6915 156.159 43.8715 159.089 42.4515C159.881 42.0259 160.763 41.7916 161.662 41.7673C162.561 41.743 163.454 41.9294 164.269 42.3115L169.659 38.3115L170.559 50.6115C170.559 50.6115 166.809 57.2815 160.939 53.6915Z" fill="#F0F0F0"/>
<path d="M167.001 50.9413C165.671 48.7513 164.401 46.4813 163.081 44.2813C162.587 44.1001 162.056 44.04 161.534 44.1062C161.012 44.1723 160.514 44.3626 160.081 44.6613C159.653 44.9718 159.301 45.3752 159.052 45.8411C158.803 46.307 158.662 46.8233 158.641 47.3513C159.788 49.1949 161.177 50.8765 162.771 52.3513C163.001 51.4313 166.281 50.4413 167.001 50.9413Z" fill="#E0E0E0"/>
<path d="M168.062 50.8409L167.062 43.4609C166.732 43.8309 166.502 44.1609 166.172 44.5309C166.482 46.0309 167.392 50.5309 167.542 50.7209L168.062 50.8409Z" fill="#E0E0E0"/>
<path d="M311.438 148.001C294.808 158.081 278.058 138.121 261.438 148.201C261.438 138.934 261.401 129.664 261.328 120.391C277.958 110.311 294.708 130.271 311.328 120.191L311.438 148.001Z" fill="#FAFAFA"/>
<path d="M309.188 144.811L309.108 125.751C308.886 125.887 308.631 125.959 308.37 125.958C308.11 125.957 307.855 125.885 307.633 125.748C307.411 125.611 307.232 125.416 307.115 125.184C306.997 124.951 306.947 124.691 306.968 124.431C293.238 128.791 279.438 116.281 265.698 120.641C265.645 121.278 265.419 121.887 265.046 122.405C264.672 122.923 264.165 123.33 263.578 123.581L263.658 142.651C263.879 142.515 264.133 142.443 264.392 142.443C264.651 142.443 264.906 142.515 265.127 142.65C265.347 142.786 265.526 142.981 265.643 143.212C265.76 143.444 265.81 143.703 265.788 143.961C279.528 139.601 293.328 152.121 307.068 147.761C307.12 147.123 307.345 146.512 307.718 145.992C308.092 145.472 308.6 145.064 309.188 144.811Z" fill="#F0F0F0"/>
<path d="M285.161 132.251C285.167 132.433 285.238 132.606 285.361 132.741C285.532 132.917 285.727 133.068 285.941 133.191C285.941 132.691 285.941 132.191 285.941 131.701C285.738 131.674 285.532 131.72 285.361 131.831C285.296 131.879 285.244 131.943 285.209 132.016C285.174 132.089 285.157 132.17 285.161 132.251Z" fill="white"/>
<path d="M287 135.301V136.741C287.194 136.771 287.392 136.732 287.56 136.631C287.623 136.588 287.674 136.53 287.708 136.462C287.741 136.393 287.756 136.317 287.75 136.241C287.744 136.061 287.677 135.888 287.56 135.751C287.397 135.573 287.209 135.421 287 135.301Z" fill="white"/>
<path d="M286.35 126.371C282.04 125.041 278.56 127.751 278.57 132.081C278.58 136.411 282.1 140.641 286.41 141.971C290.72 143.301 294.21 140.591 294.19 136.251C294.17 131.911 290.67 127.731 286.35 126.371ZM288.81 137.861C288.54 138.016 288.242 138.116 287.933 138.155C287.624 138.195 287.311 138.173 287.01 138.091V139.261L285.96 138.951V137.811C285.443 137.633 284.946 137.399 284.48 137.111C284.066 136.865 283.686 136.566 283.35 136.221L283.92 135.111C284.204 135.395 284.516 135.65 284.85 135.871C285.197 136.098 285.565 136.289 285.95 136.441V134.701C285.516 134.47 285.095 134.213 284.69 133.931C284.355 133.686 284.064 133.385 283.83 133.041C283.594 132.675 283.472 132.247 283.48 131.811C283.462 131.558 283.509 131.304 283.618 131.075C283.726 130.845 283.893 130.648 284.1 130.501C284.659 130.194 285.315 130.115 285.93 130.281C285.93 129.901 285.93 129.511 285.93 129.121L286.98 129.431V130.571C287.76 130.853 288.48 131.281 289.1 131.831L288.59 132.961C288.111 132.543 287.567 132.206 286.98 131.961C286.98 132.551 286.98 133.151 286.98 133.741C287.411 133.961 287.825 134.212 288.22 134.491C288.558 134.73 288.849 135.029 289.08 135.371C289.311 135.733 289.432 136.153 289.43 136.581C289.451 136.835 289.405 137.089 289.296 137.319C289.187 137.549 289.02 137.747 288.81 137.891V137.861Z" fill="white"/>
<path d="M315.34 143.371C298.72 153.451 281.97 133.491 265.34 143.571C265.3 134.298 265.264 125.028 265.23 115.761C281.85 105.681 298.6 125.641 315.23 115.561L315.34 143.371Z" fill="#FAFAFA"/>
<path d="M313.089 140.221L312.999 121.151C312.779 121.291 312.524 121.366 312.263 121.369C312.002 121.371 311.746 121.299 311.524 121.163C311.302 121.026 311.122 120.829 311.006 120.596C310.891 120.362 310.843 120.1 310.869 119.841C297.129 124.201 283.329 111.691 269.589 116.041C269.546 116.688 269.325 117.31 268.951 117.839C268.577 118.369 268.064 118.784 267.469 119.041L267.549 138.101C267.77 137.964 268.025 137.892 268.286 137.892C268.546 137.892 268.801 137.965 269.022 138.102C269.243 138.239 269.422 138.435 269.538 138.668C269.654 138.901 269.703 139.162 269.679 139.421C283.419 135.061 297.219 147.571 310.959 143.211C311.002 142.564 311.224 141.942 311.6 141.414C311.976 140.886 312.492 140.473 313.089 140.221Z" fill="#F0F0F0"/>
<path d="M289.059 127.661C289.065 127.84 289.136 128.011 289.259 128.141C289.433 128.318 289.628 128.472 289.839 128.601V127.111C289.633 127.084 289.425 127.13 289.249 127.241C289.187 127.291 289.137 127.355 289.104 127.428C289.071 127.501 289.056 127.581 289.059 127.661Z" fill="white"/>
<path d="M290.898 130.701V132.151C291.095 132.181 291.297 132.142 291.468 132.041C291.528 131.996 291.575 131.936 291.607 131.868C291.638 131.801 291.652 131.726 291.648 131.651C291.649 131.47 291.581 131.295 291.458 131.161C291.292 130.984 291.104 130.83 290.898 130.701Z" fill="white"/>
<path d="M290.251 121.801C285.941 120.471 282.461 123.191 282.481 127.521C282.501 131.851 286.001 136.071 290.321 137.401C294.641 138.731 298.111 136.021 298.091 131.691C298.071 127.361 294.571 123.131 290.251 121.801ZM292.721 133.301C292.17 133.609 291.521 133.691 290.911 133.531V134.701L289.861 134.391V133.251C289.343 133.07 288.846 132.832 288.381 132.541C287.966 132.296 287.586 131.997 287.251 131.651L287.821 130.541C288.101 130.828 288.413 131.083 288.751 131.301C289.097 131.531 289.465 131.726 289.851 131.881V130.131C289.414 129.906 288.993 129.652 288.591 129.371C288.252 129.125 287.961 128.82 287.731 128.471C287.493 128.109 287.371 127.684 287.381 127.251C287.366 126.997 287.416 126.744 287.526 126.515C287.636 126.286 287.803 126.088 288.011 125.941C288.284 125.786 288.586 125.686 288.898 125.648C289.211 125.61 289.528 125.635 289.831 125.721V124.561L290.831 124.871V126.011C291.631 126.282 292.369 126.711 293.001 127.271C292.821 127.651 292.651 128.021 292.481 128.401C292.001 127.983 291.458 127.645 290.871 127.401C290.871 127.991 290.871 128.581 290.871 129.181C291.301 129.398 291.715 129.645 292.111 129.921C292.451 130.161 292.742 130.463 292.971 130.811C293.205 131.171 293.327 131.592 293.321 132.021C293.335 132.268 293.288 132.514 293.183 132.737C293.078 132.961 292.919 133.155 292.721 133.301Z" fill="white"/>
<path d="M250.999 372.381C358.082 372.381 444.889 367.313 444.889 361.061C444.889 354.809 358.082 349.741 250.999 349.741C143.917 349.741 57.1094 354.809 57.1094 361.061C57.1094 367.313 143.917 372.381 250.999 372.381Z" fill="#F5F5F5"/>
<path d="M132.879 353.491V355.571C132.892 356.093 133.108 356.589 133.482 356.953C133.856 357.317 134.357 357.521 134.879 357.521H209.429C209.665 357.521 209.899 357.475 210.118 357.384C210.336 357.294 210.535 357.161 210.702 356.994C210.869 356.827 211.001 356.628 211.092 356.41C211.182 356.192 211.229 355.957 211.229 355.721V353.721C211.229 353.485 211.182 353.251 211.092 353.032C211.001 352.814 210.869 352.615 210.702 352.448C210.535 352.281 210.336 352.149 210.118 352.058C209.899 351.968 209.665 351.921 209.429 351.921H190.839C190.342 351.922 189.85 351.813 189.4 351.603C188.949 351.393 188.55 351.086 188.231 350.704C187.913 350.322 187.682 349.875 187.555 349.394C187.429 348.913 187.409 348.41 187.499 347.921L193.999 310.371H151.649L133.519 350.501C133.098 351.442 132.88 352.461 132.879 353.491Z" fill="#263238"/>
<path opacity="0.2" d="M211.178 353.711V355.711C211.179 355.947 211.134 356.181 211.045 356.399C210.955 356.617 210.824 356.816 210.657 356.983C210.491 357.151 210.293 357.283 210.075 357.374C209.858 357.464 209.624 357.511 209.388 357.511H134.828C134.306 357.511 133.805 357.307 133.431 356.943C133.058 356.579 132.841 356.083 132.828 355.561V353.481C132.831 352.929 132.895 352.379 133.018 351.841C133.126 351.374 133.28 350.918 133.478 350.481L151.648 310.371H193.998L187.488 347.941C187.447 348.159 187.43 348.38 187.438 348.601C187.457 349.365 187.733 350.1 188.221 350.688C188.709 351.275 189.381 351.682 190.128 351.841C190.362 351.89 190.6 351.914 190.838 351.911H209.378C209.615 351.91 209.85 351.955 210.069 352.045C210.287 352.135 210.486 352.268 210.654 352.435C210.821 352.603 210.954 352.802 211.044 353.021C211.134 353.24 211.179 353.474 211.178 353.711Z" fill="white"/>
<path d="M131.13 350.501L149.26 310.371H151.65L133.52 350.501C133.098 351.445 132.88 352.467 132.88 353.501V355.581C132.894 356.103 133.11 356.599 133.484 356.963C133.857 357.327 134.359 357.531 134.88 357.531H132.48C131.959 357.531 131.457 357.327 131.084 356.963C130.71 356.599 130.494 356.103 130.48 355.581V353.501C130.479 352.466 130.7 351.443 131.13 350.501Z" fill="#263238"/>
<path opacity="0.3" d="M151.65 310.371H194L192.34 319.961H147.32L151.65 310.371Z" fill="black"/>
<path d="M267.458 314.591H86.7778C84.9796 314.558 83.2556 313.867 81.9324 312.649C80.6092 311.431 79.7786 309.77 79.5978 307.981L68.1678 177.421C68.0822 176.583 68.1738 175.737 68.4368 174.937C68.6997 174.137 69.1281 173.401 69.694 172.778C70.26 172.154 70.9508 171.657 71.7216 171.318C72.4923 170.979 73.3258 170.806 74.1678 170.811H254.878C256.677 170.841 258.402 171.531 259.725 172.75C261.049 173.968 261.879 175.63 262.058 177.421L273.488 307.981C273.574 308.821 273.481 309.67 273.217 310.472C272.952 311.274 272.521 312.011 271.952 312.635C271.382 313.259 270.688 313.755 269.914 314.092C269.139 314.429 268.302 314.599 267.458 314.591Z" fill="#263238"/>
<path d="M272.249 293.861L273.489 307.981C273.575 308.819 273.483 309.665 273.22 310.465C272.957 311.265 272.529 312.001 271.963 312.624C271.397 313.248 270.706 313.745 269.936 314.084C269.165 314.423 268.331 314.596 267.489 314.591H86.7794C84.9805 314.561 83.2554 313.871 81.9317 312.652C80.608 311.434 79.7781 309.772 79.5994 307.981L78.3594 293.861H272.249Z" fill="#5063F4"/>
<path opacity="0.3" d="M272.249 293.861L273.489 307.981C273.575 308.819 273.483 309.665 273.22 310.465C272.957 311.265 272.529 312.001 271.963 312.624C271.397 313.248 270.706 313.745 269.936 314.084C269.165 314.423 268.331 314.596 267.489 314.591H86.7794C84.9805 314.561 83.2554 313.871 81.9317 312.652C80.608 311.434 79.7781 309.772 79.5994 307.981L78.3594 293.861" fill="black"/>
<path d="M84.738 289.871H265.178C265.637 289.879 266.092 289.79 266.513 289.608C266.935 289.427 267.313 289.158 267.622 288.819C267.931 288.481 268.165 288.08 268.307 287.644C268.45 287.208 268.498 286.747 268.448 286.291L258.998 178.371C258.896 177.401 258.443 176.502 257.725 175.843C257.007 175.184 256.073 174.81 255.098 174.791H74.668C74.2093 174.782 73.7542 174.872 73.3328 175.053C72.9114 175.234 72.5334 175.503 72.224 175.842C71.9147 176.18 71.681 176.581 71.5385 177.017C71.3961 177.453 71.3482 177.915 71.398 178.371L80.838 286.281C80.9379 287.252 81.3896 288.153 82.108 288.814C82.8263 289.476 83.7618 289.851 84.738 289.871Z" fill="#5063F4"/>
<path opacity="0.6" d="M84.738 289.871H265.178C265.637 289.879 266.092 289.79 266.513 289.608C266.935 289.427 267.313 289.158 267.622 288.819C267.931 288.481 268.165 288.08 268.307 287.644C268.45 287.208 268.498 286.747 268.448 286.291L258.998 178.371C258.896 177.401 258.443 176.502 257.725 175.843C257.007 175.184 256.073 174.81 255.098 174.791H74.668C74.2093 174.782 73.7542 174.872 73.3328 175.053C72.9114 175.234 72.5334 175.503 72.224 175.842C71.9147 176.18 71.681 176.581 71.5385 177.017C71.3961 177.453 71.3482 177.915 71.398 178.371L80.838 286.281C80.9379 287.252 81.3896 288.153 82.108 288.814C82.8263 289.476 83.7618 289.851 84.738 289.871Z" fill="white"/>
<path d="M70.2096 170.811H74.2096C73.3676 170.806 72.5341 170.979 71.7633 171.318C70.9925 171.657 70.3017 172.155 69.7358 172.778C69.1699 173.402 68.7415 174.137 68.4785 174.937C68.2156 175.737 68.1239 176.583 68.2096 177.421L79.5996 307.981C79.7782 309.771 80.6082 311.433 81.9319 312.652C83.2555 313.871 84.9807 314.561 86.7796 314.591H82.7796C80.982 314.556 79.2592 313.865 77.9365 312.647C76.6137 311.429 75.7824 309.769 75.5996 307.981L64.1796 177.421C64.0937 176.581 64.1861 175.732 64.4508 174.93C64.7155 174.128 65.1466 173.391 65.7158 172.767C66.285 172.143 66.9795 171.646 67.7539 171.309C68.5282 170.972 69.365 170.802 70.2096 170.811Z" fill="#5063F4"/>
<path opacity="0.3" d="M70.2096 170.811H74.2096C73.3676 170.806 72.5341 170.979 71.7633 171.318C70.9925 171.657 70.3017 172.155 69.7358 172.778C69.1699 173.402 68.7415 174.137 68.4785 174.937C68.2156 175.737 68.1239 176.583 68.2096 177.421L79.5996 307.981C79.7782 309.771 80.6082 311.433 81.9319 312.652C83.2555 313.871 84.9807 314.561 86.7796 314.591H82.7796C80.982 314.556 79.2592 313.865 77.9365 312.647C76.6137 311.429 75.7824 309.769 75.5996 307.981L64.1796 177.421C64.0937 176.581 64.1861 175.732 64.4508 174.93C64.7155 174.128 65.1466 173.391 65.7158 172.767C66.285 172.143 66.9795 171.646 67.7539 171.309C68.5282 170.972 69.365 170.802 70.2096 170.811Z" fill="white"/>
<path d="M206.149 196.17C206.168 197.429 205.934 198.678 205.459 199.844C204.985 201.01 204.281 202.068 203.388 202.955C202.496 203.843 201.434 204.542 200.266 205.01C199.098 205.478 197.847 205.706 196.589 205.68H142.249C139.408 205.629 136.684 204.538 134.593 202.615C132.501 200.691 131.187 198.067 130.899 195.24C130.899 194.93 130.899 194.61 130.899 194.31C130.883 193.053 131.119 191.805 131.595 190.64C132.07 189.476 132.774 188.419 133.666 187.532C134.558 186.645 135.619 185.946 136.786 185.477C137.952 185.007 139.202 184.778 140.459 184.8H194.799C197.641 184.85 200.366 185.94 202.458 187.864C204.55 189.788 205.863 192.413 206.149 195.24C206.139 195.55 206.149 195.86 206.149 196.17Z" fill="#5063F4"/>
<g opacity="0.1">
<path d="M203.909 196.17C203.927 197.428 203.691 198.677 203.216 199.842C202.742 201.007 202.037 202.065 201.145 202.952C200.253 203.839 199.192 204.538 198.025 205.007C196.857 205.476 195.607 205.705 194.349 205.68H142.249C139.408 205.629 136.684 204.538 134.593 202.615C132.501 200.691 131.187 198.067 130.899 195.24C130.899 194.93 130.899 194.61 130.899 194.31C130.883 193.053 131.119 191.805 131.595 190.64C132.07 189.476 132.774 188.419 133.666 187.532C134.558 186.645 135.619 185.946 136.786 185.477C137.952 185.007 139.202 184.778 140.459 184.8H192.559C195.401 184.85 198.126 185.94 200.218 187.864C202.31 189.788 203.623 192.413 203.909 195.24C203.899 195.55 203.909 195.86 203.909 196.17Z" fill="white"/>
</g>
<path d="M136.929 246.191L137.039 247.501H136.039L135.929 246.201C134.853 246.167 133.81 245.819 132.929 245.201L133.359 244.011C134.071 244.52 134.907 244.831 135.779 244.911L135.569 242.561C134.239 242.241 132.809 241.821 132.669 240.191C132.569 239.001 133.339 237.961 135.149 237.781L135.039 236.461H136.039L136.149 237.761C137.008 237.795 137.846 238.039 138.589 238.471L138.219 239.661C137.603 239.313 136.922 239.095 136.219 239.021L136.429 241.391C137.759 241.711 139.209 242.121 139.359 243.741C139.539 244.971 138.749 246.001 136.929 246.191ZM135.529 241.191L135.349 239.111C134.529 239.241 134.209 239.661 134.259 240.171C134.309 240.681 134.829 240.971 135.529 241.171V241.191ZM137.939 243.901C137.889 243.331 137.349 243.061 136.629 242.901L136.819 244.971C137.659 244.781 137.999 244.371 137.939 243.881V243.901Z" fill="#5063F4"/>
<path d="M146.311 243.581C146.441 245.021 145.501 246.211 143.311 246.211C142.181 246.227 141.075 245.895 140.141 245.261L140.681 244.081C141.403 244.608 142.276 244.892 143.171 244.891C144.261 244.891 144.861 244.411 144.791 243.631C144.721 242.851 144.181 242.361 142.481 242.361H140.481V237.891H145.291L145.411 239.171H141.881V241.071H142.661C145.121 241.071 146.181 242.121 146.311 243.581Z" fill="#5063F4"/>
<path d="M147.059 241.991C146.819 239.301 148.159 237.781 150.109 237.781C152.059 237.781 153.679 239.301 153.909 241.991C154.139 244.681 152.799 246.211 150.849 246.211C148.899 246.211 147.289 244.691 147.059 241.991ZM152.379 241.991C152.199 239.991 151.379 239.101 150.219 239.101C149.059 239.101 148.419 240.011 148.589 241.991C148.759 243.971 149.589 244.891 150.729 244.891C151.869 244.891 152.549 243.971 152.379 241.991Z" fill="#5063F4"/>
<path d="M155 241.991C154.76 239.301 156.1 237.781 158.05 237.781C160 237.781 161.62 239.301 161.85 241.991C162.08 244.681 160.74 246.211 158.79 246.211C156.84 246.211 155.18 244.691 155 241.991ZM160.32 241.991C160.14 239.991 159.32 239.101 158.17 239.101C157.02 239.101 156.36 240.011 156.53 241.991C156.7 243.971 157.53 244.891 158.67 244.891C159.81 244.891 160.44 243.971 160.27 241.991H160.32Z" fill="#5063F4"/>
<path d="M162.84 241.991C162.6 239.301 163.94 237.781 165.84 237.781C167.74 237.781 169.41 239.301 169.64 241.991C169.87 244.681 168.53 246.211 166.58 246.211C164.63 246.211 163.07 244.691 162.84 241.991ZM168.16 241.991C167.98 239.991 167.16 239.101 166.01 239.101C164.86 239.101 164.2 240.011 164.37 241.991C164.54 243.971 165.37 244.891 166.51 244.891C167.65 244.891 168.33 243.971 168.16 241.991Z" fill="#5063F4"/>
<path d="M172.739 245.201C172.755 245.543 172.694 245.885 172.559 246.201L172.109 247.851H171.109L171.419 246.061C171.242 245.991 171.089 245.872 170.977 245.717C170.866 245.563 170.8 245.381 170.789 245.191C170.765 245.065 170.769 244.936 170.802 244.812C170.835 244.689 170.896 244.575 170.98 244.478C171.064 244.382 171.168 244.306 171.286 244.256C171.404 244.206 171.531 244.184 171.659 244.191C171.798 244.18 171.937 244.197 172.069 244.243C172.2 244.289 172.321 244.362 172.422 244.457C172.524 244.552 172.605 244.667 172.659 244.795C172.714 244.924 172.741 245.062 172.739 245.201Z" fill="#5063F4"/>
<path d="M173.309 241.991C173.069 239.301 174.409 237.781 176.359 237.781C178.309 237.781 179.929 239.301 180.159 241.991C180.389 244.681 179.049 246.211 177.099 246.211C175.149 246.211 173.539 244.691 173.309 241.991ZM178.629 241.991C178.449 239.991 177.629 239.101 176.479 239.101C175.329 239.101 174.669 240.011 174.839 241.991C175.009 243.971 175.839 244.891 176.979 244.891C178.119 244.891 178.799 243.971 178.629 241.991Z" fill="#5063F4"/>
<path d="M181.199 241.991C180.959 239.301 182.309 237.781 184.249 237.781C186.189 237.781 187.819 239.301 188.049 241.991C188.279 244.681 186.949 246.211 184.989 246.211C183.029 246.211 181.429 244.691 181.199 241.991ZM186.519 241.991C186.339 239.991 185.519 239.101 184.369 239.101C183.219 239.101 182.559 240.011 182.729 241.991C182.899 243.971 183.729 244.891 184.869 244.891C186.009 244.891 186.689 243.971 186.519 241.991Z" fill="#5063F4"/>
<path d="M192.89 242.521L192.48 237.891H194L194.4 242.461C194.55 244.151 195.4 244.881 196.7 244.881C198 244.881 198.7 244.151 198.56 242.461L198.16 237.891H199.66L200.07 242.521C200.28 244.911 199.07 246.211 196.81 246.211C196.306 246.247 195.799 246.178 195.323 246.008C194.846 245.838 194.41 245.572 194.042 245.225C193.673 244.878 193.381 244.459 193.183 243.993C192.985 243.528 192.885 243.026 192.89 242.521Z" fill="#5063F4"/>
<path d="M201.75 245.231L202.18 244.041C202.992 244.622 203.962 244.94 204.96 244.951C206.24 244.951 206.74 244.491 206.68 243.881C206.53 242.111 201.76 243.271 201.49 240.221C201.37 238.901 202.33 237.781 204.58 237.781C205.558 237.768 206.521 238.017 207.37 238.501L207 239.691C206.294 239.282 205.496 239.058 204.68 239.041C203.41 239.041 202.94 239.531 203 240.151C203.15 241.901 207.91 240.761 208.17 243.771C208.29 245.091 207.32 246.211 205.07 246.211C203.889 246.235 202.729 245.893 201.75 245.231Z" fill="#5063F4"/>
<path d="M209.18 237.891H212.76C213.943 237.805 215.112 238.186 216.017 238.952C216.922 239.719 217.49 240.81 217.6 241.991C217.81 244.451 216.14 246.101 213.48 246.101H209.89L209.18 237.891ZM213.3 244.811C213.679 244.858 214.063 244.817 214.424 244.691C214.784 244.565 215.111 244.357 215.378 244.085C215.645 243.812 215.846 243.481 215.964 243.117C216.082 242.754 216.115 242.369 216.06 241.991C216.036 241.59 215.932 241.199 215.754 240.839C215.576 240.479 215.328 240.159 215.024 239.897C214.72 239.635 214.366 239.436 213.984 239.313C213.602 239.191 213.199 239.145 212.8 239.181H210.8L211.29 244.811H213.3Z" fill="#5063F4"/>
<path d="M218.631 245.2C218.608 245.074 218.614 244.945 218.648 244.821C218.683 244.698 218.744 244.584 218.829 244.488C218.914 244.392 219.019 244.316 219.137 244.266C219.255 244.216 219.383 244.194 219.511 244.2C219.776 244.2 220.03 244.306 220.218 244.493C220.405 244.681 220.511 244.935 220.511 245.2C220.531 245.325 220.524 245.453 220.49 245.575C220.455 245.697 220.394 245.81 220.311 245.905C220.228 246.001 220.125 246.077 220.009 246.128C219.893 246.179 219.767 246.204 219.641 246.2C219.378 246.188 219.13 246.079 218.943 245.895C218.757 245.71 218.645 245.463 218.631 245.2Z" fill="#5063F4"/>
<g opacity="0.2">
<path d="M153.999 191.481L152.259 198.641H150.849L148.609 193.341L147.279 198.641H145.859L142.859 191.481H144.239L146.489 196.921L147.869 191.481H149.099L151.379 196.961L152.739 191.481H153.999Z" fill="white"/>
<path d="M154.871 191.511C154.86 191.409 154.872 191.306 154.906 191.209C154.94 191.113 154.994 191.024 155.066 190.951C155.137 190.877 155.224 190.821 155.32 190.784C155.416 190.748 155.519 190.733 155.621 190.741C155.834 190.732 156.042 190.803 156.205 190.94C156.368 191.077 156.474 191.27 156.501 191.481C156.514 191.585 156.505 191.691 156.473 191.791C156.44 191.891 156.387 191.982 156.315 192.058C156.243 192.135 156.155 192.195 156.058 192.233C155.96 192.272 155.856 192.288 155.751 192.281C155.534 192.288 155.323 192.212 155.16 192.069C154.997 191.926 154.894 191.727 154.871 191.511ZM155.191 193.181H156.461L156.941 198.641H155.661L155.191 193.181Z" fill="white"/>
<path d="M161.881 198.372C161.532 198.623 161.11 198.749 160.681 198.732C160.427 198.752 160.171 198.72 159.929 198.637C159.688 198.554 159.466 198.422 159.278 198.249C159.091 198.076 158.94 197.867 158.838 197.633C158.735 197.399 158.681 197.147 158.681 196.892L158.451 194.262H157.551L157.461 193.262H158.361L158.251 192.012H159.531L159.641 193.262H161.101L161.191 194.262H159.731L159.951 196.862C159.945 196.972 159.963 197.082 160.002 197.185C160.042 197.288 160.103 197.381 160.182 197.458C160.26 197.536 160.354 197.596 160.457 197.634C160.561 197.673 160.671 197.689 160.781 197.682C161.033 197.691 161.28 197.614 161.481 197.462L161.881 198.372Z" fill="white"/>
<path d="M168.058 195.512L168.338 198.642H167.058L166.798 195.642C166.708 194.642 166.188 194.192 165.368 194.192C164.548 194.192 163.898 194.752 163.988 195.842L164.228 198.602H162.998L162.328 191.012H163.608L163.848 193.772C164.073 193.535 164.347 193.35 164.651 193.231C164.956 193.112 165.282 193.061 165.608 193.082C165.932 193.068 166.255 193.121 166.557 193.238C166.86 193.355 167.134 193.533 167.364 193.761C167.595 193.989 167.775 194.263 167.894 194.564C168.014 194.865 168.069 195.188 168.058 195.512Z" fill="white"/>
<path d="M174.697 191.052L175.357 198.642H174.127L174.067 197.942C173.864 198.205 173.599 198.413 173.295 198.547C172.991 198.681 172.659 198.738 172.327 198.712C171.565 198.713 170.831 198.425 170.274 197.905C169.717 197.385 169.378 196.672 169.327 195.912C169.289 195.393 169.409 194.875 169.673 194.427C169.936 193.979 170.331 193.623 170.803 193.405C171.275 193.187 171.803 193.119 172.315 193.21C172.827 193.3 173.299 193.545 173.667 193.912L173.427 191.102L174.697 191.052ZM173.857 195.912C173.842 195.453 173.649 195.018 173.318 194.699C172.988 194.38 172.547 194.202 172.087 194.202C171.871 194.194 171.655 194.234 171.456 194.321C171.257 194.408 171.079 194.538 170.937 194.702C170.795 194.866 170.692 195.06 170.635 195.269C170.578 195.479 170.568 195.698 170.607 195.912C170.623 196.372 170.818 196.809 171.15 197.128C171.483 197.448 171.927 197.625 172.387 197.622C172.605 197.632 172.821 197.593 173.021 197.507C173.221 197.421 173.398 197.29 173.54 197.126C173.682 196.961 173.784 196.766 173.839 196.555C173.894 196.345 173.9 196.125 173.857 195.912Z" fill="white"/>
<path d="M179.72 193.121L179.82 194.341C179.72 194.333 179.619 194.333 179.52 194.341C178.52 194.341 177.99 194.921 178.08 196.031L178.32 198.681H177L176.52 193.221H177.74L177.81 194.021C178.007 193.703 178.292 193.448 178.631 193.289C178.97 193.129 179.348 193.071 179.72 193.121Z" fill="white"/>
<path d="M185.539 195.441L185.819 198.641H184.619L184.559 197.981C184.373 198.24 184.121 198.445 183.829 198.573C183.537 198.702 183.216 198.749 182.899 198.711C182.399 198.762 181.898 198.623 181.496 198.32C181.093 198.018 180.82 197.576 180.729 197.081C180.649 196.171 181.199 195.451 182.849 195.451H184.269V195.371C184.199 194.621 183.709 194.181 182.799 194.181C182.22 194.171 181.654 194.362 181.199 194.721L180.609 193.791C181.267 193.321 182.062 193.085 182.869 193.121C183.201 193.077 183.538 193.104 183.858 193.2C184.179 193.297 184.475 193.46 184.727 193.679C184.98 193.899 185.183 194.169 185.323 194.473C185.463 194.777 185.537 195.107 185.539 195.441ZM184.399 196.931L184.339 196.301H182.999C182.129 196.301 181.919 196.631 181.999 197.031C182.079 197.431 182.449 197.781 183.109 197.781C183.388 197.803 183.666 197.731 183.9 197.577C184.133 197.423 184.309 197.196 184.399 196.931Z" fill="white"/>
<path d="M195.398 193.182L193.858 198.642H192.628L190.888 194.882L189.788 198.642H188.558L186.078 193.182H187.288L189.078 197.182L190.228 193.182H191.308L193.138 197.232L194.258 193.182H195.398Z" fill="white"/>
</g>
<path d="M138.671 228.941L138.921 231.831H137.401L137.141 228.961L133.461 223.631H135.081L137.841 227.631L139.911 223.631H141.411L138.671 228.941Z" fill="#5063F4"/>
<path d="M141.5 228.701C141.446 228.285 141.485 227.863 141.614 227.463C141.742 227.064 141.958 226.699 142.245 226.393C142.531 226.087 142.882 225.848 143.272 225.694C143.662 225.54 144.082 225.474 144.5 225.501C145.4 225.464 146.279 225.777 146.954 226.373C147.628 226.97 148.046 227.804 148.12 228.701C148.176 229.118 148.138 229.541 148.01 229.942C147.882 230.342 147.667 230.709 147.38 231.016C147.093 231.323 146.742 231.563 146.351 231.718C145.96 231.872 145.54 231.938 145.12 231.911C144.22 231.945 143.341 231.63 142.666 231.032C141.992 230.434 141.574 229.599 141.5 228.701ZM146.69 228.701C146.677 228.179 146.461 227.683 146.087 227.319C145.713 226.955 145.212 226.751 144.69 226.751C144.443 226.742 144.198 226.789 143.971 226.888C143.745 226.987 143.544 227.136 143.383 227.323C143.221 227.51 143.104 227.731 143.04 227.97C142.975 228.208 142.965 228.458 143.01 228.701C143.01 229.231 143.221 229.74 143.596 230.115C143.971 230.49 144.48 230.701 145.01 230.701C145.262 230.711 145.513 230.664 145.744 230.562C145.975 230.46 146.179 230.307 146.342 230.114C146.504 229.921 146.62 229.693 146.68 229.448C146.74 229.203 146.744 228.948 146.69 228.701Z" fill="#5063F4"/>
<path d="M155.36 225.571L155.91 231.831H154.51L154.44 231.041C154.208 231.329 153.912 231.558 153.575 231.709C153.237 231.861 152.869 231.93 152.5 231.911C152.122 231.939 151.743 231.888 151.387 231.761C151.03 231.635 150.703 231.435 150.428 231.176C150.152 230.916 149.934 230.602 149.786 230.254C149.638 229.905 149.565 229.53 149.57 229.151L149.25 225.571H150.72L151.01 228.951C151.11 230.091 151.7 230.621 152.62 230.621C153.54 230.621 154.28 229.991 154.17 228.741L153.89 225.571H155.36Z" fill="#5063F4"/>
<path d="M160.899 225.501L161.019 226.901C160.906 226.888 160.792 226.888 160.679 226.901C159.569 226.901 158.919 227.561 159.029 228.841L159.299 231.841H157.829L157.289 225.581H158.679L158.759 226.501C158.987 226.151 159.308 225.873 159.687 225.696C160.065 225.519 160.485 225.452 160.899 225.501Z" fill="#5063F4"/>
<path d="M165.418 223.631H166.938L167.658 231.831H166.128L165.418 223.631Z" fill="#5063F4"/>
<path d="M175.58 228.251L175.9 231.831H174.43L174.13 228.431C174.04 227.321 173.44 226.781 172.5 226.781C171.56 226.781 170.81 227.411 170.92 228.671L171.2 231.831H169.73L169.18 225.571H170.58L170.65 226.381C170.904 226.082 171.224 225.846 171.585 225.693C171.946 225.541 172.338 225.475 172.73 225.501C173.101 225.481 173.471 225.539 173.819 225.669C174.167 225.799 174.485 225.999 174.752 226.257C175.019 226.515 175.23 226.825 175.373 227.168C175.515 227.511 175.586 227.879 175.58 228.251Z" fill="#5063F4"/>
<path d="M177.001 228.701C176.95 228.276 176.995 227.846 177.132 227.44C177.268 227.035 177.494 226.666 177.792 226.359C178.09 226.052 178.453 225.816 178.855 225.668C179.256 225.519 179.685 225.462 180.111 225.501C180.665 225.472 181.218 225.593 181.71 225.849C182.202 226.106 182.617 226.49 182.911 226.961L181.841 227.611C181.658 227.348 181.415 227.132 181.131 226.982C180.847 226.832 180.532 226.753 180.211 226.751C179.96 226.737 179.71 226.779 179.478 226.875C179.247 226.971 179.04 227.119 178.873 227.307C178.707 227.494 178.585 227.717 178.517 227.959C178.449 228.2 178.437 228.454 178.481 228.701C178.481 228.97 178.535 229.236 178.64 229.483C178.744 229.73 178.898 229.954 179.091 230.141C179.284 230.327 179.513 230.473 179.764 230.569C180.015 230.666 180.282 230.71 180.551 230.701C180.855 230.713 181.156 230.637 181.418 230.483C181.681 230.329 181.893 230.103 182.031 229.831L183.211 230.491C182.989 230.966 182.626 231.361 182.171 231.622C181.717 231.884 181.193 231.998 180.671 231.951C179.757 231.99 178.864 231.673 178.18 231.067C177.495 230.461 177.073 229.613 177.001 228.701Z" fill="#5063F4"/>
<path d="M183.749 228.701C183.696 228.281 183.737 227.854 183.869 227.452C184.001 227.05 184.221 226.682 184.514 226.376C184.806 226.069 185.162 225.832 185.558 225.681C185.953 225.529 186.377 225.468 186.799 225.501C187.698 225.469 188.574 225.784 189.247 226.379C189.921 226.974 190.34 227.805 190.419 228.701C190.474 229.123 190.434 229.551 190.302 229.955C190.17 230.36 189.95 230.729 189.656 231.037C189.363 231.345 189.004 231.583 188.607 231.734C188.209 231.885 187.783 231.946 187.359 231.911C186.461 231.94 185.586 231.623 184.914 231.026C184.243 230.428 183.826 229.596 183.749 228.701ZM188.939 228.701C188.926 228.179 188.71 227.683 188.336 227.319C187.962 226.955 187.461 226.751 186.939 226.751C186.692 226.74 186.445 226.786 186.218 226.884C185.991 226.983 185.789 227.131 185.627 227.319C185.465 227.507 185.348 227.728 185.285 227.968C185.221 228.207 185.212 228.458 185.259 228.701C185.259 229.231 185.47 229.74 185.845 230.115C186.22 230.49 186.729 230.701 187.259 230.701C187.512 230.713 187.764 230.667 187.996 230.566C188.228 230.465 188.433 230.311 188.595 230.118C188.758 229.924 188.874 229.695 188.933 229.45C188.993 229.204 188.995 228.948 188.939 228.701Z" fill="#5063F4"/>
<path d="M202.249 228.251L202.569 231.831H201.099L200.799 228.431C200.709 227.321 200.139 226.781 199.249 226.781C198.359 226.781 197.679 227.411 197.789 228.661L198.069 231.831H196.599L196.309 228.431C196.209 227.321 195.639 226.781 194.749 226.781C193.859 226.781 193.179 227.411 193.289 228.661L193.569 231.831H192.099L191.559 225.571H192.999L193.069 226.371C193.308 226.077 193.615 225.845 193.963 225.694C194.311 225.542 194.69 225.476 195.069 225.501C195.494 225.479 195.918 225.563 196.302 225.746C196.686 225.93 197.019 226.206 197.269 226.551C197.635 226.101 198.129 225.773 198.687 225.611C199.244 225.45 199.838 225.462 200.388 225.647C200.938 225.832 201.419 226.18 201.765 226.646C202.112 227.111 202.309 227.671 202.329 228.251H202.249Z" fill="#5063F4"/>
<path d="M210.129 229.171H205.219C205.355 229.629 205.643 230.028 206.035 230.301C206.428 230.573 206.902 230.704 207.379 230.671C207.687 230.691 207.994 230.641 208.279 230.523C208.563 230.405 208.817 230.223 209.019 229.991L209.889 230.891C209.591 231.236 209.215 231.506 208.793 231.679C208.371 231.853 207.914 231.925 207.459 231.891C206.54 231.952 205.633 231.65 204.934 231.049C204.234 230.449 203.798 229.599 203.719 228.681C203.661 228.268 203.695 227.848 203.818 227.45C203.942 227.052 204.153 226.687 204.435 226.381C204.718 226.075 205.065 225.835 205.451 225.679C205.837 225.524 206.253 225.456 206.669 225.481C207.553 225.464 208.409 225.794 209.053 226.399C209.698 227.004 210.08 227.837 210.119 228.721C210.129 228.861 210.129 229.031 210.129 229.171ZM205.129 228.171H208.679C208.59 227.733 208.35 227.341 208.001 227.063C207.651 226.785 207.216 226.639 206.769 226.651C206.558 226.638 206.347 226.669 206.148 226.742C205.95 226.814 205.768 226.926 205.615 227.072C205.461 227.217 205.339 227.392 205.255 227.586C205.172 227.78 205.129 227.989 205.129 228.201V228.171Z" fill="#5063F4"/>
<g opacity="0.1">
<path d="M149.06 174.801H142.11L117.66 289.871H124.6L149.06 174.801Z" fill="white"/>
<path d="M110.639 289.871L135.099 174.801H109.019L84.5586 289.871H110.639Z" fill="white"/>
</g>
<path opacity="0.2" d="M145.758 353.731V355.641C145.758 356.139 145.956 356.617 146.308 356.97C146.661 357.323 147.139 357.521 147.638 357.521H209.388C209.863 357.518 210.319 357.327 210.654 356.99C210.99 356.653 211.178 356.196 211.178 355.721V353.721C211.178 353.245 210.99 352.789 210.654 352.451C210.319 352.114 209.863 351.923 209.388 351.921H190.838C190.606 351.923 190.374 351.9 190.148 351.851H147.638C147.139 351.851 146.661 352.049 146.308 352.401C145.956 352.754 145.758 353.232 145.758 353.731Z" fill="white"/>
<path opacity="0.2" d="M133.059 351.851H190.149C189.399 351.696 188.724 351.291 188.233 350.702C187.743 350.114 187.466 349.377 187.449 348.611H134.519L133.059 351.851Z" fill="black"/>
<path d="M204.598 209.051H195.578L198.698 201.101L204.598 209.051Z" fill="white"/>
<path d="M202.209 214.491H200.099L198.219 203.721H200.319L202.209 214.491Z" fill="white"/>
<path d="M132.879 353.491V355.571C132.892 356.093 133.108 356.589 133.482 356.953C133.856 357.317 134.357 357.521 134.879 357.521H209.429C209.665 357.521 209.899 357.475 210.118 357.384C210.336 357.294 210.535 357.161 210.702 356.994C210.869 356.827 211.001 356.628 211.092 356.41C211.182 356.192 211.229 355.957 211.229 355.721V353.721C211.229 353.485 211.182 353.251 211.092 353.032C211.001 352.814 210.869 352.615 210.702 352.448C210.535 352.281 210.336 352.149 210.118 352.058C209.899 351.968 209.665 351.921 209.429 351.921H190.839C190.342 351.922 189.85 351.813 189.4 351.603C188.949 351.393 188.55 351.086 188.231 350.704C187.913 350.322 187.682 349.875 187.555 349.394C187.429 348.913 187.409 348.41 187.499 347.921L193.999 310.371H151.649L133.519 350.501C133.098 351.442 132.88 352.461 132.879 353.491Z" fill="#263238"/>
<path opacity="0.2" d="M211.178 353.711V355.711C211.179 355.947 211.134 356.181 211.045 356.399C210.955 356.617 210.824 356.816 210.657 356.983C210.491 357.151 210.293 357.283 210.075 357.374C209.858 357.464 209.624 357.511 209.388 357.511H134.828C134.306 357.511 133.805 357.307 133.431 356.943C133.058 356.579 132.841 356.083 132.828 355.561V353.481C132.831 352.929 132.895 352.379 133.018 351.841C133.126 351.374 133.28 350.918 133.478 350.481L151.648 310.371H193.998L187.488 347.941C187.447 348.159 187.43 348.38 187.438 348.601C187.457 349.365 187.733 350.1 188.221 350.688C188.709 351.275 189.381 351.682 190.128 351.841C190.362 351.89 190.6 351.914 190.838 351.911H209.378C209.615 351.91 209.85 351.955 210.069 352.045C210.287 352.135 210.486 352.268 210.654 352.435C210.821 352.603 210.954 352.802 211.044 353.021C211.134 353.24 211.179 353.474 211.178 353.711Z" fill="white"/>
<path d="M131.13 350.501L149.26 310.371H151.65L133.52 350.501C133.098 351.445 132.88 352.467 132.88 353.501V355.581C132.894 356.103 133.11 356.599 133.484 356.963C133.857 357.327 134.359 357.531 134.88 357.531H132.48C131.959 357.531 131.457 357.327 131.084 356.963C130.71 356.599 130.494 356.103 130.48 355.581V353.501C130.479 352.466 130.7 351.443 131.13 350.501Z" fill="#263238"/>
<path opacity="0.3" d="M151.65 310.371H194L192.34 319.961H147.32L151.65 310.371Z" fill="black"/>
<path d="M267.458 314.591H86.7778C84.9796 314.558 83.2556 313.867 81.9324 312.649C80.6092 311.431 79.7786 309.77 79.5978 307.981L68.1678 177.421C68.0822 176.583 68.1738 175.737 68.4368 174.937C68.6997 174.137 69.1281 173.401 69.694 172.778C70.26 172.154 70.9508 171.657 71.7216 171.318C72.4923 170.979 73.3258 170.806 74.1678 170.811H254.878C256.677 170.841 258.402 171.531 259.725 172.75C261.049 173.968 261.879 175.63 262.058 177.421L273.488 307.981C273.574 308.821 273.481 309.67 273.217 310.472C272.952 311.274 272.521 312.011 271.952 312.635C271.382 313.259 270.688 313.755 269.914 314.092C269.139 314.429 268.302 314.599 267.458 314.591Z" fill="#263238"/>
<path d="M272.249 293.861L273.489 307.981C273.575 308.819 273.483 309.665 273.22 310.465C272.957 311.265 272.529 312.001 271.963 312.624C271.397 313.248 270.706 313.745 269.936 314.084C269.165 314.423 268.331 314.596 267.489 314.591H86.7794C84.9805 314.561 83.2554 313.871 81.9317 312.652C80.608 311.434 79.7781 309.772 79.5994 307.981L78.3594 293.861H272.249Z" fill="#5063F4"/>
<path opacity="0.3" d="M272.249 293.861L273.489 307.981C273.575 308.819 273.483 309.665 273.22 310.465C272.957 311.265 272.529 312.001 271.963 312.624C271.397 313.248 270.706 313.745 269.936 314.084C269.165 314.423 268.331 314.596 267.489 314.591H86.7794C84.9805 314.561 83.2554 313.871 81.9317 312.652C80.608 311.434 79.7781 309.772 79.5994 307.981L78.3594 293.861" fill="black"/>
<path d="M84.738 289.871H265.178C265.637 289.879 266.092 289.79 266.513 289.608C266.935 289.427 267.313 289.158 267.622 288.819C267.931 288.481 268.165 288.08 268.307 287.644C268.45 287.208 268.498 286.747 268.448 286.291L258.998 178.371C258.896 177.401 258.443 176.502 257.725 175.843C257.007 175.184 256.073 174.81 255.098 174.791H74.668C74.2093 174.782 73.7542 174.872 73.3328 175.053C72.9114 175.234 72.5334 175.503 72.224 175.842C71.9147 176.18 71.681 176.581 71.5385 177.017C71.3961 177.453 71.3482 177.915 71.398 178.371L80.838 286.281C80.9379 287.252 81.3896 288.153 82.108 288.814C82.8263 289.476 83.7618 289.851 84.738 289.871Z" fill="#5063F4"/>
<path opacity="0.6" d="M84.738 289.871H265.178C265.637 289.879 266.092 289.79 266.513 289.608C266.935 289.427 267.313 289.158 267.622 288.819C267.931 288.481 268.165 288.08 268.307 287.644C268.45 287.208 268.498 286.747 268.448 286.291L258.998 178.371C258.896 177.401 258.443 176.502 257.725 175.843C257.007 175.184 256.073 174.81 255.098 174.791H74.668C74.2093 174.782 73.7542 174.872 73.3328 175.053C72.9114 175.234 72.5334 175.503 72.224 175.842C71.9147 176.18 71.681 176.581 71.5385 177.017C71.3961 177.453 71.3482 177.915 71.398 178.371L80.838 286.281C80.9379 287.252 81.3896 288.153 82.108 288.814C82.8263 289.476 83.7618 289.851 84.738 289.871Z" fill="white"/>
<path d="M91.5 231.11L96.8988 240.082L98.6519 237.31L94.9266 231.11H91.5Z" fill="#44E0AA"/>
<path d="M100.126 245.066V240.121L105.544 231.11H102.377L98.6516 237.31L96.8984 240.082V245.066H100.126Z" fill="white"/>
<path d="M124.789 230.293V245.085H128.335V230.293H124.789Z" fill="white"/>
<path d="M117.427 234.28C114.06 234.28 111.809 236.493 111.809 239.842C111.809 243.132 113.98 245.305 117.506 245.305C119.498 245.305 121.112 244.627 122.208 243.391L120.355 241.537C119.638 242.255 118.741 242.633 117.825 242.633C116.61 242.633 115.713 241.956 115.375 240.74H122.865C123.104 236.812 121.192 234.28 117.427 234.28ZM115.295 238.846C115.534 237.61 116.291 236.772 117.446 236.772C118.642 236.772 119.439 237.61 119.439 238.846H115.295Z" fill="white"/>
<path d="M108.214 229.629C107.278 229.629 106.601 230.307 106.601 231.264C106.601 232.201 107.278 232.878 108.214 232.878C109.151 232.878 109.828 232.201 109.828 231.264C109.828 230.307 109.151 229.629 108.214 229.629ZM106.441 234.294V245.079H109.968V234.294H106.441Z" fill="white"/>
<path d="M138.481 230.293V235.716C137.724 234.739 136.609 234.18 135.214 234.18C132.246 234.18 130.273 236.354 130.273 239.643C130.273 242.992 132.266 245.225 135.294 245.225C136.648 245.225 137.744 244.687 138.481 243.69V245.085H142.027V230.293H138.481ZM136.17 242.434C134.776 242.434 133.839 241.337 133.839 239.743C133.839 238.148 134.776 237.051 136.17 237.051C137.545 237.051 138.481 238.128 138.481 239.743C138.481 241.337 137.545 242.434 136.17 242.434Z" fill="white"/>
<path d="M151.266 239.517V236.606H154.911H161.565V239.497L154.911 239.517H151.266Z" fill="#44E0AA"/>
<path fill-rule="evenodd" clip-rule="evenodd" d="M151.266 231.124V245.099H162.481V242.189H154.911V239.557V239.514H154.918V236.606H154.911V234.035H162.282V231.124H151.266Z" fill="white"/>
<path d="M163.622 234.28L167.049 239.543L163.383 245.066H167.288L169.419 241.776L171.332 245.066H175.416L171.77 239.543L175.416 234.28H171.292L169.419 237.311L167.687 234.28H163.622Z" fill="white"/>
<path d="M183.248 238.327L185.817 236.832C184.881 235.217 183.168 234.28 180.996 234.28C177.649 234.28 175.418 236.493 175.418 239.842C175.418 243.132 177.63 245.305 180.957 245.305C183.248 245.305 185 244.368 185.857 242.713L183.248 241.218C182.809 242.055 182.072 242.434 181.136 242.434C179.861 242.434 178.984 241.397 178.984 239.822C178.984 238.267 179.861 237.211 181.136 237.211C182.052 237.211 182.77 237.63 183.248 238.327Z" fill="white"/>
<path d="M194.703 234.161C193.129 234.161 191.894 234.818 191.136 236.054V230.293H187.59V245.085H191.136V239.763C191.136 238.347 191.933 237.35 193.248 237.33C194.384 237.33 195.08 238.088 195.08 239.304V245.085H198.627V238.287C198.627 235.755 197.073 234.161 194.703 234.161Z" fill="white"/>
<path d="M205.889 234.147C204.116 234.147 202.562 234.566 200.869 235.324L201.844 237.716C203 237.158 204.175 236.859 205.072 236.859C206.427 236.859 207.124 237.457 207.124 238.474V238.593H204.315C201.645 238.633 200.191 239.809 200.191 241.863C200.191 243.836 201.566 245.232 203.877 245.232C205.331 245.232 206.427 244.753 207.124 243.856V245.072H210.61V238.055C210.591 235.583 208.858 234.147 205.889 234.147ZM204.972 242.82C204.056 242.82 203.519 242.341 203.519 241.604C203.519 240.846 204.016 240.487 205.012 240.487H207.124V241.424C206.905 242.241 206.028 242.82 204.972 242.82Z" fill="white"/>
<path d="M220.085 234.114C218.511 234.114 217.276 234.772 216.518 236.008V234.254H212.973V245.039H216.518V239.337C216.658 238.121 217.435 237.304 218.63 237.284C219.746 237.284 220.463 238.042 220.463 239.258V245.039H223.989V238.241C223.989 235.709 222.435 234.114 220.085 234.114Z" fill="white"/>
<path d="M233.178 234.284V235.599C232.461 234.682 231.385 234.164 230.03 234.164C227.361 234.164 225.508 236.198 225.508 239.268C225.508 242.398 227.42 244.471 230.11 244.471C231.444 244.471 232.48 243.973 233.178 243.055V244.212C233.178 245.468 232.201 246.285 230.588 246.285C229.432 246.285 228.237 245.906 227.261 245.229L226.026 247.681C227.241 248.478 228.954 249.076 230.847 249.076C234.333 249.076 236.704 247.162 236.704 244.112V234.284H233.178ZM231.006 241.879C229.692 241.879 228.815 240.843 228.815 239.367C228.815 237.872 229.692 236.835 231.006 236.835C232.301 236.835 233.178 237.852 233.178 239.367C233.178 240.843 232.301 241.879 231.006 241.879Z" fill="white"/>
<path d="M244.04 234.181C240.673 234.181 238.422 236.394 238.422 239.743C238.422 243.032 240.594 245.205 244.12 245.205C246.111 245.205 247.725 244.527 248.821 243.291L246.968 241.437C246.251 242.155 245.354 242.534 244.438 242.534C243.223 242.534 242.327 241.856 241.988 240.64H249.479C249.718 236.713 247.805 234.181 244.04 234.181ZM241.908 238.746C242.147 237.51 242.904 236.673 244.06 236.673C245.255 236.673 246.052 237.51 246.052 238.746H241.908Z" fill="white"/>
<path d="M70.2096 170.811H74.2096C73.3676 170.806 72.5341 170.979 71.7633 171.318C70.9925 171.657 70.3017 172.155 69.7358 172.778C69.1699 173.402 68.7415 174.137 68.4785 174.937C68.2156 175.737 68.1239 176.583 68.2096 177.421L79.5996 307.981C79.7782 309.771 80.6082 311.433 81.9319 312.652C83.2555 313.871 84.9807 314.561 86.7796 314.591H82.7796C80.982 314.556 79.2592 313.865 77.9365 312.647C76.6137 311.429 75.7824 309.769 75.5996 307.981L64.1796 177.421C64.0937 176.581 64.1861 175.732 64.4508 174.93C64.7155 174.128 65.1466 173.391 65.7158 172.767C66.285 172.143 66.9795 171.646 67.7539 171.309C68.5282 170.972 69.365 170.802 70.2096 170.811Z" fill="#5063F4"/>
<path opacity="0.3" d="M70.2096 170.811H74.2096C73.3676 170.806 72.5341 170.979 71.7633 171.318C70.9925 171.657 70.3017 172.155 69.7358 172.778C69.1699 173.402 68.7415 174.137 68.4785 174.937C68.2156 175.737 68.1239 176.583 68.2096 177.421L79.5996 307.981C79.7782 309.771 80.6082 311.433 81.9319 312.652C83.2555 313.871 84.9807 314.561 86.7796 314.591H82.7796C80.982 314.556 79.2592 313.865 77.9365 312.647C76.6137 311.429 75.7824 309.769 75.5996 307.981L64.1796 177.421C64.0937 176.581 64.1861 175.732 64.4508 174.93C64.7155 174.128 65.1466 173.391 65.7158 172.767C66.285 172.143 66.9795 171.646 67.7539 171.309C68.5282 170.972 69.365 170.802 70.2096 170.811Z" fill="white"/>
<path d="M206.149 196.17C206.168 197.429 205.934 198.678 205.459 199.844C204.985 201.01 204.281 202.068 203.388 202.955C202.496 203.843 201.434 204.542 200.266 205.01C199.098 205.478 197.847 205.706 196.589 205.68H142.249C139.408 205.629 136.684 204.538 134.593 202.615C132.501 200.691 131.187 198.067 130.899 195.24C130.899 194.93 130.899 194.61 130.899 194.31C130.883 193.053 131.119 191.805 131.595 190.64C132.07 189.476 132.774 188.419 133.666 187.532C134.558 186.645 135.619 185.946 136.786 185.477C137.952 185.007 139.202 184.778 140.459 184.8H194.799C197.641 184.85 200.366 185.94 202.458 187.864C204.55 189.788 205.863 192.413 206.149 195.24C206.139 195.55 206.149 195.86 206.149 196.17Z" fill="#5063F4"/>
<g opacity="0.1">
<path d="M203.909 196.17C203.927 197.428 203.691 198.677 203.216 199.842C202.742 201.007 202.037 202.065 201.145 202.952C200.253 203.839 199.192 204.538 198.025 205.007C196.857 205.476 195.607 205.705 194.349 205.68H142.249C139.408 205.629 136.684 204.538 134.593 202.615C132.501 200.691 131.187 198.067 130.899 195.24C130.899 194.93 130.899 194.61 130.899 194.31C130.883 193.053 131.119 191.805 131.595 190.64C132.07 189.476 132.774 188.419 133.666 187.532C134.558 186.645 135.619 185.946 136.786 185.477C137.952 185.007 139.202 184.778 140.459 184.8H192.559C195.401 184.85 198.126 185.94 200.218 187.864C202.31 189.788 203.623 192.413 203.909 195.24C203.899 195.55 203.909 195.86 203.909 196.17Z" fill="white"/>
</g>
<g opacity="0.1">
<path d="M149.06 174.801H142.11L117.66 289.871H124.6L149.06 174.801Z" fill="white"/>
<path d="M110.639 289.871L135.099 174.801H109.019L84.5586 289.871H110.639Z" fill="white"/>
</g>
<path opacity="0.2" d="M145.758 353.731V355.641C145.758 356.139 145.956 356.617 146.308 356.97C146.661 357.323 147.139 357.521 147.638 357.521H209.388C209.863 357.518 210.319 357.327 210.654 356.99C210.99 356.653 211.178 356.196 211.178 355.721V353.721C211.178 353.245 210.99 352.789 210.654 352.451C210.319 352.114 209.863 351.923 209.388 351.921H190.838C190.606 351.923 190.374 351.9 190.148 351.851H147.638C147.139 351.851 146.661 352.049 146.308 352.401C145.956 352.754 145.758 353.232 145.758 353.731Z" fill="white"/>
<path opacity="0.2" d="M133.059 351.851H190.149C189.399 351.696 188.724 351.291 188.233 350.702C187.743 350.114 187.466 349.377 187.449 348.611H134.519L133.059 351.851Z" fill="black"/>
<path d="M204.598 209.051H195.578L198.698 201.101L204.598 209.051Z" fill="white"/>
<path d="M202.209 214.491H200.099L198.219 203.721H200.319L202.209 214.491Z" fill="white"/>
<path d="M115.412 320.51L112.502 320.78C112.072 320.78 112.072 320.14 112.502 320.1L115.412 319.83C115.842 319.83 115.842 320.47 115.412 320.51Z" fill="#263238"/>
<path d="M115.582 330L117.302 331.3C117.642 331.55 117.302 332.14 116.962 331.88L115.242 330.59C114.902 330.33 115.242 329.74 115.582 330Z" fill="#263238"/>
<path d="M119.87 326.371L122.72 326.951C123.15 327.041 122.97 327.691 122.55 327.601L119.7 327.021C119.27 326.931 119.45 326.281 119.87 326.371Z" fill="#263238"/>
<path d="M117.393 323.18L115.983 321.08C115.743 320.72 116.323 320.38 116.563 320.74L117.973 322.84C118.223 323.2 117.633 323.54 117.393 323.18Z" fill="#263238"/>
<path d="M112.59 326.091L114.88 326.611C115.3 326.701 115.12 327.351 114.7 327.261L112.41 326.741C111.99 326.651 112.16 326.001 112.59 326.091Z" fill="#263238"/>
<path d="M93.0008 328.9L90.1508 329.23C89.7208 329.28 89.7308 328.61 90.1508 328.56L93.0008 328.23C93.4308 328.18 93.4308 328.85 93.0008 328.9Z" fill="#263238"/>
<path d="M114.24 312.49L112.11 313.49C111.72 313.67 111.38 313.09 111.77 312.91L113.9 311.91C114.29 311.73 114.63 312.31 114.24 312.49Z" fill="#263238"/>
<path d="M108.66 305.37C108.31 306.3 107.95 307.23 107.59 308.17C107.44 308.57 106.79 308.4 106.94 307.99L108.02 305.19C108.17 304.79 108.82 304.96 108.66 305.37Z" fill="#263238"/>
<path d="M92.6817 325.87H90.1217C90.0428 325.857 89.9713 325.815 89.9197 325.754C89.8681 325.693 89.8398 325.615 89.8398 325.535C89.8398 325.455 89.8681 325.378 89.9197 325.316C89.9713 325.255 90.0428 325.214 90.1217 325.2H92.6817C92.7607 325.214 92.8322 325.255 92.8838 325.316C92.9354 325.378 92.9637 325.455 92.9637 325.535C92.9637 325.615 92.9354 325.693 92.8838 325.754C92.8322 325.815 92.7607 325.857 92.6817 325.87Z" fill="#263238"/>
<path d="M92.59 319.22L90.45 318.75C90.03 318.66 90.21 318.01 90.63 318.11L92.77 318.57C93.19 318.67 93.01 319.31 92.59 319.22Z" fill="#263238"/>
<path d="M100.873 306.981L100.223 304.741C100.212 304.699 100.208 304.655 100.213 304.611C100.218 304.568 100.232 304.526 100.253 304.488C100.275 304.45 100.303 304.417 100.338 304.39C100.372 304.363 100.411 304.343 100.453 304.331C100.495 304.319 100.539 304.316 100.583 304.321C100.626 304.326 100.668 304.339 100.706 304.361C100.744 304.382 100.778 304.411 100.805 304.445C100.832 304.479 100.852 304.519 100.863 304.561L101.523 306.801C101.535 306.883 101.517 306.966 101.471 307.035C101.426 307.104 101.357 307.155 101.278 307.177C101.198 307.199 101.113 307.191 101.038 307.155C100.964 307.119 100.905 307.057 100.873 306.981Z" fill="#263238"/>
<path d="M110.571 334.131C110.571 334.131 125.971 327.701 121.321 322.211C116.881 316.981 114.931 329.111 110.571 330.671C106.211 332.231 110.571 334.131 110.571 334.131Z" fill="#44E0AA"/>
<path opacity="0.1" d="M110.571 334.131C110.571 334.131 125.971 327.701 121.321 322.211C116.881 316.981 114.931 329.111 110.571 330.671C106.211 332.231 110.571 334.131 110.571 334.131Z" fill="white"/>
<path d="M111.151 337.471C111.151 337.471 121.621 305.601 102.931 306.101C84.2405 306.601 94.4605 339.371 94.4605 339.371L111.151 337.471Z" fill="#44E0AA"/>
<path opacity="0.3" d="M111.151 337.471C111.151 337.471 121.621 305.601 102.931 306.101C84.2405 306.601 94.4605 339.371 94.4605 339.371L111.151 337.471Z" fill="white"/>
<path opacity="0.2" d="M94.4609 339.37C94.4609 339.37 91.3109 329.24 91.7109 320.15C92.4509 334.9 105.281 334.15 105.281 334.15L106.161 338.06L94.4609 339.37Z" fill="#263238"/>
<path d="M120.372 332.94L118.002 352.37C117.834 353.703 117.185 354.929 116.179 355.818C115.172 356.707 113.875 357.199 112.532 357.2H96.7116C95.3682 357.199 94.0716 356.707 93.0646 355.818C92.0577 354.929 91.4095 353.703 91.2416 352.37L88.8516 332.98L120.372 332.94Z" fill="#263238"/>
<g opacity="0.2">
<path d="M109.242 332.37C110.492 324.49 110.292 310.92 100.172 309.52C99.4523 309.42 99.7623 308.34 100.462 308.43C111.312 309.93 111.662 324.26 110.322 332.67C110.212 333.38 109.132 333.08 109.242 332.37Z" fill="white"/>
</g>
<g opacity="0.5">
<path d="M105.23 331.66C105.79 325.3 104.51 318.07 100.23 313.18C99.7601 312.64 100.55 311.84 101.02 312.39C105.52 317.5 106.95 324.99 106.38 331.66C106.31 332.37 105.19 332.38 105.25 331.66H105.23Z" fill="white"/>
</g>
<g opacity="0.2">
<path d="M100.773 331.81C99.4733 326.52 98.5433 321.13 97.7733 315.74C97.6633 315.04 98.7733 314.74 98.8533 315.44C99.6633 320.83 100.593 326.22 101.853 331.51C102.023 332.21 100.943 332.51 100.773 331.81Z" fill="white"/>
</g>
<g opacity="0.5">
<path d="M95.7901 331.81C94.0368 326.928 93.3149 321.736 93.6701 316.56C93.6701 315.84 94.8401 315.83 94.8001 316.56C94.4431 321.633 95.1481 326.725 96.8701 331.51C97.1201 332.19 96.0401 332.51 95.7901 331.81Z" fill="white"/>
</g>
<g opacity="0.3">
<path d="M113.79 330.37C116.11 329.03 119.2 326.92 119.79 324.16C119.95 323.46 121.03 323.76 120.87 324.46C120.17 327.52 116.87 329.85 114.31 331.33C114.177 331.404 114.021 331.423 113.875 331.382C113.728 331.34 113.604 331.243 113.53 331.11C113.456 330.978 113.437 330.821 113.479 330.675C113.52 330.528 113.617 330.404 113.75 330.33L113.79 330.37Z" fill="white"/>
</g>
<g opacity="0.2">
<path d="M118.923 324.261L116.313 327.901C115.893 328.481 114.923 327.901 115.313 327.341L117.923 323.691C118.343 323.111 119.313 323.691 118.923 324.261Z" fill="white"/>
</g>
<path d="M96.8298 308.971C96.8298 308.971 99.1798 307.971 99.2598 307.231C99.3698 306.161 97.3998 303.911 96.3298 304.041C95.4298 304.161 94.6498 307.231 94.6498 307.231C94.6498 307.231 93.8598 304.151 92.9598 304.041C91.7798 303.911 89.6798 306.481 89.8498 307.661C89.9398 308.351 92.1898 309.171 92.1898 309.171C92.1898 309.171 89.7298 309.171 89.4098 309.841C88.9598 310.741 90.0398 313.361 91.0298 313.551C91.8098 313.701 93.2798 311.331 93.2798 311.331C93.2798 311.331 91.9298 313.531 92.3398 314.151C92.7498 314.771 95.1298 315.061 95.7098 314.451C96.2898 313.841 95.2298 311.331 95.2298 311.331C95.2298 311.331 96.5098 313.571 97.2298 313.551C98.2298 313.551 100.06 311.451 99.8498 310.461C99.6998 309.631 96.8298 308.971 96.8298 308.971Z" fill="#44E0AA"/>
<path opacity="0.6" d="M96.8298 308.971C96.8298 308.971 99.1798 307.971 99.2598 307.231C99.3698 306.161 97.3998 303.911 96.3298 304.041C95.4298 304.161 94.6498 307.231 94.6498 307.231C94.6498 307.231 93.8598 304.151 92.9598 304.041C91.7798 303.911 89.6798 306.481 89.8498 307.661C89.9398 308.351 92.1898 309.171 92.1898 309.171C92.1898 309.171 89.7298 309.171 89.4098 309.841C88.9598 310.741 90.0398 313.361 91.0298 313.551C91.8098 313.701 93.2798 311.331 93.2798 311.331C93.2798 311.331 91.9298 313.531 92.3398 314.151C92.7498 314.771 95.1298 315.061 95.7098 314.451C96.2898 313.841 95.2298 311.331 95.2298 311.331C95.2298 311.331 96.5098 313.571 97.2298 313.551C98.2298 313.551 100.06 311.451 99.8498 310.461C99.6998 309.631 96.8298 308.971 96.8298 308.971Z" fill="white"/>
<path d="M114.792 324.141L112.502 323.961C112.072 323.961 112.072 323.251 112.502 323.291L114.792 323.461C115.222 323.461 115.222 324.171 114.792 324.141Z" fill="#263238"/>
<path d="M115.113 316.37L112.913 316.87C112.493 316.96 112.313 316.32 112.743 316.22L114.933 315.72C115.353 315.63 115.533 316.28 115.113 316.37Z" fill="#263238"/>
<path d="M112.183 308.3L110.313 310.3C110.013 310.61 109.543 310.14 109.833 309.82L111.703 307.82C111.993 307.5 112.473 307.98 112.183 308.3Z" fill="#263238"/>
<path d="M93.68 331.78L90.63 332.52C90.21 332.62 90.03 331.97 90.45 331.87L93.45 331.13C93.5318 331.119 93.6151 331.137 93.6843 331.182C93.7535 331.228 93.8039 331.297 93.8259 331.376C93.848 331.456 93.8403 331.541 93.8042 331.615C93.7681 331.69 93.7062 331.748 93.63 331.78H93.68Z" fill="#263238"/>
<path d="M92.2325 322.531L90.0325 321.981C89.9563 321.949 89.8943 321.89 89.8583 321.815C89.8222 321.741 89.8145 321.656 89.8366 321.576C89.8586 321.497 89.909 321.428 89.9782 321.383C90.0473 321.337 90.1307 321.319 90.2125 321.331L92.4125 321.881C92.8325 321.981 92.6525 322.631 92.2325 322.531Z" fill="#263238"/>
<path d="M92.59 316.591L90.45 316.141C90.03 316.051 90.21 315.401 90.63 315.491L92.77 315.941C93.19 316.031 93.01 316.681 92.59 316.591Z" fill="#263238"/>
<path d="M103.941 306.89V304.89C103.955 304.811 103.996 304.74 104.057 304.688C104.119 304.637 104.196 304.608 104.276 304.608C104.357 304.608 104.434 304.637 104.495 304.688C104.557 304.74 104.598 304.811 104.611 304.89V306.89C104.598 306.969 104.557 307.041 104.495 307.092C104.434 307.144 104.357 307.172 104.276 307.172C104.196 307.172 104.119 307.144 104.057 307.092C103.996 307.041 103.955 306.969 103.941 306.89Z" fill="#263238"/>
<path d="M112.263 328.941L114.163 329.461C114.248 329.485 114.32 329.541 114.363 329.618C114.406 329.695 114.417 329.786 114.393 329.871C114.369 329.956 114.313 330.028 114.236 330.071C114.159 330.114 114.068 330.125 113.983 330.101L112.083 329.591C112.007 329.559 111.945 329.5 111.909 329.426C111.873 329.351 111.865 329.266 111.887 329.187C111.909 329.107 111.96 329.038 112.029 328.993C112.098 328.948 112.181 328.929 112.263 328.941Z" fill="#263238"/>
<path d="M111.79 331.26L113.73 331.73C114.15 331.83 113.97 332.48 113.55 332.38L111.61 331.91C111.19 331.81 111.37 331.16 111.79 331.26Z" fill="#263238"/>
<path d="M117.85 328.441L120.19 329.721C120.57 329.931 120.19 330.511 119.85 330.311L117.51 329.021C117.13 328.811 117.51 328.231 117.85 328.441Z" fill="#263238"/>
<path d="M120.412 323.811L122.892 322.451C122.969 322.407 123.06 322.396 123.146 322.419C123.231 322.443 123.303 322.499 123.347 322.576C123.391 322.653 123.402 322.744 123.379 322.829C123.355 322.915 123.299 322.987 123.222 323.031L120.752 324.371C120.372 324.581 120.032 324.001 120.412 323.791V323.811Z" fill="#263238"/>
<path d="M119.132 321.841C119.322 320.911 119.512 319.971 119.692 319.041C119.782 318.621 120.432 318.801 120.342 319.221C120.162 320.151 119.972 321.081 119.782 322.021C119.702 322.441 119.052 322.261 119.132 321.841Z" fill="#263238"/>
<path d="M116.001 324.55L114.751 323.25C114.451 322.93 114.931 322.46 115.231 322.77L116.481 324.08C116.781 324.39 116.301 324.87 116.001 324.55Z" fill="#263238"/>
<path d="M391.478 114.861C390.828 106.601 385.798 99.7506 376.558 99.6006L353.398 110.051C356.771 110.65 359.881 112.264 362.311 114.679C364.742 117.093 366.377 120.192 366.998 123.561C368.508 132.791 373.328 142.981 381.788 146.941C389.448 144.301 406.788 136.281 407.218 136.101C403.658 133.921 392.528 128.171 391.478 114.861ZM357.418 109.861C357.418 109.861 357.418 109.761 357.418 109.731H357.568L357.418 109.861ZM400.418 136.331C396.598 138.061 389.348 141.331 384.278 143.261C383.633 142.824 382.876 142.58 382.097 142.557C381.318 142.534 380.549 142.733 379.878 143.131C372.708 138.201 370.068 129.131 368.638 121.371C367.778 116.771 365.048 112.441 360.978 110.551C361.077 110.393 361.143 110.216 361.17 110.032C361.198 109.848 361.187 109.66 361.138 109.481C361.083 109.292 360.986 109.119 360.855 108.973C360.723 108.828 360.56 108.714 360.378 108.641L375.108 101.891C376.359 102.108 377.647 101.915 378.778 101.341C385.348 102.601 389.518 109.341 389.698 113.991C389.831 117.805 390.841 121.538 392.65 124.899C394.459 128.26 397.018 131.159 400.128 133.371C399.949 133.862 399.884 134.388 399.94 134.908C399.995 135.428 400.169 135.928 400.448 136.371L400.418 136.331Z" fill="#5063F4"/>
<path d="M357.418 109.891C357.418 109.891 357.418 109.791 357.418 109.761H357.568L357.418 109.891Z" fill="#5063F4"/>
<path d="M400.45 136.371C396.63 138.101 389.38 141.371 384.31 143.301C383.665 142.864 382.908 142.62 382.129 142.597C381.35 142.574 380.58 142.773 379.91 143.171C372.74 138.241 370.1 129.171 368.67 121.411C367.81 116.811 365.08 112.481 361.01 110.591C361.109 110.433 361.174 110.257 361.202 110.073C361.23 109.888 361.219 109.701 361.17 109.521C361.115 109.333 361.018 109.159 360.886 109.014C360.755 108.868 360.592 108.754 360.41 108.681L375.14 101.931C376.391 102.148 377.678 101.956 378.81 101.381C385.38 102.641 389.55 109.381 389.73 114.031C389.865 117.836 390.874 121.559 392.677 124.912C394.48 128.266 397.03 131.16 400.13 133.371C399.951 133.862 399.886 134.388 399.941 134.908C399.997 135.428 400.171 135.929 400.45 136.371Z" fill="#5063F4"/>
<g opacity="0.3">
<path d="M400.45 136.371C396.63 138.101 389.38 141.371 384.31 143.301C383.665 142.864 382.908 142.62 382.129 142.597C381.35 142.574 380.58 142.773 379.91 143.171C372.74 138.241 370.1 129.171 368.67 121.411C367.81 116.811 365.08 112.481 361.01 110.591C361.109 110.433 361.174 110.257 361.202 110.073C361.23 109.888 361.219 109.701 361.17 109.521C361.115 109.333 361.018 109.159 360.886 109.014C360.755 108.868 360.592 108.754 360.41 108.681L375.14 101.931C376.391 102.148 377.678 101.956 378.81 101.381C385.38 102.641 389.55 109.381 389.73 114.031C389.865 117.836 390.874 121.559 392.677 124.912C394.48 128.266 397.03 131.16 400.13 133.371C399.951 133.862 399.886 134.388 399.941 134.908C399.997 135.428 400.171 135.929 400.45 136.371Z" fill="white"/>
</g>
<path opacity="0.4" d="M381.638 120.011C381.56 120.036 381.488 120.079 381.429 120.136C381.37 120.193 381.325 120.263 381.298 120.341C381.235 120.551 381.211 120.772 381.228 120.991L382.668 120.501C382.55 120.302 382.376 120.142 382.168 120.041C382.002 119.962 381.812 119.951 381.638 120.011Z" fill="white"/>
<path opacity="0.4" d="M379.869 122.581L378.469 123.051C378.58 123.245 378.742 123.404 378.939 123.511C379.018 123.545 379.103 123.563 379.189 123.563C379.275 123.563 379.36 123.545 379.439 123.511C379.518 123.489 379.591 123.448 379.652 123.392C379.712 123.337 379.759 123.268 379.789 123.191C379.852 122.994 379.879 122.788 379.869 122.581Z" fill="white"/>
<path opacity="0.4" d="M388.091 119.151C387.289 117.139 385.746 115.511 383.779 114.603C381.813 113.695 379.573 113.576 377.521 114.271C376.549 114.605 375.656 115.134 374.896 115.826C374.136 116.518 373.526 117.359 373.103 118.295C372.68 119.232 372.452 120.245 372.435 121.272C372.417 122.3 372.61 123.32 373.001 124.271C373.803 126.282 375.347 127.909 377.314 128.815C379.281 129.722 381.521 129.838 383.571 129.141C384.542 128.806 385.434 128.277 386.193 127.586C386.952 126.894 387.562 126.055 387.985 125.12C388.408 124.185 388.636 123.173 388.654 122.146C388.672 121.12 388.481 120.1 388.091 119.151ZM378.531 124.991C377.919 124.662 377.431 124.142 377.141 123.511L376.011 123.891C375.881 123.551 375.751 123.221 375.631 122.891L376.731 122.521C376.575 122.031 376.484 121.524 376.461 121.011C376.432 120.586 376.476 120.16 376.591 119.751L378.041 119.881C377.946 120.223 377.899 120.576 377.901 120.931C377.899 121.316 377.953 121.7 378.061 122.071L379.751 121.501C379.686 121.057 379.663 120.608 379.681 120.161C379.702 119.807 379.808 119.464 379.991 119.161C380.226 118.811 380.582 118.561 380.991 118.461C381.263 118.366 381.551 118.328 381.838 118.349C382.126 118.369 382.406 118.448 382.661 118.581C383.281 118.916 383.774 119.447 384.061 120.091L385.181 119.711L385.551 120.711L384.451 121.091C384.687 121.813 384.742 122.582 384.611 123.331L383.171 123.251C383.271 122.683 383.254 122.101 383.121 121.541L381.401 122.121C381.459 122.558 381.486 122.999 381.481 123.441C381.462 123.794 381.356 124.138 381.171 124.441C380.95 124.781 380.612 125.03 380.221 125.141C379.944 125.233 379.651 125.268 379.36 125.242C379.07 125.216 378.787 125.131 378.531 124.991Z" fill="white"/>
<path d="M345.49 100.74C345.391 100.725 345.294 100.702 345.2 100.67C343.33 100.04 340.49 97.1202 338.06 93.1402C335.63 89.1602 334.35 85.2802 334.67 83.3202C334.707 82.9869 334.839 82.6714 335.05 82.4101C335.114 82.3305 335.192 82.2628 335.28 82.2102C335.374 82.1544 335.474 82.1107 335.58 82.0802C335.914 82.011 336.261 82.0387 336.58 82.1601C336.987 82.2967 337.374 82.4885 337.73 82.7302C338.017 82.9177 338.295 83.1214 338.56 83.3402C338.72 83.4702 338.89 83.6102 339.05 83.7602C340.897 85.5281 342.486 87.548 343.77 89.7602C345.124 91.9021 346.167 94.2252 346.87 96.6601C346.93 96.8935 346.98 97.1135 347.02 97.3202C347.106 97.6816 347.163 98.0495 347.19 98.4202C347.252 98.8345 347.252 99.2558 347.19 99.6702C347.146 100.01 346.991 100.327 346.75 100.57C346.697 100.633 346.633 100.684 346.56 100.72C346.498 100.76 346.43 100.791 346.36 100.81C346.069 100.875 345.766 100.85 345.49 100.74Z" fill="#5063F4"/>
<path d="M345.491 100.741L345.341 100.491L340.101 91.8609C339.961 91.6309 339.821 91.4109 339.701 91.1909L334.801 83.1909C334.834 82.9331 334.919 82.6847 335.051 82.4609C335.098 82.3862 335.151 82.3159 335.211 82.2509L335.741 81.9209L337.351 80.9209L338.071 82.1109L338.201 82.3209L338.701 83.1509L339.061 83.7509L346.881 96.6009L347.171 97.0809L347.721 97.9809L347.841 98.2009L348.571 99.3809L346.721 100.511L346.331 100.751C346.056 100.829 345.764 100.825 345.491 100.741Z" fill="#5063F4"/>
<path d="M337.349 80.8911C335.769 81.8911 336.999 86.7711 340.099 91.8911C343.199 97.0111 346.999 100.371 348.569 99.3711C350.139 98.3711 348.919 93.5011 345.819 88.3711C342.719 83.2411 338.929 79.9311 337.349 80.8911Z" fill="#5063F4"/>
<path opacity="0.4" d="M337.349 80.8911C335.769 81.8911 336.999 86.7711 340.099 91.8911C343.199 97.0111 346.999 100.371 348.569 99.3711C350.139 98.3711 348.919 93.5011 345.819 88.3711C342.719 83.2411 338.929 79.9311 337.349 80.8911Z" fill="white"/>
<path d="M338.169 82.001C338.073 82.0654 337.997 82.1555 337.949 82.261C339.259 82.261 342.019 85.171 344.469 89.261C346.919 93.351 348.239 97.091 347.629 98.261C347.745 98.2656 347.859 98.2379 347.959 98.181C349.029 97.531 347.729 93.381 345.019 88.931C342.309 84.481 339.239 81.371 338.169 82.001Z" fill="#5063F4"/>
<path opacity="0.4" d="M338.169 82.001C338.073 82.0654 337.997 82.1555 337.949 82.261C339.259 82.261 342.019 85.171 344.469 89.261C346.919 93.351 348.239 97.091 347.629 98.261C347.745 98.2656 347.859 98.2379 347.959 98.181C349.029 97.531 347.729 93.381 345.019 88.931C342.309 84.481 339.239 81.371 338.169 82.001Z" fill="#5063F4"/>
<path opacity="0.4" d="M338 82.2607C337.4 83.4207 338.71 87.2607 341.16 91.2607C343.61 95.2607 346.38 98.2607 347.68 98.2607C348.29 97.1007 346.98 93.2607 344.52 89.2607C342.06 85.2607 339.26 82.2607 338 82.2607Z" fill="#5063F4"/>
<path d="M243.609 78.2006C248.209 79.8106 249.609 86.3506 245.969 92.5706C242.329 98.7906 235.969 100.881 232.279 97.7206C229.089 94.9906 229.039 89.1906 231.809 84.4306C234.579 79.6706 239.649 76.8106 243.609 78.2006Z" fill="#5063F4"/>
<path d="M241.999 77.6211C246.329 79.1411 247.519 85.4211 243.999 91.4411C240.479 97.4611 234.429 99.5611 230.949 96.5911C227.949 94.0111 227.949 88.4011 230.649 83.7611C233.349 79.1211 238.219 76.3111 241.999 77.6211Z" fill="#5063F4"/>
<path opacity="0.4" d="M241.999 77.6211C246.329 79.1411 247.519 85.4211 243.999 91.4411C240.479 97.4611 234.429 99.5611 230.949 96.5911C227.949 94.0111 227.949 88.4011 230.649 83.7611C233.349 79.1211 238.219 76.3111 241.999 77.6211Z" fill="white"/>
<path d="M240.459 79.9503C240.642 80.0195 240.82 80.1031 240.989 80.2003C243.599 81.7803 244.059 86.1003 241.719 90.1303C239.379 94.1603 235.379 95.9303 232.719 94.4703C232.549 94.3672 232.385 94.2536 232.229 94.1303C229.879 92.3003 229.809 88.0403 231.889 84.4703C233.969 80.9003 237.689 78.8303 240.459 79.9503Z" fill="#5063F4"/>
<path opacity="0.3" d="M240.999 80.2002C243.609 81.7802 244.069 86.1002 241.729 90.1302C239.389 94.1602 235.389 95.9302 232.729 94.4702C230.729 92.3702 230.809 88.3702 232.789 84.9702C234.769 81.5702 238.189 79.5502 240.999 80.2002Z" fill="white"/>
<path d="M418.729 167.37C420.909 171.81 418.279 177.56 412.859 180.23C407.439 182.9 401.269 181.46 399.089 177.02C396.909 172.58 399.549 166.83 404.969 164.17C410.389 161.51 416.549 162.92 418.729 167.37Z" fill="#5063F4"/>
<path d="M417.861 165.591C420.041 170.021 417.411 175.781 411.991 178.441C406.571 181.101 400.411 179.671 398.231 175.241C396.051 170.811 398.681 165.051 404.101 162.381C409.521 159.711 415.681 161.151 417.861 165.591Z" fill="#5063F4"/>
<path opacity="0.4" d="M417.861 165.591C420.041 170.021 417.411 175.781 411.991 178.441C406.571 181.101 400.411 179.671 398.231 175.241C396.051 170.811 398.681 165.051 404.101 162.381C409.521 159.711 415.681 161.151 417.861 165.591Z" fill="white"/>
<path d="M415.339 166.65C415.439 166.87 415.529 167.08 415.609 167.29C415.609 167.29 415.609 167.29 415.609 167.34C416.669 170.57 414.689 174.43 410.919 176.29C407.149 178.15 402.859 177.36 400.919 174.54C400.809 174.35 400.689 174.15 400.579 173.94C398.949 170.62 400.929 166.3 404.989 164.3C409.049 162.3 413.699 163.37 415.339 166.65Z" fill="#5063F4"/>
<path opacity="0.3" d="M415.611 167.291C415.611 167.291 415.611 167.291 415.611 167.341C416.671 170.571 414.691 174.431 410.921 176.291C407.151 178.151 402.861 177.361 400.921 174.541C399.861 171.321 401.841 167.441 405.631 165.541C409.421 163.641 413.701 164.491 415.611 167.291Z" fill="white"/>
<path d="M322.32 70.5506L301.32 81.5506C293.95 76.5506 287.76 75.9506 280.32 80.8206C277.945 82.2602 275.465 83.5172 272.9 84.5806C271.212 85.3384 269.475 85.9799 267.7 86.5006C265.994 86.9177 264.206 86.8473 262.539 86.2975C260.871 85.7476 259.392 84.7404 258.27 83.3906C267.84 78.6206 272.1 74.9306 281.66 70.1706C283.2 72.6806 286.11 72.7006 289.15 71.8106C293.38 70.5606 297.86 67.5306 299.2 66.9906C303.029 65.5165 307.178 65.0695 311.233 65.694C315.289 66.3185 319.111 67.9928 322.32 70.5506Z" fill="#5063F4"/>
<path opacity="0.3" d="M318.221 70.2302C311.881 65.0402 302.951 66.8802 298.721 68.5502C296.411 69.4602 284.791 76.9202 281.271 71.7402C271.701 76.5002 270.941 78.5702 261.371 83.3302C262.901 84.6202 267.231 87.4702 276.911 80.6902C284.191 75.5902 293.641 74.5802 301.011 79.5502C307.681 76.0602 311.541 73.7102 318.221 70.2302Z" fill="white"/>
<path d="M262.849 82.0605C262.109 82.5105 261.449 83.0005 260.719 83.4505L263.169 84.7206C263.454 84.3161 263.579 83.8204 263.52 83.329C263.461 82.8377 263.222 82.3858 262.849 82.0605Z" fill="#5063F4"/>
<path d="M283.001 72.5507C282.483 72.7711 281.912 72.8374 281.357 72.7417C280.801 72.6459 280.286 72.3921 279.871 72.0107C280.326 71.541 280.894 71.1966 281.521 71.0107C281.945 71.5869 282.442 72.1047 283.001 72.5507Z" fill="#5063F4"/>
<path d="M303.92 78.7502C303.207 78.3982 302.411 78.2493 301.619 78.3198C300.827 78.3904 300.069 78.6777 299.43 79.1502L301.21 80.2102C301.973 79.4991 302.906 78.9963 303.92 78.7502Z" fill="#5063F4"/>
<path d="M320.14 70.2608C318.963 70.5311 317.867 71.076 316.94 71.8508C316.782 71.6332 316.672 71.3838 316.619 71.1199C316.566 70.856 316.57 70.5837 316.632 70.3217C316.694 70.0596 316.811 69.814 316.976 69.6015C317.142 69.3891 317.351 69.2149 317.59 69.0908C318.48 69.3864 319.335 69.7787 320.14 70.2608Z" fill="#5063F4"/>
<path opacity="0.1" d="M289.13 71.7904C288.02 73.4304 277.13 81.4604 272.88 84.5604C271.192 85.3182 269.455 85.9597 267.68 86.4804C265.975 86.8975 264.186 86.8271 262.519 86.2772C260.852 85.7274 259.373 84.7201 258.25 83.3704C267.82 78.6004 272.08 74.9104 281.64 70.1504C283.18 72.6604 286.09 72.6804 289.13 71.7904Z" fill="black"/>
<path opacity="0.4" d="M282.238 76.9109C282.448 77.5009 286.238 76.6209 290.678 74.9609C295.118 73.3009 298.548 71.4909 298.328 70.9609C298.108 70.4309 294.328 71.2509 289.888 72.9109C285.448 74.5709 281.998 76.3709 282.238 76.9109Z" fill="white"/>
<path d="M375.448 257.301C365.658 234.901 393.318 217.361 383.528 194.961L418.198 199.451C427.988 221.851 400.328 239.401 410.118 261.801L375.448 257.301Z" fill="#5063F4"/>
<path opacity="0.3" d="M379.801 255.02L403.571 258.1C403.436 257.801 403.387 257.471 403.43 257.145C403.472 256.82 403.605 256.513 403.813 256.259C404.021 256.006 404.296 255.815 404.607 255.709C404.917 255.603 405.251 255.587 405.571 255.66C402.431 237.82 420.321 222.66 417.171 204.87C416.387 204.695 415.665 204.311 415.082 203.758C414.499 203.205 414.077 202.504 413.861 201.73L390.091 198.65C390.229 198.95 390.28 199.282 390.238 199.609C390.197 199.936 390.064 200.244 389.856 200.5C389.647 200.755 389.371 200.947 389.059 201.053C388.747 201.159 388.412 201.176 388.091 201.1C391.231 218.94 373.341 234.1 376.491 251.89C377.275 252.062 377.997 252.445 378.58 252.996C379.163 253.548 379.585 254.247 379.801 255.02Z" fill="white"/>
<path opacity="0.4" d="M399.46 227.181C399.233 227.155 399.005 227.216 398.82 227.351C398.571 227.531 398.349 227.747 398.16 227.991L400.01 228.231C400.077 227.981 400.056 227.716 399.95 227.481C399.898 227.396 399.826 227.325 399.741 227.273C399.656 227.22 399.56 227.189 399.46 227.181Z" fill="white"/>
<path opacity="0.4" d="M395.348 228.961L393.548 228.721C393.468 228.954 393.468 229.207 393.548 229.441C393.594 229.525 393.66 229.596 393.741 229.649C393.821 229.701 393.913 229.733 394.008 229.741C394.234 229.77 394.463 229.713 394.648 229.581C394.912 229.411 395.148 229.202 395.348 228.961Z" fill="white"/>
<path opacity="0.4" d="M406.549 229.641C408.929 224.491 406.129 219.701 400.719 219.001C395.309 218.301 389.479 222.001 387.099 227.121C384.719 232.241 387.529 237.061 392.929 237.761C398.329 238.461 404.169 234.791 406.549 229.641ZM391.819 230.791C391.516 230.058 391.516 229.234 391.819 228.501L390.359 228.311L390.919 227.061L392.339 227.241C392.654 226.63 393.033 226.053 393.469 225.521C393.845 225.043 394.282 224.616 394.769 224.251L396.059 225.151C395.653 225.442 395.281 225.778 394.949 226.151C394.607 226.543 394.306 226.969 394.049 227.421L396.229 227.711C396.581 227.204 396.969 226.723 397.389 226.271C397.75 225.888 398.177 225.573 398.649 225.341C399.14 225.106 399.691 225.026 400.229 225.111C400.548 225.134 400.856 225.238 401.124 225.413C401.391 225.588 401.61 225.828 401.759 226.111C402.062 226.851 402.062 227.681 401.759 228.421L403.209 228.611C403.019 229.021 402.829 229.441 402.649 229.861L401.229 229.671C400.751 230.602 400.099 231.434 399.309 232.121L397.999 231.371C398.6 230.844 399.116 230.226 399.529 229.541L397.309 229.251C396.964 229.754 396.583 230.232 396.169 230.681C395.816 231.062 395.396 231.374 394.929 231.601C394.441 231.835 393.894 231.915 393.359 231.831C393.032 231.813 392.717 231.707 392.445 231.524C392.174 231.341 391.958 231.087 391.819 230.791Z" fill="white"/>
<path d="M395.861 260.821C393.744 259.888 391.951 258.348 390.708 256.396C389.466 254.444 388.831 252.168 388.882 249.855C388.933 247.542 389.669 245.297 390.996 243.402C392.323 241.507 394.182 240.048 396.339 239.209C398.495 238.371 400.851 238.191 403.11 238.691C405.369 239.192 407.428 240.35 409.028 242.021C410.629 243.692 411.698 245.8 412.1 248.078C412.503 250.356 412.221 252.702 411.291 254.821C410.672 256.228 409.782 257.5 408.672 258.564C407.561 259.627 406.252 260.461 404.819 261.019C403.386 261.576 401.857 261.845 400.32 261.811C398.783 261.777 397.268 261.441 395.861 260.821Z" fill="#5063F4"/>
<path d="M395.289 262.11C393.17 261.177 391.375 259.636 390.132 257.682C388.889 255.728 388.252 253.45 388.304 251.135C388.355 248.82 389.092 246.572 390.421 244.675C391.749 242.779 393.611 241.319 395.769 240.48C397.928 239.641 400.287 239.461 402.547 239.963C404.808 240.464 406.869 241.625 408.471 243.298C410.072 244.971 411.141 247.081 411.543 249.362C411.945 251.642 411.662 253.991 410.729 256.11C410.111 257.519 409.22 258.792 408.109 259.857C406.998 260.921 405.688 261.756 404.254 262.313C402.82 262.871 401.29 263.14 399.751 263.105C398.213 263.07 396.697 262.732 395.289 262.11Z" fill="#5063F4"/>
<path opacity="0.4" d="M395.289 262.11C393.17 261.177 391.375 259.636 390.132 257.682C388.889 255.728 388.252 253.45 388.304 251.135C388.355 248.82 389.092 246.572 390.421 244.675C391.749 242.779 393.611 241.319 395.769 240.48C397.928 239.641 400.287 239.461 402.547 239.963C404.808 240.464 406.869 241.625 408.471 243.298C410.072 244.971 411.141 247.081 411.543 249.362C411.945 251.642 411.662 253.991 410.729 256.11C410.111 257.519 409.22 258.792 408.109 259.857C406.998 260.921 405.688 261.756 404.254 262.313C402.82 262.871 401.29 263.14 399.751 263.105C398.213 263.07 396.697 262.732 395.289 262.11Z" fill="white"/>
<path d="M407.999 254.94C407.869 255.24 407.719 255.531 407.549 255.81C406.396 257.763 404.526 259.188 402.338 259.784C400.15 260.38 397.816 260.099 395.832 259.001C393.848 257.903 392.371 256.074 391.714 253.904C391.056 251.733 391.272 249.392 392.313 247.378C393.355 245.364 395.141 243.836 397.292 243.118C399.443 242.4 401.79 242.549 403.832 243.534C405.875 244.519 407.453 246.261 408.231 248.391C409.009 250.521 408.926 252.871 407.999 254.94Z" fill="#5063F4"/>
<path opacity="0.3" d="M407.998 254.941C407.868 255.241 407.718 255.531 407.548 255.811C406.234 257.497 404.349 258.644 402.248 259.037C400.147 259.429 397.974 259.04 396.14 257.942C394.306 256.844 392.936 255.114 392.29 253.076C391.643 251.039 391.763 248.836 392.628 246.881C392.752 246.6 392.892 246.326 393.048 246.061C394.357 244.37 396.238 243.216 398.338 242.817C400.438 242.417 402.612 242.799 404.45 243.891C406.287 244.982 407.663 246.708 408.316 248.744C408.97 250.779 408.857 252.983 407.998 254.941Z" fill="white"/>
<g opacity="0.4">
<path d="M396.759 254.171C394.849 253.701 394.209 251.961 394.989 249.681L393.539 249.001L394.129 247.671L395.579 248.351C396.166 247.241 397.005 246.286 398.029 245.561L399.419 246.891C398.538 247.467 397.808 248.245 397.289 249.161L399.509 250.161C400.459 249.021 401.589 247.791 403.329 248.221C405.229 248.691 405.879 250.471 405.059 252.771L406.509 253.461L405.919 254.791L404.459 254.101C403.984 254.971 403.338 255.736 402.559 256.351L401.139 255.101C401.797 254.618 402.349 254.006 402.759 253.301L400.439 252.211C399.509 253.371 398.409 254.581 396.759 254.171ZM401.399 251.091L403.289 251.991C403.469 251.191 403.219 250.651 402.679 250.501C402.139 250.351 401.829 250.661 401.399 251.091ZM397.339 251.921C397.759 252.021 398.149 251.781 398.539 251.361L396.739 250.511C396.579 251.271 396.799 251.781 397.339 251.921Z" fill="white"/>
</g>
<path d="M194.289 123.671C193.216 121.867 192.701 119.785 192.811 117.689C192.921 115.592 193.651 113.576 194.907 111.894C196.164 110.213 197.891 108.942 199.87 108.242C201.849 107.542 203.991 107.445 206.025 107.963C208.059 108.481 209.894 109.591 211.297 111.152C212.701 112.713 213.609 114.655 213.909 116.733C214.208 118.811 213.884 120.93 212.978 122.824C212.072 124.717 210.625 126.3 208.819 127.371C207.622 128.082 206.297 128.551 204.919 128.75C203.541 128.949 202.137 128.874 200.788 128.531C199.438 128.187 198.17 127.581 197.055 126.747C195.94 125.913 195 124.868 194.289 123.671Z" fill="#5063F4"/>
<path d="M193.188 124.371C192.119 122.566 191.609 120.484 191.723 118.389C191.837 116.293 192.569 114.279 193.828 112.6C195.086 110.921 196.814 109.653 198.794 108.957C200.773 108.26 202.914 108.165 204.947 108.686C206.98 109.206 208.813 110.317 210.214 111.878C211.615 113.44 212.522 115.382 212.82 117.459C213.117 119.536 212.793 121.655 211.886 123.547C210.98 125.44 209.533 127.021 207.728 128.091C205.306 129.524 202.414 129.937 199.688 129.239C196.962 128.542 194.624 126.791 193.188 124.371Z" fill="#5063F4"/>
<path opacity="0.4" d="M193.188 124.371C192.119 122.566 191.609 120.484 191.723 118.389C191.837 116.293 192.569 114.279 193.828 112.6C195.086 110.921 196.814 109.653 198.794 108.957C200.773 108.26 202.914 108.165 204.947 108.686C206.98 109.206 208.813 110.317 210.214 111.878C211.615 113.44 212.522 115.382 212.82 117.459C213.117 119.536 212.793 121.655 211.886 123.547C210.98 125.44 209.533 127.021 207.728 128.091C205.306 129.524 202.414 129.937 199.688 129.239C196.962 128.542 194.624 126.791 193.188 124.371Z" fill="white"/>
<path d="M206.358 125.741C206.103 125.893 205.84 126.03 205.568 126.151C203.721 126.96 201.636 127.036 199.734 126.364C197.833 125.692 196.259 124.321 195.332 122.531C194.404 120.741 194.192 118.664 194.739 116.723C195.287 114.783 196.552 113.123 198.278 112.081C198.819 111.772 199.397 111.533 199.998 111.371C201.857 110.795 203.863 110.923 205.634 111.73C207.405 112.538 208.817 113.968 209.602 115.75C210.386 117.531 210.488 119.539 209.888 121.39C209.288 123.242 208.028 124.808 206.348 125.791L206.358 125.741Z" fill="#5063F4"/>
<path opacity="0.3" d="M206.36 125.741C206.105 125.893 205.841 126.03 205.57 126.151C203.711 126.705 201.714 126.56 199.955 125.743C198.195 124.926 196.796 123.493 196.021 121.715C195.246 119.937 195.148 117.937 195.747 116.092C196.345 114.247 197.599 112.685 199.27 111.701C199.506 111.576 199.75 111.466 200 111.371C201.859 110.795 203.865 110.923 205.636 111.73C207.407 112.538 208.819 113.968 209.604 115.75C210.388 117.531 210.49 119.539 209.89 121.39C209.29 123.242 208.03 124.808 206.35 125.791L206.36 125.741Z" fill="white"/>
<g opacity="0.4">
<path d="M198.459 119.241C197.299 117.881 197.739 116.241 199.459 114.991L198.749 113.721L199.889 113.051L200.599 114.321C201.617 113.812 202.741 113.551 203.879 113.561L204.199 115.271C203.249 115.23 202.302 115.419 201.439 115.821L202.519 117.761C203.819 117.421 205.299 117.111 206.359 118.351C207.419 119.591 207.059 121.351 205.239 122.611L205.949 123.881L204.809 124.551L204.089 123.281C203.283 123.672 202.405 123.893 201.509 123.931L201.119 122.261C201.858 122.262 202.589 122.102 203.259 121.791L202.129 119.791C200.899 120.111 199.459 120.371 198.459 119.241ZM203.459 119.411L204.389 121.071C204.939 120.571 205.029 120.071 204.709 119.651C204.389 119.231 203.999 119.371 203.499 119.371L203.459 119.411ZM200.029 117.881C200.186 118.024 200.38 118.12 200.588 118.159C200.797 118.198 201.012 118.177 201.209 118.101L200.329 116.531C199.849 117.001 199.739 117.491 200.069 117.881H200.029Z" fill="white"/>
</g>
<path d="M184.63 185.031C201 167.831 187 150.591 203.29 133.371H175.17C158.83 150.571 172.86 167.821 156.52 185.011L184.63 185.031Z" fill="#5063F4"/>
<path opacity="0.3" d="M182.228 182.711H162.958C163.958 181.501 163.598 180.511 162.418 180.511C171.898 166.321 164.328 152.091 173.808 137.901C174.548 137.803 175.262 137.558 175.907 137.182C176.553 136.807 177.117 136.306 177.568 135.711H196.838C195.838 136.921 196.198 137.911 197.388 137.911C187.908 152.101 195.478 166.331 185.998 180.521C185.255 180.616 184.539 180.859 183.892 181.235C183.245 181.612 182.679 182.113 182.228 182.711Z" fill="white"/>
<path opacity="0.4" d="M178.379 157.931C178.461 157.928 178.542 157.946 178.616 157.982C178.689 158.019 178.752 158.074 178.799 158.141C178.918 158.32 179.003 158.52 179.049 158.731H177.539C177.598 158.5 177.719 158.289 177.889 158.121C178.022 157.996 178.197 157.928 178.379 157.931Z" fill="white"/>
<path opacity="0.4" d="M180.789 159.811H182.249C182.199 160.03 182.088 160.231 181.929 160.391C181.869 160.452 181.798 160.5 181.719 160.533C181.64 160.566 181.555 160.582 181.469 160.581C181.388 160.586 181.307 160.57 181.233 160.535C181.16 160.5 181.096 160.447 181.049 160.381C180.923 160.211 180.835 160.017 180.789 159.811Z" fill="white"/>
<path opacity="0.4" d="M179.128 167.241C181.306 167.215 183.396 166.383 184.996 164.905C186.596 163.428 187.59 161.41 187.788 159.241C188.028 154.791 184.998 151.171 180.668 151.171C178.491 151.195 176.401 152.026 174.802 153.505C173.204 154.983 172.212 157.002 172.018 159.171C171.768 163.621 174.798 167.241 179.128 167.241ZM181.208 162.331C180.81 162.352 180.417 162.224 180.108 161.971C179.84 161.735 179.639 161.431 179.528 161.091C179.395 160.673 179.298 160.245 179.238 159.811H177.438C177.465 160.385 177.612 160.947 177.868 161.461L176.528 162.001C176.196 161.319 176.028 160.569 176.038 159.811H174.888C174.888 159.451 174.938 159.091 174.958 158.731H176.138C176.223 158.019 176.539 157.355 177.038 156.841C177.241 156.636 177.482 156.473 177.748 156.361C178.014 156.25 178.3 156.192 178.588 156.191C178.991 156.166 179.387 156.295 179.698 156.551C179.968 156.792 180.171 157.099 180.288 157.441C180.424 157.862 180.528 158.294 180.598 158.731H182.358C182.357 158.345 182.3 157.961 182.188 157.591C182.098 157.237 181.952 156.9 181.758 156.591L183.098 156.001C183.325 156.356 183.488 156.749 183.578 157.161C183.701 157.661 183.758 158.176 183.748 158.691H184.898C184.898 159.051 184.848 159.411 184.828 159.771H183.648C183.542 160.47 183.228 161.121 182.748 161.641C182.555 161.861 182.318 162.039 182.053 162.164C181.789 162.29 181.501 162.36 181.208 162.371V162.331Z" fill="white"/>
</svg>
