<svg width="40" height="40" viewBox="0 0 40 40" fill="none" xmlns="http://www.w3.org/2000/svg">
<path d="M5.58813 15.2875C6.67396 10.6585 10.2883 7.04407 14.9174 5.95825C18.2604 5.17408 21.7396 5.17407 25.0826 5.95824C29.7117 7.04407 33.326 10.6585 34.4119 15.2875C35.196 18.6305 35.196 22.1097 34.4119 25.4527C33.326 30.0818 29.7117 33.6962 25.0826 34.782C21.7396 35.5662 18.2604 35.5662 14.9174 34.782C10.2884 33.6962 6.67396 30.0818 5.58813 25.4527C4.80396 22.1097 4.80396 18.6305 5.58813 15.2875Z" fill="#EFF2FE" stroke="#5063F4" stroke-width="1.35" stroke-linecap="round"/>
<path d="M15.8 12C15.3226 12 14.8648 12.1896 14.5272 12.5272C14.1896 12.8648 14 13.3226 14 13.8V26.2C14 26.6774 14.1896 27.1352 14.5272 27.4728C14.8648 27.8104 15.3226 28 15.8 28H21.8C22.2745 28 22.7298 27.8127 23.0669 27.4787C23.404 27.1448 23.5956 26.6913 23.6 26.2168V25.0008C23.6 24.8417 23.5368 24.6891 23.4243 24.5765C23.3117 24.464 23.1591 24.4008 23 24.4008C22.6376 24.4008 22.4088 24.3024 22.2512 24.1752C22.0848 24.0416 21.9472 23.8352 21.8424 23.544C21.624 22.94 21.6008 22.144 21.6008 21.4C21.6008 21.2479 21.543 21.1015 21.4392 20.9904L21.3072 20.8488C21.2642 20.8004 21.2188 20.7543 21.1712 20.7104C21.112 20.6544 20.9312 20.4824 20.2248 19.776C19.8496 19.4008 19.6424 19.084 19.5744 18.8416C19.5469 18.7576 19.5425 18.6678 19.5616 18.5816C19.5917 18.4821 19.6484 18.3928 19.7256 18.3232C19.795 18.2463 19.8841 18.1899 19.9832 18.16C20.0692 18.1409 20.1587 18.1453 20.2424 18.1728C20.484 18.2408 20.8008 18.4496 21.176 18.8248C21.608 19.2568 22.0184 19.6616 22.3856 20.0248C22.9936 20.6264 23.484 21.1128 23.7616 21.4088C23.8704 21.5242 24.0204 21.5919 24.1789 21.597C24.3374 21.6021 24.4915 21.5443 24.6075 21.4361C24.7234 21.3279 24.7919 21.1783 24.7978 21.0198C24.8038 20.8613 24.7467 20.7069 24.6392 20.5904C24.2987 20.2343 23.9522 19.8838 23.6 19.5392V16.848L25.8728 19.1216C26.2104 19.4592 26.4008 19.9168 26.4008 20.3936V27.4C26.4008 27.5591 26.464 27.7117 26.5765 27.8243C26.6891 27.9368 26.8417 28 27.0008 28C27.1599 28 27.3125 27.9368 27.4251 27.8243C27.5376 27.7117 27.6008 27.5591 27.6008 27.4V20.3944C27.6008 20.0004 27.5231 19.6102 27.3723 19.2461C27.2214 18.8821 27.0003 18.5514 26.7216 18.2728L23.6 15.1512V13.7992C23.5998 13.3219 23.4101 12.8643 23.0725 12.5269C22.735 12.1895 22.2773 12 21.8 12H15.8ZM20.7136 23.952C20.7912 24.1664 20.8912 24.3792 21.0208 24.5776C20.7151 24.7244 20.4571 24.9546 20.2765 25.2416C20.0959 25.5287 20 25.8609 20 26.2V26.8H17.6V26.2C17.6 25.7226 17.4104 25.2648 17.0728 24.9272C16.7352 24.5896 16.2774 24.4 15.8 24.4H15.2V15.6H15.8C16.2774 15.6 16.7352 15.4104 17.0728 15.0728C17.4104 14.7352 17.6 14.2774 17.6 13.8V13.2H20V13.8C20 14.2774 20.1896 14.7352 20.5272 15.0728C20.8648 15.4104 21.3226 15.6 21.8 15.6H22.4V18.3504L22.0248 17.976C21.6 17.5512 21.1064 17.1696 20.568 17.0176C20.2806 16.9325 19.9757 16.9256 19.6848 16.9976C19.5046 17.0444 19.3336 17.1215 19.1792 17.2256C18.7269 17.1639 18.2664 17.2137 17.8377 17.3707C17.4091 17.5277 17.0253 17.7872 16.7199 18.1264C16.4145 18.4657 16.1966 18.8745 16.0853 19.3172C15.974 19.7599 15.9726 20.2231 16.0813 20.6665C16.1899 21.1098 16.4054 21.5199 16.7088 21.861C17.0122 22.202 17.3944 22.4637 17.8221 22.6233C18.2498 22.7829 18.71 22.8354 19.1627 22.7764C19.6153 22.7174 20.0467 22.5487 20.4192 22.2848C20.4488 22.832 20.5232 23.4264 20.7136 23.952ZM17.2 20C17.1999 19.6515 17.3137 19.3125 17.5239 19.0345C17.7342 18.7565 18.0294 18.5548 18.3648 18.46C18.3339 18.6967 18.3525 18.9372 18.4192 19.1664C18.5704 19.7048 18.9512 20.1992 19.3768 20.6248L19.9088 21.1544C19.6825 21.3719 19.3973 21.518 19.0886 21.5746C18.78 21.6313 18.4614 21.5958 18.1727 21.4728C17.884 21.3498 17.6379 21.1445 17.4649 20.8827C17.2919 20.6208 17.1998 20.3138 17.2 20ZM15.2 13.8C15.2 13.6409 15.2632 13.4883 15.3757 13.3757C15.4883 13.2632 15.6409 13.2 15.8 13.2H16.4V13.8C16.4 13.9591 16.3368 14.1117 16.2243 14.2243C16.1117 14.3368 15.9591 14.4 15.8 14.4H15.2V13.8ZM21.2 13.2H21.8C21.9591 13.2 22.1117 13.2632 22.2243 13.3757C22.3368 13.4883 22.4 13.6409 22.4 13.8V14.4H21.8C21.6409 14.4 21.4883 14.3368 21.3757 14.2243C21.2632 14.1117 21.2 13.9591 21.2 13.8V13.2ZM22.4 25.6V26.2C22.4 26.3591 22.3368 26.5117 22.2243 26.6243C22.1117 26.7368 21.9591 26.8 21.8 26.8H21.2V26.2C21.2 26.0409 21.2632 25.8883 21.3757 25.7757C21.4883 25.6632 21.6409 25.6 21.8 25.6H22.4ZM16.4 26.8H15.8C15.6409 26.8 15.4883 26.7368 15.3757 26.6243C15.2632 26.5117 15.2 26.3591 15.2 26.2V25.6H15.8C15.9591 25.6 16.1117 25.6632 16.2243 25.7757C16.3368 25.8883 16.4 26.0409 16.4 26.2V26.8Z" fill="#5063F4"/>
</svg>
