<svg width="24" height="25" viewBox="0 0 24 25" fill="none" xmlns="http://www.w3.org/2000/svg">
<circle cx="12" cy="12.5" r="12" fill="#44E0AA"/>
<circle cx="12" cy="12.5" r="9.5" stroke="#44E0AA" stroke-opacity="0.7" stroke-width="5"/>
<g clip-path="url(#clip0_9878_140189)">
<path d="M9.08468 14.587L14.3762 9.29548L13.6384 8.55774L8.34695 13.8492V14.587H9.08468ZM9.51721 15.6304H7.30347V13.4167L13.2696 7.45061C13.3674 7.3528 13.5001 7.29785 13.6384 7.29785C13.7768 7.29785 13.9095 7.3528 14.0073 7.45061L15.4833 8.92661C15.5811 9.02445 15.6361 9.15713 15.6361 9.29548C15.6361 9.43383 15.5811 9.56651 15.4833 9.66435L9.51721 15.6304V15.6304ZM7.30347 16.6739H16.6948V17.7174H7.30347V16.6739Z" fill="white"/>
</g>
<rect x="6.23828" y="6.73926" width="11.5217" height="11.5217" stroke="#44E0AA"/>
<defs>
<clipPath id="clip0_9878_140189">
<rect x="5.73828" y="6.23926" width="12.5217" height="12.5217" fill="white"/>
</clipPath>
</defs>
</svg>
