<svg width="40" height="40" viewBox="0 0 40 40" fill="none" xmlns="http://www.w3.org/2000/svg">
<g id="Promo">
<path id="Vector" d="M5.58813 14.9174C6.67396 10.2883 10.2883 6.67395 14.9174 5.58813C18.2604 4.80396 21.7396 4.80396 25.0826 5.58813C29.7117 6.67395 33.3261 10.2884 34.4119 14.9174C35.196 18.2604 35.196 21.7396 34.4119 25.0826C33.3261 29.7117 29.7117 33.3261 25.0826 34.4119C21.7396 35.1961 18.2604 35.1961 14.9174 34.4119C10.2884 33.3261 6.67396 29.7117 5.58813 25.0826C4.80396 21.7396 4.80396 18.2604 5.58813 14.9174Z" fill="#EFF2FE" stroke="#5063F4" stroke-width="1.35"/>
<g id="Group">
<path id="Vector_2" d="M18.0898 13.9942C17.8457 13.75 17.4532 13.75 16.6673 13.75H16.459V12.5C16.459 12.3342 16.3931 12.1753 16.2759 12.0581C16.1587 11.9408 15.9997 11.875 15.834 11.875C15.6682 11.875 15.5093 11.9408 15.392 12.0581C15.2748 12.1753 15.209 12.3342 15.209 12.5V13.75H15.0007C14.2148 13.75 13.8223 13.75 13.5782 13.9942C13.334 14.2383 13.334 14.6308 13.334 15.4167V15.5867C13.5023 15.5425 13.6723 15.5117 13.839 15.4892C14.3757 15.4167 15.0382 15.4167 15.759 15.4167H15.909C16.6298 15.4167 17.2915 15.4167 17.829 15.4892C17.9957 15.5108 18.1657 15.5425 18.334 15.5867V15.4167C18.334 14.6308 18.334 14.2383 18.0898 13.9942Z" fill="#5063F4"/>
<path id="Vector_3" fill-rule="evenodd" clip-rule="evenodd" d="M11.668 27.7082C11.5022 27.7082 11.3432 27.774 11.226 27.8912C11.1088 28.0084 11.043 28.1674 11.043 28.3332C11.043 28.4989 11.1088 28.6579 11.226 28.7751C11.3432 28.8923 11.5022 28.9582 11.668 28.9582H28.3346C28.5004 28.9582 28.6594 28.8923 28.7766 28.7751C28.8938 28.6579 28.9596 28.4989 28.9596 28.3332C28.9596 28.1674 28.8938 28.0084 28.7766 27.8912C28.6594 27.774 28.5004 27.7082 28.3346 27.7082H27.5013V16.4765C27.5013 15.3598 27.5013 14.8007 27.2046 14.3723C26.908 13.944 26.3846 13.7473 25.338 13.3557C23.2921 12.5882 22.2696 12.2048 21.5521 12.7015C20.8346 13.1998 20.8346 14.2915 20.8346 16.4765V18.7498H20.9096C21.6305 18.7498 22.2921 18.7498 22.8296 18.8223C23.4221 18.9015 24.0488 19.089 24.563 19.604C25.0788 20.119 25.2663 20.7457 25.3463 21.3373C25.418 21.8757 25.418 22.5373 25.418 23.259V27.7082H24.168V23.3332C24.168 21.7615 24.168 20.9765 23.6796 20.4882C23.1913 19.9998 22.4063 19.9998 20.8346 19.9998H19.168C17.5963 19.9998 16.8113 19.9998 16.323 20.4882C15.8346 20.9765 15.8346 21.7615 15.8346 23.3332V27.7082H14.5846V23.2582C14.5846 22.5373 14.5846 21.8757 14.6571 21.3382C14.7363 20.7457 14.9238 20.119 15.4388 19.6048C15.9538 19.089 16.5805 18.9015 17.1721 18.8215C17.7105 18.7498 18.3721 18.7498 19.0938 18.7498H19.1538C19.1205 17.9698 19.0163 17.4915 18.6796 17.1548C18.1913 16.6665 17.4063 16.6665 15.8346 16.6665C14.263 16.6665 13.478 16.6665 12.9896 17.1548C12.5013 17.6432 12.5013 18.4282 12.5013 19.9998V27.7082H11.668ZM17.7096 22.4998C17.7096 22.3341 17.7755 22.1751 17.8927 22.0579C18.0099 21.9407 18.1689 21.8748 18.3346 21.8748H21.668C21.8337 21.8748 21.9927 21.9407 22.1099 22.0579C22.2271 22.1751 22.293 22.3341 22.293 22.4998C22.293 22.6656 22.2271 22.8245 22.1099 22.9418C21.9927 23.059 21.8337 23.1248 21.668 23.1248H18.3346C18.1689 23.1248 18.0099 23.059 17.8927 22.9418C17.7755 22.8245 17.7096 22.6656 17.7096 22.4998ZM17.7096 24.9998C17.7096 24.8341 17.7755 24.6751 17.8927 24.5579C18.0099 24.4407 18.1689 24.3748 18.3346 24.3748H21.668C21.8337 24.3748 21.9927 24.4407 22.1099 24.5579C22.2271 24.6751 22.293 24.8341 22.293 24.9998C22.293 25.1656 22.2271 25.3245 22.1099 25.4418C21.9927 25.559 21.8337 25.6248 21.668 25.6248H18.3346C18.1689 25.6248 18.0099 25.559 17.8927 25.4418C17.7755 25.3245 17.7096 25.1656 17.7096 24.9998Z" fill="#5063F4"/>
</g>
</g>
</svg>
