<svg width="40" height="40" viewBox="0 0 40 40" fill="none" xmlns="http://www.w3.org/2000/svg">
<path d="M5.58813 14.9174C6.67396 10.2883 10.2883 6.67395 14.9174 5.58813C18.2604 4.80396 21.7396 4.80396 25.0826 5.58813C29.7117 6.67395 33.3261 10.2884 34.4119 14.9174C35.196 18.2604 35.196 21.7396 34.4119 25.0826C33.3261 29.7117 29.7117 33.3261 25.0826 34.4119C21.7396 35.1961 18.2604 35.1961 14.9174 34.4119C10.2884 33.3261 6.67396 29.7117 5.58813 25.0826C4.80396 21.7396 4.80396 18.2604 5.58813 14.9174Z" fill="#EFF2FE" stroke="#5063F4" stroke-width="1.35"/>
<path opacity="0.3" d="M14.6665 17.3333V24.6666H19.3865C19.3532 24.4466 19.3332 24.2266 19.3332 23.9999C19.3332 21.4199 21.4198 19.3333 23.9998 19.3333C24.4665 19.3333 24.9132 19.3999 25.3332 19.5266V17.3333H14.6665Z" fill="#5063F4"/>
<path d="M14.6668 24.6666V17.3333H25.3335V19.5266C25.8135 19.6733 26.2668 19.8866 26.6668 20.1733V17.3333C26.6668 16.5933 26.0735 15.9999 25.3335 15.9999H22.6668V14.6666C22.6668 13.9266 22.0735 13.3333 21.3335 13.3333H18.6668C17.9268 13.3333 17.3335 13.9266 17.3335 14.6666V15.9999H14.6668C13.9268 15.9999 13.3402 16.5933 13.3402 17.3333L13.3335 24.6666C13.3335 25.4066 13.9268 25.9999 14.6668 25.9999H19.7868C19.5868 25.5866 19.4535 25.1399 19.3868 24.6666H14.6668ZM18.6668 14.6666H21.3335V15.9999H18.6668V14.6666Z" fill="#5063F4"/>
<path d="M23.9998 20.6667C22.1598 20.6667 20.6665 22.1601 20.6665 24.0001C20.6665 25.8401 22.1598 27.3334 23.9998 27.3334C25.8398 27.3334 27.3332 25.8401 27.3332 24.0001C27.3332 22.1601 25.8398 20.6667 23.9998 20.6667ZM25.0998 25.5667L23.6665 24.1334V22.0001H24.3332V23.8601L25.5665 25.0934L25.0998 25.5667Z" fill="#5063F4"/>
</svg>
