<svg width="450" height="300" viewBox="0 0 450 300" fill="none" xmlns="http://www.w3.org/2000/svg">
<path d="M149.508 77.784H73.5239V25.8H149.508V77.784ZM74.1239 77.184H148.908V26.4H74.1239V77.184Z" fill="#EBEBEB"/>
<path d="M79.4639 29.148C79.4639 29.447 79.3753 29.7394 79.2091 29.988C79.043 30.2367 78.8068 30.4305 78.5306 30.5449C78.2543 30.6593 77.9503 30.6893 77.657 30.6309C77.3637 30.5726 77.0943 30.4286 76.8828 30.2171C76.6713 30.0057 76.5273 29.7363 76.469 29.443C76.4107 29.1497 76.4406 28.8457 76.555 28.5694C76.6695 28.2931 76.8633 28.0569 77.1119 27.8908C77.3606 27.7247 77.6529 27.636 77.9519 27.636C78.3529 27.636 78.7375 27.7953 79.0211 28.0788C79.3046 28.3624 79.4639 28.747 79.4639 29.148Z" fill="#A6A6A6"/>
<path d="M85.6383 29.148C85.6383 29.447 85.5496 29.7394 85.3834 29.988C85.2173 30.2367 84.9812 30.4305 84.7049 30.5449C84.4286 30.6593 84.1246 30.6893 83.8313 30.6309C83.538 30.5726 83.2686 30.4286 83.0571 30.2171C82.8457 30.0057 82.7017 29.7363 82.6433 29.443C82.585 29.1497 82.6149 28.8457 82.7294 28.5694C82.8438 28.2931 83.0376 28.057 83.2862 27.8908C83.5349 27.7247 83.8272 27.636 84.1263 27.636C84.325 27.6352 84.522 27.6738 84.7058 27.7495C84.8896 27.8252 85.0566 27.9365 85.1972 28.0771C85.3377 28.2176 85.4491 28.3846 85.5248 28.5684C85.6005 28.7522 85.6391 28.9492 85.6383 29.148Z" fill="#EBEBEB"/>
<path d="M91.7999 29.148C91.7999 29.447 91.7112 29.7394 91.5451 29.988C91.3789 30.2367 91.1428 30.4305 90.8665 30.5449C90.5902 30.6593 90.2862 30.6893 89.9929 30.6309C89.6996 30.5726 89.4302 30.4286 89.2187 30.2171C89.0073 30.0057 88.8633 29.7363 88.8049 29.443C88.7466 29.1497 88.7765 28.8457 88.891 28.5694C89.0054 28.2931 89.1992 28.0569 89.4479 27.8908C89.6965 27.7247 89.9888 27.636 90.2879 27.636C90.6889 27.636 91.0735 27.7953 91.357 28.0788C91.6406 28.3624 91.7999 28.747 91.7999 29.148Z" fill="#5063F4"/>
<path d="M149.208 31.812H73.8242V32.412H149.208V31.812Z" fill="#EBEBEB"/>
<path d="M57.66 215.526H57.06V140.226L41.022 118.338V77.238H41.622V118.14L57.66 140.028V215.526Z" fill="#EBEBEB"/>
<path d="M41.3219 77.5619C40.9796 77.5631 40.6447 77.4626 40.3596 77.2732C40.0745 77.0838 39.8521 76.814 39.7206 76.498C39.589 76.182 39.5543 75.8341 39.6208 75.4983C39.6873 75.1626 39.852 74.8541 40.094 74.6121C40.336 74.37 40.6445 74.2054 40.9802 74.1389C41.316 74.0724 41.6639 74.1071 41.9799 74.2386C42.2959 74.3702 42.5657 74.5926 42.7552 74.8777C42.9446 75.1628 43.0451 75.4977 43.0439 75.8399C43.0423 76.2962 42.8604 76.7332 42.5378 77.0558C42.2152 77.3784 41.7781 77.5604 41.3219 77.5619ZM41.3219 74.7119C41.0985 74.7108 40.8799 74.7759 40.6936 74.8991C40.5073 75.0223 40.3618 75.1981 40.2755 75.4041C40.1892 75.6101 40.166 75.8371 40.2088 76.0563C40.2517 76.2755 40.3586 76.4771 40.5161 76.6354C40.6737 76.7938 40.8746 76.9018 41.0936 76.9458C41.3126 76.9898 41.5397 76.9678 41.7462 76.8826C41.9526 76.7974 42.1291 76.6529 42.2534 76.4672C42.3776 76.2816 42.4439 76.0633 42.4439 75.8399C42.4439 75.5418 42.3259 75.2558 42.1156 75.0444C41.9054 74.8331 41.62 74.7135 41.3219 74.7119Z" fill="#EBEBEB"/>
<path d="M53.5262 215.526H52.9262V142.872L36.8882 120.984V92.238H37.4882V120.786L53.5262 142.674V215.526Z" fill="#EBEBEB"/>
<path d="M37.2002 92.562C36.8584 92.562 36.5243 92.4606 36.2401 92.2707C35.956 92.0809 35.7345 91.811 35.6037 91.4952C35.4729 91.1795 35.4387 90.832 35.5054 90.4968C35.572 90.1616 35.7366 89.8537 35.9783 89.6121C36.22 89.3704 36.5279 89.2058 36.8631 89.1392C37.1983 89.0725 37.5457 89.1067 37.8614 89.2375C38.1772 89.3683 38.4471 89.5898 38.6369 89.8739C38.8268 90.1581 38.9282 90.4922 38.9282 90.834C38.9282 91.2923 38.7461 91.7318 38.422 92.0558C38.098 92.3799 37.6585 92.562 37.2002 92.562ZM37.2002 89.712C36.9768 89.712 36.7585 89.7783 36.5729 89.9025C36.3872 90.0267 36.2427 90.2032 36.1575 90.4097C36.0723 90.6161 36.0503 90.8433 36.0943 91.0622C36.1383 91.2812 36.2463 91.4822 36.4047 91.6397C36.5631 91.7972 36.7646 91.9042 36.9838 91.947C37.203 91.9899 37.43 91.9667 37.636 91.8804C37.842 91.7941 38.0178 91.6486 38.141 91.4623C38.2642 91.276 38.3294 91.0573 38.3282 90.834C38.3282 90.6861 38.299 90.5397 38.2422 90.4032C38.1854 90.2667 38.1022 90.1427 37.9974 90.0385C37.8926 89.9342 37.7682 89.8517 37.6314 89.7956C37.4946 89.7396 37.348 89.7112 37.2002 89.712Z" fill="#EBEBEB"/>
<path d="M61.6381 115.68H61.0381V215.526H61.6381V115.68Z" fill="#EBEBEB"/>
<path d="M61.3379 115.98C60.9958 115.98 60.6615 115.879 60.3772 115.689C60.0929 115.498 59.8714 115.228 59.7408 114.912C59.6102 114.596 59.5763 114.248 59.6435 113.913C59.7107 113.577 59.8758 113.27 60.1181 113.028C60.3604 112.787 60.6688 112.623 61.0044 112.557C61.34 112.491 61.6877 112.526 62.0033 112.657C62.3189 112.789 62.5884 113.012 62.7776 113.297C62.9667 113.581 63.067 113.916 63.0659 114.258C63.0643 114.715 62.8815 115.153 62.5576 115.476C62.2337 115.799 61.7951 115.98 61.3379 115.98ZM61.3379 113.13C61.1148 113.13 60.8967 113.196 60.7112 113.32C60.5257 113.444 60.3811 113.62 60.2957 113.827C60.2103 114.033 60.188 114.259 60.2315 114.478C60.2751 114.697 60.3825 114.898 60.5402 115.056C60.698 115.214 60.899 115.321 61.1178 115.364C61.3366 115.408 61.5634 115.386 61.7695 115.3C61.9756 115.215 62.1518 115.07 62.2758 114.885C62.3997 114.699 62.4659 114.481 62.4659 114.258C62.4659 113.959 62.347 113.672 62.1355 113.461C61.9239 113.249 61.637 113.13 61.3379 113.13Z" fill="#EBEBEB"/>
<path d="M65.4721 215.526H64.8721V164.706L64.9021 164.64L75.7561 144.168V107.424H76.3561V144.318L65.4721 164.856V215.526Z" fill="#EBEBEB"/>
<path d="M76.0561 107.724C75.7141 107.724 75.3798 107.623 75.0955 107.432C74.8112 107.242 74.5897 106.972 74.4591 106.656C74.3285 106.34 74.2946 105.992 74.3618 105.657C74.4289 105.321 74.5941 105.013 74.8364 104.772C75.0786 104.531 75.3871 104.367 75.7227 104.301C76.0583 104.235 76.4059 104.27 76.7216 104.401C77.0372 104.533 77.3067 104.755 77.4958 105.04C77.685 105.325 77.7853 105.66 77.7841 106.002C77.7825 106.459 77.5998 106.897 77.2759 107.22C76.952 107.543 76.5134 107.724 76.0561 107.724ZM76.0561 104.874C75.833 104.874 75.6149 104.94 75.4294 105.064C75.2439 105.188 75.0994 105.364 75.014 105.57C74.9286 105.777 74.9063 106.003 74.9498 106.222C74.9933 106.441 75.1007 106.642 75.2585 106.8C75.4163 106.957 75.6172 107.065 75.8361 107.108C76.0549 107.152 76.2817 107.13 76.4878 107.044C76.6939 106.959 76.8701 106.814 76.994 106.629C77.118 106.443 77.1841 106.225 77.1841 106.002C77.1841 105.703 77.0653 105.416 76.8537 105.204C76.6422 104.993 76.3553 104.874 76.0561 104.874Z" fill="#EBEBEB"/>
<path d="M69.2821 215.526H68.6821V166.896L68.7181 166.83L81.5161 144.192V120.024H82.1161V144.348L69.2821 167.058V215.526Z" fill="#EBEBEB"/>
<path d="M81.816 120.324C81.474 120.325 81.1393 120.225 80.8544 120.036C80.5694 119.847 80.347 119.577 80.2153 119.262C80.0836 118.946 80.0485 118.598 80.1145 118.263C80.1805 117.927 80.3446 117.619 80.586 117.376C80.8275 117.134 81.1353 116.969 81.4707 116.902C81.8061 116.835 82.1538 116.869 82.4699 116.999C82.786 117.13 83.0562 117.351 83.2464 117.636C83.4365 117.92 83.538 118.254 83.538 118.596C83.538 119.053 83.3568 119.492 83.034 119.816C82.7113 120.14 82.2733 120.323 81.816 120.324ZM81.816 117.474C81.5924 117.473 81.3735 117.538 81.1871 117.662C81.0007 117.785 80.8552 117.961 80.7691 118.168C80.6829 118.374 80.6601 118.601 80.7034 118.821C80.7468 119.04 80.8543 119.242 81.0124 119.4C81.1705 119.558 81.3721 119.665 81.5915 119.709C81.8108 119.752 82.0381 119.729 82.2445 119.643C82.4508 119.557 82.6269 119.412 82.7504 119.225C82.8739 119.039 82.9392 118.82 82.938 118.596C82.9365 118.299 82.8177 118.015 82.6077 117.805C82.3976 117.594 82.1131 117.476 81.816 117.474Z" fill="#EBEBEB"/>
<path d="M395.106 215.526H394.506V176.028L394.566 175.95L410.544 154.14V131.238H411.144V154.338L411.084 154.416L395.106 176.226V215.526Z" fill="#EBEBEB"/>
<path d="M410.844 131.562C410.502 131.562 410.168 131.46 409.884 131.27C409.599 131.08 409.378 130.81 409.247 130.494C409.117 130.178 409.083 129.83 409.15 129.495C409.217 129.159 409.382 128.851 409.624 128.61C409.867 128.369 410.175 128.204 410.511 128.138C410.846 128.072 411.194 128.108 411.51 128.239C411.825 128.371 412.095 128.593 412.284 128.878C412.473 129.163 412.573 129.498 412.572 129.84C412.571 130.297 412.388 130.735 412.064 131.058C411.74 131.381 411.301 131.562 410.844 131.562ZM410.844 128.712C410.621 128.712 410.403 128.778 410.218 128.902C410.032 129.026 409.887 129.202 409.802 129.408C409.717 129.614 409.694 129.841 409.738 130.06C409.781 130.279 409.889 130.48 410.047 130.638C410.204 130.795 410.405 130.903 410.624 130.946C410.843 130.99 411.07 130.967 411.276 130.882C411.482 130.797 411.658 130.652 411.782 130.467C411.906 130.281 411.972 130.063 411.972 129.84C411.972 129.541 411.853 129.254 411.642 129.042C411.43 128.831 411.143 128.712 410.844 128.712Z" fill="#EBEBEB"/>
<path d="M399.24 215.526H398.64V178.674L414.678 156.786V146.238H415.278V156.984L415.218 157.062L399.24 178.872V215.526Z" fill="#EBEBEB"/>
<path d="M414.978 146.562C414.636 146.563 414.301 146.463 414.016 146.274C413.732 146.085 413.509 145.815 413.377 145.499C413.246 145.184 413.211 144.836 413.277 144.501C413.343 144.165 413.507 143.856 413.748 143.614C413.99 143.372 414.297 143.207 414.633 143.14C414.968 143.072 415.316 143.106 415.632 143.237C415.948 143.368 416.218 143.589 416.408 143.873C416.599 144.158 416.7 144.492 416.7 144.834C416.7 145.291 416.519 145.73 416.196 146.054C415.873 146.378 415.435 146.56 414.978 146.562ZM414.978 143.712C414.755 143.711 414.536 143.776 414.349 143.9C414.163 144.023 414.017 144.199 413.931 144.406C413.845 144.612 413.822 144.839 413.866 145.059C413.909 145.278 414.016 145.479 414.175 145.638C414.333 145.796 414.534 145.903 414.754 145.947C414.973 145.99 415.2 145.967 415.407 145.881C415.613 145.795 415.789 145.649 415.913 145.463C416.036 145.276 416.101 145.058 416.1 144.834C416.099 144.537 415.98 144.252 415.77 144.042C415.56 143.832 415.275 143.714 414.978 143.712Z" fill="#EBEBEB"/>
<path d="M391.128 151.68H390.528V215.526H391.128V151.68Z" fill="#EBEBEB"/>
<path d="M390.828 151.98C390.485 151.981 390.151 151.881 389.865 151.691C389.58 151.502 389.358 151.232 389.226 150.916C389.095 150.6 389.06 150.252 389.127 149.917C389.193 149.581 389.358 149.272 389.6 149.03C389.842 148.788 390.15 148.624 390.486 148.557C390.822 148.491 391.17 148.525 391.486 148.657C391.802 148.788 392.072 149.011 392.261 149.296C392.45 149.581 392.551 149.916 392.55 150.258C392.548 150.714 392.366 151.151 392.044 151.474C391.721 151.797 391.284 151.979 390.828 151.98ZM390.828 149.13C390.604 149.129 390.386 149.194 390.199 149.317C390.013 149.441 389.868 149.616 389.781 149.822C389.695 150.028 389.672 150.255 389.715 150.475C389.758 150.694 389.864 150.895 390.022 151.054C390.18 151.212 390.38 151.32 390.599 151.364C390.818 151.408 391.046 151.386 391.252 151.301C391.458 151.216 391.635 151.071 391.759 150.885C391.883 150.7 391.95 150.482 391.95 150.258C391.95 149.96 391.832 149.674 391.621 149.463C391.411 149.251 391.126 149.132 390.828 149.13Z" fill="#EBEBEB"/>
<path d="M387.294 215.526H386.694V182.856L375.81 162.318V125.424H376.41V162.168L387.294 182.706V215.526Z" fill="#EBEBEB"/>
<path d="M376.104 125.724C375.762 125.724 375.428 125.623 375.143 125.432C374.859 125.242 374.638 124.972 374.507 124.656C374.376 124.34 374.342 123.992 374.41 123.657C374.477 123.321 374.642 123.013 374.884 122.772C375.126 122.531 375.435 122.367 375.771 122.301C376.106 122.235 376.454 122.27 376.769 122.401C377.085 122.533 377.355 122.755 377.544 123.04C377.733 123.325 377.833 123.66 377.832 124.002C377.83 124.459 377.648 124.897 377.324 125.22C377 125.543 376.561 125.724 376.104 125.724ZM376.104 122.874C375.881 122.874 375.663 122.94 375.477 123.064C375.292 123.188 375.147 123.364 375.062 123.57C374.976 123.777 374.954 124.003 374.998 124.222C375.041 124.441 375.149 124.642 375.306 124.8C375.464 124.957 375.665 125.065 375.884 125.108C376.103 125.152 376.33 125.13 376.536 125.044C376.742 124.959 376.918 124.814 377.042 124.629C377.166 124.443 377.232 124.225 377.232 124.002C377.232 123.703 377.113 123.416 376.902 123.204C376.69 122.993 376.403 122.874 376.104 122.874Z" fill="#EBEBEB"/>
<path d="M383.484 215.526H382.884V185.058L370.05 162.348V138.024H370.65V162.192L383.484 184.896V215.526Z" fill="#EBEBEB"/>
<path d="M370.35 138.324C370.008 138.325 369.674 138.225 369.389 138.036C369.104 137.847 368.881 137.577 368.749 137.262C368.618 136.946 368.583 136.598 368.649 136.263C368.715 135.927 368.879 135.619 369.12 135.376C369.362 135.134 369.67 134.969 370.005 134.902C370.34 134.835 370.688 134.869 371.004 134.999C371.32 135.13 371.59 135.351 371.781 135.636C371.971 135.92 372.072 136.254 372.072 136.596C372.072 137.053 371.891 137.492 371.568 137.816C371.245 138.14 370.807 138.323 370.35 138.324ZM370.35 135.474C370.127 135.473 369.908 135.538 369.721 135.662C369.535 135.785 369.389 135.961 369.303 136.168C369.217 136.374 369.194 136.601 369.238 136.821C369.281 137.04 369.388 137.242 369.547 137.4C369.705 137.558 369.906 137.665 370.126 137.709C370.345 137.752 370.572 137.729 370.779 137.643C370.985 137.557 371.161 137.412 371.285 137.225C371.408 137.039 371.473 136.82 371.472 136.596C371.471 136.299 371.352 136.015 371.142 135.805C370.932 135.594 370.647 135.476 370.35 135.474Z" fill="#EBEBEB"/>
<path d="M40.5 75.366C40.798 75.1836 41.1406 75.087 41.49 75.087C41.8394 75.087 42.182 75.1836 42.48 75.366L42.99 75.66L43.512 75.924C43.8304 76.067 44.1026 76.2961 44.2976 76.5855C44.4927 76.875 44.603 77.2132 44.616 77.562L44.694 79.998L52.632 79.752L52.56 77.316C52.5493 76.9655 52.6369 76.619 52.8129 76.3157C52.9889 76.0125 53.2464 75.7645 53.556 75.6C53.9026 75.4183 54.2391 75.218 54.564 75C54.8493 74.7987 55.1848 74.6804 55.5332 74.6581C55.8817 74.6359 56.2295 74.7106 56.538 74.874L58.68 76.02L62.436 69L60.288 67.854C59.9824 67.6857 59.7289 67.4366 59.5554 67.134C59.3818 66.8313 59.2949 66.4868 59.304 66.138C59.3137 65.7376 59.3016 65.3371 59.268 64.938C59.2287 64.5858 59.2901 64.2297 59.4452 63.9111C59.6003 63.5924 59.8426 63.3244 60.144 63.138L62.214 61.848L58.014 55.098L55.932 56.388C55.6352 56.5706 55.2935 56.6672 54.945 56.6672C54.5965 56.6672 54.2549 56.5706 53.958 56.388C53.79 56.286 53.622 56.19 53.448 56.1C53.274 56.01 53.106 55.92 52.926 55.836C52.6075 55.6915 52.3356 55.4611 52.1406 55.1707C51.9456 54.8804 51.8353 54.5415 51.822 54.192L51.744 51.75L43.8 52.038L43.878 54.474C43.8876 54.8235 43.7995 55.1687 43.6235 55.4708C43.4476 55.7729 43.1908 56.0199 42.882 56.184C42.534 56.376 42.198 56.586 41.874 56.784C41.5893 56.9862 41.2541 57.1056 40.9057 57.1289C40.5572 57.1522 40.2091 57.0785 39.9 56.916L37.8 55.8L34.02 62.79L36.162 63.942C36.4685 64.1077 36.7229 64.3554 36.8967 64.6574C37.0704 64.9594 37.1568 65.3037 37.146 65.652C37.146 66.052 37.158 66.452 37.182 66.852C37.2206 67.2041 37.1589 67.5599 37.0038 67.8784C36.8488 68.1969 36.6069 68.4651 36.306 68.652L34.242 69.93L38.442 76.68L40.5 75.366ZM42.486 62.826C43.0942 61.6912 44.0253 60.7623 45.1614 60.1567C46.2975 59.551 47.5877 59.2958 48.8689 59.4234C50.15 59.551 51.3646 60.0556 52.359 60.8734C53.3533 61.6912 54.0829 62.7855 54.4554 64.0179C54.8279 65.2503 54.8266 66.5655 54.4516 67.7972C54.0767 69.0289 53.345 70.1217 52.349 70.9375C51.353 71.7534 50.1374 72.2556 48.856 72.3806C47.5746 72.5056 46.2849 72.2479 45.15 71.64C43.6289 70.8235 42.4941 69.4367 41.9946 67.7841C41.4951 66.1316 41.6719 64.3484 42.486 62.826Z" fill="#EBEBEB"/>
<path d="M404.544 135.174C404.666 134.968 404.843 134.798 405.054 134.684C405.266 134.57 405.504 134.515 405.744 134.526C405.882 134.526 406.02 134.526 406.158 134.526C406.296 134.526 406.434 134.526 406.566 134.526C406.806 134.515 407.045 134.569 407.256 134.683C407.468 134.797 407.644 134.967 407.766 135.174L408.624 136.656L413.424 133.872L412.572 132.396C412.45 132.182 412.39 131.939 412.398 131.693C412.407 131.447 412.484 131.209 412.62 131.004C412.771 130.774 412.909 130.535 413.034 130.29C413.145 130.068 413.317 129.881 413.529 129.752C413.741 129.623 413.985 129.555 414.234 129.558H415.938V123.99H414.234C413.985 123.993 413.741 123.926 413.529 123.796C413.317 123.667 413.145 123.48 413.034 123.258C412.909 123.013 412.771 122.774 412.62 122.544C412.483 122.341 412.407 122.103 412.398 121.858C412.39 121.613 412.45 121.371 412.572 121.158L413.424 119.676L408.624 116.892L407.766 118.38C407.644 118.586 407.467 118.755 407.256 118.869C407.044 118.982 406.805 119.035 406.566 119.022H405.744C405.504 119.036 405.264 118.982 405.052 118.868C404.84 118.753 404.664 118.582 404.544 118.374L403.692 116.892L398.892 119.676L399.744 121.152C399.866 121.365 399.926 121.607 399.918 121.852C399.909 122.097 399.832 122.335 399.696 122.538C399.548 122.774 399.41 123.014 399.282 123.258C399.171 123.48 398.999 123.667 398.787 123.796C398.575 123.926 398.33 123.993 398.082 123.99H396.378V129.558H398.082C398.33 129.555 398.575 129.623 398.787 129.752C398.999 129.881 399.171 130.068 399.282 130.29C399.41 130.534 399.548 130.774 399.696 131.01C399.832 131.214 399.909 131.451 399.918 131.696C399.926 131.941 399.866 132.184 399.744 132.396L398.892 133.872L403.692 136.656L404.544 135.174ZM401.616 126.774C401.616 125.872 401.883 124.991 402.384 124.241C402.885 123.492 403.597 122.907 404.43 122.562C405.262 122.216 406.179 122.126 407.063 122.301C407.948 122.477 408.76 122.91 409.398 123.548C410.036 124.185 410.471 124.997 410.648 125.881C410.824 126.765 410.735 127.682 410.391 128.515C410.046 129.348 409.463 130.061 408.714 130.563C407.965 131.064 407.084 131.333 406.182 131.334C404.972 131.334 403.812 130.854 402.955 129.999C402.099 129.144 401.618 127.984 401.616 126.774Z" fill="#EBEBEB"/>
<path d="M64.4279 82.3861C64.6387 82.5116 64.8108 82.6928 64.9251 82.9099C65.0395 83.1269 65.0917 83.3713 65.0759 83.6161C65.0759 83.7541 65.0759 83.8921 65.0759 84.0241C65.0759 84.1561 65.0759 84.3001 65.0759 84.4381C65.088 84.6776 65.0346 84.9158 64.9215 85.1272C64.8084 85.3386 64.6398 85.5153 64.4339 85.6381L62.9519 86.4901L65.7299 91.2901L67.2119 90.4381C67.4245 90.3161 67.6669 90.2559 67.9118 90.2644C68.1567 90.2729 68.3944 90.3497 68.5979 90.4861C68.8299 90.6381 69.0699 90.7761 69.3179 90.9001C69.5402 91.0114 69.7266 91.183 69.856 91.3951C69.9855 91.6073 70.0526 91.8516 70.0499 92.1001V93.8041H75.5999V92.1001C75.5972 91.8516 75.6644 91.6073 75.7938 91.3951C75.9233 91.183 76.1097 91.0114 76.3319 90.9001C76.5799 90.7721 76.8199 90.6341 77.0519 90.4861C77.2555 90.3497 77.4932 90.2729 77.7381 90.2644C77.983 90.2559 78.2254 90.3161 78.4379 90.4381L79.9199 91.2901L82.6979 86.4901L81.2159 85.6321C81.0085 85.5105 80.8383 85.3344 80.7241 85.1228C80.6098 84.9112 80.5558 84.6723 80.5679 84.4321C80.5679 84.2941 80.5679 84.1561 80.5679 84.0181C80.5679 83.8801 80.5679 83.7481 80.5679 83.6101C80.5529 83.3654 80.6054 83.1213 80.7197 82.9043C80.8339 82.6874 81.0056 82.5061 81.2159 82.3801L82.6979 81.5281L79.9199 76.7281L78.4439 77.5801C78.2314 77.7022 77.989 77.7623 77.7441 77.7539C77.4992 77.7454 77.2615 77.6686 77.0579 77.5321C76.8235 77.3812 76.5812 77.243 76.3319 77.1181C76.1097 77.0068 75.9233 76.8353 75.7938 76.6231C75.6644 76.4109 75.5972 76.1666 75.5999 75.9181V74.2141H70.0379V75.9181C70.0406 76.1666 69.9735 76.4109 69.844 76.6231C69.7146 76.8353 69.5282 77.0068 69.3059 77.1181C69.0567 77.243 68.8144 77.3812 68.5799 77.5321C68.3764 77.6686 68.1387 77.7454 67.8938 77.7539C67.6489 77.7623 67.4065 77.7022 67.1939 77.5801L65.7179 76.7281L62.9399 81.5281L64.4279 82.3861ZM72.8279 79.4641C73.7301 79.4629 74.6123 79.7294 75.363 80.2297C76.1137 80.73 76.6991 81.4418 77.0451 82.2749C77.3912 83.108 77.4823 84.0251 77.3071 84.91C77.1318 85.795 76.698 86.6081 76.0605 87.2464C75.423 87.8847 74.6105 88.3196 73.7258 88.496C72.841 88.6725 71.9239 88.5825 71.0903 88.2376C70.2567 87.8926 69.5442 87.3081 69.0429 86.5581C68.5415 85.8081 68.2739 84.9262 68.2739 84.0241C68.2739 82.8158 68.7535 81.6568 69.6074 80.8018C70.4613 79.9468 71.6196 79.4657 72.8279 79.4641Z" fill="#EBEBEB"/>
<path d="M84.1201 149.226C81.8401 146.994 78.8941 144.294 75.4081 145.254C72.1321 146.16 70.8781 149.742 70.2901 152.718C69.5341 156.564 68.9461 160.446 68.3341 164.31C67.7221 168.174 67.1341 172.11 66.5761 176.046C66.2601 178.254 65.9481 180.454 65.6401 182.646C65.4841 183.75 65.3281 184.86 65.1781 185.964C65.0281 187.068 64.8421 188.13 64.7881 189.222C64.7881 189.57 65.3161 189.624 65.3881 189.288C65.8141 187.446 65.9881 185.532 66.2581 183.66C66.5281 181.788 66.8041 179.898 67.0741 178.014C67.6201 174.276 68.1901 170.544 68.7481 166.812C69.3061 163.08 69.8941 159.342 70.4941 155.61C70.9981 152.448 71.2381 148.512 74.0401 146.43C74.8001 145.906 75.6818 145.586 76.6009 145.5C77.5201 145.414 78.4459 145.564 79.2901 145.938C81.1321 146.64 82.6081 147.96 84.0541 149.268C84.0612 149.271 84.0689 149.272 84.0765 149.271C84.0841 149.271 84.0915 149.268 84.0979 149.264C84.1044 149.26 84.1098 149.254 84.1136 149.248C84.1175 149.241 84.1197 149.234 84.1201 149.226Z" fill="#263238"/>
<path d="M81.0001 146.94C81.0001 146.94 76.3381 145.266 74.0401 148.668C71.7421 152.07 74.4901 160.71 95.7001 165.594C95.0819 158.955 93.3581 152.465 90.6001 146.394C86.0521 136.5 77.9461 140.256 81.0001 146.94Z" fill="#44E0AA"/>
<path d="M94.4822 164.178C94.1619 163.583 93.8052 163.007 93.4142 162.456C93.0602 161.91 92.7002 161.364 92.3402 160.824C92.0702 160.416 91.7882 160.014 91.5122 159.624C91.5122 159.528 91.5122 159.426 91.5482 159.324L91.6202 158.772C91.6742 158.376 91.7342 157.98 91.7882 157.572C91.8422 157.164 91.9142 156.78 91.9922 156.372C92.0414 155.948 92.1339 155.529 92.2682 155.124C92.2682 155.064 92.1842 155.034 92.1782 155.124C92.1318 155.362 92.0676 155.597 91.9862 155.826L91.8422 156.36C91.7402 156.762 91.6442 157.17 91.5542 157.56C91.4642 157.95 91.3982 158.31 91.3322 158.688C91.3022 158.868 91.2782 159.048 91.2542 159.228C90.8762 158.694 90.4862 158.16 90.0902 157.632C88.9622 156.15 87.7742 154.722 86.5382 153.33C86.5415 153.316 86.5415 153.302 86.5382 153.288C86.6522 151.062 86.5982 148.854 87.0902 146.688C87.0902 146.628 87.0182 146.592 87.0002 146.652C86.4465 148.721 86.1859 150.858 86.2262 153C85.7882 152.508 85.3382 152.016 84.8882 151.53C83.8562 150.422 82.8022 149.33 81.7262 148.254C81.6842 148.212 81.6122 148.254 81.6542 148.32C83.4542 150.246 85.1402 152.25 86.7962 154.32C85.5005 154.299 84.2047 154.347 82.9142 154.464C81.4802 154.572 80.0522 154.752 78.6242 154.95C78.6114 154.95 78.5992 154.955 78.5902 154.964C78.5812 154.973 78.5762 154.985 78.5762 154.998C78.5762 155.011 78.5812 155.023 78.5902 155.032C78.5992 155.041 78.6114 155.046 78.6242 155.046C80.0441 154.84 81.4742 154.712 82.9082 154.662C84.2942 154.602 85.6682 154.662 87.0542 154.662C87.9482 155.772 88.8542 156.882 89.7002 158.01H88.5302C87.8822 158.01 87.2402 158.07 86.5982 158.124C85.2799 158.233 83.9708 158.434 82.6802 158.724C82.671 158.727 82.6631 158.733 82.6575 158.742C82.6519 158.75 82.6489 158.759 82.6489 158.769C82.6489 158.779 82.6519 158.788 82.6575 158.796C82.6631 158.804 82.671 158.811 82.6802 158.814C83.9822 158.67 85.2902 158.544 86.5982 158.502C87.2282 158.502 87.8522 158.502 88.4762 158.502H89.4542C89.6334 158.529 89.8167 158.513 89.9882 158.454C90.5882 159.198 91.1282 159.936 91.6922 160.68C92.1422 161.28 92.5862 161.88 93.0242 162.48C93.4622 163.08 93.8762 163.77 94.3682 164.346C94.3904 164.361 94.4178 164.367 94.4443 164.362C94.4707 164.357 94.494 164.341 94.5092 164.319C94.5243 164.297 94.5299 164.269 94.5249 164.243C94.5198 164.216 94.5044 164.193 94.4822 164.178Z" fill="#263238"/>
<path d="M83.028 151.758C82.276 151.662 81.5177 151.626 80.76 151.65C80.004 151.65 79.242 151.65 78.486 151.698C78.4733 151.698 78.4611 151.703 78.4521 151.712C78.443 151.721 78.438 151.733 78.438 151.746C78.438 151.759 78.443 151.771 78.4521 151.78C78.4611 151.789 78.4733 151.794 78.486 151.794C79.254 151.74 80.022 151.722 80.79 151.734C81.558 151.746 82.278 151.818 83.016 151.8L83.028 151.758Z" fill="#263238"/>
<path d="M89.6879 153.468C89.7719 152.748 89.8619 152.016 90.0179 151.302C90.0179 151.289 90.0129 151.277 90.0039 151.268C89.9949 151.259 89.9827 151.254 89.9699 151.254C89.9572 151.254 89.945 151.259 89.936 151.268C89.927 151.277 89.9219 151.289 89.9219 151.302C89.8139 152.016 89.6759 152.724 89.5739 153.438C89.5199 153.792 89.4719 154.152 89.4239 154.512C89.363 154.844 89.3349 155.182 89.3399 155.52C89.3441 155.533 89.3525 155.545 89.3638 155.553C89.3752 155.562 89.3889 155.566 89.4029 155.566C89.417 155.566 89.4307 155.562 89.442 155.553C89.4534 155.545 89.4617 155.533 89.4659 155.52C89.5289 155.187 89.565 154.85 89.5739 154.512C89.6039 154.158 89.6459 153.816 89.6879 153.468Z" fill="#263238"/>
<path d="M88.2902 145.446C88.1042 146.148 87.9182 146.862 87.7922 147.582C87.7262 147.942 87.6662 148.308 87.6182 148.674C87.5525 149.028 87.5284 149.388 87.5462 149.748C87.5462 149.756 87.5494 149.764 87.555 149.769C87.5606 149.775 87.5683 149.778 87.5762 149.778C87.5842 149.778 87.5918 149.775 87.5974 149.769C87.6031 149.764 87.6062 149.756 87.6062 149.748C87.6903 149.411 87.7445 149.068 87.7682 148.722C87.8162 148.374 87.8702 148.02 87.9302 147.672C88.0622 146.928 88.1942 146.196 88.3802 145.47C88.3804 145.459 88.377 145.449 88.3705 145.44C88.3641 145.432 88.3549 145.426 88.3446 145.423C88.3343 145.42 88.3233 145.421 88.3134 145.425C88.3036 145.429 88.2954 145.437 88.2902 145.446Z" fill="#263238"/>
<path d="M60.6718 188.466C60.5518 187.128 60.4198 185.796 60.2818 184.458C60.0058 181.818 59.6818 179.184 59.3278 176.55C58.9738 173.916 58.6378 171.294 58.2118 168.678C58.058 167.455 57.7867 166.249 57.4018 165.078C57.2647 164.579 57.0149 164.119 56.6716 163.732C56.3283 163.345 55.9007 163.042 55.4218 162.846C52.9258 161.982 51.2218 164.568 50.2378 166.404C50.2378 166.458 50.2858 166.494 50.3218 166.446C50.9218 165.582 52.5898 163.146 54.4858 163.26C55.7578 163.338 56.7778 164.238 57.3898 167.412C58.9138 175.326 60.2878 191.412 60.4438 192.438C60.5338 192.996 60.9238 192.972 60.9298 192.378C60.9358 191.088 60.7858 189.774 60.6718 188.466Z" fill="#263238"/>
<path d="M50.91 165.438C50.91 165.438 53.094 157.74 48.27 161.592C40.242 168 39.96 181.944 39.96 181.944C39.96 181.944 54.228 173.658 55.998 168.192C58.644 160.05 50.91 165.438 50.91 165.438Z" fill="#44E0AA"/>
<path d="M53.6099 169.2C52.4939 169.422 51.3539 169.572 50.2259 169.734L48.6179 169.962C48.2579 170.01 47.8919 170.046 47.5259 170.088C48.5879 168.624 49.6619 167.166 50.6819 165.672C50.7179 165.618 50.6339 165.558 50.5859 165.606C49.7352 166.476 48.934 167.394 48.1859 168.354C47.9759 167.754 47.7599 167.154 47.5499 166.554C47.3399 165.954 47.0459 165.18 46.8719 164.472C46.8685 164.463 46.8624 164.455 46.8543 164.449C46.8463 164.444 46.8367 164.441 46.8269 164.441C46.8171 164.441 46.8076 164.444 46.7995 164.449C46.7915 164.455 46.7853 164.463 46.7819 164.472C46.9739 165.18 47.1119 165.9 47.3039 166.608C47.4959 167.316 47.6939 167.964 47.9039 168.63C47.3819 169.308 46.8779 170.004 46.3919 170.706C46.1459 170.01 45.8399 169.338 45.6299 168.63C45.6259 168.617 45.6171 168.607 45.6053 168.6C45.5934 168.594 45.5797 168.593 45.5669 168.597C45.5542 168.601 45.5436 168.61 45.5374 168.622C45.5312 168.633 45.5299 168.647 45.5339 168.66C45.7919 169.44 45.9299 170.25 46.1699 171.06C45.8399 171.54 45.5159 172.02 45.2039 172.5C44.6039 173.394 44.0819 174.3 43.5539 175.212C43.5125 175.23 43.478 175.26 43.4553 175.299C43.4326 175.338 43.423 175.383 43.4279 175.428C42.5279 176.988 41.6699 178.572 40.8239 180.168C40.8195 180.174 40.8163 180.18 40.8147 180.187C40.8131 180.194 40.8131 180.201 40.8146 180.208C40.8161 180.215 40.8192 180.222 40.8236 180.227C40.828 180.233 40.8336 180.238 40.84 180.241C40.8464 180.244 40.8534 180.246 40.8606 180.246C40.8677 180.246 40.8748 180.245 40.8813 180.242C40.8878 180.239 40.8936 180.234 40.8982 180.229C40.9028 180.223 40.9061 180.217 40.9079 180.21C41.7539 178.638 42.7079 177.102 43.6739 175.59C43.8268 175.546 43.9835 175.516 44.1419 175.5L44.6339 175.392C44.9999 175.314 45.3659 175.218 45.7319 175.128C46.4579 174.948 47.1719 174.78 47.9099 174.648C47.9699 174.648 47.9099 174.546 47.9099 174.558C47.0459 174.72 46.1819 174.822 45.3059 174.924C44.8919 174.972 44.4839 175.02 44.1059 175.086H44.0459C44.5579 174.286 45.0779 173.512 45.6059 172.764C46.1219 172.014 46.6559 171.27 47.1899 170.532C47.6879 170.46 48.1739 170.334 48.6659 170.238L50.3219 169.914C51.4259 169.698 52.5299 169.452 53.6399 169.266C53.6999 169.302 53.6699 169.2 53.6099 169.2Z" fill="#263238"/>
<path d="M45.0358 169.98C44.9698 169.776 44.9098 169.572 44.8438 169.38C44.7099 168.956 44.5998 168.526 44.5138 168.09C44.5138 168.03 44.4118 168.054 44.4238 168.09C44.5198 168.528 44.6218 168.96 44.7178 169.392C44.8088 169.829 44.9332 170.258 45.0898 170.676C45.1 170.694 45.1161 170.708 45.1354 170.716C45.1548 170.723 45.1762 170.724 45.1959 170.718C45.2157 170.711 45.2327 170.698 45.244 170.681C45.2553 170.663 45.2602 170.643 45.2578 170.622C45.1918 170.4 45.1078 170.202 45.0358 169.98Z" fill="#263238"/>
<path d="M55.068 167.436C54.42 167.538 53.766 167.58 53.106 167.64C52.446 167.7 51.804 167.79 51.15 167.886C51.114 167.886 51.114 167.946 51.15 167.946C51.804 167.898 52.458 167.85 53.112 167.76C53.766 167.67 54.414 167.58 55.074 167.532C55.134 167.532 55.128 167.43 55.068 167.436Z" fill="#263238"/>
<path d="M71.1722 178.71C70.9142 173.04 70.5722 167.382 69.9722 161.73C69.6902 158.916 69.3722 156.108 68.9762 153.33C68.627 150.579 68.0836 147.856 67.3502 145.182C66.8502 143.1 65.9271 141.143 64.6382 139.434C64.0046 138.599 63.1681 137.941 62.2083 137.521C61.2484 137.101 60.1971 136.933 59.1542 137.034C56.6762 137.34 54.6722 138.9 52.9442 140.604C51.0062 142.506 49.2302 144.588 47.4362 146.604C46.9802 147.12 46.5302 147.636 46.0802 148.158C46.0442 148.206 46.1102 148.272 46.1522 148.224C47.9102 146.208 49.7522 144.246 51.6422 142.374C53.4062 140.64 55.2422 138.774 57.6422 138.036C58.7775 137.67 59.9946 137.64 61.1462 137.952C62.0637 138.239 62.8907 138.76 63.5462 139.464C64.9262 140.898 65.6942 142.836 66.2462 144.708C67.7702 149.922 68.3162 155.388 68.8802 160.77C69.4802 166.242 69.8462 171.726 70.1222 177.216C70.3982 182.706 70.6142 188.268 71.1482 193.77C71.2142 194.448 71.2982 195.126 71.3882 195.804C71.4422 196.26 72.1502 196.26 72.1142 195.804C71.6882 190.104 71.4002 184.41 71.1722 178.71Z" fill="#263238"/>
<path d="M52.644 141.198C52.644 141.198 55.884 135.198 52.044 133.284C48.204 131.37 35.4 145.656 31.686 166.56C31.686 166.56 52.368 157.404 59.394 148.29C66.42 139.176 58.452 137.16 52.644 141.198Z" fill="#44E0AA"/>
<path d="M55.6862 146.07C53.3642 146.07 51.0422 145.896 48.7202 145.914C49.1522 145.41 49.5902 144.912 50.0282 144.414C50.6742 143.751 51.2755 143.045 51.8282 142.302C51.8282 142.254 51.7922 142.188 51.7442 142.224C51.1197 142.771 50.538 143.365 50.0042 144C49.4042 144.6 48.8402 145.242 48.2642 145.866C47.3762 146.826 46.5062 147.804 45.6362 148.782C45.6362 148.686 45.6362 148.59 45.6362 148.5C45.6362 148.092 45.6362 147.684 45.6362 147.3C45.6362 146.514 45.6362 145.728 45.6362 144.936C45.6362 143.34 45.6362 141.732 45.7562 140.136C45.7562 140.076 45.6662 140.076 45.6602 140.136C45.5522 141.738 45.3842 143.334 45.3062 144.936C45.2702 145.722 45.2522 146.508 45.2402 147.3C45.2402 147.708 45.2402 148.116 45.2402 148.5C45.2402 148.716 45.2402 148.956 45.2402 149.184C45.1082 149.334 44.9642 149.484 44.8322 149.64C42.9782 151.758 41.2322 153.948 39.4922 156.18C39.4922 156.06 39.4922 155.934 39.4922 155.814C39.4922 155.568 39.4382 155.322 39.4142 155.076C39.3542 154.542 39.2822 154.008 39.1982 153.48C39.1142 152.952 39.0482 152.484 38.9642 151.986C38.8802 151.488 38.7302 150.858 38.6882 150.294C38.6909 150.287 38.6918 150.279 38.6908 150.271C38.6898 150.264 38.687 150.256 38.6826 150.25C38.6782 150.244 38.6723 150.238 38.6654 150.235C38.6585 150.231 38.6509 150.229 38.6432 150.229C38.6354 150.229 38.6278 150.231 38.6209 150.235C38.6141 150.238 38.6082 150.244 38.6038 150.25C38.5993 150.256 38.5965 150.264 38.5956 150.271C38.5946 150.279 38.5955 150.287 38.5982 150.294C38.6921 150.856 38.7562 151.423 38.7902 151.992L38.9342 153.528C38.9762 154.044 39.0242 154.554 39.0782 155.064L39.1502 155.802C39.1502 155.928 39.1802 156.048 39.1922 156.174C39.2036 156.277 39.2385 156.375 39.2942 156.462C39.0002 156.846 38.6942 157.23 38.4122 157.62C37.2122 159.168 36.0842 160.74 34.9322 162.306C34.8962 162.354 34.9682 162.426 35.0042 162.372C36.0962 160.95 37.2182 159.558 38.3522 158.172C39.2042 158.208 40.0742 158.172 40.9262 158.13C41.7782 158.088 42.7262 158.13 43.6142 158.13C43.6742 158.13 43.6742 158.028 43.6142 158.034L40.9202 158.064C40.1042 158.064 39.2702 158.028 38.4542 158.064C39.4502 156.864 40.4642 155.664 41.4542 154.464C41.8202 154.02 42.1922 153.582 42.5642 153.144C42.908 153.192 43.2559 153.204 43.6022 153.18H44.8022L47.0942 153.144C48.6722 153.144 50.2502 153.066 51.8282 153.066C51.8409 153.066 51.8531 153.061 51.8621 153.052C51.8711 153.043 51.8762 153.031 51.8762 153.018C51.8762 153.005 51.8711 152.993 51.8621 152.984C51.8531 152.975 51.8409 152.97 51.8282 152.97C50.2442 152.97 48.6662 152.88 47.0882 152.844C46.3202 152.844 45.5582 152.796 44.7902 152.784H43.5902C43.3622 152.784 43.1222 152.784 42.8822 152.784L45.4922 149.7C45.514 149.686 45.5308 149.665 45.5402 149.64C46.3862 148.644 47.2322 147.642 48.0902 146.64C48.2102 146.502 48.3302 146.37 48.4442 146.232C50.8442 146.31 53.2442 146.148 55.6442 146.196C55.7522 146.166 55.7522 146.07 55.6862 146.07Z" fill="#263238"/>
<path d="M54.4981 150.18H53.9341C53.9286 150.18 53.9231 150.181 53.918 150.183C53.9129 150.185 53.9083 150.188 53.9044 150.192C53.9005 150.196 53.8974 150.201 53.8953 150.206C53.8932 150.211 53.8921 150.216 53.8921 150.222C53.8921 150.227 53.8932 150.233 53.8953 150.238C53.8974 150.243 53.9005 150.248 53.9044 150.252C53.9083 150.256 53.9129 150.259 53.918 150.261C53.9231 150.263 53.9286 150.264 53.9341 150.264H54.4921C54.4999 150.26 54.5066 150.255 54.5115 150.248C54.5165 150.241 54.5194 150.232 54.52 150.224C54.5206 150.215 54.5189 150.207 54.515 150.199C54.5112 150.191 54.5053 150.185 54.4981 150.18Z" fill="#263238"/>
<path d="M53.2438 150.186C52.4998 150.186 51.7558 150.186 51.0118 150.144L49.8958 150.108C49.5513 150.063 49.2023 150.063 48.8578 150.108C48.8218 150.108 48.8278 150.168 48.8578 150.174C49.2012 150.243 49.5522 150.267 49.9018 150.246H51.0178C51.7618 150.246 52.5058 150.246 53.2498 150.246C53.3098 150.282 53.3098 150.192 53.2438 150.186Z" fill="#263238"/>
<path d="M46.746 157.2C45.2324 156.948 43.7021 156.81 42.168 156.786C42.168 156.786 42.168 156.816 42.168 156.822C43.692 156.966 45.21 157.044 46.722 157.29C46.8 157.272 46.8 157.2 46.746 157.2Z" fill="#263238"/>
<path d="M40.5239 150.516C40.5239 150.384 40.4939 150.246 40.4759 150.114C40.4399 149.814 40.3919 149.514 40.3439 149.22C40.2539 148.65 40.1579 148.086 40.0499 147.522C40.0499 147.468 39.9479 147.48 39.9539 147.522C40.0259 148.122 40.0919 148.722 40.1459 149.28L40.2179 150.144C40.2098 150.42 40.2484 150.696 40.3319 150.96C40.3438 150.978 40.3607 150.992 40.3804 151.001C40.4002 151.01 40.422 151.013 40.4434 151.01C40.4648 151.006 40.4848 150.997 40.5012 150.983C40.5176 150.969 40.5296 150.951 40.5359 150.93C40.5573 150.792 40.5533 150.652 40.5239 150.516Z" fill="#263238"/>
<path d="M70.9678 133.5C70.2238 132.12 69.2818 130.302 67.4338 130.416C65.9098 130.512 65.2198 132.072 64.8958 133.356C63.8878 137.34 63.8158 141.534 63.6238 145.614C63.2038 154.236 62.8318 162.87 62.7778 171.498C62.7778 173.898 62.7778 176.298 62.7778 178.698C62.7778 181.134 62.7778 183.594 62.9458 186.03C62.9458 186.078 62.9648 186.124 62.9986 186.157C63.0323 186.191 63.0781 186.21 63.1258 186.21C63.1736 186.21 63.2194 186.191 63.2531 186.157C63.2869 186.124 63.3058 186.078 63.3058 186.03C63.3058 183.942 63.2458 181.83 63.2398 179.766C63.2338 177.702 63.2398 175.692 63.2758 173.658C63.3438 169.53 63.4538 165.404 63.6058 161.28C63.7618 157.182 63.9418 153.084 64.1158 148.986C64.1998 146.938 64.2878 144.89 64.3798 142.842C64.4698 140.862 64.5538 138.876 64.7818 136.902C64.9078 135.798 65.0698 134.688 65.3038 133.602C65.42 132.792 65.7492 132.028 66.2578 131.388C66.6108 131.041 67.0758 130.831 67.5695 130.796C68.0632 130.761 68.5533 130.903 68.9518 131.196C69.7977 131.805 70.4598 132.636 70.8658 133.596C70.9138 133.608 70.9978 133.554 70.9678 133.5Z" fill="#263238"/>
<path d="M70.4639 132.84C70.4639 132.84 68.9459 127.476 72.3059 130.158C77.8979 134.628 78.0959 144.342 78.0959 144.342C78.0959 144.342 68.1539 138.564 66.9179 134.742C65.0759 129.084 70.4639 132.84 70.4639 132.84Z" fill="#44E0AA"/>
<path d="M76.0022 140.358C75.9122 140.208 75.8162 140.064 75.7202 139.92C75.7321 139.766 75.7321 139.612 75.7202 139.458C75.7202 139.23 75.7202 138.996 75.7202 138.768C75.7202 138.312 75.7202 137.862 75.7682 137.406C75.7682 137.346 75.6722 137.352 75.6722 137.406C75.6482 137.85 75.6302 138.294 75.6182 138.738C75.6182 138.96 75.6182 139.182 75.6182 139.404C75.6182 139.494 75.6182 139.59 75.6182 139.692C75.2282 139.092 74.8262 138.492 74.4182 137.892C74.2982 137.718 74.1722 137.556 74.0522 137.382C73.9982 136.799 73.9982 136.213 74.0522 135.63C74.0522 135.03 74.0522 134.388 74.0882 133.764C74.0882 133.751 74.0832 133.739 74.0742 133.73C74.0652 133.721 74.053 133.716 74.0402 133.716C74.0275 133.716 74.0153 133.721 74.0063 133.73C73.9973 133.739 73.9922 133.751 73.9922 133.764C73.9922 134.412 73.9442 135.06 73.9082 135.708C73.8693 136.169 73.8573 136.632 73.8722 137.094C72.9122 135.792 71.8922 134.532 70.8722 133.284C70.8722 133.242 70.7642 133.284 70.8002 133.344C71.4362 134.148 72.0482 134.976 72.6482 135.816C71.4482 135.546 70.2902 135.384 69.1022 135.216C69.0422 135.216 69.0182 135.3 69.1022 135.306C70.3622 135.498 71.5982 135.816 72.8402 136.086C73.3142 136.752 73.7882 137.43 74.2502 138.102C74.4422 138.378 74.6282 138.66 74.8142 138.936H74.7662C74.6342 138.936 74.5082 138.894 74.3762 138.882C74.1002 138.846 73.8242 138.828 73.5482 138.804C72.9482 138.756 72.4022 138.726 71.8262 138.696C71.7662 138.696 71.7722 138.792 71.8262 138.792C72.3902 138.792 72.9542 138.852 73.5122 138.912C73.8122 138.942 74.1122 138.984 74.4062 139.02L74.7902 139.062H74.9042C75.2222 139.53 75.5462 139.998 75.8582 140.472C76.4222 141.3 76.9262 142.188 77.5202 142.992C77.5279 142.999 77.5376 143.003 77.5478 143.004C77.558 143.004 77.5681 143.002 77.5768 142.997C77.5855 142.991 77.5923 142.983 77.5962 142.974C77.6 142.964 77.6007 142.954 77.5982 142.944C77.12 142.05 76.587 141.186 76.0022 140.358Z" fill="#263238"/>
<path d="M73.53 134.298C73.53 134.088 73.53 133.878 73.53 133.668C73.5181 133.229 73.5362 132.79 73.584 132.354C73.5867 132.347 73.5876 132.339 73.5866 132.331C73.5856 132.324 73.5828 132.316 73.5784 132.31C73.574 132.304 73.5681 132.298 73.5612 132.295C73.5543 132.291 73.5467 132.289 73.539 132.289C73.5312 132.289 73.5236 132.291 73.5167 132.295C73.5099 132.298 73.504 132.304 73.4996 132.31C73.4951 132.316 73.4923 132.324 73.4913 132.331C73.4904 132.339 73.4913 132.347 73.494 132.354C73.494 132.786 73.446 133.218 73.422 133.656C73.422 133.872 73.422 134.088 73.422 134.304V134.604C73.4069 134.707 73.4069 134.813 73.422 134.916C73.422 134.927 73.4264 134.938 73.4343 134.946C73.4421 134.954 73.4528 134.958 73.464 134.958C73.4751 134.958 73.4858 134.954 73.4937 134.946C73.5015 134.938 73.506 134.927 73.506 134.916C73.521 134.821 73.521 134.723 73.506 134.628L73.53 134.298Z" fill="#263238"/>
<path d="M72.3003 136.518C71.9283 136.458 71.5503 136.434 71.1783 136.404C70.8063 136.374 70.3623 136.332 69.9783 136.284C69.971 136.281 69.9632 136.28 69.9555 136.281C69.9479 136.282 69.9405 136.285 69.9342 136.29C69.9278 136.294 69.9226 136.3 69.919 136.307C69.9154 136.314 69.9136 136.321 69.9136 136.329C69.9136 136.337 69.9154 136.344 69.919 136.351C69.9226 136.358 69.9278 136.364 69.9342 136.368C69.9405 136.373 69.9479 136.376 69.9555 136.377C69.9632 136.378 69.971 136.377 69.9783 136.374C70.7643 136.428 71.5443 136.566 72.3303 136.596C72.3363 136.596 72.3423 136.524 72.3003 136.518Z" fill="#263238"/>
<path d="M71.1961 162.126C69.1081 160.56 67.2301 158.304 64.4161 158.196C62.0941 158.1 60.4681 159.852 59.5381 161.796C59.073 162.831 58.6937 163.903 58.404 165C57.984 166.468 57.584 167.944 57.204 169.428C56.478 172.338 55.8541 175.284 55.3441 178.242C55.0621 179.892 54.7981 181.554 54.5881 183.216C54.3243 184.901 54.162 186.6 54.1021 188.304C54.1025 188.369 54.127 188.431 54.1706 188.48C54.2143 188.528 54.2742 188.558 54.3389 188.565C54.4035 188.571 54.4683 188.554 54.521 188.516C54.5736 188.478 54.6103 188.421 54.6241 188.358C54.9061 186.966 55.0261 185.532 55.2241 184.128C55.4221 182.724 55.6441 181.302 55.8781 179.898C56.3581 177.084 56.9101 174.276 57.5461 171.498C58.1461 168.87 58.7461 166.2 59.5801 163.638C60.1801 161.802 61.1641 159.66 63.1801 159C66.1801 157.992 68.9341 160.548 71.1421 162.204C71.1781 162.234 71.2441 162.168 71.1961 162.126Z" fill="#263238"/>
<path d="M69.036 160.626C69.036 160.626 67.11 155.124 69.894 154.026C74.094 152.412 85.002 164.724 82.86 183.588C82.86 183.588 74.418 178.938 68.178 173.7C61.938 168.462 60.378 161.634 63.096 159.864C65.814 158.094 69.036 160.626 69.036 160.626Z" fill="#44E0AA"/>
<path d="M81.6001 179.562C81.3086 178.904 80.9697 178.269 80.5861 177.66C80.2261 177.018 79.8661 176.37 79.4941 175.734C78.7681 174.492 78.0481 173.25 77.3041 172.02C77.1841 171.816 77.0581 171.624 76.9381 171.42C76.9381 171.348 76.9681 171.276 76.9801 171.204L77.1061 170.658C77.2021 170.244 77.2741 169.83 77.3461 169.422C77.5021 168.612 77.6401 167.796 77.8561 167.022C77.8561 166.962 77.7781 166.944 77.7661 167.022C77.5921 167.826 77.3341 168.624 77.1001 169.422C76.9801 169.812 76.8541 170.202 76.7521 170.592L76.6441 171C75.7501 169.524 74.8441 168.06 73.8481 166.644C73.9129 166.45 73.9473 166.248 73.9501 166.044C73.9501 165.768 74.0101 165.492 74.0461 165.222C74.1181 164.622 74.1901 163.98 74.2801 163.362C74.4601 162.162 74.6401 160.962 74.9401 159.762C74.9401 159.702 74.8621 159.684 74.8441 159.762C74.5441 160.962 74.2441 162.162 73.9921 163.362C73.8841 163.962 73.7761 164.562 73.6981 165.162C73.6621 165.456 73.6261 165.762 73.5961 166.056C73.5961 166.146 73.5961 166.236 73.5601 166.326C73.2601 165.9 72.9601 165.474 72.6421 165.054C71.6761 163.788 70.6741 162.546 69.6421 161.31C69.6061 161.262 69.5221 161.31 69.5641 161.364C71.2908 163.577 72.8778 165.895 74.3161 168.306C74.5921 168.744 74.8621 169.194 75.1381 169.638L74.8621 169.602C74.5081 169.56 74.1541 169.536 73.8001 169.506C73.0861 169.434 72.3781 169.374 71.6641 169.32C70.2421 169.206 68.8141 169.116 67.3981 168.966C67.3854 168.966 67.3732 168.971 67.3642 168.98C67.3552 168.989 67.3501 169.001 67.3501 169.014C67.3501 169.027 67.3552 169.039 67.3642 169.048C67.3732 169.057 67.3854 169.062 67.3981 169.062C68.8381 169.224 70.2661 169.458 71.7001 169.662L73.8001 169.8C74.3354 169.908 74.8799 169.965 75.4261 169.968C75.9841 170.874 76.5481 171.768 77.1061 172.692C76.9801 172.692 76.8481 172.692 76.7281 172.692H74.6941C73.7761 172.692 72.8581 172.692 71.9461 172.692C71.8801 172.692 71.8921 172.788 71.9461 172.788C72.8761 172.788 73.8001 172.848 74.7301 172.896C75.1681 172.896 75.6061 172.944 76.0501 172.974L76.7101 173.022C76.9075 173.068 77.1127 173.068 77.3101 173.022L78.7381 175.338C79.1761 176.052 79.6201 176.766 80.0701 177.468C80.4927 178.219 80.9721 178.937 81.5041 179.616C81.5461 179.652 81.6001 179.622 81.6001 179.562Z" fill="#263238"/>
<path d="M77.574 164.316C77.4904 164.924 77.3641 165.525 77.196 166.116C77.04 166.716 76.866 167.316 76.668 167.916C76.668 167.994 76.752 168.03 76.782 167.952C76.968 167.352 77.136 166.752 77.28 166.152C77.424 165.552 77.52 164.952 77.67 164.322C77.682 164.274 77.58 164.256 77.574 164.316Z" fill="#263238"/>
<path d="M71.4 168C71.271 167.891 71.1071 167.831 70.938 167.832L70.14 167.718C69.648 167.652 69.15 167.598 68.658 167.538C67.626 167.418 66.6 167.322 65.568 167.19C65.5553 167.19 65.5431 167.195 65.5341 167.204C65.5251 167.213 65.52 167.225 65.52 167.238C65.52 167.251 65.5251 167.263 65.5341 167.272C65.5431 167.281 65.5553 167.286 65.568 167.286C66.54 167.4 67.506 167.55 68.478 167.676C68.952 167.736 69.426 167.808 69.9 167.862L70.59 167.94C70.8557 167.938 71.1198 167.983 71.37 168.072C71.3784 168.072 71.3867 168.07 71.3937 168.065C71.4007 168.06 71.4062 168.054 71.4094 168.046C71.4126 168.038 71.4135 168.03 71.4118 168.022C71.4101 168.013 71.406 168.006 71.4 168Z" fill="#263238"/>
<path d="M77.562 176.298C77.076 176.256 76.584 176.238 76.098 176.226H75.36H75.006C74.8525 176.244 74.6974 176.244 74.544 176.226C74.478 176.226 74.472 176.334 74.544 176.322C74.6876 176.307 74.8324 176.307 74.976 176.322H75.36L76.092 176.364C76.578 176.394 77.07 176.424 77.556 176.424C77.5727 176.425 77.589 176.419 77.6014 176.408C77.6138 176.396 77.6212 176.381 77.622 176.364C77.6228 176.347 77.6169 176.331 77.6056 176.318C77.5944 176.306 77.5787 176.299 77.562 176.298Z" fill="#263238"/>
<path d="M80.5383 174.186L80.7003 173.358C80.7963 172.812 80.8983 172.272 81.0003 171.726C81.0003 171.713 80.9952 171.701 80.9862 171.692C80.9772 171.683 80.965 171.678 80.9523 171.678C80.9395 171.678 80.9273 171.683 80.9183 171.692C80.9093 171.701 80.9043 171.713 80.9043 171.726L80.5443 173.316C80.4843 173.58 80.4243 173.844 80.3703 174.114C80.3703 174.234 80.3223 174.36 80.2923 174.48C80.2543 174.606 80.2401 174.739 80.2503 174.87C80.2514 174.882 80.2562 174.894 80.264 174.903C80.2718 174.912 80.2822 174.919 80.2939 174.922C80.3057 174.925 80.3181 174.925 80.3296 174.921C80.341 174.917 80.351 174.91 80.3583 174.9C80.4636 174.676 80.5247 174.433 80.5383 174.186Z" fill="#263238"/>
<path d="M51.9419 186.192L52.5299 192.876L54.5279 215.46H72.2099L74.7059 192.876L75.4439 186.192H51.9419Z" fill="#37474F"/>
<path d="M51.9419 186.192L52.5299 192.876H74.7059L75.4439 186.192H51.9419Z" fill="#263238"/>
<path d="M50.1898 189.792H77.1958V184.368H50.1898V189.792Z" fill="#37474F"/>
<path d="M429.126 215.298L377.304 215.184L221.85 215.064L66.3962 215.184L14.5802 215.298C14.5404 215.298 14.5022 215.314 14.4741 215.342C14.446 215.37 14.4302 215.408 14.4302 215.448C14.4302 215.488 14.446 215.526 14.4741 215.554C14.5022 215.582 14.5404 215.598 14.5802 215.598L66.3962 215.718L221.85 215.838L377.304 215.718L429.126 215.598C429.166 215.598 429.204 215.582 429.232 215.554C429.26 215.526 429.276 215.488 429.276 215.448C429.275 215.409 429.258 215.371 429.231 215.344C429.203 215.316 429.165 215.299 429.126 215.298Z" fill="#263238"/>
<path d="M365.97 38.3459H83.0161V227.622H365.97V38.3459Z" fill="#EBEBEB"/>
<path d="M363.912 40.656H85.0742V225.312H363.912V40.656Z" fill="#263238"/>
<path d="M402.822 241.818H46.1641V254.808H402.822V241.818Z" fill="#DBDBDB"/>
<path d="M46.1641 241.818L83.0221 227.622H365.97L402.828 241.818H46.1641Z" fill="#EBEBEB"/>
<path d="M86.3101 236.784L110.094 227.622H338.898L362.682 236.784H86.3101Z" fill="#263238"/>
<path d="M348.162 54.6838H100.836V211.284H348.162V54.6838Z" fill="white"/>
<path d="M348.162 54.6838H100.626V60.7078H348.162V54.6838Z" fill="#455A64"/>
<path d="M105.414 57.6959C105.414 57.9914 105.327 58.2802 105.162 58.5259C104.998 58.7716 104.765 58.9631 104.492 59.0762C104.219 59.1893 103.919 59.2188 103.629 59.1612C103.339 59.1036 103.073 58.9613 102.864 58.7523C102.655 58.5434 102.513 58.2772 102.455 57.9874C102.397 57.6976 102.427 57.3972 102.54 57.1242C102.653 56.8512 102.845 56.6179 103.09 56.4537C103.336 56.2895 103.625 56.2019 103.92 56.2019C104.316 56.2035 104.695 56.3614 104.975 56.6412C105.255 56.9211 105.413 57.3002 105.414 57.6959Z" fill="#C7C7C7"/>
<path d="M111.516 57.6959C111.516 57.9914 111.428 58.2802 111.264 58.5259C111.1 58.7716 110.867 58.9631 110.594 59.0762C110.321 59.1893 110.02 59.2188 109.73 59.1612C109.441 59.1036 109.174 58.9613 108.965 58.7523C108.756 58.5434 108.614 58.2772 108.557 57.9874C108.499 57.6976 108.528 57.3972 108.642 57.1242C108.755 56.8512 108.946 56.6179 109.192 56.4537C109.438 56.2895 109.726 56.2019 110.022 56.2019C110.418 56.2019 110.798 56.3593 111.078 56.6395C111.358 56.9197 111.516 57.2997 111.516 57.6959Z" fill="white"/>
<path d="M117.6 57.6959C117.6 57.9914 117.512 58.2802 117.348 58.5259C117.184 58.7716 116.951 58.9631 116.678 59.0762C116.405 59.1893 116.104 59.2188 115.814 59.1612C115.525 59.1036 115.258 58.9613 115.049 58.7523C114.84 58.5434 114.698 58.2772 114.641 57.9874C114.583 57.6976 114.612 57.3972 114.726 57.1242C114.839 56.8512 115.03 56.6179 115.276 56.4537C115.521 56.2895 115.81 56.2019 116.106 56.2019C116.502 56.2019 116.882 56.3593 117.162 56.6395C117.442 56.9197 117.6 57.2997 117.6 57.6959Z" fill="#5063F4"/>
<path d="M224.754 132.93C226.021 132.923 227.258 132.54 228.308 131.83C229.358 131.12 230.173 130.114 230.652 128.941C231.13 127.767 231.25 126.478 230.996 125.237C230.741 123.995 230.125 122.857 229.223 121.965C228.322 121.074 227.177 120.47 225.933 120.23C224.688 119.99 223.401 120.124 222.232 120.616C221.064 121.107 220.068 121.934 219.37 122.992C218.672 124.05 218.303 125.29 218.31 126.558C218.313 127.4 218.482 128.233 218.808 129.009C219.134 129.786 219.61 130.49 220.209 131.082C220.807 131.674 221.517 132.142 222.297 132.459C223.077 132.776 223.912 132.936 224.754 132.93ZM219.09 126.558C219.083 125.445 219.406 124.354 220.019 123.425C220.632 122.495 221.506 121.768 222.532 121.336C223.558 120.903 224.689 120.785 225.783 120.996C226.876 121.206 227.882 121.736 228.674 122.519C229.466 123.302 230.008 124.302 230.231 125.392C230.455 126.483 230.35 127.615 229.929 128.646C229.509 129.677 228.792 130.561 227.87 131.184C226.948 131.808 225.861 132.144 224.748 132.15C224.009 132.155 223.277 132.014 222.592 131.735C221.908 131.457 221.285 131.046 220.76 130.527C220.234 130.007 219.816 129.389 219.53 128.708C219.243 128.027 219.094 127.297 219.09 126.558ZM224.754 132.93C226.021 132.923 227.258 132.54 228.308 131.83C229.358 131.12 230.173 130.114 230.652 128.941C231.13 127.767 231.25 126.478 230.996 125.237C230.741 123.995 230.125 122.857 229.223 121.965C228.322 121.074 227.177 120.47 225.933 120.23C224.688 119.99 223.401 120.124 222.232 120.616C221.064 121.107 220.068 121.934 219.37 122.992C218.672 124.05 218.303 125.29 218.31 126.558C218.313 127.4 218.482 128.233 218.808 129.009C219.134 129.786 219.61 130.49 220.209 131.082C220.807 131.674 221.517 132.142 222.297 132.459C223.077 132.776 223.912 132.936 224.754 132.93ZM219.09 126.558C219.083 125.445 219.406 124.354 220.019 123.425C220.632 122.495 221.506 121.768 222.532 121.336C223.558 120.903 224.689 120.785 225.783 120.996C226.876 121.206 227.882 121.736 228.674 122.519C229.466 123.302 230.008 124.302 230.231 125.392C230.455 126.483 230.35 127.615 229.929 128.646C229.509 129.677 228.792 130.561 227.87 131.184C226.948 131.808 225.861 132.144 224.748 132.15C224.009 132.155 223.277 132.014 222.592 131.735C221.908 131.457 221.285 131.046 220.76 130.527C220.234 130.007 219.816 129.389 219.53 128.708C219.243 128.027 219.094 127.297 219.09 126.558ZM224.754 132.93C226.021 132.923 227.258 132.54 228.308 131.83C229.358 131.12 230.173 130.114 230.652 128.941C231.13 127.767 231.25 126.478 230.996 125.237C230.741 123.995 230.125 122.857 229.223 121.965C228.322 121.074 227.177 120.47 225.933 120.23C224.688 119.99 223.401 120.124 222.232 120.616C221.064 121.107 220.068 121.934 219.37 122.992C218.672 124.05 218.303 125.29 218.31 126.558C218.313 127.4 218.482 128.233 218.808 129.009C219.134 129.786 219.61 130.49 220.209 131.082C220.807 131.674 221.517 132.142 222.297 132.459C223.077 132.776 223.912 132.936 224.754 132.93ZM219.09 126.558C219.083 125.445 219.406 124.354 220.019 123.425C220.632 122.495 221.506 121.768 222.532 121.336C223.558 120.903 224.689 120.785 225.783 120.996C226.876 121.206 227.882 121.736 228.674 122.519C229.466 123.302 230.008 124.302 230.231 125.392C230.455 126.483 230.35 127.615 229.929 128.646C229.509 129.677 228.792 130.561 227.87 131.184C226.948 131.808 225.861 132.144 224.748 132.15C224.009 132.155 223.277 132.014 222.592 131.735C221.908 131.457 221.285 131.046 220.76 130.527C220.234 130.007 219.816 129.389 219.53 128.708C219.243 128.027 219.094 127.297 219.09 126.558ZM224.79 140.028C227.461 140.011 230.067 139.203 232.278 137.705C234.49 136.208 236.208 134.088 237.215 131.614C238.222 129.14 238.473 126.423 237.936 123.807C237.399 121.191 236.098 118.792 234.198 116.915C232.299 115.038 229.885 113.766 227.262 113.26C224.639 112.755 221.926 113.038 219.464 114.075C217.002 115.111 214.903 116.855 213.432 119.084C211.961 121.313 211.185 123.929 211.2 126.6C211.21 128.374 211.57 130.129 212.258 131.764C212.947 133.399 213.951 134.882 215.213 136.129C216.475 137.376 217.97 138.362 219.614 139.031C221.257 139.7 223.016 140.039 224.79 140.028ZM217.314 126.6C217.304 125.135 217.73 123.7 218.536 122.477C219.342 121.254 220.493 120.298 221.843 119.729C223.193 119.16 224.681 119.005 226.12 119.282C227.558 119.559 228.882 120.257 229.923 121.287C230.965 122.317 231.678 123.633 231.971 125.068C232.265 126.503 232.126 127.993 231.573 129.349C231.02 130.705 230.076 131.867 228.862 132.687C227.649 133.507 226.219 133.949 224.754 133.956C222.793 133.964 220.908 133.194 219.514 131.815C218.119 130.436 217.328 128.561 217.314 126.6ZM218.31 126.6C218.317 127.867 218.7 129.104 219.41 130.154C220.121 131.204 221.126 132.02 222.3 132.498C223.474 132.976 224.764 133.096 226.006 132.841C227.247 132.586 228.386 131.969 229.276 131.067C230.167 130.165 230.771 129.02 231.01 127.775C231.25 126.53 231.115 125.242 230.622 124.074C230.13 122.906 229.302 121.91 228.244 121.213C227.185 120.515 225.944 120.148 224.676 120.156C222.985 120.167 221.367 120.846 220.174 122.045C218.982 123.245 218.311 124.867 218.31 126.558V126.6ZM219.09 126.6C219.083 125.487 219.406 124.396 220.019 123.467C220.632 122.537 221.506 121.81 222.532 121.378C223.558 120.945 224.689 120.827 225.783 121.038C226.876 121.248 227.882 121.778 228.674 122.561C229.466 123.344 230.008 124.344 230.231 125.434C230.455 126.525 230.35 127.657 229.929 128.688C229.509 129.719 228.792 130.603 227.87 131.226C226.948 131.85 225.861 132.186 224.748 132.192C224.006 132.197 223.27 132.054 222.583 131.773C221.896 131.492 221.271 131.078 220.745 130.554C220.219 130.03 219.802 129.407 219.518 128.721C219.234 128.036 219.088 127.3 219.09 126.558V126.6ZM224.754 132.972C226.021 132.965 227.258 132.582 228.308 131.872C229.358 131.162 230.173 130.156 230.652 128.983C231.13 127.809 231.25 126.52 230.996 125.279C230.741 124.037 230.125 122.899 229.223 122.007C228.322 121.116 227.177 120.512 225.933 120.272C224.688 120.032 223.401 120.166 222.232 120.658C221.064 121.149 220.068 121.976 219.37 123.034C218.672 124.091 218.303 125.333 218.31 126.6C218.327 128.293 219.015 129.91 220.223 131.097C221.431 132.283 223.061 132.943 224.754 132.93V132.972ZM219.09 126.6C219.083 125.487 219.406 124.396 220.019 123.467C220.632 122.537 221.506 121.81 222.532 121.378C223.558 120.945 224.689 120.827 225.783 121.038C226.876 121.248 227.882 121.778 228.674 122.561C229.466 123.344 230.008 124.344 230.231 125.434C230.455 126.525 230.35 127.657 229.929 128.688C229.509 129.719 228.792 130.603 227.87 131.226C226.948 131.85 225.861 132.186 224.748 132.192C224.006 132.197 223.27 132.054 222.583 131.773C221.896 131.492 221.271 131.078 220.745 130.554C220.219 130.03 219.802 129.407 219.518 128.721C219.234 128.036 219.088 127.3 219.09 126.558V126.6ZM224.754 132.972C226.021 132.965 227.258 132.582 228.308 131.872C229.358 131.162 230.173 130.156 230.652 128.983C231.13 127.809 231.25 126.52 230.996 125.279C230.741 124.037 230.125 122.899 229.223 122.007C228.322 121.116 227.177 120.512 225.933 120.272C224.688 120.032 223.401 120.166 222.232 120.658C221.064 121.149 220.068 121.976 219.37 123.034C218.672 124.091 218.303 125.333 218.31 126.6C218.327 128.293 219.015 129.91 220.223 131.097C221.431 132.283 223.061 132.943 224.754 132.93V132.972ZM219.09 126.6C219.083 125.487 219.406 124.396 220.019 123.467C220.632 122.537 221.506 121.81 222.532 121.378C223.558 120.945 224.689 120.827 225.783 121.038C226.876 121.248 227.882 121.778 228.674 122.561C229.466 123.344 230.008 124.344 230.231 125.434C230.455 126.525 230.35 127.657 229.929 128.688C229.509 129.719 228.792 130.603 227.87 131.226C226.948 131.85 225.861 132.186 224.748 132.192C224.006 132.197 223.27 132.054 222.583 131.773C221.896 131.492 221.271 131.078 220.745 130.554C220.219 130.03 219.802 129.407 219.518 128.721C219.234 128.036 219.088 127.3 219.09 126.558V126.6Z" fill="#5063F4"/>
<path d="M222.042 113.592L227.238 113.562L226.926 109.89L222.306 109.914L222.042 113.592Z" fill="#5063F4"/>
<path d="M231.936 115.284L235.632 118.938L238.008 116.118L234.726 112.872L231.936 115.284Z" fill="#5063F4"/>
<path d="M237.738 123.474L237.768 128.67L241.44 128.364L241.416 123.744L237.738 123.474Z" fill="#5063F4"/>
<path d="M236.046 133.374L232.398 137.064L235.212 139.446L238.458 136.158L236.046 133.374Z" fill="#5063F4"/>
<path d="M227.856 139.17L222.66 139.2L222.972 142.878L227.586 142.848L227.856 139.17Z" fill="#5063F4"/>
<path d="M217.962 137.478L214.266 133.83L211.884 136.65L215.172 139.896L217.962 137.478Z" fill="#5063F4"/>
<path d="M212.16 129.288L212.13 124.098L208.458 124.404L208.482 129.024L212.16 129.288Z" fill="#5063F4"/>
<path d="M213.852 119.394L217.5 115.704L214.686 113.322L211.44 116.604L213.852 119.394Z" fill="#5063F4"/>
<path d="M224.832 103.638C226.393 103.638 227.658 102.373 227.658 100.812C227.658 99.2511 226.393 97.9858 224.832 97.9858C223.271 97.9858 222.006 99.2511 222.006 100.812C222.006 102.373 223.271 103.638 224.832 103.638Z" fill="#5063F4"/>
<path opacity="0.9" d="M208.446 104.472C208.446 105.004 208.604 105.523 208.899 105.965C209.195 106.407 209.614 106.752 210.106 106.955C210.597 107.159 211.137 107.212 211.659 107.108C212.18 107.005 212.659 106.749 213.035 106.373C213.411 105.997 213.667 105.518 213.771 104.996C213.874 104.475 213.821 103.934 213.618 103.443C213.414 102.952 213.07 102.532 212.628 102.237C212.186 101.942 211.666 101.784 211.134 101.784C210.422 101.786 209.739 102.069 209.235 102.573C208.732 103.077 208.448 103.76 208.446 104.472Z" fill="#5063F4"/>
<path opacity="0.8" d="M200.022 113.808C200.022 114.312 200.172 114.806 200.452 115.225C200.733 115.645 201.131 115.971 201.598 116.164C202.064 116.357 202.577 116.407 203.072 116.308C203.566 116.21 204.021 115.966 204.377 115.609C204.734 115.252 204.976 114.797 205.074 114.302C205.171 113.807 205.12 113.294 204.926 112.828C204.732 112.362 204.404 111.964 203.984 111.685C203.564 111.405 203.071 111.257 202.566 111.258C201.891 111.259 201.244 111.529 200.767 112.007C200.29 112.485 200.022 113.133 200.022 113.808Z" fill="#5063F4"/>
<path opacity="0.7" d="M199.638 128.76C200.97 128.76 202.05 127.68 202.05 126.348C202.05 125.016 200.97 123.936 199.638 123.936C198.306 123.936 197.226 125.016 197.226 126.348C197.226 127.68 198.306 128.76 199.638 128.76Z" fill="#5063F4"/>
<path opacity="0.6" d="M200.082 138.18C200.081 138.63 200.213 139.071 200.463 139.445C200.712 139.82 201.067 140.113 201.483 140.286C201.899 140.458 202.357 140.504 202.798 140.416C203.24 140.329 203.646 140.112 203.964 139.794C204.282 139.475 204.499 139.07 204.587 138.628C204.674 138.186 204.629 137.729 204.456 137.313C204.283 136.897 203.991 136.542 203.616 136.293C203.241 136.043 202.8 135.911 202.35 135.912C201.749 135.912 201.172 136.151 200.746 136.576C200.321 137.001 200.082 137.578 200.082 138.18Z" fill="#5063F4"/>
<path opacity="0.5" d="M208.518 147.864C208.519 148.285 208.645 148.696 208.88 149.046C209.115 149.395 209.448 149.667 209.837 149.828C210.226 149.988 210.655 150.029 211.067 149.946C211.48 149.864 211.859 149.66 212.156 149.362C212.454 149.064 212.656 148.684 212.738 148.271C212.819 147.858 212.777 147.43 212.615 147.042C212.454 146.653 212.181 146.32 211.831 146.087C211.481 145.853 211.069 145.728 210.648 145.728C210.368 145.728 210.09 145.783 209.832 145.891C209.573 145.998 209.338 146.156 209.14 146.354C208.942 146.552 208.785 146.788 208.678 147.047C208.572 147.306 208.517 147.584 208.518 147.864Z" fill="#5063F4"/>
<path opacity="0.4" d="M222.93 151.908C222.93 152.302 223.047 152.687 223.266 153.015C223.485 153.342 223.796 153.598 224.16 153.748C224.524 153.899 224.924 153.939 225.311 153.862C225.697 153.785 226.052 153.595 226.331 153.317C226.609 153.038 226.799 152.683 226.876 152.297C226.953 151.91 226.913 151.51 226.763 151.146C226.612 150.782 226.356 150.471 226.029 150.252C225.701 150.033 225.316 149.916 224.922 149.916C224.394 149.916 223.887 150.126 223.514 150.499C223.14 150.873 222.93 151.38 222.93 151.908Z" fill="#5063F4"/>
<path opacity="0.3" d="M237.528 147.552C237.528 147.919 237.637 148.277 237.84 148.582C238.044 148.887 238.334 149.125 238.672 149.265C239.011 149.405 239.384 149.442 239.744 149.37C240.103 149.299 240.434 149.122 240.693 148.863C240.952 148.604 241.129 148.273 241.2 147.914C241.272 147.554 241.235 147.181 241.095 146.842C240.954 146.504 240.717 146.214 240.412 146.01C240.107 145.807 239.749 145.698 239.382 145.698C238.89 145.698 238.419 145.893 238.071 146.241C237.723 146.589 237.528 147.06 237.528 147.552Z" fill="#5063F4"/>
<path opacity="0.2" d="M245.904 137.4C245.904 137.739 246.005 138.071 246.193 138.353C246.382 138.635 246.65 138.855 246.964 138.985C247.277 139.115 247.622 139.149 247.955 139.083C248.288 139.017 248.594 138.853 248.834 138.613C249.074 138.373 249.237 138.067 249.303 137.735C249.37 137.402 249.336 137.057 249.206 136.743C249.076 136.43 248.856 136.162 248.574 135.973C248.291 135.784 247.96 135.684 247.62 135.684C247.165 135.684 246.729 135.865 246.407 136.186C246.085 136.508 245.904 136.945 245.904 137.4Z" fill="#5063F4"/>
<path opacity="0.1" d="M248.682 126.096C248.682 126.408 248.775 126.713 248.948 126.973C249.121 127.232 249.368 127.435 249.656 127.554C249.945 127.673 250.262 127.705 250.568 127.644C250.874 127.583 251.155 127.433 251.376 127.212C251.597 126.991 251.747 126.71 251.808 126.404C251.869 126.098 251.837 125.781 251.718 125.492C251.599 125.204 251.396 124.957 251.137 124.784C250.877 124.611 250.572 124.518 250.26 124.518C250.053 124.517 249.847 124.558 249.655 124.637C249.464 124.716 249.289 124.832 249.143 124.978C248.996 125.125 248.88 125.299 248.801 125.491C248.722 125.683 248.681 125.889 248.682 126.096Z" fill="#5063F4"/>
<path opacity="0.05" d="M246.174 112.986C246.969 112.986 247.614 112.341 247.614 111.546C247.614 110.751 246.969 110.106 246.174 110.106C245.379 110.106 244.734 110.751 244.734 111.546C244.734 112.341 245.379 112.986 246.174 112.986Z" fill="#5063F4"/>
<path opacity="0.01" d="M236.388 104.664C237.107 104.664 237.69 104.081 237.69 103.362C237.69 102.643 237.107 102.06 236.388 102.06C235.669 102.06 235.086 102.643 235.086 103.362C235.086 104.081 235.669 104.664 236.388 104.664Z" fill="#5063F4"/>
<path d="M372 49.2037C372 51.3059 372.795 53.3303 374.225 54.8714C375.654 56.4125 377.614 57.3563 379.71 57.5137H426.9C429.42 57.5168 431.843 56.5486 433.667 54.8104C435.491 53.0723 436.575 50.6979 436.693 48.1811C436.812 45.6644 435.955 43.1989 434.302 41.2974C432.649 39.3959 430.327 38.2047 427.818 37.9717C427.695 34.1439 426.245 30.4781 423.716 27.6025C421.186 24.7269 417.736 22.8207 413.955 22.2107C410.174 21.6007 406.299 22.3248 402.993 24.2589C399.688 26.1931 397.158 29.2168 395.838 32.8117C394.48 32.1262 392.979 31.7706 391.458 31.7737C388.965 31.775 386.567 32.7264 384.751 34.4342C382.935 36.1419 381.838 38.4777 381.684 40.9657C381.236 40.8877 380.783 40.8496 380.328 40.8517C379.233 40.8524 378.148 41.0692 377.136 41.4895C376.125 41.9098 375.206 42.5254 374.433 43.3011C373.659 44.0768 373.046 44.9974 372.629 46.0102C372.211 47.0231 371.998 48.1082 372 49.2037Z" fill="#D9D9D9"/>
<path d="M412.482 47.2178H400.464V57.5378H412.482V47.2178Z" fill="white"/>
<path d="M396.336 47.2177H416.604L406.47 37.1077L396.336 47.2177Z" fill="white"/>
</svg>
