<svg width="47" height="47" viewBox="0 0 47 47" fill="none" xmlns="http://www.w3.org/2000/svg">
<g clip-path="url(#clip0_8048_34381)">
<path d="M1.88219 15.8761C3.51093 8.93252 8.93252 3.51093 15.8761 1.88219C20.8906 0.705935 26.1094 0.705937 31.1239 1.88219C38.0675 3.51093 43.4891 8.93252 45.1178 15.8761C46.2941 20.8906 46.2941 26.1094 45.1178 31.1239C43.4891 38.0675 38.0675 43.4891 31.1239 45.1178C26.1094 46.2941 20.8906 46.2941 15.8761 45.1178C8.93253 43.4891 3.51093 38.0675 1.88219 31.1239C0.705935 26.1094 0.705935 20.8906 1.88219 15.8761Z" fill="#EFF2FE" stroke="#5063F4" stroke-width="1.35"/>
<path fill-rule="evenodd" clip-rule="evenodd" d="M13.875 22.125C13.875 19.5723 14.8891 17.1241 16.6941 15.3191C18.4991 13.5141 20.9473 12.5 23.5 12.5C26.0527 12.5 28.5009 13.5141 30.3059 15.3191C32.1109 17.1241 33.125 19.5723 33.125 22.125C33.125 25.3177 31.376 28.12 29.1774 30.3695C27.042 32.5516 24.6302 34.0586 23.5 34.7035C22.3698 34.0573 19.958 32.5516 17.8226 30.3695C15.624 28.1214 13.875 25.3177 13.875 22.125ZM23.5 9.75C20.2179 9.75 17.0703 11.0538 14.7496 13.3746C12.4288 15.6953 11.125 18.8429 11.125 22.125C11.125 26.3517 13.4295 29.8113 15.8577 32.2931C18.2997 34.7888 21.025 36.4635 22.224 37.1414C23.0215 37.591 23.9785 37.591 24.7746 37.1414C25.975 36.4635 28.7003 34.7901 31.1423 32.2931C33.5705 29.8099 35.875 26.3517 35.875 22.125C35.875 18.8429 34.5712 15.6953 32.2504 13.3746C29.9297 11.0538 26.7821 9.75 23.5 9.75ZM29.6792 19.9209C29.8069 19.7931 29.9082 19.6415 29.9772 19.4746C30.0463 19.3077 30.0818 19.1289 30.0817 18.9483C30.0817 18.7677 30.046 18.5888 29.9768 18.422C29.9077 18.2552 29.8063 18.1036 29.6786 17.9759C29.5508 17.8483 29.3992 17.747 29.2323 17.678C29.0654 17.6089 28.8866 17.5734 28.706 17.5735C28.5253 17.5735 28.3465 17.6092 28.1797 17.6783C28.0129 17.7475 27.8613 17.8489 27.7336 17.9766L21.8981 23.8121L19.4671 21.3811C19.2091 21.1233 18.8593 20.9785 18.4945 20.9787C18.1298 20.9788 17.78 21.1238 17.5222 21.3818C17.2644 21.6398 17.1196 21.9897 17.1197 22.3544C17.1199 22.7192 17.2649 23.0689 17.5229 23.3267L20.8284 26.6322C20.9688 26.7728 21.1356 26.8842 21.3192 26.9603C21.5027 27.0364 21.6994 27.0755 21.8981 27.0755C22.0968 27.0755 22.2935 27.0364 22.4771 26.9603C22.6606 26.8842 22.8274 26.7728 22.9679 26.6322L29.6792 19.9209Z" fill="#5063F4"/>
</g>
<defs>
<clipPath id="clip0_8048_34381">
<rect width="47" height="47" fill="white"/>
</clipPath>
</defs>
</svg>
