<svg width="208" height="209" viewBox="0 0 208 209" fill="none" xmlns="http://www.w3.org/2000/svg">
<path d="M104 208.144C161.438 208.144 208 161.581 208 104.144C208 46.7059 161.438 0.143555 104 0.143555C46.5624 0.143555 0 46.7059 0 104.144C0 161.581 46.5624 208.144 104 208.144Z" fill="url(#paint0_linear_550_32140)"/>
<path d="M166.4 208.143H41.6001V73.6366C47.4823 73.63 53.1218 71.2904 57.2811 67.131C61.4405 62.9717 63.7802 57.3322 63.7868 51.45H144.213C144.207 54.3639 144.779 57.2501 145.895 59.9416C147.012 62.6331 148.651 65.0765 150.718 67.1304C152.772 69.198 155.216 70.8378 157.907 71.9546C160.599 73.0714 163.486 73.6431 166.4 73.6366V208.143Z" fill="white"/>
<path d="M104 141.583C122.38 141.583 137.28 126.683 137.28 108.303C137.28 89.9234 122.38 75.0234 104 75.0234C85.6202 75.0234 70.7202 89.9234 70.7202 108.303C70.7202 126.683 85.6202 141.583 104 141.583Z" fill="#5063F4"/>
<path d="M115.766 123.992L104 112.226L92.2337 123.992L88.3117 120.07L100.078 108.304L88.3117 96.5375L92.2337 92.6154L104 104.382L115.766 92.6154L119.688 96.5375L107.922 108.304L119.688 120.07L115.766 123.992Z" fill="white"/>
<path d="M122.027 149.904H85.9735C83.676 149.904 81.8135 151.766 81.8135 154.064C81.8135 156.361 83.676 158.224 85.9735 158.224H122.027C124.324 158.224 126.187 156.361 126.187 154.064C126.187 151.766 124.324 149.904 122.027 149.904Z" fill="#DFEAFB"/>
<path d="M134.506 166.543H73.493C71.1955 166.543 69.333 168.406 69.333 170.703C69.333 173.001 71.1955 174.863 73.493 174.863H134.506C136.804 174.863 138.666 173.001 138.666 170.703C138.666 168.406 136.804 166.543 134.506 166.543Z" fill="#DFEAFB"/>
<defs>
<linearGradient id="paint0_linear_550_32140" x1="104" y1="0.143555" x2="104" y2="208.144" gradientUnits="userSpaceOnUse">
<stop stop-color="#E3ECFA"/>
<stop offset="1" stop-color="#DAE7FF"/>
</linearGradient>
</defs>
</svg>
