<svg width="309" height="308" viewBox="0 0 309 308" fill="none" xmlns="http://www.w3.org/2000/svg">
<path d="M288.542 155.177C285.505 180.925 273.758 210.869 250.263 224.618C214.788 245.408 217.757 277.373 148.506 291.27C138.408 293.345 128.113 294.318 117.805 294.171C112.759 294.078 107.725 293.666 102.731 292.939C58.7181 286.514 29.1008 255.923 18.2346 218.988C3.9372 170.423 32.4888 138.6 51.4123 119.467C70.3358 100.334 84.202 40.6191 152.171 26.4511C162.539 24.2263 173.128 23.2052 183.729 23.408C207.913 24.024 234.29 31.9458 252.542 48.5162C253.91 49.7482 255.245 51.0377 256.546 52.3847C281.913 78.4353 292.693 120.071 288.542 155.177Z" fill="#EFF2FE"/>
<path d="M15.7275 285.886H293.778" stroke="#263238" stroke-linecap="round" stroke-linejoin="round"/>
<path d="M215.564 45.2146H239.034C239.034 45.2146 241.282 38.4386 237.229 35.9746C233.176 33.5106 233.176 36.8739 230.022 35.5187C227.422 34.4038 226.942 32.2847 226.203 30.0425C226.122 29.7838 226.036 29.5251 225.944 29.2725C225.693 28.5717 225.367 27.9004 224.971 27.2705" stroke="#B2B2B2" stroke-linecap="round" stroke-linejoin="round"/>
<path d="M222.211 24.3567C216.334 20.0447 206.607 21.6648 206.607 30.8062C206.607 33.0546 201.199 30.8062 199.172 33.7322C197.146 36.6582 199.4 38.4631 196.708 39.3625C194.016 40.2618 193.782 38.0134 190.401 38.2352C187.019 38.457 187.475 41.6109 186.347 42.5164C185.22 43.4219 185.226 42.9661 182.75 43.1878C180.273 43.4096 179.818 45.2145 179.818 45.2145H211.418" stroke="#B2B2B2" stroke-linecap="round" stroke-linejoin="round"/>
<path d="M228.254 42.7499C228.581 41.5945 228.588 40.3717 228.273 39.2127C227.958 38.0537 227.334 37.0022 226.467 36.1711C223.455 33.3867 220.307 34.9391 219.439 36.1711C218.57 37.4031 218.546 39.7438 217.098 39.9656C215.65 40.1874 215.983 37.5016 212.86 38.1792C209.737 38.8568 210.963 41.9738 209.515 42.6391C208.067 43.3043 208.067 40.8588 206.059 41.635C204.051 42.4111 204.162 43.8649 204.162 43.8649" stroke="#B2B2B2" stroke-linecap="round" stroke-linejoin="round"/>
<path d="M212.232 35.1733C211.41 34.5892 210.448 34.2355 209.444 34.1488C208.44 34.0622 207.431 34.2458 206.521 34.6805C203.294 36.1712 204.784 39.2758 203.294 40.0212C201.803 40.7666 201.057 39.8918 199.197 40.7666C197.337 41.6413 197.454 42.8733 197.454 42.8733" stroke="#B2B2B2" stroke-linecap="round" stroke-linejoin="round"/>
<path d="M55.3241 87.0529C54.7773 86.7517 54.1536 86.6188 53.5315 86.671C51.5911 86.8003 51.8498 88.6114 51.203 89.135C50.5562 89.6586 50.587 89.3937 49.1394 89.5231C48.7736 89.5176 48.4151 89.6261 48.1137 89.8336C47.8124 90.0412 47.5831 90.3374 47.4578 90.6811H81.4425C81.4425 90.6811 82.2802 88.174 81.3932 86.4492" stroke="#B2B2B2" stroke-linecap="round" stroke-linejoin="round"/>
<path d="M80.42 85.3769C78.0976 83.9601 78.0976 85.8943 76.2866 85.1182C74.7897 84.5022 74.5125 83.2702 74.0936 81.9766L73.9458 81.5331C71.9808 76.0753 62.8578 75.6995 62.8578 82.4078C62.8578 83.7014 59.7778 82.4078 58.5951 84.0895C57.4124 85.7711 58.7244 86.7999 57.1721 87.3173" stroke="#B2B2B2" stroke-linecap="round" stroke-linejoin="round"/>
<path d="M75.2701 89.2645C75.458 88.6015 75.4621 87.9 75.2819 87.2348C75.1018 86.5697 74.7443 85.966 74.2475 85.4884C72.5166 83.8868 70.724 84.7862 70.2127 85.4884C69.7014 86.1907 69.7014 87.5336 68.8698 87.6629C68.0382 87.7923 68.2538 86.2584 66.4366 86.6404C64.6194 87.0223 65.3525 88.8148 64.5147 89.2029C63.677 89.591 63.6831 88.1742 62.5312 88.6239C61.3793 89.0736 61.447 89.936 61.447 89.936" stroke="#B2B2B2" stroke-linecap="round" stroke-linejoin="round"/>
<path d="M66.0795 84.915C65.6083 84.5795 65.0559 84.3763 64.4796 84.3265C63.9033 84.2767 63.3242 84.382 62.8024 84.6316C60.9544 85.4878 61.8045 87.2681 60.9544 87.7116C60.1043 88.1551 59.6731 87.6438 58.6013 88.1428C57.5295 88.6418 57.6034 89.3748 57.6034 89.3748" stroke="#B2B2B2" stroke-linecap="round" stroke-linejoin="round"/>
<path d="M134.788 28.0402C134.244 27.7381 133.622 27.6051 133.002 27.6583C131.061 27.7876 131.32 29.5987 130.673 30.1223C130.026 30.6459 130.026 30.381 128.603 30.5042C128.238 30.5004 127.88 30.6105 127.58 30.8191C127.28 31.0277 127.052 31.3245 126.928 31.6684H160.913C160.913 31.6684 161.75 29.1613 160.863 27.4365" stroke="#B2B2B2" stroke-linecap="round" stroke-linejoin="round"/>
<path d="M159.853 26.3645C157.531 24.9416 157.531 26.882 155.72 26.1058C154.223 25.4898 153.946 24.2578 153.527 22.9642L153.379 22.5207C151.414 17.0629 142.291 16.681 142.291 23.3954C142.291 24.6828 139.211 23.3954 138.028 25.0709C136.845 26.7464 138.158 27.7875 136.605 28.3049" stroke="#B2B2B2" stroke-linecap="round" stroke-linejoin="round"/>
<path d="M154.703 30.2511C154.889 29.5894 154.891 28.8898 154.71 28.2269C154.529 27.564 154.171 26.9628 153.675 26.4874C151.95 24.8858 150.157 25.779 149.646 26.4874C149.135 27.1958 149.135 28.5325 148.303 28.6618C147.471 28.7912 147.687 27.2512 145.87 27.6393C144.053 28.0274 144.78 29.8138 143.948 30.1957C143.116 30.5776 143.116 29.1731 141.964 29.6228C140.813 30.0725 140.874 30.9041 140.874 30.9041" stroke="#B2B2B2" stroke-linecap="round" stroke-linejoin="round"/>
<path d="M145.507 25.9023C145.035 25.5668 144.483 25.3636 143.907 25.3138C143.33 25.264 142.751 25.3693 142.229 25.6189C140.381 26.469 141.232 28.2554 140.381 28.6989C139.531 29.1424 139.094 28.625 138.028 29.1239C136.963 29.6229 137.03 30.3559 137.03 30.3559" stroke="#B2B2B2" stroke-linecap="round" stroke-linejoin="round"/>
<path d="M268.516 59.8076H134.357V285.886H268.516V59.8076Z" fill="#ADADAD" stroke="#ADADAD" stroke-linecap="round" stroke-linejoin="round"/>
<path d="M268.515 59.8076H191.269V285.886H268.515V59.8076Z" fill="white" stroke="#ADADAD" stroke-linecap="round" stroke-linejoin="round"/>
<path d="M259.547 59.8076H200.232V285.886H259.547V59.8076Z" fill="white" stroke="#ADADAD" stroke-linecap="round" stroke-linejoin="round"/>
<path d="M268.515 59.8076H191.269V75.2939H268.515V59.8076Z" fill="#ADADAD" stroke="#ADADAD" stroke-linecap="round" stroke-linejoin="round"/>
<path d="M248.656 258.104H211.129V285.892H248.656V258.104Z" fill="white" stroke="#ADADAD" stroke-linecap="round" stroke-linejoin="round"/>
<path d="M248.656 258.104H229.892V285.892H248.656V258.104Z" fill="white" stroke="#ADADAD" stroke-linecap="round" stroke-linejoin="round"/>
<path d="M160.303 85.1748H143.27V100.643H160.303V85.1748Z" fill="white" stroke="#ADADAD" stroke-linecap="round" stroke-linejoin="round"/>
<path d="M160.303 80.7207H143.27V87.4474H160.303V80.7207Z" fill="white" stroke="#ADADAD" stroke-linecap="round" stroke-linejoin="round"/>
<path d="M184.647 85.1748H167.615V100.643H184.647V85.1748Z" fill="white" stroke="#ADADAD" stroke-linecap="round" stroke-linejoin="round"/>
<path d="M184.647 80.7207H167.615V87.4474H184.647V80.7207Z" fill="white" stroke="#ADADAD" stroke-linecap="round" stroke-linejoin="round"/>
<path d="M160.303 114.866H143.27V130.334H160.303V114.866Z" fill="white" stroke="#ADADAD" stroke-linecap="round" stroke-linejoin="round"/>
<path d="M160.303 110.412H143.27V117.139H160.303V110.412Z" fill="white" stroke="#ADADAD" stroke-linecap="round" stroke-linejoin="round"/>
<path d="M184.647 114.866H167.615V130.334H184.647V114.866Z" fill="white" stroke="#ADADAD" stroke-linecap="round" stroke-linejoin="round"/>
<path d="M184.647 110.412H167.615V117.139H184.647V110.412Z" fill="white" stroke="#ADADAD" stroke-linecap="round" stroke-linejoin="round"/>
<path d="M160.303 144.557H143.27V160.024H160.303V144.557Z" fill="white" stroke="#ADADAD" stroke-linecap="round" stroke-linejoin="round"/>
<path d="M160.303 140.104H143.27V146.83H160.303V140.104Z" fill="white" stroke="#ADADAD" stroke-linecap="round" stroke-linejoin="round"/>
<path d="M184.647 144.557H167.615V160.024H184.647V144.557Z" fill="white" stroke="#ADADAD" stroke-linecap="round" stroke-linejoin="round"/>
<path d="M184.647 140.104H167.615V146.83H184.647V140.104Z" fill="white" stroke="#ADADAD" stroke-linecap="round" stroke-linejoin="round"/>
<path d="M160.303 174.248H143.27V189.716H160.303V174.248Z" fill="white" stroke="#ADADAD" stroke-linecap="round" stroke-linejoin="round"/>
<path d="M160.303 169.788H143.27V176.515H160.303V169.788Z" fill="white" stroke="#ADADAD" stroke-linecap="round" stroke-linejoin="round"/>
<path d="M184.647 174.248H167.615V189.716H184.647V174.248Z" fill="white" stroke="#ADADAD" stroke-linecap="round" stroke-linejoin="round"/>
<path d="M184.647 169.788H167.615V176.515H184.647V169.788Z" fill="white" stroke="#ADADAD" stroke-linecap="round" stroke-linejoin="round"/>
<path d="M160.303 203.939H143.27V219.407H160.303V203.939Z" fill="white" stroke="#ADADAD" stroke-linecap="round" stroke-linejoin="round"/>
<path d="M160.303 199.479H143.27V206.206H160.303V199.479Z" fill="white" stroke="#ADADAD" stroke-linecap="round" stroke-linejoin="round"/>
<path d="M184.647 203.939H167.615V219.407H184.647V203.939Z" fill="white" stroke="#ADADAD" stroke-linecap="round" stroke-linejoin="round"/>
<path d="M184.647 199.479H167.615V206.206H184.647V199.479Z" fill="white" stroke="#ADADAD" stroke-linecap="round" stroke-linejoin="round"/>
<path d="M160.303 233.625H143.27V249.093H160.303V233.625Z" fill="white" stroke="#ADADAD" stroke-linecap="round" stroke-linejoin="round"/>
<path d="M160.303 229.171H143.27V235.898H160.303V229.171Z" fill="white" stroke="#ADADAD" stroke-linecap="round" stroke-linejoin="round"/>
<path d="M184.647 233.625H167.615V249.093H184.647V233.625Z" fill="white" stroke="#ADADAD" stroke-linecap="round" stroke-linejoin="round"/>
<path d="M184.647 229.171H167.615V235.898H184.647V229.171Z" fill="white" stroke="#ADADAD" stroke-linecap="round" stroke-linejoin="round"/>
<path d="M214.535 85.1748H197.503V100.643H214.535V85.1748Z" fill="white" stroke="#ADADAD" stroke-linecap="round" stroke-linejoin="round"/>
<path d="M214.535 80.7207H197.503V87.4474H214.535V80.7207Z" fill="white" stroke="#ADADAD" stroke-linecap="round" stroke-linejoin="round"/>
<path d="M238.886 85.1748H221.854V100.643H238.886V85.1748Z" fill="white" stroke="#ADADAD" stroke-linecap="round" stroke-linejoin="round"/>
<path d="M238.886 80.7207H221.854V87.4474H238.886V80.7207Z" fill="white" stroke="#ADADAD" stroke-linecap="round" stroke-linejoin="round"/>
<path d="M263.23 85.1748H246.198V100.643H263.23V85.1748Z" fill="white" stroke="#ADADAD" stroke-linecap="round" stroke-linejoin="round"/>
<path d="M263.23 80.7207H246.198V87.4474H263.23V80.7207Z" fill="white" stroke="#ADADAD" stroke-linecap="round" stroke-linejoin="round"/>
<path d="M214.535 114.866H197.503V130.334H214.535V114.866Z" fill="white" stroke="#ADADAD" stroke-linecap="round" stroke-linejoin="round"/>
<path d="M214.535 110.412H197.503V117.139H214.535V110.412Z" fill="white" stroke="#ADADAD" stroke-linecap="round" stroke-linejoin="round"/>
<path d="M238.886 114.866H221.854V130.334H238.886V114.866Z" fill="white" stroke="#ADADAD" stroke-linecap="round" stroke-linejoin="round"/>
<path d="M238.886 110.412H221.854V117.139H238.886V110.412Z" fill="white" stroke="#ADADAD" stroke-linecap="round" stroke-linejoin="round"/>
<path d="M263.23 114.866H246.198V130.334H263.23V114.866Z" fill="white" stroke="#ADADAD" stroke-linecap="round" stroke-linejoin="round"/>
<path d="M263.23 110.412H246.198V117.139H263.23V110.412Z" fill="white" stroke="#ADADAD" stroke-linecap="round" stroke-linejoin="round"/>
<path d="M214.535 144.557H197.503V160.024H214.535V144.557Z" fill="white" stroke="#ADADAD" stroke-linecap="round" stroke-linejoin="round"/>
<path d="M214.535 140.104H197.503V146.83H214.535V140.104Z" fill="white" stroke="#ADADAD" stroke-linecap="round" stroke-linejoin="round"/>
<path d="M238.886 144.557H221.854V160.024H238.886V144.557Z" fill="white" stroke="#ADADAD" stroke-linecap="round" stroke-linejoin="round"/>
<path d="M238.886 140.104H221.854V146.83H238.886V140.104Z" fill="white" stroke="#ADADAD" stroke-linecap="round" stroke-linejoin="round"/>
<path d="M263.23 144.557H246.198V160.024H263.23V144.557Z" fill="white" stroke="#ADADAD" stroke-linecap="round" stroke-linejoin="round"/>
<path d="M263.23 140.104H246.198V146.83H263.23V140.104Z" fill="white" stroke="#ADADAD" stroke-linecap="round" stroke-linejoin="round"/>
<path d="M214.535 174.248H197.503V189.716H214.535V174.248Z" fill="white" stroke="#ADADAD" stroke-linecap="round" stroke-linejoin="round"/>
<path d="M214.535 169.788H197.503V176.515H214.535V169.788Z" fill="white" stroke="#ADADAD" stroke-linecap="round" stroke-linejoin="round"/>
<path d="M238.886 174.248H221.854V189.716H238.886V174.248Z" fill="white" stroke="#ADADAD" stroke-linecap="round" stroke-linejoin="round"/>
<path d="M238.886 169.788H221.854V176.515H238.886V169.788Z" fill="white" stroke="#ADADAD" stroke-linecap="round" stroke-linejoin="round"/>
<path d="M263.23 174.248H246.198V189.716H263.23V174.248Z" fill="white" stroke="#ADADAD" stroke-linecap="round" stroke-linejoin="round"/>
<path d="M263.23 169.788H246.198V176.515H263.23V169.788Z" fill="white" stroke="#ADADAD" stroke-linecap="round" stroke-linejoin="round"/>
<path d="M214.535 203.939H197.503V219.407H214.535V203.939Z" fill="white" stroke="#ADADAD" stroke-linecap="round" stroke-linejoin="round"/>
<path d="M214.535 199.479H197.503V206.206H214.535V199.479Z" fill="white" stroke="#ADADAD" stroke-linecap="round" stroke-linejoin="round"/>
<path d="M238.886 203.939H221.854V219.407H238.886V203.939Z" fill="white" stroke="#ADADAD" stroke-linecap="round" stroke-linejoin="round"/>
<path d="M238.886 199.479H221.854V206.206H238.886V199.479Z" fill="white" stroke="#ADADAD" stroke-linecap="round" stroke-linejoin="round"/>
<path d="M263.23 203.939H246.198V219.407H263.23V203.939Z" fill="white" stroke="#ADADAD" stroke-linecap="round" stroke-linejoin="round"/>
<path d="M263.23 199.479H246.198V206.206H263.23V199.479Z" fill="white" stroke="#ADADAD" stroke-linecap="round" stroke-linejoin="round"/>
<path d="M214.535 233.625H197.503V249.093H214.535V233.625Z" fill="white" stroke="#ADADAD" stroke-linecap="round" stroke-linejoin="round"/>
<path d="M214.535 229.171H197.503V235.898H214.535V229.171Z" fill="white" stroke="#ADADAD" stroke-linecap="round" stroke-linejoin="round"/>
<path d="M238.886 233.625H221.854V249.093H238.886V233.625Z" fill="white" stroke="#ADADAD" stroke-linecap="round" stroke-linejoin="round"/>
<path d="M238.886 229.171H221.854V235.898H238.886V229.171Z" fill="white" stroke="#ADADAD" stroke-linecap="round" stroke-linejoin="round"/>
<path d="M263.23 233.625H246.198V249.093H263.23V233.625Z" fill="white" stroke="#ADADAD" stroke-linecap="round" stroke-linejoin="round"/>
<path d="M263.23 229.171H246.198V235.898H263.23V229.171Z" fill="white" stroke="#ADADAD" stroke-linecap="round" stroke-linejoin="round"/>
<path d="M263.015 258.062H196.671V266.476H263.015V258.062Z" fill="white" stroke="#ADADAD" stroke-linecap="round" stroke-linejoin="round"/>
<path d="M263.015 255.628H196.671V264.042H263.015V255.628Z" fill="white" stroke="#ADADAD" stroke-linecap="round" stroke-linejoin="round"/>
<path d="M170.424 48.1777H134.283V70.4585H170.424V48.1777Z" fill="#ADADAD" stroke="#ADADAD" stroke-linecap="round" stroke-linejoin="round"/>
<path d="M170.424 48.1777H157.919V70.4585H170.424V48.1777Z" fill="white" stroke="#ADADAD" stroke-linecap="round" stroke-linejoin="round"/>
<path d="M262.023 53.623H247.171V70.4583H262.023V53.623Z" fill="white" stroke="#ADADAD" stroke-linecap="round" stroke-linejoin="round"/>
<path d="M255.154 53.623H240.303V70.4583H255.154V53.623Z" fill="#ADADAD" stroke="#ADADAD" stroke-linecap="round" stroke-linejoin="round"/>
<path d="M271.786 59.8076H131.092V70.4583H271.786V59.8076Z" fill="white" stroke="#ADADAD" stroke-linecap="round" stroke-linejoin="round"/>
<path d="M271.78 59.8076H187.647V70.4583H271.78V59.8076Z" fill="white" stroke="#ADADAD" stroke-linecap="round" stroke-linejoin="round"/>
<path d="M191.269 59.8076V64.2798" stroke="#ADADAD" stroke-linecap="round" stroke-linejoin="round"/>
<path d="M193.567 59.8076V64.2798" stroke="#ADADAD" stroke-linecap="round" stroke-linejoin="round"/>
<path d="M193.567 65.4873V68.8999" stroke="#ADADAD" stroke-linecap="round" stroke-linejoin="round"/>
<path d="M195.871 59.8076V64.2798" stroke="#ADADAD" stroke-linecap="round" stroke-linejoin="round"/>
<path d="M195.871 65.6787V68.845" stroke="#ADADAD" stroke-linecap="round" stroke-linejoin="round"/>
<path d="M198.021 65.6787V67.6745" stroke="#ADADAD" stroke-linecap="round" stroke-linejoin="round"/>
<path d="M198.174 59.8076V64.2798" stroke="#ADADAD" stroke-linecap="round" stroke-linejoin="round"/>
<path d="M200.78 63.1465V64.2799" stroke="#ADADAD" stroke-linecap="round" stroke-linejoin="round"/>
<path d="M200.934 59.8076V62.3517" stroke="#ADADAD" stroke-linecap="round" stroke-linejoin="round"/>
<path d="M191.269 65.1797V67.8285" stroke="#ADADAD" stroke-linecap="round" stroke-linejoin="round"/>
<path d="M17.1012 98.4678C19.7254 99.6136 26.1502 99.4657 26.1564 99.4657C26.1626 99.4657 24.7766 95.2585 24.6534 95.0059C23.2427 92.0553 18.7829 87.1889 15.1608 87.6755C14.5568 87.7678 13.9793 87.9874 13.4665 88.3197C12.9538 88.6521 12.5175 89.0897 12.1867 89.6034C11.8559 90.1171 11.638 90.6953 11.5475 91.2996C11.4571 91.9039 11.4961 92.5205 11.6619 93.1086C12.2779 95.6219 14.8651 97.4884 17.1012 98.4678Z" fill="#44E0AA"/>
<path d="M19.3188 117.077C22.0415 117.471 27.7765 115.808 28.2323 115.673C29.1763 118.955 30.3369 122.172 31.7065 125.301C32.495 127.149 33.3513 128.941 34.226 130.746C33.7024 129.982 33.2281 129.299 33.1541 129.212C31.0166 126.748 25.4295 123.219 22.0661 124.654C21.51 124.904 21.0134 125.27 20.6089 125.726C20.2044 126.182 19.9014 126.719 19.7197 127.302C19.5381 127.884 19.482 128.498 19.5552 129.103C19.6284 129.709 19.8291 130.292 20.1442 130.814C21.3762 133.075 24.37 134.196 26.7847 134.547C29.1994 134.898 34.1767 133.586 35.4518 133.222C35.7968 133.912 36.1294 134.602 36.4744 135.292C38.1376 138.6 39.8069 141.89 41.3469 145.148C41.889 146.306 42.3818 147.464 42.8808 148.622C42.4188 147.939 42.0184 147.39 41.9506 147.292C39.8131 144.828 34.226 141.298 30.8626 142.733C30.3065 142.984 29.8098 143.349 29.4054 143.806C29.0009 144.262 28.6978 144.799 28.5162 145.381C28.3346 145.963 28.2785 146.577 28.3517 147.183C28.4248 147.788 28.6256 148.371 28.9407 148.894C30.1727 151.154 33.1665 152.275 35.5812 152.626C37.9959 152.978 42.4619 151.795 44.0019 151.37C44.4762 152.602 44.9505 153.772 45.3571 154.955C45.6158 155.768 45.9177 156.538 46.1333 157.37L46.8109 159.834C47.1866 161.398 47.587 163.012 47.9135 164.546C48.1476 165.612 48.3509 166.628 48.5603 167.657C48.0367 166.499 46.9525 164.257 46.8417 164.084C45.1045 161.312 40.1149 156.988 36.5668 157.893C35.9806 158.057 35.4357 158.343 34.9681 158.733C34.5004 159.123 34.1206 159.607 33.8535 160.154C33.5864 160.701 33.4381 161.298 33.4185 161.907C33.3988 162.515 33.5081 163.121 33.7393 163.684C34.6264 166.111 37.4045 167.669 39.7392 168.384C42.3079 169.172 47.9997 168.452 48.7081 168.384C49.0531 170.084 49.3673 171.741 49.6383 173.312C49.8416 174.47 50.0325 175.585 50.1989 176.657H52.4781C52.2625 175.462 52.0284 174.193 51.7697 172.911C51.4309 171.18 51.0366 169.345 50.6054 167.46C52.3193 166.774 53.9915 165.988 55.6135 165.107C57.4615 167.133 62.2909 169.505 62.9069 169.807C62.254 171.414 61.6072 172.973 60.9665 174.433C60.6339 175.203 60.3074 175.936 59.9809 176.657H62.3895C62.5805 176.201 62.7714 175.751 62.9624 175.277C63.6338 173.644 64.3176 171.895 65.0075 170.084C65.6913 170.232 71.3277 171.371 73.9518 170.78C76.3357 170.244 79.2186 168.895 80.2843 166.542C80.5572 165.997 80.7116 165.401 80.7374 164.793C80.7633 164.184 80.6599 163.577 80.4341 163.011C80.2082 162.446 79.8652 161.934 79.4274 161.511C78.9896 161.087 78.4671 160.761 77.8942 160.554C74.4261 159.39 69.1285 163.326 67.1881 165.957C67.0711 166.117 66.0177 167.934 65.3401 169.098C65.6173 168.359 65.8945 167.645 66.1656 166.875C66.72 165.365 67.2313 163.844 67.7795 162.211C68.0197 161.411 68.2661 160.604 68.5064 159.784C68.7466 158.965 68.9376 158.103 69.1593 157.253C69.6337 155.269 70.0156 153.236 70.3544 151.185C71.6726 151.665 76.3973 153.31 78.8429 153.138C81.2884 152.965 84.3314 152.072 85.7421 149.904C86.1058 149.409 86.3599 148.843 86.4873 148.243C86.6146 147.642 86.6123 147.022 86.4805 146.422C86.3487 145.823 86.0905 145.258 85.7231 144.767C85.3556 144.275 84.8875 143.867 84.3499 143.571C81.0974 141.89 75.2639 144.988 72.9477 147.267C72.8061 147.409 71.3277 149.251 70.533 150.28C70.7301 149.048 70.9273 147.815 71.0874 146.553C71.5371 142.924 71.8759 139.235 72.2393 135.557C72.3441 134.43 72.4673 133.309 72.5905 132.188C73.0586 132.366 78.6273 134.436 81.3685 134.245C83.8017 134.073 86.857 133.179 88.2677 131.011C88.6183 130.514 88.86 129.949 88.9769 129.353C89.0938 128.756 89.0833 128.142 88.946 127.55C88.8087 126.958 88.5478 126.401 88.1804 125.917C87.8129 125.433 87.3472 125.032 86.8139 124.74C83.5614 123.065 77.7279 126.157 75.4117 128.436C75.2331 128.609 73.1141 131.264 72.6089 131.966C72.8677 129.502 73.151 127.038 73.5329 124.611C74.0271 121.347 74.7308 118.119 75.6397 114.946C75.8614 115.032 81.6641 117.219 84.4731 117.022C86.9063 116.855 89.9616 115.956 91.3723 113.794C91.7167 113.297 91.9526 112.733 92.0648 112.138C92.177 111.544 92.1629 110.933 92.0235 110.344C91.8841 109.756 91.6224 109.203 91.2555 108.723C90.8886 108.242 90.4247 107.844 89.8939 107.554C86.6414 105.878 80.8141 108.971 78.4917 111.25C78.3131 111.435 76.0277 114.287 75.6581 114.835C75.7074 114.65 75.7444 114.453 75.7998 114.274C76.8058 111.118 78.0879 108.057 79.6313 105.127C80.4629 103.494 81.35 101.985 82.2493 100.538C83.2842 101.055 88.0644 103.371 90.6085 103.476C93.0725 103.574 96.1833 103.02 97.8218 101.012C98.2271 100.556 98.5313 100.02 98.7143 99.4389C98.8973 98.8574 98.9548 98.2437 98.8832 97.6383C98.8116 97.0329 98.6125 96.4496 98.2989 95.9268C97.9854 95.404 97.5645 94.9536 97.0641 94.6054C93.9841 92.5849 87.8796 95.0181 85.3232 97.0694C85.1815 97.1803 83.8941 98.4677 82.9701 99.4102C83.3828 98.7942 83.8017 98.0858 84.2021 97.476C85.7359 95.166 87.2821 93.164 88.6619 91.3776C89.4565 90.3735 90.1896 89.4803 90.8918 88.6549C92.1793 88.6549 97.3537 88.4762 99.6205 87.4229C101.887 86.3695 104.358 84.4476 104.893 81.922C105.043 81.3314 105.066 80.7158 104.96 80.1158C104.855 79.5158 104.623 78.945 104.281 78.441C103.939 77.937 103.494 77.5112 102.975 77.1917C102.456 76.8722 101.876 76.6662 101.271 76.5874C97.6309 76.1993 93.3065 81.1828 91.976 84.1704C91.8589 84.4291 90.5284 88.6733 90.5961 88.6733H90.6701C89.9801 89.4557 89.2533 90.3057 88.4771 91.2421C87.0541 92.9915 85.4587 94.9812 83.8756 97.2665C82.1361 99.7042 80.542 102.242 79.1016 104.868C77.47 107.799 76.1052 110.871 75.0237 114.046L74.9867 114.163C74.9867 113.092 74.9867 110.092 74.9313 109.851C74.5124 106.605 71.7958 100.611 68.1922 99.9277C67.5912 99.8306 66.9764 99.8618 66.3883 100.019C65.8002 100.177 65.2522 100.457 64.7803 100.842C64.3083 101.227 63.9232 101.707 63.6502 102.251C63.3772 102.795 63.2226 103.391 63.1965 103.999C62.987 106.574 64.8535 109.155 66.6769 110.775C68.7281 112.623 74.4261 114.385 74.882 114.521C73.8598 117.78 73.0552 121.103 72.4734 124.469C72.1223 126.428 71.8574 128.411 71.5679 130.401C71.5679 129.471 71.5679 128.646 71.5186 128.553C71.0997 125.313 68.3832 119.313 64.7796 118.629C64.179 118.533 63.5649 118.565 62.9775 118.723C62.3902 118.881 61.8429 119.162 61.3717 119.546C60.9005 119.931 60.5159 120.411 60.2433 120.955C59.9707 121.498 59.8162 122.094 59.79 122.701C59.5744 125.282 61.4409 127.857 63.2642 129.477C65.0876 131.097 69.9417 132.742 71.2229 133.173C71.1305 133.937 71.0258 134.701 70.9334 135.471C70.4961 139.167 70.0772 142.807 69.5474 146.393C69.3688 147.625 69.1409 148.894 68.9314 150.132C68.9314 149.312 68.9006 148.616 68.8883 148.512C68.4694 145.271 65.7529 139.272 62.1554 138.588C61.5539 138.49 60.9385 138.52 60.3496 138.677C59.7608 138.835 59.212 139.115 58.7394 139.5C58.2667 139.884 57.881 140.365 57.6077 140.91C57.3343 141.454 57.1795 142.051 57.1535 142.66C56.9441 145.234 58.8105 147.815 60.6339 149.436C62.4573 151.056 66.8432 152.516 68.3647 153.033C68.0937 154.265 67.8288 155.559 67.5146 156.766C67.2805 157.591 67.1142 158.398 66.8309 159.23C66.5475 160.062 66.3134 160.838 66.0547 161.632C65.5065 163.148 64.9459 164.712 64.373 166.172C63.9849 167.189 63.5907 168.156 63.1965 169.123C63.3997 167.891 63.7324 165.427 63.7385 165.193C63.6975 162.318 62.9214 159.502 61.484 157.012C61.4911 156.691 61.4705 156.369 61.4224 156.051C61.3523 155.445 61.1541 154.86 60.841 154.336C60.5279 153.811 60.107 153.36 59.6061 153.01C59.1053 152.661 58.5359 152.422 57.9358 152.309C57.3356 152.196 56.7183 152.212 56.1248 152.355C52.5889 153.298 50.3467 159.507 50.1804 162.772C50.1804 162.963 50.2913 165.063 50.396 166.388C50.2173 165.618 50.051 164.866 49.8601 164.078C49.4905 162.513 49.0716 160.998 48.6281 159.298C48.3817 158.497 48.1414 157.69 47.895 156.877C47.6486 156.064 47.3221 155.232 47.0388 154.413C46.3365 152.503 45.5357 150.594 44.6857 148.696C46.0532 148.37 50.9011 147.132 52.8477 145.616C54.7942 144.101 56.8393 141.699 56.8209 139.111C56.8405 138.502 56.7309 137.896 56.4992 137.333C56.2675 136.769 55.919 136.261 55.4767 135.842C55.0343 135.423 54.5082 135.102 53.9329 134.901C53.3576 134.7 52.7463 134.624 52.1393 134.676C48.4987 135.07 45.3633 140.867 44.6795 144.07C44.6425 144.273 44.4269 146.62 44.3345 147.914C43.8109 146.774 43.2997 145.635 42.7329 144.501C41.1067 141.224 39.3634 137.96 37.6325 134.695C37.1027 133.697 36.5853 132.693 36.0617 131.695C36.5545 131.584 42.3449 130.235 44.5193 128.566C46.4597 127.081 48.511 124.648 48.4925 122.067C48.5121 121.458 48.4027 120.853 48.1713 120.289C47.94 119.726 47.592 119.219 47.1504 118.8C46.7087 118.381 46.1833 118.06 45.6088 117.859C45.0343 117.657 44.4237 117.58 43.8171 117.632C40.1765 118.026 37.0411 123.792 36.3573 127.026C36.3081 127.266 36.0062 130.648 35.9693 131.51C34.8235 129.305 33.7024 127.093 32.6798 124.87C31.291 121.87 30.0976 118.783 29.107 115.63C29.3349 115.58 35.3841 114.207 37.6201 112.494C39.5544 111.009 41.6118 108.576 41.5933 105.989C41.613 105.38 41.5034 104.774 41.2717 104.21C41.04 103.647 40.6915 103.139 40.2491 102.72C39.8068 102.3 39.2806 101.98 38.7054 101.779C38.1301 101.578 37.5188 101.501 36.9117 101.554C33.2773 101.954 30.1357 107.751 29.4581 110.948C29.4027 111.2 29.0762 114.841 29.0639 115.506C29.0085 115.321 28.9284 115.137 28.8791 114.958C27.9739 111.771 27.3554 108.51 27.0311 105.213C26.8278 103.396 26.7354 101.646 26.68 99.94C27.8319 99.8045 33.0987 99.1022 35.2732 97.784C37.4477 96.4657 39.6714 94.3282 39.9363 91.7533C40.0235 91.1504 39.982 90.5359 39.8145 89.9501C39.6469 89.3644 39.3572 88.8209 38.9643 88.3553C38.5715 87.8897 38.0844 87.5126 37.5353 87.2489C36.9861 86.9852 36.3873 86.8408 35.7783 86.8253C32.0823 86.8253 28.337 92.2338 27.3329 95.3446C27.2775 95.5171 26.9079 97.2973 26.6615 98.5971C26.6615 97.8271 26.6184 97.0325 26.6245 96.2933C26.6245 93.5274 26.8032 90.9957 26.9757 88.7473C27.0865 87.4721 27.2097 86.3264 27.3391 85.2484C28.3986 84.5215 32.6305 81.5524 33.9303 79.3964C35.2301 77.2404 36.2403 74.3021 35.2917 71.8997C35.0919 71.3236 34.7723 70.7964 34.3539 70.3529C33.9355 69.9094 33.4278 69.5597 32.8643 69.3268C32.3008 69.094 31.6943 68.9833 31.0849 69.002C30.4754 69.0208 29.8769 69.1686 29.3288 69.4357C26.0517 71.1481 25.2139 77.6962 25.7375 80.9179C25.7868 81.1951 27.0126 85.4701 27.0681 85.4332L27.1297 85.3901C26.988 86.4249 26.8463 87.5337 26.7169 88.7473C26.4952 90.9895 26.2611 93.5274 26.1995 96.3056C26.1045 99.2995 26.1868 102.296 26.4459 105.281C26.7026 108.626 27.2592 111.941 28.1091 115.186C28.1091 115.223 28.1091 115.26 28.1461 115.303C27.567 114.397 25.873 111.921 25.719 111.743C23.5815 109.279 17.9944 105.755 14.631 107.184C14.0754 107.435 13.5794 107.801 13.1755 108.258C12.7717 108.714 12.4693 109.251 12.2883 109.833C12.1072 110.416 12.0517 111.029 12.1253 111.635C12.1989 112.24 12.4 112.822 12.7153 113.344C13.9226 115.605 16.9041 116.732 19.3188 117.077Z" fill="#44E0AA"/>
<path d="M82.0893 99.8788C82.1447 99.9157 83.2535 95.6099 83.3213 95.3265C83.771 92.0925 82.7361 85.5691 79.4405 83.9798C78.8861 83.7272 78.2845 83.595 77.6753 83.5919C77.0661 83.5887 76.4632 83.7146 75.9062 83.9614C75.3492 84.2082 74.8508 84.5702 74.4439 85.0235C74.037 85.4769 73.7307 86.0113 73.5454 86.5916C72.6645 89.0187 73.7856 91.994 75.11 94.0452C76.6438 96.4538 82.0831 99.8726 82.0893 99.8788Z" fill="#44E0AA"/>
<path d="M178.093 242.31C179.546 242.926 183.101 242.864 183.107 242.864C183.113 242.864 182.343 240.536 182.275 240.4C181.493 238.768 179.023 236.088 177.015 236.341C176.682 236.395 176.365 236.519 176.084 236.704C175.803 236.889 175.564 237.131 175.383 237.415C175.201 237.699 175.082 238.017 175.032 238.35C174.982 238.683 175.003 239.023 175.093 239.347C175.425 240.733 176.855 241.78 178.093 242.31Z" fill="#44E0AA"/>
<path d="M179.469 252.653C180.978 252.869 184.157 251.951 184.397 251.877C184.919 253.694 185.561 255.474 186.319 257.206C186.756 258.216 187.231 259.22 187.711 260.224C187.422 259.799 187.163 259.423 187.095 259.374C185.912 258.006 182.82 256.054 180.935 256.848C180.629 256.988 180.355 257.191 180.132 257.443C179.909 257.695 179.742 257.992 179.641 258.313C179.541 258.635 179.509 258.974 179.549 259.308C179.588 259.643 179.697 259.965 179.869 260.255C180.559 261.487 182.21 262.103 183.565 262.324C184.921 262.546 187.643 261.789 188.364 261.591L188.931 262.737C189.849 264.585 190.779 266.39 191.629 268.207C191.931 268.823 192.202 269.489 192.479 270.129C192.22 269.753 191.998 269.433 191.962 269.39C190.779 268.022 187.686 266.076 185.802 266.864C185.496 267.005 185.223 267.208 185 267.46C184.778 267.713 184.611 268.009 184.511 268.331C184.41 268.652 184.378 268.99 184.417 269.325C184.456 269.659 184.565 269.981 184.736 270.271C185.426 271.503 187.077 272.15 188.432 272.341C189.787 272.532 192.251 271.879 193.101 271.645C193.366 272.31 193.631 272.975 193.853 273.628C193.994 274.078 194.167 274.503 194.284 274.965C194.401 275.427 194.536 275.87 194.66 276.314C194.869 277.182 195.085 278.069 195.276 278.92C195.405 279.536 195.516 280.078 195.633 280.644C195.343 280.028 194.746 278.796 194.684 278.667C193.717 277.133 190.957 274.737 188.992 275.236C188.669 275.329 188.368 275.489 188.111 275.705C187.853 275.921 187.643 276.19 187.496 276.492C187.348 276.795 187.266 277.125 187.254 277.462C187.242 277.798 187.302 278.133 187.428 278.445C187.914 279.788 189.454 280.657 190.748 281.051C192.171 281.482 195.325 281.088 195.713 281.051C195.904 281.993 196.076 282.899 196.23 283.78C196.341 284.427 196.446 285.043 196.545 285.628H197.777C197.66 284.969 197.53 284.279 197.388 283.552C197.198 282.597 196.976 281.581 196.742 280.533C197.692 280.157 198.618 279.721 199.514 279.228C200.555 280.355 203.21 281.692 203.555 281.833C203.191 282.726 202.834 283.589 202.477 284.396L201.935 285.628H203.265C203.376 285.375 203.481 285.129 203.585 284.864C203.955 283.958 204.337 283.016 204.713 281.987C205.095 282.067 208.218 282.702 209.672 282.375C210.99 282.073 212.585 281.328 213.177 280.028C213.326 279.726 213.41 279.396 213.424 279.059C213.437 278.722 213.38 278.386 213.255 278.073C213.13 277.76 212.94 277.476 212.699 277.241C212.457 277.006 212.169 276.824 211.852 276.708C209.93 276.092 206.998 278.248 205.926 279.702C205.858 279.788 205.31 280.798 204.916 281.439C205.07 281.032 205.224 280.638 205.378 280.207C205.686 279.369 205.963 278.525 206.271 277.62C206.401 277.176 206.536 276.733 206.672 276.277C206.807 275.821 206.912 275.347 207.035 274.872C207.294 273.776 207.503 272.655 207.694 271.515C208.427 271.78 211.039 272.692 212.394 272.599C213.749 272.507 215.437 271.983 216.22 270.807C216.413 270.531 216.546 270.218 216.61 269.888C216.674 269.557 216.667 269.217 216.591 268.89C216.515 268.562 216.371 268.254 216.168 267.986C215.965 267.717 215.707 267.495 215.413 267.333C213.608 266.402 210.38 268.115 209.099 269.39C209.019 269.47 208.199 270.493 207.762 271.059C207.867 270.376 207.978 269.692 208.064 268.996C208.316 266.988 208.507 264.943 208.68 262.904C208.741 262.288 208.809 261.672 208.871 261.056C209.136 261.154 212.216 262.288 213.737 262.195C215.086 262.103 216.774 261.579 217.556 260.409C217.749 260.133 217.882 259.819 217.947 259.488C218.011 259.158 218.004 258.817 217.928 258.489C217.852 258.161 217.708 257.852 217.505 257.583C217.302 257.314 217.044 257.091 216.749 256.928C214.951 256.004 211.717 257.717 210.435 258.992C210.337 259.09 209.166 260.557 208.883 260.945C209.031 259.577 209.185 258.21 209.394 256.873C209.671 255.066 210.061 253.278 210.565 251.52C210.682 251.569 213.897 252.783 215.456 252.672C216.805 252.579 218.493 252.056 219.275 250.879C219.468 250.604 219.601 250.291 219.665 249.96C219.729 249.63 219.723 249.29 219.647 248.962C219.57 248.634 219.426 248.326 219.223 248.058C219.02 247.79 218.763 247.567 218.468 247.405C216.669 246.475 213.435 248.187 212.154 249.462C212.055 249.567 210.793 251.144 210.583 251.446C210.614 251.347 210.632 251.236 210.663 251.138C211.217 249.39 211.926 247.695 212.782 246.074C213.244 245.169 213.737 244.331 214.23 243.53C214.809 243.82 217.452 245.101 218.862 245.157C220.273 245.212 221.942 244.904 222.854 243.801C223.077 243.549 223.245 243.252 223.345 242.93C223.446 242.608 223.478 242.269 223.438 241.934C223.399 241.599 223.289 241.276 223.116 240.986C222.943 240.697 222.711 240.447 222.435 240.253C220.747 239.132 217.353 240.481 215.936 241.608C215.856 241.67 215.148 242.378 214.63 242.902C214.864 242.545 215.092 242.169 215.32 241.83C216.164 240.555 217.02 239.44 217.784 238.454C218.222 237.9 218.628 237.407 219.016 236.945C219.731 236.945 222.595 236.847 223.852 236.262C225.108 235.676 226.476 234.611 226.772 233.212C226.853 232.885 226.864 232.545 226.804 232.214C226.745 231.882 226.616 231.567 226.427 231.289C226.237 231.01 225.991 230.775 225.704 230.598C225.418 230.421 225.097 230.306 224.764 230.262C222.749 230.04 220.353 232.806 219.62 234.457C219.552 234.598 218.813 236.951 218.85 236.951H218.893C218.511 237.383 218.111 237.851 217.661 238.374C216.873 239.342 215.992 240.444 215.111 241.707C214.149 243.057 213.266 244.461 212.468 245.914C211.567 247.539 210.81 249.239 210.207 250.996C210.211 251.019 210.211 251.042 210.207 251.064C210.207 250.448 210.207 248.809 210.207 248.68C209.973 246.888 208.47 243.555 206.481 243.185C206.148 243.133 205.808 243.151 205.482 243.239C205.157 243.327 204.854 243.482 204.592 243.695C204.331 243.908 204.117 244.173 203.965 244.473C203.813 244.774 203.725 245.103 203.709 245.44C203.592 246.869 204.626 248.298 205.637 249.198C206.776 250.214 209.949 251.193 210.183 251.273C209.617 253.078 209.171 254.918 208.846 256.78C208.655 257.865 208.495 258.961 208.347 260.064C208.347 259.552 208.347 259.09 208.347 259.029C208.113 257.236 206.61 253.904 204.614 253.534C204.282 253.482 203.942 253.5 203.617 253.588C203.292 253.676 202.989 253.831 202.728 254.044C202.467 254.257 202.254 254.522 202.102 254.823C201.951 255.123 201.864 255.452 201.848 255.789C201.731 257.218 202.766 258.641 203.77 259.546C204.774 260.452 207.466 261.351 208.181 261.579C208.125 262.004 208.07 262.423 208.021 262.848C207.78 264.881 207.546 266.914 207.251 268.897C207.152 269.599 207.023 270.283 206.9 270.967C206.9 270.511 206.9 270.129 206.9 270.074C206.672 268.275 205.162 264.942 203.204 264.573C202.871 264.522 202.531 264.541 202.206 264.629C201.881 264.718 201.578 264.874 201.317 265.087C201.056 265.3 200.843 265.566 200.692 265.867C200.54 266.168 200.454 266.497 200.438 266.834C200.321 268.257 201.355 269.686 202.36 270.585C203.364 271.484 205.797 272.304 206.641 272.575C206.493 273.277 206.345 273.979 206.173 274.644C206.043 275.1 205.951 275.55 205.791 276L205.366 277.33C205.058 278.168 204.75 279.037 204.429 279.844C204.214 280.41 203.998 280.94 203.813 281.482C203.924 280.786 204.109 279.418 204.109 279.301C204.095 277.711 203.67 276.152 202.877 274.774C202.88 274.597 202.868 274.419 202.84 274.244C202.799 273.91 202.688 273.587 202.514 273.299C202.34 273.01 202.106 272.762 201.83 272.569C201.553 272.377 201.239 272.245 200.908 272.182C200.577 272.119 200.236 272.127 199.908 272.205C197.949 272.729 196.705 276.166 196.612 277.971C196.612 278.082 196.68 279.246 196.736 279.979C196.637 279.554 196.545 279.135 196.44 278.698C196.23 277.835 196.002 276.973 195.756 276.049C195.627 275.605 195.491 275.162 195.35 274.712C195.208 274.263 195.035 273.801 194.881 273.339C194.493 272.279 194.05 271.226 193.575 270.172C194.333 269.994 197.019 269.31 198.097 268.478C199.175 267.647 200.302 266.31 200.296 264.881C200.306 264.544 200.244 264.208 200.116 263.896C199.987 263.584 199.794 263.302 199.549 263.07C199.305 262.838 199.014 262.659 198.696 262.547C198.377 262.434 198.039 262.39 197.703 262.417C195.688 262.639 193.939 265.848 193.575 267.622C193.575 267.733 193.434 269.033 193.378 269.747C193.095 269.131 192.805 268.484 192.497 267.856C191.598 266.045 190.649 264.234 189.67 262.429C189.374 261.875 189.091 261.32 188.801 260.766C189.072 260.704 192.276 259.959 193.483 259.035C194.555 258.21 195.694 256.861 195.688 255.431C195.699 255.094 195.638 254.758 195.51 254.445C195.382 254.133 195.189 253.851 194.944 253.618C194.699 253.386 194.408 253.207 194.089 253.095C193.77 252.983 193.432 252.939 193.095 252.967C191.081 253.183 189.331 256.392 188.962 258.167C188.962 258.302 188.771 260.175 188.746 260.63C188.13 259.398 187.514 258.167 186.929 256.934C186.157 255.276 185.496 253.568 184.951 251.822C185.075 251.791 188.426 251.033 189.664 250.085C190.736 249.259 191.875 247.916 191.863 246.481C191.874 246.143 191.813 245.807 191.685 245.495C191.556 245.182 191.363 244.901 191.118 244.668C190.874 244.435 190.582 244.257 190.264 244.145C189.945 244.033 189.606 243.989 189.27 244.017C187.255 244.233 185.506 247.442 185.142 249.216C185.142 249.358 184.933 251.372 184.927 251.742C184.896 251.637 184.853 251.538 184.822 251.434C184.318 249.669 183.974 247.863 183.793 246.037C183.682 245.033 183.633 244.066 183.602 243.124C184.218 243.044 187.157 242.656 188.364 241.923C189.571 241.19 190.797 240.013 190.945 238.59C190.991 238.256 190.966 237.917 190.873 237.593C190.779 237.27 190.618 236.97 190.401 236.713C190.184 236.455 189.915 236.246 189.612 236.1C189.308 235.953 188.978 235.872 188.641 235.861C186.608 235.861 184.52 238.855 183.96 240.58C183.929 240.672 183.726 241.658 183.59 242.378C183.59 241.953 183.59 241.516 183.59 241.103C183.59 239.569 183.689 238.171 183.787 236.927C183.843 236.218 183.917 235.584 183.984 234.986C184.57 234.586 186.916 232.929 187.637 231.746C188.358 230.564 188.918 228.925 188.389 227.594C188.276 227.277 188.098 226.987 187.865 226.743C187.633 226.499 187.352 226.307 187.04 226.179C186.729 226.052 186.394 225.991 186.057 226.001C185.721 226.011 185.39 226.093 185.087 226.239C183.288 227.169 182.814 230.791 183.11 232.578C183.14 232.732 183.818 235.097 183.849 235.079H183.886C183.806 235.652 183.726 236.268 183.652 236.927C183.528 238.159 183.405 239.576 183.368 241.116C183.308 242.771 183.347 244.429 183.485 246.081C183.628 247.934 183.935 249.77 184.403 251.569V251.631C184.083 251.132 183.171 249.783 183.06 249.666C181.878 248.292 178.785 246.345 176.9 247.14C176.594 247.28 176.322 247.483 176.099 247.736C175.877 247.989 175.71 248.285 175.61 248.606C175.509 248.927 175.477 249.266 175.516 249.6C175.555 249.935 175.663 250.257 175.835 250.547C176.481 251.834 178.132 252.456 179.469 252.653Z" fill="#44E0AA"/>
<path d="M214.08 243.092C214.08 243.092 214.696 240.727 214.751 240.573C214.997 238.78 214.425 235.165 212.601 234.284C212.294 234.146 211.961 234.075 211.624 234.074C211.287 234.074 210.954 234.144 210.646 234.28C210.339 234.417 210.063 234.617 209.837 234.867C209.612 235.117 209.441 235.411 209.336 235.731C208.85 237.074 209.466 238.725 210.205 239.858C211.067 241.195 214.08 243.086 214.08 243.092Z" fill="#44E0AA"/>
<path d="M169.192 114.12H51.5295C47.5184 114.12 44.2668 117.372 44.2668 121.383V278.623C44.2668 282.634 47.5184 285.886 51.5295 285.886H169.192C173.203 285.886 176.454 282.634 176.454 278.623V121.383C176.454 117.372 173.203 114.12 169.192 114.12Z" fill="#5063F4"/>
<path d="M170.128 124.277H50.5933V277.735H170.128V124.277Z" fill="white" stroke="#263238" stroke-linecap="round" stroke-linejoin="round"/>
<path d="M86.0872 147.261H134.634" stroke="#263238" stroke-linecap="round" stroke-linejoin="round"/>
<path d="M140.967 168.174H157.79" stroke="#263238" stroke-linecap="round" stroke-linejoin="round"/>
<path d="M92.5674 168.174H136.962" stroke="#263238" stroke-linecap="round" stroke-linejoin="round"/>
<path d="M71.876 168.174H89.5675" stroke="#263238" stroke-linecap="round" stroke-linejoin="round"/>
<path d="M62.9316 168.174H67.5393" stroke="#263238" stroke-linecap="round" stroke-linejoin="round"/>
<path d="M141.299 184.603H157.789" stroke="#263238" stroke-linecap="round" stroke-linejoin="round"/>
<path d="M113.93 184.603H137.966" stroke="#263238" stroke-linecap="round" stroke-linejoin="round"/>
<path d="M72.8801 184.603H110.259" stroke="#263238" stroke-linecap="round" stroke-linejoin="round"/>
<path d="M62.9316 184.603H68.5372" stroke="#263238" stroke-linecap="round" stroke-linejoin="round"/>
<path d="M131.954 201.037H157.789" stroke="#263238" stroke-linecap="round" stroke-linejoin="round"/>
<path d="M76.5515 201.037H127.285" stroke="#263238" stroke-linecap="round" stroke-linejoin="round"/>
<path d="M62.9316 201.037H72.5412" stroke="#263238" stroke-linecap="round" stroke-linejoin="round"/>
<path d="M151.648 217.466H157.789" stroke="#263238" stroke-linecap="round" stroke-linejoin="round"/>
<path d="M80.5554 217.466H145.309" stroke="#263238" stroke-linecap="round" stroke-linejoin="round"/>
<path d="M62.9316 217.466H75.88" stroke="#263238" stroke-linecap="round" stroke-linejoin="round"/>
<path d="M150.65 233.901H157.79" stroke="#263238" stroke-linecap="round" stroke-linejoin="round"/>
<path d="M94.9082 233.901H145.309" stroke="#263238" stroke-linecap="round" stroke-linejoin="round"/>
<path d="M62.9316 233.901H90.5654" stroke="#263238" stroke-linecap="round" stroke-linejoin="round"/>
<path d="M125.616 250.33H157.789" stroke="#263238" stroke-linecap="round" stroke-linejoin="round"/>
<path d="M62.9316 250.33H119.271" stroke="#263238" stroke-linecap="round" stroke-linejoin="round"/>
<path d="M126.103 110.652C125.518 110.646 124.946 110.482 124.448 110.177C123.95 109.872 123.544 109.437 123.273 108.919C123.002 108.401 122.877 107.82 122.911 107.236C122.945 106.653 123.137 106.09 123.466 105.607C124.543 103.884 125.137 101.904 125.186 99.8734C125.235 97.8426 124.737 95.8361 123.744 94.0639C122.751 92.2917 121.3 90.8191 119.543 89.8003C117.785 88.7815 115.786 88.254 113.755 88.273C111.724 88.292 109.735 88.8568 107.997 89.9083C106.259 90.9598 104.836 92.4593 103.876 94.2498C102.917 96.0402 102.456 98.0557 102.543 100.085C102.63 102.115 103.261 104.083 104.37 105.785C104.668 106.272 104.83 106.829 104.84 107.4C104.85 107.97 104.707 108.533 104.426 109.029C104.145 109.526 103.736 109.938 103.242 110.223C102.748 110.509 102.187 110.657 101.617 110.652H81.9045L87.2268 125.941H140.455L145.778 110.652H126.103ZM113.844 104.141C113.059 104.142 112.291 103.91 111.638 103.475C110.985 103.039 110.475 102.42 110.174 101.695C109.873 100.969 109.794 100.171 109.947 99.4012C110.1 98.6311 110.478 97.9237 111.033 97.3685C111.588 96.8133 112.295 96.4354 113.066 96.2825C113.836 96.1296 114.634 96.2087 115.359 96.5097C116.084 96.8108 116.704 97.3202 117.139 97.9735C117.574 98.6268 117.806 99.3947 117.805 100.18C117.805 101.23 117.388 102.238 116.645 102.981C115.902 103.723 114.895 104.141 113.844 104.141Z" fill="white" stroke="#263238" stroke-linecap="round" stroke-linejoin="round"/>
<path d="M83.6079 265.055C89.2044 259.973 89.6217 251.317 84.54 245.72C79.4583 240.124 70.8019 239.706 65.2054 244.788C59.6089 249.87 59.1916 258.526 64.2733 264.123C69.355 269.719 78.0114 270.136 83.6079 265.055Z" fill="#EFF2FE"/>
<path d="M75.3935 260.654C74.9543 260.65 74.5209 260.553 74.1225 260.368C73.7241 260.183 73.3698 259.915 73.0835 259.582L67.0775 252.56C66.7778 252.259 66.5433 251.901 66.3887 251.506C66.2342 251.111 66.1629 250.688 66.1793 250.264C66.1957 249.84 66.2995 249.424 66.4841 249.043C66.6688 248.661 66.9303 248.321 67.2523 248.045C67.5743 247.769 67.9499 247.562 68.3555 247.438C68.761 247.314 69.1879 247.275 69.6092 247.324C70.0306 247.372 70.4374 247.507 70.8042 247.72C71.1709 247.933 71.4897 248.22 71.7406 248.562L75.4366 252.911L87.7566 239.162C88.0169 238.829 88.3426 238.554 88.7136 238.353C89.0847 238.152 89.493 238.03 89.9134 237.993C90.3338 237.956 90.7572 238.007 91.1574 238.14C91.5576 238.274 91.926 238.489 92.2398 238.771C92.5536 239.053 92.8061 239.397 92.9817 239.78C93.1572 240.164 93.252 240.58 93.2602 241.002C93.2684 241.423 93.1898 241.843 93.0293 242.233C92.8689 242.623 92.6299 242.976 92.3273 243.27L77.6419 259.625C77.3532 259.945 77.0006 260.201 76.607 260.376C76.2133 260.551 75.7873 260.641 75.3565 260.641L75.3935 260.654Z" fill="#5063F4"/>
<path d="M90.1033 239.076C90.5193 239.074 90.9268 239.193 91.2761 239.419C91.6254 239.645 91.9015 239.968 92.0706 240.348C92.2397 240.728 92.2946 241.149 92.2286 241.56C92.1626 241.97 91.9785 242.353 91.6988 242.661L77.0133 259.016C76.8128 259.241 76.567 259.42 76.292 259.544C76.017 259.667 75.7192 259.73 75.4179 259.73C75.1116 259.728 74.8093 259.66 74.5318 259.53C74.2543 259.401 74.0081 259.212 73.8101 258.979L67.7733 251.944C67.5831 251.731 67.4374 251.481 67.3447 251.211C67.2519 250.941 67.2141 250.654 67.2333 250.369C67.2525 250.084 67.3284 249.805 67.4566 249.55C67.5847 249.294 67.7626 249.067 67.9797 248.881C68.1968 248.695 68.4488 248.554 68.721 248.467C68.9932 248.379 69.2801 248.347 69.5649 248.372C69.8497 248.397 70.1266 248.478 70.3796 248.611C70.6326 248.744 70.8565 248.927 71.0381 249.147L75.4549 254.297L88.5017 239.766C88.703 239.54 88.9498 239.36 89.2259 239.237C89.502 239.113 89.801 239.05 90.1033 239.051M90.1033 237.203C89.5425 237.204 88.9881 237.323 88.4757 237.551C87.9633 237.779 87.5043 238.112 87.1281 238.528L75.4857 251.494L72.4426 247.946C72.1042 247.537 71.6876 247.199 71.2171 246.953C70.7467 246.706 70.2319 246.556 69.7027 246.51C69.1735 246.465 68.6406 246.526 68.1351 246.689C67.6296 246.852 67.1617 247.114 66.7586 247.459C66.3555 247.805 66.0253 248.228 65.7874 248.703C65.5495 249.178 65.4085 249.695 65.3728 250.225C65.3371 250.755 65.4073 251.287 65.5794 251.789C65.7515 252.291 66.022 252.755 66.375 253.151L72.381 260.161C72.7519 260.592 73.2101 260.939 73.7252 261.179C74.2402 261.419 74.8004 261.546 75.3686 261.554H75.4179C75.9781 261.554 76.5322 261.437 77.0439 261.208C77.5555 260.98 78.0132 260.647 78.387 260.229L93.0786 243.874C93.5927 243.299 93.9296 242.587 94.0485 241.824C94.1675 241.062 94.0635 240.281 93.7492 239.576C93.4348 238.871 92.9235 238.272 92.2767 237.851C91.6298 237.43 90.8751 237.205 90.1033 237.203Z" fill="white"/>
</svg>
