<svg width="40" height="40" viewBox="0 0 40 40" fill="none" xmlns="http://www.w3.org/2000/svg">
<path d="M14.1666 3.33325C9.99998 3.33325 6.66665 6.66659 6.66665 10.8333V11.6666C4.81665 11.6666 3.33331 13.1499 3.33331 14.9999V29.9999C3.33331 31.8499 4.81665 33.3333 6.66665 33.3333H14.5333C16.9666 35.4832 20.1 36.6666 23.3333 36.6666C26.8695 36.6666 30.2609 35.2618 32.7614 32.7613C35.2619 30.2609 36.6666 26.8695 36.6666 23.3333C36.6666 19.797 35.2619 16.4056 32.7614 13.9052C30.2609 11.4047 26.8695 9.99992 23.3333 9.99992C22.7666 9.99992 22.2 10.0499 21.6666 10.1333C21.2666 6.28325 18.0333 3.33325 14.1666 3.33325ZM14.1666 6.66659C15.2717 6.66659 16.3315 7.10557 17.1129 7.88697C17.8943 8.66838 18.3333 9.72818 18.3333 10.8333V11.6666H9.99998V10.8333C9.99998 9.72818 10.439 8.66838 11.2204 7.88697C12.0018 7.10557 13.0616 6.66659 14.1666 6.66659ZM23.3333 13.3333C25.9855 13.3333 28.529 14.3868 30.4044 16.2622C32.2797 18.1375 33.3333 20.6811 33.3333 23.3333C33.3333 25.9854 32.2797 28.529 30.4044 30.4043C28.529 32.2797 25.9855 33.3333 23.3333 33.3333C20.6811 33.3333 18.1376 32.2797 16.2622 30.4043C14.3869 28.529 13.3333 25.9854 13.3333 23.3333C13.3333 20.6811 14.3869 18.1375 16.2622 16.2622C18.1376 14.3868 20.6811 13.3333 23.3333 13.3333ZM21.6666 16.6666V24.9999L27.7333 28.6499L29.0333 26.4999L24.1666 23.5833V16.6666H21.6666Z" fill="#5063F4"/>
</svg>
