<svg width="40" height="40" viewBox="0 0 40 40" fill="none" xmlns="http://www.w3.org/2000/svg">
<path d="M5.58813 14.9174C6.67396 10.2883 10.2883 6.67395 14.9174 5.58813C18.2604 4.80396 21.7396 4.80396 25.0826 5.58813C29.7117 6.67395 33.3261 10.2884 34.4119 14.9174C35.196 18.2604 35.196 21.7396 34.4119 25.0826C33.3261 29.7117 29.7117 33.3261 25.0826 34.4119C21.7396 35.1961 18.2604 35.1961 14.9174 34.4119C10.2884 33.3261 6.67396 29.7117 5.58813 25.0826C4.80396 21.7396 4.80396 18.2604 5.58813 14.9174Z" fill="#EFF2FE" stroke="#5063F4" stroke-width="1.35"/>
<path d="M19.9583 19.2087C21.7993 19.2087 23.2917 17.7163 23.2917 15.8753C23.2917 14.0344 21.7993 12.542 19.9583 12.542C18.1174 12.542 16.625 14.0344 16.625 15.8753C16.625 17.7163 18.1174 19.2087 19.9583 19.2087Z" fill="#5063F4"/>
<path d="M26.6263 25.458C26.6263 27.5288 26.6263 29.208 19.9596 29.208C13.293 29.208 13.293 27.5288 13.293 25.458C13.293 23.3872 16.278 21.708 19.9596 21.708C23.6413 21.708 26.6263 23.3872 26.6263 25.458Z" fill="#5063F4"/>
</svg>
