<svg width="40" height="40" viewBox="0 0 40 40" fill="none" xmlns="http://www.w3.org/2000/svg">
<path d="M5.58813 14.9174C6.67396 10.2883 10.2883 6.67395 14.9174 5.58813C18.2604 4.80396 21.7396 4.80396 25.0826 5.58813C29.7117 6.67395 33.326 10.2883 34.4119 14.9174C35.196 18.2604 35.196 21.7396 34.4119 25.0826C33.326 29.7117 29.7117 33.326 25.0826 34.4119C21.7396 35.196 18.2604 35.196 14.9174 34.4119C10.2884 33.326 6.67396 29.7117 5.58813 25.0826C4.80396 21.7396 4.80396 18.2604 5.58813 14.9174Z" fill="#EFF2FE" stroke="#5063F4" stroke-width="1.35" stroke-linecap="round"/>
<path opacity="0.2" d="M28.125 20C28.125 20.9773 26.7328 21.7148 26.3531 22.632C25.9875 23.5164 26.4641 25.0266 25.7453 25.7453C25.0266 26.4641 23.5164 25.9875 22.632 26.3531C21.7188 26.7328 20.9766 28.125 20 28.125C19.0234 28.125 18.2812 26.7328 17.368 26.3531C16.4836 25.9875 14.9742 26.4641 14.2547 25.7453C13.5352 25.0266 14.0125 23.5164 13.6469 22.632C13.2672 21.7188 11.875 20.9766 11.875 20C11.875 19.0234 13.2672 18.2812 13.6469 17.368C14.0125 16.4844 13.5359 14.9734 14.2547 14.2547C14.9734 13.5359 16.4844 14.0125 17.368 13.6469C18.2852 13.2672 19.0234 11.875 20 11.875C20.9766 11.875 21.7188 13.2672 22.632 13.6469C23.5164 14.0125 25.0258 13.5359 25.7453 14.2547C26.4648 14.9734 25.9875 16.4836 26.3531 17.368C26.7328 18.2852 28.125 19.0234 28.125 20Z" fill="#5063F4"/>
<path d="M27.6453 18.0328C27.3508 17.725 27.0461 17.4078 26.9312 17.1289C26.825 16.8734 26.8187 16.45 26.8125 16.0398C26.8008 15.2773 26.7883 14.4133 26.1875 13.8125C25.5867 13.2117 24.7227 13.1992 23.9602 13.1875C23.55 13.1812 23.1266 13.175 22.8711 13.0687C22.593 12.9539 22.275 12.6492 21.9672 12.3547C21.4281 11.8367 20.8156 11.25 20 11.25C19.1844 11.25 18.5727 11.8367 18.0328 12.3547C17.725 12.6492 17.4078 12.9539 17.1289 13.0687C16.875 13.175 16.45 13.1812 16.0398 13.1875C15.2773 13.1992 14.4133 13.2117 13.8125 13.8125C13.2117 14.4133 13.2031 15.2773 13.1875 16.0398C13.1812 16.45 13.175 16.8734 13.0687 17.1289C12.9539 17.407 12.6492 17.725 12.3547 18.0328C11.8367 18.5727 11.25 19.1844 11.25 20C11.25 20.8156 11.8367 21.4273 12.3547 21.9672C12.6492 22.275 12.9539 22.5922 13.0687 22.8711C13.175 23.1266 13.1812 23.55 13.1875 23.9602C13.1992 24.7227 13.2117 25.5867 13.8125 26.1875C14.4133 26.7883 15.2773 26.8008 16.0398 26.8125C16.45 26.8187 16.8734 26.825 17.1289 26.9312C17.407 27.0461 17.725 27.3508 18.0328 27.6453C18.5719 28.1633 19.1844 28.75 20 28.75C20.8156 28.75 21.4273 28.1633 21.9672 27.6453C22.275 27.3508 22.5922 27.0461 22.8711 26.9312C23.1266 26.825 23.55 26.8187 23.9602 26.8125C24.7227 26.8008 25.5867 26.7883 26.1875 26.1875C26.7883 25.5867 26.8008 24.7227 26.8125 23.9602C26.8187 23.55 26.825 23.1266 26.9312 22.8711C27.0461 22.593 27.3508 22.275 27.6453 21.9672C28.1633 21.4273 28.75 20.8156 28.75 20C28.75 19.1844 28.1633 18.5727 27.6453 18.0328ZM26.743 21.1023C26.3687 21.493 25.9812 21.8969 25.7758 22.393C25.5789 22.8695 25.5703 23.4141 25.5625 23.9414C25.5547 24.4883 25.5461 25.0609 25.3031 25.3031C25.0602 25.5453 24.4914 25.5547 23.9414 25.5625C23.4141 25.5703 22.8695 25.5789 22.393 25.7758C21.8969 25.9812 21.493 26.3687 21.1023 26.743C20.7117 27.1172 20.3125 27.5 20 27.5C19.6875 27.5 19.2852 27.1156 18.8977 26.743C18.5102 26.3703 18.1031 25.9812 17.607 25.7758C17.1305 25.5789 16.5859 25.5703 16.0586 25.5625C15.5117 25.5547 14.9391 25.5461 14.6969 25.3031C14.4547 25.0602 14.4453 24.4914 14.4375 23.9414C14.4297 23.4141 14.4211 22.8695 14.2242 22.393C14.0187 21.8969 13.6312 21.493 13.257 21.1023C12.8828 20.7117 12.5 20.3125 12.5 20C12.5 19.6875 12.8844 19.2859 13.257 18.8977C13.6297 18.5094 14.0187 18.1031 14.2242 17.607C14.4211 17.1305 14.4297 16.5859 14.4375 16.0586C14.4453 15.5117 14.4539 14.9391 14.6969 14.6969C14.9398 14.4547 15.5086 14.4453 16.0586 14.4375C16.5859 14.4297 17.1305 14.4211 17.607 14.2242C18.1031 14.0187 18.507 13.6312 18.8977 13.257C19.2883 12.8828 19.6875 12.5 20 12.5C20.3125 12.5 20.7148 12.8844 21.1023 13.257C21.4898 13.6297 21.8969 14.0187 22.393 14.2242C22.8695 14.4211 23.4141 14.4297 23.9414 14.4375C24.4883 14.4453 25.0609 14.4539 25.3031 14.6969C25.5453 14.9398 25.5547 15.5086 25.5625 16.0586C25.5703 16.5859 25.5789 17.1305 25.7758 17.607C25.9812 18.1031 26.3687 18.507 26.743 18.8977C27.1172 19.2883 27.5 19.6875 27.5 20C27.5 20.3125 27.1156 20.7141 26.743 21.1023ZM19.375 17.5C19.375 17.1292 19.265 16.7666 19.059 16.4583C18.853 16.15 18.5601 15.9096 18.2175 15.7677C17.8749 15.6258 17.4979 15.5887 17.1342 15.661C16.7705 15.7334 16.4364 15.912 16.1742 16.1742C15.912 16.4364 15.7334 16.7705 15.661 17.1342C15.5887 17.4979 15.6258 17.8749 15.7677 18.2175C15.9096 18.5601 16.15 18.853 16.4583 19.059C16.7666 19.265 17.1292 19.375 17.5 19.375C17.9973 19.375 18.4742 19.1775 18.8258 18.8258C19.1775 18.4742 19.375 17.9973 19.375 17.5ZM16.875 17.5C16.875 17.3764 16.9117 17.2555 16.9803 17.1528C17.049 17.05 17.1466 16.9699 17.2608 16.9226C17.375 16.8753 17.5007 16.8629 17.6219 16.887C17.7432 16.9111 17.8545 16.9707 17.9419 17.0581C18.0293 17.1455 18.0889 17.2568 18.113 17.3781C18.1371 17.4993 18.1247 17.625 18.0774 17.7392C18.0301 17.8534 17.95 17.951 17.8472 18.0197C17.7445 18.0883 17.6236 18.125 17.5 18.125C17.3342 18.125 17.1753 18.0592 17.0581 17.9419C16.9408 17.8247 16.875 17.6658 16.875 17.5ZM22.5 20.625C22.1292 20.625 21.7666 20.735 21.4583 20.941C21.15 21.147 20.9096 21.4399 20.7677 21.7825C20.6258 22.1251 20.5887 22.5021 20.661 22.8658C20.7334 23.2295 20.912 23.5636 21.1742 23.8258C21.4364 24.088 21.7705 24.2666 22.1342 24.339C22.4979 24.4113 22.8749 24.3742 23.2175 24.2323C23.5601 24.0904 23.853 23.85 24.059 23.5417C24.265 23.2334 24.375 22.8708 24.375 22.5C24.375 22.0027 24.1775 21.5258 23.8258 21.1742C23.4742 20.8225 22.9973 20.625 22.5 20.625ZM22.5 23.125C22.3764 23.125 22.2555 23.0883 22.1528 23.0197C22.05 22.951 21.9699 22.8534 21.9226 22.7392C21.8753 22.625 21.8629 22.4993 21.887 22.3781C21.9111 22.2568 21.9706 22.1455 22.0581 22.0581C22.1455 21.9706 22.2568 21.9111 22.3781 21.887C22.4993 21.8629 22.625 21.8753 22.7392 21.9226C22.8534 21.9699 22.951 22.05 23.0197 22.1528C23.0883 22.2555 23.125 22.3764 23.125 22.5C23.125 22.6658 23.0592 22.8247 22.9419 22.9419C22.8247 23.0592 22.6658 23.125 22.5 23.125ZM23.5672 17.3172L17.3172 23.5672C17.2591 23.6253 17.1902 23.6713 17.1143 23.7027C17.0384 23.7342 16.9571 23.7503 16.875 23.7503C16.7929 23.7503 16.7116 23.7342 16.6357 23.7027C16.5598 23.6713 16.4909 23.6253 16.4328 23.5672C16.3747 23.5091 16.3287 23.4402 16.2973 23.3643C16.2658 23.2884 16.2497 23.2071 16.2497 23.125C16.2497 23.0429 16.2658 22.9616 16.2973 22.8857C16.3287 22.8098 16.3747 22.7409 16.4328 22.6828L22.6828 16.4328C22.7409 16.3747 22.8098 16.3287 22.8857 16.2973C22.9616 16.2658 23.0429 16.2497 23.125 16.2497C23.2071 16.2497 23.2884 16.2658 23.3643 16.2973C23.4402 16.3287 23.5091 16.3747 23.5672 16.4328C23.6253 16.4909 23.6713 16.5598 23.7027 16.6357C23.7342 16.7116 23.7503 16.7929 23.7503 16.875C23.7503 16.9571 23.7342 17.0384 23.7027 17.1143C23.6713 17.1902 23.6253 17.2591 23.5672 17.3172Z" fill="#5063F4"/>
</svg>
