<svg width="24" height="24" viewBox="0 0 24 24" fill="none" xmlns="http://www.w3.org/2000/svg">
<circle cx="12" cy="12" r="12" fill="#44E0AA"/>
<circle cx="12" cy="12" r="9.5" stroke="#44E0AA" stroke-opacity="0.7" stroke-width="5"/>
<path d="M9.65167 16.9549C9.36475 16.9549 9.11922 16.8529 8.91508 16.6487C8.71093 16.4446 8.60868 16.1989 8.60834 15.9116V9.12994H8.08667V8.08661H10.695V7.56494H13.825V8.08661H16.4333V9.12994H15.9117V15.9116C15.9117 16.1985 15.8096 16.4442 15.6055 16.6487C15.4013 16.8532 15.1556 16.9553 14.8683 16.9549H9.65167ZM14.8683 9.12994H9.65167V15.9116H14.8683V9.12994ZM10.695 14.8683H11.7383V10.1733H10.695V14.8683ZM12.7817 14.8683H13.825V10.1733H12.7817V14.8683Z" fill="white"/>
</svg>
