<svg width="34" height="34" viewBox="0 0 34 34" fill="none" xmlns="http://www.w3.org/2000/svg">
<path d="M17 33.6666C14.6944 33.6666 12.5278 33.2288 10.5 32.3533C8.4722 31.4777 6.70831 30.2905 5.20831 28.7916C3.70831 27.2927 2.52109 25.5288 1.64665 23.4999C0.772202 21.471 0.334424 19.3044 0.333313 16.9999H3.66665C3.66665 18.8333 4.01387 20.5627 4.70831 22.1883C5.40276 23.8138 6.35442 25.2305 7.56331 26.4383C8.7722 27.646 10.1889 28.6044 11.8133 29.3133C13.4378 30.0221 15.1666 30.376 17 30.3749C20.7222 30.3749 23.875 29.0833 26.4583 26.4999C29.0416 23.9166 30.3333 20.7638 30.3333 17.0416C30.3333 13.3194 29.0416 10.1666 26.4583 7.58325C23.875 4.99992 20.7222 3.70825 17 3.70825C14.5278 3.70825 12.2844 4.3127 10.27 5.52159C8.25553 6.73047 6.66553 8.33436 5.49998 10.3333H10.3333V13.6666H0.333313V3.66659H3.66665V6.99992C5.19442 4.97214 7.11109 3.35436 9.41665 2.14659C11.7222 0.938808 14.25 0.334363 17 0.333252C19.3055 0.333252 21.4722 0.77103 23.5 1.64659C25.5278 2.52214 27.2916 3.70936 28.7916 5.20825C30.2916 6.70714 31.4794 8.47103 32.355 10.4999C33.2305 12.5288 33.6678 14.6955 33.6666 16.9999C33.6655 19.3044 33.2278 21.471 32.3533 23.4999C31.4789 25.5288 30.2916 27.2927 28.7916 28.7916C27.2916 30.2905 25.5278 31.4783 23.5 32.3549C21.4722 33.2316 19.3055 33.6688 17 33.6666ZM13.6666 23.6666C13.1944 23.6666 12.7989 23.5066 12.48 23.1866C12.1611 22.8666 12.0011 22.471 12 21.9999V16.9999C12 16.5277 12.16 16.1321 12.48 15.8133C12.8 15.4944 13.1955 15.3344 13.6666 15.3333V13.6666C13.6666 12.7499 13.9933 11.9655 14.6466 11.3133C15.3 10.661 16.0844 10.3344 17 10.3333C17.9155 10.3321 18.7005 10.6588 19.355 11.3133C20.0094 11.9677 20.3355 12.7521 20.3333 13.6666V15.3333C20.8055 15.3333 21.2016 15.4933 21.5216 15.8133C21.8416 16.1333 22.0011 16.5288 22 16.9999V21.9999C22 22.4721 21.84 22.8683 21.52 23.1883C21.2 23.5083 20.8044 23.6677 20.3333 23.6666H13.6666ZM15.3333 15.3333H18.6666V13.6666C18.6666 13.1944 18.5066 12.7988 18.1866 12.4799C17.8666 12.161 17.4711 12.001 17 11.9999C16.5289 11.9988 16.1333 12.1588 15.8133 12.4799C15.4933 12.801 15.3333 13.1966 15.3333 13.6666V15.3333Z" fill="#5063F4"/>
</svg>
