<svg width="41" height="41" viewBox="0 0 41 41" fill="none" xmlns="http://www.w3.org/2000/svg">
<g clip-path="url(#clip0_15195_101649)">
<path d="M34.25 23C34.5885 23 34.8815 23.1237 35.1289 23.3711C35.3763 23.6185 35.5 23.9115 35.5 24.25C35.5 24.5885 35.3763 24.8815 35.1289 25.1289C34.8815 25.3763 34.5885 25.5 34.25 25.5C33.9115 25.5 33.6185 25.3763 33.3711 25.1289C33.1237 24.8815 33 24.5885 33 24.25C33 23.9115 33.1237 23.6185 33.3711 23.3711C33.6185 23.1237 33.9115 23 34.25 23ZM22.4727 22.6289C21.444 21.9258 20.3372 21.3984 19.1523 21.0469C17.9674 20.6953 16.75 20.513 15.5 20.5C14.3542 20.5 13.2474 20.6497 12.1797 20.9492C11.112 21.2487 10.1159 21.6654 9.19141 22.1992C8.26693 22.7331 7.42708 23.3841 6.67188 24.1523C5.91667 24.9206 5.26562 25.7669 4.71875 26.6914C4.17188 27.6159 3.7487 28.612 3.44922 29.6797C3.14974 30.7474 3 31.8542 3 33H0.5C0.5 31.4766 0.727865 29.9857 1.18359 28.5273C1.63932 27.069 2.29688 25.7214 3.15625 24.4844C4.01562 23.2474 5.03776 22.1471 6.22266 21.1836C7.40755 20.2201 8.72917 19.4844 10.1875 18.9766C9.45833 18.5078 8.80729 17.9674 8.23438 17.3555C7.66146 16.7435 7.16667 16.0729 6.75 15.3438C6.33333 14.6146 6.02734 13.8464 5.83203 13.0391C5.63672 12.2318 5.52604 11.3854 5.5 10.5C5.5 9.11979 5.76042 7.82422 6.28125 6.61328C6.80208 5.40234 7.51172 4.34115 8.41016 3.42969C9.30859 2.51823 10.3698 1.80208 11.5938 1.28125C12.8177 0.760417 14.1198 0.5 15.5 0.5C16.8802 0.5 18.1758 0.760417 19.3867 1.28125C20.5977 1.80208 21.6589 2.51172 22.5703 3.41016C23.4818 4.30859 24.1979 5.36979 24.7188 6.59375C25.2396 7.81771 25.5 9.11979 25.5 10.5C25.5 11.3724 25.3958 12.2122 25.1875 13.0195C24.9792 13.8268 24.6667 14.6016 24.25 15.3438C23.8333 16.0859 23.3451 16.7565 22.7852 17.3555C22.2253 17.9544 21.5677 18.4948 20.8125 18.9766C21.8672 19.3542 22.8828 19.875 23.8594 20.5391L22.4727 22.6289ZM8 10.5C8 11.5417 8.19531 12.5117 8.58594 13.4102C8.97656 14.3086 9.51042 15.1029 10.1875 15.793C10.8646 16.4831 11.6589 17.0234 12.5703 17.4141C13.4818 17.8047 14.4583 18 15.5 18C16.5286 18 17.4987 17.8047 18.4102 17.4141C19.3216 17.0234 20.1159 16.4896 20.793 15.8125C21.4701 15.1354 22.0104 14.3411 22.4141 13.4297C22.8177 12.5182 23.013 11.5417 23 10.5C23 9.47135 22.8047 8.5013 22.4141 7.58984C22.0234 6.67839 21.4896 5.88411 20.8125 5.20703C20.1354 4.52995 19.3346 3.98958 18.4102 3.58594C17.4857 3.18229 16.5156 2.98698 15.5 3C14.4583 3 13.4883 3.19531 12.5898 3.58594C11.6914 3.97656 10.8971 4.51042 10.207 5.1875C9.51693 5.86458 8.97656 6.66536 8.58594 7.58984C8.19531 8.51432 8 9.48438 8 10.5ZM33 18C34.0286 18 34.9987 18.1953 35.9102 18.5859C36.8216 18.9766 37.6159 19.5104 38.293 20.1875C38.9701 20.8646 39.5104 21.6654 39.9141 22.5898C40.3177 23.5143 40.513 24.4844 40.5 25.5C40.5 26.5417 40.3047 27.5117 39.9141 28.4102C39.5234 29.3086 38.9896 30.1029 38.3125 30.793C37.6354 31.4831 36.8346 32.0234 35.9102 32.4141C34.9857 32.8047 34.0156 33 33 33C32.1536 33 31.3203 32.8503 30.5 32.5508V35.5H28V38H25.5V40.5H18V34.9922L25.7148 27.2578C25.5716 26.6589 25.5 26.0729 25.5 25.5C25.5 24.4714 25.6953 23.5013 26.0859 22.5898C26.4766 21.6784 27.0104 20.8841 27.6875 20.207C28.3646 19.5299 29.1589 18.9896 30.0703 18.5859C30.9818 18.1823 31.9583 17.987 33 18ZM33 30.5C33.6901 30.5 34.3346 30.3698 34.9336 30.1094C35.5326 29.849 36.0664 29.4909 36.5352 29.0352C37.0039 28.5794 37.362 28.0521 37.6094 27.4531C37.8568 26.8542 37.987 26.2031 38 25.5C38 24.8099 37.8698 24.1654 37.6094 23.5664C37.349 22.9674 36.9909 22.4336 36.5352 21.9648C36.0794 21.4961 35.5521 21.138 34.9531 20.8906C34.3542 20.6432 33.7031 20.513 33 20.5C32.3099 20.5 31.6654 20.6302 31.0664 20.8906C30.4674 21.151 29.9336 21.5091 29.4648 21.9648C28.9961 22.4206 28.638 22.9479 28.3906 23.5469C28.1432 24.1458 28.013 24.7969 28 25.5C28 25.9557 28.0586 26.3724 28.1758 26.75C28.293 27.1276 28.4297 27.5247 28.5859 27.9414L20.5 36.0078V38H23V35.5H25.5V33H28V31.2227L29.8164 29.4258C30.3372 29.7253 30.8385 29.9792 31.3203 30.1875C31.8021 30.3958 32.362 30.5 33 30.5Z" fill="#5063F4"/>
</g>
<defs>
<clipPath id="clip0_15195_101649">
<rect width="40" height="40" fill="white" transform="translate(0.5 0.5)"/>
</clipPath>
</defs>
</svg>
