<svg width="68" height="70" viewBox="0 0 68 70" fill="none" xmlns="http://www.w3.org/2000/svg">
<path d="M39.666 26.375C39.666 25.2313 40.1138 24.1344 40.9108 23.3256C41.7078 22.5169 42.7888 22.0625 43.916 22.0625C45.0432 22.0625 46.1242 22.5169 46.9212 23.3256C47.7182 24.1344 48.166 25.2313 48.166 26.375C48.166 27.5187 47.7182 28.6156 46.9212 29.4244C46.1242 30.2331 45.0432 30.6875 43.916 30.6875C42.7888 30.6875 41.7078 30.2331 40.9108 29.4244C40.1138 28.6156 39.666 27.5187 39.666 26.375Z" fill="#5063F4"/>
<path fill-rule="evenodd" clip-rule="evenodd" d="M20.5923 13.891C29.5146 13.104 38.4874 13.104 47.4098 13.891L51.6881 14.2705C53.6772 14.4463 55.55 15.2962 57.0051 16.6835C58.4601 18.0707 59.4127 19.9146 59.7093 21.918C60.9942 30.5901 60.9942 39.4084 59.7093 48.0805C59.4127 50.084 58.4601 51.9278 57.0051 53.3151C55.55 54.7024 53.6772 55.5523 51.6881 55.728L47.4098 56.1047C38.4848 56.8924 29.5144 56.8924 20.5923 56.1047L16.3139 55.728C14.3244 55.5529 12.4509 54.7033 10.9952 53.3159C9.53962 51.9286 8.58668 50.0844 8.28995 48.0805C7.00491 39.4084 7.00491 30.5901 8.28995 21.918C8.58655 19.9146 9.53909 18.0707 10.9941 16.6835C12.4492 15.2962 14.3221 14.4463 16.3111 14.2705L20.5923 13.891ZM47.0414 18.1892C38.3633 17.4236 29.636 17.4236 20.9578 18.1892L16.6794 18.5658C15.6418 18.6579 14.6648 19.1016 13.9057 19.8254C13.1467 20.5492 12.6496 21.5111 12.4946 22.5563C11.7661 27.4744 11.4712 32.4487 11.6134 37.42L22.5813 26.288C22.786 26.0807 23.0303 25.9179 23.2991 25.8097C23.568 25.7014 23.8558 25.6501 24.145 25.6587C24.4341 25.6673 24.7185 25.7357 24.9806 25.8598C25.2428 25.9838 25.4772 26.1608 25.6696 26.38L36.0736 38.2538L43.2419 35.8273C43.6349 35.6938 44.0578 35.6798 44.4585 35.7871C44.8593 35.8944 45.2203 36.1182 45.4973 36.431L55.4678 47.6723C56.7264 39.35 56.7398 30.8826 55.5074 22.5563C55.3523 21.5107 54.8549 20.5484 54.0952 19.8246C53.3356 19.1007 52.358 18.6573 51.3198 18.5658L47.0414 18.1892ZM52.7563 51.0648L43.2674 40.3669L36.0878 42.7934C35.6932 42.9271 35.2686 42.9403 34.8667 42.8315C34.4648 42.7226 34.1032 42.4965 33.8268 42.181L23.9923 30.9542L11.9676 43.1528C12.1064 44.5845 12.2793 46.0163 12.4918 47.4394C12.6463 48.4856 13.1435 49.4485 13.9032 50.1729C14.6629 50.8974 15.6408 51.3412 16.6794 51.4328L20.9578 51.8094C29.6363 52.5742 38.3629 52.5742 47.0414 51.8094L51.3198 51.4328C51.8241 51.3868 52.3114 51.2603 52.7563 51.0648Z" fill="#5063F4"/>
</svg>
