<svg width="871" height="299" viewBox="0 0 871 299" fill="none" xmlns="http://www.w3.org/2000/svg">
<path d="M3.25115 78.4713C6.42341 107.801 9.391 137.604 1.61385 166.696C1.20452 168.198 4.17211 168.831 4.58144 167.329C12.4609 137.999 9.49334 108.038 6.32108 78.4713C6.11642 76.9692 3.04649 76.9692 3.25115 78.4713Z" fill="#E8E8E8" fill-opacity="0.4"/>
<path d="M4.99044 79.2622C23.8193 79.8947 42.7506 79.8947 61.5795 79.1832C77.8501 78.5507 95.5534 78.5507 110.698 73.4912C112.54 72.8588 110.903 70.8034 109.163 71.4358C93.4044 76.7325 74.4732 76.4163 57.5886 76.9696C40.09 77.523 22.489 77.523 4.99044 76.8906C3.04615 76.8115 3.04615 79.1832 4.99044 79.2622Z" fill="#E8E8E8" fill-opacity="0.4"/>
<path d="M108.14 73.1749C117.964 102.109 120.318 132.308 114.894 161.953C114.587 163.455 117.555 164.088 117.862 162.586C123.285 132.466 121.034 101.951 111.108 72.5424C110.699 71.0404 107.731 71.6728 108.14 73.1749Z" fill="#E8E8E8" fill-opacity="0.4"/>
<path d="M2.43246 167.882C22.694 171.361 43.5695 171.677 64.2404 170.57C74.6782 170.017 85.2183 169.068 95.656 168.119C103.126 167.408 110.903 167.092 117.043 163.376C118.578 162.427 116.429 160.767 114.894 161.716C107.936 165.906 97.0887 165.669 88.7999 166.38C79.3854 167.25 69.8686 167.961 60.3518 168.436C41.216 169.305 22.08 168.91 3.35346 165.669C1.30684 165.273 0.488172 167.566 2.43246 167.882Z" fill="#E8E8E8" fill-opacity="0.4"/>
<path d="M10.6193 160.926C13.0753 161.005 15.4289 160.373 17.8849 160.215C20.8525 160.057 23.6154 160.294 26.4807 160.847C28.4249 161.242 29.2436 158.95 27.2993 158.555C24.6387 158.001 21.8758 157.685 19.1128 157.764C16.2476 157.843 13.4846 158.634 10.6193 158.555C8.67506 158.475 8.67506 160.847 10.6193 160.926Z" fill="#E8E8E8" fill-opacity="0.4"/>
<path d="M12.4602 155.392C17.4744 155.471 22.5909 155.471 27.6051 155.55C29.5494 155.55 29.5494 153.179 27.6051 153.179C22.5909 153.1 17.4744 153.1 12.4602 153.02C10.5159 152.941 10.5159 155.313 12.4602 155.392Z" fill="#E8E8E8" fill-opacity="0.4"/>
<path d="M13.4846 149.463C17.9871 149.622 22.3874 149.78 26.89 149.938C28.8342 150.017 28.8342 147.645 26.89 147.566C22.3874 147.408 17.9871 147.25 13.4846 147.092C11.5403 147.013 11.5403 149.384 13.4846 149.463Z" fill="#E8E8E8" fill-opacity="0.4"/>
<path d="M14.9172 134.443C19.9314 133.969 24.9456 133.731 30.0622 133.81C32.0065 133.81 32.0065 131.439 30.0622 131.439C25.048 131.36 19.9314 131.597 14.9172 132.071C12.9729 132.308 12.9729 134.68 14.9172 134.443Z" fill="#E8E8E8" fill-opacity="0.4"/>
<path d="M15.9406 128.197C20.7502 128.276 25.5598 128.355 30.3693 128.434C32.3136 128.434 32.3136 126.062 30.3693 126.062C25.5598 125.983 20.7502 125.904 15.9406 125.825C13.9963 125.825 13.9963 128.197 15.9406 128.197Z" fill="#E8E8E8" fill-opacity="0.4"/>
<path d="M14.9172 122.821C19.3174 123.059 23.6153 122.98 27.9132 122.663C29.8575 122.505 29.8575 120.134 27.9132 120.292C23.6153 120.687 19.2151 120.687 14.9172 120.45C12.9729 120.292 12.9729 122.663 14.9172 122.821Z" fill="#E8E8E8" fill-opacity="0.4"/>
<path d="M15.6323 107.643C20.9535 106.852 26.2747 106.457 31.8006 106.536C33.7449 106.536 33.7449 104.164 31.8006 104.164C26.0701 104.085 20.4419 104.48 14.8137 105.35C12.9717 105.666 13.7904 107.959 15.6323 107.643Z" fill="#E8E8E8" fill-opacity="0.4"/>
<path d="M15.326 101.872C21.0565 101.951 26.787 101.951 32.6199 101.713C34.5642 101.634 34.5642 99.2627 32.6199 99.3418C26.8894 99.5789 21.1588 99.658 15.326 99.4999C13.2794 99.4208 13.2794 101.792 15.326 101.872Z" fill="#E8E8E8" fill-opacity="0.4"/>
<path d="M13.177 95.706C19.5215 95.8641 25.866 95.627 32.2106 95.1526C34.1549 94.9945 34.1549 92.6229 32.2106 92.781C25.866 93.2553 19.5215 93.4925 13.177 93.3344C11.2327 93.3344 11.2327 95.706 13.177 95.706Z" fill="#E8E8E8" fill-opacity="0.4"/>
<path d="M47.3562 93.4919C63.2175 91.6736 79.1811 90.804 95.1447 90.9621C97.089 90.9621 97.089 88.5905 95.1447 88.5905C78.8741 88.4324 62.6035 89.302 46.5375 91.1993C44.5932 91.4365 45.4119 93.729 47.3562 93.4919Z" fill="#E8E8E8" fill-opacity="0.4"/>
<path d="M50.5272 97.9192C66.2861 96.8915 82.1475 96.2591 98.0088 95.8638C99.953 95.7848 99.953 93.4131 98.0088 93.4922C82.1475 93.8084 66.2861 94.5199 50.5272 95.5476C48.4805 95.7057 48.4805 98.0773 50.5272 97.9192Z" fill="#E8E8E8" fill-opacity="0.4"/>
<path d="M49.3 103.216C65.673 102.583 82.1483 104.085 98.5213 102.742C100.466 102.583 100.466 100.212 98.5213 100.37C82.1483 101.793 65.673 100.212 49.3 100.844C47.3557 100.923 47.3557 103.295 49.3 103.216Z" fill="#E8E8E8" fill-opacity="0.4"/>
<path d="M39.5789 122.822C46.7421 122.822 53.9053 122.743 61.0684 122.743C63.0127 122.743 63.0127 120.371 61.0684 120.371C53.9053 120.371 46.7421 120.45 39.5789 120.45C37.5323 120.45 37.5323 122.822 39.5789 122.822Z" fill="#E8E8E8" fill-opacity="0.4"/>
<path d="M40.2947 128.829C47.9696 128.671 55.7467 128.513 63.4216 128.434C65.5705 128.434 86.0367 127.564 86.0367 127.722C86.6507 129.145 89.6183 128.592 89.0043 127.09C88.3903 125.43 86.5483 125.667 84.604 125.667C79.8968 125.667 75.1896 125.825 70.4824 125.904C60.4539 126.062 50.3232 126.299 40.2947 126.458C38.2481 126.458 38.2481 128.829 40.2947 128.829Z" fill="#E8E8E8" fill-opacity="0.4"/>
<path d="M40.2947 134.758C46.4346 134.995 52.4721 134.995 58.612 134.916C60.5563 134.837 60.5563 132.466 58.612 132.545C52.4721 132.703 46.4346 132.624 40.2947 132.387C38.2481 132.308 38.2481 134.679 40.2947 134.758Z" fill="#E8E8E8" fill-opacity="0.4"/>
<path d="M36.7141 148.357C57.1803 147.329 77.7488 146.934 98.3174 147.171C100.262 147.171 100.262 144.799 98.3174 144.799C77.7488 144.562 57.2826 144.957 36.7141 145.985C34.7698 146.064 34.7698 148.436 36.7141 148.357Z" fill="#E8E8E8" fill-opacity="0.4"/>
<path d="M39.886 153.574C45.0025 153.495 50.2214 153.416 55.3379 153.336C57.2822 153.336 57.2822 150.965 55.3379 150.965C50.2214 151.044 45.0025 151.123 39.886 151.202C37.9417 151.202 37.9417 153.574 39.886 153.574Z" fill="#E8E8E8" fill-opacity="0.4"/>
<path d="M67.7195 153.495C76.0083 152.862 84.3995 152.309 92.6883 151.914C94.6326 151.835 94.6326 149.463 92.6883 149.542C84.2971 149.937 76.0083 150.491 67.7195 151.123C65.7752 151.281 65.6729 153.653 67.7195 153.495Z" fill="#E8E8E8" fill-opacity="0.4"/>
<path d="M38.4533 161.163C55.2356 161.005 72.0179 160.61 88.8002 160.135C90.7445 160.056 90.7445 157.685 88.8002 157.764C72.0179 158.317 55.2356 158.633 38.4533 158.791C36.509 158.791 36.509 161.163 38.4533 161.163Z" fill="#E8E8E8" fill-opacity="0.4"/>
<path d="M120.624 114.758C147.128 110.963 174.041 109.145 201.057 109.303C200.545 108.987 200.033 108.75 199.624 108.433C215.383 147.249 222.956 187.883 222.035 228.596C222.035 230.098 225.104 230.098 225.104 228.596C226.025 187.725 218.453 146.854 202.592 107.801C202.387 107.327 201.773 106.931 201.159 106.931C173.939 106.773 146.719 108.592 119.908 112.465C117.862 112.702 118.68 114.995 120.624 114.758Z" fill="#E8E8E8" fill-opacity="0.4"/>
<path d="M65.9805 169.621C67.8224 191.836 63.8315 213.971 54.11 234.841C53.496 236.264 56.3613 236.897 57.0777 235.474C66.7991 214.366 70.8923 191.994 69.0504 169.621C68.9481 168.119 65.8781 168.04 65.9805 169.621Z" fill="#E8E8E8" fill-opacity="0.4"/>
<path d="M54.6217 236.581C80.4091 245.04 108.652 244.17 135.975 242.194C165.753 239.981 195.02 236.265 223.673 229.703C225.514 229.308 224.798 227.016 222.854 227.411C195.02 233.735 166.674 237.53 137.714 239.664C110.494 241.72 81.9441 242.985 56.1567 234.526C54.417 233.893 52.8821 235.949 54.6217 236.581Z" fill="#E8E8E8" fill-opacity="0.4"/>
<path d="M128.709 122.743C134.03 122.031 139.351 121.794 144.775 121.952C146.719 122.031 146.719 119.66 144.775 119.581C139.044 119.422 133.416 119.739 127.89 120.529C125.946 120.766 126.764 122.98 128.709 122.743Z" fill="#E8E8E8" fill-opacity="0.4"/>
<path d="M127.89 128.751C135.155 128.197 142.421 127.723 149.686 127.328C151.631 127.249 151.631 124.877 149.686 124.956C142.421 125.351 135.155 125.826 127.89 126.379C125.946 126.537 125.946 128.909 127.89 128.751Z" fill="#E8E8E8" fill-opacity="0.4"/>
<path d="M131.165 137.683V137.762C131.677 137.446 132.188 137.209 132.598 136.893C132.495 136.893 132.495 136.893 132.393 136.893C132.802 137.051 133.314 137.288 133.723 137.446C133.723 137.367 133.621 137.367 133.621 137.288C133.519 137.762 133.416 138.236 133.416 138.711C132.7 138.869 132.802 138.948 133.826 138.869C134.44 138.869 135.054 138.869 135.565 138.869C136.589 138.869 137.612 138.79 138.635 138.79C140.682 138.632 142.729 138.474 144.775 138.157C146.719 137.92 145.901 135.628 143.956 135.865C141.296 136.26 138.635 136.418 135.975 136.497C134.337 136.497 132.393 136.102 131.165 137.051C130.653 137.446 130.654 138.078 130.961 138.474C131.37 138.948 131.881 139.185 132.598 139.185C133.212 139.185 133.928 138.79 134.03 138.316V138.236C134.542 136.813 131.574 136.181 131.165 137.683Z" fill="#E8E8E8" fill-opacity="0.4"/>
<path d="M129.016 149.225C137.612 148.277 146.208 147.012 154.906 147.249C156.85 147.328 156.85 144.956 154.906 144.877C145.901 144.64 136.998 145.984 128.198 146.933C126.253 147.17 127.072 149.462 129.016 149.225Z" fill="#E8E8E8" fill-opacity="0.4"/>
<path d="M162.376 120.212C172.2 119.185 182.024 118.631 191.848 118.394C193.792 118.315 193.792 115.943 191.848 116.022C181.921 116.26 172.098 116.813 162.376 117.841C160.432 117.999 160.432 120.37 162.376 120.212Z" fill="#E8E8E8" fill-opacity="0.4"/>
<path d="M169.436 130.174C175.576 129.383 181.614 128.672 187.754 127.881C189.698 127.644 188.879 125.351 186.935 125.588C180.795 126.379 174.757 127.091 168.618 127.881C166.673 128.118 167.492 130.411 169.436 130.174Z" fill="#E8E8E8" fill-opacity="0.4"/>
<path d="M171.484 144.008C176.702 143.613 182.024 143.455 187.345 143.455C189.289 143.455 189.289 141.083 187.345 141.083C182.024 141.083 176.805 141.241 171.484 141.636C169.539 141.794 169.539 144.166 171.484 144.008Z" fill="#E8E8E8" fill-opacity="0.4"/>
<path d="M180.692 148.514C187.139 147.803 193.483 147.328 200.033 147.012C201.977 146.933 201.977 144.562 200.033 144.641C193.279 144.957 186.627 145.51 179.873 146.222C177.929 146.459 178.748 148.672 180.692 148.514Z" fill="#E8E8E8" fill-opacity="0.4"/>
<path d="M79.2834 208.833C81.2277 208.833 81.2277 206.461 79.2834 206.461C77.3391 206.461 77.3391 208.833 79.2834 208.833Z" fill="#E8E8E8" fill-opacity="0.4"/>
<path d="M76.0087 206.699C78.567 207.331 81.0229 207.094 83.6835 207.015C87.1628 206.936 90.642 207.094 94.1213 207.331C96.0656 207.489 96.0656 205.118 94.1213 204.959C91.1537 204.722 88.0837 204.564 85.1161 204.643C82.4555 204.643 79.4879 205.118 76.9296 204.406C74.9853 203.932 74.1667 206.224 76.0087 206.699Z" fill="#E8E8E8" fill-opacity="0.4"/>
<path d="M79.6926 213.813C85.3208 213.418 90.949 213.497 96.5772 214.13C98.5215 214.288 98.5215 211.916 96.5772 211.758C90.949 211.205 85.3208 211.126 79.6926 211.442C77.7483 211.6 77.7483 213.972 79.6926 213.813Z" fill="#E8E8E8" fill-opacity="0.4"/>
<path d="M70.7891 223.853C75.5987 225.276 80.6129 225.039 85.7295 225.039C91.6647 225.039 97.5999 225.039 103.535 225.039C113.973 225.039 125.229 225.908 135.36 223.536C137.202 223.062 136.486 220.77 134.541 221.244C124.718 223.616 113.666 222.667 103.535 222.667C98.2138 222.667 92.995 222.667 87.6738 222.667C82.2502 222.667 76.7243 223.062 71.5055 221.56C69.6635 221.007 68.9472 223.299 70.7891 223.853Z" fill="#E8E8E8" fill-opacity="0.4"/>
<path d="M123.694 212.627C126.969 212.469 130.244 212.39 133.518 212.232C136.793 212.074 140.17 211.679 143.24 212.706C145.082 213.26 145.9 210.967 144.058 210.414C141.091 209.465 138.123 209.702 134.951 209.86C131.165 210.018 127.378 210.176 123.592 210.335C121.648 210.335 121.648 212.706 123.694 212.627Z" fill="#E8E8E8" fill-opacity="0.4"/>
<path d="M111.006 234.21C127.481 233.736 143.854 233.024 160.329 231.996C162.273 231.838 162.273 229.467 160.329 229.625C143.956 230.652 127.481 231.364 111.006 231.838C108.959 231.917 108.959 234.289 111.006 234.21Z" fill="#E8E8E8" fill-opacity="0.4"/>
<path d="M294.28 8.35016C298.885 45.822 297.862 83.452 296.839 121.003C296.839 122.505 299.909 122.505 299.909 121.003C301.034 83.452 301.955 45.822 297.35 8.35016C297.146 6.84812 294.076 6.84812 294.28 8.35016Z" fill="#E8E8E8" fill-opacity="0.4"/>
<path d="M295.918 9.21992C316.691 9.93141 337.055 5.4253 357.623 3.68609C378.499 1.94689 399.579 1.94689 420.455 3.60704C422.399 3.76514 422.399 1.39351 420.455 1.2354C399.579 -0.424748 378.499 -0.424744 357.623 1.31446C337.055 3.05366 316.691 7.55977 295.918 6.84828C293.871 6.84828 293.871 9.21992 295.918 9.21992Z" fill="#E8E8E8" fill-opacity="0.4"/>
<path d="M419.125 2.97468C421.888 11.2754 422.298 19.8133 422.502 28.2721C422.809 37.3634 423.219 46.5338 423.628 55.625C424.447 73.5704 425.47 91.5949 426.698 109.54C426.8 111.042 429.87 111.042 429.768 109.54C428.54 91.0415 427.414 72.5427 426.596 54.0439C426.186 44.9527 425.879 35.8614 425.572 26.8492C425.265 18.6275 424.754 10.3268 422.093 2.34226C421.581 0.840218 418.614 1.47265 419.125 2.97468Z" fill="#E8E8E8" fill-opacity="0.4"/>
<path d="M298.271 122.742C320.273 127.643 343.911 125.825 366.321 124.086C387.913 122.425 409.3 119.263 429.05 111.911C430.79 111.279 429.255 109.223 427.515 109.856C407.766 117.208 386.174 120.212 364.582 121.872C342.99 123.453 320.272 125.192 299.192 120.449C297.146 119.975 296.327 122.267 298.271 122.742Z" fill="#E8E8E8" fill-opacity="0.4"/>
<path d="M424.446 24.24C436.93 22.7379 449.619 22.2636 462.308 22.817C468.858 23.1332 475.407 23.6866 481.956 24.5562C484.719 24.9515 487.789 25.1096 490.449 25.8211C494.236 26.8488 494.031 28.9832 494.645 31.7502C499.352 51.1185 502.422 70.7241 503.957 90.4087C504.06 91.9107 507.129 91.9107 507.027 90.4087C506.106 79.262 504.776 68.1153 502.934 57.0476C502.115 51.9091 501.092 46.7705 499.966 41.632C499.352 38.8651 498.738 36.0982 498.124 33.3312C497.613 30.9596 497.408 27.9555 496.18 25.8211C494.44 22.7379 487.38 22.817 483.696 22.3427C477.249 21.4731 470.802 20.8406 464.253 20.5244C450.643 19.8129 437.135 20.3663 423.627 21.9474C421.683 22.1845 422.502 24.4771 424.446 24.24Z" fill="#E8E8E8" fill-opacity="0.4"/>
<path d="M385.968 121.794C387.81 125.747 388.936 129.699 389.141 133.889C389.243 135.945 388.834 138.395 390.778 140.055C392.722 141.716 396.099 141.716 398.76 142.032C403.057 142.506 407.458 142.901 411.756 143.059C431.71 143.929 451.665 141.953 471.415 139.897C473.359 139.739 473.359 137.288 471.415 137.526C454.53 139.265 437.645 141.004 420.556 140.846C416.668 140.846 412.779 140.688 408.89 140.451C406.332 140.293 403.876 140.055 401.318 139.818C399.578 139.66 395.894 139.739 394.564 138.949C391.085 136.972 392.21 132.466 391.596 129.541C391.085 126.616 390.062 123.849 388.834 121.082C388.22 119.738 385.252 120.292 385.968 121.794Z" fill="#E8E8E8" fill-opacity="0.4"/>
<path d="M466.503 91.6737C468.755 99.263 469.164 107.089 469.676 114.916C470.187 122.347 470.699 129.857 471.108 137.288C471.927 152.467 472.439 167.645 472.643 182.903C472.643 184.405 475.713 184.405 475.713 182.903C475.509 167.171 474.895 151.518 474.076 135.786C473.257 121.082 473.769 105.508 469.471 91.1203C469.062 89.5392 466.094 90.1717 466.503 91.6737Z" fill="#E8E8E8" fill-opacity="0.4"/>
<path d="M468.55 93.0965C489.937 92.1479 511.324 92.3851 532.609 93.729C534.554 93.8871 534.554 91.5155 532.609 91.3573C511.324 89.9344 489.937 89.7762 468.55 90.7249C466.606 90.883 466.606 93.2546 468.55 93.0965Z" fill="#E8E8E8" fill-opacity="0.4"/>
<path d="M472.336 183.378C474.894 186.777 479.089 188.042 484.001 188.516C491.369 189.228 498.839 189.465 506.207 189.86C521.966 190.651 537.725 191.283 553.484 191.362C561.159 191.362 568.936 191.283 576.611 191.046C580.295 190.888 583.979 190.73 587.663 190.571C589.607 190.492 592.984 190.73 594.723 189.623C595.849 188.911 595.951 187.884 596.156 186.777C596.565 183.694 596.463 180.532 596.565 177.448C596.872 171.203 597.077 164.958 597.384 158.712C597.486 157.21 594.416 157.21 594.314 158.712C594.109 163.614 593.905 168.594 593.7 173.496C593.598 175.867 593.496 178.16 593.393 180.532C593.291 181.796 593.291 183.14 593.189 184.405C593.086 186.619 592.779 187.409 589.709 188.042C587.049 188.595 583.467 188.358 580.704 188.516C577.327 188.674 574.053 188.753 570.676 188.832C564.331 188.99 557.987 188.99 551.54 188.99C539.158 188.911 526.673 188.516 514.291 187.884C507.947 187.567 501.602 187.251 495.155 186.856C488.606 186.461 478.782 187.172 474.996 182.192C473.973 180.848 471.312 182.113 472.336 183.378Z" fill="#E8E8E8" fill-opacity="0.4"/>
<path d="M525.651 58.0752C531.279 73.0165 532.507 88.0368 533.428 103.532C534.451 119.342 535.372 135.074 536.396 150.885C536.498 152.387 539.568 152.387 539.465 150.885C538.442 134.6 537.419 118.315 536.396 101.95C535.475 86.772 534.042 72.1469 528.516 57.4427C528.004 56.0197 525.139 56.6522 525.651 58.0752Z" fill="#E8E8E8" fill-opacity="0.4"/>
<path d="M537.112 152.783C549.085 156.024 561.774 156.578 574.259 157.447C587.255 158.396 599.637 159.423 612.633 157.763C625.629 156.103 638.523 154.127 651.416 151.834C663.184 149.7 674.031 146.617 683.446 140.688C684.981 139.739 682.832 138.079 681.297 139.027C671.575 145.115 659.91 147.882 647.835 150.016C635.862 152.15 623.889 153.969 611.814 155.471C599.125 157.052 586.948 155.945 574.259 154.996C562.081 154.048 549.597 153.573 537.931 150.411C536.089 149.937 535.271 152.23 537.112 152.783Z" fill="#E8E8E8" fill-opacity="0.4"/>
<path d="M526.981 58.1551C548.982 53.3327 572.007 53.0165 594.724 52.1469C617.749 51.1983 640.466 50.6449 663.491 51.9888C665.435 52.0678 665.435 49.6962 663.491 49.6172C639.852 48.1942 616.521 48.9057 592.882 49.8543C570.472 50.7239 547.857 51.1982 526.162 55.9415C524.218 56.2577 525.037 58.5503 526.981 58.1551Z" fill="#E8E8E8" fill-opacity="0.4"/>
<path d="M661.956 50.7232C662.263 65.7436 664.821 80.6849 668.3 95.4681C670.04 102.978 672.086 110.409 674.235 117.841C676.282 125.193 678.021 132.624 681.296 139.66C681.91 141.083 684.878 140.45 684.264 139.027C678.022 125.43 675.054 110.488 671.677 96.3377C667.993 81.2383 665.435 66.0598 665.026 50.7232C664.923 49.2212 661.853 49.2212 661.956 50.7232Z" fill="#E8E8E8" fill-opacity="0.4"/>
<path d="M308.095 49.6956C327.538 48.5888 347.083 48.1145 366.628 48.1936C368.573 48.1936 368.573 45.8219 366.628 45.8219C347.083 45.7429 327.538 46.2172 308.095 47.324C306.151 47.403 306.151 49.7746 308.095 49.6956Z" fill="#E8E8E8" fill-opacity="0.4"/>
<path d="M308.607 59.8939C313.007 59.9729 317.51 60.131 321.91 59.8939C326.004 59.7357 329.994 59.1033 334.088 59.4986C336.032 59.6567 336.032 57.2851 334.088 57.1269C329.994 56.7317 326.004 57.3641 321.91 57.5222C317.51 57.6803 313.007 57.6013 308.607 57.5222C306.561 57.4432 306.561 59.8148 308.607 59.8939Z" fill="#E8E8E8" fill-opacity="0.4"/>
<path d="M308.504 66.6139C315.872 66.9302 323.137 65.7443 330.403 66.6139C332.347 66.8511 333.165 64.5585 331.221 64.3214C323.649 63.4518 316.076 64.5585 308.504 64.2423C306.457 64.1632 306.457 66.5349 308.504 66.6139Z" fill="#E8E8E8" fill-opacity="0.4"/>
<path d="M310.243 81.7134C316.895 81.7134 323.546 81.7134 330.3 81.7134C332.245 81.7134 332.245 79.3418 330.3 79.3418C323.649 79.3418 316.997 79.3418 310.243 79.3418C308.299 79.3418 308.299 81.7134 310.243 81.7134Z" fill="#E8E8E8" fill-opacity="0.4"/>
<path d="M311.574 87.2466C316.384 87.2466 321.295 87.2466 326.105 87.2466C328.049 87.2466 328.049 84.875 326.105 84.875C321.295 84.875 316.384 84.875 311.574 84.875C309.527 84.875 309.527 87.2466 311.574 87.2466Z" fill="#E8E8E8" fill-opacity="0.4"/>
<path d="M308.607 96.022C315.463 96.022 322.32 96.022 329.073 96.022C331.018 96.022 331.018 93.6504 329.073 93.6504C322.217 93.6504 315.361 93.6504 308.607 93.6504C306.561 93.6504 306.561 96.022 308.607 96.022Z" fill="#E8E8E8" fill-opacity="0.4"/>
<path d="M361.409 57.6802C375.838 57.6802 390.267 57.6802 404.695 57.6802C406.64 57.6802 406.64 55.3086 404.695 55.3086C390.267 55.3086 375.838 55.3086 361.409 55.3086C359.465 55.3086 359.465 57.6802 361.409 57.6802Z" fill="#E8E8E8" fill-opacity="0.4"/>
<path d="M362.433 67.0084C371.847 67.0084 381.262 67.0084 390.574 67.0084C392.518 67.0084 392.518 64.6367 390.574 64.6367C381.159 64.6367 371.745 64.6367 362.433 64.6367C360.489 64.6367 360.489 67.0084 362.433 67.0084Z" fill="#E8E8E8" fill-opacity="0.4"/>
<path d="M401.012 66.6138C403.774 66.6138 406.64 66.6138 409.403 66.6138C411.347 66.6138 411.347 64.2422 409.403 64.2422C406.64 64.2422 403.774 64.2422 401.012 64.2422C398.965 64.2422 398.965 66.6138 401.012 66.6138Z" fill="#E8E8E8" fill-opacity="0.4"/>
<path d="M365.4 81.8716C376.656 81.8716 388.015 81.8716 399.271 81.8716C401.215 81.8716 401.215 79.5 399.271 79.5C388.015 79.5 376.656 79.5 365.4 79.5C363.455 79.5 363.455 81.8716 365.4 81.8716Z" fill="#E8E8E8" fill-opacity="0.4"/>
<path d="M353.326 92.6226C363.252 92.6226 373.076 92.6226 383.002 92.6226C384.946 92.6226 384.946 90.251 383.002 90.251C373.076 90.251 363.252 90.251 353.326 90.251C351.279 90.251 351.279 92.6226 353.326 92.6226Z" fill="#E8E8E8" fill-opacity="0.4"/>
<path d="M365.4 98.4722C372.87 98.4722 380.34 98.4722 387.912 98.4722C389.857 98.4722 389.857 96.1006 387.912 96.1006C380.442 96.1006 372.972 96.1006 365.4 96.1006C363.455 96.1006 363.455 98.4722 365.4 98.4722Z" fill="#E8E8E8" fill-opacity="0.4"/>
<path d="M393.849 92.2271C401.013 92.2271 408.176 92.2271 415.339 92.2271C417.283 92.2271 417.283 89.8555 415.339 89.8555C408.176 89.8555 401.013 89.8555 393.849 89.8555C391.803 89.8555 391.803 92.2271 393.849 92.2271Z" fill="#E8E8E8" fill-opacity="0.4"/>
<path d="M429.358 35.8619C435.907 35.8619 442.558 35.8619 449.108 35.8619C451.052 35.8619 451.052 33.4902 449.108 33.4902C442.558 33.4902 435.907 33.4902 429.358 33.4902C427.413 33.4902 427.413 35.8619 429.358 35.8619Z" fill="#E8E8E8" fill-opacity="0.4"/>
<path d="M455.146 31.3547C460.262 33.0148 465.993 32.9357 470.905 34.9121C470.905 34.2006 470.905 33.5682 470.905 32.8567C467.323 34.8331 463.742 36.8094 460.262 38.7858C458.625 39.6554 460.16 41.7108 461.797 40.8412C465.379 38.8648 468.96 36.8885 472.44 34.9121C473.258 34.4378 473.565 33.331 472.44 32.8567C467.221 30.8013 461.286 30.8013 455.964 29.0621C454.122 28.5087 453.304 30.8013 455.146 31.3547Z" fill="#E8E8E8" fill-opacity="0.4"/>
<path d="M432.428 46.3761C434.781 46.8504 437.135 47.3247 439.591 47.641C440.205 47.72 445.833 47.9572 446.14 48.4315C445.833 47.9572 437.953 53.2538 437.135 53.9653C435.804 55.0721 437.953 56.7322 439.284 55.6255C441.74 53.6491 444.4 51.989 447.47 50.566C449.005 49.8545 450.745 48.8268 449.824 47.2457C448.903 45.8227 446.14 46.0599 444.4 45.8227C440.716 45.4274 437.032 44.795 433.349 44.0044C431.302 43.6882 430.483 45.9808 432.428 46.3761Z" fill="#E8E8E8" fill-opacity="0.4"/>
<path d="M431.814 66.4556C442.354 66.4556 452.894 66.4556 463.434 66.4556C465.378 66.4556 465.378 64.084 463.434 64.084C452.894 64.084 442.354 64.084 431.814 64.084C429.869 64.084 429.869 66.4556 431.814 66.4556Z" fill="#E8E8E8" fill-opacity="0.4"/>
<path d="M463.843 58.7873C465.992 59.6569 468.244 60.2103 470.597 60.6846C473.053 61.238 477.249 61.7123 478.784 63.5306C478.784 63.1353 478.784 62.74 478.784 62.3447C477.76 63.6887 475.714 64.8745 474.281 65.9813C472.849 67.088 471.314 68.2738 469.881 69.3806C468.653 70.3293 470.188 71.9104 471.723 71.2779C471.928 71.1989 472.234 71.0407 472.439 70.9617C474.179 70.1711 472.644 68.1948 470.904 68.9063C470.7 68.9853 470.393 69.1434 470.188 69.2225C470.802 69.8549 471.416 70.4874 472.03 71.1198C473.769 69.7759 475.611 68.4319 477.351 67.009C478.784 65.9022 480.523 64.9536 481.444 63.6096C481.751 63.2143 481.751 62.74 481.444 62.4238C478.272 58.6292 470.188 58.7082 465.378 56.8109C463.639 56.0204 462.104 58.0758 463.843 58.7873Z" fill="#E8E8E8" fill-opacity="0.4"/>
<path d="M431.609 79.9732C438.976 79.9732 446.447 79.9732 453.814 79.9732C455.759 79.9732 455.759 77.6016 453.814 77.6016C446.447 77.6016 438.976 77.6016 431.609 77.6016C429.664 77.6016 429.664 79.9732 431.609 79.9732Z" fill="#E8E8E8" fill-opacity="0.4"/>
<path d="M466.504 79.4205C474.383 79.4205 482.365 79.4205 490.245 79.4205C492.189 79.4205 492.189 77.0488 490.245 77.0488C482.365 77.0488 474.383 77.0488 466.504 77.0488C464.457 77.0488 464.457 79.4205 466.504 79.4205Z" fill="#E8E8E8" fill-opacity="0.4"/>
<path d="M434.371 95.6265C442.455 95.6265 450.539 95.6265 458.623 95.6265C460.568 95.6265 460.568 93.2549 458.623 93.2549C450.539 93.2549 442.455 93.2549 434.371 93.2549C432.324 93.2549 432.324 95.6265 434.371 95.6265Z" fill="#E8E8E8" fill-opacity="0.4"/>
<path d="M401.012 125.035C413.496 125.035 426.083 125.035 438.567 125.035C440.511 125.035 440.511 122.663 438.567 122.663C426.083 122.663 413.496 122.663 401.012 122.663C398.965 122.663 398.965 125.035 401.012 125.035Z" fill="#E8E8E8" fill-opacity="0.4"/>
<path d="M415.031 133.415C426.288 133.415 437.647 133.415 448.903 133.415C450.847 133.415 450.847 131.043 448.903 131.043C437.647 131.043 426.288 131.043 415.031 131.043C413.087 131.043 413.087 133.415 415.031 133.415Z" fill="#E8E8E8" fill-opacity="0.4"/>
<path d="M512.859 105.429C507.435 100.923 500.477 111.279 499.761 114.363C498.84 118.473 500.17 122.663 501.603 126.616C502.728 129.857 503.854 132.624 502.217 135.945C500.784 138.711 497.919 141.241 494.439 142.427C493.109 142.901 493.723 144.72 495.258 144.641C507.64 143.692 504.161 161.953 507.333 167.804C510.403 173.337 517.464 175.946 524.934 174.997C526.878 174.76 526.06 172.468 524.115 172.705C508.152 174.681 508.97 161.005 507.538 152.941C506.617 147.961 503.035 141.636 495.156 142.269C495.463 142.98 495.667 143.771 495.974 144.482C502.421 142.269 507.231 136.103 506.003 130.648C505.082 126.3 502.728 122.268 502.524 117.841C502.421 116.023 502.728 114.125 503.547 112.386C503.854 111.833 508.561 105.429 510.608 107.169C512.04 108.275 514.189 106.536 512.859 105.429Z" fill="#E8E8E8" fill-opacity="0.4"/>
<path d="M561.671 155.392C559.113 157.527 559.932 160.057 561.364 162.586C562.592 164.721 565.56 167.251 565.458 169.622C565.458 173.97 558.908 175.947 554.611 177.211C552.769 177.765 553.587 180.057 555.429 179.504C560.546 178.002 566.276 176.105 568.016 171.678C568.732 170.017 568.527 168.357 567.709 166.776C566.481 164.325 560.546 159.661 563.82 157.052C565.253 155.946 563.002 154.286 561.671 155.392Z" fill="#E8E8E8" fill-opacity="0.4"/>
<path d="M757.328 178.396C752.416 212.469 755.896 246.936 767.459 279.981C767.971 281.483 770.938 280.851 770.427 279.349C758.863 246.462 755.486 212.231 760.398 178.396C760.603 176.894 757.533 176.894 757.328 178.396Z" fill="#E8E8E8" fill-opacity="0.4"/>
<path d="M760.193 178.792C787.106 180.215 815.452 183.456 842.058 178.159C844.002 177.764 843.184 175.472 841.239 175.867C815.043 181.164 786.902 177.843 760.193 176.42C758.147 176.341 758.147 178.713 760.193 178.792Z" fill="#E8E8E8" fill-opacity="0.4"/>
<path d="M840.012 177.211C836.635 207.409 846.357 237.845 867.437 263.38C868.46 264.645 871.121 263.459 870.097 262.194C849.324 236.976 839.808 207.014 843.082 177.211C843.287 175.708 840.217 175.708 840.012 177.211Z" fill="#E8E8E8" fill-opacity="0.4"/>
<path d="M769.71 280.693C785.367 285.12 804.707 282.907 820.569 280.14C837.556 277.136 853.826 271.76 868.357 264.408C869.995 263.617 868.46 261.562 866.822 262.353C852.905 269.388 837.658 274.527 821.49 277.531C805.731 280.456 786.185 282.828 770.529 278.401C768.687 277.847 767.868 280.14 769.71 280.693Z" fill="#E8E8E8" fill-opacity="0.4"/>
<path d="M778.408 191.915C772.78 194.919 767.664 198.24 762.854 201.955C761.933 202.667 762.547 204.011 763.98 204.011C771.552 203.852 779.227 203.694 786.8 203.615C788.744 203.615 788.744 201.244 786.8 201.244C779.227 201.402 771.552 201.56 763.98 201.639C764.389 202.35 764.696 202.983 765.105 203.694C769.71 200.137 774.622 196.896 780.046 194.05C781.581 193.18 780.046 191.046 778.408 191.915Z" fill="#E8E8E8" fill-opacity="0.4"/>
<path d="M792.632 195.156C800.614 194.682 808.493 194.761 816.373 195.393C818.317 195.551 818.317 193.18 816.373 193.022C808.493 192.389 800.512 192.31 792.632 192.784C790.688 192.863 790.688 195.235 792.632 195.156Z" fill="#E8E8E8" fill-opacity="0.4"/>
<path d="M817.396 191.361C822.308 192.231 827.117 193.338 831.927 194.682C831.722 194.049 831.517 193.338 831.21 192.705C827.936 194.682 824.764 196.737 821.694 198.951C820.261 199.978 822.41 201.639 823.843 200.611C826.912 198.476 830.085 196.342 833.359 194.366C834.383 193.733 833.666 192.626 832.643 192.389C827.936 190.966 823.126 189.859 818.112 189.069C816.27 188.753 815.451 190.966 817.396 191.361Z" fill="#E8E8E8" fill-opacity="0.4"/>
<path d="M764.491 218.635C768.994 218.872 773.394 219.031 777.897 219.268C779.841 219.347 779.841 216.975 777.897 216.896C773.394 216.659 768.994 216.501 764.491 216.264C762.547 216.185 762.547 218.556 764.491 218.635Z" fill="#E8E8E8" fill-opacity="0.4"/>
<path d="M787.209 218.636C799.795 217.134 812.382 215.632 824.867 214.13C826.811 213.893 825.992 211.6 824.048 211.837C811.461 213.34 798.874 214.842 786.39 216.344C784.446 216.581 785.264 218.873 787.209 218.636Z" fill="#E8E8E8" fill-opacity="0.4"/>
<path d="M766.742 226.383C769.915 226.383 773.189 226.383 776.362 226.383C778.306 226.383 778.306 224.012 776.362 224.012C773.189 224.012 769.915 224.012 766.742 224.012C764.798 224.012 764.798 226.383 766.742 226.383Z" fill="#E8E8E8" fill-opacity="0.4"/>
<path d="M767.458 232.154C771.142 232.391 774.724 232.154 778.203 231.522C780.147 231.205 779.329 228.913 777.384 229.229C774.11 229.782 770.835 229.941 767.458 229.782C765.514 229.624 765.514 231.996 767.458 232.154Z" fill="#E8E8E8" fill-opacity="0.4"/>
<path d="M766.333 242.43C779.943 241.323 794.884 241.323 807.88 237.845C809.722 237.371 808.903 235.078 807.061 235.553C794.27 238.952 779.636 238.952 766.333 240.059C764.389 240.217 764.389 242.588 766.333 242.43Z" fill="#E8E8E8" fill-opacity="0.4"/>
<path d="M791.199 229.229C805.321 228.044 819.34 226.146 833.155 223.537C835.099 223.142 834.281 220.85 832.337 221.245C818.829 223.854 805.116 225.672 791.199 226.858C789.255 227.016 789.255 229.387 791.199 229.229Z" fill="#E8E8E8" fill-opacity="0.4"/>
<path d="M769.71 252.155C772.882 252.392 775.952 252.234 779.022 251.602C780.967 251.207 780.148 248.914 778.204 249.309C775.441 249.863 772.575 250.021 769.71 249.784C767.766 249.626 767.766 251.997 769.71 252.155Z" fill="#E8E8E8" fill-opacity="0.4"/>
<path d="M792.53 249.625C797.135 250.02 801.536 248.992 806.038 248.202C811.564 247.253 817.09 246.304 822.513 245.356C824.458 245.039 823.639 242.747 821.695 243.063C816.885 243.933 811.973 244.723 807.164 245.593C802.354 246.383 797.442 247.648 792.53 247.253C790.586 247.016 790.586 249.387 792.53 249.625Z" fill="#E8E8E8" fill-opacity="0.4"/>
<path d="M786.288 253.893C783.73 254.447 781.683 255.791 781.069 257.846C780.865 258.637 780.967 259.585 781.274 260.376C781.581 261.008 785.879 265.198 783.628 265.672C782.707 265.831 782.093 266.779 782.707 267.412C785.163 270.02 784.856 273.815 788.54 275.791C790.893 277.056 793.451 277.135 795.6 275.633C797.033 274.606 794.884 272.945 793.451 273.973C789.768 276.661 786.8 267.807 785.367 266.226C785.06 266.779 784.753 267.412 784.446 267.965C786.288 267.57 787.312 266.779 787.516 265.277C788.028 262.826 780.558 257.53 787.107 256.186C789.051 255.791 788.233 253.498 786.288 253.893Z" fill="#E8E8E8" fill-opacity="0.4"/>
<path d="M794.167 264.171C803.377 263.855 812.485 263.302 821.592 262.511C823.536 262.353 823.536 259.981 821.592 260.139C812.485 260.93 803.377 261.483 794.167 261.8C792.223 261.879 792.223 264.25 794.167 264.171Z" fill="#E8E8E8" fill-opacity="0.4"/>
<path d="M827.527 251.602C828.345 251.681 829.676 251.444 830.494 251.602C834.894 252.551 833.053 253.341 833.36 255.08C833.564 256.424 833.36 257.61 833.871 258.954C834.383 260.377 835.406 261.721 836.02 263.144C836.941 265.199 837.043 265.595 835.099 267.413C833.257 269.073 833.257 269.073 830.801 269.389C828.857 269.626 829.676 271.919 831.62 271.682C834.69 271.286 837.76 270.417 839.192 268.124C840.83 265.436 839.09 262.828 837.76 260.298C836.736 258.401 836.327 256.661 836.429 254.606C836.429 253.499 836.634 252.313 836.02 251.286C834.28 248.519 830.699 249.546 827.527 249.23C825.582 249.072 825.582 251.444 827.527 251.602Z" fill="#E8E8E8" fill-opacity="0.4"/>
<g clip-path="url(#clip0_6408_133082)">
<path d="M606.276 228.69H287V228.85H606.276V228.69Z" fill="#EBEBEB"/>
<path d="M574.285 238.965H553.136V239.124H574.285V238.965Z" fill="#EBEBEB"/>
<path d="M498.501 240.702H492.952V240.862H498.501V240.702Z" fill="#EBEBEB"/>
<path d="M552.497 233.039H540.243V233.199H552.497V233.039Z" fill="#EBEBEB"/>
<path d="M348.077 234.111H320.498V234.271H348.077V234.111Z" fill="#EBEBEB"/>
<path d="M357.809 234.111H353.767V234.271H357.809V234.111Z" fill="#EBEBEB"/>
<path d="M430.77 236.807H370.95V236.966H430.77V236.807Z" fill="#EBEBEB"/>
<path d="M438.337 200.211H315.039C314.073 200.209 313.147 199.825 312.465 199.141C311.783 198.457 311.399 197.531 311.399 196.565V23.2431C311.408 22.2827 311.795 21.3645 312.476 20.6878C313.158 20.0111 314.079 19.6306 315.039 19.6289H438.337C439.304 19.6289 440.231 20.0131 440.915 20.6968C441.599 21.3806 441.983 22.308 441.983 23.275V196.565C441.983 197.532 441.599 198.459 440.915 199.143C440.231 199.827 439.304 200.211 438.337 200.211ZM315.039 19.7566C314.116 19.7583 313.23 20.1264 312.578 20.78C311.925 21.4337 311.559 22.3195 311.559 23.2431V196.565C311.559 197.489 311.925 198.374 312.578 199.028C313.23 199.682 314.116 200.05 315.039 200.052H438.337C439.261 200.05 440.147 199.682 440.8 199.029C441.454 198.375 441.822 197.489 441.824 196.565V23.2431C441.822 22.3189 441.454 21.4331 440.8 20.7796C440.147 20.1262 439.261 19.7583 438.337 19.7566H315.039Z" fill="#EBEBEB"/>
<path d="M576.462 200.211H453.158C452.191 200.209 451.265 199.825 450.582 199.141C449.898 198.458 449.513 197.532 449.512 196.565V23.2431C449.522 22.2822 449.91 21.3639 450.593 20.6874C451.275 20.0108 452.197 19.6305 453.158 19.6289H576.462C577.421 19.6322 578.341 20.0135 579.021 20.69C579.701 21.3665 580.087 22.2838 580.095 23.2431V196.565C580.095 197.53 579.713 198.455 579.032 199.139C578.351 199.822 577.427 200.208 576.462 200.211ZM453.158 19.7566C452.234 19.7583 451.348 20.1262 450.694 20.7796C450.041 21.4331 449.673 22.3189 449.671 23.2431V196.565C449.673 197.489 450.041 198.375 450.694 199.029C451.348 199.682 452.234 200.05 453.158 200.052H576.462C577.386 200.05 578.272 199.682 578.926 199.029C579.579 198.375 579.947 197.489 579.949 196.565V23.2431C579.947 22.3189 579.579 21.4331 578.926 20.7796C578.272 20.1262 577.386 19.7583 576.462 19.7566H453.158Z" fill="#EBEBEB"/>
<path d="M429.199 101.829H329.24V228.403H429.199V101.829Z" fill="#F0F0F0"/>
<path d="M425.662 106.446H332.771V133.514H425.662V106.446Z" fill="#E0E0E0"/>
<path d="M338.046 110.827H332.771V133.508H338.046V110.827Z" fill="#EBEBEB"/>
<path d="M363.563 110.827H358.288V133.508H363.563V110.827Z" fill="#EBEBEB"/>
<path d="M392.527 110.251L387.329 111.146L391.182 133.498L396.38 132.602L392.527 110.251Z" fill="#EBEBEB"/>
<path d="M344.585 113.815H339.311V133.508H344.585V113.815Z" fill="#EBEBEB"/>
<path d="M356.711 113.815H351.437V133.508H356.711V113.815Z" fill="#EBEBEB"/>
<path d="M387.323 113.815H382.049V133.508H387.323V113.815Z" fill="#EBEBEB"/>
<path d="M370.492 113.136L365.343 114.28L369.615 133.504L374.764 132.36L370.492 113.136Z" fill="#EBEBEB"/>
<path d="M349.15 109.696H346.513V133.508H349.15V109.696Z" fill="#EBEBEB"/>
<path d="M380.535 109.696H377.897V133.508H380.535V109.696Z" fill="#EBEBEB"/>
<path d="M332.771 164.861H425.661V137.793H332.771V164.861Z" fill="#E0E0E0"/>
<path d="M420.387 164.861H425.661V142.18H420.387V164.861Z" fill="#EBEBEB"/>
<path d="M394.87 164.861H400.145V142.18H394.87V164.861Z" fill="#EBEBEB"/>
<path d="M362.054 163.968L367.252 164.864L371.105 142.513L365.907 141.617L362.054 163.968Z" fill="#EBEBEB"/>
<path d="M413.842 164.861H419.116V145.168H413.842V164.861Z" fill="#EBEBEB"/>
<path d="M401.722 164.861H406.996V145.168H401.722V164.861Z" fill="#EBEBEB"/>
<path d="M371.104 164.861H376.378V145.168H371.104V164.861Z" fill="#EBEBEB"/>
<path d="M383.676 163.712L388.825 164.856L393.098 145.633L387.949 144.488L383.676 163.712Z" fill="#EBEBEB"/>
<path d="M409.283 164.861H411.92V141.05H409.283V164.861Z" fill="#EBEBEB"/>
<path d="M377.898 164.861H380.535V141.05H377.898V164.861Z" fill="#EBEBEB"/>
<path d="M338.046 142.18H332.771V164.861H338.046V142.18Z" fill="#EBEBEB"/>
<path d="M344.585 145.168H339.311V164.861H344.585V145.168Z" fill="#EBEBEB"/>
<path d="M356.711 145.168H351.437V164.861H356.711V145.168Z" fill="#EBEBEB"/>
<path d="M349.15 141.05H346.513V164.861H349.15V141.05Z" fill="#EBEBEB"/>
<path d="M425.662 169.146H332.771V196.214H425.662V169.146Z" fill="#E0E0E0"/>
<path d="M391.358 173.526H386.084V196.208H391.358V173.526Z" fill="#EBEBEB"/>
<path d="M420.329 172.955L415.131 173.851L418.984 196.202L424.181 195.306L420.329 172.955Z" fill="#EBEBEB"/>
<path d="M372.381 176.521H367.106V196.214H372.381V176.521Z" fill="#EBEBEB"/>
<path d="M384.513 176.521H379.238V196.214H384.513V176.521Z" fill="#EBEBEB"/>
<path d="M415.125 176.521H409.851V196.214H415.125V176.521Z" fill="#EBEBEB"/>
<path d="M398.299 175.839L393.15 176.983L397.423 196.207L402.572 195.063L398.299 175.839Z" fill="#EBEBEB"/>
<path d="M376.946 172.402H374.309V196.214H376.946V172.402Z" fill="#EBEBEB"/>
<path d="M408.332 172.402H405.694V196.214H408.332V172.402Z" fill="#EBEBEB"/>
<path d="M359.623 172.961L354.425 173.856L358.278 196.208L363.475 195.312L359.623 172.961Z" fill="#EBEBEB"/>
<path d="M354.418 176.521H349.144V196.214H354.418V176.521Z" fill="#EBEBEB"/>
<path d="M337.588 175.843L332.439 176.987L336.712 196.211L341.861 195.067L337.588 175.843Z" fill="#EBEBEB"/>
<path d="M347.624 172.402H344.986V196.214H347.624V172.402Z" fill="#EBEBEB"/>
<path d="M481.937 152.85H538.27C539.725 152.85 541.165 153.137 542.509 153.695C543.853 154.252 545.074 155.07 546.101 156.1C547.129 157.131 547.943 158.354 548.497 159.699C549.05 161.045 549.333 162.486 549.329 163.941V207.925H470.902V163.941C470.896 161.007 472.054 158.191 474.123 156.111C476.192 154.031 479.003 152.858 481.937 152.85Z" fill="#E6E6E6"/>
<path d="M454.224 185.454H464.3C465.166 185.451 466.025 185.619 466.826 185.948C467.628 186.277 468.356 186.762 468.969 187.374C469.583 187.985 470.07 188.712 470.401 189.513C470.733 190.313 470.903 191.171 470.903 192.038V228.435H447.646V192.038C447.646 191.173 447.815 190.317 448.145 189.519C448.475 188.72 448.96 187.994 449.571 187.383C450.181 186.771 450.907 186.286 451.705 185.955C452.504 185.624 453.359 185.454 454.224 185.454Z" fill="#E0E0E0"/>
<path d="M454.224 185.454H454.434C455.299 185.454 456.154 185.624 456.953 185.955C457.751 186.286 458.476 186.771 459.087 187.383C459.698 187.994 460.182 188.72 460.513 189.519C460.843 190.317 461.012 191.173 461.011 192.038V228.435H447.646V192.038C447.646 191.173 447.815 190.317 448.145 189.519C448.475 188.72 448.96 187.994 449.571 187.383C450.181 186.771 450.907 186.286 451.705 185.955C452.504 185.624 453.359 185.454 454.224 185.454Z" fill="#EBEBEB"/>
<path d="M541.124 211.692H463.821V228.403H541.124V211.692Z" fill="#E6E6E6"/>
<path d="M538.264 196.412H463.713C460.021 196.412 457.027 199.405 457.027 203.098V207.255C457.027 210.947 460.021 213.94 463.713 213.94H538.264C541.956 213.94 544.949 210.947 544.949 207.255V203.098C544.949 199.405 541.956 196.412 538.264 196.412Z" fill="#F5F5F5"/>
<path d="M538.135 196.412H528.896C525.203 196.412 522.21 199.405 522.21 203.098V207.255C522.21 210.947 525.203 213.94 528.896 213.94H538.135C541.828 213.94 544.821 210.947 544.821 207.255V203.098C544.821 199.405 541.828 196.412 538.135 196.412Z" fill="#E0E0E0"/>
<path d="M539.138 185.454H549.221C550.085 185.454 550.94 185.624 551.738 185.955C552.536 186.286 553.261 186.772 553.871 187.383C554.482 187.995 554.966 188.72 555.295 189.519C555.624 190.318 555.793 191.174 555.791 192.038V228.435H532.567V192.038C532.566 191.174 532.734 190.318 533.064 189.519C533.393 188.72 533.877 187.995 534.487 187.383C535.098 186.772 535.823 186.286 536.621 185.955C537.419 185.624 538.274 185.454 539.138 185.454Z" fill="#E0E0E0"/>
<path d="M539.138 185.454H539.355C540.219 185.454 541.075 185.624 541.873 185.955C542.671 186.286 543.396 186.772 544.006 187.383C544.616 187.995 545.1 188.72 545.429 189.519C545.759 190.318 545.928 191.174 545.926 192.038V228.435H532.567V192.038C532.566 191.174 532.734 190.318 533.064 189.519C533.393 188.72 533.877 187.995 534.487 187.383C535.098 186.772 535.823 186.286 536.621 185.955C537.419 185.624 538.274 185.454 539.138 185.454Z" fill="#F0F0F0"/>
<path d="M382.946 86.4428C391.144 85.1121 396.711 77.3876 395.38 69.1897C394.049 60.9918 386.325 55.4249 378.127 56.7556C369.929 58.0863 364.362 65.8107 365.693 74.0086C367.023 82.2065 374.748 87.7735 382.946 86.4428Z" fill="#E0E0E0"/>
<path d="M382.586 84.224C389.558 83.0922 394.293 76.5223 393.161 69.5497C392.03 62.5772 385.46 57.8423 378.487 58.9741C371.515 60.1059 366.78 66.6758 367.912 73.6484C369.043 80.6209 375.613 85.3558 382.586 84.224Z" fill="#F0F0F0"/>
<path d="M379.928 80.3801V71.4404L374.009 74.7928" fill="#F0F0F0"/>
<path d="M379.928 81.0194C379.759 81.0194 379.597 80.9522 379.477 80.8324C379.357 80.7127 379.29 80.5502 379.29 80.3809V72.5331L374.322 75.3491C374.174 75.4318 374 75.4527 373.837 75.4073C373.675 75.3618 373.537 75.2536 373.453 75.1065C373.37 74.9598 373.348 74.7862 373.393 74.6235C373.437 74.4608 373.544 74.3223 373.69 74.238L379.615 70.8856C379.712 70.8311 379.822 70.8028 379.934 70.8037C380.045 70.8046 380.154 70.8347 380.25 70.8908C380.346 70.947 380.426 71.0273 380.482 71.1239C380.537 71.2204 380.567 71.3298 380.567 71.4412V80.3809C380.567 80.5502 380.5 80.7127 380.38 80.8324C380.26 80.9522 380.098 81.0194 379.928 81.0194Z" fill="#E0E0E0"/>
<path d="M560.689 52.6289H464.428V138.048H560.689V52.6289Z" fill="#E6E6E6"/>
<path d="M558.154 54.9727H466.835V135.756H558.154V54.9727Z" fill="#F0F0F0"/>
<path d="M488.265 54.9727L466.835 135.577V97.7045L478.15 54.9727H488.265Z" fill="white"/>
<path d="M495.858 54.9727L474.236 135.756H470.788L492.409 54.9727H495.858Z" fill="white"/>
<path d="M558.154 105.948V118.853L553.78 135.756H550.332L558.154 105.948Z" fill="white"/>
<path d="M498.686 53.5234H497.147V137.563H498.686V53.5234Z" fill="#E6E6E6"/>
<path d="M528.5 53.5234H526.961V137.563H528.5V53.5234Z" fill="#E6E6E6"/>
<path d="M434.5 256.26C497.678 256.26 548.895 253.27 548.895 249.581C548.895 245.893 497.678 242.902 434.5 242.902C371.321 242.902 320.104 245.893 320.104 249.581C320.104 253.27 371.321 256.26 434.5 256.26Z" fill="#F5F5F5"/>
<path d="M524.122 234.825C524.122 234.825 526.924 228.713 523.721 222.683C520.517 216.653 519.591 215.237 521.632 213.998C523.673 212.759 524.611 218.825 524.611 218.825C525.621 216.086 525.724 213.095 524.906 210.293C523.49 205.933 522.6 198.83 524.535 198.068C526.47 197.307 524.906 206.918 526.594 210.211C527.45 207.906 528.003 205.501 528.24 203.054C528.47 199.549 528.11 193.956 529.638 192.522C531.166 191.089 532.152 192.08 530.647 199.809C529.743 204.429 529.243 209.12 529.154 213.827C529.154 213.827 532.476 203.685 534.712 203.39C536.948 203.095 536.942 206.376 535.031 209.225C533.119 212.075 529.432 217.179 528.83 219.804C528.83 219.804 532.482 212.169 535.762 214.494C539.043 216.819 532.907 221.438 530.169 223.108C527.432 224.778 525.532 235.209 525.532 235.209L524.122 234.825Z" fill="#44E0AA"/>
<path opacity="0.2" d="M524.122 234.825C524.122 234.825 526.924 228.713 523.721 222.683C520.517 216.653 519.591 215.237 521.632 213.998C523.673 212.759 524.611 218.825 524.611 218.825C525.621 216.086 525.724 213.095 524.906 210.293C523.49 205.933 522.6 198.83 524.535 198.068C526.47 197.307 524.906 206.918 526.594 210.211C527.45 207.906 528.003 205.501 528.24 203.054C528.47 199.549 528.11 193.956 529.638 192.522C531.166 191.089 532.152 192.08 530.647 199.809C529.743 204.429 529.243 209.12 529.154 213.827C529.154 213.827 532.476 203.685 534.712 203.39C536.948 203.095 536.942 206.376 535.031 209.225C533.119 212.075 529.432 217.179 528.83 219.804C528.83 219.804 532.482 212.169 535.762 214.494C539.043 216.819 532.907 221.438 530.169 223.108C527.432 224.778 525.532 235.209 525.532 235.209L524.122 234.825Z" fill="black"/>
<path d="M526.334 237.333C526.334 237.333 523.602 231.179 526.877 225.197C530.151 219.214 531.095 217.81 529.071 216.547C527.048 215.285 526.033 221.326 526.033 221.326C525.055 218.577 524.987 215.586 525.838 212.795C527.307 208.453 528.287 201.361 526.357 200.57C524.428 199.78 525.879 209.42 524.157 212.683C523.328 210.367 522.802 207.953 522.593 205.503C522.404 201.998 522.835 196.411 521.319 194.953C519.802 193.496 518.811 194.475 520.227 202.228C521.075 206.857 521.517 211.552 521.549 216.258C521.549 216.258 518.345 206.069 516.121 205.744C513.896 205.42 513.855 208.694 515.731 211.574C517.608 214.453 521.23 219.609 521.82 222.241C521.82 222.241 518.28 214.571 514.953 216.848C511.625 219.126 517.726 223.834 520.44 225.545C523.154 227.256 524.935 237.717 524.935 237.717L526.334 237.333Z" fill="#44E0AA"/>
<path d="M513.743 232.943H536.287L534.464 249.08H515.566L513.743 232.943Z" fill="#263238"/>
<path d="M448.866 245.218V248.374C448.866 248.467 448.847 248.56 448.811 248.646C448.776 248.733 448.723 248.811 448.657 248.877C448.591 248.943 448.512 248.996 448.426 249.031C448.34 249.067 448.247 249.086 448.154 249.086H359.014C358.254 249.086 357.505 248.899 356.834 248.543C356.162 248.186 355.588 247.671 355.162 247.041C354.736 246.411 354.471 245.687 354.391 244.931C354.31 244.175 354.416 243.41 354.699 242.705L382.947 172.743L428.598 173.051L427.042 182.13L416.97 240.885C416.894 241.331 416.917 241.787 417.036 242.223C417.155 242.659 417.367 243.063 417.658 243.409C417.949 243.754 418.312 244.032 418.721 244.223C419.131 244.414 419.577 244.514 420.028 244.515H448.154C448.247 244.514 448.339 244.531 448.425 244.566C448.512 244.601 448.59 244.653 448.657 244.718C448.723 244.784 448.775 244.861 448.811 244.947C448.847 245.033 448.866 245.125 448.866 245.218Z" fill="#263238"/>
<path opacity="0.5" d="M448.866 245.218V248.374C448.866 248.467 448.847 248.56 448.811 248.646C448.776 248.733 448.723 248.811 448.657 248.877C448.591 248.943 448.512 248.996 448.426 249.031C448.34 249.067 448.247 249.086 448.154 249.086H359.014C358.254 249.086 357.505 248.899 356.834 248.543C356.162 248.186 355.588 247.671 355.162 247.041C354.736 246.411 354.471 245.687 354.391 244.931C354.31 244.175 354.416 243.41 354.699 242.705L372.215 199.33L382.947 172.743L428.598 173.051L427.042 182.13L422.648 207.68L416.961 240.885C416.886 241.331 416.908 241.787 417.027 242.223C417.146 242.659 417.358 243.063 417.649 243.409C417.941 243.754 418.303 244.032 418.713 244.223C419.122 244.414 419.568 244.514 420.02 244.515H448.145C448.239 244.513 448.332 244.529 448.419 244.564C448.507 244.598 448.586 244.649 448.653 244.715C448.721 244.78 448.774 244.859 448.81 244.945C448.847 245.032 448.866 245.125 448.866 245.218Z" fill="white"/>
<path opacity="0.2" d="M420.029 244.506H362.021C361.686 244.505 361.358 244.422 361.063 244.264C360.768 244.107 360.517 243.879 360.331 243.601C360.146 243.323 360.031 243.004 359.998 242.671C359.964 242.339 360.013 242.003 360.14 241.694L384.908 182.121H427.034L416.962 240.877C416.886 241.323 416.909 241.78 417.028 242.216C417.148 242.653 417.361 243.058 417.653 243.403C417.945 243.749 418.309 244.027 418.719 244.217C419.129 244.408 419.576 244.506 420.029 244.506Z" fill="black"/>
<path opacity="0.1" d="M428.598 173.042L427.042 182.121L422.657 207.671L372.216 199.33L382.947 172.734L428.598 173.042Z" fill="black"/>
<path d="M517.359 42.6289H306.024C305.315 42.6289 304.612 42.7687 303.956 43.0404C303.3 43.312 302.704 43.7102 302.202 44.2121C301.7 44.714 301.302 45.3099 301.031 45.9657C300.759 46.6215 300.619 47.3244 300.619 48.0342V191.113C300.619 192.546 301.189 193.921 302.202 194.935C303.216 195.949 304.591 196.518 306.024 196.518H517.359C518.794 196.518 520.17 195.949 521.185 194.935C522.2 193.922 522.771 192.547 522.773 191.113V48.0342C522.771 46.5998 522.2 45.225 521.185 44.2116C520.17 43.1981 518.794 42.6289 517.359 42.6289Z" fill="#263238"/>
<path opacity="0.6" d="M517.359 42.6289H306.024C305.315 42.6289 304.612 42.7687 303.956 43.0404C303.3 43.312 302.704 43.7102 302.202 44.2121C301.7 44.714 301.302 45.3099 301.031 45.9657C300.759 46.6215 300.619 47.3244 300.619 48.0342V191.113C300.619 192.546 301.189 193.921 302.202 194.935C303.216 195.949 304.591 196.518 306.024 196.518H517.359C518.794 196.518 520.17 195.949 521.185 194.935C522.2 193.922 522.771 192.547 522.773 191.113V48.0342C522.771 46.5998 522.2 45.225 521.185 44.2116C520.17 43.1981 518.794 42.6289 517.359 42.6289Z" fill="white"/>
<path opacity="0.2" d="M310.507 196.509H306.024C304.592 196.509 303.219 195.941 302.205 194.929C301.192 193.917 300.621 192.545 300.619 191.113V48.0431C300.618 47.3325 300.757 46.6287 301.028 45.9719C301.299 45.315 301.697 44.7181 302.199 44.2153C302.701 43.7124 303.298 43.3135 303.954 43.0413C304.61 42.7691 305.314 42.629 306.024 42.629H310.507C309.794 42.6255 309.088 42.763 308.428 43.0337C307.769 43.3043 307.169 43.7027 306.665 44.2059C306.16 44.7091 305.759 45.3072 305.487 45.9657C305.214 46.6243 305.074 47.3303 305.075 48.0431V191.113C305.075 191.824 305.216 192.529 305.489 193.186C305.763 193.843 306.163 194.44 306.668 194.941C307.173 195.443 307.772 195.839 308.431 196.109C309.09 196.378 309.795 196.514 310.507 196.509Z" fill="black"/>
<path d="M517.904 47.2783H309.979V185.242H517.904V47.2783Z" fill="#5063F4"/>
<path opacity="0.4" d="M411.072 99.7933C421.043 99.7933 429.125 91.7107 429.125 81.7404C429.125 71.7701 421.043 63.6875 411.072 63.6875C401.102 63.6875 393.02 71.7701 393.02 81.7404C393.02 91.7107 401.102 99.7933 411.072 99.7933Z" fill="white"/>
<path d="M406.766 78.9981V77.3458C406.766 76.5579 407.079 75.8023 407.636 75.2451C408.193 74.688 408.948 74.375 409.736 74.375H412.373C412.766 74.3704 413.156 74.4438 413.521 74.591C413.885 74.7382 414.217 74.9563 414.497 75.2326C414.776 75.5089 414.998 75.838 415.15 76.2007C415.301 76.5635 415.379 76.9527 415.379 77.3458V79.0333H417.304V77.3458C417.302 76.0481 416.785 74.8042 415.867 73.8866C414.95 72.969 413.706 72.4525 412.408 72.4502H409.772C408.474 72.4525 407.23 72.969 406.312 73.8866C405.395 74.8042 404.878 76.0481 404.876 77.3458V79.0333L406.766 78.9981Z" fill="white"/>
<path d="M402.415 81.2217V90.0899C402.415 90.2192 402.44 90.3472 402.49 90.4666C402.539 90.5861 402.612 90.6946 402.703 90.786C402.795 90.8774 402.903 90.9499 403.023 90.9994C403.142 91.0489 403.27 91.0743 403.399 91.0743H418.745C418.875 91.0743 419.003 91.0489 419.122 90.9994C419.241 90.9499 419.35 90.8774 419.441 90.786C419.533 90.6946 419.605 90.5861 419.655 90.4666C419.704 90.3472 419.73 90.2192 419.73 90.0899V81.2217C419.73 80.9606 419.626 80.7102 419.441 80.5256C419.257 80.341 419.006 80.2373 418.745 80.2373H403.399C403.27 80.2373 403.142 80.2628 403.023 80.3122C402.903 80.3617 402.795 80.4342 402.703 80.5256C402.612 80.617 402.539 80.7256 402.49 80.845C402.44 80.9644 402.415 81.0924 402.415 81.2217ZM411.626 86.2403V87.9981H410.545V86.2403C410.387 86.1523 410.254 86.0253 410.159 85.8715C410.063 85.7177 410.009 85.5421 410 85.3614C410 85.07 410.116 84.7906 410.322 84.5845C410.528 84.3785 410.807 84.2627 411.099 84.2627C411.39 84.2627 411.67 84.3785 411.876 84.5845C412.082 84.7906 412.197 85.07 412.197 85.3614C412.186 85.5447 412.128 85.7221 412.028 85.8761C411.927 86.0301 411.789 86.1556 411.626 86.2403Z" fill="white"/>
<path d="M367.03 114.744H349.98C348.965 114.744 348.143 115.567 348.143 116.581V133.632C348.143 134.647 348.965 135.469 349.98 135.469H367.03C368.045 135.469 368.867 134.647 368.867 133.632V116.581C368.867 115.567 368.045 114.744 367.03 114.744Z" fill="white"/>
<path d="M393.319 114.718H376.268C375.253 114.718 374.431 115.54 374.431 116.555V133.606C374.431 134.62 375.253 135.443 376.268 135.443H393.319C394.333 135.443 395.155 134.62 395.155 133.606V116.555C395.155 115.54 394.333 114.718 393.319 114.718Z" fill="white"/>
<path d="M419.598 114.691H402.547C401.532 114.691 400.71 115.514 400.71 116.528V133.579C400.71 134.594 401.532 135.416 402.547 135.416H419.598C420.612 135.416 421.435 134.594 421.435 133.579V116.528C421.435 115.514 420.612 114.691 419.598 114.691Z" fill="white"/>
<path d="M445.877 114.656H428.826C427.812 114.656 426.989 115.479 426.989 116.493V133.544C426.989 134.559 427.812 135.381 428.826 135.381H445.877C446.892 135.381 447.714 134.559 447.714 133.544V116.493C447.714 115.479 446.892 114.656 445.877 114.656Z" fill="white"/>
<path d="M472.156 114.63H455.105C454.091 114.63 453.269 115.452 453.269 116.467V133.518C453.269 134.532 454.091 135.355 455.105 135.355H472.156C473.171 135.355 473.993 134.532 473.993 133.518V116.467C473.993 115.452 473.171 114.63 472.156 114.63Z" fill="white"/>
<g opacity="0.6">
<path d="M391.411 109.682V110.077H388.361V105.762H391.314V106.157H388.818V107.695H391.042V108.108H388.818V109.708L391.411 109.682Z" fill="white"/>
<path d="M395.366 108.196V110.077H394.927V108.24C394.953 108.103 394.946 107.963 394.908 107.829C394.869 107.696 394.799 107.573 394.704 107.472C394.609 107.371 394.491 107.294 394.36 107.247C394.229 107.2 394.089 107.185 393.951 107.203C393.796 107.192 393.641 107.215 393.496 107.27C393.351 107.325 393.22 107.412 393.112 107.523C393.004 107.634 392.922 107.768 392.871 107.915C392.82 108.061 392.802 108.217 392.817 108.372V110.077H392.387V106.834H392.8V107.431C392.932 107.229 393.115 107.065 393.332 106.957C393.548 106.849 393.789 106.8 394.03 106.816C394.214 106.8 394.398 106.826 394.57 106.89C394.742 106.955 394.898 107.057 395.026 107.189C395.154 107.321 395.251 107.48 395.31 107.654C395.368 107.828 395.388 108.013 395.366 108.196Z" fill="white"/>
<path d="M398.24 109.866C398.047 110.023 397.803 110.104 397.555 110.095C397.428 110.105 397.301 110.088 397.181 110.045C397.062 110.001 396.954 109.933 396.863 109.843C396.773 109.754 396.703 109.646 396.659 109.527C396.614 109.408 396.596 109.281 396.605 109.154V107.23H396.025V106.86H396.605V106.157H397.045V106.86H398.029V107.23H397.045V109.163C397.045 109.55 397.238 109.752 397.599 109.752C397.773 109.757 397.944 109.701 398.082 109.594L398.24 109.866Z" fill="white"/>
<path d="M401.755 108.592H399.048C399.069 108.91 399.214 109.207 399.453 109.418C399.692 109.629 400.005 109.736 400.323 109.717C400.509 109.723 400.694 109.688 400.866 109.616C401.037 109.543 401.191 109.433 401.316 109.295L401.562 109.577C401.322 109.802 401.024 109.955 400.702 110.019C400.379 110.083 400.045 110.055 399.737 109.939C399.43 109.823 399.161 109.623 398.962 109.361C398.762 109.1 398.64 108.788 398.609 108.46C398.597 108.246 398.629 108.032 398.703 107.832C398.778 107.631 398.893 107.448 399.041 107.293C399.19 107.139 399.369 107.017 399.566 106.935C399.764 106.853 399.977 106.813 400.191 106.817C400.404 106.813 400.616 106.853 400.813 106.935C401.01 107.017 401.188 107.139 401.335 107.294C401.482 107.449 401.596 107.632 401.668 107.833C401.74 108.034 401.77 108.247 401.755 108.46C401.755 108.46 401.755 108.539 401.755 108.592ZM399.048 108.267H401.342C401.317 107.98 401.186 107.713 400.973 107.518C400.761 107.324 400.483 107.216 400.195 107.216C399.907 107.216 399.63 107.324 399.418 107.518C399.205 107.713 399.074 107.98 399.048 108.267Z" fill="white"/>
<path d="M404.278 106.816V107.229H404.173C404.018 107.221 403.864 107.247 403.721 107.306C403.578 107.365 403.449 107.455 403.345 107.569C403.241 107.683 403.163 107.819 403.118 107.967C403.073 108.115 403.061 108.271 403.083 108.424V110.077H402.635V106.834H403.057V107.466C403.17 107.246 403.347 107.066 403.566 106.95C403.784 106.834 404.033 106.787 404.278 106.816Z" fill="white"/>
<path d="M409.446 106.834L407.829 110.464C407.557 111.097 407.214 111.299 406.748 111.299C406.604 111.304 406.461 111.28 406.327 111.229C406.192 111.178 406.069 111.1 405.966 111L406.168 110.675C406.243 110.755 406.334 110.819 406.436 110.861C406.537 110.904 406.647 110.924 406.757 110.921C407.047 110.921 407.24 110.789 407.425 110.385L407.565 110.068L406.15 106.834H406.607L407.82 109.585L409.042 106.834H409.446Z" fill="white"/>
<path d="M409.666 108.46C409.664 108.133 409.76 107.812 409.94 107.54C410.121 107.267 410.378 107.054 410.68 106.927C410.982 106.801 411.314 106.767 411.635 106.83C411.956 106.892 412.252 107.049 412.484 107.28C412.716 107.51 412.874 107.805 412.938 108.126C413.003 108.446 412.971 108.779 412.846 109.081C412.721 109.384 412.509 109.642 412.237 109.824C411.965 110.006 411.645 110.104 411.318 110.104C411.1 110.112 410.882 110.076 410.678 109.996C410.474 109.917 410.289 109.796 410.134 109.642C409.979 109.488 409.857 109.303 409.777 109.1C409.696 108.896 409.659 108.679 409.666 108.46ZM412.514 108.46C412.503 108.224 412.424 107.996 412.285 107.805C412.146 107.614 411.954 107.468 411.733 107.385C411.512 107.302 411.271 107.286 411.041 107.339C410.811 107.392 410.601 107.512 410.438 107.683C410.275 107.854 410.167 108.069 410.125 108.302C410.084 108.535 410.112 108.774 410.206 108.991C410.299 109.208 410.455 109.392 410.653 109.521C410.851 109.65 411.082 109.718 411.318 109.717C411.479 109.716 411.638 109.682 411.785 109.618C411.933 109.553 412.065 109.459 412.175 109.341C412.284 109.223 412.368 109.085 412.422 108.933C412.476 108.781 412.498 108.62 412.487 108.46H412.514Z" fill="white"/>
<path d="M416.741 106.834V110.077H416.328V109.48C416.208 109.679 416.035 109.843 415.83 109.953C415.624 110.063 415.392 110.115 415.159 110.104C414.973 110.122 414.786 110.098 414.61 110.035C414.435 109.971 414.276 109.869 414.145 109.736C414.014 109.602 413.915 109.441 413.855 109.265C413.795 109.088 413.775 108.9 413.797 108.715V106.834H414.227V108.671C414.201 108.807 414.208 108.948 414.247 109.082C414.285 109.215 414.355 109.337 414.45 109.439C414.546 109.54 414.663 109.617 414.794 109.664C414.925 109.711 415.065 109.726 415.203 109.708C415.356 109.717 415.508 109.692 415.651 109.635C415.793 109.579 415.921 109.492 416.025 109.38C416.13 109.269 416.209 109.136 416.257 108.99C416.305 108.845 416.32 108.691 416.302 108.539V106.834H416.741Z" fill="white"/>
<path d="M419.598 106.816V107.229H419.492C419.338 107.221 419.183 107.247 419.04 107.306C418.897 107.365 418.769 107.455 418.664 107.569C418.56 107.683 418.483 107.819 418.437 107.967C418.392 108.115 418.38 108.271 418.402 108.424V110.077H417.963V106.834H418.385V107.466C418.497 107.248 418.673 107.069 418.89 106.953C419.107 106.836 419.353 106.789 419.598 106.816Z" fill="white"/>
<path d="M421.751 107.924C421.736 107.472 421.855 107.026 422.094 106.643C422.334 106.26 422.682 105.957 423.095 105.773C423.508 105.589 423.966 105.533 424.411 105.612C424.856 105.69 425.267 105.899 425.592 106.213C425.917 106.527 426.141 106.931 426.235 107.372C426.33 107.814 426.29 108.274 426.12 108.693C425.951 109.112 425.661 109.471 425.287 109.724C424.912 109.977 424.471 110.112 424.019 110.112C423.725 110.124 423.431 110.076 423.156 109.972C422.88 109.867 422.629 109.707 422.417 109.503C422.205 109.298 422.037 109.053 421.923 108.782C421.808 108.51 421.75 108.218 421.751 107.924ZM425.821 107.924C425.831 107.561 425.733 107.204 425.538 106.899C425.343 106.593 425.061 106.353 424.728 106.209C424.395 106.066 424.027 106.025 423.67 106.094C423.314 106.162 422.987 106.335 422.731 106.592C422.474 106.848 422.301 107.175 422.233 107.531C422.164 107.887 422.205 108.256 422.348 108.589C422.492 108.922 422.732 109.204 423.038 109.399C423.343 109.593 423.701 109.692 424.063 109.682C424.529 109.682 424.976 109.496 425.306 109.167C425.636 108.837 425.821 108.39 425.821 107.924Z" fill="white"/>
<path d="M428.07 106.157H426.559V105.762H430.074V106.157H428.554V110.077H428.097L428.07 106.157Z" fill="white"/>
<path d="M434.144 107.23C434.144 108.108 433.476 108.697 432.386 108.697H431.234V110.06H430.76V105.744H432.368C433.476 105.762 434.144 106.351 434.144 107.23ZM433.687 107.23C433.687 106.535 433.23 106.14 432.368 106.14H431.226V108.293H432.368C433.23 108.311 433.687 107.924 433.687 107.23Z" fill="white"/>
</g>
<g opacity="0.6">
<path d="M393.978 146.684L394.153 146.341C394.548 146.684 395.055 146.868 395.577 146.86C396.377 146.86 396.729 146.526 396.729 146.095C396.729 144.917 394.092 145.638 394.092 144.047C394.092 143.414 394.584 142.869 395.674 142.869C396.146 142.863 396.611 142.994 397.01 143.247L396.86 143.608C396.506 143.381 396.095 143.26 395.674 143.256C394.892 143.256 394.54 143.608 394.54 144.038C394.54 145.216 397.177 144.504 397.177 146.069C397.177 146.71 396.676 147.246 395.577 147.246C394.992 147.268 394.42 147.067 393.978 146.684Z" fill="white"/>
<path d="M400.877 145.725H398.17C398.19 146.043 398.336 146.34 398.575 146.551C398.814 146.762 399.126 146.869 399.444 146.85C399.631 146.856 399.816 146.822 399.987 146.749C400.159 146.676 400.313 146.566 400.438 146.428L400.684 146.71C400.529 146.886 400.336 147.026 400.12 147.119C399.905 147.212 399.67 147.255 399.436 147.246C399.213 147.259 398.989 147.226 398.78 147.149C398.57 147.071 398.379 146.951 398.219 146.795C398.059 146.64 397.932 146.453 397.848 146.246C397.764 146.039 397.724 145.817 397.731 145.593C397.72 145.38 397.753 145.166 397.828 144.966C397.902 144.766 398.018 144.583 398.166 144.429C398.314 144.275 398.492 144.153 398.69 144.071C398.887 143.988 399.099 143.947 399.313 143.95C399.527 143.944 399.74 143.984 399.938 144.065C400.136 144.147 400.314 144.269 400.462 144.424C400.611 144.578 400.725 144.762 400.798 144.964C400.871 145.165 400.901 145.38 400.886 145.593C400.886 145.593 400.877 145.681 400.877 145.725ZM398.17 145.4H400.464C400.439 145.113 400.307 144.846 400.095 144.651C399.882 144.457 399.605 144.349 399.317 144.349C399.029 144.349 398.751 144.457 398.539 144.651C398.327 144.846 398.195 145.113 398.17 145.4Z" fill="white"/>
<path d="M404.771 145.33V147.211H404.34V145.374C404.364 145.238 404.357 145.099 404.317 144.966C404.278 144.834 404.208 144.713 404.113 144.613C404.018 144.513 403.9 144.436 403.77 144.39C403.64 144.344 403.501 144.329 403.364 144.346C403.209 144.335 403.054 144.358 402.909 144.413C402.764 144.468 402.633 144.555 402.525 144.666C402.417 144.778 402.335 144.911 402.284 145.058C402.233 145.205 402.215 145.36 402.23 145.515V147.211H401.756V143.977H402.178V144.574C402.309 144.37 402.492 144.205 402.708 144.095C402.924 143.985 403.166 143.935 403.408 143.95C403.594 143.931 403.781 143.953 403.956 144.015C404.132 144.078 404.291 144.179 404.422 144.312C404.553 144.445 404.652 144.605 404.713 144.781C404.773 144.958 404.793 145.145 404.771 145.33Z" fill="white"/>
<path d="M408.928 142.641V147.211H408.507V146.569C408.378 146.783 408.194 146.959 407.975 147.078C407.755 147.197 407.508 147.255 407.258 147.246C406.842 147.216 406.453 147.029 406.169 146.723C405.885 146.417 405.727 146.016 405.727 145.598C405.727 145.181 405.885 144.779 406.169 144.473C406.453 144.167 406.842 143.981 407.258 143.95C407.502 143.942 407.743 143.996 407.958 144.109C408.174 144.221 408.357 144.388 408.489 144.592V142.641H408.928ZM408.498 145.594C408.487 145.358 408.408 145.131 408.27 144.94C408.131 144.749 407.94 144.603 407.719 144.52C407.498 144.437 407.258 144.42 407.028 144.472C406.798 144.525 406.588 144.643 406.425 144.814C406.262 144.984 406.153 145.198 406.11 145.43C406.068 145.662 406.095 145.902 406.187 146.119C406.28 146.336 406.434 146.521 406.63 146.651C406.827 146.781 407.058 146.85 407.294 146.851C407.457 146.853 407.619 146.822 407.77 146.759C407.921 146.696 408.057 146.603 408.17 146.485C408.283 146.367 408.371 146.227 408.427 146.074C408.483 145.92 408.507 145.757 408.498 145.594Z" fill="white"/>
<path d="M414.201 145.207V147.211H413.779V146.71C413.657 146.89 413.49 147.035 413.294 147.129C413.097 147.223 412.88 147.264 412.663 147.246C411.934 147.246 411.485 146.86 411.485 146.297C411.485 145.735 411.802 145.418 412.733 145.418H413.762V145.225C413.774 145.106 413.76 144.987 413.72 144.874C413.68 144.762 413.616 144.66 413.532 144.576C413.448 144.492 413.346 144.427 413.233 144.387C413.121 144.348 413.001 144.334 412.883 144.346C412.488 144.34 412.103 144.477 411.802 144.733L411.608 144.407C411.979 144.111 412.443 143.955 412.918 143.968C413.088 143.948 413.259 143.966 413.421 144.02C413.583 144.075 413.731 144.165 413.854 144.283C413.976 144.402 414.071 144.546 414.132 144.706C414.192 144.866 414.215 145.037 414.201 145.207ZM413.762 146.236V145.708H412.742C412.118 145.708 411.916 145.954 411.916 146.288C411.916 146.622 412.215 146.895 412.733 146.895C412.953 146.909 413.171 146.853 413.356 146.734C413.541 146.616 413.683 146.441 413.762 146.236Z" fill="white"/>
<path d="M418.394 143.977V146.781C418.428 147.001 418.41 147.226 418.341 147.438C418.272 147.65 418.154 147.843 417.997 148.001C417.839 148.158 417.646 148.276 417.434 148.346C417.222 148.415 416.997 148.433 416.777 148.398C416.23 148.419 415.694 148.245 415.265 147.906L415.485 147.572C415.845 147.863 416.296 148.019 416.759 148.011C417.585 148.011 417.954 147.642 417.954 146.842V146.429C417.815 146.632 417.627 146.795 417.407 146.904C417.187 147.014 416.943 147.065 416.698 147.053C416.482 147.069 416.265 147.041 416.06 146.969C415.856 146.898 415.669 146.785 415.51 146.638C415.351 146.49 415.225 146.312 415.138 146.114C415.052 145.915 415.007 145.701 415.007 145.484C415.007 145.268 415.052 145.054 415.138 144.855C415.225 144.657 415.351 144.478 415.51 144.331C415.669 144.184 415.856 144.071 416.06 143.999C416.265 143.928 416.482 143.899 416.698 143.916C416.947 143.904 417.196 143.956 417.419 144.069C417.642 144.181 417.833 144.349 417.972 144.557V143.942L418.394 143.977ZM417.972 145.515C417.981 145.27 417.916 145.028 417.786 144.82C417.657 144.612 417.468 144.447 417.244 144.347C417.02 144.248 416.771 144.217 416.53 144.259C416.288 144.302 416.065 144.415 415.888 144.585C415.712 144.756 415.59 144.975 415.539 145.215C415.488 145.454 415.509 145.704 415.601 145.931C415.693 146.159 415.85 146.354 416.054 146.491C416.257 146.628 416.496 146.702 416.742 146.702C416.902 146.711 417.063 146.688 417.213 146.632C417.364 146.577 417.502 146.49 417.618 146.379C417.733 146.267 417.824 146.133 417.885 145.984C417.947 145.836 417.976 145.676 417.972 145.515Z" fill="white"/>
<path d="M422.059 145.207V147.211H421.646V146.71C421.523 146.89 421.355 147.034 421.159 147.128C420.963 147.222 420.746 147.263 420.529 147.246C419.791 147.246 419.343 146.86 419.343 146.297C419.343 145.735 419.668 145.418 420.6 145.418H421.619V145.225C421.619 144.671 421.312 144.346 420.74 144.346C420.348 144.341 419.967 144.479 419.668 144.733L419.466 144.407C419.84 144.111 420.307 143.956 420.784 143.968C420.953 143.949 421.124 143.968 421.285 144.023C421.445 144.078 421.592 144.168 421.714 144.287C421.836 144.405 421.93 144.549 421.989 144.708C422.049 144.868 422.073 145.038 422.059 145.207ZM421.619 146.236V145.708H420.608C419.976 145.708 419.773 145.954 419.773 146.288C419.773 146.622 420.081 146.895 420.6 146.895C420.818 146.91 421.036 146.854 421.219 146.735C421.403 146.616 421.544 146.441 421.619 146.236Z" fill="white"/>
<path d="M423.148 142.949C423.161 142.873 423.2 142.804 423.259 142.754C423.318 142.704 423.392 142.677 423.469 142.677C423.546 142.677 423.621 142.704 423.68 142.754C423.738 142.804 423.777 142.873 423.79 142.949C423.777 143.025 423.738 143.094 423.68 143.143C423.621 143.193 423.546 143.221 423.469 143.221C423.392 143.221 423.318 143.193 423.259 143.143C423.2 143.094 423.161 143.025 423.148 142.949ZM423.245 143.977H423.685V147.211H423.245V143.977Z" fill="white"/>
<path d="M427.877 145.33V147.211H427.446V145.374C427.471 145.238 427.463 145.098 427.424 144.966C427.384 144.834 427.314 144.713 427.219 144.613C427.124 144.512 427.007 144.436 426.877 144.39C426.747 144.343 426.608 144.328 426.471 144.346C426.316 144.334 426.161 144.357 426.016 144.413C425.871 144.468 425.74 144.555 425.631 144.666C425.523 144.777 425.441 144.911 425.39 145.058C425.339 145.204 425.321 145.36 425.337 145.515V147.211H424.906V143.976H425.319V144.574C425.45 144.37 425.633 144.204 425.85 144.095C426.066 143.985 426.308 143.935 426.55 143.95C426.732 143.936 426.916 143.962 427.087 144.027C427.258 144.092 427.412 144.195 427.539 144.326C427.666 144.458 427.762 144.617 427.821 144.79C427.879 144.964 427.898 145.148 427.877 145.33Z" fill="white"/>
</g>
<path opacity="0.4" d="M435.559 169.184H386.577C384.642 169.181 382.786 168.411 381.418 167.041C380.051 165.672 379.282 163.816 379.282 161.88C379.282 159.944 380.051 158.088 381.418 156.718C382.786 155.349 384.642 154.579 386.577 154.576H435.559C437.496 154.576 439.354 155.346 440.724 156.715C442.093 158.085 442.863 159.943 442.863 161.88C442.863 163.817 442.093 165.675 440.724 167.045C439.354 168.414 437.496 169.184 435.559 169.184Z" fill="white"/>
<path d="M391.965 161.511C391.961 161.169 392.027 160.829 392.16 160.514C392.292 160.198 392.488 159.913 392.735 159.677C392.983 159.44 393.276 159.257 393.597 159.139C393.918 159.02 394.26 158.969 394.602 158.988C394.951 158.976 395.299 159.038 395.622 159.172C395.945 159.305 396.235 159.506 396.474 159.762L396.017 160.201C395.84 160.011 395.625 159.861 395.385 159.761C395.146 159.661 394.888 159.613 394.628 159.621C394.316 159.624 394.01 159.704 393.736 159.855C393.463 160.005 393.231 160.221 393.061 160.483C392.891 160.744 392.789 161.044 392.763 161.355C392.737 161.666 392.789 161.979 392.914 162.265C393.038 162.551 393.232 162.802 393.477 162.995C393.722 163.188 394.011 163.318 394.318 163.372C394.626 163.426 394.942 163.403 395.238 163.305C395.534 163.208 395.802 163.038 396.017 162.812L396.474 163.251C396.234 163.507 395.942 163.709 395.617 163.842C395.293 163.975 394.944 164.038 394.593 164.025C394.252 164.044 393.912 163.993 393.592 163.875C393.272 163.757 392.979 163.574 392.733 163.339C392.486 163.103 392.291 162.819 392.159 162.505C392.027 162.19 391.961 161.852 391.965 161.511Z" fill="white"/>
<path d="M396.948 161.511C396.924 160.985 397.057 160.463 397.332 160.014C397.606 159.564 398.009 159.207 398.488 158.989C398.967 158.77 399.5 158.7 400.02 158.788C400.539 158.875 401.02 159.116 401.401 159.479C401.783 159.843 402.046 160.312 402.158 160.826C402.27 161.341 402.226 161.877 402.03 162.366C401.835 162.855 401.498 163.275 401.062 163.57C400.626 163.866 400.112 164.024 399.585 164.024C399.244 164.042 398.904 163.991 398.584 163.872C398.264 163.754 397.972 163.571 397.725 163.336C397.478 163.101 397.282 162.817 397.148 162.504C397.015 162.19 396.947 161.852 396.948 161.511ZM401.475 161.511C401.48 161.13 401.372 160.757 401.164 160.438C400.956 160.12 400.658 159.87 400.308 159.721C399.958 159.572 399.572 159.531 399.198 159.603C398.824 159.674 398.48 159.856 398.21 160.123C397.94 160.391 397.756 160.733 397.68 161.106C397.605 161.479 397.643 161.866 397.789 162.218C397.934 162.569 398.181 162.869 398.498 163.08C398.815 163.291 399.187 163.402 399.567 163.4C399.819 163.409 400.069 163.366 400.303 163.274C400.537 163.182 400.75 163.044 400.928 162.867C401.107 162.69 401.248 162.478 401.342 162.245C401.435 162.012 401.481 161.762 401.475 161.511Z" fill="white"/>
<path d="M407.486 159.085V164.007H406.906L403.953 160.333V164.007H403.25V159.085H403.83L406.783 162.75V159.085H407.486Z" fill="white"/>
<path d="M409.938 159.656H408.251V159.085H412.303V159.691H410.633V164.007H409.938V159.656Z" fill="white"/>
<path d="M413.085 159.085H413.788V164.007H413.085V159.085Z" fill="white"/>
<path d="M419.501 159.085V164.007H418.921L415.968 160.333V164.007H415.265V159.085H415.818L418.772 162.75V159.085H419.501Z" fill="white"/>
<path d="M420.934 161.845V159.085H421.637V161.854C421.637 162.943 422.138 163.436 423.025 163.436C423.913 163.436 424.414 162.943 424.414 161.854V159.085H425.1V161.88C425.1 162.432 424.88 162.962 424.49 163.353C424.099 163.743 423.569 163.963 423.017 163.963C422.464 163.963 421.934 163.743 421.544 163.353C421.153 162.962 420.934 162.432 420.934 161.88V161.845Z" fill="white"/>
<path d="M430.109 163.356V163.972H426.541V159.085H430.057V159.691H427.244V161.203H429.705V161.801H427.244V163.392L430.109 163.356Z" fill="white"/>
<path opacity="0.1" d="M496.23 47.9199C467.481 76.7219 393.643 140.83 309.979 136.084V47.9199H496.23Z" fill="white"/>
<path opacity="0.1" d="M517.896 100.858V185.893H392.721C397.52 168.719 407.117 145.199 425.733 128.394C459.219 98.1593 498.085 98.2472 517.896 100.858Z" fill="white"/>
</g>
<defs>
<clipPath id="clip0_6408_133082">
<rect width="295" height="295" fill="white" transform="translate(287 4)"/>
</clipPath>
</defs>
</svg>
