<svg width="310" height="278" viewBox="0 0 310 278" fill="none" xmlns="http://www.w3.org/2000/svg">
<g clip-path="url(#clip0_6408_132896)">
<path d="M14.3771 42.6462C-7.65121 86.5327 -0.682265 141.929 26.8454 182.59C54.3732 223.251 100.17 249.572 148.326 259.163C182.707 266 219.686 264.577 251.097 249.054C282.507 233.53 307.204 202.205 309.107 167.205C309.819 153.979 307.011 139.948 298.193 130.079C284.109 114.316 260.054 113.767 238.93 114.416C217.807 115.066 193.767 114.571 179.605 98.8696C168.73 86.8112 167.129 69.3076 161.398 54.109C151.652 28.2674 128.139 8.08765 101.122 2.37946C97.3725 1.58313 93.5694 1.06607 89.7438 0.832521C60.0195 -1.0238 31.8343 14.2677 16.2644 39.6374L14.3771 42.6462Z" fill="#F5F5F5"/>
<path d="M14.2456 177.701C15.6234 177.002 17.1284 176.588 18.6702 176.484C20.212 176.38 21.7588 176.589 23.2179 177.098C26.1402 178.132 28.7863 179.823 30.9525 182.041C35.2376 186.186 37.9137 192.506 39.4607 198.283C32.9636 199.583 26.2421 195.855 22.9549 193.751C17.7495 190.425 10.3628 181.259 14.2534 177.717" fill="#44E0AA"/>
<path d="M50.7457 199.63C49.2031 198.863 47.8902 197.702 46.9396 196.265C45.9889 194.828 45.4342 193.166 45.3314 191.447C45.2557 189.722 45.5237 188 46.1199 186.38C46.7161 184.759 47.6286 183.274 48.8042 182.01C49.8716 180.827 51.2871 179.744 52.8727 179.821C53.615 179.904 54.3221 180.183 54.9214 180.628C55.5207 181.074 55.9909 181.671 56.2837 182.358C56.8475 183.747 57.0317 185.26 56.8174 186.744C56.3301 191.825 54.9301 196.652 50.7843 199.63" fill="#44E0AA"/>
<path d="M61.2417 215.787C60.9296 215.522 60.6446 215.226 60.3909 214.905L58.1478 212.422C56.307 210.303 53.6153 207.341 51.8827 203.319C50.3482 199.912 49.745 196.159 50.1347 192.444C50.26 191.328 50.5197 190.232 50.9082 189.18C51.0147 188.892 51.1361 188.611 51.2717 188.336C51.3568 188.151 51.4109 188.05 51.4264 188.058C50.9404 189.495 50.601 190.977 50.4132 192.482C50.1232 196.144 50.7672 199.819 52.2849 203.164C53.9711 207.109 56.5932 210.079 58.3799 212.244C59.2848 213.327 60.0274 214.201 60.5146 214.82C60.7871 215.119 61.0305 215.442 61.2417 215.787Z" fill="#263238"/>
<path d="M20.4951 184.184C20.6579 184.262 20.8133 184.355 20.9592 184.462L22.22 185.321C23.3183 186.094 24.8884 187.185 26.8143 188.569C30.6817 191.346 35.949 195.252 41.6727 199.699C47.3963 204.147 52.5012 208.293 56.1442 211.34C57.9619 212.887 59.4237 214.109 60.4293 214.983L61.574 215.996C61.837 216.236 61.9685 216.36 61.953 216.375C61.7993 216.286 61.6542 216.182 61.5198 216.066L60.321 215.115L55.9509 211.58C52.2073 208.579 47.1179 204.487 41.3787 200.071C35.6396 195.654 30.411 191.686 26.6055 188.848L22.0962 185.491L20.8741 184.563C20.7336 184.451 20.6064 184.324 20.4951 184.184Z" fill="#263238"/>
<path d="M48.3401 208.679C45.1251 206.966 41.5487 206.044 37.9065 205.987C34.2644 205.931 30.661 206.742 27.3945 208.354C25.7471 209.189 24.0068 210.597 24.1537 212.438C24.3007 214.279 26.2576 215.4 28.0211 215.926C31.7515 216.948 35.7009 216.841 39.3708 215.62C43.0407 214.399 46.2667 212.118 48.6417 209.066" fill="#44E0AA"/>
<path d="M32.3447 211.146C32.6616 210.925 33.0013 210.738 33.358 210.589C33.7582 210.375 34.1716 210.187 34.5955 210.025C35.1454 209.787 35.7084 209.58 36.2817 209.406C36.969 209.171 37.6688 208.975 38.3778 208.818C39.192 208.628 40.0155 208.481 40.8451 208.377C42.7522 208.163 44.6772 208.163 46.5843 208.377C48.4895 208.614 50.3609 209.071 52.161 209.738C52.9536 210.033 53.7283 210.374 54.4814 210.759C55.1339 211.087 55.769 211.449 56.3841 211.842C56.9642 212.175 57.4206 212.569 57.8537 212.871C58.2218 213.135 58.5731 213.422 58.9056 213.729C59.2077 213.961 59.4874 214.219 59.741 214.503C59.6713 214.58 58.4725 213.443 56.2217 212.074C55.6085 211.701 54.9759 211.36 54.3267 211.053C53.5873 210.687 52.8281 210.361 52.0527 210.079C50.2783 209.444 48.4391 209.009 46.5688 208.779C44.6921 208.578 42.7992 208.578 40.9225 208.779C40.104 208.871 39.2907 209.005 38.4861 209.181C37.7126 209.313 37.0319 209.53 36.3977 209.7C33.8453 210.458 32.3834 211.231 32.3447 211.146Z" fill="#263238"/>
<path d="M249.132 239.015C243.718 235.534 241.769 231.071 240.918 224.69C240.516 221.489 240.804 218.238 241.763 215.157C242.722 212.077 244.331 209.237 246.479 206.831C250.084 202.855 255.142 200.14 257.764 195.453C260.549 190.456 260.193 183.851 264.169 179.713C266.907 176.89 271.029 176.008 274.402 173.997C277.163 172.357 279.39 169.983 281.889 167.979C284.387 165.976 287.388 164.274 290.59 164.39C295.424 164.568 299.361 169.155 299.771 173.974C300.181 178.792 297.675 183.511 294.11 186.782C291.526 189.149 288.301 191.013 286.669 194.122C283.575 199.947 287.342 207.743 284.024 213.459C281.603 217.613 275.832 219.778 275.206 224.551C274.974 226.306 275.539 228.062 275.593 229.833C275.763 235.364 270.766 240.012 265.36 241.203C259.953 242.395 254.338 240.902 249.117 239.038" fill="#455A64"/>
<path d="M280.899 184.222C280.743 184.455 280.564 184.673 280.365 184.871L278.733 186.627C278.014 187.401 277.132 188.306 276.181 189.435C275.229 190.564 274.054 191.755 272.924 193.256C271.795 194.756 270.465 196.28 269.212 198.074C268.585 198.972 267.881 199.853 267.247 200.836L265.275 203.837C262.43 208.343 259.927 213.056 257.788 217.937C255.706 222.843 254.012 227.904 252.721 233.074C252.172 235.472 251.638 237.715 251.329 239.911C251.02 242.108 250.71 244.08 250.501 245.929C250.293 247.778 250.223 249.456 250.099 250.933C249.975 252.411 249.968 253.679 249.952 254.723C249.937 255.767 249.914 256.502 249.898 257.121C249.905 257.401 249.882 257.681 249.829 257.956C249.776 257.681 249.756 257.401 249.767 257.121C249.767 256.502 249.728 255.706 249.697 254.716C249.666 253.725 249.643 252.395 249.697 250.918C249.751 249.44 249.774 247.739 249.999 245.883C250.223 244.026 250.362 242.015 250.772 239.819C251.182 237.622 251.546 235.348 252.11 232.935C253.385 227.72 255.079 222.616 257.176 217.674C259.332 212.76 261.869 208.022 264.764 203.504L266.767 200.503C267.417 199.529 268.129 198.639 268.771 197.75C270.055 195.963 271.377 194.401 272.568 192.962C273.76 191.523 274.889 190.293 275.902 189.187C276.915 188.081 277.797 187.176 278.547 186.449C279.298 185.722 279.824 185.204 280.272 184.779C280.462 184.572 280.672 184.386 280.899 184.222Z" fill="#263238"/>
<path d="M253.959 43.1729H54.6904V277.789H253.959V43.1729Z" fill="#FAFAFA"/>
<path d="M253.966 277.788C253.966 276.242 253.889 182.969 253.781 43.1725L253.966 43.3504H54.7135L54.9146 43.1493C54.9146 129.778 54.9146 210.458 54.9146 277.765L54.7444 277.595L254.021 277.765L54.7444 277.935H54.5278V277.765C54.5278 210.474 54.5278 129.77 54.5278 43.1493V42.9482H54.7521H254.005H254.183V43.1339C254.036 182.969 253.966 276.234 253.966 277.788Z" fill="#263238"/>
<path d="M165.575 81.5132H161.707L160.872 83.3772H160.099L163.285 76.416H164.012L167.199 83.3772H166.426L165.575 81.5132ZM165.312 80.9176L163.633 77.174L161.963 80.9563L165.312 80.9176Z" fill="black"/>
<path d="M172.93 75.9834V83.3777H172.25V82.3413C172.04 82.6848 171.742 82.9663 171.387 83.1566C171.032 83.3469 170.633 83.4393 170.231 83.4242C169.549 83.3874 168.907 83.0906 168.438 82.595C167.968 82.0993 167.706 81.4424 167.706 80.7596C167.706 80.0767 167.968 79.4198 168.438 78.9241C168.907 78.4285 169.549 78.1317 170.231 78.095C170.623 78.0857 171.011 78.176 171.358 78.3572C171.706 78.5384 172.002 78.8048 172.219 79.1314V75.9834H172.93ZM172.226 80.7557C172.208 80.3743 172.078 80.0067 171.853 79.6985C171.628 79.3902 171.317 79.1549 170.959 79.0218C170.602 78.8886 170.212 78.8635 169.841 78.9495C169.469 79.0355 169.13 79.2288 168.867 79.5055C168.604 79.7822 168.428 80.13 168.361 80.5059C168.294 80.8817 168.338 81.269 168.489 81.6196C168.64 81.9703 168.891 82.2688 169.21 82.4782C169.53 82.6877 169.903 82.7987 170.285 82.7976C170.55 82.8014 170.812 82.7504 171.056 82.6477C171.3 82.5451 171.52 82.3931 171.702 82.2014C171.885 82.0096 172.025 81.7821 172.116 81.5333C172.206 81.2845 172.244 81.0198 172.226 80.7557Z" fill="black"/>
<path d="M179.683 75.9834V83.3777H179.002V82.3413C178.792 82.6848 178.494 82.9663 178.14 83.1566C177.785 83.3469 177.386 83.4393 176.983 83.4242C176.301 83.3874 175.66 83.0906 175.19 82.595C174.72 82.0993 174.458 81.4424 174.458 80.7596C174.458 80.0767 174.72 79.4198 175.19 78.9241C175.66 78.4285 176.301 78.1317 176.983 78.095C177.375 78.0857 177.763 78.176 178.111 78.3572C178.458 78.5384 178.754 78.8048 178.971 79.1314V75.9834H179.683ZM178.979 80.7557C178.961 80.3743 178.831 80.0067 178.606 79.6985C178.38 79.3902 178.07 79.1549 177.712 79.0218C177.354 78.8886 176.965 78.8635 176.593 78.9495C176.221 79.0355 175.882 79.2288 175.619 79.5055C175.356 79.7822 175.18 80.13 175.113 80.5059C175.046 80.8817 175.091 81.269 175.242 81.6196C175.393 81.9703 175.644 82.2688 175.963 82.4782C176.282 82.6877 176.656 82.7987 177.038 82.7976C177.302 82.8014 177.565 82.7504 177.809 82.6477C178.052 82.5451 178.273 82.3931 178.455 82.2014C178.637 82.0096 178.778 81.7821 178.868 81.5333C178.958 81.2845 178.996 81.0198 178.979 80.7557Z" fill="black"/>
<path d="M188.98 78.1328V83.3769H188.338V82.4178C188.145 82.7405 187.869 83.0046 187.538 83.1818C187.206 83.359 186.833 83.4425 186.458 83.4233C186.157 83.4531 185.853 83.415 185.568 83.3118C185.284 83.2086 185.026 83.043 184.814 82.8271C184.601 82.6112 184.44 82.3506 184.342 82.0642C184.244 81.7779 184.211 81.4732 184.246 81.1725V78.1328H184.958V81.1029C184.958 82.2167 185.53 82.7891 186.505 82.7891C186.753 82.802 187.001 82.7606 187.231 82.6679C187.462 82.5751 187.669 82.4333 187.839 82.2521C188.009 82.071 188.138 81.855 188.216 81.6191C188.294 81.3832 188.32 81.1332 188.291 80.8864V78.1328H188.98Z" fill="black"/>
<path d="M190.233 82.7816L190.55 82.217C191.093 82.6058 191.746 82.8116 192.414 82.8048C193.412 82.8048 193.822 82.4722 193.822 81.954C193.822 80.585 190.419 81.6601 190.419 79.6336C190.419 78.775 191.192 78.1331 192.491 78.1331C193.143 78.1251 193.784 78.2935 194.348 78.6204L194.038 79.1927C193.58 78.8893 193.041 78.7327 192.491 78.7441C191.548 78.7441 191.13 79.1154 191.13 79.6104C191.13 81.0258 194.526 79.9585 194.526 81.9308C194.526 82.8358 193.752 83.4236 192.368 83.4236C191.605 83.4455 190.857 83.2203 190.233 82.7816Z" fill="black"/>
<path d="M200.396 80.9563H196.01C196.025 81.2117 196.09 81.4618 196.203 81.6918C196.315 81.9219 196.471 82.1274 196.663 82.2965C196.855 82.4655 197.079 82.5948 197.322 82.6768C197.564 82.7587 197.82 82.7917 198.076 82.7739C198.377 82.7839 198.676 82.7274 198.953 82.6084C199.23 82.4894 199.477 82.3109 199.677 82.0855L200.071 82.5496C199.819 82.8319 199.506 83.0547 199.157 83.2019C198.808 83.349 198.431 83.4168 198.052 83.4004C197.693 83.4221 197.332 83.3686 196.995 83.2432C196.657 83.1178 196.349 82.9233 196.091 82.6722C195.832 82.4211 195.629 82.1188 195.494 81.7847C195.359 81.4507 195.295 81.0921 195.307 80.732C195.288 80.3855 195.339 80.0387 195.459 79.7129C195.578 79.3871 195.763 79.0891 196.001 78.837C196.24 78.585 196.527 78.3842 196.846 78.247C197.165 78.1098 197.508 78.0391 197.855 78.0391C198.202 78.0391 198.546 78.1098 198.864 78.247C199.183 78.3842 199.47 78.585 199.709 78.837C199.948 79.0891 200.132 79.3871 200.252 79.7129C200.371 80.0387 200.423 80.3855 200.404 80.732C200.404 80.817 200.396 80.8944 200.396 80.9563ZM196.01 80.4226H199.723C199.681 79.9595 199.467 79.529 199.123 79.2155C198.78 78.902 198.332 78.7282 197.867 78.7282C197.402 78.7282 196.954 78.902 196.61 79.2155C196.267 79.529 196.053 79.9595 196.01 80.4226Z" fill="black"/>
<path d="M204.488 78.0944V78.7828H204.317C204.067 78.77 203.818 78.8126 203.586 78.9078C203.355 79.0029 203.147 79.1482 202.979 79.3331C202.81 79.5179 202.685 79.7379 202.611 79.9771C202.538 80.2163 202.518 80.4688 202.554 80.7165V83.385H201.842V78.1408H202.523V79.1696C202.704 78.8137 202.989 78.5208 203.339 78.329C203.69 78.1372 204.09 78.0555 204.488 78.0944Z" fill="black"/>
<path d="M151.08 151.566C151.08 151.566 151.08 151.411 151.08 151.133C151.08 150.855 151.08 150.421 151.08 149.88C151.08 148.766 151.08 147.142 151.08 145.038C151.08 140.823 151.033 134.697 151.003 126.993L151.134 127.117L72.9442 127.194L73.1453 126.993C73.1453 135.501 73.1453 143.777 73.1453 151.566L72.952 151.373L128.835 151.458L145.202 151.512H149.603H150.747H151.142H150.771H149.587H145.232L128.912 151.574L72.8901 151.659H72.689V126.792H72.8901L151.08 126.862H151.211V126.993C151.211 134.728 151.157 140.916 151.142 145.115C151.142 147.204 151.142 148.82 151.142 149.926C151.142 150.46 151.142 150.87 151.142 151.156C151.142 151.442 151.08 151.566 151.08 151.566Z" fill="#263238"/>
<path d="M237.631 184.848C237.631 184.848 237.631 184.299 237.631 183.232C237.631 182.164 237.631 180.587 237.631 178.506C237.631 174.352 237.631 168.219 237.577 160.275L237.677 160.376L72.9287 160.476L73.1298 160.275V184.848L72.9287 184.655L190.14 184.74L224.946 184.794H234.359H236.803H237.646C237.646 184.794 237.376 184.794 236.834 184.794H234.413H225.047L190.241 184.856L72.8901 184.941H72.689V160.074H72.8978L237.646 160.175H237.747V160.275C237.747 168.25 237.701 174.399 237.685 178.568C237.685 180.63 237.685 182.198 237.685 183.271C237.646 184.322 237.631 184.848 237.631 184.848Z" fill="#263238"/>
<path d="M237.631 217.907C237.631 217.907 237.631 217.35 237.631 216.29C237.631 215.231 237.631 213.637 237.631 211.564C237.631 207.403 237.631 201.277 237.577 193.334L237.677 193.426L72.9287 193.535L73.1298 193.334V217.907L72.9287 217.706L190.14 217.791L224.946 217.853H234.359H236.803H237.646H236.834H234.413H225.047L190.241 217.907L72.8901 218H72.689V193.109H72.8978L237.646 193.218H237.747V193.318C237.747 201.285 237.701 207.434 237.685 211.603C237.685 213.666 237.685 215.233 237.685 216.306C237.646 217.381 237.631 217.907 237.631 217.907Z" fill="#263238"/>
<path d="M237.631 151.566C237.631 151.566 237.631 151.411 237.631 151.133C237.631 150.855 237.631 150.421 237.631 149.88C237.631 148.766 237.631 147.142 237.631 145.038C237.631 140.823 237.631 134.697 237.561 126.993L237.693 127.117L159.503 127.194L159.704 126.993V151.566L159.503 151.373L215.394 151.458L231.76 151.512H236.161H237.306H237.7H237.329H236.138H231.783L215.463 151.574L159.433 151.659H159.24V151.466C159.24 143.677 159.24 135.408 159.24 126.893V126.691H159.449L237.638 126.761H237.77V126.893C237.77 134.627 237.716 140.815 237.693 145.015C237.693 147.103 237.693 148.72 237.693 149.826C237.693 150.36 237.693 150.769 237.693 151.056C237.693 151.342 237.631 151.566 237.631 151.566Z" fill="#263238"/>
<path d="M89.2642 142.834C89.0667 142.86 88.8678 142.873 88.6686 142.873L86.9051 142.927C85.3581 142.973 83.146 143.035 80.4853 143.066H80.2378L80.3151 142.834C80.5399 142.047 80.9665 141.333 81.5527 140.761C82.2138 140.166 83.0384 139.784 83.9195 139.663L83.8731 140.042C83.3777 139.825 82.9509 139.477 82.6387 139.035C82.3266 138.594 82.1409 138.075 82.1018 137.536C82.0484 136.93 82.1783 136.322 82.4749 135.791C82.7715 135.26 83.2209 134.83 83.7648 134.558C84.2839 134.32 84.8661 134.257 85.4239 134.379C85.9818 134.5 86.4853 134.799 86.8587 135.231C87.1905 135.612 87.4239 136.069 87.5385 136.561C87.6531 137.053 87.6454 137.566 87.5161 138.054C87.41 138.479 87.2076 138.873 86.9246 139.207C86.6416 139.541 86.2856 139.806 85.8841 139.98V139.709C86.5736 139.811 87.2287 140.076 87.7946 140.483C88.21 140.795 88.5618 141.183 88.831 141.628C89.0737 141.997 89.2346 142.413 89.3028 142.85C89.3028 142.85 89.241 142.734 89.1559 142.548C89.0258 142.258 88.8732 141.979 88.6995 141.713C88.3774 141.234 87.9541 140.833 87.4596 140.536C86.965 140.239 86.4114 140.055 85.8377 139.996L85.3195 139.934L85.8068 139.725C86.1599 139.56 86.4708 139.317 86.716 139.014C86.9613 138.711 87.1344 138.356 87.2222 137.977C87.3317 137.544 87.334 137.091 87.2289 136.657C87.1238 136.223 86.9144 135.821 86.6189 135.486C86.2918 135.126 85.8596 134.877 85.3835 134.776C84.9074 134.675 84.4115 134.726 83.9659 134.922C83.4976 135.161 83.1117 135.534 82.8581 135.995C82.6044 136.455 82.4945 136.981 82.5427 137.505C82.5762 137.975 82.7382 138.427 83.011 138.812C83.2837 139.197 83.6569 139.499 84.0897 139.686L84.7471 139.949L84.0433 140.065C83.237 140.171 82.4817 140.519 81.8775 141.063C81.3312 141.583 80.9288 142.236 80.7096 142.958L80.5394 142.734C83.1151 142.734 85.2808 142.734 86.8355 142.788H88.6454C88.8524 142.79 89.0592 142.805 89.2642 142.834Z" fill="#5063F4"/>
<path d="M180.928 142.834C180.733 142.861 180.537 142.874 180.34 142.873L178.569 142.927C177.022 142.973 174.817 143.035 172.149 143.066H171.909L171.979 142.834C172.204 142.047 172.63 141.333 173.216 140.761C173.876 140.161 174.7 139.773 175.583 139.648L175.537 140.027C175.042 139.809 174.617 139.461 174.306 139.019C173.995 138.578 173.811 138.059 173.773 137.521C173.716 136.915 173.843 136.306 174.139 135.775C174.434 135.243 174.884 134.814 175.428 134.543C175.948 134.306 176.53 134.244 177.087 134.365C177.645 134.486 178.148 134.785 178.522 135.216C178.853 135.597 179.085 136.054 179.198 136.546C179.311 137.039 179.302 137.551 179.172 138.039C179.066 138.463 178.864 138.858 178.581 139.192C178.298 139.526 177.942 139.79 177.54 139.965V139.694C178.229 139.795 178.885 140.061 179.45 140.467C179.868 140.777 180.22 141.166 180.487 141.612C180.73 141.981 180.891 142.398 180.959 142.834C180.959 142.834 180.897 142.718 180.812 142.533C180.688 142.24 180.535 141.96 180.355 141.697C180.035 141.219 179.613 140.817 179.12 140.521C178.626 140.224 178.074 140.039 177.501 139.98L176.983 139.918L177.463 139.709C177.816 139.544 178.127 139.3 178.374 138.998C178.62 138.695 178.795 138.341 178.886 137.961C178.994 137.528 178.994 137.075 178.888 136.641C178.782 136.207 178.571 135.805 178.275 135.471C177.953 135.105 177.522 134.852 177.046 134.751C176.569 134.649 176.073 134.703 175.63 134.906C175.159 135.143 174.771 135.517 174.516 135.977C174.261 136.438 174.15 136.965 174.199 137.49C174.232 137.96 174.394 138.412 174.667 138.797C174.94 139.181 175.313 139.484 175.746 139.671L176.403 139.934L175.699 140.05C174.893 140.155 174.138 140.503 173.533 141.048C172.989 141.568 172.59 142.221 172.373 142.943L172.203 142.718C174.779 142.718 176.944 142.718 178.491 142.772H180.309C180.516 142.779 180.723 142.799 180.928 142.834Z" fill="#5063F4"/>
<path d="M98.4296 137.42V139.493H101.152V139.972H98.4296V142.208H97.8418V136.94H101.454V137.42H98.4296Z" fill="#263238"/>
<path d="M102.32 136.995C102.322 136.893 102.364 136.797 102.436 136.726C102.509 136.655 102.606 136.616 102.707 136.616C102.757 136.613 102.808 136.621 102.855 136.639C102.902 136.657 102.946 136.684 102.982 136.718C103.019 136.753 103.049 136.794 103.069 136.841C103.089 136.887 103.101 136.936 103.102 136.987C103.113 137.044 103.112 137.103 103.098 137.16C103.083 137.216 103.057 137.269 103.02 137.315C102.983 137.36 102.936 137.396 102.884 137.421C102.831 137.446 102.773 137.459 102.715 137.459C102.656 137.459 102.599 137.446 102.546 137.421C102.493 137.396 102.447 137.36 102.41 137.315C102.373 137.269 102.346 137.216 102.332 137.16C102.318 137.103 102.317 137.044 102.328 136.987L102.32 136.995ZM102.436 138.24H102.97V142.2H102.436V138.24Z" fill="#263238"/>
<path d="M106.451 138.193V138.719H106.35C106.162 138.709 105.974 138.741 105.8 138.812C105.626 138.884 105.469 138.993 105.342 139.132C105.215 139.271 105.12 139.436 105.064 139.616C105.009 139.796 104.994 139.987 105.02 140.173V142.192H104.486V138.232H104.997V139.005C105.13 138.74 105.34 138.521 105.599 138.376C105.859 138.231 106.155 138.167 106.451 138.193Z" fill="#263238"/>
<path d="M106.892 141.743L107.131 141.325C107.543 141.616 108.035 141.771 108.539 141.766C109.313 141.766 109.599 141.511 109.599 141.124C109.599 140.088 107.039 140.9 107.039 139.337C107.039 138.695 107.595 138.208 108.585 138.208C109.077 138.202 109.561 138.331 109.985 138.579L109.753 139.013C109.409 138.78 109.001 138.661 108.585 138.672C107.874 138.672 107.557 138.951 107.557 139.322C107.557 140.389 110.117 139.585 110.117 141.109C110.117 141.789 109.521 142.23 108.485 142.23C107.915 142.243 107.357 142.072 106.892 141.743Z" fill="#263238"/>
<path d="M113.203 141.952C112.967 142.142 112.671 142.241 112.368 142.231C112.213 142.249 112.055 142.232 111.907 142.181C111.759 142.13 111.624 142.047 111.513 141.937C111.402 141.827 111.316 141.694 111.264 141.546C111.211 141.399 111.192 141.242 111.208 141.086V138.696H110.504V138.24H111.208V137.42H111.765V138.278H112.964V138.735H111.765V141.094C111.752 141.188 111.76 141.284 111.789 141.375C111.818 141.465 111.867 141.548 111.932 141.617C111.998 141.686 112.078 141.74 112.166 141.774C112.255 141.808 112.351 141.821 112.445 141.813C112.659 141.819 112.868 141.748 113.033 141.612L113.203 141.952Z" fill="#263238"/>
<path d="M119.77 139.902V142.223H119.236V139.98C119.262 139.815 119.249 139.647 119.2 139.487C119.151 139.328 119.066 139.183 118.952 139.061C118.838 138.94 118.697 138.846 118.542 138.786C118.386 138.727 118.219 138.704 118.053 138.719C117.864 138.704 117.674 138.731 117.497 138.798C117.32 138.865 117.159 138.97 117.027 139.106C116.895 139.242 116.794 139.405 116.732 139.584C116.67 139.763 116.649 139.954 116.668 140.142V142.223H116.135V138.262H116.645V138.966C116.804 138.713 117.027 138.508 117.293 138.372C117.558 138.236 117.856 138.174 118.154 138.193C118.377 138.181 118.6 138.219 118.808 138.302C119.015 138.385 119.202 138.512 119.356 138.675C119.509 138.837 119.626 139.031 119.698 139.243C119.769 139.455 119.794 139.68 119.77 139.902Z" fill="#263238"/>
<path d="M124.202 139.74V142.192H123.692V141.573C123.543 141.793 123.339 141.97 123.1 142.084C122.86 142.198 122.595 142.246 122.33 142.223C121.441 142.223 120.892 141.759 120.892 141.078C120.892 140.398 121.278 139.957 122.439 139.957H123.692V139.74C123.692 139.06 123.313 138.696 122.578 138.696C122.098 138.688 121.631 138.852 121.263 139.16L121.015 138.766C121.461 138.4 122.017 138.198 122.593 138.193C122.807 138.161 123.024 138.179 123.23 138.244C123.435 138.309 123.623 138.421 123.779 138.571C123.934 138.72 124.053 138.903 124.127 139.106C124.2 139.309 124.226 139.526 124.202 139.74ZM123.668 141.001V140.351H122.431C121.657 140.351 121.418 140.653 121.418 141.063C121.418 141.473 121.781 141.836 122.415 141.836C122.685 141.851 122.953 141.779 123.178 141.63C123.404 141.481 123.576 141.263 123.668 141.009V141.001Z" fill="#263238"/>
<path d="M132.176 139.902V142.223H131.643V139.98C131.643 139.144 131.225 138.719 130.506 138.719C130.321 138.71 130.136 138.741 129.965 138.811C129.793 138.88 129.639 138.987 129.513 139.122C129.387 139.258 129.292 139.42 129.235 139.596C129.178 139.772 129.16 139.959 129.183 140.142V142.223H128.649V139.98C128.649 139.144 128.232 138.719 127.512 138.719C127.327 138.71 127.143 138.741 126.971 138.811C126.8 138.88 126.645 138.987 126.519 139.122C126.393 139.258 126.299 139.42 126.242 139.596C126.185 139.772 126.167 139.959 126.19 140.142V142.223H125.687V138.263H126.198V138.967C126.345 138.718 126.558 138.515 126.813 138.378C127.068 138.242 127.355 138.178 127.644 138.193C127.936 138.169 128.229 138.237 128.481 138.387C128.733 138.536 128.932 138.761 129.052 139.028C129.211 138.763 129.438 138.546 129.711 138.399C129.983 138.252 130.289 138.181 130.599 138.193C130.821 138.178 131.044 138.213 131.252 138.295C131.459 138.378 131.645 138.506 131.797 138.67C131.948 138.834 132.061 139.03 132.127 139.243C132.192 139.456 132.209 139.682 132.176 139.902Z" fill="#263238"/>
<path d="M137.08 140.382H133.777C133.788 140.574 133.837 140.762 133.92 140.936C134.004 141.109 134.121 141.264 134.265 141.392C134.409 141.52 134.576 141.618 134.758 141.681C134.94 141.744 135.132 141.77 135.324 141.759C135.551 141.766 135.777 141.724 135.985 141.634C136.194 141.545 136.38 141.41 136.531 141.241L136.832 141.589C136.549 141.886 136.184 142.092 135.783 142.183C135.382 142.273 134.964 142.244 134.58 142.098C134.196 141.951 133.864 141.695 133.625 141.361C133.386 141.027 133.25 140.63 133.236 140.22C133.236 139.707 133.44 139.215 133.802 138.852C134.165 138.49 134.657 138.286 135.17 138.286C135.682 138.286 136.174 138.49 136.537 138.852C136.899 139.215 137.103 139.707 137.103 140.22C137.088 140.266 137.08 140.328 137.08 140.382ZM133.777 139.988H136.577C136.561 139.628 136.405 139.289 136.142 139.043C135.878 138.797 135.529 138.664 135.17 138.673C134.811 138.665 134.464 138.798 134.203 139.044C133.942 139.29 133.789 139.629 133.777 139.988Z" fill="#263238"/>
<path d="M102.352 176.093V176.572H98.6157V171.312H102.228V171.792H99.1339V173.664H101.857V174.136H99.1339V176.093H102.352Z" fill="#263238"/>
<path d="M110.063 174.306V176.627H109.529V174.384C109.529 173.548 109.111 173.123 108.392 173.123C108.206 173.113 108.021 173.145 107.849 173.215C107.677 173.285 107.522 173.392 107.396 173.529C107.27 173.665 107.175 173.828 107.119 174.005C107.062 174.182 107.045 174.37 107.069 174.554V176.627H106.536V174.384C106.536 173.548 106.118 173.123 105.399 173.123C105.214 173.115 105.029 173.147 104.857 173.218C104.686 173.288 104.532 173.395 104.406 173.532C104.28 173.668 104.185 173.83 104.128 174.006C104.071 174.183 104.054 174.37 104.076 174.554V176.627H103.542V172.674H104.03V173.394C104.179 173.146 104.392 172.944 104.646 172.808C104.901 172.671 105.188 172.607 105.476 172.62C105.768 172.596 106.061 172.664 106.313 172.814C106.565 172.963 106.765 173.188 106.884 173.456C107.043 173.19 107.271 172.973 107.543 172.826C107.815 172.679 108.122 172.608 108.431 172.62C108.656 172.595 108.884 172.623 109.097 172.699C109.31 172.776 109.502 172.901 109.66 173.064C109.817 173.226 109.935 173.423 110.005 173.638C110.075 173.854 110.095 174.082 110.063 174.306Z" fill="#263238"/>
<path d="M114.495 174.152V176.604H113.984V175.985C113.837 176.207 113.633 176.384 113.394 176.5C113.154 176.616 112.888 176.665 112.623 176.643C111.726 176.643 111.177 176.178 111.177 175.49C111.177 174.802 111.571 174.369 112.724 174.369H113.977V174.129C113.977 173.456 113.59 173.085 112.855 173.085C112.376 173.078 111.909 173.242 111.54 173.549L111.301 173.154C111.758 172.793 112.327 172.604 112.909 172.621C113.119 172.593 113.333 172.613 113.534 172.679C113.736 172.745 113.919 172.856 114.072 173.004C114.224 173.151 114.341 173.331 114.415 173.529C114.488 173.728 114.515 173.941 114.495 174.152ZM113.961 175.413V174.771H112.724C111.95 174.771 111.703 175.072 111.703 175.475C111.703 175.877 112.074 176.248 112.708 176.248C112.979 176.261 113.247 176.187 113.472 176.036C113.698 175.886 113.869 175.668 113.961 175.413Z" fill="#263238"/>
<path d="M115.825 171.398C115.843 171.308 115.891 171.228 115.962 171.17C116.032 171.113 116.121 171.081 116.212 171.081C116.303 171.081 116.391 171.113 116.462 171.17C116.532 171.228 116.581 171.308 116.599 171.398C116.61 171.455 116.609 171.514 116.595 171.571C116.581 171.627 116.554 171.68 116.517 171.725C116.48 171.771 116.433 171.807 116.381 171.832C116.328 171.857 116.27 171.87 116.212 171.87C116.153 171.87 116.096 171.857 116.043 171.832C115.99 171.807 115.944 171.771 115.907 171.725C115.87 171.68 115.843 171.627 115.829 171.571C115.815 171.514 115.814 171.455 115.825 171.398ZM115.941 172.651H116.475V176.603H115.941V172.651Z" fill="#263238"/>
<path d="M117.952 171.026H118.486V176.603H117.952V171.026Z" fill="#263238"/>
<path d="M100.163 206.049C100.163 207.171 99.3892 207.844 98.0124 207.844H96.5969V209.507H96.04V204.247H98.0124C99.335 204.247 100.163 204.92 100.163 206.049ZM99.6057 206.049C99.6057 205.206 99.0488 204.727 97.9969 204.727H96.5969V207.356H97.9969C99.0334 207.356 99.5903 206.877 99.5903 206.049H99.6057Z" fill="#263238"/>
<path d="M104.184 207.032V209.484H103.666V208.865C103.521 209.086 103.318 209.264 103.08 209.38C102.842 209.496 102.577 209.545 102.313 209.522C101.415 209.522 100.866 209.058 100.866 208.37C100.866 207.682 101.253 207.248 102.413 207.248H103.674V207.032C103.674 206.359 103.287 205.988 102.552 205.988C102.072 205.982 101.605 206.15 101.237 206.459L100.998 206.057C101.455 205.696 102.024 205.507 102.607 205.524C102.814 205.498 103.024 205.518 103.223 205.584C103.421 205.649 103.603 205.758 103.754 205.903C103.905 206.047 104.022 206.223 104.096 206.419C104.171 206.614 104.201 206.823 104.184 207.032ZM103.651 208.3V207.651H102.405C101.632 207.651 101.392 207.952 101.392 208.354C101.392 208.757 101.763 209.128 102.39 209.128C102.658 209.144 102.924 209.074 103.15 208.93C103.377 208.785 103.552 208.573 103.651 208.324V208.3Z" fill="#263238"/>
<path d="M105.082 209.058L105.321 208.632C105.732 208.926 106.224 209.083 106.729 209.081C107.503 209.081 107.789 208.826 107.789 208.431C107.789 207.403 105.221 208.215 105.221 206.652C105.221 206.003 105.778 205.523 106.768 205.523C107.26 205.513 107.745 205.641 108.168 205.894L107.936 206.32C107.59 206.09 107.183 205.972 106.768 205.979C106.056 205.979 105.739 206.258 105.739 206.637C105.739 207.704 108.307 206.9 108.307 208.416C108.307 209.104 107.704 209.545 106.675 209.545C106.105 209.559 105.546 209.388 105.082 209.058Z" fill="#263238"/>
<path d="M108.756 209.058L108.996 208.632C109.406 208.926 109.899 209.083 110.403 209.081C111.177 209.081 111.463 208.826 111.463 208.431C111.463 207.403 108.895 208.215 108.895 206.652C108.895 206.003 109.452 205.523 110.442 205.523C110.934 205.513 111.419 205.642 111.842 205.894L111.61 206.32C111.264 206.09 110.857 205.971 110.442 205.979C109.73 205.979 109.413 206.258 109.413 206.637C109.413 207.704 111.981 206.9 111.981 208.416C111.981 209.104 111.378 209.545 110.349 209.545C109.779 209.559 109.22 209.388 108.756 209.058Z" fill="#263238"/>
<path d="M118.725 205.555L117.179 209.507H116.676L115.454 206.258L114.208 209.499H113.706L112.213 205.547H112.731L113.969 208.904L115.237 205.547H115.701L116.962 208.904L118.215 205.547L118.725 205.555Z" fill="#263238"/>
<path d="M118.996 207.527C118.998 207.129 119.117 206.741 119.339 206.412C119.561 206.082 119.875 205.825 120.243 205.674C120.611 205.523 121.015 205.485 121.404 205.563C121.794 205.641 122.151 205.834 122.432 206.115C122.712 206.397 122.903 206.755 122.98 207.145C123.057 207.535 123.017 207.939 122.864 208.306C122.712 208.673 122.454 208.986 122.124 209.207C121.793 209.428 121.405 209.545 121.007 209.545C120.74 209.555 120.473 209.51 120.224 209.412C119.975 209.314 119.749 209.165 119.561 208.976C119.372 208.786 119.224 208.559 119.127 208.31C119.03 208.061 118.985 207.794 118.996 207.527ZM122.477 207.527C122.462 207.24 122.363 206.964 122.192 206.732C122.022 206.501 121.788 206.325 121.518 206.225C121.249 206.126 120.956 206.108 120.676 206.173C120.396 206.238 120.142 206.384 119.944 206.592C119.746 206.8 119.613 207.062 119.563 207.345C119.512 207.627 119.545 207.919 119.658 208.183C119.772 208.447 119.96 208.672 120.199 208.83C120.439 208.989 120.72 209.073 121.007 209.074C121.208 209.077 121.407 209.039 121.592 208.962C121.777 208.884 121.944 208.769 122.083 208.624C122.221 208.478 122.327 208.306 122.395 208.117C122.463 207.928 122.491 207.727 122.477 207.527Z" fill="#263238"/>
<path d="M126.097 205.523V206.041H125.966C125.777 206.031 125.588 206.063 125.413 206.135C125.238 206.207 125.081 206.317 124.954 206.457C124.826 206.597 124.732 206.763 124.677 206.944C124.622 207.125 124.607 207.316 124.635 207.503V209.514H124.14V205.562H124.651V206.335C124.784 206.072 124.993 205.854 125.251 205.71C125.508 205.565 125.803 205.5 126.097 205.523Z" fill="#263238"/>
<path d="M130.622 203.938V209.514H130.111V208.741C129.952 209.005 129.724 209.22 129.451 209.365C129.179 209.509 128.872 209.577 128.564 209.561C128.031 209.561 127.519 209.349 127.142 208.972C126.765 208.594 126.553 208.083 126.553 207.55C126.553 207.016 126.765 206.505 127.142 206.128C127.519 205.75 128.031 205.539 128.564 205.539C128.86 205.527 129.154 205.592 129.417 205.727C129.68 205.863 129.903 206.064 130.065 206.312V203.938H130.622ZM130.096 207.534C130.081 207.247 129.981 206.97 129.811 206.739C129.64 206.508 129.405 206.331 129.135 206.232C128.865 206.133 128.572 206.115 128.292 206.181C128.012 206.247 127.758 206.393 127.56 206.602C127.363 206.811 127.231 207.074 127.181 207.357C127.131 207.64 127.165 207.932 127.28 208.196C127.394 208.46 127.583 208.684 127.824 208.841C128.065 208.999 128.346 209.082 128.634 209.081C128.835 209.084 129.034 209.045 129.218 208.966C129.403 208.888 129.57 208.772 129.707 208.626C129.845 208.479 129.95 208.306 130.017 208.117C130.084 207.928 130.111 207.727 130.096 207.526V207.534Z" fill="#263238"/>
<path d="M186.791 137.675H187.34V142.463H190.295V142.942H186.791V137.675Z" fill="#263238"/>
<path d="M194.061 140.513V142.965H193.551V142.346C193.404 142.568 193.2 142.746 192.96 142.861C192.721 142.977 192.455 143.026 192.19 143.004C191.292 143.004 190.743 142.532 190.743 141.851C190.743 141.171 191.138 140.73 192.29 140.73H193.543V140.49C193.543 139.817 193.156 139.446 192.422 139.446C191.942 139.439 191.476 139.603 191.107 139.91L190.867 139.516C191.324 139.154 191.893 138.966 192.476 138.982C192.686 138.954 192.899 138.974 193.101 139.04C193.302 139.107 193.486 139.218 193.638 139.365C193.791 139.512 193.908 139.692 193.981 139.891C194.054 140.09 194.082 140.302 194.061 140.513ZM193.528 141.774V141.132H192.29C191.517 141.132 191.269 141.434 191.269 141.836C191.269 142.238 191.64 142.609 192.275 142.609C192.548 142.621 192.818 142.543 193.044 142.388C193.27 142.234 193.439 142.01 193.528 141.751V141.774Z" fill="#263238"/>
<path d="M194.958 142.493L195.198 142.068C195.61 142.359 196.102 142.513 196.606 142.509C197.379 142.509 197.666 142.253 197.666 141.867C197.666 140.838 195.105 141.65 195.105 140.08C195.105 139.438 195.655 138.958 196.652 138.958C197.141 138.949 197.623 139.075 198.045 139.322L197.813 139.755C197.47 139.526 197.065 139.407 196.652 139.415C195.933 139.415 195.624 139.693 195.624 140.072C195.624 141.14 198.184 140.328 198.184 141.851C198.184 142.532 197.581 142.981 196.552 142.981C195.983 142.99 195.425 142.819 194.958 142.493Z" fill="#263238"/>
<path d="M201.262 142.703C201.025 142.891 200.73 142.99 200.427 142.981C200.272 142.998 200.114 142.98 199.966 142.928C199.819 142.877 199.685 142.792 199.574 142.682C199.463 142.571 199.379 142.437 199.327 142.289C199.275 142.142 199.257 141.984 199.275 141.829V139.439H198.563V138.967H199.275V138.101H199.808V138.967H201.007V139.415H199.808V141.775C199.795 141.869 199.803 141.965 199.832 142.055C199.861 142.146 199.91 142.229 199.976 142.298C200.041 142.367 200.121 142.42 200.21 142.454C200.299 142.488 200.394 142.502 200.489 142.494C200.703 142.501 200.912 142.43 201.077 142.293L201.262 142.703Z" fill="#263238"/>
<path d="M207.837 140.645V142.965H207.303V140.722C207.329 140.557 207.316 140.388 207.266 140.228C207.217 140.068 207.131 139.922 207.016 139.8C206.901 139.679 206.76 139.585 206.603 139.526C206.447 139.468 206.279 139.445 206.112 139.462C205.923 139.448 205.733 139.476 205.556 139.544C205.38 139.612 205.22 139.718 205.088 139.854C204.957 139.991 204.857 140.155 204.796 140.334C204.735 140.513 204.714 140.704 204.735 140.892V142.965H204.202V138.967H204.712V139.74C204.87 139.489 205.093 139.285 205.357 139.149C205.621 139.013 205.916 138.95 206.213 138.967C206.434 138.955 206.655 138.99 206.861 139.071C207.067 139.152 207.253 139.276 207.407 139.435C207.561 139.595 207.679 139.785 207.754 139.994C207.828 140.202 207.856 140.424 207.837 140.645Z" fill="#263238"/>
<path d="M212.269 140.513V142.965H211.758V142.346C211.612 142.568 211.408 142.747 211.168 142.862C210.929 142.978 210.662 143.027 210.397 143.004C209.5 143.004 208.951 142.532 208.951 141.851C208.951 141.171 209.345 140.73 210.498 140.73H211.751V140.49C211.751 139.817 211.364 139.446 210.629 139.446C210.15 139.439 209.683 139.603 209.314 139.91L209.074 139.516C209.532 139.156 210.101 138.967 210.683 138.982C210.893 138.954 211.107 138.974 211.308 139.04C211.51 139.107 211.693 139.218 211.846 139.365C211.998 139.512 212.115 139.692 212.189 139.891C212.262 140.09 212.289 140.302 212.269 140.513ZM211.735 141.774V141.132H210.498C209.724 141.132 209.477 141.434 209.477 141.836C209.477 142.238 209.848 142.609 210.482 142.609C210.756 142.621 211.026 142.543 211.251 142.388C211.477 142.234 211.647 142.01 211.735 141.751V141.774Z" fill="#263238"/>
<path d="M220.243 140.645V142.965H219.71V140.722C219.71 139.887 219.292 139.461 218.573 139.461C218.387 139.452 218.202 139.483 218.029 139.554C217.857 139.624 217.703 139.731 217.576 139.867C217.45 140.004 217.356 140.166 217.299 140.344C217.243 140.521 217.226 140.708 217.25 140.892V142.965H216.716V140.722C216.716 139.887 216.299 139.461 215.572 139.461C215.386 139.453 215.202 139.486 215.03 139.556C214.858 139.627 214.704 139.734 214.578 139.87C214.453 140.006 214.358 140.168 214.301 140.345C214.244 140.521 214.226 140.708 214.249 140.892V142.965H213.715V138.966H214.226V139.74C214.375 139.491 214.59 139.288 214.846 139.152C215.102 139.016 215.39 138.952 215.68 138.966C215.972 138.944 216.264 139.012 216.516 139.162C216.768 139.311 216.968 139.535 217.088 139.802C217.246 139.536 217.473 139.317 217.745 139.17C218.018 139.023 218.325 138.953 218.635 138.966C218.857 138.947 219.08 138.978 219.289 139.057C219.498 139.135 219.686 139.26 219.841 139.421C219.995 139.582 220.111 139.775 220.181 139.987C220.251 140.199 220.272 140.424 220.243 140.645Z" fill="#263238"/>
<path d="M225.147 141.133H221.837C221.862 141.519 222.039 141.879 222.329 142.135C222.619 142.391 222.997 142.523 223.384 142.502C223.612 142.51 223.839 142.468 224.049 142.379C224.259 142.289 224.446 142.154 224.598 141.984L224.9 142.332C224.616 142.631 224.25 142.84 223.849 142.932C223.447 143.024 223.026 142.995 222.641 142.849C222.255 142.702 221.922 142.445 221.683 142.109C221.443 141.774 221.308 141.375 221.295 140.963C221.281 140.702 221.321 140.441 221.413 140.196C221.504 139.951 221.645 139.728 221.826 139.54C222.008 139.352 222.226 139.204 222.467 139.104C222.708 139.004 222.968 138.955 223.229 138.959C223.489 138.955 223.748 139.004 223.989 139.104C224.229 139.204 224.446 139.353 224.626 139.541C224.807 139.729 224.946 139.953 225.036 140.197C225.125 140.442 225.163 140.703 225.147 140.963C225.155 141.009 225.147 141.071 225.147 141.133ZM221.837 140.731H224.644C224.618 140.376 224.459 140.045 224.198 139.803C223.938 139.561 223.596 139.427 223.24 139.427C222.885 139.427 222.543 139.561 222.283 139.803C222.022 140.045 221.863 140.376 221.837 140.731Z" fill="#263238"/>
<path d="M87.7869 203.489C87.75 203.324 87.7267 203.156 87.7173 202.987C87.722 202.578 87.6264 202.174 87.4388 201.811C87.2914 201.551 87.0865 201.328 86.8399 201.159C86.5933 200.99 86.3114 200.88 86.0157 200.836C85.6586 200.789 85.2953 200.843 84.9681 200.994C84.6408 201.145 84.363 201.385 84.1671 201.687C83.9965 201.946 83.8953 202.244 83.8731 202.554C83.8731 202.878 83.8731 203.188 83.8731 203.497L83.6875 203.304C85.0665 203.296 86.445 203.358 87.8178 203.489C86.4465 203.641 85.067 203.705 83.6875 203.683H83.4941V203.489C83.4941 203.18 83.4941 202.878 83.4941 202.523C83.5152 202.147 83.6353 201.784 83.8422 201.471C84.0779 201.104 84.4159 200.814 84.8145 200.636C85.2131 200.459 85.6548 200.402 86.0853 200.473C86.4319 200.529 86.76 200.668 87.0414 200.878C87.3228 201.088 87.5494 201.363 87.7018 201.68C87.9008 202.101 87.963 202.574 87.8797 203.033C87.8488 203.366 87.7869 203.513 87.7869 203.489Z" fill="#5063F4"/>
<path d="M86.4487 208.516C86.3036 208.224 86.1795 207.922 86.0775 207.612V207.526L86.1625 207.465C86.2857 207.368 86.3694 207.23 86.3978 207.076C86.4263 206.922 86.3977 206.763 86.3173 206.629C86.2768 206.545 86.2173 206.472 86.1434 206.415C86.0695 206.358 85.9833 206.32 85.8917 206.302C85.8001 206.285 85.7058 206.289 85.6162 206.315C85.5266 206.341 85.4443 206.387 85.3759 206.45C85.3075 206.514 85.2549 206.592 85.2224 206.68C85.1899 206.767 85.1783 206.861 85.1886 206.953C85.1989 207.046 85.2309 207.135 85.2818 207.213C85.3327 207.291 85.4013 207.356 85.4819 207.403L85.6057 207.472L85.567 207.604L85.3349 208.524L85.188 208.339C85.6188 208.359 86.0477 208.408 86.4719 208.486C86.0548 208.604 85.6214 208.657 85.188 208.64H85.0023V208.439C85.0642 208.13 85.1184 207.82 85.1725 207.503L85.2576 207.704C85.1345 207.629 85.0296 207.528 84.9505 207.407C84.8713 207.287 84.8199 207.15 84.7999 207.007C84.78 206.865 84.7919 206.719 84.8349 206.581C84.878 206.444 84.951 206.318 85.0488 206.212C85.156 206.092 85.2917 206.002 85.4431 205.949C85.5946 205.897 85.7569 205.883 85.915 205.91C86.0603 205.933 86.1984 205.989 86.319 206.074C86.4396 206.158 86.5394 206.269 86.6112 206.397C86.7278 206.607 86.7583 206.855 86.6963 207.087C86.6342 207.319 86.4845 207.518 86.2786 207.642L86.3405 207.495C86.4399 207.826 86.4766 208.172 86.4487 208.516Z" fill="#5063F4"/>
<path d="M88.3672 203.497C88.4795 203.475 88.5951 203.475 88.7075 203.497C88.9882 203.582 89.239 203.744 89.4307 203.966C89.6224 204.188 89.7471 204.46 89.7903 204.75C89.7903 205.021 89.7903 205.284 89.7903 205.585C89.7903 206.196 89.7903 206.869 89.7903 207.612C89.7903 207.991 89.7903 208.385 89.7903 208.787C89.8198 209.229 89.8042 209.672 89.7439 210.11C89.6762 210.356 89.5521 210.582 89.3816 210.771C89.2111 210.961 88.9988 211.108 88.7616 211.201C88.5163 211.299 88.252 211.341 87.9882 211.324H87.2147H84.1208H83.3009C83.0633 211.336 82.8259 211.297 82.6045 211.21C82.3831 211.123 82.1827 210.99 82.0167 210.819C81.8506 210.649 81.7227 210.445 81.6414 210.221C81.5602 209.998 81.5273 209.759 81.5452 209.522C81.5452 208.331 81.5452 207.202 81.5452 206.042V205.214C81.5212 204.918 81.5581 204.621 81.6535 204.34C81.7581 204.062 81.9352 203.817 82.1664 203.631C82.3976 203.444 82.6745 203.323 82.9684 203.28L82.8137 203.458C82.8137 203.087 82.8137 202.754 82.8137 202.375C82.8495 202.012 82.9573 201.66 83.1308 201.339C83.4955 200.722 84.0821 200.269 84.7705 200.07C85.2893 199.883 85.8527 199.856 86.3868 199.994C86.9209 200.132 87.4009 200.428 87.7639 200.844C87.999 201.104 88.1797 201.408 88.2953 201.739C88.4109 202.07 88.459 202.42 88.4368 202.77C88.4296 203.013 88.4064 203.256 88.3672 203.497C88.3289 203.259 88.3134 203.018 88.3208 202.778C88.3171 202.112 88.0598 201.473 87.6014 200.991C87.3279 200.703 86.9898 200.484 86.615 200.352C86.2402 200.221 85.8395 200.18 85.4459 200.234C85.0523 200.287 84.6771 200.434 84.3512 200.661C84.0254 200.888 83.7582 201.189 83.5717 201.54C83.4227 201.824 83.3307 202.134 83.3009 202.453C83.3009 202.77 83.3009 203.157 83.3009 203.512V203.667H83.1463C82.9193 203.703 82.7059 203.799 82.5279 203.944C82.3499 204.089 82.2136 204.279 82.133 204.495C82.0577 204.745 82.0315 205.008 82.0557 205.268V206.096C82.0557 207.217 82.0557 208.416 82.0557 209.576C82.034 209.825 82.0845 210.075 82.2011 210.296C82.3177 210.517 82.4954 210.699 82.7131 210.822C82.9276 210.934 83.1671 210.99 83.4092 210.984H87.3384C87.7986 211.028 88.2628 211.002 88.7152 210.907C88.9019 210.834 89.0691 210.718 89.2033 210.569C89.3376 210.42 89.4353 210.242 89.4887 210.048C89.5452 209.641 89.5659 209.229 89.5506 208.818C89.5506 208.416 89.5506 208.045 89.5506 207.643C89.5506 206.869 89.5506 206.227 89.5506 205.616C89.5506 205.322 89.5506 205.028 89.5506 204.796C89.5307 204.579 89.4591 204.369 89.3417 204.185C89.1077 203.849 88.7627 203.605 88.3672 203.497Z" fill="#5063F4"/>
<path d="M91.7469 177.771C91.724 177.573 91.7111 177.375 91.7082 177.176C91.7082 176.758 91.7082 176.216 91.654 175.559C91.6154 174.136 91.569 172.179 91.5071 169.82L91.6695 169.982L79.8819 170.137L80.052 169.905V170.941C80.052 171.289 80.052 171.638 80.052 171.986C80.052 172.674 80.052 173.355 80.052 174.02C80.052 175.342 80.052 176.626 80.052 177.833L79.8664 177.655C83.3006 177.655 86.2243 177.655 88.3049 177.655H90.7491C91.0513 177.648 91.3536 177.661 91.654 177.694C91.3824 177.731 91.1083 177.746 90.8342 177.74L88.4287 177.818C86.3558 177.872 83.3857 177.941 79.8664 177.988H79.6885V177.802C79.6885 176.588 79.6885 175.311 79.6421 173.981C79.6421 173.316 79.6421 172.635 79.6421 171.947C79.6421 171.607 79.6421 171.259 79.6421 170.91V169.866L79.8432 169.657L91.6308 169.58H91.7933V169.743C91.7933 172.14 91.7933 174.128 91.7933 175.582C91.7933 176.224 91.7933 176.75 91.7933 177.129C91.8068 177.344 91.7912 177.56 91.7469 177.771Z" fill="#5063F4"/>
<path d="M91.6543 169.82C91.1596 170.33 90.6126 170.786 90.0222 171.182C88.9858 171.955 87.5394 173.061 85.9229 174.229H85.6521L85.5748 174.175L85.4201 174.067L85.1185 173.858L84.5306 173.448L83.4246 172.674L81.5605 171.329C80.968 170.938 80.4138 170.493 79.9053 169.998C80.545 170.305 81.1536 170.673 81.7229 171.097L83.6334 172.373L84.7549 173.146L85.3505 173.556L85.6521 173.765L85.7991 173.866L85.8764 173.92H85.9151H85.6986C87.3151 172.752 88.7924 171.708 89.8753 170.965C90.4325 170.531 91.0279 170.147 91.6543 169.82Z" fill="#5063F4"/>
<path d="M80.1914 177.88C80.6774 176.934 81.2831 176.056 81.9936 175.265C82.6006 174.388 83.3152 173.59 84.1206 172.891C83.6344 173.84 83.0259 174.721 82.3107 175.513C81.7063 176.387 80.9943 177.183 80.1914 177.88Z" fill="#5063F4"/>
<path d="M87.9648 172.891C88.7452 173.572 89.4342 174.352 90.0145 175.211C90.7015 175.988 91.284 176.851 91.7471 177.779C90.966 177.098 90.277 176.318 89.6974 175.459C89.0092 174.683 88.4266 173.819 87.9648 172.891Z" fill="#5063F4"/>
<path d="M235.574 230.614H74.9476C73.8113 230.614 72.8901 231.535 72.8901 232.672V253.671C72.8901 254.808 73.8113 255.729 74.9476 255.729H235.574C236.71 255.729 237.631 254.808 237.631 253.671V232.672C237.631 231.535 236.71 230.614 235.574 230.614Z" fill="#5063F4"/>
<g opacity="0.3">
<path d="M235.574 230.614H74.9476C73.8113 230.614 72.8901 231.535 72.8901 232.672V253.671C72.8901 254.808 73.8113 255.729 74.9476 255.729H235.574C236.71 255.729 237.631 254.808 237.631 253.671V232.672C237.631 231.535 236.71 230.614 235.574 230.614Z" fill="black"/>
</g>
<path d="M235.574 227.118H74.9476C73.8113 227.118 72.8901 228.039 72.8901 229.176V250.175C72.8901 251.312 73.8113 252.233 74.9476 252.233H235.574C236.71 252.233 237.631 251.312 237.631 250.175V229.176C237.631 228.039 236.71 227.118 235.574 227.118Z" fill="#5063F4"/>
<path d="M141.35 240.213C141.345 239.85 141.415 239.491 141.554 239.156C141.694 238.821 141.9 238.518 142.161 238.266C142.422 238.014 142.731 237.818 143.071 237.69C143.41 237.562 143.772 237.505 144.134 237.521C144.507 237.507 144.879 237.572 145.225 237.714C145.571 237.855 145.882 238.069 146.138 238.341L145.65 238.813C145.371 238.517 145.009 238.311 144.611 238.223C144.213 238.135 143.798 238.168 143.42 238.319C143.041 238.469 142.716 238.73 142.488 239.067C142.259 239.404 142.137 239.802 142.137 240.209C142.137 240.617 142.259 241.015 142.488 241.352C142.716 241.689 143.041 241.949 143.42 242.1C143.798 242.25 144.213 242.283 144.611 242.195C145.009 242.107 145.371 241.902 145.65 241.605L146.138 242.077C145.881 242.351 145.569 242.567 145.222 242.71C144.875 242.853 144.502 242.919 144.127 242.905C143.765 242.921 143.404 242.862 143.065 242.734C142.727 242.605 142.418 242.409 142.158 242.157C141.898 241.905 141.693 241.603 141.554 241.268C141.415 240.934 141.345 240.575 141.35 240.213Z" fill="white"/>
<path d="M150.724 242.843L149.587 241.227H149.262H147.955V242.828H147.182V237.568H149.239C150.6 237.568 151.428 238.257 151.428 239.401C151.446 239.767 151.342 240.128 151.134 240.428C150.925 240.729 150.624 240.953 150.276 241.064L151.521 242.828L150.724 242.843ZM150.724 239.417C150.724 238.643 150.221 238.241 149.262 238.241H147.978V240.608H149.262C150.198 240.608 150.701 240.167 150.701 239.417H150.724Z" fill="white"/>
<path d="M156.486 242.194V242.844H152.666V237.584H156.378V238.241H153.416V239.858H156.061V240.492H153.416V242.194H156.486Z" fill="white"/>
<path d="M161.057 241.529H158.257L157.677 242.844H156.904L159.286 237.584H160.06L162.45 242.844H161.676L161.057 241.529ZM160.794 240.933L159.657 238.35L158.52 240.933H160.794Z" fill="white"/>
<path d="M163.981 238.241H162.179V237.584H166.534V238.241H164.724V242.844H163.95L163.981 238.241Z" fill="white"/>
<path d="M171.167 242.194V242.844H167.346V237.584H171.058V238.241H168.096V239.858H170.733V240.492H168.096V242.194H171.167Z" fill="white"/>
<path d="M114.812 110.278C125.658 110.278 134.45 101.485 134.45 90.6393C134.45 79.7934 125.658 71.001 114.812 71.001C103.966 71.001 95.1733 79.7934 95.1733 90.6393C95.1733 101.485 103.966 110.278 114.812 110.278Z" fill="#5063F4"/>
<g opacity="0.3">
<path d="M114.812 110.278C125.658 110.278 134.45 101.485 134.45 90.6393C134.45 79.7934 125.658 71.001 114.812 71.001C103.966 71.001 95.1733 79.7934 95.1733 90.6393C95.1733 101.485 103.966 110.278 114.812 110.278Z" fill="black"/>
</g>
<path d="M114.812 106.635C125.658 106.635 134.45 97.8427 134.45 86.9967C134.45 76.1508 125.658 67.3584 114.812 67.3584C103.966 67.3584 95.1733 76.1508 95.1733 86.9967C95.1733 97.8427 103.966 106.635 114.812 106.635Z" fill="#5063F4"/>
<path d="M114.812 98.6142C114.255 98.6142 113.798 93.4087 113.798 87.0122C113.798 80.6156 114.255 75.4102 114.812 75.4102C115.368 75.4102 115.817 80.6156 115.817 87.0122C115.817 93.4087 115.361 98.6142 114.812 98.6142Z" fill="white"/>
<path d="M126.46 86.9967C126.46 87.5536 121.262 88.0022 114.858 88.0022C108.454 88.0022 103.256 87.5536 103.256 86.9967C103.256 86.4398 108.454 85.9912 114.858 85.9912C121.262 85.9912 126.46 86.4398 126.46 86.9967Z" fill="white"/>
</g>
<defs>
<clipPath id="clip0_6408_132896">
<rect width="309.387" height="278" fill="white" transform="translate(0.306641)"/>
</clipPath>
</defs>
</svg>
