<svg width="290" height="290" viewBox="0 0 290 290" fill="none" xmlns="http://www.w3.org/2000/svg">
<path d="M113.431 239.865H90.7646V246.106H113.431V239.865Z" fill="#EBEBEB"/>
<path d="M103.82 252.178C103.818 252.141 103.818 252.104 103.82 252.068V251.76C103.82 251.476 103.82 251.087 103.82 250.6C103.82 249.562 103.82 248.077 103.779 246.198L103.849 246.268L81.1826 246.314L81.2986 246.198V252.184L81.1826 252.068L97.3356 252.12L102.103 252.155H103.391H103.727C103.768 252.148 103.809 252.148 103.849 252.155H103.42H102.155L97.4168 252.184L81.2 252.3H81.0898V252.189C81.0898 251.227 81.0898 250.241 81.0898 249.237V246.204L81.2058 246.088L103.872 246.134H103.942V246.204C103.942 248.1 103.942 249.603 103.901 250.647C103.901 251.145 103.901 251.534 103.901 251.807C103.901 251.923 103.901 252.021 103.901 252.097C103.877 252.126 103.85 252.154 103.82 252.178Z" fill="#E0E0E0"/>
<path d="M111.749 178.785C111.749 178.785 111.749 178.744 111.749 178.669V178.344C111.749 178.048 111.749 177.631 111.749 177.097C111.749 176.001 111.749 174.423 111.714 172.457L111.772 172.532L93.1075 172.579C93.1481 172.527 93.0089 172.701 93.2003 172.457V175.67C93.2003 176.732 93.2003 177.77 93.2003 178.791L93.1075 178.675L106.413 178.727L110.339 178.762H111.406H111.778C111.778 178.762 111.778 178.762 111.691 178.762H111.43H110.386L106.482 178.796L93.1075 178.849H93.0146V172.451C93.206 172.208 93.0668 172.382 93.1132 172.329L111.778 172.376H111.836V172.451C111.836 174.458 111.836 176.047 111.807 177.155C111.807 177.677 111.807 178.089 111.807 178.385C111.807 178.512 111.807 178.617 111.807 178.698C111.807 178.779 111.754 178.791 111.749 178.785Z" fill="#E0E0E0"/>
<path d="M261.51 256.476C261.508 256.437 261.508 256.398 261.51 256.36V256.035C261.51 255.733 261.51 255.322 261.51 254.782C261.51 253.692 261.51 252.114 261.47 250.142L261.545 250.212L237.556 250.264L237.678 250.142V253.367C237.678 254.423 237.678 255.467 237.678 256.487L237.562 256.366L254.655 256.424L259.701 256.453H261.069H261.423H261.081H259.741L254.724 256.487L237.545 256.54H237.423V250.131L237.545 250.009L261.533 250.055H261.58V250.131C261.58 252.132 261.545 253.721 261.539 254.829C261.539 255.354 261.539 255.766 261.539 256.064V256.371C261.532 256.407 261.523 256.442 261.51 256.476Z" fill="#E0E0E0"/>
<path d="M264.765 250.131C264.761 250.091 264.761 250.05 264.765 250.009C264.765 249.916 264.765 249.806 264.765 249.673C264.765 249.36 264.765 248.936 264.765 248.397C264.765 247.283 264.736 245.717 264.718 243.757L264.805 243.844L250.392 243.879L250.514 243.757V245.398C250.514 245.949 250.514 246.483 250.514 247.017V250.096L250.398 249.98L260.705 250.033L263.709 250.067H264.521H264.811H264.55H263.761L260.786 250.096L250.398 250.154H250.282V245.34C250.282 245.068 250.282 244.795 250.282 244.523V243.699C250.282 243.728 250.514 243.467 250.41 243.577L264.823 243.612H264.91V243.699C264.91 245.654 264.875 247.249 264.863 248.374C264.863 248.902 264.863 249.319 264.863 249.627C264.842 249.797 264.809 249.965 264.765 250.131Z" fill="#E0E0E0"/>
<path d="M249.748 124.306H227.082V130.546H249.748V124.306Z" fill="#EBEBEB"/>
<path d="M240.166 136.619C240.162 136.583 240.162 136.546 240.166 136.509V136.202C240.166 135.923 240.166 135.529 240.166 135.042C240.166 134.003 240.166 132.519 240.132 130.639L240.201 130.709L217.535 130.755L217.651 130.639V133.679C217.651 134.676 217.651 135.662 217.651 136.625L217.541 136.515L233.694 136.561L238.461 136.596H239.749H240.103H239.778H238.513L233.769 136.631L217.529 136.677H217.413V130.634L217.529 130.518L240.195 130.564H240.265V130.634C240.265 132.53 240.236 134.032 240.224 135.076C240.224 135.575 240.224 135.962 240.224 136.236C240.224 136.358 240.224 136.451 240.224 136.532C240.208 136.563 240.189 136.592 240.166 136.619Z" fill="#E0E0E0"/>
<path d="M262.641 86.965C262.641 86.965 262.641 86.9244 262.641 86.849C262.641 86.7736 262.641 86.6576 262.641 86.5242C262.641 86.2226 262.641 85.8108 262.641 85.2714C262.641 84.181 262.641 82.6034 262.601 80.6314L262.67 80.701L238.681 80.7532L238.803 80.6314V86.9766L238.681 86.8548L255.78 86.9128H260.826H262.189H262.548H262.218H260.878L255.861 86.9476L238.681 86.9998H238.56V80.6198L238.681 80.4922L262.67 80.5444H262.74V80.6198C262.74 82.6208 262.74 84.21 262.699 85.3178C262.699 85.8437 262.699 86.2555 262.699 86.5532C262.699 86.6808 262.699 86.7794 262.699 86.8606C262.699 86.9418 262.647 86.965 262.641 86.965Z" fill="#E0E0E0"/>
<path d="M265.896 80.6204C265.896 80.6204 265.896 80.574 265.896 80.4986C265.896 80.4232 265.896 80.2956 265.896 80.1622C265.896 79.849 265.896 79.4256 265.896 78.8862C265.896 77.7726 265.867 76.2066 265.849 74.2462L265.936 74.3332L251.523 74.368L251.645 74.2462V77.5058C251.645 78.5672 251.645 79.5996 251.645 80.5856L251.529 80.4696L261.841 80.5218L264.846 80.5566H265.652H265.942H265.681H264.898H261.917L251.529 80.6146H251.413V80.6204C251.413 79.6344 251.413 78.602 251.413 77.5406V74.281L251.535 74.1592L265.948 74.194H266.035V74.281C266.035 76.2356 266 77.8248 265.988 78.9558C265.988 79.4836 265.988 79.9012 265.988 80.2086C265.965 80.3475 265.934 80.485 265.896 80.6204Z" fill="#E0E0E0"/>
<path d="M257.956 175.485C257.956 175.485 257.956 175.444 257.956 175.369C257.956 175.294 257.956 175.178 257.956 175.044C257.956 174.748 257.956 174.331 257.956 173.797C257.956 172.701 257.956 171.123 257.921 169.157L257.979 169.233L239.314 169.279C239.355 169.227 239.216 169.401 239.407 169.157V172.37C239.407 173.432 239.407 174.47 239.407 175.491L239.314 175.375L252.62 175.427L256.546 175.462H257.608H257.985C257.985 175.462 257.985 175.462 257.898 175.462H257.631H256.593L252.683 175.497L239.314 175.549H239.222V169.151C239.413 168.908 239.274 169.082 239.32 169.03L257.985 169.076H258.043V169.151C258.043 171.158 258.043 172.747 258.014 173.855C258.014 174.377 258.014 174.789 258.014 175.085V175.398C257.961 175.456 257.961 175.491 257.956 175.485Z" fill="#E0E0E0"/>
<path d="M195.507 35.9141H139.983V127.821H195.507V35.9141Z" fill="#E0E0E0"/>
<path d="M193.656 35.9141H138.133V127.821H193.656V35.9141Z" fill="#EBEBEB"/>
<path d="M191.295 37.7754H140.499V125.953H191.295V37.7754Z" fill="white"/>
<path d="M181.401 49.2363H150.168V114.498H181.401V49.2363Z" fill="#EBEBEB"/>
<path d="M150.168 91.402C150.098 85.3062 155.579 79.3554 161.617 78.5028C164.517 78.0968 167.55 78.671 170.241 77.5632C175.044 75.597 176.569 69.217 181.401 67.3262L181.621 114.498H150.168V91.402Z" fill="#E0E0E0"/>
<path d="M39.2024 51.3184H18.2412V86.0952H39.2024V51.3184Z" fill="#F5F5F5"/>
<path d="M62.6578 51.3184H40.0088V86.0952H62.6578V51.3184Z" fill="#F5F5F5"/>
<path d="M62.6578 88.5254H40.0088V122.131H62.6578V88.5254Z" fill="#F5F5F5"/>
<path d="M65.5576 50.7153H89.4072V19.8651H90.2076V50.7153H109.62V19.1807H65.5576V50.7153Z" fill="#F5F5F5"/>
<path d="M109.621 51.3184H90.2139V86.0952H109.621V51.3184Z" fill="#F5F5F5"/>
<path d="M109.621 88.5254H90.2139V122.131H109.621V88.5254Z" fill="#F5F5F5"/>
<path d="M39.2024 88.5254H18.2412V122.131H39.2024V88.5254Z" fill="#F5F5F5"/>
<path d="M89.4072 88.5254H65.5576V122.131H89.4072V88.5254Z" fill="#F5F5F5"/>
<path d="M39.2024 122.733H18.2412V153.015H39.2024V122.733Z" fill="#F5F5F5"/>
<path d="M109.621 122.733H90.2139V153.015H109.621V122.733Z" fill="#F5F5F5"/>
<path d="M39.2024 50.7153V19.8651H40.0086V50.7153H62.6518V19.1807H18.2412V50.7153H39.2024Z" fill="#F5F5F5"/>
<path d="M89.4072 122.733H65.5576V153.015H89.4072V122.733Z" fill="#F5F5F5"/>
<path d="M62.6578 122.733H40.0088V153.015H62.6578V122.733Z" fill="#F5F5F5"/>
<path d="M89.4072 51.3184H65.5576V86.0952H89.4072V51.3184Z" fill="#F5F5F5"/>
<path d="M148.782 26.1701C148.782 26.1701 148.782 26.1295 148.782 26.0541V25.7293C148.782 25.4277 148.782 25.0101 148.782 24.4765C148.782 23.3803 148.782 21.8085 148.747 19.8365L148.805 19.9061L130.141 19.9583C130.182 19.9003 130.042 20.0801 130.234 19.8365V23.0555C130.234 24.1111 130.234 25.1551 130.234 26.1759L130.141 26.0541L143.446 26.1121L147.373 26.1411H148.434H148.713H148.811H148.457H147.419L143.51 26.1759L130.17 26.2281H130.077V19.8307L130.176 19.7031L148.84 19.7553H148.898V19.8307C148.898 21.8317 148.898 23.4209 148.869 24.5287C148.869 25.0565 148.869 25.4683 148.869 25.7583C148.869 25.8917 148.869 25.9903 148.869 26.0715C148.869 26.1527 148.788 26.1701 148.782 26.1701Z" fill="#E0E0E0"/>
<path d="M282 273.815C282 273.896 220.878 273.966 145.506 273.966C70.1336 273.966 9 273.896 9 273.815C9 273.734 70.1035 273.664 145.506 273.664C220.909 273.664 282 273.728 282 273.815Z" fill="#263238"/>
<path d="M261.066 247.359C261.013 247.429 252.946 241.437 243.086 233.984C233.226 226.531 225.245 220.435 225.291 220.401C225.338 220.366 233.411 226.317 243.271 233.775C253.131 241.234 261.118 247.295 261.066 247.359Z" fill="#263238"/>
<path d="M221.631 248.055C221.579 247.991 229.618 241.739 239.611 234.094C249.605 226.45 257.701 220.302 257.754 220.372C257.806 220.441 249.767 226.688 239.774 234.332C229.78 241.977 221.678 248.119 221.631 248.055Z" fill="#263238"/>
<path d="M227.559 213.51L226.138 221.218H228.249L230.435 213.51H227.559Z" fill="#263238"/>
<path d="M223.893 218.962C222.014 228.352 214.77 263.407 212.937 272.258C212.883 272.499 212.883 272.75 212.937 272.991C212.992 273.233 213.099 273.459 213.252 273.654C213.405 273.849 213.599 274.007 213.82 274.118C214.041 274.228 214.285 274.289 214.532 274.294C214.894 274.291 215.246 274.168 215.531 273.945C215.817 273.721 216.02 273.409 216.11 273.058L230.256 220.33C230.375 219.906 230.396 219.459 230.317 219.025C230.237 218.591 230.06 218.181 229.798 217.826C229.537 217.471 229.197 217.18 228.806 216.976C228.415 216.772 227.982 216.659 227.541 216.647H226.654C225.997 216.653 225.362 216.886 224.858 217.309C224.354 217.731 224.013 218.315 223.893 218.962Z" fill="#455A64"/>
<path d="M255.614 213.51L257.035 221.218H254.924L252.737 213.51H255.614Z" fill="#263238"/>
<path d="M270.537 203.58C266.419 195.942 261.524 172.62 259.367 165.179C259.309 164.97 259.245 164.767 259.181 164.57C258.363 162.186 256.816 160.119 254.76 158.662C252.703 157.205 250.241 156.431 247.72 156.45H235.297C232.777 156.43 230.315 157.204 228.259 158.662C226.203 160.119 224.658 162.186 223.842 164.57L223.65 165.179C221.498 172.62 216.597 195.919 212.485 203.58C212.485 203.58 206.998 206.811 208.564 209.902C210.078 212.878 224.166 214.989 241.508 214.432C258.856 215.012 272.944 212.878 274.452 209.902C276.018 206.811 270.537 203.58 270.537 203.58Z" fill="#E0E0E0"/>
<path d="M270.537 203.58C271.013 203.852 271.466 204.16 271.894 204.503C272.429 204.906 272.926 205.356 273.379 205.848C274.028 206.506 274.494 207.321 274.73 208.215C274.834 208.765 274.765 209.334 274.533 209.844C274.241 210.395 273.785 210.841 273.228 211.12C272.651 211.445 272.045 211.714 271.419 211.927C270.769 212.164 270.085 212.367 269.371 212.553C266.099 213.332 262.772 213.855 259.418 214.119C255.683 214.467 251.565 214.647 247.117 214.653C246.003 214.653 244.872 214.653 243.718 214.653C242.564 214.653 241.398 214.571 240.238 214.653C237.86 214.715 235.404 214.715 232.872 214.653C227.551 214.6 222.242 214.158 216.986 213.33C215.596 213.096 214.22 212.79 212.862 212.414C212.161 212.219 211.474 211.981 210.803 211.7C210.117 211.435 209.479 211.061 208.912 210.593C208.624 210.331 208.412 209.996 208.297 209.624C208.268 209.537 208.228 209.444 208.204 209.351L208.17 209.067L208.141 208.783C208.141 208.684 208.141 208.592 208.141 208.493C208.246 207.74 208.548 207.028 209.016 206.428C209.952 205.249 211.094 204.249 212.386 203.476L212.328 203.534C213.739 200.581 214.903 197.516 215.808 194.37C216.788 191.186 217.687 187.926 218.552 184.614C219.456 181.134 220.292 177.712 221.144 174.325C221.566 172.632 221.983 170.95 222.397 169.279C222.832 167.615 223.221 165.962 223.76 164.338C224.328 162.752 225.224 161.304 226.388 160.087C227.552 158.87 228.959 157.912 230.517 157.273C232.027 156.657 233.642 156.336 235.273 156.328H246.838C247.584 156.313 248.329 156.342 249.071 156.415C250.531 156.576 251.951 156.994 253.265 157.65C254.535 158.29 255.685 159.146 256.663 160.179C257.606 161.179 258.368 162.335 258.914 163.595L259.268 164.535C259.366 164.854 259.471 165.167 259.552 165.486C259.726 166.118 259.9 166.739 260.056 167.359C260.706 169.842 261.28 172.237 261.843 174.517C264.058 183.646 265.984 191 267.591 195.977C268.374 198.482 269.116 200.379 269.644 201.661C269.905 202.299 270.154 202.757 270.293 203.082L270.52 203.575C270.52 203.575 270.166 202.942 269.586 201.684C269.006 200.425 268.281 198.511 267.48 196.011C265.833 191.018 263.879 183.663 261.634 174.551C261.054 172.272 260.474 169.882 259.83 167.406C259.674 166.785 259.5 166.165 259.326 165.532C259.239 165.213 259.14 164.906 259.041 164.593C258.943 164.28 258.809 164.013 258.688 163.676C258.153 162.442 257.405 161.311 256.478 160.336C254.516 158.264 251.879 156.962 249.042 156.664C248.31 156.59 247.574 156.563 246.838 156.583H239.994C236.909 156.682 233.614 156.194 230.633 157.517C229.113 158.141 227.741 159.077 226.606 160.265C225.471 161.453 224.598 162.866 224.044 164.413C223.522 166.002 223.122 167.673 222.693 169.331C222.264 170.99 221.863 172.678 221.44 174.372C220.605 177.765 219.758 181.198 218.853 184.672C217.989 187.984 217.113 191.25 216.104 194.44C215.201 197.601 214.037 200.681 212.624 203.65V203.685H212.589C211.311 204.439 210.181 205.42 209.254 206.579C208.815 207.135 208.531 207.797 208.431 208.499C208.431 208.586 208.431 208.673 208.431 208.754L208.46 209.009V209.264C208.46 209.346 208.518 209.427 208.547 209.508C208.643 209.834 208.827 210.127 209.08 210.355C209.622 210.803 210.233 211.159 210.89 211.41C211.541 211.684 212.21 211.914 212.891 212.101C214.238 212.479 215.605 212.785 216.986 213.017C222.226 213.848 227.52 214.296 232.825 214.357C235.35 214.411 237.802 214.411 240.18 214.357C241.34 214.293 242.546 214.357 243.695 214.357C244.843 214.357 245.974 214.392 247.088 214.392C251.53 214.392 255.643 214.223 259.372 213.893C262.716 213.642 266.036 213.132 269.302 212.367C270.015 212.188 270.699 211.99 271.343 211.787C271.964 211.578 272.564 211.312 273.135 210.993C273.664 210.743 274.105 210.338 274.4 209.833C274.626 209.346 274.695 208.801 274.597 208.273C274.37 207.4 273.92 206.6 273.292 205.953C272.846 205.46 272.359 205.006 271.836 204.595C271.413 204.259 271.076 204.015 270.85 203.87L270.537 203.58Z" fill="#263238"/>
<path d="M259.135 218.962C261.002 228.352 268.258 263.407 270.085 272.258C270.139 272.499 270.139 272.75 270.085 272.991C270.03 273.233 269.923 273.459 269.77 273.654C269.617 273.849 269.423 274.007 269.202 274.118C268.981 274.228 268.737 274.289 268.49 274.294C268.127 274.291 267.776 274.168 267.491 273.945C267.205 273.721 267.002 273.409 266.912 273.058L252.755 220.33C252.635 219.906 252.614 219.46 252.693 219.027C252.772 218.593 252.949 218.183 253.21 217.828C253.471 217.473 253.81 217.182 254.2 216.978C254.591 216.773 255.023 216.66 255.463 216.647H256.356C257.016 216.65 257.655 216.882 258.162 217.304C258.669 217.727 259.013 218.313 259.135 218.962Z" fill="#455A64"/>
<path d="M267.985 207.797C267.945 207.816 267.902 207.828 267.857 207.832L267.463 207.902L265.961 208.134C264.656 208.331 262.765 208.58 260.416 208.847C255.724 209.381 249.216 209.897 242.013 210.007C234.809 210.117 228.278 209.816 223.575 209.427C221.22 209.242 219.317 209.056 218.006 208.899L216.499 208.72L216.104 208.662C216.058 208.66 216.013 208.65 215.971 208.633H216.11H216.504L218.018 208.76C219.329 208.882 221.237 209.033 223.586 209.195C228.29 209.514 234.809 209.775 242.007 209.671C249.205 209.566 255.701 209.091 260.393 208.58C262.742 208.343 264.639 208.128 265.949 207.966L267.457 207.786L267.852 207.751C267.899 207.757 267.944 207.773 267.985 207.797Z" fill="#263238"/>
<g opacity="0.3">
<path d="M264.307 205.117C263.861 204.004 262.057 203.725 260.578 203.656C246.713 202.984 232.816 203.519 219.044 205.256C218.652 205.275 218.27 205.382 217.925 205.57C217.617 205.773 217.478 206.15 217.745 206.411L217.681 207.101C231.369 210.111 245.916 209.485 260.021 208C261.084 207.954 262.129 207.716 263.107 207.298C263.994 206.834 264.638 205.935 264.307 205.117Z" fill="black"/>
</g>
<path d="M165.428 247.359C165.376 247.429 157.308 241.437 147.448 233.984C137.588 226.531 129.607 220.435 129.654 220.401C129.7 220.366 137.774 226.317 147.634 233.775C157.494 241.234 165.48 247.295 165.428 247.359Z" fill="#263238"/>
<path d="M125.993 248.055C125.941 247.991 133.98 241.739 143.973 234.094C153.967 226.45 162.064 220.302 162.116 220.372C162.168 220.441 154.129 226.688 144.136 234.332C134.142 241.977 126.04 248.119 125.993 248.055Z" fill="#263238"/>
<path d="M131.921 213.51L130.5 221.218H132.611L134.798 213.51H131.921Z" fill="#263238"/>
<path d="M128.256 218.962C126.376 228.352 119.132 263.407 117.299 272.258C117.245 272.499 117.245 272.75 117.3 272.991C117.354 273.233 117.462 273.459 117.614 273.654C117.767 273.849 117.961 274.007 118.182 274.118C118.404 274.228 118.647 274.289 118.894 274.294C119.257 274.291 119.608 274.168 119.894 273.945C120.179 273.721 120.382 273.409 120.472 273.058L134.618 220.33C134.737 219.906 134.758 219.459 134.679 219.025C134.6 218.591 134.422 218.181 134.161 217.826C133.899 217.471 133.559 217.18 133.168 216.976C132.777 216.772 132.345 216.659 131.904 216.647H131.016C130.359 216.653 129.724 216.886 129.22 217.309C128.716 217.731 128.375 218.315 128.256 218.962Z" fill="#455A64"/>
<path d="M159.976 213.51L161.397 221.218H159.286L157.1 213.51H159.976Z" fill="#263238"/>
<path d="M174.9 203.58C170.782 195.942 165.886 172.62 163.729 165.179C163.671 164.97 163.607 164.767 163.543 164.57C162.725 162.186 161.178 160.119 159.122 158.662C157.065 157.205 154.603 156.431 152.082 156.45H139.659C137.139 156.43 134.677 157.204 132.621 158.662C130.566 160.119 129.02 162.186 128.204 164.57L128.012 165.179C125.861 172.62 120.96 195.919 116.847 203.58C116.847 203.58 111.361 206.811 112.927 209.902C114.44 212.878 128.529 214.989 145.871 214.432C163.218 215.012 177.307 212.878 178.815 209.902C180.381 206.811 174.9 203.58 174.9 203.58Z" fill="#E0E0E0"/>
<path d="M174.899 203.58C175.375 203.852 175.829 204.16 176.257 204.503C176.791 204.906 177.288 205.356 177.741 205.848C178.391 206.506 178.856 207.321 179.093 208.215C179.196 208.765 179.128 209.334 178.896 209.844C178.604 210.395 178.148 210.841 177.591 211.12C177.014 211.445 176.408 211.714 175.781 211.927C175.131 212.164 174.447 212.367 173.734 212.553C170.461 213.332 167.134 213.855 163.781 214.119C160.046 214.467 155.928 214.647 151.479 214.653C150.365 214.653 149.234 214.653 148.08 214.653C146.926 214.653 145.76 214.571 144.6 214.653C142.222 214.715 139.767 214.715 137.234 214.653C131.914 214.6 126.604 214.158 121.348 213.33C119.958 213.096 118.582 212.79 117.224 212.414C116.524 212.219 115.836 211.981 115.165 211.7C114.48 211.435 113.841 211.061 113.274 210.593C112.986 210.331 112.774 209.996 112.66 209.624C112.631 209.537 112.59 209.444 112.567 209.351L112.532 209.067L112.503 208.783C112.503 208.684 112.503 208.592 112.503 208.493C112.608 207.74 112.91 207.028 113.379 206.428C114.314 205.249 115.456 204.249 116.749 203.476L116.691 203.534C118.102 200.581 119.266 197.516 120.171 194.37C121.151 191.186 122.05 187.926 122.914 184.614C123.819 181.134 124.654 177.712 125.507 174.325C125.928 172.632 126.346 170.95 126.759 169.279C127.194 167.615 127.583 165.962 128.122 164.338C128.691 162.752 129.586 161.304 130.75 160.087C131.914 158.87 133.321 157.912 134.879 157.273C136.39 156.657 138.004 156.336 139.635 156.328H151.201C151.946 156.313 152.692 156.342 153.434 156.415C154.893 156.576 156.313 156.994 157.627 157.65C158.898 158.29 160.048 159.146 161.026 160.179C161.968 161.179 162.73 162.335 163.276 163.595L163.63 164.535C163.729 164.854 163.833 165.167 163.914 165.486C164.088 166.118 164.262 166.739 164.419 167.359C165.068 169.842 165.643 172.237 166.205 174.517C168.421 183.646 170.346 191 171.953 195.977C172.736 198.482 173.478 200.379 174.006 201.661C174.267 202.299 174.517 202.757 174.656 203.082L174.882 203.575C174.882 203.575 174.528 202.942 173.948 201.684C173.368 200.425 172.643 198.511 171.843 196.011C170.196 191.018 168.241 183.663 165.996 174.551C165.416 172.272 164.836 169.882 164.193 167.406C164.036 166.785 163.862 166.165 163.688 165.532C163.601 165.213 163.502 164.906 163.404 164.593C163.305 164.28 163.172 164.013 163.05 163.676C162.515 162.442 161.767 161.311 160.84 160.336C158.879 158.264 156.242 156.962 153.405 156.664C152.672 156.59 151.936 156.563 151.201 156.583H144.357C141.271 156.682 137.977 156.194 134.995 157.517C133.475 158.141 132.104 159.077 130.969 160.265C129.834 161.453 128.961 162.866 128.407 164.413C127.885 166.002 127.484 167.673 127.055 169.331C126.626 170.99 126.226 172.678 125.802 174.372C124.967 177.765 124.12 181.198 123.216 184.672C122.351 187.984 121.476 191.25 120.466 194.44C119.563 197.601 118.399 200.681 116.986 203.65V203.685H116.952C115.673 204.439 114.543 205.42 113.617 206.579C113.177 207.135 112.893 207.797 112.793 208.499C112.793 208.586 112.793 208.673 112.793 208.754L112.822 209.009V209.264C112.822 209.346 112.88 209.427 112.909 209.508C113.005 209.834 113.19 210.127 113.443 210.355C113.984 210.803 114.596 211.159 115.252 211.41C115.903 211.684 116.572 211.914 117.253 212.101C118.601 212.479 119.968 212.785 121.348 213.017C126.588 213.848 131.882 214.296 137.188 214.357C139.713 214.411 142.164 214.411 144.542 214.357C145.702 214.293 146.909 214.357 148.057 214.357C149.205 214.357 150.336 214.392 151.45 214.392C155.893 214.392 160.005 214.223 163.734 213.893C167.079 213.642 170.398 213.132 173.664 212.367C174.377 212.188 175.062 211.99 175.706 211.787C176.326 211.578 176.926 211.312 177.498 210.993C178.027 210.743 178.467 210.338 178.762 209.833C178.988 209.346 179.057 208.801 178.959 208.273C178.732 207.4 178.283 206.6 177.654 205.953C177.208 205.46 176.721 205.006 176.199 204.595C175.775 204.259 175.439 204.015 175.213 203.87L174.899 203.58Z" fill="#263238"/>
<path d="M163.497 218.962C165.364 228.352 172.62 263.407 174.447 272.258C174.501 272.499 174.501 272.75 174.447 272.991C174.392 273.233 174.285 273.459 174.132 273.654C173.98 273.849 173.786 274.007 173.564 274.118C173.343 274.228 173.1 274.289 172.852 274.294C172.49 274.291 172.138 274.168 171.853 273.945C171.568 273.721 171.364 273.409 171.275 273.058L157.117 220.33C156.998 219.906 156.977 219.46 157.056 219.027C157.135 218.593 157.311 218.183 157.573 217.828C157.834 217.473 158.172 217.182 158.563 216.978C158.953 216.773 159.385 216.66 159.825 216.647H160.719C161.379 216.65 162.017 216.882 162.524 217.304C163.031 217.727 163.375 218.313 163.497 218.962Z" fill="#455A64"/>
<path d="M172.347 207.797C172.307 207.816 172.264 207.828 172.22 207.832L171.825 207.902L170.323 208.134C169.018 208.331 167.127 208.58 164.778 208.847C160.086 209.381 153.579 209.897 146.375 210.007C139.171 210.117 132.641 209.816 127.937 209.427C125.582 209.242 123.68 209.056 122.369 208.899L120.861 208.72L120.466 208.662C120.421 208.66 120.375 208.65 120.333 208.633H120.472H120.867L122.38 208.76C123.691 208.882 125.599 209.033 127.948 209.195C132.652 209.514 139.171 209.775 146.369 209.671C153.567 209.566 160.063 209.091 164.755 208.58C167.104 208.343 169.001 208.128 170.312 207.966L171.82 207.786L172.214 207.751C172.261 207.757 172.307 207.773 172.347 207.797Z" fill="#263238"/>
<g opacity="0.3">
<path d="M168.67 205.117C168.223 204.004 166.419 203.725 164.94 203.656C151.075 202.984 137.178 203.519 123.406 205.256C123.015 205.275 122.632 205.382 122.287 205.57C121.98 205.773 121.84 206.15 122.107 206.411L122.043 207.101C135.731 210.111 150.278 209.485 164.383 208C165.446 207.954 166.491 207.716 167.469 207.298C168.356 206.834 169 205.935 168.67 205.117Z" fill="black"/>
</g>
<path d="M69.7912 247.359C69.739 247.429 61.6712 241.437 51.8112 233.984C41.9512 226.531 33.9704 220.435 34.0168 220.401C34.0632 220.366 42.1368 226.317 51.9968 233.775C61.8568 241.234 69.8434 247.295 69.7912 247.359Z" fill="#263238"/>
<path d="M30.3567 248.055C30.3045 247.991 38.3433 241.739 48.3367 234.094C58.3301 226.45 66.4269 220.302 66.4791 220.372C66.5313 220.441 58.4925 226.688 48.4991 234.332C38.5057 241.977 30.4031 248.119 30.3567 248.055Z" fill="#263238"/>
<path d="M36.2843 213.51L34.8633 221.218H36.9745L39.1611 213.51H36.2843Z" fill="#263238"/>
<path d="M32.6188 218.962C30.7396 228.352 23.4954 263.407 21.6626 272.258C21.6084 272.499 21.6086 272.75 21.663 272.991C21.7175 273.233 21.8249 273.459 21.9776 273.654C22.1302 273.849 22.3242 274.007 22.5456 274.118C22.767 274.228 23.0102 274.289 23.2576 274.294C23.6201 274.291 23.9714 274.168 24.2568 273.945C24.5422 273.721 24.7456 273.409 24.8352 273.058L38.9814 220.33C39.1007 219.906 39.1215 219.459 39.0422 219.025C38.9629 218.591 38.7856 218.181 38.5239 217.826C38.2621 217.471 37.9228 217.18 37.5317 216.976C37.1406 216.772 36.7081 216.659 36.267 216.647H35.3796C34.7223 216.653 34.0873 216.886 33.5835 217.309C33.0797 217.731 32.7387 218.315 32.6188 218.962Z" fill="#455A64"/>
<path d="M64.3397 213.51L65.7607 221.218H63.6495L61.4629 213.51H64.3397Z" fill="#263238"/>
<path d="M79.2629 203.58C75.1449 195.942 70.2497 172.62 68.0921 165.179C68.0341 164.97 67.9703 164.767 67.9065 164.57C67.0883 162.186 65.5417 160.119 63.4851 158.662C61.4285 157.205 58.9661 156.431 56.4457 156.45H44.0221C41.5024 156.43 39.0404 157.204 36.9846 158.662C34.9289 160.119 33.3835 162.186 32.5671 164.57L32.3757 165.179C30.2239 172.62 25.3229 195.919 21.2107 203.58C21.2107 203.58 15.7239 206.811 17.2899 209.902C18.8037 212.878 32.8919 214.989 50.2339 214.432C67.5817 215.012 81.6699 212.878 83.1779 209.902C84.7439 206.811 79.2629 203.58 79.2629 203.58Z" fill="#E0E0E0"/>
<path d="M79.2626 203.58C79.7383 203.852 80.1921 204.16 80.6198 204.503C81.1542 204.906 81.6511 205.356 82.1046 205.848C82.7538 206.506 83.2197 207.321 83.456 208.215C83.5597 208.765 83.4908 209.334 83.2588 209.844C82.967 210.395 82.5108 210.841 81.9538 211.12C81.3769 211.445 80.771 211.714 80.1442 211.927C79.4946 212.164 78.8102 212.367 78.0968 212.553C74.8247 213.332 71.4971 213.855 68.144 214.119C64.4088 214.467 60.2908 214.647 55.8422 214.653C54.7286 214.653 53.5976 214.653 52.4434 214.653C51.2892 214.653 50.1234 214.571 48.9634 214.653C46.5854 214.715 44.1301 214.715 41.5974 214.653C36.2768 214.6 30.9673 214.158 25.7112 213.33C24.3217 213.096 22.9453 212.79 21.5874 212.414C20.887 212.219 20.1993 211.981 19.5284 211.7C18.8428 211.435 18.2044 211.061 17.6376 210.593C17.3495 210.331 17.1371 209.996 17.0228 209.624C16.9938 209.537 16.9532 209.444 16.93 209.351L16.8952 209.067L16.8662 208.783C16.8662 208.684 16.8662 208.592 16.8662 208.493C16.9716 207.74 17.2737 207.028 17.742 206.428C18.6778 205.249 19.8195 204.249 21.1118 203.476L21.0538 203.534C22.4651 200.581 23.6291 197.516 24.5338 194.37C25.514 191.186 26.413 187.926 27.2772 184.614C28.182 181.134 29.0172 177.712 29.8698 174.325C30.2913 172.632 30.7089 170.95 31.1226 169.279C31.5576 167.615 31.9462 165.962 32.4856 164.338C33.054 162.752 33.9493 161.304 35.1133 160.087C36.2774 158.87 37.6842 157.912 39.2426 157.273C40.7529 156.657 42.3674 156.336 43.9986 156.328H55.5638C56.3092 156.313 57.0548 156.342 57.7968 156.415C59.2565 156.576 60.6762 156.994 61.9902 157.65C63.261 158.29 64.4111 159.146 65.389 160.179C66.3317 161.179 67.0932 162.335 67.6394 163.595L67.9932 164.535C68.0918 164.854 68.1962 165.167 68.2774 165.486C68.4514 166.118 68.6254 166.739 68.782 167.359C69.4316 169.842 70.0058 172.237 70.5684 174.517C72.784 183.646 74.7096 191 76.3162 195.977C77.0992 198.482 77.8416 200.379 78.3694 201.661C78.6304 202.299 78.8798 202.757 79.019 203.082L79.2452 203.575C79.2452 203.575 78.8914 202.942 78.3114 201.684C77.7314 200.425 77.0064 198.511 76.206 196.011C74.5588 191.018 72.6042 183.663 70.3596 174.551C69.7796 172.272 69.1996 169.882 68.5558 167.406C68.3992 166.785 68.2252 166.165 68.0512 165.532C67.9642 165.213 67.8656 164.906 67.767 164.593C67.6684 164.28 67.535 164.013 67.4132 163.676C66.8783 162.442 66.1303 161.311 65.2034 160.336C63.2421 158.264 60.6049 156.962 57.7678 156.664C57.0356 156.59 56.2995 156.563 55.5638 156.583H48.7198C45.6342 156.682 42.3398 156.194 39.3586 157.517C37.8387 158.141 36.4669 159.077 35.3319 160.265C34.1969 161.453 33.324 162.866 32.7698 164.413C32.2478 166.002 31.8476 167.673 31.4184 169.331C30.9892 170.99 30.589 172.678 30.1656 174.372C29.3304 177.765 28.4836 181.198 27.5788 184.672C26.7146 187.984 25.8388 191.25 24.8296 194.44C23.9264 197.601 22.7624 200.681 21.3496 203.65V203.685H21.3148C20.0365 204.439 18.9064 205.42 17.9798 206.579C17.5406 207.135 17.2565 207.797 17.1562 208.499C17.1562 208.586 17.1562 208.673 17.1562 208.754L17.1852 209.009V209.264C17.1852 209.346 17.2432 209.427 17.2722 209.508C17.3683 209.834 17.5531 210.127 17.8058 210.355C18.3477 210.803 18.9589 211.159 19.6154 211.41C20.2668 211.684 20.9352 211.914 21.6164 212.101C22.964 212.479 24.3309 212.785 25.7112 213.017C30.9515 213.848 36.2455 214.296 41.551 214.357C44.0759 214.411 46.5274 214.411 48.9054 214.357C50.0654 214.293 51.2718 214.357 52.4202 214.357C53.5686 214.357 54.6996 214.392 55.8132 214.392C60.256 214.392 64.3682 214.223 68.0976 213.893C71.4419 213.642 74.7617 213.132 78.0272 212.367C78.7406 212.188 79.425 211.99 80.0688 211.787C80.6892 211.578 81.2891 211.312 81.861 210.993C82.3898 210.743 82.8306 210.338 83.1254 209.833C83.3515 209.346 83.4204 208.801 83.3226 208.273C83.0954 207.4 82.6458 206.6 82.0176 205.953C81.5716 205.46 81.0846 205.006 80.5618 204.595C80.1384 204.259 79.802 204.015 79.5758 203.87L79.2626 203.58Z" fill="#263238"/>
<path d="M67.8601 218.962C69.7277 228.352 76.9835 263.407 78.8105 272.258C78.8647 272.499 78.8646 272.75 78.8101 272.991C78.7556 273.233 78.6482 273.459 78.4955 273.654C78.3429 273.849 78.1489 274.007 77.9275 274.118C77.7061 274.228 77.463 274.289 77.2155 274.294C76.8531 274.291 76.5017 274.168 76.2163 273.945C75.9309 273.721 75.7276 273.409 75.6379 273.058L61.4801 220.33C61.3609 219.906 61.34 219.46 61.419 219.027C61.498 218.593 61.6747 218.183 61.9358 217.828C62.197 217.473 62.5356 217.182 62.9259 216.978C63.3163 216.773 63.7482 216.66 64.1887 216.647H65.0819C65.7419 216.65 66.3805 216.882 66.8876 217.304C67.3947 217.727 67.7386 218.313 67.8601 218.962Z" fill="#455A64"/>
<path d="M76.7107 207.797C76.6705 207.816 76.6273 207.828 76.5831 207.832L76.1887 207.902L74.6865 208.134C73.3815 208.331 71.4907 208.58 69.1417 208.847C64.4495 209.381 57.9419 209.897 50.7383 210.007C43.5347 210.117 37.0039 209.816 32.3001 209.427C29.9453 209.242 28.0429 209.056 26.7321 208.899L25.2241 208.72L24.8297 208.662C24.7838 208.66 24.7386 208.65 24.6963 208.633H24.8355H25.2299L26.7437 208.76C28.0545 208.882 29.9627 209.033 32.3117 209.195C37.0155 209.514 43.5347 209.775 50.7325 209.671C57.9303 209.566 64.4263 209.091 69.1185 208.58C71.4675 208.343 73.3641 208.128 74.6749 207.966L76.1829 207.786L76.5773 207.751C76.6245 207.757 76.67 207.773 76.7107 207.797Z" fill="#263238"/>
<g opacity="0.3">
<path d="M73.033 205.117C72.5863 204.004 70.7826 203.725 69.3036 203.656C55.4387 202.984 41.5417 203.519 27.7698 205.256C27.3779 205.275 26.9953 205.382 26.6504 205.57C26.343 205.773 26.2038 206.15 26.4706 206.411L26.4068 207.101C40.0948 210.111 54.6412 209.485 68.7467 208C69.8092 207.954 70.8547 207.716 71.8324 207.298C72.7198 206.834 73.3636 205.935 73.033 205.117Z" fill="black"/>
</g>
<path d="M240.508 64.5772C251.755 64.5772 260.872 55.46 260.872 44.2134C260.872 32.9668 251.755 23.8496 240.508 23.8496C229.262 23.8496 220.145 32.9668 220.145 44.2134C220.145 55.46 229.262 64.5772 240.508 64.5772Z" fill="#5063F4"/>
<path d="M240.572 62.2805C250.55 62.2805 258.639 54.1916 258.639 44.2135C258.639 34.2354 250.55 26.1465 240.572 26.1465C230.594 26.1465 222.505 34.2354 222.505 44.2135C222.505 54.1916 230.594 62.2805 240.572 62.2805Z" fill="white"/>
<path d="M258.639 44.2132C258.639 44.2132 258.639 44.1088 258.61 43.9174C258.581 43.726 258.581 43.4302 258.552 43.059L258.517 42.4268C258.517 42.2006 258.442 41.9454 258.401 41.6728C258.32 41.0439 258.194 40.4217 258.024 39.811C257.604 38.1219 256.929 36.5065 256.023 35.0202C254.712 32.8353 252.952 30.9527 250.861 29.4963C248.77 28.0398 246.394 27.0424 243.89 26.5696C243.139 26.4276 242.379 26.3384 241.616 26.3028C241.228 26.3028 240.839 26.2564 240.456 26.2622L239.267 26.3202C239.07 26.3202 238.867 26.3202 238.687 26.3608L238.107 26.4536C237.707 26.5174 237.301 26.5638 236.895 26.6508C236.084 26.8321 235.286 27.0666 234.505 27.3526C233.709 27.6413 232.934 27.9843 232.185 28.3792C231.808 28.588 231.443 28.8258 231.072 29.0462C230.886 29.168 230.689 29.2666 230.492 29.4L229.964 29.7944C229.247 30.3276 228.567 30.9089 227.928 31.5344C227.302 32.1886 226.721 32.8843 226.188 33.6166L225.776 34.1966L225.411 34.7766L225.051 35.3566C224.924 35.5531 224.812 35.7586 224.715 35.9714C224.518 36.389 224.315 36.8124 224.106 37.2358C223.897 37.6592 223.787 38.1232 223.619 38.564C223.03 40.3942 222.719 42.3023 222.697 44.2248C222.696 46.1422 222.986 48.0488 223.555 49.8798L224.042 51.2138L224.651 52.4782C224.745 52.6908 224.857 52.8946 224.988 53.0872L225.347 53.6672L225.707 54.2472L226.124 54.8272C226.657 55.5594 227.238 56.2551 227.864 56.9094C228.503 57.5348 229.183 58.1162 229.9 58.6494L230.428 59.0438C230.602 59.1772 230.799 59.2758 230.979 59.3976C231.356 59.618 231.721 59.8558 232.098 60.0646C232.847 60.4594 233.622 60.8024 234.418 61.0912C235.199 61.3771 235.997 61.6116 236.808 61.793C237.214 61.88 237.62 61.9264 238.02 61.9902L238.6 62.083C238.797 62.083 239 62.083 239.18 62.1236L240.369 62.1816C240.764 62.1816 241.152 62.1816 241.529 62.141C242.292 62.1056 243.052 62.0165 243.803 61.8742C246.545 61.3654 249.128 60.2168 251.343 58.5218C253.182 57.1325 254.736 55.4015 255.919 53.4236C256.825 51.9372 257.499 50.3218 257.92 48.6328C258.09 48.022 258.216 47.3998 258.297 46.771C258.338 46.4984 258.39 46.2432 258.413 46.017L258.448 45.3848C258.477 45.0136 258.494 44.7294 258.506 44.5264C258.51 44.4293 258.52 44.3325 258.535 44.2364V44.5264C258.535 44.7294 258.535 45.0136 258.5 45.3848C258.5 45.5762 258.5 45.7908 258.5 46.0228C258.5 46.2548 258.43 46.5042 258.396 46.7768C258.321 47.4106 258.203 48.0385 258.042 48.656C257.632 50.3596 256.965 51.9907 256.064 53.4932C254.76 55.6974 253.004 57.6005 250.912 59.077C248.82 60.5536 246.438 61.5702 243.925 62.0598C243.159 62.2054 242.383 62.2965 241.605 62.3324C241.216 62.3324 240.822 62.3846 240.445 62.3788L239.244 62.3208C239.041 62.3208 238.838 62.3208 238.635 62.2802L238.026 62.1932C237.626 62.1236 237.214 62.0772 236.802 61.996C235.98 61.8092 235.171 61.5729 234.378 61.2884C233.564 60.9967 232.772 60.6498 232.006 60.2502C231.623 60.0414 231.252 59.7978 230.846 59.5716C230.66 59.4556 230.463 59.3512 230.266 59.2178L229.732 58.8176C229.004 58.2859 228.314 57.7045 227.667 57.0776C227.024 56.4175 226.427 55.714 225.881 54.9722L225.463 54.3922L225.098 53.8122L224.732 53.2322C224.605 53.033 224.49 52.8257 224.39 52.6116L223.775 51.324C223.607 50.8774 223.445 50.4308 223.277 49.9784C222.68 48.1217 222.363 46.1864 222.337 44.2364C222.367 42.2772 222.692 40.3337 223.3 38.4712C223.468 38.0188 223.63 37.5664 223.799 37.1198C223.967 36.6732 224.21 36.2672 224.413 35.838C224.512 35.6232 224.627 35.4158 224.756 35.2174L225.121 34.6374L225.486 34.0574L225.904 33.4774C226.97 31.9739 228.277 30.657 229.773 29.5798L230.312 29.1796C230.499 29.051 230.692 28.9329 230.892 28.8258C231.269 28.5996 231.64 28.356 232.023 28.1472C232.789 27.7475 233.582 27.4006 234.395 27.109C235.188 26.8244 235.998 26.5881 236.82 26.4014C237.231 26.3202 237.637 26.2738 238.043 26.21L238.652 26.1172C238.855 26.1172 239.058 26.1172 239.261 26.0766L240.462 26.0186C240.862 26.0186 241.257 26.0534 241.622 26.065C242.401 26.1008 243.176 26.1919 243.942 26.3376C246.472 26.8192 248.871 27.8343 250.978 29.3155C253.085 30.7966 254.853 32.7097 256.163 34.9274C257.053 36.439 257.706 38.0781 258.1 39.7878C258.261 40.4052 258.379 41.0331 258.454 41.667C258.488 41.9396 258.535 42.189 258.558 42.421C258.581 42.653 258.558 42.8676 258.558 43.059C258.558 43.4302 258.558 43.7144 258.593 43.9174L258.639 44.2132Z" fill="#263238"/>
<path d="M248.994 43.7028C248.757 43.7922 248.512 43.8621 248.263 43.9116L246.251 44.393C244.54 44.7874 242.191 45.321 239.523 45.901L239.372 45.9358V45.2398C239.372 42.4036 239.372 39.8458 239.407 37.9898C239.407 37.0966 239.436 36.3542 239.447 35.7916C239.444 35.5221 239.459 35.2526 239.494 34.9854C239.533 35.2523 239.55 35.5219 239.546 35.7916C239.546 36.3716 239.546 37.0966 239.587 37.9898C239.587 39.8458 239.621 42.4036 239.621 45.2398V45.7618L239.471 45.64C242.115 45.06 244.493 44.5554 246.21 44.2016L248.246 43.8013C248.492 43.7453 248.742 43.7123 248.994 43.7028Z" fill="#263238"/>
<path d="M261.365 51.0404C261.384 50.9398 261.411 50.8409 261.446 50.7446C261.498 50.5532 261.609 50.2806 261.707 49.921C262.018 48.9071 262.254 47.872 262.415 46.8238C262.965 43.3588 262.634 39.8113 261.455 36.5073C260.275 33.2033 258.284 30.2489 255.664 27.9158C254.874 27.2069 254.035 26.5556 253.152 25.967C252.845 25.7466 252.572 25.6074 252.427 25.4914C252.338 25.4417 252.255 25.3834 252.178 25.3174C252.273 25.3532 252.364 25.3979 252.45 25.4508C252.624 25.5494 252.891 25.677 253.204 25.8858C254.115 26.4437 254.977 27.0782 255.78 27.7824C258.464 30.1042 260.502 33.0813 261.695 36.4241C262.888 39.7669 263.196 43.3616 262.589 46.8586C262.413 47.9131 262.149 48.9511 261.8 49.9616C261.684 50.3212 261.562 50.588 261.493 50.7736C261.461 50.8672 261.418 50.9568 261.365 51.0404Z" fill="#263238"/>
<path d="M264.828 42.1547C264.788 42.1547 264.764 41.4355 264.619 40.2871C264.251 37.283 263.263 34.3878 261.719 31.7843C261.139 30.7867 260.704 30.2067 260.739 30.1777C260.865 30.2928 260.978 30.4212 261.076 30.5605C261.279 30.8157 261.551 31.1985 261.87 31.7205C262.692 33.0081 263.357 34.3885 263.854 35.8327C264.348 37.2781 264.667 38.7774 264.805 40.2987C264.857 40.8787 264.875 41.3543 264.875 41.6791C264.879 41.839 264.863 41.9987 264.828 42.1547Z" fill="#263238"/>
<path d="M221.189 34.4639C221.162 34.5621 221.121 34.6559 221.067 34.7423C220.98 34.9221 220.829 35.1715 220.673 35.5137C220.208 36.4669 219.811 37.4515 219.484 38.4601C218.254 42.3128 218.149 46.4367 219.181 50.347C220.214 54.2574 222.341 57.7918 225.313 60.5349C225.58 60.8017 225.812 60.9815 225.957 61.1149C226.036 61.1786 226.108 61.2505 226.171 61.3295C226.082 61.2815 225.998 61.2231 225.922 61.1555C225.765 61.0337 225.527 60.8597 225.249 60.6103C224.439 59.9136 223.69 59.1491 223.01 58.3251C220.727 55.6068 219.187 52.3436 218.539 48.8532C217.892 45.3628 218.159 41.7642 219.316 38.4079C219.658 37.3964 220.083 36.4148 220.586 35.4731C220.76 35.1367 220.922 34.8931 221.021 34.7191C221.071 34.6304 221.128 34.5452 221.189 34.4639Z" fill="#263238"/>
<path d="M216.34 42.6934C216.381 42.6934 216.288 43.4126 216.253 44.5726C216.201 46.0811 216.302 47.591 216.555 49.0792C216.815 50.566 217.223 52.0232 217.773 53.4292C218.196 54.508 218.527 55.1692 218.486 55.1692C218.376 55.0389 218.285 54.8946 218.213 54.74C218.057 54.4558 217.842 54.0324 217.633 53.4988C217.03 52.0975 216.596 50.6294 216.34 49.1256C216.085 47.6202 216.007 46.0902 216.108 44.5668C216.149 43.9868 216.212 43.5112 216.265 43.1922C216.267 43.0233 216.292 42.8555 216.34 42.6934Z" fill="#263238"/>
<path d="M255.09 47.1948C254.405 47.0556 253.854 46.9338 253.854 46.928C253.854 46.9222 254.435 47.0324 255.096 47.1716C255.757 47.3108 256.325 47.4268 256.325 47.4326C256.325 47.4384 255.78 47.334 255.09 47.1948Z" fill="#263238"/>
<path d="M255.09 47.195C255.09 47.1544 255.38 47.195 255.833 47.2356L256.204 47.2878H256.302H256.36C256.36 47.2878 256.233 47.2878 256.227 47.3748C256.218 47.4043 256.219 47.436 256.231 47.4645C256.243 47.4931 256.264 47.5167 256.291 47.5314L256.076 47.4908L255.113 47.2994L254.156 47.0964L253.948 47.05C253.979 47.0445 254.007 47.028 254.027 47.0036C254.047 46.9791 254.058 46.9483 254.058 46.9166C254.058 46.8528 253.959 46.7774 253.971 46.7948H254H254.098L254.458 46.8934C254.899 47.0152 255.166 47.108 255.16 47.1486C254.91 47.1848 254.655 47.1691 254.412 47.1022L254.046 47.0384H253.942H253.895C253.895 47.0384 253.785 46.9804 253.797 46.9108C253.808 46.8412 253.843 46.7832 253.919 46.7832H254.006L254.226 46.818C254.528 46.8644 254.852 46.9282 255.195 46.9978C255.537 47.0674 255.862 47.1428 256.152 47.2124L256.366 47.2646H256.447C256.476 47.2805 256.499 47.3058 256.512 47.3364C256.525 47.367 256.526 47.401 256.517 47.4328C256.517 47.4966 256.378 47.5372 256.372 47.5198H256.326H256.227L255.78 47.4444C255.351 47.3284 255.079 47.2356 255.09 47.195Z" fill="#263238"/>
<path d="M253.339 51.7473C252.759 51.3935 252.254 51.1035 252.26 51.0977C252.266 51.0919 252.753 51.3703 253.35 51.7241C253.948 52.0779 254.435 52.3679 254.429 52.3737C254.423 52.3795 253.936 52.1011 253.339 51.7473Z" fill="#263238"/>
<path d="M253.338 51.7477C253.338 51.7129 253.622 51.8231 254.028 52.0261L254.358 52.2001L254.446 52.2407C254.446 52.2407 254.318 52.2407 254.295 52.2813C254.274 52.3045 254.263 52.3344 254.263 52.3654C254.263 52.3963 254.274 52.4262 254.295 52.4495C254.295 52.4495 254.295 52.4495 254.266 52.4495L254.08 52.3393L253.233 51.8521L252.392 51.3475L252.207 51.2373C252.238 51.2432 252.271 51.2377 252.298 51.2218C252.326 51.2058 252.347 51.1804 252.358 51.1503C252.398 51.0923 252.311 50.9879 252.317 51.0111L252.404 51.0633L252.711 51.2721C253.088 51.5331 253.291 51.7071 253.291 51.7419C253.291 51.7767 253.007 51.6665 252.601 51.4577L252.271 51.2779L252.178 51.2257C252.178 51.2257 252.085 51.1329 252.126 51.0749C252.136 51.0435 252.158 51.0172 252.187 51.0012C252.216 50.9851 252.25 50.9803 252.282 50.9879L252.363 51.0227L252.561 51.1271C252.827 51.274 253.112 51.4364 253.413 51.6143C253.715 51.7883 253.993 51.9623 254.254 52.1247L254.44 52.2465L254.503 52.2929C254.523 52.3189 254.533 52.3504 254.533 52.3828C254.533 52.4151 254.523 52.4467 254.503 52.4727C254.474 52.5307 254.335 52.5249 254.335 52.5075H254.306L254.219 52.4553L253.9 52.2523C253.541 51.9623 253.315 51.7825 253.338 51.7477Z" fill="#263238"/>
<path d="M250.195 55.4823C249.748 54.9487 249.4 54.5195 249.4 54.5195C249.4 54.5195 249.777 54.9429 250.23 55.4707C250.682 55.9985 251.042 56.4335 251.036 56.4335C251.03 56.4335 250.647 56.0101 250.195 55.4823Z" fill="#263238"/>
<path d="M250.195 55.4825C250.229 55.4825 250.438 55.6449 250.775 55.9697L251.036 56.2365L251.105 56.3119C251.105 56.3119 250.989 56.2539 250.949 56.3119C250.921 56.3288 250.901 56.3556 250.892 56.3868C250.884 56.4181 250.887 56.4514 250.902 56.4801L250.757 56.3119L250.119 55.5753L249.487 54.8271L249.348 54.6589C249.375 54.6738 249.407 54.6785 249.438 54.6722C249.469 54.6658 249.497 54.6488 249.516 54.6241C249.574 54.5835 249.516 54.4501 249.516 54.4733L249.58 54.5545L249.8 54.8503C250.073 55.2157 250.229 55.4303 250.195 55.4825C250.16 55.5347 249.951 55.3201 249.615 54.9837L249.359 54.7111L249.29 54.6299C249.29 54.6299 249.238 54.5197 249.29 54.4675C249.315 54.4462 249.347 54.4346 249.38 54.4346C249.413 54.4346 249.444 54.4462 249.47 54.4675C249.493 54.4841 249.515 54.5036 249.533 54.5255L249.684 54.6879C249.893 54.9083 250.108 55.1577 250.334 55.4245C250.56 55.6913 250.775 55.9465 250.96 56.1843L251.099 56.3583C251.099 56.3583 251.099 56.3583 251.146 56.4221C251.192 56.4859 251.146 56.5903 251.099 56.5961C251.053 56.6019 250.925 56.5961 250.931 56.5961L250.867 56.5149L250.63 56.2191C250.322 55.7493 250.166 55.5057 250.195 55.4825Z" fill="#263238"/>
<path d="M246.019 57.9998C245.764 57.356 245.561 56.8398 245.567 56.8398C245.572 56.8398 245.787 57.356 246.042 57.9998C246.297 58.6436 246.5 59.1598 246.495 59.1598C246.489 59.1598 246.274 58.6436 246.019 57.9998Z" fill="#263238"/>
<path d="M246.019 57.9998C246.059 57.9998 246.198 58.2318 246.396 58.6436L246.552 58.98L246.593 59.0728C246.593 59.0728 246.5 58.9742 246.448 59.009C246.416 59.016 246.388 59.0349 246.37 59.0619C246.351 59.0889 246.344 59.1218 246.349 59.154L246.262 58.9568C246.14 58.6552 246.019 58.3768 245.897 58.0462L245.543 57.1356L245.462 56.9326C245.486 56.9519 245.515 56.9625 245.546 56.9625C245.576 56.9625 245.606 56.9519 245.63 56.9326C245.7 56.9326 245.694 56.7702 245.688 56.7876V56.8398L245.723 56.9326L245.839 57.2864C245.978 57.7214 246.048 57.994 246.007 58.0114C245.966 58.0288 245.827 57.7794 245.636 57.3618C245.589 57.2458 245.537 57.1356 245.485 57.0196L245.444 56.9268V56.8398C245.444 56.8398 245.444 56.7122 245.497 56.689C245.549 56.6658 245.63 56.689 245.671 56.689C245.688 56.7138 245.702 56.7412 245.711 56.7702L245.804 56.9732C245.926 57.2458 246.053 57.5532 246.181 57.878C246.309 58.2028 246.43 58.5102 246.529 58.7944L246.604 59.009C246.604 59.009 246.604 59.009 246.604 59.0844C246.604 59.1598 246.546 59.241 246.512 59.2352C246.477 59.2294 246.343 59.1714 246.355 59.1598L246.32 59.0612C246.28 58.9452 246.239 58.8292 246.193 58.7074C246.09 58.4847 246.031 58.2446 246.019 57.9998Z" fill="#263238"/>
<path d="M241.28 59.0203C241.251 58.3243 241.228 57.7617 241.233 57.7617C241.239 57.7617 241.274 58.3417 241.303 59.0145C241.332 59.6873 241.355 60.2731 241.349 60.2731C241.344 60.2731 241.28 59.7395 241.28 59.0203Z" fill="#263238"/>
<path d="M241.28 59.0211C241.32 59.0211 241.372 59.2995 241.425 59.7519L241.465 60.1231V60.2449C241.465 60.2449 241.413 60.1231 241.349 60.1405C241.285 60.1579 241.21 60.1753 241.21 60.2391V60.0187C241.21 59.6939 241.175 59.3749 241.158 59.0443C241.14 58.7137 241.158 58.3889 241.123 58.0641V57.8263C241.136 57.8558 241.158 57.8801 241.187 57.8949C241.215 57.9097 241.248 57.9141 241.28 57.9075C241.349 57.9075 241.39 57.7741 241.378 57.7915V57.9191C241.378 58.0409 241.378 58.1627 241.378 58.2903C241.403 58.5403 241.377 58.7927 241.303 59.0327C241.208 58.7988 241.161 58.5484 241.164 58.2961C241.164 58.1685 241.164 58.0467 241.164 57.9249V57.7741C241.164 57.7741 241.164 57.6465 241.262 57.6465C241.361 57.6465 241.396 57.6465 241.419 57.7335C241.422 57.7624 241.422 57.7916 241.419 57.8205V58.0409C241.419 58.3425 241.465 58.6731 241.477 59.0211C241.488 59.3691 241.506 59.6997 241.506 60.0071V60.2275C241.509 60.2545 241.509 60.2817 241.506 60.3087C241.506 60.3725 241.396 60.4363 241.361 60.4189C241.326 60.4015 241.227 60.3029 241.245 60.2971V60.1463C241.245 60.0245 241.245 59.9027 241.245 59.7751C241.206 59.5239 241.218 59.2676 241.28 59.0211Z" fill="#263238"/>
<path d="M236.408 58.4349C236.599 57.7679 236.762 57.2285 236.767 57.2285C236.773 57.2285 236.622 57.7737 236.431 58.4407C236.24 59.1077 236.071 59.6471 236.066 59.6471C236.06 59.6471 236.211 59.1019 236.408 58.4349Z" fill="#263238"/>
<path d="M236.408 58.4355C236.449 58.4355 236.408 58.7255 236.304 59.1721C236.275 59.2939 236.252 59.4157 236.223 59.5375V59.6361V59.6651C236.223 59.6651 236.223 59.5317 236.147 59.5259C236.118 59.5153 236.087 59.5147 236.057 59.5242C236.028 59.5336 236.002 59.5526 235.985 59.5781L236.043 59.3693C236.13 59.0561 236.217 58.7487 236.31 58.4297C236.403 58.1107 236.495 57.8033 236.588 57.4901L236.652 57.2813C236.654 57.3125 236.667 57.342 236.688 57.3652C236.709 57.3883 236.737 57.4037 236.768 57.4089C236.838 57.4089 236.919 57.3161 236.901 57.3277L236.867 57.4263L236.739 57.7743C236.582 58.2035 236.472 58.4645 236.432 58.4529C236.391 58.4413 236.432 58.1571 236.536 57.7105L236.629 57.3509V57.2465C236.629 57.2465 236.693 57.1363 236.762 57.1595C236.832 57.1827 236.884 57.2117 236.884 57.2871C236.887 57.316 236.887 57.3451 236.884 57.3741L236.832 57.5945C236.762 57.8845 236.675 58.2093 236.577 58.5399C236.478 58.8705 236.379 59.1953 236.287 59.4795L236.211 59.6883C236.205 59.7147 236.196 59.7402 236.182 59.7637C236.166 59.7923 236.14 59.8141 236.109 59.8248C236.078 59.8355 236.044 59.8344 236.014 59.8217C235.95 59.8217 235.921 59.6767 235.939 59.6709V59.6303L235.968 59.5259L236.089 59.1721C236.252 58.6849 236.368 58.4239 236.408 58.4355Z" fill="#263238"/>
<path d="M232 56.3119C232.4 55.7319 232.73 55.2853 232.736 55.2911C232.742 55.2969 232.423 55.7609 232.017 56.3293C231.611 56.8977 231.286 57.3501 231.28 57.3501C231.275 57.3501 231.611 56.8803 232 56.3119Z" fill="#263238"/>
<path d="M232 56.3125C232.035 56.3125 231.901 56.5909 231.663 56.9795C231.594 57.0839 231.53 57.1883 231.466 57.2927L231.414 57.3797C231.414 57.3797 231.449 57.2463 231.414 57.2231C231.39 57.2022 231.359 57.1908 231.327 57.1908C231.295 57.1908 231.264 57.2022 231.24 57.2231L231.368 57.0433L231.948 56.2371C232.145 55.9703 232.33 55.7093 232.528 55.4425L232.655 55.2685C232.647 55.2993 232.65 55.332 232.664 55.3607C232.678 55.3895 232.701 55.4123 232.731 55.4251C232.789 55.4657 232.899 55.3903 232.876 55.3961L232.812 55.4715L232.58 55.7615C232.29 56.1153 232.098 56.3415 232.064 56.3009C232.029 56.2603 232.162 56.0225 232.406 55.6397C232.475 55.5295 232.539 55.4251 232.609 55.3265L232.667 55.2395C232.667 55.2395 232.765 55.1583 232.823 55.1989C232.853 55.2139 232.877 55.2391 232.889 55.27C232.902 55.3009 232.903 55.3353 232.893 55.3671C232.858 55.4367 232.864 55.4135 232.852 55.4425L232.731 55.6339C232.568 55.8833 232.377 56.1559 232.151 56.4401C231.924 56.7243 231.75 57.0201 231.571 57.2347L231.431 57.4087L231.379 57.4725C231.354 57.4937 231.322 57.5054 231.289 57.5054C231.256 57.5054 231.224 57.4937 231.199 57.4725C231.141 57.4435 231.159 57.3043 231.199 57.3043L231.257 57.2173L231.489 56.9215C231.785 56.4981 232 56.2893 232 56.3125Z" fill="#263238"/>
<path d="M228.549 52.8783L229.576 52.1475C229.576 52.1475 229.129 52.4897 228.567 52.8957C228.004 53.3017 227.54 53.6265 227.534 53.6207L228.549 52.8783Z" fill="#263238"/>
<path d="M228.549 52.8791C228.549 52.9139 228.369 53.1053 228.016 53.3953L227.726 53.6331L227.65 53.6969C227.65 53.6969 227.72 53.5809 227.65 53.5345C227.634 53.5072 227.609 53.4863 227.58 53.4757C227.55 53.4651 227.517 53.4654 227.488 53.4765L227.662 53.3489L228.451 52.7689L229.251 52.1889L229.431 52.0671C229.411 52.0918 229.4 52.1225 229.4 52.1541C229.4 52.1857 229.411 52.2164 229.431 52.2411C229.471 52.3049 229.605 52.2411 229.582 52.2411L229.495 52.2933L229.181 52.4963C228.799 52.7341 228.543 52.8733 228.52 52.8385C228.497 52.8037 228.7 52.6065 229.06 52.3223L229.355 52.0903L229.437 52.0265C229.437 52.0265 229.553 51.9801 229.593 52.0265C229.634 52.0729 229.657 52.1483 229.593 52.2005L229.529 52.2643L229.355 52.4035C229.112 52.5891 228.851 52.7863 228.567 52.9835C228.282 53.1807 227.987 53.3779 227.76 53.5635L227.575 53.6853L227.505 53.7259C227.447 53.7607 227.337 53.7259 227.337 53.6679C227.337 53.6099 227.337 53.4939 227.366 53.5055L227.453 53.4417L227.76 53.2387C228.277 52.9777 228.52 52.8443 228.549 52.8791Z" fill="#263238"/>
<path d="M226.385 48.5053C227.052 48.3023 227.592 48.1457 227.592 48.1515C227.592 48.1573 227.058 48.3255 226.391 48.5285C225.724 48.7315 225.185 48.8881 225.185 48.8823C225.185 48.8765 225.718 48.7199 226.385 48.5053Z" fill="#263238"/>
<path d="M226.386 48.5056C226.386 48.5462 226.137 48.6622 225.713 48.8246L225.365 48.9522L225.267 48.987C225.267 48.987 225.371 48.9058 225.342 48.842C225.313 48.7782 225.272 48.7202 225.209 48.7376C225.145 48.755 225.209 48.7376 225.238 48.7376L225.441 48.668L226.38 48.378L227.314 48.0996L227.523 48.0416C227.497 48.0603 227.479 48.0874 227.471 48.1183C227.464 48.1491 227.468 48.1816 227.482 48.2098C227.482 48.2794 227.639 48.291 227.621 48.2794H227.587H227.488L227.128 48.3664C226.682 48.4708 226.403 48.5172 226.392 48.4766C226.38 48.436 226.635 48.32 227.065 48.1634C227.186 48.1228 227.302 48.0764 227.424 48.0416L227.523 48.0068H227.563C227.563 48.0068 227.691 48.0068 227.714 48.0706C227.728 48.1004 227.731 48.1343 227.723 48.1662C227.714 48.198 227.695 48.2258 227.668 48.2446L227.587 48.2794L227.378 48.3548C227.094 48.4534 226.798 48.552 226.444 48.6564C226.09 48.7608 225.789 48.8478 225.499 48.9232L225.284 48.9812H225.203C225.139 48.9812 225.052 48.9058 225.064 48.871C225.075 48.8362 225.139 48.7086 225.145 48.726H225.174L225.272 48.697L225.638 48.6042C226.09 48.5114 226.374 48.465 226.386 48.5056Z" fill="#263238"/>
<path d="M225.76 43.6686C226.456 43.6686 227.018 43.7208 227.018 43.7266C227.018 43.7324 226.438 43.7266 225.76 43.6918L224.501 43.6338C224.501 43.6338 225.04 43.6396 225.76 43.6686Z" fill="#263238"/>
<path d="M225.759 43.6683C225.52 43.7443 225.267 43.7719 225.017 43.7495H224.512C224.512 43.7495 224.64 43.7089 224.628 43.6451C224.636 43.6136 224.631 43.5805 224.615 43.5525C224.598 43.5245 224.572 43.5037 224.541 43.4943C224.541 43.4943 224.541 43.4943 224.57 43.4943H224.785H225.765L226.745 43.5349H226.96C226.93 43.5454 226.904 43.5665 226.889 43.5941C226.873 43.6218 226.867 43.6543 226.873 43.6857C226.873 43.7553 226.995 43.8075 226.977 43.7901H226.844L226.473 43.7495C226.223 43.752 225.975 43.7067 225.742 43.6161C225.982 43.5406 226.234 43.515 226.484 43.5407H227.012C227.012 43.5407 227.134 43.5813 227.128 43.6509C227.132 43.6836 227.125 43.7168 227.107 43.7444C227.089 43.772 227.061 43.7923 227.03 43.8017C227.001 43.8068 226.971 43.8068 226.943 43.8017H226.716H225.736C225.388 43.8017 225.058 43.8017 224.756 43.7495H224.536H224.454C224.391 43.7495 224.333 43.6335 224.356 43.5987C224.379 43.5639 224.478 43.4711 224.483 43.4885H224.634H225.005C225.267 43.4943 225.524 43.5556 225.759 43.6683Z" fill="#263238"/>
<path d="M226.739 38.8599C227.389 39.1093 227.899 39.3181 227.899 39.3239C227.899 39.3297 227.366 39.1325 226.739 38.8831C226.113 38.6337 225.579 38.4307 225.579 38.4249C225.579 38.4191 226.09 38.6395 226.739 38.8599Z" fill="#263238"/>
<path d="M226.74 38.8603C226.74 38.9009 226.45 38.8603 226.015 38.7037L225.655 38.5877H225.562C225.562 38.5877 225.696 38.5877 225.702 38.5181C225.717 38.4916 225.723 38.4602 225.716 38.43C225.71 38.3999 225.692 38.3733 225.667 38.3557C225.667 38.3557 225.667 38.3557 225.696 38.3557L225.899 38.4311L226.815 38.7733L227.726 39.1329L227.929 39.2083C227.898 39.2091 227.869 39.2206 227.845 39.2407C227.822 39.2607 227.806 39.2882 227.801 39.3185C227.772 39.3881 227.877 39.4751 227.865 39.4519L227.772 39.4113L227.436 39.2547C227.024 39.0633 226.769 38.9299 226.786 38.8893C227.036 38.8991 227.282 38.9562 227.511 39.0575L227.871 39.1793L227.964 39.2141H227.993C227.993 39.2141 228.097 39.2895 228.068 39.3591C228.061 39.3902 228.043 39.4179 228.018 39.4371C227.992 39.4562 227.961 39.4656 227.929 39.4635H227.842L227.627 39.3939L226.705 39.0575L225.794 38.6921L225.591 38.5993L225.522 38.5645C225.495 38.5457 225.475 38.5178 225.467 38.486C225.458 38.4541 225.461 38.4203 225.475 38.3905C225.475 38.3267 225.626 38.3093 225.632 38.3267L225.731 38.3673L226.073 38.5123C226.508 38.7095 226.78 38.8603 226.74 38.8603Z" fill="#263238"/>
<path d="M229.216 34.6843C229.749 35.1309 230.179 35.4963 230.173 35.5021C230.167 35.5079 229.732 35.1483 229.204 34.7017C228.676 34.2551 228.241 33.8897 228.247 33.8839C228.253 33.8781 228.682 34.2203 229.216 34.6843Z" fill="#263238"/>
<path d="M229.216 34.6836C229.216 34.7126 228.949 34.5618 228.584 34.2892C228.479 34.2196 228.381 34.1442 228.282 34.0688L228.201 34.0108C228.201 34.0108 228.329 34.0514 228.358 34.0108C228.378 33.9876 228.389 33.9577 228.389 33.9267C228.389 33.8958 228.378 33.8659 228.358 33.8426L228.526 33.9818L229.28 34.6024L230.028 35.2404L230.19 35.3796C230.161 35.3685 230.128 35.3682 230.099 35.3789C230.069 35.3895 230.044 35.4103 230.028 35.4376C229.982 35.4898 230.028 35.6116 230.028 35.5884L229.958 35.5188L229.686 35.2636C229.361 34.9446 229.17 34.7358 229.193 34.6836C229.216 34.6314 229.46 34.7996 229.825 35.078L230.121 35.3042L230.202 35.3738C230.202 35.3738 230.277 35.4782 230.231 35.5362C230.213 35.563 230.187 35.5828 230.156 35.5923C230.126 35.6018 230.093 35.6004 230.063 35.5884C230.035 35.5779 230.009 35.5622 229.987 35.542L229.808 35.4086C229.57 35.223 229.315 35.0142 229.048 34.788C228.781 34.5618 228.532 34.3472 228.305 34.1442L228.143 33.9934L228.085 33.9354C228.065 33.9098 228.054 33.8781 228.054 33.8455C228.054 33.8129 228.065 33.7812 228.085 33.7556C228.12 33.7034 228.259 33.7556 228.253 33.7556L228.329 33.8252L228.607 34.0746C229.054 34.44 229.245 34.6488 229.216 34.6836Z" fill="#263238"/>
<path d="M232.928 31.5174C233.287 32.0974 233.572 32.5962 233.566 32.602C233.56 32.6078 233.264 32.1264 232.905 31.529C232.545 30.9316 232.261 30.4502 232.267 30.4444C232.272 30.4386 232.58 30.92 232.928 31.5174Z" fill="#263238"/>
<path d="M232.928 31.5176C232.887 31.5176 232.713 31.3146 232.452 30.9376L232.237 30.6302L232.179 30.549C232.179 30.549 232.284 30.6302 232.336 30.5896C232.388 30.549 232.44 30.4852 232.406 30.433L232.522 30.6186L233.032 31.448C233.206 31.738 233.368 32.028 233.531 32.2948L233.647 32.4804C233.624 32.46 233.594 32.4488 233.563 32.4488C233.532 32.4488 233.502 32.46 233.479 32.4804C233.415 32.5152 233.444 32.6486 233.444 32.6254L233.397 32.5384L233.223 32.2078C233.015 31.8018 232.899 31.5408 232.939 31.5234C232.98 31.506 233.148 31.7206 233.409 32.1034L233.612 32.4166L233.67 32.5094C233.67 32.5094 233.705 32.6312 233.67 32.666C233.645 32.6872 233.613 32.6989 233.58 32.6989C233.547 32.6989 233.515 32.6872 233.49 32.666C233.47 32.6454 233.452 32.622 233.438 32.5964L233.316 32.4108C233.146 32.1556 232.972 31.8772 232.794 31.5756C232.614 31.2798 232.446 30.9956 232.301 30.7288L232.191 30.5316C232.178 30.509 232.167 30.4858 232.156 30.462C232.148 30.4302 232.15 30.3966 232.163 30.3662C232.175 30.3358 232.198 30.3104 232.226 30.2938C232.278 30.259 232.4 30.3286 232.388 30.346L232.44 30.4388L232.62 30.7636C232.846 31.2334 232.962 31.4944 232.928 31.5176Z" fill="#263238"/>
<path d="M237.457 29.7189C237.602 30.3975 237.718 30.9485 237.713 30.9543C237.707 30.9601 237.579 30.4033 237.434 29.7247C237.289 29.0461 237.173 28.4893 237.179 28.4893C237.185 28.4893 237.312 29.0403 237.457 29.7189Z" fill="#263238"/>
<path d="M237.458 29.7196C237.418 29.7196 237.319 29.4586 237.197 29.0236L237.093 28.664V28.5654C237.093 28.5654 237.168 28.6756 237.226 28.6524C237.284 28.6292 237.354 28.5886 237.348 28.5248L237.394 28.7336C237.47 29.0526 237.539 29.3658 237.609 29.6906C237.679 30.0154 237.742 30.3344 237.812 30.6476L237.853 30.8622C237.837 30.835 237.811 30.8146 237.781 30.8049C237.751 30.7953 237.719 30.7971 237.69 30.81C237.615 30.81 237.603 30.955 237.609 30.9376V30.9028V30.8042L237.551 30.4388C237.488 30.1966 237.472 29.9445 237.505 29.6964C237.545 29.6964 237.644 29.9516 237.76 30.3924C237.795 30.52 237.824 30.636 237.858 30.7578V30.8622V30.9028C237.858 30.9028 237.858 31.0304 237.783 31.0478C237.708 31.0652 237.644 31.0478 237.615 30.9898C237.586 30.9318 237.615 30.9318 237.615 30.9028L237.557 30.6882C237.481 30.3982 237.406 30.0734 237.331 29.7312C237.255 29.389 237.197 29.0642 237.139 28.7684L237.104 28.548C237.104 28.548 237.104 28.548 237.104 28.4726C237.104 28.3972 237.191 28.3276 237.226 28.3392C237.261 28.3508 237.377 28.4262 237.365 28.432V28.4784V28.5828L237.435 28.9482C237.495 29.2011 237.503 29.4635 237.458 29.7196Z" fill="#263238"/>
<path d="M242.33 29.493C242.249 30.1832 242.173 30.7458 242.167 30.7458C242.162 30.7458 242.225 30.1658 242.307 29.493C242.388 28.8202 242.463 28.2402 242.469 28.2402C242.475 28.2402 242.44 28.8028 242.33 29.493Z" fill="#263238"/>
<path d="M242.33 29.4928C242.283 29.2475 242.283 28.9957 242.33 28.7504V28.3792V28.2458C242.33 28.2458 242.359 28.3734 242.428 28.3676C242.458 28.3755 242.49 28.3722 242.518 28.3584C242.546 28.3445 242.567 28.321 242.579 28.2922V28.5068C242.544 28.8316 242.504 29.1506 242.469 29.4812C242.434 29.8118 242.388 30.1308 242.347 30.4498L242.318 30.6702C242.312 30.6395 242.296 30.6119 242.271 30.5927C242.246 30.5734 242.216 30.5639 242.185 30.5658C242.109 30.5658 242.051 30.676 242.069 30.6644V30.6296V30.531C242.069 30.415 242.115 30.2932 242.132 30.1656C242.219 29.719 242.289 29.4406 242.33 29.4464C242.38 29.6933 242.38 29.9477 242.33 30.1946C242.33 30.3222 242.33 30.444 242.33 30.5658V30.6702V30.7398C242.33 30.7398 242.283 30.8558 242.208 30.85C242.132 30.8442 242.08 30.8152 242.069 30.7398C242.065 30.7109 242.065 30.6817 242.069 30.6528V30.4266C242.069 30.125 242.127 29.7944 242.167 29.4522C242.208 29.11 242.254 28.7736 242.301 28.4778L242.341 28.2574C242.341 28.2574 242.341 28.2574 242.341 28.182C242.341 28.1066 242.469 28.0718 242.498 28.095C242.527 28.1182 242.614 28.2226 242.602 28.2284V28.2748V28.3792C242.602 28.501 242.567 28.6228 242.544 28.7504C242.44 29.226 242.37 29.4986 242.33 29.4928Z" fill="#263238"/>
<path d="M247.016 30.8621C246.714 31.4885 246.465 31.9931 246.436 31.9931C246.407 31.9931 246.668 31.4769 246.969 30.8331C247.271 30.1893 247.52 29.7021 247.549 29.7021C247.578 29.7021 247.317 30.2357 247.016 30.8621Z" fill="#263238"/>
<path d="M247.016 30.8617C247.045 30.6122 247.119 30.3703 247.236 30.1483C247.283 30.0323 247.335 29.9163 247.376 29.8061L247.416 29.7133C247.416 29.7133 247.416 29.8409 247.469 29.8583C247.491 29.8799 247.521 29.8919 247.553 29.8919C247.584 29.8919 247.614 29.8799 247.637 29.8583L247.544 30.0555C247.405 30.3455 247.265 30.6355 247.126 30.9371L246.691 31.8187L246.599 32.0159C246.6 31.985 246.591 31.9546 246.573 31.9294C246.555 31.9042 246.529 31.8856 246.5 31.8767C246.436 31.8419 246.337 31.9405 246.361 31.9289L246.413 31.8419L246.593 31.5171C246.819 31.1227 246.975 30.8849 247.01 30.9023C247.045 30.9197 246.958 31.1923 246.784 31.6157L246.633 31.9579L246.593 32.0507V32.0797C246.593 32.0797 246.511 32.1783 246.448 32.1435C246.384 32.1087 246.332 32.0681 246.349 31.9985L246.378 31.9115L246.465 31.7085C246.587 31.4301 246.726 31.1285 246.877 30.8153C247.028 30.5021 247.173 30.2353 247.318 29.9337L247.422 29.7423C247.433 29.7176 247.447 29.6942 247.463 29.6727C247.497 29.6147 247.619 29.6089 247.642 29.6727C247.666 29.7365 247.706 29.8293 247.689 29.8293L247.642 29.9221L247.469 30.2527C247.213 30.6413 247.08 30.8791 247.016 30.8617Z" fill="#263238"/>
<path d="M251.001 33.6803C250.508 34.1733 250.107 34.5677 250.102 34.5619C250.096 34.5561 250.49 34.1559 250.983 33.6629C251.476 33.1699 251.871 32.7697 251.876 32.7755C251.882 32.7813 251.488 33.1815 251.001 33.6803Z" fill="#263238"/>
<path d="M251.001 33.681C250.972 33.6462 251.14 33.42 251.442 33.101L251.685 32.8226L251.755 32.7472C251.755 32.7472 251.703 32.8632 251.755 32.9038C251.774 32.9286 251.802 32.9452 251.833 32.9506C251.864 32.9559 251.896 32.9496 251.923 32.9328L251.772 33.0894C251.546 33.3214 251.326 33.5534 251.088 33.7912L250.398 34.4814L250.241 34.6322C250.254 34.6031 250.256 34.5705 250.247 34.54C250.239 34.5094 250.22 34.4826 250.195 34.464C250.148 34.4118 250.021 34.464 250.044 34.464L250.119 34.3944L250.398 34.1508C250.74 33.8492 250.978 33.6694 250.978 33.7042C250.978 33.739 250.833 33.9594 250.531 34.2842C250.444 34.377 250.363 34.4698 250.276 34.5568L250.206 34.6322C250.206 34.6322 250.096 34.696 250.044 34.6322C250.018 34.6126 249.999 34.5844 249.992 34.5526C249.984 34.5208 249.989 34.4874 250.003 34.4582L250.055 34.3886L250.206 34.2262C250.409 34 250.641 33.7622 250.885 33.5128C251.128 33.2634 251.366 33.0372 251.592 32.8284L251.755 32.6776C251.772 32.6576 251.791 32.6401 251.813 32.6254C251.839 32.6061 251.87 32.5957 251.903 32.5957C251.935 32.5957 251.967 32.6061 251.993 32.6254C252.045 32.666 251.993 32.7994 251.993 32.7936L251.917 32.869L251.645 33.1242C251.256 33.536 251.03 33.71 251.001 33.681Z" fill="#263238"/>
<path d="M253.855 37.6304C253.228 37.9436 252.724 38.2104 252.695 38.2104C252.666 38.2104 253.193 37.9494 253.82 37.6304C254.446 37.3114 254.951 37.0504 254.951 37.0794C254.951 37.1084 254.475 37.323 253.855 37.6304Z" fill="#263238"/>
<path d="M253.854 37.6307C253.854 37.5959 254.069 37.4393 254.463 37.2073L254.788 37.0217L254.875 36.9695C254.875 36.9695 254.788 37.0681 254.829 37.1203C254.839 37.1504 254.86 37.1758 254.888 37.1918C254.916 37.2077 254.948 37.2132 254.979 37.2073C254.979 37.2073 254.979 37.2073 254.95 37.2073L254.759 37.3059L253.883 37.7467L253.007 38.1759L252.81 38.2687C252.83 38.244 252.841 38.2133 252.841 38.1817C252.841 38.1501 252.83 38.1194 252.81 38.0947C252.81 38.0309 252.648 38.0483 252.665 38.0541H252.7L252.787 38.0135L253.135 37.8685C253.354 37.7473 253.594 37.6686 253.843 37.6365C253.843 37.6771 253.622 37.8337 253.228 38.0599L252.897 38.2397L252.804 38.2861H252.775C252.775 38.2861 252.648 38.2861 252.619 38.2455C252.596 38.2209 252.584 38.1889 252.584 38.1556C252.584 38.1223 252.596 38.0903 252.619 38.0657C252.643 38.0485 252.668 38.033 252.694 38.0193L252.891 37.9091C253.158 37.766 253.448 37.6152 253.761 37.4567C254.075 37.3059 254.376 37.1609 254.649 37.0391L254.852 36.9463H254.927C254.991 36.9463 255.09 36.9927 255.084 37.0275C255.078 37.0623 255.037 37.2015 255.026 37.1899L254.933 37.2363L254.591 37.3929C254.138 37.5785 253.872 37.7003 253.854 37.6307Z" fill="#263238"/>
<path d="M255.269 42.2993C254.579 42.3863 254.022 42.4559 254.022 42.4501C254.022 42.4443 254.602 42.3631 255.269 42.2761C255.936 42.1891 256.516 42.1137 256.516 42.1195C256.516 42.1253 255.96 42.2065 255.269 42.2993Z" fill="#263238"/>
<path d="M255.27 42.2997C255.27 42.2533 255.543 42.1837 255.989 42.0909L256.355 42.0213H256.453C256.453 42.0213 256.337 42.0851 256.36 42.1489C256.384 42.2127 256.407 42.2823 256.471 42.2765H256.25L255.282 42.4099L254.313 42.5317H254.093C254.122 42.5178 254.145 42.4933 254.157 42.4631C254.168 42.433 254.168 42.3994 254.156 42.3693C254.156 42.2997 254.017 42.2707 254.035 42.2823H254.168H254.539C254.992 42.2533 255.276 42.2533 255.282 42.2823C255.287 42.3113 255.015 42.3983 254.562 42.4795L254.197 42.5433H254.093H254.04C254.04 42.5433 253.913 42.5433 253.907 42.4563C253.901 42.3693 253.907 42.3229 253.977 42.2939H254.064L254.284 42.2591C254.58 42.2069 254.91 42.1605 255.253 42.1141C255.595 42.0677 255.931 42.0271 256.233 42.0039H256.453H256.534C256.598 42.0039 256.668 42.0967 256.656 42.1315C256.645 42.1663 256.558 42.2765 256.546 42.2649H256.5H256.395L256.024 42.2997C255.775 42.35 255.519 42.35 255.27 42.2997Z" fill="#263238"/>
<path d="M266.104 40.0195C265.834 40.8367 265.484 41.6254 265.06 42.3743V42.4323L264.961 42.6237L264.845 42.4439C264.351 41.7659 263.923 41.0414 263.569 40.2805C264.133 40.9035 264.632 41.5816 265.06 42.3047H264.84L264.869 42.2525C265.208 41.4704 265.622 40.7227 266.104 40.0195Z" fill="#263238"/>
</svg>
