<svg width="40" height="40" viewBox="0 0 40 40" fill="none" xmlns="http://www.w3.org/2000/svg">
<path d="M6.25415 15.2504C7.33997 10.6214 10.9544 7.00696 15.5834 5.92113C18.9264 5.13696 22.4056 5.13697 25.7486 5.92114C30.3777 7.00696 33.9921 10.6214 35.0779 15.2504C35.8621 18.5934 35.8621 22.0726 35.0779 25.4156C33.9921 30.0447 30.3777 33.6591 25.7486 34.7449C22.4056 35.5291 18.9264 35.5291 15.5834 34.7449C10.9544 33.6591 7.33997 30.0447 6.25414 25.4156C5.46997 22.0726 5.46997 18.5934 6.25415 15.2504Z" fill="#EFF2FE" stroke="#5063F4" stroke-width="1.35"/>
<path d="M28.3998 16.8856C28.6928 17.0484 28.9597 17.2469 29.2006 17.4813C29.4415 17.7157 29.6433 17.9761 29.806 18.2625C29.9688 18.549 30.099 18.8517 30.1967 19.1707C30.2943 19.4897 30.3399 19.8217 30.3334 20.1668H29.0834C29.0834 19.8282 29.0183 19.506 28.8881 19.2C28.7579 18.894 28.5789 18.6304 28.351 18.409C28.1232 18.1877 27.8562 18.0086 27.5503 17.8719C27.2443 17.7352 26.922 17.6668 26.5835 17.6668C26.2384 17.6668 25.9162 17.7319 25.6167 17.8621C25.3173 17.9924 25.0536 18.1714 24.8257 18.3992C24.5979 18.6271 24.4188 18.894 24.2886 19.2C24.1584 19.506 24.0901 19.8282 24.0836 20.1668C24.0836 20.7592 23.9501 21.3223 23.6832 21.8562C23.4163 22.39 23.0419 22.8327 22.5602 23.1842C22.9833 23.3991 23.3642 23.6628 23.7027 23.9752C24.0412 24.2877 24.3342 24.6393 24.5816 25.0299C24.829 25.4205 25.0145 25.8372 25.1382 26.2799C25.2619 26.7226 25.327 27.1848 25.3335 27.6665H24.0836C24.0836 27.1522 23.9859 26.6672 23.7906 26.2115C23.5953 25.7558 23.3251 25.3587 22.9801 25.0201C22.635 24.6816 22.2379 24.4147 21.7887 24.2194C21.3395 24.0241 20.8545 23.9232 20.3337 23.9166C19.8194 23.9166 19.3344 24.0143 18.8786 24.2096C18.4229 24.4049 18.0258 24.6751 17.6873 25.0201C17.3487 25.3652 17.0818 25.7623 16.8865 26.2115C16.6912 26.6607 16.5903 27.1457 16.5838 27.6665H15.3338C15.3338 27.1913 15.3989 26.7323 15.5291 26.2896C15.6593 25.8469 15.8449 25.4303 16.0858 25.0397C16.3266 24.649 16.6163 24.2975 16.9549 23.985C17.2934 23.6725 17.6775 23.4056 18.1072 23.1842C17.6319 22.8327 17.2609 22.39 16.9939 21.8562C16.727 21.3223 16.5903 20.7592 16.5838 20.1668C16.5838 19.8282 16.5187 19.506 16.3885 19.2C16.2583 18.894 16.0793 18.6304 15.8514 18.409C15.6235 18.1877 15.3566 18.0086 15.0506 17.8719C14.7447 17.7352 14.4224 17.6668 14.0839 17.6668C13.7388 17.6668 13.4166 17.7319 13.1171 17.8621C12.8176 17.9924 12.554 18.1714 12.3261 18.3992C12.0983 18.6271 11.9192 18.894 11.789 19.2C11.6588 19.506 11.5905 19.8282 11.5839 20.1668H10.334C10.334 19.8282 10.3796 19.4995 10.4707 19.1805C10.5618 18.8615 10.6888 18.5587 10.8515 18.2723C11.0143 17.9858 11.2194 17.7254 11.4668 17.4911C11.7142 17.2567 11.9811 17.0549 12.2675 16.8856C12.0527 16.6578 11.8867 16.3941 11.7695 16.0946C11.6523 15.7952 11.5905 15.4859 11.5839 15.1669C11.5839 14.8284 11.649 14.5061 11.7793 14.2001C11.9095 13.8942 12.0885 13.6305 12.3163 13.4092C12.5442 13.1878 12.8079 13.0088 13.1073 12.8721C13.4068 12.7353 13.7323 12.667 14.0839 12.667C14.4224 12.667 14.7447 12.7321 15.0506 12.8623C15.3566 12.9925 15.6203 13.1715 15.8416 13.3994C16.063 13.6272 16.242 13.8942 16.3787 14.2001C16.5154 14.5061 16.5838 14.8284 16.5838 15.1669C16.5838 15.4859 16.5252 15.7952 16.408 16.0946C16.2908 16.3941 16.1216 16.6578 15.9002 16.8856C16.4341 17.1786 16.8702 17.5822 17.2088 18.0965C17.5603 17.5757 18.0095 17.1656 18.5564 16.8661C19.1032 16.5666 19.6957 16.4169 20.3337 16.4169C20.9652 16.4169 21.5543 16.5666 22.1012 16.8661C22.6481 17.1656 23.1005 17.5757 23.4586 18.0965C23.7971 17.5822 24.2333 17.1786 24.7671 16.8856C24.5523 16.6578 24.3863 16.3941 24.2691 16.0946C24.1519 15.7952 24.0901 15.4859 24.0836 15.1669C24.0836 14.8284 24.1487 14.5061 24.2789 14.2001C24.4091 13.8942 24.5881 13.6305 24.816 13.4092C25.0438 13.1878 25.3075 13.0088 25.607 12.8721C25.9064 12.7353 26.2319 12.667 26.5835 12.667C26.922 12.667 27.2443 12.7321 27.5503 12.8623C27.8562 12.9925 28.1199 13.1715 28.3412 13.3994C28.5626 13.6272 28.7416 13.8942 28.8783 14.2001C29.0151 14.5061 29.0834 14.8284 29.0834 15.1669C29.0834 15.4859 29.0248 15.7952 28.9076 16.0946C28.7905 16.3941 28.6212 16.6578 28.3998 16.8856ZM12.8339 15.1669C12.8339 15.3427 12.8665 15.5054 12.9316 15.6552C12.9967 15.8049 13.0846 15.9351 13.1952 16.0458C13.3059 16.1565 13.4394 16.2476 13.5956 16.3192C13.7518 16.3908 13.9146 16.4234 14.0839 16.4169C14.2596 16.4169 14.4224 16.3843 14.5721 16.3192C14.7219 16.2541 14.8521 16.1662 14.9627 16.0556C15.0734 15.9449 15.1646 15.8114 15.2362 15.6552C15.3078 15.4989 15.3403 15.3362 15.3338 15.1669C15.3338 14.9911 15.3013 14.8284 15.2362 14.6786C15.1711 14.5289 15.0832 14.3987 14.9725 14.288C14.8618 14.1774 14.7284 14.0862 14.5721 14.0146C14.4159 13.943 14.2531 13.9104 14.0839 13.917C13.9081 13.917 13.7453 13.9495 13.5956 14.0146C13.4459 14.0797 13.3157 14.1676 13.205 14.2783C13.0943 14.3889 13.0032 14.5224 12.9316 14.6786C12.8599 14.8349 12.8274 14.9977 12.8339 15.1669ZM20.3337 22.6667C20.6722 22.6667 20.9945 22.6016 21.3004 22.4714C21.6064 22.3412 21.8701 22.1621 22.0914 21.9343C22.3128 21.7064 22.4918 21.4428 22.6285 21.1433C22.7652 20.8438 22.8336 20.5183 22.8336 20.1668C22.8336 19.8282 22.7685 19.506 22.6383 19.2C22.5081 18.894 22.3291 18.6304 22.1012 18.409C21.8733 18.1877 21.6064 18.0086 21.3004 17.8719C20.9945 17.7352 20.6722 17.6668 20.3337 17.6668C19.9886 17.6668 19.6664 17.7319 19.3669 17.8621C19.0674 17.9924 18.8038 18.1714 18.5759 18.3992C18.3481 18.6271 18.169 18.894 18.0388 19.2C17.9086 19.506 17.8403 19.8282 17.8338 20.1668C17.8338 20.5118 17.8989 20.8341 18.0291 21.1335C18.1593 21.433 18.3383 21.6967 18.5662 21.9245C18.794 22.1524 19.0577 22.3314 19.3571 22.4616C19.6566 22.5918 19.9821 22.6602 20.3337 22.6667ZM25.3335 15.1669C25.3335 15.3427 25.3661 15.5054 25.4312 15.6552C25.4963 15.8049 25.5842 15.9351 25.6948 16.0458C25.8055 16.1565 25.939 16.2476 26.0952 16.3192C26.2515 16.3908 26.4142 16.4234 26.5835 16.4169C26.7593 16.4169 26.922 16.3843 27.0718 16.3192C27.2215 16.2541 27.3517 16.1662 27.4624 16.0556C27.573 15.9449 27.6642 15.8114 27.7358 15.6552C27.8074 15.4989 27.84 15.3362 27.8335 15.1669C27.8335 14.9911 27.8009 14.8284 27.7358 14.6786C27.6707 14.5289 27.5828 14.3987 27.4721 14.288C27.3615 14.1774 27.228 14.0862 27.0718 14.0146C26.9155 13.943 26.7528 13.9104 26.5835 13.917C26.4077 13.917 26.245 13.9495 26.0952 14.0146C25.9455 14.0797 25.8153 14.1676 25.7046 14.2783C25.5939 14.3889 25.5028 14.5224 25.4312 14.6786C25.3596 14.8349 25.327 14.9977 25.3335 15.1669Z" fill="#5063F4"/>
</svg>
