<svg width="228" height="29" viewBox="0 0 228 29" fill="none" xmlns="http://www.w3.org/2000/svg">
<g id="YE Logo">
<path id="Vector" d="M0 2.13867L7.79067 15.0845L10.3205 11.0856L4.9447 2.13867H0Z" fill="#44E0AA"/>
<path id="Vector_2" d="M12.448 22.2766V15.142L20.2674 2.13867H15.6965L10.3206 11.0856L7.79077 15.0845V22.2766H12.448Z" fill="white"/>
<path id="Vector_3" d="M48.0386 0.958984V22.3051H53.1558V0.958984H48.0386Z" fill="white"/>
<path id="Vector_4" d="M37.415 6.7124C32.5566 6.7124 29.3081 9.90569 29.3081 14.7388C29.3081 19.4855 32.4416 22.6212 37.5299 22.6212C40.4047 22.6212 42.7333 21.6432 44.3144 19.8595L41.6409 17.1841C40.6059 18.2197 39.3123 18.7663 37.9899 18.7663C36.2363 18.7663 34.9426 17.7882 34.4539 16.0334H45.2631C45.6081 10.366 42.8483 6.7124 37.415 6.7124ZM34.339 13.3003C34.6839 11.5167 35.7763 10.3084 37.4437 10.3084C39.1685 10.3084 40.3186 11.5167 40.3186 13.3003H34.339Z" fill="white"/>
<path id="Vector_5" d="M24.1196 0C22.7684 0 21.791 0.978123 21.791 2.35901C21.791 3.71111 22.7684 4.68923 24.1196 4.68923C25.4707 4.68923 26.4482 3.71111 26.4482 2.35901C26.4482 0.978123 25.4707 0 24.1196 0ZM21.561 6.7318V22.2955H26.6494V6.7318H21.561Z" fill="white"/>
<path id="Vector_6" d="M67.7941 0.958984V8.78397C66.7016 7.37432 65.0917 6.56881 63.0794 6.56881C58.7959 6.56881 55.95 9.70456 55.95 14.4513C55.95 19.2845 58.8247 22.5065 63.1943 22.5065C65.1493 22.5065 66.7304 21.7297 67.7941 20.2913V22.3051H72.9112V0.958984H67.7941ZM64.4593 18.4789C62.447 18.4789 61.0957 16.8967 61.0957 14.5952C61.0957 12.2937 62.447 10.7115 64.4593 10.7115C66.443 10.7115 67.7941 12.2649 67.7941 14.5952C67.7941 16.8967 66.443 18.4789 64.4593 18.4789Z" fill="white"/>
<path id="Vector_7" d="M86.2434 14.269V10.0688H91.5037H101.106V14.2402L91.5037 14.269H86.2434Z" fill="#44E0AA"/>
<path id="Vector_8" fill-rule="evenodd" clip-rule="evenodd" d="M86.2434 2.15771V22.3244H102.428V18.1242H91.5037V14.3267V14.2644H91.5143V10.069H91.5037V6.35789H102.141V2.15771H86.2434Z" fill="white"/>
<path id="Vector_9" d="M104.077 6.7124L109.021 14.3073L103.732 22.2761H109.366L112.443 17.5293L115.202 22.2761H121.096L115.835 14.3073L121.096 6.7124H115.145L112.443 11.0852L109.942 6.7124H104.077Z" fill="white"/>
<path id="Vector_10" d="M132.399 12.5524L136.106 10.3947C134.756 8.0645 132.283 6.7124 129.149 6.7124C124.32 6.7124 121.1 9.90569 121.1 14.7388C121.1 19.4855 124.291 22.6212 129.093 22.6212C132.399 22.6212 134.927 21.2692 136.164 18.8815L132.399 16.7237C131.765 17.932 130.702 18.4787 129.35 18.4787C127.511 18.4787 126.246 16.9827 126.246 14.71C126.246 12.466 127.511 10.9413 129.35 10.9413C130.673 10.9413 131.709 11.5455 132.399 12.5524Z" fill="white"/>
<path id="Vector_11" d="M148.924 6.54004C146.653 6.54004 144.87 7.4894 143.778 9.27304V0.958984H138.66V22.3051H143.778V14.624C143.778 12.5814 144.927 11.143 146.824 11.1142C148.463 11.1142 149.469 12.2074 149.469 13.9623V22.3051H154.587V12.4951C154.587 8.84151 152.344 6.54004 148.924 6.54004Z" fill="white"/>
<path id="Vector_12" d="M165.065 6.521C162.506 6.521 160.264 7.12513 157.821 8.21833L159.229 11.6705C160.897 10.865 162.592 10.4335 163.886 10.4335C165.842 10.4335 166.847 11.2965 166.847 12.7637V12.9364H162.794C158.942 12.9939 156.844 14.6912 156.844 17.6544C156.844 20.5024 158.827 22.5161 162.162 22.5161C164.261 22.5161 165.842 21.8258 166.847 20.5312V22.2861H171.878V12.1596C171.85 8.59231 169.349 6.521 165.065 6.521ZM163.743 19.0352C162.421 19.0352 161.645 18.3448 161.645 17.2803C161.645 16.1871 162.363 15.6693 163.8 15.6693H166.847V17.0214C166.532 18.2009 165.266 19.0352 163.743 19.0352Z" fill="white"/>
<path id="Vector_13" d="M185.553 6.47266C183.282 6.47266 181.499 7.42201 180.407 9.20564V6.67403H175.29V22.2377H180.407V14.01C180.608 12.2551 181.729 11.0756 183.454 11.0468C185.064 11.0468 186.099 12.1401 186.099 13.8949V22.2377H191.188V12.4277C191.188 8.77412 188.945 6.47266 185.553 6.47266Z" fill="white"/>
<path id="Vector_14" d="M204.446 6.71753V8.61624C203.411 7.2929 201.858 6.54492 199.903 6.54492C196.051 6.54492 193.377 9.47929 193.377 13.9096C193.377 18.4263 196.137 21.4182 200.019 21.4182C201.944 21.4182 203.439 20.6989 204.446 19.3756V21.0442C204.446 22.8565 203.036 24.0361 200.709 24.0361C199.04 24.0361 197.316 23.4895 195.908 22.5114L194.125 26.0499C195.878 27.2006 198.351 28.0637 201.082 28.0637C206.113 28.0637 209.534 25.3019 209.534 20.9004V6.71753H204.446ZM201.312 17.6783C199.415 17.6783 198.149 16.1824 198.149 14.0535C198.149 11.8959 199.415 10.3999 201.312 10.3999C203.18 10.3999 204.446 11.867 204.446 14.0535C204.446 16.1824 203.18 17.6783 201.312 17.6783Z" fill="white"/>
<path id="Vector_15" d="M220.123 6.56885C215.264 6.56885 212.016 9.76213 212.016 14.5952C212.016 19.342 215.15 22.4777 220.238 22.4777C223.112 22.4777 225.441 21.4996 227.022 19.716L224.348 17.0405C223.314 18.0762 222.02 18.6228 220.698 18.6228C218.945 18.6228 217.651 17.6447 217.162 15.8898H227.971C228.316 10.2224 225.556 6.56885 220.123 6.56885ZM217.047 13.1568C217.392 11.3732 218.484 10.1649 220.151 10.1649C221.876 10.1649 223.026 11.3732 223.026 13.1568H217.047Z" fill="white"/>
</g>
</svg>
