<svg width="500" height="237" viewBox="0 0 500 237" fill="none" xmlns="http://www.w3.org/2000/svg">
<path d="M219.756 133.567L239.789 75.2877L193.858 28.6033C185.153 40.2709 180 54.7437 180 70.4199C180 98.2476 196.238 122.283 219.756 133.567Z" fill="#44E0AA"/>
<path d="M296.782 18.3477L272.065 72.598L249.577 140.419C249.718 140.419 249.859 140.42 250 140.42C288.66 140.42 320 109.08 320 70.4199C320 49.744 311.036 31.1618 296.782 18.3477Z" fill="#5063F4"/>
<path d="M216.983 8.6798L252.468 44.1648L270.579 3.49405C264.072 1.49554 257.162 0.419922 249.999 0.419922C238.06 0.419922 226.819 3.40906 216.983 8.6798Z" fill="#252525"/>
<path d="M25.2209 184.972L40.5626 210.656L45.5445 202.723L34.9582 184.972H25.2209Z" fill="#44E0AA"/>
<path d="M49.7338 224.925V210.77L65.132 184.972H56.1309L45.5446 202.723L40.5627 210.656V224.925H49.7338Z" fill="#5063F4"/>
<path d="M119.82 182.632V224.982H129.897V182.632H119.82Z" fill="#252525"/>
<path d="M98.8999 194.047C89.3326 194.047 82.9355 200.383 82.9355 209.971C82.9355 219.389 89.1061 225.61 99.1262 225.61C104.787 225.61 109.373 223.669 112.486 220.131L107.222 214.823C105.184 216.877 102.636 217.962 100.032 217.962C96.5787 217.962 94.0312 216.021 93.0688 212.54H114.355C115.034 201.296 109.599 194.047 98.8999 194.047ZM92.8425 207.117C93.5218 203.579 95.6729 201.182 98.9565 201.182C102.353 201.182 104.618 203.579 104.618 207.117H92.8425Z" fill="#252525"/>
<path d="M72.7184 180.73C70.0575 180.73 68.1327 182.671 68.1327 185.41C68.1327 188.093 70.0575 190.033 72.7184 190.033C75.379 190.033 77.3038 188.093 77.3038 185.41C77.3038 182.671 75.379 180.73 72.7184 180.73ZM67.6799 194.085V224.963H77.7V194.085H67.6799Z" fill="#252525"/>
<path d="M158.723 182.632V198.157C156.572 195.36 153.402 193.762 149.439 193.762C141.004 193.762 135.399 199.983 135.399 209.4C135.399 218.989 141.06 225.381 149.665 225.381C153.515 225.381 156.629 223.84 158.723 220.987V224.982H168.8V182.632H158.723ZM152.156 217.391C148.194 217.391 145.533 214.252 145.533 209.686C145.533 205.12 148.194 201.981 152.156 201.981C156.063 201.981 158.723 205.063 158.723 209.686C158.723 214.252 156.063 217.391 152.156 217.391Z" fill="#252525"/>
<path d="M195.054 209.039V200.706H205.413H224.322V208.982L205.413 209.039H195.054Z" fill="#44E0AA"/>
<path fill-rule="evenodd" clip-rule="evenodd" d="M195.054 185.01V225.02H226.926V216.687H205.413V209.153V209.029H205.434V200.706H205.413V193.343H226.36V185.01H195.054Z" fill="#5063F4"/>
<path d="M230.172 194.047L239.909 209.115L229.493 224.925H240.589L246.647 215.507L252.081 224.925H263.687L253.326 209.115L263.687 194.047H251.968L246.647 202.723L241.722 194.047H230.172Z" fill="#252525"/>
<path d="M285.944 205.634L293.245 201.353C290.586 196.73 285.717 194.047 279.546 194.047C270.035 194.047 263.694 200.383 263.694 209.971C263.694 219.389 269.98 225.61 279.434 225.61C285.944 225.61 290.925 222.927 293.359 218.19L285.944 213.909C284.697 216.306 282.604 217.391 279.942 217.391C276.321 217.391 273.828 214.423 273.828 209.914C273.828 205.462 276.321 202.437 279.942 202.437C282.546 202.437 284.586 203.636 285.944 205.634Z" fill="#252525"/>
<path d="M318.486 193.705C314.014 193.705 310.504 195.588 308.352 199.127V182.632H298.274V224.982H308.352V209.743C308.352 205.691 310.615 202.837 314.352 202.78C317.58 202.78 319.56 204.949 319.56 208.43V224.982H329.638V205.519C329.638 198.271 325.221 193.705 318.486 193.705Z" fill="#252525"/>
<path d="M350.272 193.667C345.234 193.667 340.817 194.865 336.007 197.034L338.779 203.883C342.065 202.285 345.403 201.429 347.951 201.429C351.802 201.429 353.782 203.141 353.782 206.052V206.394H345.8C338.214 206.509 334.082 209.876 334.082 215.755C334.082 221.405 337.989 225.4 344.555 225.4C348.688 225.4 351.802 224.031 353.782 221.462V224.944H363.689V204.853C363.633 197.776 358.709 193.667 350.272 193.667ZM347.668 218.494C345.065 218.494 343.537 217.125 343.537 215.013C343.537 212.844 344.951 211.816 347.782 211.816H353.782V214.499C353.161 216.839 350.668 218.494 347.668 218.494Z" fill="#252525"/>
<path d="M390.618 193.572C386.145 193.572 382.635 195.455 380.484 198.994V193.971H370.408V224.849H380.484V208.525C380.88 205.044 383.087 202.704 386.484 202.647C389.655 202.647 391.693 204.816 391.693 208.297V224.849H401.714V205.386C401.714 198.138 397.297 193.572 390.618 193.572Z" fill="#252525"/>
<path d="M427.822 194.057V197.824C425.784 195.198 422.726 193.714 418.877 193.714C411.291 193.714 406.026 199.536 406.026 208.325C406.026 217.286 411.461 223.222 419.105 223.222C422.895 223.222 425.84 221.795 427.822 219.17V222.48C427.822 226.076 425.047 228.416 420.463 228.416C417.178 228.416 413.781 227.331 411.008 225.391L407.498 232.411C410.95 234.694 415.819 236.406 421.198 236.406C431.105 236.406 437.842 230.927 437.842 222.195V194.057H427.822ZM421.65 215.802C417.915 215.802 415.423 212.834 415.423 208.611C415.423 204.33 417.915 201.362 421.65 201.362C425.33 201.362 427.822 204.273 427.822 208.611C427.822 212.834 425.33 215.802 421.65 215.802Z" fill="#252525"/>
<path d="M458.694 193.762C449.126 193.762 442.729 200.097 442.729 209.686C442.729 219.103 448.901 225.324 458.922 225.324C464.581 225.324 469.167 223.384 472.28 219.845L467.015 214.537C464.977 216.592 462.429 217.676 459.826 217.676C456.374 217.676 453.826 215.736 452.863 212.254H474.149C474.828 201.01 469.394 193.762 458.694 193.762ZM452.636 206.832C453.316 203.293 455.467 200.896 458.75 200.896C462.147 200.896 464.412 203.293 464.412 206.832H452.636Z" fill="#252525"/>
</svg>
